%TF.GenerationSoftware,KiCad,Pcbnew,10.0.3*%
%TF.CreationDate,2026-09-06T00:28:55-07:00*%
%TF.ProjectId,Open Beam Interface,4f70656e-2042-4656-916d-20496e746572,rev?*%
%TF.SameCoordinates,Original*%
%TF.FileFunction,OtherDrawing,Comment*%
%FSLAX46Y46*%
G04 Gerber Fmt 4.6, Leading zero omitted, Abs format (unit mm)*
G04 Created by KiCad (PCBNEW 10.0.3) date 2026-09-06 00:28:55*
%MOMM*%
%LPD*%
G01*
G04 APERTURE LIST*
%ADD10C,0.300000*%
G04 APERTURE END LIST*
D10*
X244578328Y-99999998D02*
X244578328Y-98999998D01*
X244578328Y-98999998D02*
X246078328Y-99642855D01*
X244721185Y-98499998D02*
X244649757Y-98428570D01*
X244649757Y-98428570D02*
X244578328Y-98285713D01*
X244578328Y-98285713D02*
X244578328Y-97928570D01*
X244578328Y-97928570D02*
X244649757Y-97785713D01*
X244649757Y-97785713D02*
X244721185Y-97714284D01*
X244721185Y-97714284D02*
X244864042Y-97642855D01*
X244864042Y-97642855D02*
X245006900Y-97642855D01*
X245006900Y-97642855D02*
X245221185Y-97714284D01*
X245221185Y-97714284D02*
X246078328Y-98571427D01*
X246078328Y-98571427D02*
X246078328Y-97642855D01*
X245935471Y-96999999D02*
X246006900Y-96928570D01*
X246006900Y-96928570D02*
X246078328Y-96999999D01*
X246078328Y-96999999D02*
X246006900Y-97071427D01*
X246006900Y-97071427D02*
X245935471Y-96999999D01*
X245935471Y-96999999D02*
X246078328Y-96999999D01*
X244578328Y-95999998D02*
X244578328Y-95857141D01*
X244578328Y-95857141D02*
X244649757Y-95714284D01*
X244649757Y-95714284D02*
X244721185Y-95642856D01*
X244721185Y-95642856D02*
X244864042Y-95571427D01*
X244864042Y-95571427D02*
X245149757Y-95499998D01*
X245149757Y-95499998D02*
X245506900Y-95499998D01*
X245506900Y-95499998D02*
X245792614Y-95571427D01*
X245792614Y-95571427D02*
X245935471Y-95642856D01*
X245935471Y-95642856D02*
X246006900Y-95714284D01*
X246006900Y-95714284D02*
X246078328Y-95857141D01*
X246078328Y-95857141D02*
X246078328Y-95999998D01*
X246078328Y-95999998D02*
X246006900Y-96142856D01*
X246006900Y-96142856D02*
X245935471Y-96214284D01*
X245935471Y-96214284D02*
X245792614Y-96285713D01*
X245792614Y-96285713D02*
X245506900Y-96357141D01*
X245506900Y-96357141D02*
X245149757Y-96357141D01*
X245149757Y-96357141D02*
X244864042Y-96285713D01*
X244864042Y-96285713D02*
X244721185Y-96214284D01*
X244721185Y-96214284D02*
X244649757Y-96142856D01*
X244649757Y-96142856D02*
X244578328Y-95999998D01*
X244578328Y-94571427D02*
X244578328Y-94428570D01*
X244578328Y-94428570D02*
X244649757Y-94285713D01*
X244649757Y-94285713D02*
X244721185Y-94214285D01*
X244721185Y-94214285D02*
X244864042Y-94142856D01*
X244864042Y-94142856D02*
X245149757Y-94071427D01*
X245149757Y-94071427D02*
X245506900Y-94071427D01*
X245506900Y-94071427D02*
X245792614Y-94142856D01*
X245792614Y-94142856D02*
X245935471Y-94214285D01*
X245935471Y-94214285D02*
X246006900Y-94285713D01*
X246006900Y-94285713D02*
X246078328Y-94428570D01*
X246078328Y-94428570D02*
X246078328Y-94571427D01*
X246078328Y-94571427D02*
X246006900Y-94714285D01*
X246006900Y-94714285D02*
X245935471Y-94785713D01*
X245935471Y-94785713D02*
X245792614Y-94857142D01*
X245792614Y-94857142D02*
X245506900Y-94928570D01*
X245506900Y-94928570D02*
X245149757Y-94928570D01*
X245149757Y-94928570D02*
X244864042Y-94857142D01*
X244864042Y-94857142D02*
X244721185Y-94785713D01*
X244721185Y-94785713D02*
X244649757Y-94714285D01*
X244649757Y-94714285D02*
X244578328Y-94571427D01*
X244578328Y-93142856D02*
X244578328Y-92999999D01*
X244578328Y-92999999D02*
X244649757Y-92857142D01*
X244649757Y-92857142D02*
X244721185Y-92785714D01*
X244721185Y-92785714D02*
X244864042Y-92714285D01*
X244864042Y-92714285D02*
X245149757Y-92642856D01*
X245149757Y-92642856D02*
X245506900Y-92642856D01*
X245506900Y-92642856D02*
X245792614Y-92714285D01*
X245792614Y-92714285D02*
X245935471Y-92785714D01*
X245935471Y-92785714D02*
X246006900Y-92857142D01*
X246006900Y-92857142D02*
X246078328Y-92999999D01*
X246078328Y-92999999D02*
X246078328Y-93142856D01*
X246078328Y-93142856D02*
X246006900Y-93285714D01*
X246006900Y-93285714D02*
X245935471Y-93357142D01*
X245935471Y-93357142D02*
X245792614Y-93428571D01*
X245792614Y-93428571D02*
X245506900Y-93499999D01*
X245506900Y-93499999D02*
X245149757Y-93499999D01*
X245149757Y-93499999D02*
X244864042Y-93428571D01*
X244864042Y-93428571D02*
X244721185Y-93357142D01*
X244721185Y-93357142D02*
X244649757Y-93285714D01*
X244649757Y-93285714D02*
X244578328Y-93142856D01*
X244578328Y-91714285D02*
X244578328Y-91571428D01*
X244578328Y-91571428D02*
X244649757Y-91428571D01*
X244649757Y-91428571D02*
X244721185Y-91357143D01*
X244721185Y-91357143D02*
X244864042Y-91285714D01*
X244864042Y-91285714D02*
X245149757Y-91214285D01*
X245149757Y-91214285D02*
X245506900Y-91214285D01*
X245506900Y-91214285D02*
X245792614Y-91285714D01*
X245792614Y-91285714D02*
X245935471Y-91357143D01*
X245935471Y-91357143D02*
X246006900Y-91428571D01*
X246006900Y-91428571D02*
X246078328Y-91571428D01*
X246078328Y-91571428D02*
X246078328Y-91714285D01*
X246078328Y-91714285D02*
X246006900Y-91857143D01*
X246006900Y-91857143D02*
X245935471Y-91928571D01*
X245935471Y-91928571D02*
X245792614Y-92000000D01*
X245792614Y-92000000D02*
X245506900Y-92071428D01*
X245506900Y-92071428D02*
X245149757Y-92071428D01*
X245149757Y-92071428D02*
X244864042Y-92000000D01*
X244864042Y-92000000D02*
X244721185Y-91928571D01*
X244721185Y-91928571D02*
X244649757Y-91857143D01*
X244649757Y-91857143D02*
X244578328Y-91714285D01*
X246078328Y-89428572D02*
X245078328Y-89428572D01*
X245221185Y-89428572D02*
X245149757Y-89357143D01*
X245149757Y-89357143D02*
X245078328Y-89214286D01*
X245078328Y-89214286D02*
X245078328Y-89000000D01*
X245078328Y-89000000D02*
X245149757Y-88857143D01*
X245149757Y-88857143D02*
X245292614Y-88785715D01*
X245292614Y-88785715D02*
X246078328Y-88785715D01*
X245292614Y-88785715D02*
X245149757Y-88714286D01*
X245149757Y-88714286D02*
X245078328Y-88571429D01*
X245078328Y-88571429D02*
X245078328Y-88357143D01*
X245078328Y-88357143D02*
X245149757Y-88214286D01*
X245149757Y-88214286D02*
X245292614Y-88142857D01*
X245292614Y-88142857D02*
X246078328Y-88142857D01*
X246078328Y-87428572D02*
X245078328Y-87428572D01*
X245221185Y-87428572D02*
X245149757Y-87357143D01*
X245149757Y-87357143D02*
X245078328Y-87214286D01*
X245078328Y-87214286D02*
X245078328Y-87000000D01*
X245078328Y-87000000D02*
X245149757Y-86857143D01*
X245149757Y-86857143D02*
X245292614Y-86785715D01*
X245292614Y-86785715D02*
X246078328Y-86785715D01*
X245292614Y-86785715D02*
X245149757Y-86714286D01*
X245149757Y-86714286D02*
X245078328Y-86571429D01*
X245078328Y-86571429D02*
X245078328Y-86357143D01*
X245078328Y-86357143D02*
X245149757Y-86214286D01*
X245149757Y-86214286D02*
X245292614Y-86142857D01*
X245292614Y-86142857D02*
X246078328Y-86142857D01*
X213200000Y-129000000D02*
X247786420Y-129000000D01*
X213200000Y-57000000D02*
X247786420Y-57000000D01*
X247200000Y-129000000D02*
X247200000Y-57000000D01*
X247200000Y-129000000D02*
X246613579Y-127873496D01*
X247200000Y-129000000D02*
X247786421Y-127873496D01*
X247200000Y-57000000D02*
X247786421Y-58126504D01*
X247200000Y-57000000D02*
X246613579Y-58126504D01*
X228078328Y-84071426D02*
X228078328Y-84928569D01*
X228078328Y-84499998D02*
X226578328Y-84499998D01*
X226578328Y-84499998D02*
X226792614Y-84642855D01*
X226792614Y-84642855D02*
X226935471Y-84785712D01*
X226935471Y-84785712D02*
X227006900Y-84928569D01*
X228078328Y-83357141D02*
X228078328Y-83071427D01*
X228078328Y-83071427D02*
X228006900Y-82928570D01*
X228006900Y-82928570D02*
X227935471Y-82857141D01*
X227935471Y-82857141D02*
X227721185Y-82714284D01*
X227721185Y-82714284D02*
X227435471Y-82642855D01*
X227435471Y-82642855D02*
X226864042Y-82642855D01*
X226864042Y-82642855D02*
X226721185Y-82714284D01*
X226721185Y-82714284D02*
X226649757Y-82785713D01*
X226649757Y-82785713D02*
X226578328Y-82928570D01*
X226578328Y-82928570D02*
X226578328Y-83214284D01*
X226578328Y-83214284D02*
X226649757Y-83357141D01*
X226649757Y-83357141D02*
X226721185Y-83428570D01*
X226721185Y-83428570D02*
X226864042Y-83499998D01*
X226864042Y-83499998D02*
X227221185Y-83499998D01*
X227221185Y-83499998D02*
X227364042Y-83428570D01*
X227364042Y-83428570D02*
X227435471Y-83357141D01*
X227435471Y-83357141D02*
X227506900Y-83214284D01*
X227506900Y-83214284D02*
X227506900Y-82928570D01*
X227506900Y-82928570D02*
X227435471Y-82785713D01*
X227435471Y-82785713D02*
X227364042Y-82714284D01*
X227364042Y-82714284D02*
X227221185Y-82642855D01*
X227935471Y-81999999D02*
X228006900Y-81928570D01*
X228006900Y-81928570D02*
X228078328Y-81999999D01*
X228078328Y-81999999D02*
X228006900Y-82071427D01*
X228006900Y-82071427D02*
X227935471Y-81999999D01*
X227935471Y-81999999D02*
X228078328Y-81999999D01*
X226578328Y-80999998D02*
X226578328Y-80857141D01*
X226578328Y-80857141D02*
X226649757Y-80714284D01*
X226649757Y-80714284D02*
X226721185Y-80642856D01*
X226721185Y-80642856D02*
X226864042Y-80571427D01*
X226864042Y-80571427D02*
X227149757Y-80499998D01*
X227149757Y-80499998D02*
X227506900Y-80499998D01*
X227506900Y-80499998D02*
X227792614Y-80571427D01*
X227792614Y-80571427D02*
X227935471Y-80642856D01*
X227935471Y-80642856D02*
X228006900Y-80714284D01*
X228006900Y-80714284D02*
X228078328Y-80857141D01*
X228078328Y-80857141D02*
X228078328Y-80999998D01*
X228078328Y-80999998D02*
X228006900Y-81142856D01*
X228006900Y-81142856D02*
X227935471Y-81214284D01*
X227935471Y-81214284D02*
X227792614Y-81285713D01*
X227792614Y-81285713D02*
X227506900Y-81357141D01*
X227506900Y-81357141D02*
X227149757Y-81357141D01*
X227149757Y-81357141D02*
X226864042Y-81285713D01*
X226864042Y-81285713D02*
X226721185Y-81214284D01*
X226721185Y-81214284D02*
X226649757Y-81142856D01*
X226649757Y-81142856D02*
X226578328Y-80999998D01*
X226578328Y-79571427D02*
X226578328Y-79428570D01*
X226578328Y-79428570D02*
X226649757Y-79285713D01*
X226649757Y-79285713D02*
X226721185Y-79214285D01*
X226721185Y-79214285D02*
X226864042Y-79142856D01*
X226864042Y-79142856D02*
X227149757Y-79071427D01*
X227149757Y-79071427D02*
X227506900Y-79071427D01*
X227506900Y-79071427D02*
X227792614Y-79142856D01*
X227792614Y-79142856D02*
X227935471Y-79214285D01*
X227935471Y-79214285D02*
X228006900Y-79285713D01*
X228006900Y-79285713D02*
X228078328Y-79428570D01*
X228078328Y-79428570D02*
X228078328Y-79571427D01*
X228078328Y-79571427D02*
X228006900Y-79714285D01*
X228006900Y-79714285D02*
X227935471Y-79785713D01*
X227935471Y-79785713D02*
X227792614Y-79857142D01*
X227792614Y-79857142D02*
X227506900Y-79928570D01*
X227506900Y-79928570D02*
X227149757Y-79928570D01*
X227149757Y-79928570D02*
X226864042Y-79857142D01*
X226864042Y-79857142D02*
X226721185Y-79785713D01*
X226721185Y-79785713D02*
X226649757Y-79714285D01*
X226649757Y-79714285D02*
X226578328Y-79571427D01*
X226578328Y-78142856D02*
X226578328Y-77999999D01*
X226578328Y-77999999D02*
X226649757Y-77857142D01*
X226649757Y-77857142D02*
X226721185Y-77785714D01*
X226721185Y-77785714D02*
X226864042Y-77714285D01*
X226864042Y-77714285D02*
X227149757Y-77642856D01*
X227149757Y-77642856D02*
X227506900Y-77642856D01*
X227506900Y-77642856D02*
X227792614Y-77714285D01*
X227792614Y-77714285D02*
X227935471Y-77785714D01*
X227935471Y-77785714D02*
X228006900Y-77857142D01*
X228006900Y-77857142D02*
X228078328Y-77999999D01*
X228078328Y-77999999D02*
X228078328Y-78142856D01*
X228078328Y-78142856D02*
X228006900Y-78285714D01*
X228006900Y-78285714D02*
X227935471Y-78357142D01*
X227935471Y-78357142D02*
X227792614Y-78428571D01*
X227792614Y-78428571D02*
X227506900Y-78499999D01*
X227506900Y-78499999D02*
X227149757Y-78499999D01*
X227149757Y-78499999D02*
X226864042Y-78428571D01*
X226864042Y-78428571D02*
X226721185Y-78357142D01*
X226721185Y-78357142D02*
X226649757Y-78285714D01*
X226649757Y-78285714D02*
X226578328Y-78142856D01*
X226578328Y-76714285D02*
X226578328Y-76571428D01*
X226578328Y-76571428D02*
X226649757Y-76428571D01*
X226649757Y-76428571D02*
X226721185Y-76357143D01*
X226721185Y-76357143D02*
X226864042Y-76285714D01*
X226864042Y-76285714D02*
X227149757Y-76214285D01*
X227149757Y-76214285D02*
X227506900Y-76214285D01*
X227506900Y-76214285D02*
X227792614Y-76285714D01*
X227792614Y-76285714D02*
X227935471Y-76357143D01*
X227935471Y-76357143D02*
X228006900Y-76428571D01*
X228006900Y-76428571D02*
X228078328Y-76571428D01*
X228078328Y-76571428D02*
X228078328Y-76714285D01*
X228078328Y-76714285D02*
X228006900Y-76857143D01*
X228006900Y-76857143D02*
X227935471Y-76928571D01*
X227935471Y-76928571D02*
X227792614Y-77000000D01*
X227792614Y-77000000D02*
X227506900Y-77071428D01*
X227506900Y-77071428D02*
X227149757Y-77071428D01*
X227149757Y-77071428D02*
X226864042Y-77000000D01*
X226864042Y-77000000D02*
X226721185Y-76928571D01*
X226721185Y-76928571D02*
X226649757Y-76857143D01*
X226649757Y-76857143D02*
X226578328Y-76714285D01*
X228078328Y-74428572D02*
X227078328Y-74428572D01*
X227221185Y-74428572D02*
X227149757Y-74357143D01*
X227149757Y-74357143D02*
X227078328Y-74214286D01*
X227078328Y-74214286D02*
X227078328Y-74000000D01*
X227078328Y-74000000D02*
X227149757Y-73857143D01*
X227149757Y-73857143D02*
X227292614Y-73785715D01*
X227292614Y-73785715D02*
X228078328Y-73785715D01*
X227292614Y-73785715D02*
X227149757Y-73714286D01*
X227149757Y-73714286D02*
X227078328Y-73571429D01*
X227078328Y-73571429D02*
X227078328Y-73357143D01*
X227078328Y-73357143D02*
X227149757Y-73214286D01*
X227149757Y-73214286D02*
X227292614Y-73142857D01*
X227292614Y-73142857D02*
X228078328Y-73142857D01*
X228078328Y-72428572D02*
X227078328Y-72428572D01*
X227221185Y-72428572D02*
X227149757Y-72357143D01*
X227149757Y-72357143D02*
X227078328Y-72214286D01*
X227078328Y-72214286D02*
X227078328Y-72000000D01*
X227078328Y-72000000D02*
X227149757Y-71857143D01*
X227149757Y-71857143D02*
X227292614Y-71785715D01*
X227292614Y-71785715D02*
X228078328Y-71785715D01*
X227292614Y-71785715D02*
X227149757Y-71714286D01*
X227149757Y-71714286D02*
X227078328Y-71571429D01*
X227078328Y-71571429D02*
X227078328Y-71357143D01*
X227078328Y-71357143D02*
X227149757Y-71214286D01*
X227149757Y-71214286D02*
X227292614Y-71142857D01*
X227292614Y-71142857D02*
X228078328Y-71142857D01*
X214400000Y-68500000D02*
X229786420Y-68500000D01*
X214400000Y-87500000D02*
X229786420Y-87500000D01*
X229200000Y-68500000D02*
X229200000Y-87500000D01*
X229200000Y-68500000D02*
X229786421Y-69626504D01*
X229200000Y-68500000D02*
X228613579Y-69626504D01*
X229200000Y-87500000D02*
X228613579Y-86373496D01*
X229200000Y-87500000D02*
X229786421Y-86373496D01*
X240221185Y-99642855D02*
X240149757Y-99785712D01*
X240149757Y-99785712D02*
X240078328Y-99857141D01*
X240078328Y-99857141D02*
X239935471Y-99928569D01*
X239935471Y-99928569D02*
X239864042Y-99928569D01*
X239864042Y-99928569D02*
X239721185Y-99857141D01*
X239721185Y-99857141D02*
X239649757Y-99785712D01*
X239649757Y-99785712D02*
X239578328Y-99642855D01*
X239578328Y-99642855D02*
X239578328Y-99357141D01*
X239578328Y-99357141D02*
X239649757Y-99214284D01*
X239649757Y-99214284D02*
X239721185Y-99142855D01*
X239721185Y-99142855D02*
X239864042Y-99071426D01*
X239864042Y-99071426D02*
X239935471Y-99071426D01*
X239935471Y-99071426D02*
X240078328Y-99142855D01*
X240078328Y-99142855D02*
X240149757Y-99214284D01*
X240149757Y-99214284D02*
X240221185Y-99357141D01*
X240221185Y-99357141D02*
X240221185Y-99642855D01*
X240221185Y-99642855D02*
X240292614Y-99785712D01*
X240292614Y-99785712D02*
X240364042Y-99857141D01*
X240364042Y-99857141D02*
X240506900Y-99928569D01*
X240506900Y-99928569D02*
X240792614Y-99928569D01*
X240792614Y-99928569D02*
X240935471Y-99857141D01*
X240935471Y-99857141D02*
X241006900Y-99785712D01*
X241006900Y-99785712D02*
X241078328Y-99642855D01*
X241078328Y-99642855D02*
X241078328Y-99357141D01*
X241078328Y-99357141D02*
X241006900Y-99214284D01*
X241006900Y-99214284D02*
X240935471Y-99142855D01*
X240935471Y-99142855D02*
X240792614Y-99071426D01*
X240792614Y-99071426D02*
X240506900Y-99071426D01*
X240506900Y-99071426D02*
X240364042Y-99142855D01*
X240364042Y-99142855D02*
X240292614Y-99214284D01*
X240292614Y-99214284D02*
X240221185Y-99357141D01*
X239578328Y-98142855D02*
X239578328Y-97999998D01*
X239578328Y-97999998D02*
X239649757Y-97857141D01*
X239649757Y-97857141D02*
X239721185Y-97785713D01*
X239721185Y-97785713D02*
X239864042Y-97714284D01*
X239864042Y-97714284D02*
X240149757Y-97642855D01*
X240149757Y-97642855D02*
X240506900Y-97642855D01*
X240506900Y-97642855D02*
X240792614Y-97714284D01*
X240792614Y-97714284D02*
X240935471Y-97785713D01*
X240935471Y-97785713D02*
X241006900Y-97857141D01*
X241006900Y-97857141D02*
X241078328Y-97999998D01*
X241078328Y-97999998D02*
X241078328Y-98142855D01*
X241078328Y-98142855D02*
X241006900Y-98285713D01*
X241006900Y-98285713D02*
X240935471Y-98357141D01*
X240935471Y-98357141D02*
X240792614Y-98428570D01*
X240792614Y-98428570D02*
X240506900Y-98499998D01*
X240506900Y-98499998D02*
X240149757Y-98499998D01*
X240149757Y-98499998D02*
X239864042Y-98428570D01*
X239864042Y-98428570D02*
X239721185Y-98357141D01*
X239721185Y-98357141D02*
X239649757Y-98285713D01*
X239649757Y-98285713D02*
X239578328Y-98142855D01*
X240935471Y-96999999D02*
X241006900Y-96928570D01*
X241006900Y-96928570D02*
X241078328Y-96999999D01*
X241078328Y-96999999D02*
X241006900Y-97071427D01*
X241006900Y-97071427D02*
X240935471Y-96999999D01*
X240935471Y-96999999D02*
X241078328Y-96999999D01*
X239578328Y-95999998D02*
X239578328Y-95857141D01*
X239578328Y-95857141D02*
X239649757Y-95714284D01*
X239649757Y-95714284D02*
X239721185Y-95642856D01*
X239721185Y-95642856D02*
X239864042Y-95571427D01*
X239864042Y-95571427D02*
X240149757Y-95499998D01*
X240149757Y-95499998D02*
X240506900Y-95499998D01*
X240506900Y-95499998D02*
X240792614Y-95571427D01*
X240792614Y-95571427D02*
X240935471Y-95642856D01*
X240935471Y-95642856D02*
X241006900Y-95714284D01*
X241006900Y-95714284D02*
X241078328Y-95857141D01*
X241078328Y-95857141D02*
X241078328Y-95999998D01*
X241078328Y-95999998D02*
X241006900Y-96142856D01*
X241006900Y-96142856D02*
X240935471Y-96214284D01*
X240935471Y-96214284D02*
X240792614Y-96285713D01*
X240792614Y-96285713D02*
X240506900Y-96357141D01*
X240506900Y-96357141D02*
X240149757Y-96357141D01*
X240149757Y-96357141D02*
X239864042Y-96285713D01*
X239864042Y-96285713D02*
X239721185Y-96214284D01*
X239721185Y-96214284D02*
X239649757Y-96142856D01*
X239649757Y-96142856D02*
X239578328Y-95999998D01*
X239578328Y-94571427D02*
X239578328Y-94428570D01*
X239578328Y-94428570D02*
X239649757Y-94285713D01*
X239649757Y-94285713D02*
X239721185Y-94214285D01*
X239721185Y-94214285D02*
X239864042Y-94142856D01*
X239864042Y-94142856D02*
X240149757Y-94071427D01*
X240149757Y-94071427D02*
X240506900Y-94071427D01*
X240506900Y-94071427D02*
X240792614Y-94142856D01*
X240792614Y-94142856D02*
X240935471Y-94214285D01*
X240935471Y-94214285D02*
X241006900Y-94285713D01*
X241006900Y-94285713D02*
X241078328Y-94428570D01*
X241078328Y-94428570D02*
X241078328Y-94571427D01*
X241078328Y-94571427D02*
X241006900Y-94714285D01*
X241006900Y-94714285D02*
X240935471Y-94785713D01*
X240935471Y-94785713D02*
X240792614Y-94857142D01*
X240792614Y-94857142D02*
X240506900Y-94928570D01*
X240506900Y-94928570D02*
X240149757Y-94928570D01*
X240149757Y-94928570D02*
X239864042Y-94857142D01*
X239864042Y-94857142D02*
X239721185Y-94785713D01*
X239721185Y-94785713D02*
X239649757Y-94714285D01*
X239649757Y-94714285D02*
X239578328Y-94571427D01*
X239578328Y-93142856D02*
X239578328Y-92999999D01*
X239578328Y-92999999D02*
X239649757Y-92857142D01*
X239649757Y-92857142D02*
X239721185Y-92785714D01*
X239721185Y-92785714D02*
X239864042Y-92714285D01*
X239864042Y-92714285D02*
X240149757Y-92642856D01*
X240149757Y-92642856D02*
X240506900Y-92642856D01*
X240506900Y-92642856D02*
X240792614Y-92714285D01*
X240792614Y-92714285D02*
X240935471Y-92785714D01*
X240935471Y-92785714D02*
X241006900Y-92857142D01*
X241006900Y-92857142D02*
X241078328Y-92999999D01*
X241078328Y-92999999D02*
X241078328Y-93142856D01*
X241078328Y-93142856D02*
X241006900Y-93285714D01*
X241006900Y-93285714D02*
X240935471Y-93357142D01*
X240935471Y-93357142D02*
X240792614Y-93428571D01*
X240792614Y-93428571D02*
X240506900Y-93499999D01*
X240506900Y-93499999D02*
X240149757Y-93499999D01*
X240149757Y-93499999D02*
X239864042Y-93428571D01*
X239864042Y-93428571D02*
X239721185Y-93357142D01*
X239721185Y-93357142D02*
X239649757Y-93285714D01*
X239649757Y-93285714D02*
X239578328Y-93142856D01*
X239578328Y-91714285D02*
X239578328Y-91571428D01*
X239578328Y-91571428D02*
X239649757Y-91428571D01*
X239649757Y-91428571D02*
X239721185Y-91357143D01*
X239721185Y-91357143D02*
X239864042Y-91285714D01*
X239864042Y-91285714D02*
X240149757Y-91214285D01*
X240149757Y-91214285D02*
X240506900Y-91214285D01*
X240506900Y-91214285D02*
X240792614Y-91285714D01*
X240792614Y-91285714D02*
X240935471Y-91357143D01*
X240935471Y-91357143D02*
X241006900Y-91428571D01*
X241006900Y-91428571D02*
X241078328Y-91571428D01*
X241078328Y-91571428D02*
X241078328Y-91714285D01*
X241078328Y-91714285D02*
X241006900Y-91857143D01*
X241006900Y-91857143D02*
X240935471Y-91928571D01*
X240935471Y-91928571D02*
X240792614Y-92000000D01*
X240792614Y-92000000D02*
X240506900Y-92071428D01*
X240506900Y-92071428D02*
X240149757Y-92071428D01*
X240149757Y-92071428D02*
X239864042Y-92000000D01*
X239864042Y-92000000D02*
X239721185Y-91928571D01*
X239721185Y-91928571D02*
X239649757Y-91857143D01*
X239649757Y-91857143D02*
X239578328Y-91714285D01*
X241078328Y-89428572D02*
X240078328Y-89428572D01*
X240221185Y-89428572D02*
X240149757Y-89357143D01*
X240149757Y-89357143D02*
X240078328Y-89214286D01*
X240078328Y-89214286D02*
X240078328Y-89000000D01*
X240078328Y-89000000D02*
X240149757Y-88857143D01*
X240149757Y-88857143D02*
X240292614Y-88785715D01*
X240292614Y-88785715D02*
X241078328Y-88785715D01*
X240292614Y-88785715D02*
X240149757Y-88714286D01*
X240149757Y-88714286D02*
X240078328Y-88571429D01*
X240078328Y-88571429D02*
X240078328Y-88357143D01*
X240078328Y-88357143D02*
X240149757Y-88214286D01*
X240149757Y-88214286D02*
X240292614Y-88142857D01*
X240292614Y-88142857D02*
X241078328Y-88142857D01*
X241078328Y-87428572D02*
X240078328Y-87428572D01*
X240221185Y-87428572D02*
X240149757Y-87357143D01*
X240149757Y-87357143D02*
X240078328Y-87214286D01*
X240078328Y-87214286D02*
X240078328Y-87000000D01*
X240078328Y-87000000D02*
X240149757Y-86857143D01*
X240149757Y-86857143D02*
X240292614Y-86785715D01*
X240292614Y-86785715D02*
X241078328Y-86785715D01*
X240292614Y-86785715D02*
X240149757Y-86714286D01*
X240149757Y-86714286D02*
X240078328Y-86571429D01*
X240078328Y-86571429D02*
X240078328Y-86357143D01*
X240078328Y-86357143D02*
X240149757Y-86214286D01*
X240149757Y-86214286D02*
X240292614Y-86142857D01*
X240292614Y-86142857D02*
X241078328Y-86142857D01*
X217200000Y-53000000D02*
X242786420Y-53000000D01*
X217200000Y-133000000D02*
X242786420Y-133000000D01*
X242200000Y-53000000D02*
X242200000Y-133000000D01*
X242200000Y-53000000D02*
X242786421Y-54126504D01*
X242200000Y-53000000D02*
X241613579Y-54126504D01*
X242200000Y-133000000D02*
X241613579Y-131873496D01*
X242200000Y-133000000D02*
X242786421Y-131873496D01*
X228078328Y-101071426D02*
X228078328Y-101928569D01*
X228078328Y-101499998D02*
X226578328Y-101499998D01*
X226578328Y-101499998D02*
X226792614Y-101642855D01*
X226792614Y-101642855D02*
X226935471Y-101785712D01*
X226935471Y-101785712D02*
X227006900Y-101928569D01*
X226578328Y-99714284D02*
X226578328Y-100428570D01*
X226578328Y-100428570D02*
X227292614Y-100499998D01*
X227292614Y-100499998D02*
X227221185Y-100428570D01*
X227221185Y-100428570D02*
X227149757Y-100285713D01*
X227149757Y-100285713D02*
X227149757Y-99928570D01*
X227149757Y-99928570D02*
X227221185Y-99785713D01*
X227221185Y-99785713D02*
X227292614Y-99714284D01*
X227292614Y-99714284D02*
X227435471Y-99642855D01*
X227435471Y-99642855D02*
X227792614Y-99642855D01*
X227792614Y-99642855D02*
X227935471Y-99714284D01*
X227935471Y-99714284D02*
X228006900Y-99785713D01*
X228006900Y-99785713D02*
X228078328Y-99928570D01*
X228078328Y-99928570D02*
X228078328Y-100285713D01*
X228078328Y-100285713D02*
X228006900Y-100428570D01*
X228006900Y-100428570D02*
X227935471Y-100499998D01*
X227935471Y-98999999D02*
X228006900Y-98928570D01*
X228006900Y-98928570D02*
X228078328Y-98999999D01*
X228078328Y-98999999D02*
X228006900Y-99071427D01*
X228006900Y-99071427D02*
X227935471Y-98999999D01*
X227935471Y-98999999D02*
X228078328Y-98999999D01*
X226578328Y-97999998D02*
X226578328Y-97857141D01*
X226578328Y-97857141D02*
X226649757Y-97714284D01*
X226649757Y-97714284D02*
X226721185Y-97642856D01*
X226721185Y-97642856D02*
X226864042Y-97571427D01*
X226864042Y-97571427D02*
X227149757Y-97499998D01*
X227149757Y-97499998D02*
X227506900Y-97499998D01*
X227506900Y-97499998D02*
X227792614Y-97571427D01*
X227792614Y-97571427D02*
X227935471Y-97642856D01*
X227935471Y-97642856D02*
X228006900Y-97714284D01*
X228006900Y-97714284D02*
X228078328Y-97857141D01*
X228078328Y-97857141D02*
X228078328Y-97999998D01*
X228078328Y-97999998D02*
X228006900Y-98142856D01*
X228006900Y-98142856D02*
X227935471Y-98214284D01*
X227935471Y-98214284D02*
X227792614Y-98285713D01*
X227792614Y-98285713D02*
X227506900Y-98357141D01*
X227506900Y-98357141D02*
X227149757Y-98357141D01*
X227149757Y-98357141D02*
X226864042Y-98285713D01*
X226864042Y-98285713D02*
X226721185Y-98214284D01*
X226721185Y-98214284D02*
X226649757Y-98142856D01*
X226649757Y-98142856D02*
X226578328Y-97999998D01*
X226578328Y-96571427D02*
X226578328Y-96428570D01*
X226578328Y-96428570D02*
X226649757Y-96285713D01*
X226649757Y-96285713D02*
X226721185Y-96214285D01*
X226721185Y-96214285D02*
X226864042Y-96142856D01*
X226864042Y-96142856D02*
X227149757Y-96071427D01*
X227149757Y-96071427D02*
X227506900Y-96071427D01*
X227506900Y-96071427D02*
X227792614Y-96142856D01*
X227792614Y-96142856D02*
X227935471Y-96214285D01*
X227935471Y-96214285D02*
X228006900Y-96285713D01*
X228006900Y-96285713D02*
X228078328Y-96428570D01*
X228078328Y-96428570D02*
X228078328Y-96571427D01*
X228078328Y-96571427D02*
X228006900Y-96714285D01*
X228006900Y-96714285D02*
X227935471Y-96785713D01*
X227935471Y-96785713D02*
X227792614Y-96857142D01*
X227792614Y-96857142D02*
X227506900Y-96928570D01*
X227506900Y-96928570D02*
X227149757Y-96928570D01*
X227149757Y-96928570D02*
X226864042Y-96857142D01*
X226864042Y-96857142D02*
X226721185Y-96785713D01*
X226721185Y-96785713D02*
X226649757Y-96714285D01*
X226649757Y-96714285D02*
X226578328Y-96571427D01*
X226578328Y-95142856D02*
X226578328Y-94999999D01*
X226578328Y-94999999D02*
X226649757Y-94857142D01*
X226649757Y-94857142D02*
X226721185Y-94785714D01*
X226721185Y-94785714D02*
X226864042Y-94714285D01*
X226864042Y-94714285D02*
X227149757Y-94642856D01*
X227149757Y-94642856D02*
X227506900Y-94642856D01*
X227506900Y-94642856D02*
X227792614Y-94714285D01*
X227792614Y-94714285D02*
X227935471Y-94785714D01*
X227935471Y-94785714D02*
X228006900Y-94857142D01*
X228006900Y-94857142D02*
X228078328Y-94999999D01*
X228078328Y-94999999D02*
X228078328Y-95142856D01*
X228078328Y-95142856D02*
X228006900Y-95285714D01*
X228006900Y-95285714D02*
X227935471Y-95357142D01*
X227935471Y-95357142D02*
X227792614Y-95428571D01*
X227792614Y-95428571D02*
X227506900Y-95499999D01*
X227506900Y-95499999D02*
X227149757Y-95499999D01*
X227149757Y-95499999D02*
X226864042Y-95428571D01*
X226864042Y-95428571D02*
X226721185Y-95357142D01*
X226721185Y-95357142D02*
X226649757Y-95285714D01*
X226649757Y-95285714D02*
X226578328Y-95142856D01*
X226578328Y-93714285D02*
X226578328Y-93571428D01*
X226578328Y-93571428D02*
X226649757Y-93428571D01*
X226649757Y-93428571D02*
X226721185Y-93357143D01*
X226721185Y-93357143D02*
X226864042Y-93285714D01*
X226864042Y-93285714D02*
X227149757Y-93214285D01*
X227149757Y-93214285D02*
X227506900Y-93214285D01*
X227506900Y-93214285D02*
X227792614Y-93285714D01*
X227792614Y-93285714D02*
X227935471Y-93357143D01*
X227935471Y-93357143D02*
X228006900Y-93428571D01*
X228006900Y-93428571D02*
X228078328Y-93571428D01*
X228078328Y-93571428D02*
X228078328Y-93714285D01*
X228078328Y-93714285D02*
X228006900Y-93857143D01*
X228006900Y-93857143D02*
X227935471Y-93928571D01*
X227935471Y-93928571D02*
X227792614Y-94000000D01*
X227792614Y-94000000D02*
X227506900Y-94071428D01*
X227506900Y-94071428D02*
X227149757Y-94071428D01*
X227149757Y-94071428D02*
X226864042Y-94000000D01*
X226864042Y-94000000D02*
X226721185Y-93928571D01*
X226721185Y-93928571D02*
X226649757Y-93857143D01*
X226649757Y-93857143D02*
X226578328Y-93714285D01*
X228078328Y-91428572D02*
X227078328Y-91428572D01*
X227221185Y-91428572D02*
X227149757Y-91357143D01*
X227149757Y-91357143D02*
X227078328Y-91214286D01*
X227078328Y-91214286D02*
X227078328Y-91000000D01*
X227078328Y-91000000D02*
X227149757Y-90857143D01*
X227149757Y-90857143D02*
X227292614Y-90785715D01*
X227292614Y-90785715D02*
X228078328Y-90785715D01*
X227292614Y-90785715D02*
X227149757Y-90714286D01*
X227149757Y-90714286D02*
X227078328Y-90571429D01*
X227078328Y-90571429D02*
X227078328Y-90357143D01*
X227078328Y-90357143D02*
X227149757Y-90214286D01*
X227149757Y-90214286D02*
X227292614Y-90142857D01*
X227292614Y-90142857D02*
X228078328Y-90142857D01*
X228078328Y-89428572D02*
X227078328Y-89428572D01*
X227221185Y-89428572D02*
X227149757Y-89357143D01*
X227149757Y-89357143D02*
X227078328Y-89214286D01*
X227078328Y-89214286D02*
X227078328Y-89000000D01*
X227078328Y-89000000D02*
X227149757Y-88857143D01*
X227149757Y-88857143D02*
X227292614Y-88785715D01*
X227292614Y-88785715D02*
X228078328Y-88785715D01*
X227292614Y-88785715D02*
X227149757Y-88714286D01*
X227149757Y-88714286D02*
X227078328Y-88571429D01*
X227078328Y-88571429D02*
X227078328Y-88357143D01*
X227078328Y-88357143D02*
X227149757Y-88214286D01*
X227149757Y-88214286D02*
X227292614Y-88142857D01*
X227292614Y-88142857D02*
X228078328Y-88142857D01*
X214400000Y-87500000D02*
X229786420Y-87500000D01*
X214400000Y-102500000D02*
X229786420Y-102500000D01*
X229200000Y-87500000D02*
X229200000Y-102500000D01*
X229200000Y-87500000D02*
X229786421Y-88626504D01*
X229200000Y-87500000D02*
X228613579Y-88626504D01*
X229200000Y-102500000D02*
X228613579Y-101373496D01*
X229200000Y-102500000D02*
X229786421Y-101373496D01*
X228078328Y-116071426D02*
X228078328Y-116928569D01*
X228078328Y-116499998D02*
X226578328Y-116499998D01*
X226578328Y-116499998D02*
X226792614Y-116642855D01*
X226792614Y-116642855D02*
X226935471Y-116785712D01*
X226935471Y-116785712D02*
X227006900Y-116928569D01*
X226578328Y-114714284D02*
X226578328Y-115428570D01*
X226578328Y-115428570D02*
X227292614Y-115499998D01*
X227292614Y-115499998D02*
X227221185Y-115428570D01*
X227221185Y-115428570D02*
X227149757Y-115285713D01*
X227149757Y-115285713D02*
X227149757Y-114928570D01*
X227149757Y-114928570D02*
X227221185Y-114785713D01*
X227221185Y-114785713D02*
X227292614Y-114714284D01*
X227292614Y-114714284D02*
X227435471Y-114642855D01*
X227435471Y-114642855D02*
X227792614Y-114642855D01*
X227792614Y-114642855D02*
X227935471Y-114714284D01*
X227935471Y-114714284D02*
X228006900Y-114785713D01*
X228006900Y-114785713D02*
X228078328Y-114928570D01*
X228078328Y-114928570D02*
X228078328Y-115285713D01*
X228078328Y-115285713D02*
X228006900Y-115428570D01*
X228006900Y-115428570D02*
X227935471Y-115499998D01*
X227935471Y-113999999D02*
X228006900Y-113928570D01*
X228006900Y-113928570D02*
X228078328Y-113999999D01*
X228078328Y-113999999D02*
X228006900Y-114071427D01*
X228006900Y-114071427D02*
X227935471Y-113999999D01*
X227935471Y-113999999D02*
X228078328Y-113999999D01*
X226578328Y-112999998D02*
X226578328Y-112857141D01*
X226578328Y-112857141D02*
X226649757Y-112714284D01*
X226649757Y-112714284D02*
X226721185Y-112642856D01*
X226721185Y-112642856D02*
X226864042Y-112571427D01*
X226864042Y-112571427D02*
X227149757Y-112499998D01*
X227149757Y-112499998D02*
X227506900Y-112499998D01*
X227506900Y-112499998D02*
X227792614Y-112571427D01*
X227792614Y-112571427D02*
X227935471Y-112642856D01*
X227935471Y-112642856D02*
X228006900Y-112714284D01*
X228006900Y-112714284D02*
X228078328Y-112857141D01*
X228078328Y-112857141D02*
X228078328Y-112999998D01*
X228078328Y-112999998D02*
X228006900Y-113142856D01*
X228006900Y-113142856D02*
X227935471Y-113214284D01*
X227935471Y-113214284D02*
X227792614Y-113285713D01*
X227792614Y-113285713D02*
X227506900Y-113357141D01*
X227506900Y-113357141D02*
X227149757Y-113357141D01*
X227149757Y-113357141D02*
X226864042Y-113285713D01*
X226864042Y-113285713D02*
X226721185Y-113214284D01*
X226721185Y-113214284D02*
X226649757Y-113142856D01*
X226649757Y-113142856D02*
X226578328Y-112999998D01*
X226578328Y-111571427D02*
X226578328Y-111428570D01*
X226578328Y-111428570D02*
X226649757Y-111285713D01*
X226649757Y-111285713D02*
X226721185Y-111214285D01*
X226721185Y-111214285D02*
X226864042Y-111142856D01*
X226864042Y-111142856D02*
X227149757Y-111071427D01*
X227149757Y-111071427D02*
X227506900Y-111071427D01*
X227506900Y-111071427D02*
X227792614Y-111142856D01*
X227792614Y-111142856D02*
X227935471Y-111214285D01*
X227935471Y-111214285D02*
X228006900Y-111285713D01*
X228006900Y-111285713D02*
X228078328Y-111428570D01*
X228078328Y-111428570D02*
X228078328Y-111571427D01*
X228078328Y-111571427D02*
X228006900Y-111714285D01*
X228006900Y-111714285D02*
X227935471Y-111785713D01*
X227935471Y-111785713D02*
X227792614Y-111857142D01*
X227792614Y-111857142D02*
X227506900Y-111928570D01*
X227506900Y-111928570D02*
X227149757Y-111928570D01*
X227149757Y-111928570D02*
X226864042Y-111857142D01*
X226864042Y-111857142D02*
X226721185Y-111785713D01*
X226721185Y-111785713D02*
X226649757Y-111714285D01*
X226649757Y-111714285D02*
X226578328Y-111571427D01*
X226578328Y-110142856D02*
X226578328Y-109999999D01*
X226578328Y-109999999D02*
X226649757Y-109857142D01*
X226649757Y-109857142D02*
X226721185Y-109785714D01*
X226721185Y-109785714D02*
X226864042Y-109714285D01*
X226864042Y-109714285D02*
X227149757Y-109642856D01*
X227149757Y-109642856D02*
X227506900Y-109642856D01*
X227506900Y-109642856D02*
X227792614Y-109714285D01*
X227792614Y-109714285D02*
X227935471Y-109785714D01*
X227935471Y-109785714D02*
X228006900Y-109857142D01*
X228006900Y-109857142D02*
X228078328Y-109999999D01*
X228078328Y-109999999D02*
X228078328Y-110142856D01*
X228078328Y-110142856D02*
X228006900Y-110285714D01*
X228006900Y-110285714D02*
X227935471Y-110357142D01*
X227935471Y-110357142D02*
X227792614Y-110428571D01*
X227792614Y-110428571D02*
X227506900Y-110499999D01*
X227506900Y-110499999D02*
X227149757Y-110499999D01*
X227149757Y-110499999D02*
X226864042Y-110428571D01*
X226864042Y-110428571D02*
X226721185Y-110357142D01*
X226721185Y-110357142D02*
X226649757Y-110285714D01*
X226649757Y-110285714D02*
X226578328Y-110142856D01*
X226578328Y-108714285D02*
X226578328Y-108571428D01*
X226578328Y-108571428D02*
X226649757Y-108428571D01*
X226649757Y-108428571D02*
X226721185Y-108357143D01*
X226721185Y-108357143D02*
X226864042Y-108285714D01*
X226864042Y-108285714D02*
X227149757Y-108214285D01*
X227149757Y-108214285D02*
X227506900Y-108214285D01*
X227506900Y-108214285D02*
X227792614Y-108285714D01*
X227792614Y-108285714D02*
X227935471Y-108357143D01*
X227935471Y-108357143D02*
X228006900Y-108428571D01*
X228006900Y-108428571D02*
X228078328Y-108571428D01*
X228078328Y-108571428D02*
X228078328Y-108714285D01*
X228078328Y-108714285D02*
X228006900Y-108857143D01*
X228006900Y-108857143D02*
X227935471Y-108928571D01*
X227935471Y-108928571D02*
X227792614Y-109000000D01*
X227792614Y-109000000D02*
X227506900Y-109071428D01*
X227506900Y-109071428D02*
X227149757Y-109071428D01*
X227149757Y-109071428D02*
X226864042Y-109000000D01*
X226864042Y-109000000D02*
X226721185Y-108928571D01*
X226721185Y-108928571D02*
X226649757Y-108857143D01*
X226649757Y-108857143D02*
X226578328Y-108714285D01*
X228078328Y-106428572D02*
X227078328Y-106428572D01*
X227221185Y-106428572D02*
X227149757Y-106357143D01*
X227149757Y-106357143D02*
X227078328Y-106214286D01*
X227078328Y-106214286D02*
X227078328Y-106000000D01*
X227078328Y-106000000D02*
X227149757Y-105857143D01*
X227149757Y-105857143D02*
X227292614Y-105785715D01*
X227292614Y-105785715D02*
X228078328Y-105785715D01*
X227292614Y-105785715D02*
X227149757Y-105714286D01*
X227149757Y-105714286D02*
X227078328Y-105571429D01*
X227078328Y-105571429D02*
X227078328Y-105357143D01*
X227078328Y-105357143D02*
X227149757Y-105214286D01*
X227149757Y-105214286D02*
X227292614Y-105142857D01*
X227292614Y-105142857D02*
X228078328Y-105142857D01*
X228078328Y-104428572D02*
X227078328Y-104428572D01*
X227221185Y-104428572D02*
X227149757Y-104357143D01*
X227149757Y-104357143D02*
X227078328Y-104214286D01*
X227078328Y-104214286D02*
X227078328Y-104000000D01*
X227078328Y-104000000D02*
X227149757Y-103857143D01*
X227149757Y-103857143D02*
X227292614Y-103785715D01*
X227292614Y-103785715D02*
X228078328Y-103785715D01*
X227292614Y-103785715D02*
X227149757Y-103714286D01*
X227149757Y-103714286D02*
X227078328Y-103571429D01*
X227078328Y-103571429D02*
X227078328Y-103357143D01*
X227078328Y-103357143D02*
X227149757Y-103214286D01*
X227149757Y-103214286D02*
X227292614Y-103142857D01*
X227292614Y-103142857D02*
X228078328Y-103142857D01*
X214400000Y-102500000D02*
X229786420Y-102500000D01*
X214400000Y-117500000D02*
X229786420Y-117500000D01*
X229200000Y-102500000D02*
X229200000Y-117500000D01*
X229200000Y-102500000D02*
X229786421Y-103626504D01*
X229200000Y-102500000D02*
X228613579Y-103626504D01*
X229200000Y-117500000D02*
X228613579Y-116373496D01*
X229200000Y-117500000D02*
X229786421Y-116373496D01*
X232328328Y-127381426D02*
X232328328Y-128238569D01*
X232328328Y-127809998D02*
X230828328Y-127809998D01*
X230828328Y-127809998D02*
X231042614Y-127952855D01*
X231042614Y-127952855D02*
X231185471Y-128095712D01*
X231185471Y-128095712D02*
X231256900Y-128238569D01*
X232328328Y-125952855D02*
X232328328Y-126809998D01*
X232328328Y-126381427D02*
X230828328Y-126381427D01*
X230828328Y-126381427D02*
X231042614Y-126524284D01*
X231042614Y-126524284D02*
X231185471Y-126667141D01*
X231185471Y-126667141D02*
X231256900Y-126809998D01*
X232185471Y-125309999D02*
X232256900Y-125238570D01*
X232256900Y-125238570D02*
X232328328Y-125309999D01*
X232328328Y-125309999D02*
X232256900Y-125381427D01*
X232256900Y-125381427D02*
X232185471Y-125309999D01*
X232185471Y-125309999D02*
X232328328Y-125309999D01*
X230828328Y-123881427D02*
X230828328Y-124595713D01*
X230828328Y-124595713D02*
X231542614Y-124667141D01*
X231542614Y-124667141D02*
X231471185Y-124595713D01*
X231471185Y-124595713D02*
X231399757Y-124452856D01*
X231399757Y-124452856D02*
X231399757Y-124095713D01*
X231399757Y-124095713D02*
X231471185Y-123952856D01*
X231471185Y-123952856D02*
X231542614Y-123881427D01*
X231542614Y-123881427D02*
X231685471Y-123809998D01*
X231685471Y-123809998D02*
X232042614Y-123809998D01*
X232042614Y-123809998D02*
X232185471Y-123881427D01*
X232185471Y-123881427D02*
X232256900Y-123952856D01*
X232256900Y-123952856D02*
X232328328Y-124095713D01*
X232328328Y-124095713D02*
X232328328Y-124452856D01*
X232328328Y-124452856D02*
X232256900Y-124595713D01*
X232256900Y-124595713D02*
X232185471Y-124667141D01*
X230828328Y-122881427D02*
X230828328Y-122738570D01*
X230828328Y-122738570D02*
X230899757Y-122595713D01*
X230899757Y-122595713D02*
X230971185Y-122524285D01*
X230971185Y-122524285D02*
X231114042Y-122452856D01*
X231114042Y-122452856D02*
X231399757Y-122381427D01*
X231399757Y-122381427D02*
X231756900Y-122381427D01*
X231756900Y-122381427D02*
X232042614Y-122452856D01*
X232042614Y-122452856D02*
X232185471Y-122524285D01*
X232185471Y-122524285D02*
X232256900Y-122595713D01*
X232256900Y-122595713D02*
X232328328Y-122738570D01*
X232328328Y-122738570D02*
X232328328Y-122881427D01*
X232328328Y-122881427D02*
X232256900Y-123024285D01*
X232256900Y-123024285D02*
X232185471Y-123095713D01*
X232185471Y-123095713D02*
X232042614Y-123167142D01*
X232042614Y-123167142D02*
X231756900Y-123238570D01*
X231756900Y-123238570D02*
X231399757Y-123238570D01*
X231399757Y-123238570D02*
X231114042Y-123167142D01*
X231114042Y-123167142D02*
X230971185Y-123095713D01*
X230971185Y-123095713D02*
X230899757Y-123024285D01*
X230899757Y-123024285D02*
X230828328Y-122881427D01*
X230828328Y-121452856D02*
X230828328Y-121309999D01*
X230828328Y-121309999D02*
X230899757Y-121167142D01*
X230899757Y-121167142D02*
X230971185Y-121095714D01*
X230971185Y-121095714D02*
X231114042Y-121024285D01*
X231114042Y-121024285D02*
X231399757Y-120952856D01*
X231399757Y-120952856D02*
X231756900Y-120952856D01*
X231756900Y-120952856D02*
X232042614Y-121024285D01*
X232042614Y-121024285D02*
X232185471Y-121095714D01*
X232185471Y-121095714D02*
X232256900Y-121167142D01*
X232256900Y-121167142D02*
X232328328Y-121309999D01*
X232328328Y-121309999D02*
X232328328Y-121452856D01*
X232328328Y-121452856D02*
X232256900Y-121595714D01*
X232256900Y-121595714D02*
X232185471Y-121667142D01*
X232185471Y-121667142D02*
X232042614Y-121738571D01*
X232042614Y-121738571D02*
X231756900Y-121809999D01*
X231756900Y-121809999D02*
X231399757Y-121809999D01*
X231399757Y-121809999D02*
X231114042Y-121738571D01*
X231114042Y-121738571D02*
X230971185Y-121667142D01*
X230971185Y-121667142D02*
X230899757Y-121595714D01*
X230899757Y-121595714D02*
X230828328Y-121452856D01*
X230828328Y-120024285D02*
X230828328Y-119881428D01*
X230828328Y-119881428D02*
X230899757Y-119738571D01*
X230899757Y-119738571D02*
X230971185Y-119667143D01*
X230971185Y-119667143D02*
X231114042Y-119595714D01*
X231114042Y-119595714D02*
X231399757Y-119524285D01*
X231399757Y-119524285D02*
X231756900Y-119524285D01*
X231756900Y-119524285D02*
X232042614Y-119595714D01*
X232042614Y-119595714D02*
X232185471Y-119667143D01*
X232185471Y-119667143D02*
X232256900Y-119738571D01*
X232256900Y-119738571D02*
X232328328Y-119881428D01*
X232328328Y-119881428D02*
X232328328Y-120024285D01*
X232328328Y-120024285D02*
X232256900Y-120167143D01*
X232256900Y-120167143D02*
X232185471Y-120238571D01*
X232185471Y-120238571D02*
X232042614Y-120310000D01*
X232042614Y-120310000D02*
X231756900Y-120381428D01*
X231756900Y-120381428D02*
X231399757Y-120381428D01*
X231399757Y-120381428D02*
X231114042Y-120310000D01*
X231114042Y-120310000D02*
X230971185Y-120238571D01*
X230971185Y-120238571D02*
X230899757Y-120167143D01*
X230899757Y-120167143D02*
X230828328Y-120024285D01*
X232328328Y-117738572D02*
X231328328Y-117738572D01*
X231471185Y-117738572D02*
X231399757Y-117667143D01*
X231399757Y-117667143D02*
X231328328Y-117524286D01*
X231328328Y-117524286D02*
X231328328Y-117310000D01*
X231328328Y-117310000D02*
X231399757Y-117167143D01*
X231399757Y-117167143D02*
X231542614Y-117095715D01*
X231542614Y-117095715D02*
X232328328Y-117095715D01*
X231542614Y-117095715D02*
X231399757Y-117024286D01*
X231399757Y-117024286D02*
X231328328Y-116881429D01*
X231328328Y-116881429D02*
X231328328Y-116667143D01*
X231328328Y-116667143D02*
X231399757Y-116524286D01*
X231399757Y-116524286D02*
X231542614Y-116452857D01*
X231542614Y-116452857D02*
X232328328Y-116452857D01*
X232328328Y-115738572D02*
X231328328Y-115738572D01*
X231471185Y-115738572D02*
X231399757Y-115667143D01*
X231399757Y-115667143D02*
X231328328Y-115524286D01*
X231328328Y-115524286D02*
X231328328Y-115310000D01*
X231328328Y-115310000D02*
X231399757Y-115167143D01*
X231399757Y-115167143D02*
X231542614Y-115095715D01*
X231542614Y-115095715D02*
X232328328Y-115095715D01*
X231542614Y-115095715D02*
X231399757Y-115024286D01*
X231399757Y-115024286D02*
X231328328Y-114881429D01*
X231328328Y-114881429D02*
X231328328Y-114667143D01*
X231328328Y-114667143D02*
X231399757Y-114524286D01*
X231399757Y-114524286D02*
X231542614Y-114452857D01*
X231542614Y-114452857D02*
X232328328Y-114452857D01*
X214400000Y-129000000D02*
X229786420Y-129000000D01*
X214400000Y-117500000D02*
X229786420Y-117500000D01*
X229200000Y-129000000D02*
X229200000Y-117500000D01*
X229200000Y-129000000D02*
X228613579Y-127873496D01*
X229200000Y-129000000D02*
X229786421Y-127873496D01*
X229200000Y-117500000D02*
X229786421Y-118626504D01*
X229200000Y-117500000D02*
X228613579Y-118626504D01*
X232328328Y-70981426D02*
X232328328Y-71838569D01*
X232328328Y-71409998D02*
X230828328Y-71409998D01*
X230828328Y-71409998D02*
X231042614Y-71552855D01*
X231042614Y-71552855D02*
X231185471Y-71695712D01*
X231185471Y-71695712D02*
X231256900Y-71838569D01*
X232328328Y-69552855D02*
X232328328Y-70409998D01*
X232328328Y-69981427D02*
X230828328Y-69981427D01*
X230828328Y-69981427D02*
X231042614Y-70124284D01*
X231042614Y-70124284D02*
X231185471Y-70267141D01*
X231185471Y-70267141D02*
X231256900Y-70409998D01*
X232185471Y-68909999D02*
X232256900Y-68838570D01*
X232256900Y-68838570D02*
X232328328Y-68909999D01*
X232328328Y-68909999D02*
X232256900Y-68981427D01*
X232256900Y-68981427D02*
X232185471Y-68909999D01*
X232185471Y-68909999D02*
X232328328Y-68909999D01*
X230828328Y-67481427D02*
X230828328Y-68195713D01*
X230828328Y-68195713D02*
X231542614Y-68267141D01*
X231542614Y-68267141D02*
X231471185Y-68195713D01*
X231471185Y-68195713D02*
X231399757Y-68052856D01*
X231399757Y-68052856D02*
X231399757Y-67695713D01*
X231399757Y-67695713D02*
X231471185Y-67552856D01*
X231471185Y-67552856D02*
X231542614Y-67481427D01*
X231542614Y-67481427D02*
X231685471Y-67409998D01*
X231685471Y-67409998D02*
X232042614Y-67409998D01*
X232042614Y-67409998D02*
X232185471Y-67481427D01*
X232185471Y-67481427D02*
X232256900Y-67552856D01*
X232256900Y-67552856D02*
X232328328Y-67695713D01*
X232328328Y-67695713D02*
X232328328Y-68052856D01*
X232328328Y-68052856D02*
X232256900Y-68195713D01*
X232256900Y-68195713D02*
X232185471Y-68267141D01*
X230828328Y-66481427D02*
X230828328Y-66338570D01*
X230828328Y-66338570D02*
X230899757Y-66195713D01*
X230899757Y-66195713D02*
X230971185Y-66124285D01*
X230971185Y-66124285D02*
X231114042Y-66052856D01*
X231114042Y-66052856D02*
X231399757Y-65981427D01*
X231399757Y-65981427D02*
X231756900Y-65981427D01*
X231756900Y-65981427D02*
X232042614Y-66052856D01*
X232042614Y-66052856D02*
X232185471Y-66124285D01*
X232185471Y-66124285D02*
X232256900Y-66195713D01*
X232256900Y-66195713D02*
X232328328Y-66338570D01*
X232328328Y-66338570D02*
X232328328Y-66481427D01*
X232328328Y-66481427D02*
X232256900Y-66624285D01*
X232256900Y-66624285D02*
X232185471Y-66695713D01*
X232185471Y-66695713D02*
X232042614Y-66767142D01*
X232042614Y-66767142D02*
X231756900Y-66838570D01*
X231756900Y-66838570D02*
X231399757Y-66838570D01*
X231399757Y-66838570D02*
X231114042Y-66767142D01*
X231114042Y-66767142D02*
X230971185Y-66695713D01*
X230971185Y-66695713D02*
X230899757Y-66624285D01*
X230899757Y-66624285D02*
X230828328Y-66481427D01*
X230828328Y-65052856D02*
X230828328Y-64909999D01*
X230828328Y-64909999D02*
X230899757Y-64767142D01*
X230899757Y-64767142D02*
X230971185Y-64695714D01*
X230971185Y-64695714D02*
X231114042Y-64624285D01*
X231114042Y-64624285D02*
X231399757Y-64552856D01*
X231399757Y-64552856D02*
X231756900Y-64552856D01*
X231756900Y-64552856D02*
X232042614Y-64624285D01*
X232042614Y-64624285D02*
X232185471Y-64695714D01*
X232185471Y-64695714D02*
X232256900Y-64767142D01*
X232256900Y-64767142D02*
X232328328Y-64909999D01*
X232328328Y-64909999D02*
X232328328Y-65052856D01*
X232328328Y-65052856D02*
X232256900Y-65195714D01*
X232256900Y-65195714D02*
X232185471Y-65267142D01*
X232185471Y-65267142D02*
X232042614Y-65338571D01*
X232042614Y-65338571D02*
X231756900Y-65409999D01*
X231756900Y-65409999D02*
X231399757Y-65409999D01*
X231399757Y-65409999D02*
X231114042Y-65338571D01*
X231114042Y-65338571D02*
X230971185Y-65267142D01*
X230971185Y-65267142D02*
X230899757Y-65195714D01*
X230899757Y-65195714D02*
X230828328Y-65052856D01*
X230828328Y-63624285D02*
X230828328Y-63481428D01*
X230828328Y-63481428D02*
X230899757Y-63338571D01*
X230899757Y-63338571D02*
X230971185Y-63267143D01*
X230971185Y-63267143D02*
X231114042Y-63195714D01*
X231114042Y-63195714D02*
X231399757Y-63124285D01*
X231399757Y-63124285D02*
X231756900Y-63124285D01*
X231756900Y-63124285D02*
X232042614Y-63195714D01*
X232042614Y-63195714D02*
X232185471Y-63267143D01*
X232185471Y-63267143D02*
X232256900Y-63338571D01*
X232256900Y-63338571D02*
X232328328Y-63481428D01*
X232328328Y-63481428D02*
X232328328Y-63624285D01*
X232328328Y-63624285D02*
X232256900Y-63767143D01*
X232256900Y-63767143D02*
X232185471Y-63838571D01*
X232185471Y-63838571D02*
X232042614Y-63910000D01*
X232042614Y-63910000D02*
X231756900Y-63981428D01*
X231756900Y-63981428D02*
X231399757Y-63981428D01*
X231399757Y-63981428D02*
X231114042Y-63910000D01*
X231114042Y-63910000D02*
X230971185Y-63838571D01*
X230971185Y-63838571D02*
X230899757Y-63767143D01*
X230899757Y-63767143D02*
X230828328Y-63624285D01*
X232328328Y-61338572D02*
X231328328Y-61338572D01*
X231471185Y-61338572D02*
X231399757Y-61267143D01*
X231399757Y-61267143D02*
X231328328Y-61124286D01*
X231328328Y-61124286D02*
X231328328Y-60910000D01*
X231328328Y-60910000D02*
X231399757Y-60767143D01*
X231399757Y-60767143D02*
X231542614Y-60695715D01*
X231542614Y-60695715D02*
X232328328Y-60695715D01*
X231542614Y-60695715D02*
X231399757Y-60624286D01*
X231399757Y-60624286D02*
X231328328Y-60481429D01*
X231328328Y-60481429D02*
X231328328Y-60267143D01*
X231328328Y-60267143D02*
X231399757Y-60124286D01*
X231399757Y-60124286D02*
X231542614Y-60052857D01*
X231542614Y-60052857D02*
X232328328Y-60052857D01*
X232328328Y-59338572D02*
X231328328Y-59338572D01*
X231471185Y-59338572D02*
X231399757Y-59267143D01*
X231399757Y-59267143D02*
X231328328Y-59124286D01*
X231328328Y-59124286D02*
X231328328Y-58910000D01*
X231328328Y-58910000D02*
X231399757Y-58767143D01*
X231399757Y-58767143D02*
X231542614Y-58695715D01*
X231542614Y-58695715D02*
X232328328Y-58695715D01*
X231542614Y-58695715D02*
X231399757Y-58624286D01*
X231399757Y-58624286D02*
X231328328Y-58481429D01*
X231328328Y-58481429D02*
X231328328Y-58267143D01*
X231328328Y-58267143D02*
X231399757Y-58124286D01*
X231399757Y-58124286D02*
X231542614Y-58052857D01*
X231542614Y-58052857D02*
X232328328Y-58052857D01*
X214400000Y-68500000D02*
X229786420Y-68500000D01*
X214400000Y-57000000D02*
X229786420Y-57000000D01*
X229200000Y-68500000D02*
X229200000Y-57000000D01*
X229200000Y-68500000D02*
X228613579Y-67373496D01*
X229200000Y-68500000D02*
X229786421Y-67373496D01*
X229200000Y-57000000D02*
X229786421Y-58126504D01*
X229200000Y-57000000D02*
X228613579Y-58126504D01*
X156414287Y-135396328D02*
X155557144Y-135396328D01*
X155985715Y-135396328D02*
X155985715Y-133896328D01*
X155985715Y-133896328D02*
X155842858Y-134110614D01*
X155842858Y-134110614D02*
X155700001Y-134253471D01*
X155700001Y-134253471D02*
X155557144Y-134324900D01*
X157342858Y-133896328D02*
X157485715Y-133896328D01*
X157485715Y-133896328D02*
X157628572Y-133967757D01*
X157628572Y-133967757D02*
X157700001Y-134039185D01*
X157700001Y-134039185D02*
X157771429Y-134182042D01*
X157771429Y-134182042D02*
X157842858Y-134467757D01*
X157842858Y-134467757D02*
X157842858Y-134824900D01*
X157842858Y-134824900D02*
X157771429Y-135110614D01*
X157771429Y-135110614D02*
X157700001Y-135253471D01*
X157700001Y-135253471D02*
X157628572Y-135324900D01*
X157628572Y-135324900D02*
X157485715Y-135396328D01*
X157485715Y-135396328D02*
X157342858Y-135396328D01*
X157342858Y-135396328D02*
X157200001Y-135324900D01*
X157200001Y-135324900D02*
X157128572Y-135253471D01*
X157128572Y-135253471D02*
X157057143Y-135110614D01*
X157057143Y-135110614D02*
X156985715Y-134824900D01*
X156985715Y-134824900D02*
X156985715Y-134467757D01*
X156985715Y-134467757D02*
X157057143Y-134182042D01*
X157057143Y-134182042D02*
X157128572Y-134039185D01*
X157128572Y-134039185D02*
X157200001Y-133967757D01*
X157200001Y-133967757D02*
X157342858Y-133896328D01*
X158771429Y-133896328D02*
X158914286Y-133896328D01*
X158914286Y-133896328D02*
X159057143Y-133967757D01*
X159057143Y-133967757D02*
X159128572Y-134039185D01*
X159128572Y-134039185D02*
X159200000Y-134182042D01*
X159200000Y-134182042D02*
X159271429Y-134467757D01*
X159271429Y-134467757D02*
X159271429Y-134824900D01*
X159271429Y-134824900D02*
X159200000Y-135110614D01*
X159200000Y-135110614D02*
X159128572Y-135253471D01*
X159128572Y-135253471D02*
X159057143Y-135324900D01*
X159057143Y-135324900D02*
X158914286Y-135396328D01*
X158914286Y-135396328D02*
X158771429Y-135396328D01*
X158771429Y-135396328D02*
X158628572Y-135324900D01*
X158628572Y-135324900D02*
X158557143Y-135253471D01*
X158557143Y-135253471D02*
X158485714Y-135110614D01*
X158485714Y-135110614D02*
X158414286Y-134824900D01*
X158414286Y-134824900D02*
X158414286Y-134467757D01*
X158414286Y-134467757D02*
X158485714Y-134182042D01*
X158485714Y-134182042D02*
X158557143Y-134039185D01*
X158557143Y-134039185D02*
X158628572Y-133967757D01*
X158628572Y-133967757D02*
X158771429Y-133896328D01*
X159914285Y-135253471D02*
X159985714Y-135324900D01*
X159985714Y-135324900D02*
X159914285Y-135396328D01*
X159914285Y-135396328D02*
X159842857Y-135324900D01*
X159842857Y-135324900D02*
X159914285Y-135253471D01*
X159914285Y-135253471D02*
X159914285Y-135396328D01*
X160914286Y-133896328D02*
X161057143Y-133896328D01*
X161057143Y-133896328D02*
X161200000Y-133967757D01*
X161200000Y-133967757D02*
X161271429Y-134039185D01*
X161271429Y-134039185D02*
X161342857Y-134182042D01*
X161342857Y-134182042D02*
X161414286Y-134467757D01*
X161414286Y-134467757D02*
X161414286Y-134824900D01*
X161414286Y-134824900D02*
X161342857Y-135110614D01*
X161342857Y-135110614D02*
X161271429Y-135253471D01*
X161271429Y-135253471D02*
X161200000Y-135324900D01*
X161200000Y-135324900D02*
X161057143Y-135396328D01*
X161057143Y-135396328D02*
X160914286Y-135396328D01*
X160914286Y-135396328D02*
X160771429Y-135324900D01*
X160771429Y-135324900D02*
X160700000Y-135253471D01*
X160700000Y-135253471D02*
X160628571Y-135110614D01*
X160628571Y-135110614D02*
X160557143Y-134824900D01*
X160557143Y-134824900D02*
X160557143Y-134467757D01*
X160557143Y-134467757D02*
X160628571Y-134182042D01*
X160628571Y-134182042D02*
X160700000Y-134039185D01*
X160700000Y-134039185D02*
X160771429Y-133967757D01*
X160771429Y-133967757D02*
X160914286Y-133896328D01*
X162342857Y-133896328D02*
X162485714Y-133896328D01*
X162485714Y-133896328D02*
X162628571Y-133967757D01*
X162628571Y-133967757D02*
X162700000Y-134039185D01*
X162700000Y-134039185D02*
X162771428Y-134182042D01*
X162771428Y-134182042D02*
X162842857Y-134467757D01*
X162842857Y-134467757D02*
X162842857Y-134824900D01*
X162842857Y-134824900D02*
X162771428Y-135110614D01*
X162771428Y-135110614D02*
X162700000Y-135253471D01*
X162700000Y-135253471D02*
X162628571Y-135324900D01*
X162628571Y-135324900D02*
X162485714Y-135396328D01*
X162485714Y-135396328D02*
X162342857Y-135396328D01*
X162342857Y-135396328D02*
X162200000Y-135324900D01*
X162200000Y-135324900D02*
X162128571Y-135253471D01*
X162128571Y-135253471D02*
X162057142Y-135110614D01*
X162057142Y-135110614D02*
X161985714Y-134824900D01*
X161985714Y-134824900D02*
X161985714Y-134467757D01*
X161985714Y-134467757D02*
X162057142Y-134182042D01*
X162057142Y-134182042D02*
X162128571Y-134039185D01*
X162128571Y-134039185D02*
X162200000Y-133967757D01*
X162200000Y-133967757D02*
X162342857Y-133896328D01*
X163771428Y-133896328D02*
X163914285Y-133896328D01*
X163914285Y-133896328D02*
X164057142Y-133967757D01*
X164057142Y-133967757D02*
X164128571Y-134039185D01*
X164128571Y-134039185D02*
X164199999Y-134182042D01*
X164199999Y-134182042D02*
X164271428Y-134467757D01*
X164271428Y-134467757D02*
X164271428Y-134824900D01*
X164271428Y-134824900D02*
X164199999Y-135110614D01*
X164199999Y-135110614D02*
X164128571Y-135253471D01*
X164128571Y-135253471D02*
X164057142Y-135324900D01*
X164057142Y-135324900D02*
X163914285Y-135396328D01*
X163914285Y-135396328D02*
X163771428Y-135396328D01*
X163771428Y-135396328D02*
X163628571Y-135324900D01*
X163628571Y-135324900D02*
X163557142Y-135253471D01*
X163557142Y-135253471D02*
X163485713Y-135110614D01*
X163485713Y-135110614D02*
X163414285Y-134824900D01*
X163414285Y-134824900D02*
X163414285Y-134467757D01*
X163414285Y-134467757D02*
X163485713Y-134182042D01*
X163485713Y-134182042D02*
X163557142Y-134039185D01*
X163557142Y-134039185D02*
X163628571Y-133967757D01*
X163628571Y-133967757D02*
X163771428Y-133896328D01*
X165199999Y-133896328D02*
X165342856Y-133896328D01*
X165342856Y-133896328D02*
X165485713Y-133967757D01*
X165485713Y-133967757D02*
X165557142Y-134039185D01*
X165557142Y-134039185D02*
X165628570Y-134182042D01*
X165628570Y-134182042D02*
X165699999Y-134467757D01*
X165699999Y-134467757D02*
X165699999Y-134824900D01*
X165699999Y-134824900D02*
X165628570Y-135110614D01*
X165628570Y-135110614D02*
X165557142Y-135253471D01*
X165557142Y-135253471D02*
X165485713Y-135324900D01*
X165485713Y-135324900D02*
X165342856Y-135396328D01*
X165342856Y-135396328D02*
X165199999Y-135396328D01*
X165199999Y-135396328D02*
X165057142Y-135324900D01*
X165057142Y-135324900D02*
X164985713Y-135253471D01*
X164985713Y-135253471D02*
X164914284Y-135110614D01*
X164914284Y-135110614D02*
X164842856Y-134824900D01*
X164842856Y-134824900D02*
X164842856Y-134467757D01*
X164842856Y-134467757D02*
X164914284Y-134182042D01*
X164914284Y-134182042D02*
X164985713Y-134039185D01*
X164985713Y-134039185D02*
X165057142Y-133967757D01*
X165057142Y-133967757D02*
X165199999Y-133896328D01*
X167485712Y-135396328D02*
X167485712Y-134396328D01*
X167485712Y-134539185D02*
X167557141Y-134467757D01*
X167557141Y-134467757D02*
X167699998Y-134396328D01*
X167699998Y-134396328D02*
X167914284Y-134396328D01*
X167914284Y-134396328D02*
X168057141Y-134467757D01*
X168057141Y-134467757D02*
X168128570Y-134610614D01*
X168128570Y-134610614D02*
X168128570Y-135396328D01*
X168128570Y-134610614D02*
X168199998Y-134467757D01*
X168199998Y-134467757D02*
X168342855Y-134396328D01*
X168342855Y-134396328D02*
X168557141Y-134396328D01*
X168557141Y-134396328D02*
X168699998Y-134467757D01*
X168699998Y-134467757D02*
X168771427Y-134610614D01*
X168771427Y-134610614D02*
X168771427Y-135396328D01*
X169485712Y-135396328D02*
X169485712Y-134396328D01*
X169485712Y-134539185D02*
X169557141Y-134467757D01*
X169557141Y-134467757D02*
X169699998Y-134396328D01*
X169699998Y-134396328D02*
X169914284Y-134396328D01*
X169914284Y-134396328D02*
X170057141Y-134467757D01*
X170057141Y-134467757D02*
X170128570Y-134610614D01*
X170128570Y-134610614D02*
X170128570Y-135396328D01*
X170128570Y-134610614D02*
X170199998Y-134467757D01*
X170199998Y-134467757D02*
X170342855Y-134396328D01*
X170342855Y-134396328D02*
X170557141Y-134396328D01*
X170557141Y-134396328D02*
X170699998Y-134467757D01*
X170699998Y-134467757D02*
X170771427Y-134610614D01*
X170771427Y-134610614D02*
X170771427Y-135396328D01*
X113200000Y-133000000D02*
X113200000Y-137104420D01*
X213200000Y-133000000D02*
X213200000Y-137104420D01*
X113200000Y-136518000D02*
X213200000Y-136518000D01*
X113200000Y-136518000D02*
X114326504Y-135931579D01*
X113200000Y-136518000D02*
X114326504Y-137104421D01*
X213200000Y-136518000D02*
X212073496Y-137104421D01*
X213200000Y-136518000D02*
X212073496Y-135931579D01*
X156414287Y-139340327D02*
X156700001Y-139340327D01*
X156700001Y-139340327D02*
X156842858Y-139268899D01*
X156842858Y-139268899D02*
X156914287Y-139197470D01*
X156914287Y-139197470D02*
X157057144Y-138983184D01*
X157057144Y-138983184D02*
X157128573Y-138697470D01*
X157128573Y-138697470D02*
X157128573Y-138126041D01*
X157128573Y-138126041D02*
X157057144Y-137983184D01*
X157057144Y-137983184D02*
X156985716Y-137911756D01*
X156985716Y-137911756D02*
X156842858Y-137840327D01*
X156842858Y-137840327D02*
X156557144Y-137840327D01*
X156557144Y-137840327D02*
X156414287Y-137911756D01*
X156414287Y-137911756D02*
X156342858Y-137983184D01*
X156342858Y-137983184D02*
X156271430Y-138126041D01*
X156271430Y-138126041D02*
X156271430Y-138483184D01*
X156271430Y-138483184D02*
X156342858Y-138626041D01*
X156342858Y-138626041D02*
X156414287Y-138697470D01*
X156414287Y-138697470D02*
X156557144Y-138768899D01*
X156557144Y-138768899D02*
X156842858Y-138768899D01*
X156842858Y-138768899D02*
X156985716Y-138697470D01*
X156985716Y-138697470D02*
X157057144Y-138626041D01*
X157057144Y-138626041D02*
X157128573Y-138483184D01*
X157700001Y-137983184D02*
X157771429Y-137911756D01*
X157771429Y-137911756D02*
X157914287Y-137840327D01*
X157914287Y-137840327D02*
X158271429Y-137840327D01*
X158271429Y-137840327D02*
X158414287Y-137911756D01*
X158414287Y-137911756D02*
X158485715Y-137983184D01*
X158485715Y-137983184D02*
X158557144Y-138126041D01*
X158557144Y-138126041D02*
X158557144Y-138268899D01*
X158557144Y-138268899D02*
X158485715Y-138483184D01*
X158485715Y-138483184D02*
X157628572Y-139340327D01*
X157628572Y-139340327D02*
X158557144Y-139340327D01*
X159200000Y-139197470D02*
X159271429Y-139268899D01*
X159271429Y-139268899D02*
X159200000Y-139340327D01*
X159200000Y-139340327D02*
X159128572Y-139268899D01*
X159128572Y-139268899D02*
X159200000Y-139197470D01*
X159200000Y-139197470D02*
X159200000Y-139340327D01*
X160200001Y-137840327D02*
X160342858Y-137840327D01*
X160342858Y-137840327D02*
X160485715Y-137911756D01*
X160485715Y-137911756D02*
X160557144Y-137983184D01*
X160557144Y-137983184D02*
X160628572Y-138126041D01*
X160628572Y-138126041D02*
X160700001Y-138411756D01*
X160700001Y-138411756D02*
X160700001Y-138768899D01*
X160700001Y-138768899D02*
X160628572Y-139054613D01*
X160628572Y-139054613D02*
X160557144Y-139197470D01*
X160557144Y-139197470D02*
X160485715Y-139268899D01*
X160485715Y-139268899D02*
X160342858Y-139340327D01*
X160342858Y-139340327D02*
X160200001Y-139340327D01*
X160200001Y-139340327D02*
X160057144Y-139268899D01*
X160057144Y-139268899D02*
X159985715Y-139197470D01*
X159985715Y-139197470D02*
X159914286Y-139054613D01*
X159914286Y-139054613D02*
X159842858Y-138768899D01*
X159842858Y-138768899D02*
X159842858Y-138411756D01*
X159842858Y-138411756D02*
X159914286Y-138126041D01*
X159914286Y-138126041D02*
X159985715Y-137983184D01*
X159985715Y-137983184D02*
X160057144Y-137911756D01*
X160057144Y-137911756D02*
X160200001Y-137840327D01*
X161628572Y-137840327D02*
X161771429Y-137840327D01*
X161771429Y-137840327D02*
X161914286Y-137911756D01*
X161914286Y-137911756D02*
X161985715Y-137983184D01*
X161985715Y-137983184D02*
X162057143Y-138126041D01*
X162057143Y-138126041D02*
X162128572Y-138411756D01*
X162128572Y-138411756D02*
X162128572Y-138768899D01*
X162128572Y-138768899D02*
X162057143Y-139054613D01*
X162057143Y-139054613D02*
X161985715Y-139197470D01*
X161985715Y-139197470D02*
X161914286Y-139268899D01*
X161914286Y-139268899D02*
X161771429Y-139340327D01*
X161771429Y-139340327D02*
X161628572Y-139340327D01*
X161628572Y-139340327D02*
X161485715Y-139268899D01*
X161485715Y-139268899D02*
X161414286Y-139197470D01*
X161414286Y-139197470D02*
X161342857Y-139054613D01*
X161342857Y-139054613D02*
X161271429Y-138768899D01*
X161271429Y-138768899D02*
X161271429Y-138411756D01*
X161271429Y-138411756D02*
X161342857Y-138126041D01*
X161342857Y-138126041D02*
X161414286Y-137983184D01*
X161414286Y-137983184D02*
X161485715Y-137911756D01*
X161485715Y-137911756D02*
X161628572Y-137840327D01*
X163057143Y-137840327D02*
X163200000Y-137840327D01*
X163200000Y-137840327D02*
X163342857Y-137911756D01*
X163342857Y-137911756D02*
X163414286Y-137983184D01*
X163414286Y-137983184D02*
X163485714Y-138126041D01*
X163485714Y-138126041D02*
X163557143Y-138411756D01*
X163557143Y-138411756D02*
X163557143Y-138768899D01*
X163557143Y-138768899D02*
X163485714Y-139054613D01*
X163485714Y-139054613D02*
X163414286Y-139197470D01*
X163414286Y-139197470D02*
X163342857Y-139268899D01*
X163342857Y-139268899D02*
X163200000Y-139340327D01*
X163200000Y-139340327D02*
X163057143Y-139340327D01*
X163057143Y-139340327D02*
X162914286Y-139268899D01*
X162914286Y-139268899D02*
X162842857Y-139197470D01*
X162842857Y-139197470D02*
X162771428Y-139054613D01*
X162771428Y-139054613D02*
X162700000Y-138768899D01*
X162700000Y-138768899D02*
X162700000Y-138411756D01*
X162700000Y-138411756D02*
X162771428Y-138126041D01*
X162771428Y-138126041D02*
X162842857Y-137983184D01*
X162842857Y-137983184D02*
X162914286Y-137911756D01*
X162914286Y-137911756D02*
X163057143Y-137840327D01*
X164485714Y-137840327D02*
X164628571Y-137840327D01*
X164628571Y-137840327D02*
X164771428Y-137911756D01*
X164771428Y-137911756D02*
X164842857Y-137983184D01*
X164842857Y-137983184D02*
X164914285Y-138126041D01*
X164914285Y-138126041D02*
X164985714Y-138411756D01*
X164985714Y-138411756D02*
X164985714Y-138768899D01*
X164985714Y-138768899D02*
X164914285Y-139054613D01*
X164914285Y-139054613D02*
X164842857Y-139197470D01*
X164842857Y-139197470D02*
X164771428Y-139268899D01*
X164771428Y-139268899D02*
X164628571Y-139340327D01*
X164628571Y-139340327D02*
X164485714Y-139340327D01*
X164485714Y-139340327D02*
X164342857Y-139268899D01*
X164342857Y-139268899D02*
X164271428Y-139197470D01*
X164271428Y-139197470D02*
X164199999Y-139054613D01*
X164199999Y-139054613D02*
X164128571Y-138768899D01*
X164128571Y-138768899D02*
X164128571Y-138411756D01*
X164128571Y-138411756D02*
X164199999Y-138126041D01*
X164199999Y-138126041D02*
X164271428Y-137983184D01*
X164271428Y-137983184D02*
X164342857Y-137911756D01*
X164342857Y-137911756D02*
X164485714Y-137840327D01*
X166771427Y-139340327D02*
X166771427Y-138340327D01*
X166771427Y-138483184D02*
X166842856Y-138411756D01*
X166842856Y-138411756D02*
X166985713Y-138340327D01*
X166985713Y-138340327D02*
X167199999Y-138340327D01*
X167199999Y-138340327D02*
X167342856Y-138411756D01*
X167342856Y-138411756D02*
X167414285Y-138554613D01*
X167414285Y-138554613D02*
X167414285Y-139340327D01*
X167414285Y-138554613D02*
X167485713Y-138411756D01*
X167485713Y-138411756D02*
X167628570Y-138340327D01*
X167628570Y-138340327D02*
X167842856Y-138340327D01*
X167842856Y-138340327D02*
X167985713Y-138411756D01*
X167985713Y-138411756D02*
X168057142Y-138554613D01*
X168057142Y-138554613D02*
X168057142Y-139340327D01*
X168771427Y-139340327D02*
X168771427Y-138340327D01*
X168771427Y-138483184D02*
X168842856Y-138411756D01*
X168842856Y-138411756D02*
X168985713Y-138340327D01*
X168985713Y-138340327D02*
X169199999Y-138340327D01*
X169199999Y-138340327D02*
X169342856Y-138411756D01*
X169342856Y-138411756D02*
X169414285Y-138554613D01*
X169414285Y-138554613D02*
X169414285Y-139340327D01*
X169414285Y-138554613D02*
X169485713Y-138411756D01*
X169485713Y-138411756D02*
X169628570Y-138340327D01*
X169628570Y-138340327D02*
X169842856Y-138340327D01*
X169842856Y-138340327D02*
X169985713Y-138411756D01*
X169985713Y-138411756D02*
X170057142Y-138554613D01*
X170057142Y-138554613D02*
X170057142Y-139340327D01*
X117200000Y-129500000D02*
X117200000Y-141048419D01*
X209200000Y-129500000D02*
X209200000Y-141048419D01*
X117200000Y-140461999D02*
X209200000Y-140461999D01*
X117200000Y-140461999D02*
X118326504Y-139875578D01*
X117200000Y-140461999D02*
X118326504Y-141048420D01*
X209200000Y-140461999D02*
X208073496Y-141048420D01*
X209200000Y-140461999D02*
X208073496Y-139875578D01*
X116198573Y-146448328D02*
X115341430Y-146448328D01*
X115770001Y-146448328D02*
X115770001Y-144948328D01*
X115770001Y-144948328D02*
X115627144Y-145162614D01*
X115627144Y-145162614D02*
X115484287Y-145305471D01*
X115484287Y-145305471D02*
X115341430Y-145376900D01*
X117127144Y-144948328D02*
X117270001Y-144948328D01*
X117270001Y-144948328D02*
X117412858Y-145019757D01*
X117412858Y-145019757D02*
X117484287Y-145091185D01*
X117484287Y-145091185D02*
X117555715Y-145234042D01*
X117555715Y-145234042D02*
X117627144Y-145519757D01*
X117627144Y-145519757D02*
X117627144Y-145876900D01*
X117627144Y-145876900D02*
X117555715Y-146162614D01*
X117555715Y-146162614D02*
X117484287Y-146305471D01*
X117484287Y-146305471D02*
X117412858Y-146376900D01*
X117412858Y-146376900D02*
X117270001Y-146448328D01*
X117270001Y-146448328D02*
X117127144Y-146448328D01*
X117127144Y-146448328D02*
X116984287Y-146376900D01*
X116984287Y-146376900D02*
X116912858Y-146305471D01*
X116912858Y-146305471D02*
X116841429Y-146162614D01*
X116841429Y-146162614D02*
X116770001Y-145876900D01*
X116770001Y-145876900D02*
X116770001Y-145519757D01*
X116770001Y-145519757D02*
X116841429Y-145234042D01*
X116841429Y-145234042D02*
X116912858Y-145091185D01*
X116912858Y-145091185D02*
X116984287Y-145019757D01*
X116984287Y-145019757D02*
X117127144Y-144948328D01*
X118270000Y-146305471D02*
X118341429Y-146376900D01*
X118341429Y-146376900D02*
X118270000Y-146448328D01*
X118270000Y-146448328D02*
X118198572Y-146376900D01*
X118198572Y-146376900D02*
X118270000Y-146305471D01*
X118270000Y-146305471D02*
X118270000Y-146448328D01*
X119270001Y-144948328D02*
X119412858Y-144948328D01*
X119412858Y-144948328D02*
X119555715Y-145019757D01*
X119555715Y-145019757D02*
X119627144Y-145091185D01*
X119627144Y-145091185D02*
X119698572Y-145234042D01*
X119698572Y-145234042D02*
X119770001Y-145519757D01*
X119770001Y-145519757D02*
X119770001Y-145876900D01*
X119770001Y-145876900D02*
X119698572Y-146162614D01*
X119698572Y-146162614D02*
X119627144Y-146305471D01*
X119627144Y-146305471D02*
X119555715Y-146376900D01*
X119555715Y-146376900D02*
X119412858Y-146448328D01*
X119412858Y-146448328D02*
X119270001Y-146448328D01*
X119270001Y-146448328D02*
X119127144Y-146376900D01*
X119127144Y-146376900D02*
X119055715Y-146305471D01*
X119055715Y-146305471D02*
X118984286Y-146162614D01*
X118984286Y-146162614D02*
X118912858Y-145876900D01*
X118912858Y-145876900D02*
X118912858Y-145519757D01*
X118912858Y-145519757D02*
X118984286Y-145234042D01*
X118984286Y-145234042D02*
X119055715Y-145091185D01*
X119055715Y-145091185D02*
X119127144Y-145019757D01*
X119127144Y-145019757D02*
X119270001Y-144948328D01*
X120698572Y-144948328D02*
X120841429Y-144948328D01*
X120841429Y-144948328D02*
X120984286Y-145019757D01*
X120984286Y-145019757D02*
X121055715Y-145091185D01*
X121055715Y-145091185D02*
X121127143Y-145234042D01*
X121127143Y-145234042D02*
X121198572Y-145519757D01*
X121198572Y-145519757D02*
X121198572Y-145876900D01*
X121198572Y-145876900D02*
X121127143Y-146162614D01*
X121127143Y-146162614D02*
X121055715Y-146305471D01*
X121055715Y-146305471D02*
X120984286Y-146376900D01*
X120984286Y-146376900D02*
X120841429Y-146448328D01*
X120841429Y-146448328D02*
X120698572Y-146448328D01*
X120698572Y-146448328D02*
X120555715Y-146376900D01*
X120555715Y-146376900D02*
X120484286Y-146305471D01*
X120484286Y-146305471D02*
X120412857Y-146162614D01*
X120412857Y-146162614D02*
X120341429Y-145876900D01*
X120341429Y-145876900D02*
X120341429Y-145519757D01*
X120341429Y-145519757D02*
X120412857Y-145234042D01*
X120412857Y-145234042D02*
X120484286Y-145091185D01*
X120484286Y-145091185D02*
X120555715Y-145019757D01*
X120555715Y-145019757D02*
X120698572Y-144948328D01*
X122127143Y-144948328D02*
X122270000Y-144948328D01*
X122270000Y-144948328D02*
X122412857Y-145019757D01*
X122412857Y-145019757D02*
X122484286Y-145091185D01*
X122484286Y-145091185D02*
X122555714Y-145234042D01*
X122555714Y-145234042D02*
X122627143Y-145519757D01*
X122627143Y-145519757D02*
X122627143Y-145876900D01*
X122627143Y-145876900D02*
X122555714Y-146162614D01*
X122555714Y-146162614D02*
X122484286Y-146305471D01*
X122484286Y-146305471D02*
X122412857Y-146376900D01*
X122412857Y-146376900D02*
X122270000Y-146448328D01*
X122270000Y-146448328D02*
X122127143Y-146448328D01*
X122127143Y-146448328D02*
X121984286Y-146376900D01*
X121984286Y-146376900D02*
X121912857Y-146305471D01*
X121912857Y-146305471D02*
X121841428Y-146162614D01*
X121841428Y-146162614D02*
X121770000Y-145876900D01*
X121770000Y-145876900D02*
X121770000Y-145519757D01*
X121770000Y-145519757D02*
X121841428Y-145234042D01*
X121841428Y-145234042D02*
X121912857Y-145091185D01*
X121912857Y-145091185D02*
X121984286Y-145019757D01*
X121984286Y-145019757D02*
X122127143Y-144948328D01*
X123555714Y-144948328D02*
X123698571Y-144948328D01*
X123698571Y-144948328D02*
X123841428Y-145019757D01*
X123841428Y-145019757D02*
X123912857Y-145091185D01*
X123912857Y-145091185D02*
X123984285Y-145234042D01*
X123984285Y-145234042D02*
X124055714Y-145519757D01*
X124055714Y-145519757D02*
X124055714Y-145876900D01*
X124055714Y-145876900D02*
X123984285Y-146162614D01*
X123984285Y-146162614D02*
X123912857Y-146305471D01*
X123912857Y-146305471D02*
X123841428Y-146376900D01*
X123841428Y-146376900D02*
X123698571Y-146448328D01*
X123698571Y-146448328D02*
X123555714Y-146448328D01*
X123555714Y-146448328D02*
X123412857Y-146376900D01*
X123412857Y-146376900D02*
X123341428Y-146305471D01*
X123341428Y-146305471D02*
X123269999Y-146162614D01*
X123269999Y-146162614D02*
X123198571Y-145876900D01*
X123198571Y-145876900D02*
X123198571Y-145519757D01*
X123198571Y-145519757D02*
X123269999Y-145234042D01*
X123269999Y-145234042D02*
X123341428Y-145091185D01*
X123341428Y-145091185D02*
X123412857Y-145019757D01*
X123412857Y-145019757D02*
X123555714Y-144948328D01*
X125841427Y-146448328D02*
X125841427Y-145448328D01*
X125841427Y-145591185D02*
X125912856Y-145519757D01*
X125912856Y-145519757D02*
X126055713Y-145448328D01*
X126055713Y-145448328D02*
X126269999Y-145448328D01*
X126269999Y-145448328D02*
X126412856Y-145519757D01*
X126412856Y-145519757D02*
X126484285Y-145662614D01*
X126484285Y-145662614D02*
X126484285Y-146448328D01*
X126484285Y-145662614D02*
X126555713Y-145519757D01*
X126555713Y-145519757D02*
X126698570Y-145448328D01*
X126698570Y-145448328D02*
X126912856Y-145448328D01*
X126912856Y-145448328D02*
X127055713Y-145519757D01*
X127055713Y-145519757D02*
X127127142Y-145662614D01*
X127127142Y-145662614D02*
X127127142Y-146448328D01*
X127841427Y-146448328D02*
X127841427Y-145448328D01*
X127841427Y-145591185D02*
X127912856Y-145519757D01*
X127912856Y-145519757D02*
X128055713Y-145448328D01*
X128055713Y-145448328D02*
X128269999Y-145448328D01*
X128269999Y-145448328D02*
X128412856Y-145519757D01*
X128412856Y-145519757D02*
X128484285Y-145662614D01*
X128484285Y-145662614D02*
X128484285Y-146448328D01*
X128484285Y-145662614D02*
X128555713Y-145519757D01*
X128555713Y-145519757D02*
X128698570Y-145448328D01*
X128698570Y-145448328D02*
X128912856Y-145448328D01*
X128912856Y-145448328D02*
X129055713Y-145519757D01*
X129055713Y-145519757D02*
X129127142Y-145662614D01*
X129127142Y-145662614D02*
X129127142Y-146448328D01*
X117200000Y-129500000D02*
X117200000Y-144336420D01*
X127200000Y-144336420D02*
X127200000Y-127500000D01*
X117200000Y-143750000D02*
X127200000Y-143750000D01*
X117200000Y-143750000D02*
X118326504Y-143163579D01*
X117200000Y-143750000D02*
X118326504Y-144336421D01*
X127200000Y-143750000D02*
X126073496Y-144336421D01*
X127200000Y-143750000D02*
X126073496Y-143163579D01*
X109398328Y-132131426D02*
X109398328Y-132988569D01*
X109398328Y-132559998D02*
X107898328Y-132559998D01*
X107898328Y-132559998D02*
X108112614Y-132702855D01*
X108112614Y-132702855D02*
X108255471Y-132845712D01*
X108255471Y-132845712D02*
X108326900Y-132988569D01*
X108398328Y-130845713D02*
X109398328Y-130845713D01*
X107826900Y-131202855D02*
X108898328Y-131559998D01*
X108898328Y-131559998D02*
X108898328Y-130631427D01*
X109255471Y-130059999D02*
X109326900Y-129988570D01*
X109326900Y-129988570D02*
X109398328Y-130059999D01*
X109398328Y-130059999D02*
X109326900Y-130131427D01*
X109326900Y-130131427D02*
X109255471Y-130059999D01*
X109255471Y-130059999D02*
X109398328Y-130059999D01*
X107898328Y-129059998D02*
X107898328Y-128917141D01*
X107898328Y-128917141D02*
X107969757Y-128774284D01*
X107969757Y-128774284D02*
X108041185Y-128702856D01*
X108041185Y-128702856D02*
X108184042Y-128631427D01*
X108184042Y-128631427D02*
X108469757Y-128559998D01*
X108469757Y-128559998D02*
X108826900Y-128559998D01*
X108826900Y-128559998D02*
X109112614Y-128631427D01*
X109112614Y-128631427D02*
X109255471Y-128702856D01*
X109255471Y-128702856D02*
X109326900Y-128774284D01*
X109326900Y-128774284D02*
X109398328Y-128917141D01*
X109398328Y-128917141D02*
X109398328Y-129059998D01*
X109398328Y-129059998D02*
X109326900Y-129202856D01*
X109326900Y-129202856D02*
X109255471Y-129274284D01*
X109255471Y-129274284D02*
X109112614Y-129345713D01*
X109112614Y-129345713D02*
X108826900Y-129417141D01*
X108826900Y-129417141D02*
X108469757Y-129417141D01*
X108469757Y-129417141D02*
X108184042Y-129345713D01*
X108184042Y-129345713D02*
X108041185Y-129274284D01*
X108041185Y-129274284D02*
X107969757Y-129202856D01*
X107969757Y-129202856D02*
X107898328Y-129059998D01*
X107898328Y-127631427D02*
X107898328Y-127488570D01*
X107898328Y-127488570D02*
X107969757Y-127345713D01*
X107969757Y-127345713D02*
X108041185Y-127274285D01*
X108041185Y-127274285D02*
X108184042Y-127202856D01*
X108184042Y-127202856D02*
X108469757Y-127131427D01*
X108469757Y-127131427D02*
X108826900Y-127131427D01*
X108826900Y-127131427D02*
X109112614Y-127202856D01*
X109112614Y-127202856D02*
X109255471Y-127274285D01*
X109255471Y-127274285D02*
X109326900Y-127345713D01*
X109326900Y-127345713D02*
X109398328Y-127488570D01*
X109398328Y-127488570D02*
X109398328Y-127631427D01*
X109398328Y-127631427D02*
X109326900Y-127774285D01*
X109326900Y-127774285D02*
X109255471Y-127845713D01*
X109255471Y-127845713D02*
X109112614Y-127917142D01*
X109112614Y-127917142D02*
X108826900Y-127988570D01*
X108826900Y-127988570D02*
X108469757Y-127988570D01*
X108469757Y-127988570D02*
X108184042Y-127917142D01*
X108184042Y-127917142D02*
X108041185Y-127845713D01*
X108041185Y-127845713D02*
X107969757Y-127774285D01*
X107969757Y-127774285D02*
X107898328Y-127631427D01*
X107898328Y-126202856D02*
X107898328Y-126059999D01*
X107898328Y-126059999D02*
X107969757Y-125917142D01*
X107969757Y-125917142D02*
X108041185Y-125845714D01*
X108041185Y-125845714D02*
X108184042Y-125774285D01*
X108184042Y-125774285D02*
X108469757Y-125702856D01*
X108469757Y-125702856D02*
X108826900Y-125702856D01*
X108826900Y-125702856D02*
X109112614Y-125774285D01*
X109112614Y-125774285D02*
X109255471Y-125845714D01*
X109255471Y-125845714D02*
X109326900Y-125917142D01*
X109326900Y-125917142D02*
X109398328Y-126059999D01*
X109398328Y-126059999D02*
X109398328Y-126202856D01*
X109398328Y-126202856D02*
X109326900Y-126345714D01*
X109326900Y-126345714D02*
X109255471Y-126417142D01*
X109255471Y-126417142D02*
X109112614Y-126488571D01*
X109112614Y-126488571D02*
X108826900Y-126559999D01*
X108826900Y-126559999D02*
X108469757Y-126559999D01*
X108469757Y-126559999D02*
X108184042Y-126488571D01*
X108184042Y-126488571D02*
X108041185Y-126417142D01*
X108041185Y-126417142D02*
X107969757Y-126345714D01*
X107969757Y-126345714D02*
X107898328Y-126202856D01*
X107898328Y-124774285D02*
X107898328Y-124631428D01*
X107898328Y-124631428D02*
X107969757Y-124488571D01*
X107969757Y-124488571D02*
X108041185Y-124417143D01*
X108041185Y-124417143D02*
X108184042Y-124345714D01*
X108184042Y-124345714D02*
X108469757Y-124274285D01*
X108469757Y-124274285D02*
X108826900Y-124274285D01*
X108826900Y-124274285D02*
X109112614Y-124345714D01*
X109112614Y-124345714D02*
X109255471Y-124417143D01*
X109255471Y-124417143D02*
X109326900Y-124488571D01*
X109326900Y-124488571D02*
X109398328Y-124631428D01*
X109398328Y-124631428D02*
X109398328Y-124774285D01*
X109398328Y-124774285D02*
X109326900Y-124917143D01*
X109326900Y-124917143D02*
X109255471Y-124988571D01*
X109255471Y-124988571D02*
X109112614Y-125060000D01*
X109112614Y-125060000D02*
X108826900Y-125131428D01*
X108826900Y-125131428D02*
X108469757Y-125131428D01*
X108469757Y-125131428D02*
X108184042Y-125060000D01*
X108184042Y-125060000D02*
X108041185Y-124988571D01*
X108041185Y-124988571D02*
X107969757Y-124917143D01*
X107969757Y-124917143D02*
X107898328Y-124774285D01*
X109398328Y-122488572D02*
X108398328Y-122488572D01*
X108541185Y-122488572D02*
X108469757Y-122417143D01*
X108469757Y-122417143D02*
X108398328Y-122274286D01*
X108398328Y-122274286D02*
X108398328Y-122060000D01*
X108398328Y-122060000D02*
X108469757Y-121917143D01*
X108469757Y-121917143D02*
X108612614Y-121845715D01*
X108612614Y-121845715D02*
X109398328Y-121845715D01*
X108612614Y-121845715D02*
X108469757Y-121774286D01*
X108469757Y-121774286D02*
X108398328Y-121631429D01*
X108398328Y-121631429D02*
X108398328Y-121417143D01*
X108398328Y-121417143D02*
X108469757Y-121274286D01*
X108469757Y-121274286D02*
X108612614Y-121202857D01*
X108612614Y-121202857D02*
X109398328Y-121202857D01*
X109398328Y-120488572D02*
X108398328Y-120488572D01*
X108541185Y-120488572D02*
X108469757Y-120417143D01*
X108469757Y-120417143D02*
X108398328Y-120274286D01*
X108398328Y-120274286D02*
X108398328Y-120060000D01*
X108398328Y-120060000D02*
X108469757Y-119917143D01*
X108469757Y-119917143D02*
X108612614Y-119845715D01*
X108612614Y-119845715D02*
X109398328Y-119845715D01*
X108612614Y-119845715D02*
X108469757Y-119774286D01*
X108469757Y-119774286D02*
X108398328Y-119631429D01*
X108398328Y-119631429D02*
X108398328Y-119417143D01*
X108398328Y-119417143D02*
X108469757Y-119274286D01*
X108469757Y-119274286D02*
X108612614Y-119202857D01*
X108612614Y-119202857D02*
X109398328Y-119202857D01*
X112700000Y-133000000D02*
X110193580Y-133000000D01*
X110193580Y-119000000D02*
X112700000Y-119000000D01*
X110780000Y-133000000D02*
X110780000Y-119000000D01*
X110780000Y-133000000D02*
X110193579Y-131873496D01*
X110780000Y-133000000D02*
X111366421Y-131873496D01*
X110780000Y-119000000D02*
X111366421Y-120126504D01*
X110780000Y-119000000D02*
X110193579Y-120126504D01*
X103518328Y-64019999D02*
X104518328Y-64019999D01*
X102946900Y-64377141D02*
X104018328Y-64734284D01*
X104018328Y-64734284D02*
X104018328Y-63805713D01*
X104375471Y-63234285D02*
X104446900Y-63162856D01*
X104446900Y-63162856D02*
X104518328Y-63234285D01*
X104518328Y-63234285D02*
X104446900Y-63305713D01*
X104446900Y-63305713D02*
X104375471Y-63234285D01*
X104375471Y-63234285D02*
X104518328Y-63234285D01*
X103018328Y-62234284D02*
X103018328Y-62091427D01*
X103018328Y-62091427D02*
X103089757Y-61948570D01*
X103089757Y-61948570D02*
X103161185Y-61877142D01*
X103161185Y-61877142D02*
X103304042Y-61805713D01*
X103304042Y-61805713D02*
X103589757Y-61734284D01*
X103589757Y-61734284D02*
X103946900Y-61734284D01*
X103946900Y-61734284D02*
X104232614Y-61805713D01*
X104232614Y-61805713D02*
X104375471Y-61877142D01*
X104375471Y-61877142D02*
X104446900Y-61948570D01*
X104446900Y-61948570D02*
X104518328Y-62091427D01*
X104518328Y-62091427D02*
X104518328Y-62234284D01*
X104518328Y-62234284D02*
X104446900Y-62377142D01*
X104446900Y-62377142D02*
X104375471Y-62448570D01*
X104375471Y-62448570D02*
X104232614Y-62519999D01*
X104232614Y-62519999D02*
X103946900Y-62591427D01*
X103946900Y-62591427D02*
X103589757Y-62591427D01*
X103589757Y-62591427D02*
X103304042Y-62519999D01*
X103304042Y-62519999D02*
X103161185Y-62448570D01*
X103161185Y-62448570D02*
X103089757Y-62377142D01*
X103089757Y-62377142D02*
X103018328Y-62234284D01*
X103018328Y-60805713D02*
X103018328Y-60662856D01*
X103018328Y-60662856D02*
X103089757Y-60519999D01*
X103089757Y-60519999D02*
X103161185Y-60448571D01*
X103161185Y-60448571D02*
X103304042Y-60377142D01*
X103304042Y-60377142D02*
X103589757Y-60305713D01*
X103589757Y-60305713D02*
X103946900Y-60305713D01*
X103946900Y-60305713D02*
X104232614Y-60377142D01*
X104232614Y-60377142D02*
X104375471Y-60448571D01*
X104375471Y-60448571D02*
X104446900Y-60519999D01*
X104446900Y-60519999D02*
X104518328Y-60662856D01*
X104518328Y-60662856D02*
X104518328Y-60805713D01*
X104518328Y-60805713D02*
X104446900Y-60948571D01*
X104446900Y-60948571D02*
X104375471Y-61019999D01*
X104375471Y-61019999D02*
X104232614Y-61091428D01*
X104232614Y-61091428D02*
X103946900Y-61162856D01*
X103946900Y-61162856D02*
X103589757Y-61162856D01*
X103589757Y-61162856D02*
X103304042Y-61091428D01*
X103304042Y-61091428D02*
X103161185Y-61019999D01*
X103161185Y-61019999D02*
X103089757Y-60948571D01*
X103089757Y-60948571D02*
X103018328Y-60805713D01*
X103018328Y-59377142D02*
X103018328Y-59234285D01*
X103018328Y-59234285D02*
X103089757Y-59091428D01*
X103089757Y-59091428D02*
X103161185Y-59020000D01*
X103161185Y-59020000D02*
X103304042Y-58948571D01*
X103304042Y-58948571D02*
X103589757Y-58877142D01*
X103589757Y-58877142D02*
X103946900Y-58877142D01*
X103946900Y-58877142D02*
X104232614Y-58948571D01*
X104232614Y-58948571D02*
X104375471Y-59020000D01*
X104375471Y-59020000D02*
X104446900Y-59091428D01*
X104446900Y-59091428D02*
X104518328Y-59234285D01*
X104518328Y-59234285D02*
X104518328Y-59377142D01*
X104518328Y-59377142D02*
X104446900Y-59520000D01*
X104446900Y-59520000D02*
X104375471Y-59591428D01*
X104375471Y-59591428D02*
X104232614Y-59662857D01*
X104232614Y-59662857D02*
X103946900Y-59734285D01*
X103946900Y-59734285D02*
X103589757Y-59734285D01*
X103589757Y-59734285D02*
X103304042Y-59662857D01*
X103304042Y-59662857D02*
X103161185Y-59591428D01*
X103161185Y-59591428D02*
X103089757Y-59520000D01*
X103089757Y-59520000D02*
X103018328Y-59377142D01*
X103018328Y-57948571D02*
X103018328Y-57805714D01*
X103018328Y-57805714D02*
X103089757Y-57662857D01*
X103089757Y-57662857D02*
X103161185Y-57591429D01*
X103161185Y-57591429D02*
X103304042Y-57520000D01*
X103304042Y-57520000D02*
X103589757Y-57448571D01*
X103589757Y-57448571D02*
X103946900Y-57448571D01*
X103946900Y-57448571D02*
X104232614Y-57520000D01*
X104232614Y-57520000D02*
X104375471Y-57591429D01*
X104375471Y-57591429D02*
X104446900Y-57662857D01*
X104446900Y-57662857D02*
X104518328Y-57805714D01*
X104518328Y-57805714D02*
X104518328Y-57948571D01*
X104518328Y-57948571D02*
X104446900Y-58091429D01*
X104446900Y-58091429D02*
X104375471Y-58162857D01*
X104375471Y-58162857D02*
X104232614Y-58234286D01*
X104232614Y-58234286D02*
X103946900Y-58305714D01*
X103946900Y-58305714D02*
X103589757Y-58305714D01*
X103589757Y-58305714D02*
X103304042Y-58234286D01*
X103304042Y-58234286D02*
X103161185Y-58162857D01*
X103161185Y-58162857D02*
X103089757Y-58091429D01*
X103089757Y-58091429D02*
X103018328Y-57948571D01*
X104518328Y-55662858D02*
X103518328Y-55662858D01*
X103661185Y-55662858D02*
X103589757Y-55591429D01*
X103589757Y-55591429D02*
X103518328Y-55448572D01*
X103518328Y-55448572D02*
X103518328Y-55234286D01*
X103518328Y-55234286D02*
X103589757Y-55091429D01*
X103589757Y-55091429D02*
X103732614Y-55020001D01*
X103732614Y-55020001D02*
X104518328Y-55020001D01*
X103732614Y-55020001D02*
X103589757Y-54948572D01*
X103589757Y-54948572D02*
X103518328Y-54805715D01*
X103518328Y-54805715D02*
X103518328Y-54591429D01*
X103518328Y-54591429D02*
X103589757Y-54448572D01*
X103589757Y-54448572D02*
X103732614Y-54377143D01*
X103732614Y-54377143D02*
X104518328Y-54377143D01*
X104518328Y-53662858D02*
X103518328Y-53662858D01*
X103661185Y-53662858D02*
X103589757Y-53591429D01*
X103589757Y-53591429D02*
X103518328Y-53448572D01*
X103518328Y-53448572D02*
X103518328Y-53234286D01*
X103518328Y-53234286D02*
X103589757Y-53091429D01*
X103589757Y-53091429D02*
X103732614Y-53020001D01*
X103732614Y-53020001D02*
X104518328Y-53020001D01*
X103732614Y-53020001D02*
X103589757Y-52948572D01*
X103589757Y-52948572D02*
X103518328Y-52805715D01*
X103518328Y-52805715D02*
X103518328Y-52591429D01*
X103518328Y-52591429D02*
X103589757Y-52448572D01*
X103589757Y-52448572D02*
X103732614Y-52377143D01*
X103732614Y-52377143D02*
X104518328Y-52377143D01*
X111700000Y-57000000D02*
X104913580Y-57000000D01*
X104913580Y-61000000D02*
X111650000Y-61000000D01*
X105500000Y-57000000D02*
X106086421Y-58126504D01*
X105500000Y-57000000D02*
X104913579Y-58126504D01*
X105500000Y-61000000D02*
X104913579Y-59873496D01*
X105500000Y-61000000D02*
X106086421Y-59873496D01*
X120271430Y-40821185D02*
X120342858Y-40749757D01*
X120342858Y-40749757D02*
X120485716Y-40678328D01*
X120485716Y-40678328D02*
X120842858Y-40678328D01*
X120842858Y-40678328D02*
X120985716Y-40749757D01*
X120985716Y-40749757D02*
X121057144Y-40821185D01*
X121057144Y-40821185D02*
X121128573Y-40964042D01*
X121128573Y-40964042D02*
X121128573Y-41106900D01*
X121128573Y-41106900D02*
X121057144Y-41321185D01*
X121057144Y-41321185D02*
X120200001Y-42178328D01*
X120200001Y-42178328D02*
X121128573Y-42178328D01*
X121985715Y-41321185D02*
X121842858Y-41249757D01*
X121842858Y-41249757D02*
X121771429Y-41178328D01*
X121771429Y-41178328D02*
X121700001Y-41035471D01*
X121700001Y-41035471D02*
X121700001Y-40964042D01*
X121700001Y-40964042D02*
X121771429Y-40821185D01*
X121771429Y-40821185D02*
X121842858Y-40749757D01*
X121842858Y-40749757D02*
X121985715Y-40678328D01*
X121985715Y-40678328D02*
X122271429Y-40678328D01*
X122271429Y-40678328D02*
X122414287Y-40749757D01*
X122414287Y-40749757D02*
X122485715Y-40821185D01*
X122485715Y-40821185D02*
X122557144Y-40964042D01*
X122557144Y-40964042D02*
X122557144Y-41035471D01*
X122557144Y-41035471D02*
X122485715Y-41178328D01*
X122485715Y-41178328D02*
X122414287Y-41249757D01*
X122414287Y-41249757D02*
X122271429Y-41321185D01*
X122271429Y-41321185D02*
X121985715Y-41321185D01*
X121985715Y-41321185D02*
X121842858Y-41392614D01*
X121842858Y-41392614D02*
X121771429Y-41464042D01*
X121771429Y-41464042D02*
X121700001Y-41606900D01*
X121700001Y-41606900D02*
X121700001Y-41892614D01*
X121700001Y-41892614D02*
X121771429Y-42035471D01*
X121771429Y-42035471D02*
X121842858Y-42106900D01*
X121842858Y-42106900D02*
X121985715Y-42178328D01*
X121985715Y-42178328D02*
X122271429Y-42178328D01*
X122271429Y-42178328D02*
X122414287Y-42106900D01*
X122414287Y-42106900D02*
X122485715Y-42035471D01*
X122485715Y-42035471D02*
X122557144Y-41892614D01*
X122557144Y-41892614D02*
X122557144Y-41606900D01*
X122557144Y-41606900D02*
X122485715Y-41464042D01*
X122485715Y-41464042D02*
X122414287Y-41392614D01*
X122414287Y-41392614D02*
X122271429Y-41321185D01*
X123200000Y-42035471D02*
X123271429Y-42106900D01*
X123271429Y-42106900D02*
X123200000Y-42178328D01*
X123200000Y-42178328D02*
X123128572Y-42106900D01*
X123128572Y-42106900D02*
X123200000Y-42035471D01*
X123200000Y-42035471D02*
X123200000Y-42178328D01*
X124200001Y-40678328D02*
X124342858Y-40678328D01*
X124342858Y-40678328D02*
X124485715Y-40749757D01*
X124485715Y-40749757D02*
X124557144Y-40821185D01*
X124557144Y-40821185D02*
X124628572Y-40964042D01*
X124628572Y-40964042D02*
X124700001Y-41249757D01*
X124700001Y-41249757D02*
X124700001Y-41606900D01*
X124700001Y-41606900D02*
X124628572Y-41892614D01*
X124628572Y-41892614D02*
X124557144Y-42035471D01*
X124557144Y-42035471D02*
X124485715Y-42106900D01*
X124485715Y-42106900D02*
X124342858Y-42178328D01*
X124342858Y-42178328D02*
X124200001Y-42178328D01*
X124200001Y-42178328D02*
X124057144Y-42106900D01*
X124057144Y-42106900D02*
X123985715Y-42035471D01*
X123985715Y-42035471D02*
X123914286Y-41892614D01*
X123914286Y-41892614D02*
X123842858Y-41606900D01*
X123842858Y-41606900D02*
X123842858Y-41249757D01*
X123842858Y-41249757D02*
X123914286Y-40964042D01*
X123914286Y-40964042D02*
X123985715Y-40821185D01*
X123985715Y-40821185D02*
X124057144Y-40749757D01*
X124057144Y-40749757D02*
X124200001Y-40678328D01*
X125628572Y-40678328D02*
X125771429Y-40678328D01*
X125771429Y-40678328D02*
X125914286Y-40749757D01*
X125914286Y-40749757D02*
X125985715Y-40821185D01*
X125985715Y-40821185D02*
X126057143Y-40964042D01*
X126057143Y-40964042D02*
X126128572Y-41249757D01*
X126128572Y-41249757D02*
X126128572Y-41606900D01*
X126128572Y-41606900D02*
X126057143Y-41892614D01*
X126057143Y-41892614D02*
X125985715Y-42035471D01*
X125985715Y-42035471D02*
X125914286Y-42106900D01*
X125914286Y-42106900D02*
X125771429Y-42178328D01*
X125771429Y-42178328D02*
X125628572Y-42178328D01*
X125628572Y-42178328D02*
X125485715Y-42106900D01*
X125485715Y-42106900D02*
X125414286Y-42035471D01*
X125414286Y-42035471D02*
X125342857Y-41892614D01*
X125342857Y-41892614D02*
X125271429Y-41606900D01*
X125271429Y-41606900D02*
X125271429Y-41249757D01*
X125271429Y-41249757D02*
X125342857Y-40964042D01*
X125342857Y-40964042D02*
X125414286Y-40821185D01*
X125414286Y-40821185D02*
X125485715Y-40749757D01*
X125485715Y-40749757D02*
X125628572Y-40678328D01*
X127057143Y-40678328D02*
X127200000Y-40678328D01*
X127200000Y-40678328D02*
X127342857Y-40749757D01*
X127342857Y-40749757D02*
X127414286Y-40821185D01*
X127414286Y-40821185D02*
X127485714Y-40964042D01*
X127485714Y-40964042D02*
X127557143Y-41249757D01*
X127557143Y-41249757D02*
X127557143Y-41606900D01*
X127557143Y-41606900D02*
X127485714Y-41892614D01*
X127485714Y-41892614D02*
X127414286Y-42035471D01*
X127414286Y-42035471D02*
X127342857Y-42106900D01*
X127342857Y-42106900D02*
X127200000Y-42178328D01*
X127200000Y-42178328D02*
X127057143Y-42178328D01*
X127057143Y-42178328D02*
X126914286Y-42106900D01*
X126914286Y-42106900D02*
X126842857Y-42035471D01*
X126842857Y-42035471D02*
X126771428Y-41892614D01*
X126771428Y-41892614D02*
X126700000Y-41606900D01*
X126700000Y-41606900D02*
X126700000Y-41249757D01*
X126700000Y-41249757D02*
X126771428Y-40964042D01*
X126771428Y-40964042D02*
X126842857Y-40821185D01*
X126842857Y-40821185D02*
X126914286Y-40749757D01*
X126914286Y-40749757D02*
X127057143Y-40678328D01*
X128485714Y-40678328D02*
X128628571Y-40678328D01*
X128628571Y-40678328D02*
X128771428Y-40749757D01*
X128771428Y-40749757D02*
X128842857Y-40821185D01*
X128842857Y-40821185D02*
X128914285Y-40964042D01*
X128914285Y-40964042D02*
X128985714Y-41249757D01*
X128985714Y-41249757D02*
X128985714Y-41606900D01*
X128985714Y-41606900D02*
X128914285Y-41892614D01*
X128914285Y-41892614D02*
X128842857Y-42035471D01*
X128842857Y-42035471D02*
X128771428Y-42106900D01*
X128771428Y-42106900D02*
X128628571Y-42178328D01*
X128628571Y-42178328D02*
X128485714Y-42178328D01*
X128485714Y-42178328D02*
X128342857Y-42106900D01*
X128342857Y-42106900D02*
X128271428Y-42035471D01*
X128271428Y-42035471D02*
X128199999Y-41892614D01*
X128199999Y-41892614D02*
X128128571Y-41606900D01*
X128128571Y-41606900D02*
X128128571Y-41249757D01*
X128128571Y-41249757D02*
X128199999Y-40964042D01*
X128199999Y-40964042D02*
X128271428Y-40821185D01*
X128271428Y-40821185D02*
X128342857Y-40749757D01*
X128342857Y-40749757D02*
X128485714Y-40678328D01*
X130771427Y-42178328D02*
X130771427Y-41178328D01*
X130771427Y-41321185D02*
X130842856Y-41249757D01*
X130842856Y-41249757D02*
X130985713Y-41178328D01*
X130985713Y-41178328D02*
X131199999Y-41178328D01*
X131199999Y-41178328D02*
X131342856Y-41249757D01*
X131342856Y-41249757D02*
X131414285Y-41392614D01*
X131414285Y-41392614D02*
X131414285Y-42178328D01*
X131414285Y-41392614D02*
X131485713Y-41249757D01*
X131485713Y-41249757D02*
X131628570Y-41178328D01*
X131628570Y-41178328D02*
X131842856Y-41178328D01*
X131842856Y-41178328D02*
X131985713Y-41249757D01*
X131985713Y-41249757D02*
X132057142Y-41392614D01*
X132057142Y-41392614D02*
X132057142Y-42178328D01*
X132771427Y-42178328D02*
X132771427Y-41178328D01*
X132771427Y-41321185D02*
X132842856Y-41249757D01*
X132842856Y-41249757D02*
X132985713Y-41178328D01*
X132985713Y-41178328D02*
X133199999Y-41178328D01*
X133199999Y-41178328D02*
X133342856Y-41249757D01*
X133342856Y-41249757D02*
X133414285Y-41392614D01*
X133414285Y-41392614D02*
X133414285Y-42178328D01*
X133414285Y-41392614D02*
X133485713Y-41249757D01*
X133485713Y-41249757D02*
X133628570Y-41178328D01*
X133628570Y-41178328D02*
X133842856Y-41178328D01*
X133842856Y-41178328D02*
X133985713Y-41249757D01*
X133985713Y-41249757D02*
X134057142Y-41392614D01*
X134057142Y-41392614D02*
X134057142Y-42178328D01*
X113200000Y-51000000D02*
X113200000Y-42713580D01*
X141200000Y-42713580D02*
X141200000Y-51000000D01*
X113200000Y-43300000D02*
X141200000Y-43300000D01*
X113200000Y-43300000D02*
X114326504Y-42713579D01*
X113200000Y-43300000D02*
X114326504Y-43886421D01*
X141200000Y-43300000D02*
X140073496Y-43886421D01*
X141200000Y-43300000D02*
X140073496Y-42713579D01*
X199451429Y-40351185D02*
X199308572Y-40279757D01*
X199308572Y-40279757D02*
X199237143Y-40208328D01*
X199237143Y-40208328D02*
X199165715Y-40065471D01*
X199165715Y-40065471D02*
X199165715Y-39994042D01*
X199165715Y-39994042D02*
X199237143Y-39851185D01*
X199237143Y-39851185D02*
X199308572Y-39779757D01*
X199308572Y-39779757D02*
X199451429Y-39708328D01*
X199451429Y-39708328D02*
X199737143Y-39708328D01*
X199737143Y-39708328D02*
X199880001Y-39779757D01*
X199880001Y-39779757D02*
X199951429Y-39851185D01*
X199951429Y-39851185D02*
X200022858Y-39994042D01*
X200022858Y-39994042D02*
X200022858Y-40065471D01*
X200022858Y-40065471D02*
X199951429Y-40208328D01*
X199951429Y-40208328D02*
X199880001Y-40279757D01*
X199880001Y-40279757D02*
X199737143Y-40351185D01*
X199737143Y-40351185D02*
X199451429Y-40351185D01*
X199451429Y-40351185D02*
X199308572Y-40422614D01*
X199308572Y-40422614D02*
X199237143Y-40494042D01*
X199237143Y-40494042D02*
X199165715Y-40636900D01*
X199165715Y-40636900D02*
X199165715Y-40922614D01*
X199165715Y-40922614D02*
X199237143Y-41065471D01*
X199237143Y-41065471D02*
X199308572Y-41136900D01*
X199308572Y-41136900D02*
X199451429Y-41208328D01*
X199451429Y-41208328D02*
X199737143Y-41208328D01*
X199737143Y-41208328D02*
X199880001Y-41136900D01*
X199880001Y-41136900D02*
X199951429Y-41065471D01*
X199951429Y-41065471D02*
X200022858Y-40922614D01*
X200022858Y-40922614D02*
X200022858Y-40636900D01*
X200022858Y-40636900D02*
X199951429Y-40494042D01*
X199951429Y-40494042D02*
X199880001Y-40422614D01*
X199880001Y-40422614D02*
X199737143Y-40351185D01*
X200665714Y-41065471D02*
X200737143Y-41136900D01*
X200737143Y-41136900D02*
X200665714Y-41208328D01*
X200665714Y-41208328D02*
X200594286Y-41136900D01*
X200594286Y-41136900D02*
X200665714Y-41065471D01*
X200665714Y-41065471D02*
X200665714Y-41208328D01*
X201665715Y-39708328D02*
X201808572Y-39708328D01*
X201808572Y-39708328D02*
X201951429Y-39779757D01*
X201951429Y-39779757D02*
X202022858Y-39851185D01*
X202022858Y-39851185D02*
X202094286Y-39994042D01*
X202094286Y-39994042D02*
X202165715Y-40279757D01*
X202165715Y-40279757D02*
X202165715Y-40636900D01*
X202165715Y-40636900D02*
X202094286Y-40922614D01*
X202094286Y-40922614D02*
X202022858Y-41065471D01*
X202022858Y-41065471D02*
X201951429Y-41136900D01*
X201951429Y-41136900D02*
X201808572Y-41208328D01*
X201808572Y-41208328D02*
X201665715Y-41208328D01*
X201665715Y-41208328D02*
X201522858Y-41136900D01*
X201522858Y-41136900D02*
X201451429Y-41065471D01*
X201451429Y-41065471D02*
X201380000Y-40922614D01*
X201380000Y-40922614D02*
X201308572Y-40636900D01*
X201308572Y-40636900D02*
X201308572Y-40279757D01*
X201308572Y-40279757D02*
X201380000Y-39994042D01*
X201380000Y-39994042D02*
X201451429Y-39851185D01*
X201451429Y-39851185D02*
X201522858Y-39779757D01*
X201522858Y-39779757D02*
X201665715Y-39708328D01*
X203094286Y-39708328D02*
X203237143Y-39708328D01*
X203237143Y-39708328D02*
X203380000Y-39779757D01*
X203380000Y-39779757D02*
X203451429Y-39851185D01*
X203451429Y-39851185D02*
X203522857Y-39994042D01*
X203522857Y-39994042D02*
X203594286Y-40279757D01*
X203594286Y-40279757D02*
X203594286Y-40636900D01*
X203594286Y-40636900D02*
X203522857Y-40922614D01*
X203522857Y-40922614D02*
X203451429Y-41065471D01*
X203451429Y-41065471D02*
X203380000Y-41136900D01*
X203380000Y-41136900D02*
X203237143Y-41208328D01*
X203237143Y-41208328D02*
X203094286Y-41208328D01*
X203094286Y-41208328D02*
X202951429Y-41136900D01*
X202951429Y-41136900D02*
X202880000Y-41065471D01*
X202880000Y-41065471D02*
X202808571Y-40922614D01*
X202808571Y-40922614D02*
X202737143Y-40636900D01*
X202737143Y-40636900D02*
X202737143Y-40279757D01*
X202737143Y-40279757D02*
X202808571Y-39994042D01*
X202808571Y-39994042D02*
X202880000Y-39851185D01*
X202880000Y-39851185D02*
X202951429Y-39779757D01*
X202951429Y-39779757D02*
X203094286Y-39708328D01*
X204522857Y-39708328D02*
X204665714Y-39708328D01*
X204665714Y-39708328D02*
X204808571Y-39779757D01*
X204808571Y-39779757D02*
X204880000Y-39851185D01*
X204880000Y-39851185D02*
X204951428Y-39994042D01*
X204951428Y-39994042D02*
X205022857Y-40279757D01*
X205022857Y-40279757D02*
X205022857Y-40636900D01*
X205022857Y-40636900D02*
X204951428Y-40922614D01*
X204951428Y-40922614D02*
X204880000Y-41065471D01*
X204880000Y-41065471D02*
X204808571Y-41136900D01*
X204808571Y-41136900D02*
X204665714Y-41208328D01*
X204665714Y-41208328D02*
X204522857Y-41208328D01*
X204522857Y-41208328D02*
X204380000Y-41136900D01*
X204380000Y-41136900D02*
X204308571Y-41065471D01*
X204308571Y-41065471D02*
X204237142Y-40922614D01*
X204237142Y-40922614D02*
X204165714Y-40636900D01*
X204165714Y-40636900D02*
X204165714Y-40279757D01*
X204165714Y-40279757D02*
X204237142Y-39994042D01*
X204237142Y-39994042D02*
X204308571Y-39851185D01*
X204308571Y-39851185D02*
X204380000Y-39779757D01*
X204380000Y-39779757D02*
X204522857Y-39708328D01*
X205951428Y-39708328D02*
X206094285Y-39708328D01*
X206094285Y-39708328D02*
X206237142Y-39779757D01*
X206237142Y-39779757D02*
X206308571Y-39851185D01*
X206308571Y-39851185D02*
X206379999Y-39994042D01*
X206379999Y-39994042D02*
X206451428Y-40279757D01*
X206451428Y-40279757D02*
X206451428Y-40636900D01*
X206451428Y-40636900D02*
X206379999Y-40922614D01*
X206379999Y-40922614D02*
X206308571Y-41065471D01*
X206308571Y-41065471D02*
X206237142Y-41136900D01*
X206237142Y-41136900D02*
X206094285Y-41208328D01*
X206094285Y-41208328D02*
X205951428Y-41208328D01*
X205951428Y-41208328D02*
X205808571Y-41136900D01*
X205808571Y-41136900D02*
X205737142Y-41065471D01*
X205737142Y-41065471D02*
X205665713Y-40922614D01*
X205665713Y-40922614D02*
X205594285Y-40636900D01*
X205594285Y-40636900D02*
X205594285Y-40279757D01*
X205594285Y-40279757D02*
X205665713Y-39994042D01*
X205665713Y-39994042D02*
X205737142Y-39851185D01*
X205737142Y-39851185D02*
X205808571Y-39779757D01*
X205808571Y-39779757D02*
X205951428Y-39708328D01*
X208237141Y-41208328D02*
X208237141Y-40208328D01*
X208237141Y-40351185D02*
X208308570Y-40279757D01*
X208308570Y-40279757D02*
X208451427Y-40208328D01*
X208451427Y-40208328D02*
X208665713Y-40208328D01*
X208665713Y-40208328D02*
X208808570Y-40279757D01*
X208808570Y-40279757D02*
X208879999Y-40422614D01*
X208879999Y-40422614D02*
X208879999Y-41208328D01*
X208879999Y-40422614D02*
X208951427Y-40279757D01*
X208951427Y-40279757D02*
X209094284Y-40208328D01*
X209094284Y-40208328D02*
X209308570Y-40208328D01*
X209308570Y-40208328D02*
X209451427Y-40279757D01*
X209451427Y-40279757D02*
X209522856Y-40422614D01*
X209522856Y-40422614D02*
X209522856Y-41208328D01*
X210237141Y-41208328D02*
X210237141Y-40208328D01*
X210237141Y-40351185D02*
X210308570Y-40279757D01*
X210308570Y-40279757D02*
X210451427Y-40208328D01*
X210451427Y-40208328D02*
X210665713Y-40208328D01*
X210665713Y-40208328D02*
X210808570Y-40279757D01*
X210808570Y-40279757D02*
X210879999Y-40422614D01*
X210879999Y-40422614D02*
X210879999Y-41208328D01*
X210879999Y-40422614D02*
X210951427Y-40279757D01*
X210951427Y-40279757D02*
X211094284Y-40208328D01*
X211094284Y-40208328D02*
X211308570Y-40208328D01*
X211308570Y-40208328D02*
X211451427Y-40279757D01*
X211451427Y-40279757D02*
X211522856Y-40422614D01*
X211522856Y-40422614D02*
X211522856Y-41208328D01*
X201200000Y-51900000D02*
X201200000Y-42013580D01*
X209200000Y-42013580D02*
X209200000Y-51500000D01*
X201200000Y-42600000D02*
X209200000Y-42600000D01*
X201200000Y-42600000D02*
X202326504Y-42013579D01*
X201200000Y-42600000D02*
X202326504Y-43186421D01*
X209200000Y-42600000D02*
X208073496Y-43186421D01*
X209200000Y-42600000D02*
X208073496Y-42013579D01*
M02*
