M48
; DRILL file KiCad 10.0.3 date 2026-09-06T00:28:56
; FORMAT={-:-/ absolute / metric / decimal}
; #@! TF.CreationDate,2026-09-06T00:28:56-07:00
; #@! TF.GenerationSoftware,Kicad,Pcbnew,10.0.3
; #@! TF.FileFunction,MixedPlating,1,4
FMAT,2
METRIC
; #@! TA.AperFunction,Plated,PTH,ViaDrill
T1C0.254
; #@! TA.AperFunction,Plated,PTH,ComponentDrill
T2C0.254
; #@! TA.AperFunction,Plated,PTH,ViaDrill
T3C0.300
; #@! TA.AperFunction,Plated,PTH,ComponentDrill
T4C0.300
; #@! TA.AperFunction,Plated,PTH,ViaDrill
T5C0.400
; #@! TA.AperFunction,Plated,PTH,ComponentDrill
T6C0.400
; #@! TA.AperFunction,Plated,PTH,ComponentDrill
T7C0.500
; #@! TA.AperFunction,Plated,PTH,ComponentDrill
T8C0.700
; #@! TA.AperFunction,Plated,PTH,ComponentDrill
T9C0.890
; #@! TA.AperFunction,Plated,PTH,ComponentDrill
T10C1.000
; #@! TA.AperFunction,Plated,PTH,ComponentDrill
T11C1.300
; #@! TA.AperFunction,Plated,PTH,ComponentDrill
T12C2.010
; #@! TA.AperFunction,Plated,PTH,ComponentDrill
T13C3.500
%
G90
G05
T1
X115.951Y-73.442
X116.535Y-76.772
X117.27Y-76.772
X118.57Y-76.772
X119.17Y-76.772
X121.412Y-75.882
X122.09Y-77.59
X122.32Y-76.959
X122.326Y-78.245
X132.576Y-88.009
X132.714Y-114.803
X133.314Y-87.585
X133.314Y-116.03
X134.4Y-85.971
X134.425Y-117.82
X135.508Y-119.128
X135.579Y-84.594
X135.69Y-77.68
X136.429Y-69.279
X136.72Y-78.65
X136.845Y-83.371
X136.85Y-120.507
X137.976Y-121.889
X138.025Y-81.988
X138.201Y-69.281
X139.144Y-123.108
X139.314Y-80.585
X139.83Y-78.51
X140.13Y-77.7
X140.325Y-124.439
X140.422Y-78.871
X141.729Y-69.28
X141.835Y-91.65
X141.835Y-109.71
X141.87Y-110.9
X141.938Y-126.34
X142.56Y-93.06
X143.385Y-91.65
X143.385Y-109.71
X143.42Y-124.211
X143.43Y-110.9
X143.517Y-69.619
X143.662Y-126.34
X144.08Y-93.04
X144.736Y-69.28
X145.188Y-126.34
X146.498Y-69.28
X147.93Y-89.29
X147.94Y-95.87
X147.99Y-107.35
X148.0Y-77.81
X148.23Y-121.211
X148.23Y-122.711
X148.23Y-105.869
X148.23Y-115.711
X148.23Y-117.211
X148.89Y-93.24
X148.89Y-94.3
X148.9Y-111.27
X148.9Y-112.35
X148.909Y-63.824
X148.93Y-63.19
X149.064Y-61.72
X149.22Y-62.47
X149.93Y-68.6
X149.93Y-93.24
X149.93Y-94.3
X149.93Y-111.27
X149.93Y-112.35
X150.643Y-55.254
X150.79Y-63.18
X151.04Y-96.7
X151.065Y-78.65
X151.12Y-89.68
X151.206Y-119.496
X151.21Y-107.88
X151.22Y-120.27
X152.32Y-109.04
X152.37Y-90.98
X152.59Y-96.7
X152.61Y-78.66
X152.86Y-69.8
X152.86Y-65.85
X153.304Y-70.431
X153.445Y-108.09
X153.54Y-59.443
X153.63Y-55.254
X153.91Y-126.88
X154.28Y-89.18
X155.62Y-109.04
X155.67Y-90.98
X155.975Y-57.875
X156.75Y-64.625
X157.06Y-126.92
X157.35Y-57.85
X157.9Y-78.38
X157.93Y-96.47
X158.085Y-88.32
X158.085Y-106.38
X158.1Y-75.9
X159.05Y-57.862
X159.45Y-78.38
X159.48Y-96.47
X159.54Y-63.69
X159.635Y-88.32
X159.635Y-106.38
X159.85Y-57.862
X160.781Y-60.987
X160.83Y-93.24
X160.83Y-94.3
X160.83Y-111.27
X160.83Y-112.35
X161.08Y-89.25
X161.08Y-107.31
X161.42Y-68.61
X161.87Y-111.27
X161.87Y-112.35
X161.88Y-93.24
X161.88Y-94.3
X162.098Y-56.378
X162.15Y-59.36
X162.16Y-55.26
X162.28Y-63.17
X163.96Y-113.78
X164.36Y-69.8
X164.404Y-65.851
X164.5Y-126.135
X164.852Y-70.431
X165.14Y-55.254
X165.42Y-113.78
X165.61Y-111.27
X165.61Y-112.35
X165.63Y-93.24
X165.63Y-94.3
X166.66Y-93.24
X166.66Y-94.3
X166.67Y-111.27
X166.67Y-112.35
X167.65Y-57.812
X168.3Y-64.612
X168.635Y-116.84
X168.8Y-57.812
X169.55Y-75.9
X169.84Y-90.37
X169.84Y-91.83
X169.84Y-108.43
X169.84Y-109.89
X169.959Y-62.867
X170.36Y-116.84
X170.625Y-57.8
X171.375Y-57.8
X171.62Y-85.77
X171.62Y-103.83
X171.625Y-113.72
X171.729Y-85.16
X171.729Y-103.22
X172.28Y-60.9
X172.55Y-128.65
X172.8Y-90.37
X172.8Y-108.43
X172.9Y-63.95
X172.9Y-68.61
X173.0Y-93.24
X173.0Y-94.3
X173.0Y-111.27
X173.0Y-112.35
X173.53Y-56.43
X173.55Y-128.65
X173.621Y-55.254
X173.64Y-59.38
X174.04Y-93.24
X174.04Y-94.3
X174.04Y-111.27
X174.04Y-112.35
X174.23Y-116.205
X174.23Y-117.755
X175.84Y-69.8
X175.89Y-65.86
X176.306Y-70.431
X176.47Y-106.63
X176.51Y-88.57
X176.61Y-55.254
X177.0Y-89.82
X177.01Y-107.88
X177.56Y-84.7
X177.56Y-102.76
X177.8Y-93.24
X177.8Y-94.3
X177.8Y-111.27
X177.8Y-112.35
X178.83Y-93.24
X178.83Y-94.3
X178.84Y-111.27
X178.84Y-112.35
X178.975Y-57.812
X179.78Y-64.612
X180.472Y-57.809
X180.78Y-84.7
X180.78Y-102.76
X181.19Y-75.9
X182.075Y-57.809
X182.561Y-63.749
X182.825Y-57.809
X183.03Y-90.02
X183.04Y-108.07
X183.476Y-59.641
X184.38Y-61.04
X184.38Y-63.96
X184.38Y-68.61
X184.44Y-104.31
X184.44Y-106.81
X184.45Y-86.25
X184.45Y-88.75
X184.62Y-116.38
X184.63Y-117.14
X184.771Y-115.009
X184.81Y-114.12
X185.02Y-56.41
X185.039Y-59.477
X185.106Y-55.254
X185.15Y-93.24
X185.15Y-94.3
X185.15Y-111.27
X185.15Y-112.35
X185.23Y-58.16
X185.9Y-118.79
X185.9Y-121.29
X186.18Y-93.24
X186.18Y-94.3
X186.19Y-111.27
X186.19Y-112.35
X186.75Y-90.88
X186.75Y-108.94
X186.82Y-97.21
X187.04Y-126.41
X187.32Y-69.8
X187.339Y-65.851
X187.549Y-59.625
X187.858Y-70.431
X188.06Y-100.27
X188.13Y-79.2
X188.13Y-82.3
X188.21Y-95.775
X188.24Y-81.315
X188.25Y-99.375
X188.27Y-77.88
X188.29Y-58.95
X188.5Y-126.41
X188.67Y-59.45
X188.845Y-90.02
X188.845Y-108.08
X188.865Y-55.76
X189.229Y-62.85
X189.39Y-59.5
X189.516Y-63.716
X189.96Y-93.24
X189.96Y-94.3
X189.96Y-111.27
X189.96Y-112.35
X189.96Y-126.41
X190.45Y-57.825
X190.98Y-111.27
X190.98Y-112.35
X190.99Y-93.24
X190.99Y-94.3
X191.225Y-64.5
X191.42Y-126.41
X191.9Y-57.8
X192.69Y-75.9
X192.71Y-90.92
X192.72Y-108.94
X192.88Y-126.41
X193.525Y-57.775
X193.72Y-103.28
X193.78Y-106.9
X193.79Y-88.85
X193.836Y-85.29
X194.05Y-63.725
X194.247Y-92.816
X194.25Y-91.424
X194.34Y-86.9
X194.34Y-104.95
X194.34Y-126.41
X194.36Y-113.06
X194.375Y-57.775
X194.758Y-91.804
X194.762Y-92.439
X195.0Y-114.77
X195.268Y-91.424
X195.275Y-92.816
X198.791Y-97.472
X198.794Y-96.085
X199.308Y-97.099
X199.31Y-96.465
X199.823Y-96.087
X199.823Y-97.475
T2
X151.902Y-62.15
X151.902Y-63.15
X152.902Y-62.15
X152.902Y-63.15
X153.902Y-62.15
X153.902Y-63.15
X163.402Y-62.15
X163.402Y-63.15
X164.402Y-62.15
X164.402Y-63.15
X165.402Y-62.15
X165.402Y-63.15
X174.882Y-62.15
X174.882Y-63.15
X175.882Y-62.15
X175.882Y-63.15
X176.882Y-62.15
X176.882Y-63.15
X186.362Y-62.15
X186.362Y-63.15
X187.362Y-62.15
X187.362Y-63.15
X188.362Y-62.15
X188.362Y-63.15
T3
X132.62Y-106.835
X132.62Y-114.129
X132.634Y-88.687
X133.22Y-88.258
X133.22Y-106.384
X133.268Y-115.261
X133.77Y-86.976
X133.816Y-105.438
X133.839Y-116.703
X134.42Y-86.651
X134.42Y-105.035
X134.42Y-117.139
X135.005Y-85.66
X135.016Y-104.038
X135.058Y-118.07
X135.62Y-85.273
X135.62Y-103.635
X135.668Y-118.463
X136.076Y-119.502
X136.174Y-84.265
X136.216Y-102.638
X136.72Y-119.839
X136.82Y-102.235
X136.868Y-84.051
X137.42Y-108.92
X137.42Y-120.879
X137.44Y-101.319
X137.469Y-83.097
X138.02Y-100.881
X138.02Y-109.798
X138.065Y-121.214
X138.069Y-82.667
X138.586Y-122.19
X138.62Y-99.935
X138.62Y-110.35
X138.668Y-81.767
X139.22Y-81.258
X139.22Y-99.358
X139.22Y-111.338
X139.268Y-122.439
X139.727Y-123.459
X139.82Y-98.135
X139.82Y-111.89
X139.88Y-80.178
X140.387Y-79.551
X140.387Y-97.635
X140.387Y-112.86
X140.387Y-123.762
X140.939Y-124.734
X140.964Y-78.459
X140.982Y-96.635
X140.982Y-113.52
T4
X168.75Y-82.865
X168.75Y-83.835
X168.75Y-100.925
X168.75Y-101.895
X170.0Y-82.865
X170.0Y-83.835
X170.0Y-100.925
X170.0Y-101.895
X171.25Y-82.865
X171.25Y-83.835
X171.25Y-100.925
X171.25Y-101.895
T5
X136.17Y-75.84
X137.32Y-69.28
X141.47Y-75.84
X142.61Y-69.28
X143.42Y-115.711
X143.42Y-118.711
X143.42Y-121.211
X143.42Y-122.711
X143.42Y-117.211
X143.43Y-79.309
X143.43Y-80.809
X143.43Y-82.309
X143.43Y-86.309
X143.43Y-84.809
X143.43Y-87.809
X143.44Y-97.369
X143.44Y-98.869
X143.44Y-100.369
X143.44Y-104.369
X143.44Y-102.869
X143.44Y-105.869
X145.617Y-69.28
X146.23Y-75.84
X148.23Y-79.309
X148.23Y-82.309
X148.23Y-84.809
X148.23Y-97.369
X148.23Y-100.369
X148.23Y-102.869
X148.23Y-80.809
X148.23Y-86.309
X148.23Y-87.809
X148.23Y-98.869
X148.23Y-104.369
X148.23Y-118.711
X148.23Y-124.211
X148.91Y-55.76
X150.2Y-74.63
X152.08Y-71.96
X154.09Y-123.4
X154.48Y-115.84
X154.999Y-117.481
X155.03Y-119.243
X155.03Y-120.743
X155.325Y-65.075
X155.402Y-122.924
X155.94Y-71.96
X156.475Y-65.45
X157.75Y-65.475
X157.78Y-74.63
X158.09Y-80.425
X158.09Y-84.325
X158.11Y-98.49
X158.11Y-102.39
X158.43Y-117.06
X158.44Y-114.59
X159.43Y-114.58
X159.43Y-117.06
X159.77Y-126.72
X160.82Y-121.243
X160.82Y-118.743
X161.26Y-80.1
X161.35Y-124.493
X161.36Y-115.21
X161.39Y-126.61
X161.72Y-74.63
X161.76Y-98.33
X162.34Y-123.41
X163.09Y-115.49
X163.31Y-98.33
X163.33Y-80.29
X163.6Y-71.96
X164.49Y-104.68
X164.5Y-80.1
X164.51Y-86.62
X164.51Y-98.15
X166.875Y-65.075
X167.46Y-71.96
X168.05Y-65.45
X169.25Y-65.45
X169.3Y-74.63
X169.57Y-122.93
X173.138Y-80.2
X173.138Y-98.25
X173.17Y-74.63
X173.18Y-102.98
X173.23Y-84.94
X173.55Y-82.06
X173.55Y-100.12
X175.05Y-71.96
X178.35Y-65.075
X178.91Y-71.96
X179.525Y-65.5
X180.75Y-65.475
X180.75Y-74.63
X184.66Y-71.96
X186.5Y-74.63
X189.8Y-65.15
X190.36Y-74.63
X191.025Y-65.425
X192.225Y-65.475
X192.24Y-71.96
T6
X115.91Y-80.12
X140.08Y-125.91
X145.26Y-111.84
X146.02Y-93.78
X149.95Y-54.21
X154.73Y-77.66
X157.33Y-93.78
X157.33Y-111.84
X160.66Y-54.2
X164.51Y-97.09
X164.53Y-129.36
X164.6Y-78.94
X169.485Y-111.84
X170.01Y-93.78
X172.14Y-54.23
X180.107Y-130.35
X181.64Y-111.84
X181.89Y-93.81
X183.62Y-54.2
X184.36Y-75.27
X193.41Y-93.78
X193.41Y-111.84
X195.08Y-54.22
X197.03Y-82.84
X197.53Y-106.79
X203.49Y-127.15
T7
X114.575Y-57.0
X114.575Y-129.0
X115.344Y-55.144
X115.344Y-58.856
X115.344Y-127.144
X115.344Y-130.856
X117.2Y-54.375
X117.2Y-59.625
X117.2Y-126.375
X117.2Y-131.625
X119.056Y-55.144
X119.056Y-58.856
X119.056Y-127.144
X119.056Y-130.856
X119.825Y-57.0
X119.825Y-129.0
X206.575Y-57.0
X206.575Y-129.0
X207.344Y-55.144
X207.344Y-58.856
X207.344Y-127.144
X207.344Y-130.856
X209.2Y-54.375
X209.2Y-59.625
X209.2Y-126.375
X209.2Y-131.625
X211.056Y-55.144
X211.056Y-58.856
X211.056Y-127.144
X211.056Y-130.856
X211.825Y-57.0
X211.825Y-129.0
T8
X180.39Y-77.98
X180.39Y-96.04
X185.47Y-77.98
X185.47Y-96.04
T9
X201.2Y-65.96
X201.2Y-68.5
X201.2Y-71.04
X201.2Y-84.96
X201.2Y-87.5
X201.2Y-90.04
X201.2Y-114.96
X201.2Y-117.5
X201.2Y-120.04
T10
X117.2Y-96.14
X117.2Y-98.68
X117.2Y-101.22
X117.2Y-103.76
X117.2Y-106.3
X117.2Y-108.84
X117.2Y-111.38
X117.2Y-113.92
X117.2Y-116.46
X117.2Y-119.0
X119.74Y-96.14
X119.74Y-98.68
X119.74Y-101.22
X119.74Y-103.76
X119.74Y-106.3
X119.74Y-108.84
X119.74Y-111.38
X119.74Y-113.92
X119.74Y-116.46
X119.74Y-119.0
X127.36Y-60.58
X127.36Y-63.12
X127.36Y-65.66
X127.36Y-68.2
X127.36Y-70.74
X127.36Y-73.28
X127.36Y-75.82
X127.36Y-78.36
X127.36Y-80.9
X127.36Y-83.44
X127.36Y-96.14
X127.36Y-98.68
X127.36Y-101.22
X127.36Y-103.76
X127.36Y-106.3
X127.36Y-108.84
X127.36Y-111.38
X127.36Y-113.92
X127.36Y-116.46
X127.36Y-119.0
X129.9Y-60.58
X129.9Y-63.12
X129.9Y-65.66
X129.9Y-68.2
X129.9Y-70.74
X129.9Y-73.28
X129.9Y-75.82
X129.9Y-78.36
X129.9Y-80.9
X129.9Y-83.44
X129.9Y-96.14
X129.9Y-98.68
X129.9Y-101.22
X129.9Y-103.76
X129.9Y-106.3
X129.9Y-108.84
X129.9Y-111.38
X129.9Y-113.92
X129.9Y-116.46
X129.9Y-119.0
T11
X139.5Y-60.5
X140.125Y-62.45
X142.275Y-62.45
X142.9Y-60.5
X203.75Y-101.425
X203.75Y-103.575
X205.7Y-100.8
X205.7Y-104.2
T12
X206.28Y-63.42
X206.28Y-73.58
X206.28Y-82.42
X206.28Y-92.58
X206.28Y-112.42
X206.28Y-122.58
T13
X117.2Y-57.0
X117.2Y-129.0
X209.2Y-57.0
X209.2Y-129.0
T10
X134.95Y-62.0G85X134.95Y-60.0
G05
X147.45Y-62.0G85X147.45Y-60.0
G05
X204.2Y-96.25G85X206.2Y-96.25
G05
X204.2Y-108.75G85X206.2Y-108.75
G05
M30
