%TF.GenerationSoftware,KiCad,Pcbnew,10.0.3*%
%TF.CreationDate,2026-09-06T00:29:23-07:00*%
%TF.ProjectId,OBI Data Interconnect,4f424920-4461-4746-9120-496e74657263,rev?*%
%TF.SameCoordinates,Original*%
%TF.FileFunction,AssemblyDrawing,Bot*%
%FSLAX46Y46*%
G04 Gerber Fmt 4.6, Leading zero omitted, Abs format (unit mm)*
G04 Created by KiCad (PCBNEW 10.0.3) date 2026-09-06 00:29:23*
%MOMM*%
%LPD*%
G01*
G04 APERTURE LIST*
%ADD10C,0.200000*%
%ADD11C,0.150000*%
%ADD12C,0.300000*%
%ADD13C,0.060000*%
%ADD14C,0.120000*%
%ADD15C,0.100000*%
%ADD16C,0.025400*%
G04 APERTURE END LIST*
D10*
X131050000Y-83600000D02*
X141650000Y-83600000D01*
X131050000Y-99200000D02*
X131050000Y-83600000D01*
D11*
X152073808Y-85292800D02*
X152216665Y-85245180D01*
X152216665Y-85245180D02*
X152454760Y-85245180D01*
X152454760Y-85245180D02*
X152549998Y-85292800D01*
X152549998Y-85292800D02*
X152597617Y-85340419D01*
X152597617Y-85340419D02*
X152645236Y-85435657D01*
X152645236Y-85435657D02*
X152645236Y-85530895D01*
X152645236Y-85530895D02*
X152597617Y-85626133D01*
X152597617Y-85626133D02*
X152549998Y-85673752D01*
X152549998Y-85673752D02*
X152454760Y-85721371D01*
X152454760Y-85721371D02*
X152264284Y-85768990D01*
X152264284Y-85768990D02*
X152169046Y-85816609D01*
X152169046Y-85816609D02*
X152121427Y-85864228D01*
X152121427Y-85864228D02*
X152073808Y-85959466D01*
X152073808Y-85959466D02*
X152073808Y-86054704D01*
X152073808Y-86054704D02*
X152121427Y-86149942D01*
X152121427Y-86149942D02*
X152169046Y-86197561D01*
X152169046Y-86197561D02*
X152264284Y-86245180D01*
X152264284Y-86245180D02*
X152502379Y-86245180D01*
X152502379Y-86245180D02*
X152645236Y-86197561D01*
X153216665Y-85245180D02*
X153121427Y-85292800D01*
X153121427Y-85292800D02*
X153073808Y-85340419D01*
X153073808Y-85340419D02*
X153026189Y-85435657D01*
X153026189Y-85435657D02*
X153026189Y-85721371D01*
X153026189Y-85721371D02*
X153073808Y-85816609D01*
X153073808Y-85816609D02*
X153121427Y-85864228D01*
X153121427Y-85864228D02*
X153216665Y-85911847D01*
X153216665Y-85911847D02*
X153359522Y-85911847D01*
X153359522Y-85911847D02*
X153454760Y-85864228D01*
X153454760Y-85864228D02*
X153502379Y-85816609D01*
X153502379Y-85816609D02*
X153549998Y-85721371D01*
X153549998Y-85721371D02*
X153549998Y-85435657D01*
X153549998Y-85435657D02*
X153502379Y-85340419D01*
X153502379Y-85340419D02*
X153454760Y-85292800D01*
X153454760Y-85292800D02*
X153359522Y-85245180D01*
X153359522Y-85245180D02*
X153216665Y-85245180D01*
X154121427Y-85245180D02*
X154026189Y-85292800D01*
X154026189Y-85292800D02*
X153978570Y-85388038D01*
X153978570Y-85388038D02*
X153978570Y-86245180D01*
X154930951Y-85245180D02*
X154930951Y-86245180D01*
X154930951Y-85292800D02*
X154835713Y-85245180D01*
X154835713Y-85245180D02*
X154645237Y-85245180D01*
X154645237Y-85245180D02*
X154549999Y-85292800D01*
X154549999Y-85292800D02*
X154502380Y-85340419D01*
X154502380Y-85340419D02*
X154454761Y-85435657D01*
X154454761Y-85435657D02*
X154454761Y-85721371D01*
X154454761Y-85721371D02*
X154502380Y-85816609D01*
X154502380Y-85816609D02*
X154549999Y-85864228D01*
X154549999Y-85864228D02*
X154645237Y-85911847D01*
X154645237Y-85911847D02*
X154835713Y-85911847D01*
X154835713Y-85911847D02*
X154930951Y-85864228D01*
X155788094Y-85292800D02*
X155692856Y-85245180D01*
X155692856Y-85245180D02*
X155502380Y-85245180D01*
X155502380Y-85245180D02*
X155407142Y-85292800D01*
X155407142Y-85292800D02*
X155359523Y-85388038D01*
X155359523Y-85388038D02*
X155359523Y-85768990D01*
X155359523Y-85768990D02*
X155407142Y-85864228D01*
X155407142Y-85864228D02*
X155502380Y-85911847D01*
X155502380Y-85911847D02*
X155692856Y-85911847D01*
X155692856Y-85911847D02*
X155788094Y-85864228D01*
X155788094Y-85864228D02*
X155835713Y-85768990D01*
X155835713Y-85768990D02*
X155835713Y-85673752D01*
X155835713Y-85673752D02*
X155359523Y-85578514D01*
X156264285Y-85245180D02*
X156264285Y-85911847D01*
X156264285Y-85721371D02*
X156311904Y-85816609D01*
X156311904Y-85816609D02*
X156359523Y-85864228D01*
X156359523Y-85864228D02*
X156454761Y-85911847D01*
X156454761Y-85911847D02*
X156549999Y-85911847D01*
X157169047Y-86245180D02*
X157169047Y-85530895D01*
X157169047Y-85530895D02*
X157121428Y-85388038D01*
X157121428Y-85388038D02*
X157026190Y-85292800D01*
X157026190Y-85292800D02*
X156883333Y-85245180D01*
X156883333Y-85245180D02*
X156788095Y-85245180D01*
X158073809Y-85911847D02*
X158073809Y-85245180D01*
X157645238Y-85911847D02*
X157645238Y-85388038D01*
X157645238Y-85388038D02*
X157692857Y-85292800D01*
X157692857Y-85292800D02*
X157788095Y-85245180D01*
X157788095Y-85245180D02*
X157930952Y-85245180D01*
X157930952Y-85245180D02*
X158026190Y-85292800D01*
X158026190Y-85292800D02*
X158073809Y-85340419D01*
X158550000Y-85245180D02*
X158550000Y-85911847D01*
X158550000Y-85816609D02*
X158597619Y-85864228D01*
X158597619Y-85864228D02*
X158692857Y-85911847D01*
X158692857Y-85911847D02*
X158835714Y-85911847D01*
X158835714Y-85911847D02*
X158930952Y-85864228D01*
X158930952Y-85864228D02*
X158978571Y-85768990D01*
X158978571Y-85768990D02*
X158978571Y-85245180D01*
X158978571Y-85768990D02*
X159026190Y-85864228D01*
X159026190Y-85864228D02*
X159121428Y-85911847D01*
X159121428Y-85911847D02*
X159264285Y-85911847D01*
X159264285Y-85911847D02*
X159359524Y-85864228D01*
X159359524Y-85864228D02*
X159407143Y-85768990D01*
X159407143Y-85768990D02*
X159407143Y-85245180D01*
X159883333Y-85911847D02*
X159883333Y-84911847D01*
X159883333Y-85864228D02*
X159978571Y-85911847D01*
X159978571Y-85911847D02*
X160169047Y-85911847D01*
X160169047Y-85911847D02*
X160264285Y-85864228D01*
X160264285Y-85864228D02*
X160311904Y-85816609D01*
X160311904Y-85816609D02*
X160359523Y-85721371D01*
X160359523Y-85721371D02*
X160359523Y-85435657D01*
X160359523Y-85435657D02*
X160311904Y-85340419D01*
X160311904Y-85340419D02*
X160264285Y-85292800D01*
X160264285Y-85292800D02*
X160169047Y-85245180D01*
X160169047Y-85245180D02*
X159978571Y-85245180D01*
X159978571Y-85245180D02*
X159883333Y-85292800D01*
X161169047Y-85292800D02*
X161073809Y-85245180D01*
X161073809Y-85245180D02*
X160883333Y-85245180D01*
X160883333Y-85245180D02*
X160788095Y-85292800D01*
X160788095Y-85292800D02*
X160740476Y-85388038D01*
X160740476Y-85388038D02*
X160740476Y-85768990D01*
X160740476Y-85768990D02*
X160788095Y-85864228D01*
X160788095Y-85864228D02*
X160883333Y-85911847D01*
X160883333Y-85911847D02*
X161073809Y-85911847D01*
X161073809Y-85911847D02*
X161169047Y-85864228D01*
X161169047Y-85864228D02*
X161216666Y-85768990D01*
X161216666Y-85768990D02*
X161216666Y-85673752D01*
X161216666Y-85673752D02*
X160740476Y-85578514D01*
X161645238Y-85245180D02*
X161645238Y-85911847D01*
X161645238Y-85721371D02*
X161692857Y-85816609D01*
X161692857Y-85816609D02*
X161740476Y-85864228D01*
X161740476Y-85864228D02*
X161835714Y-85911847D01*
X161835714Y-85911847D02*
X161930952Y-85911847D01*
X162026191Y-85149942D02*
X162788095Y-85149942D01*
X162978572Y-86149942D02*
X163026191Y-86197561D01*
X163026191Y-86197561D02*
X163121429Y-86245180D01*
X163121429Y-86245180D02*
X163359524Y-86245180D01*
X163359524Y-86245180D02*
X163454762Y-86197561D01*
X163454762Y-86197561D02*
X163502381Y-86149942D01*
X163502381Y-86149942D02*
X163550000Y-86054704D01*
X163550000Y-86054704D02*
X163550000Y-85959466D01*
X163550000Y-85959466D02*
X163502381Y-85816609D01*
X163502381Y-85816609D02*
X162930953Y-85245180D01*
X162930953Y-85245180D02*
X163550000Y-85245180D01*
X163740477Y-85149942D02*
X164502381Y-85149942D01*
X164930953Y-86245180D02*
X165121429Y-86245180D01*
X165121429Y-86245180D02*
X165216667Y-86197561D01*
X165216667Y-86197561D02*
X165311905Y-86102323D01*
X165311905Y-86102323D02*
X165359524Y-85911847D01*
X165359524Y-85911847D02*
X165359524Y-85578514D01*
X165359524Y-85578514D02*
X165311905Y-85388038D01*
X165311905Y-85388038D02*
X165216667Y-85292800D01*
X165216667Y-85292800D02*
X165121429Y-85245180D01*
X165121429Y-85245180D02*
X164930953Y-85245180D01*
X164930953Y-85245180D02*
X164835715Y-85292800D01*
X164835715Y-85292800D02*
X164740477Y-85388038D01*
X164740477Y-85388038D02*
X164692858Y-85578514D01*
X164692858Y-85578514D02*
X164692858Y-85911847D01*
X164692858Y-85911847D02*
X164740477Y-86102323D01*
X164740477Y-86102323D02*
X164835715Y-86197561D01*
X164835715Y-86197561D02*
X164930953Y-86245180D01*
X165788096Y-85911847D02*
X165788096Y-84911847D01*
X165788096Y-85864228D02*
X165883334Y-85911847D01*
X165883334Y-85911847D02*
X166073810Y-85911847D01*
X166073810Y-85911847D02*
X166169048Y-85864228D01*
X166169048Y-85864228D02*
X166216667Y-85816609D01*
X166216667Y-85816609D02*
X166264286Y-85721371D01*
X166264286Y-85721371D02*
X166264286Y-85435657D01*
X166264286Y-85435657D02*
X166216667Y-85340419D01*
X166216667Y-85340419D02*
X166169048Y-85292800D01*
X166169048Y-85292800D02*
X166073810Y-85245180D01*
X166073810Y-85245180D02*
X165883334Y-85245180D01*
X165883334Y-85245180D02*
X165788096Y-85292800D01*
X167073810Y-85292800D02*
X166978572Y-85245180D01*
X166978572Y-85245180D02*
X166788096Y-85245180D01*
X166788096Y-85245180D02*
X166692858Y-85292800D01*
X166692858Y-85292800D02*
X166645239Y-85388038D01*
X166645239Y-85388038D02*
X166645239Y-85768990D01*
X166645239Y-85768990D02*
X166692858Y-85864228D01*
X166692858Y-85864228D02*
X166788096Y-85911847D01*
X166788096Y-85911847D02*
X166978572Y-85911847D01*
X166978572Y-85911847D02*
X167073810Y-85864228D01*
X167073810Y-85864228D02*
X167121429Y-85768990D01*
X167121429Y-85768990D02*
X167121429Y-85673752D01*
X167121429Y-85673752D02*
X166645239Y-85578514D01*
X167550001Y-85911847D02*
X167550001Y-85245180D01*
X167550001Y-85816609D02*
X167597620Y-85864228D01*
X167597620Y-85864228D02*
X167692858Y-85911847D01*
X167692858Y-85911847D02*
X167835715Y-85911847D01*
X167835715Y-85911847D02*
X167930953Y-85864228D01*
X167930953Y-85864228D02*
X167978572Y-85768990D01*
X167978572Y-85768990D02*
X167978572Y-85245180D01*
D12*
X144071671Y-112714285D02*
X142571671Y-112357142D01*
X142571671Y-112357142D02*
X143643100Y-112071428D01*
X143643100Y-112071428D02*
X142571671Y-111785713D01*
X142571671Y-111785713D02*
X144071671Y-111428571D01*
X142571671Y-110214285D02*
X143357385Y-110214285D01*
X143357385Y-110214285D02*
X143500242Y-110285713D01*
X143500242Y-110285713D02*
X143571671Y-110428570D01*
X143571671Y-110428570D02*
X143571671Y-110714285D01*
X143571671Y-110714285D02*
X143500242Y-110857142D01*
X142643100Y-110214285D02*
X142571671Y-110357142D01*
X142571671Y-110357142D02*
X142571671Y-110714285D01*
X142571671Y-110714285D02*
X142643100Y-110857142D01*
X142643100Y-110857142D02*
X142785957Y-110928570D01*
X142785957Y-110928570D02*
X142928814Y-110928570D01*
X142928814Y-110928570D02*
X143071671Y-110857142D01*
X143071671Y-110857142D02*
X143143100Y-110714285D01*
X143143100Y-110714285D02*
X143143100Y-110357142D01*
X143143100Y-110357142D02*
X143214528Y-110214285D01*
X143571671Y-109642856D02*
X142571671Y-109285713D01*
X142571671Y-109285713D02*
X143571671Y-108928570D01*
X142643100Y-107785713D02*
X142571671Y-107928570D01*
X142571671Y-107928570D02*
X142571671Y-108214285D01*
X142571671Y-108214285D02*
X142643100Y-108357142D01*
X142643100Y-108357142D02*
X142785957Y-108428570D01*
X142785957Y-108428570D02*
X143357385Y-108428570D01*
X143357385Y-108428570D02*
X143500242Y-108357142D01*
X143500242Y-108357142D02*
X143571671Y-108214285D01*
X143571671Y-108214285D02*
X143571671Y-107928570D01*
X143571671Y-107928570D02*
X143500242Y-107785713D01*
X143500242Y-107785713D02*
X143357385Y-107714285D01*
X143357385Y-107714285D02*
X143214528Y-107714285D01*
X143214528Y-107714285D02*
X143071671Y-108428570D01*
X142643100Y-105999999D02*
X142571671Y-105857142D01*
X142571671Y-105857142D02*
X142571671Y-105571428D01*
X142571671Y-105571428D02*
X142643100Y-105428571D01*
X142643100Y-105428571D02*
X142785957Y-105357142D01*
X142785957Y-105357142D02*
X142857385Y-105357142D01*
X142857385Y-105357142D02*
X143000242Y-105428571D01*
X143000242Y-105428571D02*
X143071671Y-105571428D01*
X143071671Y-105571428D02*
X143071671Y-105785714D01*
X143071671Y-105785714D02*
X143143100Y-105928571D01*
X143143100Y-105928571D02*
X143285957Y-105999999D01*
X143285957Y-105999999D02*
X143357385Y-105999999D01*
X143357385Y-105999999D02*
X143500242Y-105928571D01*
X143500242Y-105928571D02*
X143571671Y-105785714D01*
X143571671Y-105785714D02*
X143571671Y-105571428D01*
X143571671Y-105571428D02*
X143500242Y-105428571D01*
X142571671Y-104499999D02*
X142643100Y-104642856D01*
X142643100Y-104642856D02*
X142714528Y-104714285D01*
X142714528Y-104714285D02*
X142857385Y-104785713D01*
X142857385Y-104785713D02*
X143285957Y-104785713D01*
X143285957Y-104785713D02*
X143428814Y-104714285D01*
X143428814Y-104714285D02*
X143500242Y-104642856D01*
X143500242Y-104642856D02*
X143571671Y-104499999D01*
X143571671Y-104499999D02*
X143571671Y-104285713D01*
X143571671Y-104285713D02*
X143500242Y-104142856D01*
X143500242Y-104142856D02*
X143428814Y-104071428D01*
X143428814Y-104071428D02*
X143285957Y-103999999D01*
X143285957Y-103999999D02*
X142857385Y-103999999D01*
X142857385Y-103999999D02*
X142714528Y-104071428D01*
X142714528Y-104071428D02*
X142643100Y-104142856D01*
X142643100Y-104142856D02*
X142571671Y-104285713D01*
X142571671Y-104285713D02*
X142571671Y-104499999D01*
X142571671Y-103142856D02*
X142643100Y-103285713D01*
X142643100Y-103285713D02*
X142785957Y-103357142D01*
X142785957Y-103357142D02*
X144071671Y-103357142D01*
X142571671Y-101928571D02*
X144071671Y-101928571D01*
X142643100Y-101928571D02*
X142571671Y-102071428D01*
X142571671Y-102071428D02*
X142571671Y-102357142D01*
X142571671Y-102357142D02*
X142643100Y-102499999D01*
X142643100Y-102499999D02*
X142714528Y-102571428D01*
X142714528Y-102571428D02*
X142857385Y-102642856D01*
X142857385Y-102642856D02*
X143285957Y-102642856D01*
X143285957Y-102642856D02*
X143428814Y-102571428D01*
X143428814Y-102571428D02*
X143500242Y-102499999D01*
X143500242Y-102499999D02*
X143571671Y-102357142D01*
X143571671Y-102357142D02*
X143571671Y-102071428D01*
X143571671Y-102071428D02*
X143500242Y-101928571D01*
X142643100Y-100642856D02*
X142571671Y-100785713D01*
X142571671Y-100785713D02*
X142571671Y-101071428D01*
X142571671Y-101071428D02*
X142643100Y-101214285D01*
X142643100Y-101214285D02*
X142785957Y-101285713D01*
X142785957Y-101285713D02*
X143357385Y-101285713D01*
X143357385Y-101285713D02*
X143500242Y-101214285D01*
X143500242Y-101214285D02*
X143571671Y-101071428D01*
X143571671Y-101071428D02*
X143571671Y-100785713D01*
X143571671Y-100785713D02*
X143500242Y-100642856D01*
X143500242Y-100642856D02*
X143357385Y-100571428D01*
X143357385Y-100571428D02*
X143214528Y-100571428D01*
X143214528Y-100571428D02*
X143071671Y-101285713D01*
X142571671Y-99928571D02*
X143571671Y-99928571D01*
X143285957Y-99928571D02*
X143428814Y-99857142D01*
X143428814Y-99857142D02*
X143500242Y-99785714D01*
X143500242Y-99785714D02*
X143571671Y-99642856D01*
X143571671Y-99642856D02*
X143571671Y-99499999D01*
X142571671Y-99000000D02*
X143571671Y-99000000D01*
X144071671Y-99000000D02*
X144000242Y-99071428D01*
X144000242Y-99071428D02*
X143928814Y-99000000D01*
X143928814Y-99000000D02*
X144000242Y-98928571D01*
X144000242Y-98928571D02*
X144071671Y-99000000D01*
X144071671Y-99000000D02*
X143928814Y-99000000D01*
X143571671Y-98285714D02*
X142571671Y-98285714D01*
X143428814Y-98285714D02*
X143500242Y-98214285D01*
X143500242Y-98214285D02*
X143571671Y-98071428D01*
X143571671Y-98071428D02*
X143571671Y-97857142D01*
X143571671Y-97857142D02*
X143500242Y-97714285D01*
X143500242Y-97714285D02*
X143357385Y-97642857D01*
X143357385Y-97642857D02*
X142571671Y-97642857D01*
X143571671Y-96285714D02*
X142357385Y-96285714D01*
X142357385Y-96285714D02*
X142214528Y-96357142D01*
X142214528Y-96357142D02*
X142143100Y-96428571D01*
X142143100Y-96428571D02*
X142071671Y-96571428D01*
X142071671Y-96571428D02*
X142071671Y-96785714D01*
X142071671Y-96785714D02*
X142143100Y-96928571D01*
X142643100Y-96285714D02*
X142571671Y-96428571D01*
X142571671Y-96428571D02*
X142571671Y-96714285D01*
X142571671Y-96714285D02*
X142643100Y-96857142D01*
X142643100Y-96857142D02*
X142714528Y-96928571D01*
X142714528Y-96928571D02*
X142857385Y-96999999D01*
X142857385Y-96999999D02*
X143285957Y-96999999D01*
X143285957Y-96999999D02*
X143428814Y-96928571D01*
X143428814Y-96928571D02*
X143500242Y-96857142D01*
X143500242Y-96857142D02*
X143571671Y-96714285D01*
X143571671Y-96714285D02*
X143571671Y-96428571D01*
X143571671Y-96428571D02*
X143500242Y-96285714D01*
X142571671Y-94428571D02*
X144071671Y-94428571D01*
X143143100Y-94285714D02*
X142571671Y-93857142D01*
X143571671Y-93857142D02*
X143000242Y-94428571D01*
X142643100Y-92642856D02*
X142571671Y-92785713D01*
X142571671Y-92785713D02*
X142571671Y-93071428D01*
X142571671Y-93071428D02*
X142643100Y-93214285D01*
X142643100Y-93214285D02*
X142785957Y-93285713D01*
X142785957Y-93285713D02*
X143357385Y-93285713D01*
X143357385Y-93285713D02*
X143500242Y-93214285D01*
X143500242Y-93214285D02*
X143571671Y-93071428D01*
X143571671Y-93071428D02*
X143571671Y-92785713D01*
X143571671Y-92785713D02*
X143500242Y-92642856D01*
X143500242Y-92642856D02*
X143357385Y-92571428D01*
X143357385Y-92571428D02*
X143214528Y-92571428D01*
X143214528Y-92571428D02*
X143071671Y-93285713D01*
X142643100Y-91357142D02*
X142571671Y-91499999D01*
X142571671Y-91499999D02*
X142571671Y-91785714D01*
X142571671Y-91785714D02*
X142643100Y-91928571D01*
X142643100Y-91928571D02*
X142785957Y-91999999D01*
X142785957Y-91999999D02*
X143357385Y-91999999D01*
X143357385Y-91999999D02*
X143500242Y-91928571D01*
X143500242Y-91928571D02*
X143571671Y-91785714D01*
X143571671Y-91785714D02*
X143571671Y-91499999D01*
X143571671Y-91499999D02*
X143500242Y-91357142D01*
X143500242Y-91357142D02*
X143357385Y-91285714D01*
X143357385Y-91285714D02*
X143214528Y-91285714D01*
X143214528Y-91285714D02*
X143071671Y-91999999D01*
X143571671Y-90642857D02*
X142071671Y-90642857D01*
X143500242Y-90642857D02*
X143571671Y-90500000D01*
X143571671Y-90500000D02*
X143571671Y-90214285D01*
X143571671Y-90214285D02*
X143500242Y-90071428D01*
X143500242Y-90071428D02*
X143428814Y-90000000D01*
X143428814Y-90000000D02*
X143285957Y-89928571D01*
X143285957Y-89928571D02*
X142857385Y-89928571D01*
X142857385Y-89928571D02*
X142714528Y-90000000D01*
X142714528Y-90000000D02*
X142643100Y-90071428D01*
X142643100Y-90071428D02*
X142571671Y-90214285D01*
X142571671Y-90214285D02*
X142571671Y-90500000D01*
X142571671Y-90500000D02*
X142643100Y-90642857D01*
X142571671Y-89071428D02*
X142643100Y-89214285D01*
X142643100Y-89214285D02*
X142714528Y-89285714D01*
X142714528Y-89285714D02*
X142857385Y-89357142D01*
X142857385Y-89357142D02*
X143285957Y-89357142D01*
X143285957Y-89357142D02*
X143428814Y-89285714D01*
X143428814Y-89285714D02*
X143500242Y-89214285D01*
X143500242Y-89214285D02*
X143571671Y-89071428D01*
X143571671Y-89071428D02*
X143571671Y-88857142D01*
X143571671Y-88857142D02*
X143500242Y-88714285D01*
X143500242Y-88714285D02*
X143428814Y-88642857D01*
X143428814Y-88642857D02*
X143285957Y-88571428D01*
X143285957Y-88571428D02*
X142857385Y-88571428D01*
X142857385Y-88571428D02*
X142714528Y-88642857D01*
X142714528Y-88642857D02*
X142643100Y-88714285D01*
X142643100Y-88714285D02*
X142571671Y-88857142D01*
X142571671Y-88857142D02*
X142571671Y-89071428D01*
X143571671Y-87285714D02*
X142571671Y-87285714D01*
X143571671Y-87928571D02*
X142785957Y-87928571D01*
X142785957Y-87928571D02*
X142643100Y-87857142D01*
X142643100Y-87857142D02*
X142571671Y-87714285D01*
X142571671Y-87714285D02*
X142571671Y-87499999D01*
X142571671Y-87499999D02*
X142643100Y-87357142D01*
X142643100Y-87357142D02*
X142714528Y-87285714D01*
X143571671Y-86785713D02*
X143571671Y-86214285D01*
X144071671Y-86571428D02*
X142785957Y-86571428D01*
X142785957Y-86571428D02*
X142643100Y-86499999D01*
X142643100Y-86499999D02*
X142571671Y-86357142D01*
X142571671Y-86357142D02*
X142571671Y-86214285D01*
D11*
X142370476Y-56814819D02*
X142703809Y-56338628D01*
X142941904Y-56814819D02*
X142941904Y-55814819D01*
X142941904Y-55814819D02*
X142560952Y-55814819D01*
X142560952Y-55814819D02*
X142465714Y-55862438D01*
X142465714Y-55862438D02*
X142418095Y-55910057D01*
X142418095Y-55910057D02*
X142370476Y-56005295D01*
X142370476Y-56005295D02*
X142370476Y-56148152D01*
X142370476Y-56148152D02*
X142418095Y-56243390D01*
X142418095Y-56243390D02*
X142465714Y-56291009D01*
X142465714Y-56291009D02*
X142560952Y-56338628D01*
X142560952Y-56338628D02*
X142941904Y-56338628D01*
D13*
X142746666Y-57971927D02*
X142879999Y-57781451D01*
X142975237Y-57971927D02*
X142975237Y-57571927D01*
X142975237Y-57571927D02*
X142822856Y-57571927D01*
X142822856Y-57571927D02*
X142784761Y-57590975D01*
X142784761Y-57590975D02*
X142765714Y-57610022D01*
X142765714Y-57610022D02*
X142746666Y-57648118D01*
X142746666Y-57648118D02*
X142746666Y-57705260D01*
X142746666Y-57705260D02*
X142765714Y-57743356D01*
X142765714Y-57743356D02*
X142784761Y-57762403D01*
X142784761Y-57762403D02*
X142822856Y-57781451D01*
X142822856Y-57781451D02*
X142975237Y-57781451D01*
X142365714Y-57971927D02*
X142594285Y-57971927D01*
X142479999Y-57971927D02*
X142479999Y-57571927D01*
X142479999Y-57571927D02*
X142518095Y-57629070D01*
X142518095Y-57629070D02*
X142556190Y-57667165D01*
X142556190Y-57667165D02*
X142594285Y-57686213D01*
D11*
X158559524Y-65194819D02*
X158892857Y-64718628D01*
X159130952Y-65194819D02*
X159130952Y-64194819D01*
X159130952Y-64194819D02*
X158750000Y-64194819D01*
X158750000Y-64194819D02*
X158654762Y-64242438D01*
X158654762Y-64242438D02*
X158607143Y-64290057D01*
X158607143Y-64290057D02*
X158559524Y-64385295D01*
X158559524Y-64385295D02*
X158559524Y-64528152D01*
X158559524Y-64528152D02*
X158607143Y-64623390D01*
X158607143Y-64623390D02*
X158654762Y-64671009D01*
X158654762Y-64671009D02*
X158750000Y-64718628D01*
X158750000Y-64718628D02*
X159130952Y-64718628D01*
X158369048Y-65290057D02*
X157607143Y-65290057D01*
X157369047Y-65194819D02*
X157369047Y-64194819D01*
X157369047Y-64194819D02*
X156988095Y-64194819D01*
X156988095Y-64194819D02*
X156892857Y-64242438D01*
X156892857Y-64242438D02*
X156845238Y-64290057D01*
X156845238Y-64290057D02*
X156797619Y-64385295D01*
X156797619Y-64385295D02*
X156797619Y-64528152D01*
X156797619Y-64528152D02*
X156845238Y-64623390D01*
X156845238Y-64623390D02*
X156892857Y-64671009D01*
X156892857Y-64671009D02*
X156988095Y-64718628D01*
X156988095Y-64718628D02*
X157369047Y-64718628D01*
X155940476Y-65194819D02*
X155940476Y-64671009D01*
X155940476Y-64671009D02*
X155988095Y-64575771D01*
X155988095Y-64575771D02*
X156083333Y-64528152D01*
X156083333Y-64528152D02*
X156273809Y-64528152D01*
X156273809Y-64528152D02*
X156369047Y-64575771D01*
X155940476Y-65147200D02*
X156035714Y-65194819D01*
X156035714Y-65194819D02*
X156273809Y-65194819D01*
X156273809Y-65194819D02*
X156369047Y-65147200D01*
X156369047Y-65147200D02*
X156416666Y-65051961D01*
X156416666Y-65051961D02*
X156416666Y-64956723D01*
X156416666Y-64956723D02*
X156369047Y-64861485D01*
X156369047Y-64861485D02*
X156273809Y-64813866D01*
X156273809Y-64813866D02*
X156035714Y-64813866D01*
X156035714Y-64813866D02*
X155940476Y-64766247D01*
X155035714Y-65147200D02*
X155130952Y-65194819D01*
X155130952Y-65194819D02*
X155321428Y-65194819D01*
X155321428Y-65194819D02*
X155416666Y-65147200D01*
X155416666Y-65147200D02*
X155464285Y-65099580D01*
X155464285Y-65099580D02*
X155511904Y-65004342D01*
X155511904Y-65004342D02*
X155511904Y-64718628D01*
X155511904Y-64718628D02*
X155464285Y-64623390D01*
X155464285Y-64623390D02*
X155416666Y-64575771D01*
X155416666Y-64575771D02*
X155321428Y-64528152D01*
X155321428Y-64528152D02*
X155130952Y-64528152D01*
X155130952Y-64528152D02*
X155035714Y-64575771D01*
X154607142Y-65194819D02*
X154607142Y-64194819D01*
X154511904Y-64813866D02*
X154226190Y-65194819D01*
X154226190Y-64528152D02*
X154607142Y-64909104D01*
X153607142Y-64194819D02*
X153511904Y-64194819D01*
X153511904Y-64194819D02*
X153416666Y-64242438D01*
X153416666Y-64242438D02*
X153369047Y-64290057D01*
X153369047Y-64290057D02*
X153321428Y-64385295D01*
X153321428Y-64385295D02*
X153273809Y-64575771D01*
X153273809Y-64575771D02*
X153273809Y-64813866D01*
X153273809Y-64813866D02*
X153321428Y-65004342D01*
X153321428Y-65004342D02*
X153369047Y-65099580D01*
X153369047Y-65099580D02*
X153416666Y-65147200D01*
X153416666Y-65147200D02*
X153511904Y-65194819D01*
X153511904Y-65194819D02*
X153607142Y-65194819D01*
X153607142Y-65194819D02*
X153702380Y-65147200D01*
X153702380Y-65147200D02*
X153749999Y-65099580D01*
X153749999Y-65099580D02*
X153797618Y-65004342D01*
X153797618Y-65004342D02*
X153845237Y-64813866D01*
X153845237Y-64813866D02*
X153845237Y-64575771D01*
X153845237Y-64575771D02*
X153797618Y-64385295D01*
X153797618Y-64385295D02*
X153749999Y-64290057D01*
X153749999Y-64290057D02*
X153702380Y-64242438D01*
X153702380Y-64242438D02*
X153607142Y-64194819D01*
X152702380Y-64623390D02*
X152797618Y-64575771D01*
X152797618Y-64575771D02*
X152845237Y-64528152D01*
X152845237Y-64528152D02*
X152892856Y-64432914D01*
X152892856Y-64432914D02*
X152892856Y-64385295D01*
X152892856Y-64385295D02*
X152845237Y-64290057D01*
X152845237Y-64290057D02*
X152797618Y-64242438D01*
X152797618Y-64242438D02*
X152702380Y-64194819D01*
X152702380Y-64194819D02*
X152511904Y-64194819D01*
X152511904Y-64194819D02*
X152416666Y-64242438D01*
X152416666Y-64242438D02*
X152369047Y-64290057D01*
X152369047Y-64290057D02*
X152321428Y-64385295D01*
X152321428Y-64385295D02*
X152321428Y-64432914D01*
X152321428Y-64432914D02*
X152369047Y-64528152D01*
X152369047Y-64528152D02*
X152416666Y-64575771D01*
X152416666Y-64575771D02*
X152511904Y-64623390D01*
X152511904Y-64623390D02*
X152702380Y-64623390D01*
X152702380Y-64623390D02*
X152797618Y-64671009D01*
X152797618Y-64671009D02*
X152845237Y-64718628D01*
X152845237Y-64718628D02*
X152892856Y-64813866D01*
X152892856Y-64813866D02*
X152892856Y-65004342D01*
X152892856Y-65004342D02*
X152845237Y-65099580D01*
X152845237Y-65099580D02*
X152797618Y-65147200D01*
X152797618Y-65147200D02*
X152702380Y-65194819D01*
X152702380Y-65194819D02*
X152511904Y-65194819D01*
X152511904Y-65194819D02*
X152416666Y-65147200D01*
X152416666Y-65147200D02*
X152369047Y-65099580D01*
X152369047Y-65099580D02*
X152321428Y-65004342D01*
X152321428Y-65004342D02*
X152321428Y-64813866D01*
X152321428Y-64813866D02*
X152369047Y-64718628D01*
X152369047Y-64718628D02*
X152416666Y-64671009D01*
X152416666Y-64671009D02*
X152511904Y-64623390D01*
X156440476Y-65194819D02*
X156773809Y-64718628D01*
X157011904Y-65194819D02*
X157011904Y-64194819D01*
X157011904Y-64194819D02*
X156630952Y-64194819D01*
X156630952Y-64194819D02*
X156535714Y-64242438D01*
X156535714Y-64242438D02*
X156488095Y-64290057D01*
X156488095Y-64290057D02*
X156440476Y-64385295D01*
X156440476Y-64385295D02*
X156440476Y-64528152D01*
X156440476Y-64528152D02*
X156488095Y-64623390D01*
X156488095Y-64623390D02*
X156535714Y-64671009D01*
X156535714Y-64671009D02*
X156630952Y-64718628D01*
X156630952Y-64718628D02*
X157011904Y-64718628D01*
X156011904Y-65194819D02*
X156011904Y-64194819D01*
X156011904Y-64194819D02*
X155440476Y-65194819D01*
X155440476Y-65194819D02*
X155440476Y-64194819D01*
X154440476Y-65194819D02*
X155011904Y-65194819D01*
X154726190Y-65194819D02*
X154726190Y-64194819D01*
X154726190Y-64194819D02*
X154821428Y-64337676D01*
X154821428Y-64337676D02*
X154916666Y-64432914D01*
X154916666Y-64432914D02*
X155011904Y-64480533D01*
X156219899Y-62747019D02*
X156219899Y-62985114D01*
X156457994Y-62889876D02*
X156219899Y-62985114D01*
X156219899Y-62985114D02*
X155981804Y-62889876D01*
X156362756Y-63175590D02*
X156219899Y-62985114D01*
X156219899Y-62985114D02*
X156077042Y-63175590D01*
X156219899Y-62747019D02*
X156219899Y-62985114D01*
X156457994Y-62889876D02*
X156219899Y-62985114D01*
X156219899Y-62985114D02*
X155981804Y-62889876D01*
X156362756Y-63175590D02*
X156219899Y-62985114D01*
X156219899Y-62985114D02*
X156077042Y-63175590D01*
X142375476Y-58284819D02*
X142708809Y-57808628D01*
X142946904Y-58284819D02*
X142946904Y-57284819D01*
X142946904Y-57284819D02*
X142565952Y-57284819D01*
X142565952Y-57284819D02*
X142470714Y-57332438D01*
X142470714Y-57332438D02*
X142423095Y-57380057D01*
X142423095Y-57380057D02*
X142375476Y-57475295D01*
X142375476Y-57475295D02*
X142375476Y-57618152D01*
X142375476Y-57618152D02*
X142423095Y-57713390D01*
X142423095Y-57713390D02*
X142470714Y-57761009D01*
X142470714Y-57761009D02*
X142565952Y-57808628D01*
X142565952Y-57808628D02*
X142946904Y-57808628D01*
D13*
X142751666Y-59441927D02*
X142884999Y-59251451D01*
X142980237Y-59441927D02*
X142980237Y-59041927D01*
X142980237Y-59041927D02*
X142827856Y-59041927D01*
X142827856Y-59041927D02*
X142789761Y-59060975D01*
X142789761Y-59060975D02*
X142770714Y-59080022D01*
X142770714Y-59080022D02*
X142751666Y-59118118D01*
X142751666Y-59118118D02*
X142751666Y-59175260D01*
X142751666Y-59175260D02*
X142770714Y-59213356D01*
X142770714Y-59213356D02*
X142789761Y-59232403D01*
X142789761Y-59232403D02*
X142827856Y-59251451D01*
X142827856Y-59251451D02*
X142980237Y-59251451D01*
X142599285Y-59080022D02*
X142580237Y-59060975D01*
X142580237Y-59060975D02*
X142542142Y-59041927D01*
X142542142Y-59041927D02*
X142446904Y-59041927D01*
X142446904Y-59041927D02*
X142408809Y-59060975D01*
X142408809Y-59060975D02*
X142389761Y-59080022D01*
X142389761Y-59080022D02*
X142370714Y-59118118D01*
X142370714Y-59118118D02*
X142370714Y-59156213D01*
X142370714Y-59156213D02*
X142389761Y-59213356D01*
X142389761Y-59213356D02*
X142618333Y-59441927D01*
X142618333Y-59441927D02*
X142370714Y-59441927D01*
D11*
X152804972Y-75631760D02*
X152232552Y-75732776D01*
X152400911Y-75227699D02*
X151693804Y-75934806D01*
X151693804Y-75934806D02*
X151963178Y-76204180D01*
X151963178Y-76204180D02*
X152064193Y-76237852D01*
X152064193Y-76237852D02*
X152131536Y-76237852D01*
X152131536Y-76237852D02*
X152232552Y-76204180D01*
X152232552Y-76204180D02*
X152333567Y-76103165D01*
X152333567Y-76103165D02*
X152367239Y-76002150D01*
X152367239Y-76002150D02*
X152367239Y-75934806D01*
X152367239Y-75934806D02*
X152333567Y-75833791D01*
X152333567Y-75833791D02*
X152064193Y-75564417D01*
X153007002Y-75699104D02*
X153545750Y-76237852D01*
X153646765Y-76473554D02*
X152939659Y-77180661D01*
X152939659Y-77180661D02*
X153209033Y-77450035D01*
X153209033Y-77450035D02*
X153310048Y-77483707D01*
X153310048Y-77483707D02*
X153377391Y-77483707D01*
X153377391Y-77483707D02*
X153478407Y-77450035D01*
X153478407Y-77450035D02*
X153579422Y-77349020D01*
X153579422Y-77349020D02*
X153613094Y-77248004D01*
X153613094Y-77248004D02*
X153613094Y-77180661D01*
X153613094Y-77180661D02*
X153579422Y-77079646D01*
X153579422Y-77079646D02*
X153310048Y-76810272D01*
X154656918Y-77483707D02*
X154286529Y-77854096D01*
X154286529Y-77854096D02*
X154185514Y-77887768D01*
X154185514Y-77887768D02*
X154084498Y-77854096D01*
X154084498Y-77854096D02*
X153949811Y-77719409D01*
X153949811Y-77719409D02*
X153916139Y-77618394D01*
X154623246Y-77517379D02*
X154589575Y-77416363D01*
X154589575Y-77416363D02*
X154421216Y-77248004D01*
X154421216Y-77248004D02*
X154320201Y-77214333D01*
X154320201Y-77214333D02*
X154219185Y-77248004D01*
X154219185Y-77248004D02*
X154151842Y-77315348D01*
X154151842Y-77315348D02*
X154118170Y-77416363D01*
X154118170Y-77416363D02*
X154151842Y-77517379D01*
X154151842Y-77517379D02*
X154320201Y-77685737D01*
X154320201Y-77685737D02*
X154353872Y-77786753D01*
X155263010Y-78157142D02*
X155229338Y-78056127D01*
X155229338Y-78056127D02*
X155094651Y-77921440D01*
X155094651Y-77921440D02*
X154993636Y-77887768D01*
X154993636Y-77887768D02*
X154926292Y-77887768D01*
X154926292Y-77887768D02*
X154825277Y-77921440D01*
X154825277Y-77921440D02*
X154623246Y-78123470D01*
X154623246Y-78123470D02*
X154589575Y-78224485D01*
X154589575Y-78224485D02*
X154589575Y-78291829D01*
X154589575Y-78291829D02*
X154623246Y-78392844D01*
X154623246Y-78392844D02*
X154757933Y-78527531D01*
X154757933Y-78527531D02*
X154858949Y-78561203D01*
X155599727Y-78426516D02*
X154892620Y-79133623D01*
X155397697Y-78763233D02*
X155869101Y-78695890D01*
X155397697Y-79167295D02*
X155397697Y-78628546D01*
X155599727Y-79840730D02*
X155667071Y-79908073D01*
X155667071Y-79908073D02*
X155768086Y-79941745D01*
X155768086Y-79941745D02*
X155835430Y-79941745D01*
X155835430Y-79941745D02*
X155936445Y-79908073D01*
X155936445Y-79908073D02*
X156104804Y-79807058D01*
X156104804Y-79807058D02*
X156273162Y-79638699D01*
X156273162Y-79638699D02*
X156374178Y-79470340D01*
X156374178Y-79470340D02*
X156407849Y-79369325D01*
X156407849Y-79369325D02*
X156407849Y-79301982D01*
X156407849Y-79301982D02*
X156374178Y-79200966D01*
X156374178Y-79200966D02*
X156306834Y-79133623D01*
X156306834Y-79133623D02*
X156205819Y-79099951D01*
X156205819Y-79099951D02*
X156138475Y-79099951D01*
X156138475Y-79099951D02*
X156037460Y-79133623D01*
X156037460Y-79133623D02*
X155869101Y-79234638D01*
X155869101Y-79234638D02*
X155700743Y-79402997D01*
X155700743Y-79402997D02*
X155599727Y-79571356D01*
X155599727Y-79571356D02*
X155566056Y-79672371D01*
X155566056Y-79672371D02*
X155566056Y-79739714D01*
X155566056Y-79739714D02*
X155599727Y-79840730D01*
X156542536Y-80177447D02*
X156441521Y-80143775D01*
X156441521Y-80143775D02*
X156374178Y-80143775D01*
X156374178Y-80143775D02*
X156273162Y-80177447D01*
X156273162Y-80177447D02*
X156239491Y-80211119D01*
X156239491Y-80211119D02*
X156205819Y-80312134D01*
X156205819Y-80312134D02*
X156205819Y-80379478D01*
X156205819Y-80379478D02*
X156239491Y-80480493D01*
X156239491Y-80480493D02*
X156374178Y-80615180D01*
X156374178Y-80615180D02*
X156475193Y-80648852D01*
X156475193Y-80648852D02*
X156542536Y-80648852D01*
X156542536Y-80648852D02*
X156643552Y-80615180D01*
X156643552Y-80615180D02*
X156677223Y-80581508D01*
X156677223Y-80581508D02*
X156710895Y-80480493D01*
X156710895Y-80480493D02*
X156710895Y-80413149D01*
X156710895Y-80413149D02*
X156677223Y-80312134D01*
X156677223Y-80312134D02*
X156542536Y-80177447D01*
X156542536Y-80177447D02*
X156508865Y-80076432D01*
X156508865Y-80076432D02*
X156508865Y-80009088D01*
X156508865Y-80009088D02*
X156542536Y-79908073D01*
X156542536Y-79908073D02*
X156677223Y-79773386D01*
X156677223Y-79773386D02*
X156778239Y-79739714D01*
X156778239Y-79739714D02*
X156845582Y-79739714D01*
X156845582Y-79739714D02*
X156946597Y-79773386D01*
X156946597Y-79773386D02*
X157081284Y-79908073D01*
X157081284Y-79908073D02*
X157114956Y-80009088D01*
X157114956Y-80009088D02*
X157114956Y-80076432D01*
X157114956Y-80076432D02*
X157081284Y-80177447D01*
X157081284Y-80177447D02*
X156946597Y-80312134D01*
X156946597Y-80312134D02*
X156845582Y-80345806D01*
X156845582Y-80345806D02*
X156778239Y-80345806D01*
X156778239Y-80345806D02*
X156677223Y-80312134D01*
X153499481Y-78245978D02*
X153331123Y-78414337D01*
X153566825Y-78515352D02*
X153331123Y-78414337D01*
X153331123Y-78414337D02*
X153230107Y-78178635D01*
X153297451Y-78650039D02*
X153331123Y-78414337D01*
X153331123Y-78414337D02*
X153095420Y-78448009D01*
X154303365Y-77130153D02*
X153730945Y-77231169D01*
X153899304Y-76726092D02*
X153192197Y-77433199D01*
X153192197Y-77433199D02*
X153461571Y-77702573D01*
X153461571Y-77702573D02*
X153562586Y-77736245D01*
X153562586Y-77736245D02*
X153629930Y-77736245D01*
X153629930Y-77736245D02*
X153730945Y-77702573D01*
X153730945Y-77702573D02*
X153831960Y-77601558D01*
X153831960Y-77601558D02*
X153865632Y-77500543D01*
X153865632Y-77500543D02*
X153865632Y-77433199D01*
X153865632Y-77433199D02*
X153831960Y-77332184D01*
X153831960Y-77332184D02*
X153562586Y-77062810D01*
X154606410Y-77433199D02*
X153899304Y-78140306D01*
X153899304Y-78140306D02*
X155010472Y-77837260D01*
X155010472Y-77837260D02*
X154303365Y-78544367D01*
X154673754Y-78780069D02*
X154673754Y-78847413D01*
X154673754Y-78847413D02*
X154707426Y-78948428D01*
X154707426Y-78948428D02*
X154875784Y-79116787D01*
X154875784Y-79116787D02*
X154976800Y-79150459D01*
X154976800Y-79150459D02*
X155044143Y-79150459D01*
X155044143Y-79150459D02*
X155145158Y-79116787D01*
X155145158Y-79116787D02*
X155212502Y-79049443D01*
X155212502Y-79049443D02*
X155279845Y-78914756D01*
X155279845Y-78914756D02*
X155279845Y-78106634D01*
X155279845Y-78106634D02*
X155717578Y-78544367D01*
X152728480Y-79016981D02*
X152896838Y-78848622D01*
X152661136Y-78747607D02*
X152896838Y-78848622D01*
X152896838Y-78848622D02*
X152997854Y-79084324D01*
X152930510Y-78612920D02*
X152896838Y-78848622D01*
X152896838Y-78848622D02*
X153132541Y-78814950D01*
X161842856Y-60164819D02*
X161747618Y-60164819D01*
X161747618Y-60164819D02*
X161652380Y-60212438D01*
X161652380Y-60212438D02*
X161604761Y-60260057D01*
X161604761Y-60260057D02*
X161557142Y-60355295D01*
X161557142Y-60355295D02*
X161509523Y-60545771D01*
X161509523Y-60545771D02*
X161509523Y-60783866D01*
X161509523Y-60783866D02*
X161557142Y-60974342D01*
X161557142Y-60974342D02*
X161604761Y-61069580D01*
X161604761Y-61069580D02*
X161652380Y-61117200D01*
X161652380Y-61117200D02*
X161747618Y-61164819D01*
X161747618Y-61164819D02*
X161842856Y-61164819D01*
X161842856Y-61164819D02*
X161938094Y-61117200D01*
X161938094Y-61117200D02*
X161985713Y-61069580D01*
X161985713Y-61069580D02*
X162033332Y-60974342D01*
X162033332Y-60974342D02*
X162080951Y-60783866D01*
X162080951Y-60783866D02*
X162080951Y-60545771D01*
X162080951Y-60545771D02*
X162033332Y-60355295D01*
X162033332Y-60355295D02*
X161985713Y-60260057D01*
X161985713Y-60260057D02*
X161938094Y-60212438D01*
X161938094Y-60212438D02*
X161842856Y-60164819D01*
X161080951Y-61069580D02*
X161033332Y-61117200D01*
X161033332Y-61117200D02*
X161080951Y-61164819D01*
X161080951Y-61164819D02*
X161128570Y-61117200D01*
X161128570Y-61117200D02*
X161080951Y-61069580D01*
X161080951Y-61069580D02*
X161080951Y-61164819D01*
X160080952Y-61164819D02*
X160652380Y-61164819D01*
X160366666Y-61164819D02*
X160366666Y-60164819D01*
X160366666Y-60164819D02*
X160461904Y-60307676D01*
X160461904Y-60307676D02*
X160557142Y-60402914D01*
X160557142Y-60402914D02*
X160652380Y-60450533D01*
X159223809Y-60498152D02*
X159223809Y-61164819D01*
X159652380Y-60498152D02*
X159652380Y-61021961D01*
X159652380Y-61021961D02*
X159604761Y-61117200D01*
X159604761Y-61117200D02*
X159509523Y-61164819D01*
X159509523Y-61164819D02*
X159366666Y-61164819D01*
X159366666Y-61164819D02*
X159271428Y-61117200D01*
X159271428Y-61117200D02*
X159223809Y-61069580D01*
X158414285Y-60641009D02*
X158747618Y-60641009D01*
X158747618Y-61164819D02*
X158747618Y-60164819D01*
X158747618Y-60164819D02*
X158271428Y-60164819D01*
D13*
X160266666Y-59423832D02*
X160285714Y-59442880D01*
X160285714Y-59442880D02*
X160342856Y-59461927D01*
X160342856Y-59461927D02*
X160380952Y-59461927D01*
X160380952Y-59461927D02*
X160438095Y-59442880D01*
X160438095Y-59442880D02*
X160476190Y-59404784D01*
X160476190Y-59404784D02*
X160495237Y-59366689D01*
X160495237Y-59366689D02*
X160514285Y-59290499D01*
X160514285Y-59290499D02*
X160514285Y-59233356D01*
X160514285Y-59233356D02*
X160495237Y-59157165D01*
X160495237Y-59157165D02*
X160476190Y-59119070D01*
X160476190Y-59119070D02*
X160438095Y-59080975D01*
X160438095Y-59080975D02*
X160380952Y-59061927D01*
X160380952Y-59061927D02*
X160342856Y-59061927D01*
X160342856Y-59061927D02*
X160285714Y-59080975D01*
X160285714Y-59080975D02*
X160266666Y-59100022D01*
X159904761Y-59061927D02*
X160095237Y-59061927D01*
X160095237Y-59061927D02*
X160114285Y-59252403D01*
X160114285Y-59252403D02*
X160095237Y-59233356D01*
X160095237Y-59233356D02*
X160057142Y-59214308D01*
X160057142Y-59214308D02*
X159961904Y-59214308D01*
X159961904Y-59214308D02*
X159923809Y-59233356D01*
X159923809Y-59233356D02*
X159904761Y-59252403D01*
X159904761Y-59252403D02*
X159885714Y-59290499D01*
X159885714Y-59290499D02*
X159885714Y-59385737D01*
X159885714Y-59385737D02*
X159904761Y-59423832D01*
X159904761Y-59423832D02*
X159923809Y-59442880D01*
X159923809Y-59442880D02*
X159961904Y-59461927D01*
X159961904Y-59461927D02*
X160057142Y-59461927D01*
X160057142Y-59461927D02*
X160095237Y-59442880D01*
X160095237Y-59442880D02*
X160114285Y-59423832D01*
D11*
X165471905Y-53244819D02*
X165471905Y-53959104D01*
X165471905Y-53959104D02*
X165519524Y-54101961D01*
X165519524Y-54101961D02*
X165614762Y-54197200D01*
X165614762Y-54197200D02*
X165757619Y-54244819D01*
X165757619Y-54244819D02*
X165852857Y-54244819D01*
X164567143Y-53578152D02*
X164567143Y-54244819D01*
X164995714Y-53578152D02*
X164995714Y-54101961D01*
X164995714Y-54101961D02*
X164948095Y-54197200D01*
X164948095Y-54197200D02*
X164852857Y-54244819D01*
X164852857Y-54244819D02*
X164710000Y-54244819D01*
X164710000Y-54244819D02*
X164614762Y-54197200D01*
X164614762Y-54197200D02*
X164567143Y-54149580D01*
X164090952Y-54244819D02*
X164090952Y-53578152D01*
X164090952Y-53673390D02*
X164043333Y-53625771D01*
X164043333Y-53625771D02*
X163948095Y-53578152D01*
X163948095Y-53578152D02*
X163805238Y-53578152D01*
X163805238Y-53578152D02*
X163710000Y-53625771D01*
X163710000Y-53625771D02*
X163662381Y-53721009D01*
X163662381Y-53721009D02*
X163662381Y-54244819D01*
X163662381Y-53721009D02*
X163614762Y-53625771D01*
X163614762Y-53625771D02*
X163519524Y-53578152D01*
X163519524Y-53578152D02*
X163376667Y-53578152D01*
X163376667Y-53578152D02*
X163281428Y-53625771D01*
X163281428Y-53625771D02*
X163233809Y-53721009D01*
X163233809Y-53721009D02*
X163233809Y-54244819D01*
X162757619Y-53578152D02*
X162757619Y-54578152D01*
X162757619Y-53625771D02*
X162662381Y-53578152D01*
X162662381Y-53578152D02*
X162471905Y-53578152D01*
X162471905Y-53578152D02*
X162376667Y-53625771D01*
X162376667Y-53625771D02*
X162329048Y-53673390D01*
X162329048Y-53673390D02*
X162281429Y-53768628D01*
X162281429Y-53768628D02*
X162281429Y-54054342D01*
X162281429Y-54054342D02*
X162329048Y-54149580D01*
X162329048Y-54149580D02*
X162376667Y-54197200D01*
X162376667Y-54197200D02*
X162471905Y-54244819D01*
X162471905Y-54244819D02*
X162662381Y-54244819D01*
X162662381Y-54244819D02*
X162757619Y-54197200D01*
X161471905Y-54197200D02*
X161567143Y-54244819D01*
X161567143Y-54244819D02*
X161757619Y-54244819D01*
X161757619Y-54244819D02*
X161852857Y-54197200D01*
X161852857Y-54197200D02*
X161900476Y-54101961D01*
X161900476Y-54101961D02*
X161900476Y-53721009D01*
X161900476Y-53721009D02*
X161852857Y-53625771D01*
X161852857Y-53625771D02*
X161757619Y-53578152D01*
X161757619Y-53578152D02*
X161567143Y-53578152D01*
X161567143Y-53578152D02*
X161471905Y-53625771D01*
X161471905Y-53625771D02*
X161424286Y-53721009D01*
X161424286Y-53721009D02*
X161424286Y-53816247D01*
X161424286Y-53816247D02*
X161900476Y-53911485D01*
X160995714Y-54244819D02*
X160995714Y-53578152D01*
X160995714Y-53768628D02*
X160948095Y-53673390D01*
X160948095Y-53673390D02*
X160900476Y-53625771D01*
X160900476Y-53625771D02*
X160805238Y-53578152D01*
X160805238Y-53578152D02*
X160710000Y-53578152D01*
X160614762Y-54340057D02*
X159852857Y-54340057D01*
X159662380Y-53340057D02*
X159614761Y-53292438D01*
X159614761Y-53292438D02*
X159519523Y-53244819D01*
X159519523Y-53244819D02*
X159281428Y-53244819D01*
X159281428Y-53244819D02*
X159186190Y-53292438D01*
X159186190Y-53292438D02*
X159138571Y-53340057D01*
X159138571Y-53340057D02*
X159090952Y-53435295D01*
X159090952Y-53435295D02*
X159090952Y-53530533D01*
X159090952Y-53530533D02*
X159138571Y-53673390D01*
X159138571Y-53673390D02*
X159709999Y-54244819D01*
X159709999Y-54244819D02*
X159090952Y-54244819D01*
X158900476Y-54340057D02*
X158138571Y-54340057D01*
X157709999Y-53244819D02*
X157519523Y-53244819D01*
X157519523Y-53244819D02*
X157424285Y-53292438D01*
X157424285Y-53292438D02*
X157329047Y-53387676D01*
X157329047Y-53387676D02*
X157281428Y-53578152D01*
X157281428Y-53578152D02*
X157281428Y-53911485D01*
X157281428Y-53911485D02*
X157329047Y-54101961D01*
X157329047Y-54101961D02*
X157424285Y-54197200D01*
X157424285Y-54197200D02*
X157519523Y-54244819D01*
X157519523Y-54244819D02*
X157709999Y-54244819D01*
X157709999Y-54244819D02*
X157805237Y-54197200D01*
X157805237Y-54197200D02*
X157900475Y-54101961D01*
X157900475Y-54101961D02*
X157948094Y-53911485D01*
X157948094Y-53911485D02*
X157948094Y-53578152D01*
X157948094Y-53578152D02*
X157900475Y-53387676D01*
X157900475Y-53387676D02*
X157805237Y-53292438D01*
X157805237Y-53292438D02*
X157709999Y-53244819D01*
X156852856Y-53578152D02*
X156852856Y-54578152D01*
X156852856Y-53625771D02*
X156757618Y-53578152D01*
X156757618Y-53578152D02*
X156567142Y-53578152D01*
X156567142Y-53578152D02*
X156471904Y-53625771D01*
X156471904Y-53625771D02*
X156424285Y-53673390D01*
X156424285Y-53673390D02*
X156376666Y-53768628D01*
X156376666Y-53768628D02*
X156376666Y-54054342D01*
X156376666Y-54054342D02*
X156424285Y-54149580D01*
X156424285Y-54149580D02*
X156471904Y-54197200D01*
X156471904Y-54197200D02*
X156567142Y-54244819D01*
X156567142Y-54244819D02*
X156757618Y-54244819D01*
X156757618Y-54244819D02*
X156852856Y-54197200D01*
X155567142Y-54197200D02*
X155662380Y-54244819D01*
X155662380Y-54244819D02*
X155852856Y-54244819D01*
X155852856Y-54244819D02*
X155948094Y-54197200D01*
X155948094Y-54197200D02*
X155995713Y-54101961D01*
X155995713Y-54101961D02*
X155995713Y-53721009D01*
X155995713Y-53721009D02*
X155948094Y-53625771D01*
X155948094Y-53625771D02*
X155852856Y-53578152D01*
X155852856Y-53578152D02*
X155662380Y-53578152D01*
X155662380Y-53578152D02*
X155567142Y-53625771D01*
X155567142Y-53625771D02*
X155519523Y-53721009D01*
X155519523Y-53721009D02*
X155519523Y-53816247D01*
X155519523Y-53816247D02*
X155995713Y-53911485D01*
X155090951Y-53578152D02*
X155090951Y-54244819D01*
X155090951Y-53673390D02*
X155043332Y-53625771D01*
X155043332Y-53625771D02*
X154948094Y-53578152D01*
X154948094Y-53578152D02*
X154805237Y-53578152D01*
X154805237Y-53578152D02*
X154709999Y-53625771D01*
X154709999Y-53625771D02*
X154662380Y-53721009D01*
X154662380Y-53721009D02*
X154662380Y-54244819D01*
D13*
X160543333Y-55001927D02*
X160543333Y-55287641D01*
X160543333Y-55287641D02*
X160562380Y-55344784D01*
X160562380Y-55344784D02*
X160600476Y-55382880D01*
X160600476Y-55382880D02*
X160657618Y-55401927D01*
X160657618Y-55401927D02*
X160695714Y-55401927D01*
X160352856Y-55401927D02*
X160352856Y-55001927D01*
X160352856Y-55001927D02*
X160200475Y-55001927D01*
X160200475Y-55001927D02*
X160162380Y-55020975D01*
X160162380Y-55020975D02*
X160143333Y-55040022D01*
X160143333Y-55040022D02*
X160124285Y-55078118D01*
X160124285Y-55078118D02*
X160124285Y-55135260D01*
X160124285Y-55135260D02*
X160143333Y-55173356D01*
X160143333Y-55173356D02*
X160162380Y-55192403D01*
X160162380Y-55192403D02*
X160200475Y-55211451D01*
X160200475Y-55211451D02*
X160352856Y-55211451D01*
X159743333Y-55401927D02*
X159971904Y-55401927D01*
X159857618Y-55401927D02*
X159857618Y-55001927D01*
X159857618Y-55001927D02*
X159895714Y-55059070D01*
X159895714Y-55059070D02*
X159933809Y-55097165D01*
X159933809Y-55097165D02*
X159971904Y-55116213D01*
D11*
X160265027Y-76078239D02*
X160837447Y-75977223D01*
X160669088Y-76482300D02*
X161376195Y-75775193D01*
X161376195Y-75775193D02*
X161106821Y-75505819D01*
X161106821Y-75505819D02*
X161005806Y-75472147D01*
X161005806Y-75472147D02*
X160938463Y-75472147D01*
X160938463Y-75472147D02*
X160837447Y-75505819D01*
X160837447Y-75505819D02*
X160736432Y-75606834D01*
X160736432Y-75606834D02*
X160702760Y-75707849D01*
X160702760Y-75707849D02*
X160702760Y-75775193D01*
X160702760Y-75775193D02*
X160736432Y-75876208D01*
X160736432Y-75876208D02*
X161005806Y-76145582D01*
X160062997Y-76010895D02*
X159524249Y-75472147D01*
X159423234Y-75236445D02*
X160130340Y-74529338D01*
X160130340Y-74529338D02*
X159860966Y-74259964D01*
X159860966Y-74259964D02*
X159759951Y-74226292D01*
X159759951Y-74226292D02*
X159692608Y-74226292D01*
X159692608Y-74226292D02*
X159591592Y-74259964D01*
X159591592Y-74259964D02*
X159490577Y-74360979D01*
X159490577Y-74360979D02*
X159456905Y-74461995D01*
X159456905Y-74461995D02*
X159456905Y-74529338D01*
X159456905Y-74529338D02*
X159490577Y-74630353D01*
X159490577Y-74630353D02*
X159759951Y-74899727D01*
X158413081Y-74226292D02*
X158783470Y-73855903D01*
X158783470Y-73855903D02*
X158884485Y-73822231D01*
X158884485Y-73822231D02*
X158985501Y-73855903D01*
X158985501Y-73855903D02*
X159120188Y-73990590D01*
X159120188Y-73990590D02*
X159153860Y-74091605D01*
X158446753Y-74192620D02*
X158480424Y-74293636D01*
X158480424Y-74293636D02*
X158648783Y-74461995D01*
X158648783Y-74461995D02*
X158749798Y-74495666D01*
X158749798Y-74495666D02*
X158850814Y-74461995D01*
X158850814Y-74461995D02*
X158918157Y-74394651D01*
X158918157Y-74394651D02*
X158951829Y-74293636D01*
X158951829Y-74293636D02*
X158918157Y-74192620D01*
X158918157Y-74192620D02*
X158749798Y-74024262D01*
X158749798Y-74024262D02*
X158716127Y-73923246D01*
X157806989Y-73552857D02*
X157840661Y-73653872D01*
X157840661Y-73653872D02*
X157975348Y-73788559D01*
X157975348Y-73788559D02*
X158076363Y-73822231D01*
X158076363Y-73822231D02*
X158143707Y-73822231D01*
X158143707Y-73822231D02*
X158244722Y-73788559D01*
X158244722Y-73788559D02*
X158446753Y-73586529D01*
X158446753Y-73586529D02*
X158480424Y-73485514D01*
X158480424Y-73485514D02*
X158480424Y-73418170D01*
X158480424Y-73418170D02*
X158446753Y-73317155D01*
X158446753Y-73317155D02*
X158312066Y-73182468D01*
X158312066Y-73182468D02*
X158211050Y-73148796D01*
X157470272Y-73283483D02*
X158177379Y-72576376D01*
X157672302Y-72946766D02*
X157200898Y-73014109D01*
X157672302Y-72542704D02*
X157672302Y-73081453D01*
X157470272Y-71869269D02*
X157402928Y-71801926D01*
X157402928Y-71801926D02*
X157301913Y-71768254D01*
X157301913Y-71768254D02*
X157234569Y-71768254D01*
X157234569Y-71768254D02*
X157133554Y-71801926D01*
X157133554Y-71801926D02*
X156965195Y-71902941D01*
X156965195Y-71902941D02*
X156796837Y-72071300D01*
X156796837Y-72071300D02*
X156695821Y-72239659D01*
X156695821Y-72239659D02*
X156662150Y-72340674D01*
X156662150Y-72340674D02*
X156662150Y-72408017D01*
X156662150Y-72408017D02*
X156695821Y-72509033D01*
X156695821Y-72509033D02*
X156763165Y-72576376D01*
X156763165Y-72576376D02*
X156864180Y-72610048D01*
X156864180Y-72610048D02*
X156931524Y-72610048D01*
X156931524Y-72610048D02*
X157032539Y-72576376D01*
X157032539Y-72576376D02*
X157200898Y-72475361D01*
X157200898Y-72475361D02*
X157369256Y-72307002D01*
X157369256Y-72307002D02*
X157470272Y-72138643D01*
X157470272Y-72138643D02*
X157503943Y-72037628D01*
X157503943Y-72037628D02*
X157503943Y-71970285D01*
X157503943Y-71970285D02*
X157470272Y-71869269D01*
X156527463Y-71532552D02*
X156628478Y-71566224D01*
X156628478Y-71566224D02*
X156695821Y-71566224D01*
X156695821Y-71566224D02*
X156796837Y-71532552D01*
X156796837Y-71532552D02*
X156830508Y-71498880D01*
X156830508Y-71498880D02*
X156864180Y-71397865D01*
X156864180Y-71397865D02*
X156864180Y-71330521D01*
X156864180Y-71330521D02*
X156830508Y-71229506D01*
X156830508Y-71229506D02*
X156695821Y-71094819D01*
X156695821Y-71094819D02*
X156594806Y-71061147D01*
X156594806Y-71061147D02*
X156527463Y-71061147D01*
X156527463Y-71061147D02*
X156426447Y-71094819D01*
X156426447Y-71094819D02*
X156392776Y-71128491D01*
X156392776Y-71128491D02*
X156359104Y-71229506D01*
X156359104Y-71229506D02*
X156359104Y-71296850D01*
X156359104Y-71296850D02*
X156392776Y-71397865D01*
X156392776Y-71397865D02*
X156527463Y-71532552D01*
X156527463Y-71532552D02*
X156561134Y-71633567D01*
X156561134Y-71633567D02*
X156561134Y-71700911D01*
X156561134Y-71700911D02*
X156527463Y-71801926D01*
X156527463Y-71801926D02*
X156392776Y-71936613D01*
X156392776Y-71936613D02*
X156291760Y-71970285D01*
X156291760Y-71970285D02*
X156224417Y-71970285D01*
X156224417Y-71970285D02*
X156123402Y-71936613D01*
X156123402Y-71936613D02*
X155988715Y-71801926D01*
X155988715Y-71801926D02*
X155955043Y-71700911D01*
X155955043Y-71700911D02*
X155955043Y-71633567D01*
X155955043Y-71633567D02*
X155988715Y-71532552D01*
X155988715Y-71532552D02*
X156123402Y-71397865D01*
X156123402Y-71397865D02*
X156224417Y-71364193D01*
X156224417Y-71364193D02*
X156291760Y-71364193D01*
X156291760Y-71364193D02*
X156392776Y-71397865D01*
X160341519Y-72693018D02*
X160173161Y-72861377D01*
X160408863Y-72962392D02*
X160173161Y-72861377D01*
X160173161Y-72861377D02*
X160072145Y-72625675D01*
X160139489Y-73097079D02*
X160173161Y-72861377D01*
X160173161Y-72861377D02*
X159937458Y-72895049D01*
X158766634Y-74579846D02*
X159339054Y-74478830D01*
X159170695Y-74983907D02*
X159877802Y-74276800D01*
X159877802Y-74276800D02*
X159608428Y-74007426D01*
X159608428Y-74007426D02*
X159507413Y-73973754D01*
X159507413Y-73973754D02*
X159440069Y-73973754D01*
X159440069Y-73973754D02*
X159339054Y-74007426D01*
X159339054Y-74007426D02*
X159238039Y-74108441D01*
X159238039Y-74108441D02*
X159204367Y-74209456D01*
X159204367Y-74209456D02*
X159204367Y-74276800D01*
X159204367Y-74276800D02*
X159238039Y-74377815D01*
X159238039Y-74377815D02*
X159507413Y-74647189D01*
X158463589Y-74276800D02*
X159170695Y-73569693D01*
X159170695Y-73569693D02*
X158059527Y-73872739D01*
X158059527Y-73872739D02*
X158766634Y-73165632D01*
X158497260Y-72896258D02*
X158059528Y-72458525D01*
X158059528Y-72458525D02*
X158025856Y-72963601D01*
X158025856Y-72963601D02*
X157924841Y-72862586D01*
X157924841Y-72862586D02*
X157823825Y-72828914D01*
X157823825Y-72828914D02*
X157756482Y-72828914D01*
X157756482Y-72828914D02*
X157655466Y-72862586D01*
X157655466Y-72862586D02*
X157487108Y-73030945D01*
X157487108Y-73030945D02*
X157453436Y-73131960D01*
X157453436Y-73131960D02*
X157453436Y-73199304D01*
X157453436Y-73199304D02*
X157487108Y-73300319D01*
X157487108Y-73300319D02*
X157689138Y-73502350D01*
X157689138Y-73502350D02*
X157790154Y-73536021D01*
X157790154Y-73536021D02*
X157857497Y-73536021D01*
X160341519Y-72693018D02*
X160173161Y-72861377D01*
X160408863Y-72962392D02*
X160173161Y-72861377D01*
X160173161Y-72861377D02*
X160072145Y-72625675D01*
X160139489Y-73097079D02*
X160173161Y-72861377D01*
X160173161Y-72861377D02*
X159937458Y-72895049D01*
X143612856Y-78284819D02*
X143517618Y-78284819D01*
X143517618Y-78284819D02*
X143422380Y-78332438D01*
X143422380Y-78332438D02*
X143374761Y-78380057D01*
X143374761Y-78380057D02*
X143327142Y-78475295D01*
X143327142Y-78475295D02*
X143279523Y-78665771D01*
X143279523Y-78665771D02*
X143279523Y-78903866D01*
X143279523Y-78903866D02*
X143327142Y-79094342D01*
X143327142Y-79094342D02*
X143374761Y-79189580D01*
X143374761Y-79189580D02*
X143422380Y-79237200D01*
X143422380Y-79237200D02*
X143517618Y-79284819D01*
X143517618Y-79284819D02*
X143612856Y-79284819D01*
X143612856Y-79284819D02*
X143708094Y-79237200D01*
X143708094Y-79237200D02*
X143755713Y-79189580D01*
X143755713Y-79189580D02*
X143803332Y-79094342D01*
X143803332Y-79094342D02*
X143850951Y-78903866D01*
X143850951Y-78903866D02*
X143850951Y-78665771D01*
X143850951Y-78665771D02*
X143803332Y-78475295D01*
X143803332Y-78475295D02*
X143755713Y-78380057D01*
X143755713Y-78380057D02*
X143708094Y-78332438D01*
X143708094Y-78332438D02*
X143612856Y-78284819D01*
X142850951Y-79189580D02*
X142803332Y-79237200D01*
X142803332Y-79237200D02*
X142850951Y-79284819D01*
X142850951Y-79284819D02*
X142898570Y-79237200D01*
X142898570Y-79237200D02*
X142850951Y-79189580D01*
X142850951Y-79189580D02*
X142850951Y-79284819D01*
X141850952Y-79284819D02*
X142422380Y-79284819D01*
X142136666Y-79284819D02*
X142136666Y-78284819D01*
X142136666Y-78284819D02*
X142231904Y-78427676D01*
X142231904Y-78427676D02*
X142327142Y-78522914D01*
X142327142Y-78522914D02*
X142422380Y-78570533D01*
X140993809Y-78618152D02*
X140993809Y-79284819D01*
X141422380Y-78618152D02*
X141422380Y-79141961D01*
X141422380Y-79141961D02*
X141374761Y-79237200D01*
X141374761Y-79237200D02*
X141279523Y-79284819D01*
X141279523Y-79284819D02*
X141136666Y-79284819D01*
X141136666Y-79284819D02*
X141041428Y-79237200D01*
X141041428Y-79237200D02*
X140993809Y-79189580D01*
X140184285Y-78761009D02*
X140517618Y-78761009D01*
X140517618Y-79284819D02*
X140517618Y-78284819D01*
X140517618Y-78284819D02*
X140041428Y-78284819D01*
D13*
X142036666Y-80403832D02*
X142055714Y-80422880D01*
X142055714Y-80422880D02*
X142112856Y-80441927D01*
X142112856Y-80441927D02*
X142150952Y-80441927D01*
X142150952Y-80441927D02*
X142208095Y-80422880D01*
X142208095Y-80422880D02*
X142246190Y-80384784D01*
X142246190Y-80384784D02*
X142265237Y-80346689D01*
X142265237Y-80346689D02*
X142284285Y-80270499D01*
X142284285Y-80270499D02*
X142284285Y-80213356D01*
X142284285Y-80213356D02*
X142265237Y-80137165D01*
X142265237Y-80137165D02*
X142246190Y-80099070D01*
X142246190Y-80099070D02*
X142208095Y-80060975D01*
X142208095Y-80060975D02*
X142150952Y-80041927D01*
X142150952Y-80041927D02*
X142112856Y-80041927D01*
X142112856Y-80041927D02*
X142055714Y-80060975D01*
X142055714Y-80060975D02*
X142036666Y-80080022D01*
X141884285Y-80080022D02*
X141865237Y-80060975D01*
X141865237Y-80060975D02*
X141827142Y-80041927D01*
X141827142Y-80041927D02*
X141731904Y-80041927D01*
X141731904Y-80041927D02*
X141693809Y-80060975D01*
X141693809Y-80060975D02*
X141674761Y-80080022D01*
X141674761Y-80080022D02*
X141655714Y-80118118D01*
X141655714Y-80118118D02*
X141655714Y-80156213D01*
X141655714Y-80156213D02*
X141674761Y-80213356D01*
X141674761Y-80213356D02*
X141903333Y-80441927D01*
X141903333Y-80441927D02*
X141655714Y-80441927D01*
D11*
X143924819Y-58829523D02*
X143448628Y-58496190D01*
X143924819Y-58258095D02*
X142924819Y-58258095D01*
X142924819Y-58258095D02*
X142924819Y-58639047D01*
X142924819Y-58639047D02*
X142972438Y-58734285D01*
X142972438Y-58734285D02*
X143020057Y-58781904D01*
X143020057Y-58781904D02*
X143115295Y-58829523D01*
X143115295Y-58829523D02*
X143258152Y-58829523D01*
X143258152Y-58829523D02*
X143353390Y-58781904D01*
X143353390Y-58781904D02*
X143401009Y-58734285D01*
X143401009Y-58734285D02*
X143448628Y-58639047D01*
X143448628Y-58639047D02*
X143448628Y-58258095D01*
D13*
X145081927Y-58453333D02*
X144891451Y-58320000D01*
X145081927Y-58224762D02*
X144681927Y-58224762D01*
X144681927Y-58224762D02*
X144681927Y-58377143D01*
X144681927Y-58377143D02*
X144700975Y-58415238D01*
X144700975Y-58415238D02*
X144720022Y-58434285D01*
X144720022Y-58434285D02*
X144758118Y-58453333D01*
X144758118Y-58453333D02*
X144815260Y-58453333D01*
X144815260Y-58453333D02*
X144853356Y-58434285D01*
X144853356Y-58434285D02*
X144872403Y-58415238D01*
X144872403Y-58415238D02*
X144891451Y-58377143D01*
X144891451Y-58377143D02*
X144891451Y-58224762D01*
X144681927Y-58586666D02*
X144681927Y-58834285D01*
X144681927Y-58834285D02*
X144834308Y-58700952D01*
X144834308Y-58700952D02*
X144834308Y-58758095D01*
X144834308Y-58758095D02*
X144853356Y-58796190D01*
X144853356Y-58796190D02*
X144872403Y-58815238D01*
X144872403Y-58815238D02*
X144910499Y-58834285D01*
X144910499Y-58834285D02*
X145005737Y-58834285D01*
X145005737Y-58834285D02*
X145043832Y-58815238D01*
X145043832Y-58815238D02*
X145062880Y-58796190D01*
X145062880Y-58796190D02*
X145081927Y-58758095D01*
X145081927Y-58758095D02*
X145081927Y-58643809D01*
X145081927Y-58643809D02*
X145062880Y-58605714D01*
X145062880Y-58605714D02*
X145043832Y-58586666D01*
D11*
X143792858Y-82779580D02*
X143840477Y-82827200D01*
X143840477Y-82827200D02*
X143983334Y-82874819D01*
X143983334Y-82874819D02*
X144078572Y-82874819D01*
X144078572Y-82874819D02*
X144221429Y-82827200D01*
X144221429Y-82827200D02*
X144316667Y-82731961D01*
X144316667Y-82731961D02*
X144364286Y-82636723D01*
X144364286Y-82636723D02*
X144411905Y-82446247D01*
X144411905Y-82446247D02*
X144411905Y-82303390D01*
X144411905Y-82303390D02*
X144364286Y-82112914D01*
X144364286Y-82112914D02*
X144316667Y-82017676D01*
X144316667Y-82017676D02*
X144221429Y-81922438D01*
X144221429Y-81922438D02*
X144078572Y-81874819D01*
X144078572Y-81874819D02*
X143983334Y-81874819D01*
X143983334Y-81874819D02*
X143840477Y-81922438D01*
X143840477Y-81922438D02*
X143792858Y-81970057D01*
X143221429Y-82874819D02*
X143316667Y-82827200D01*
X143316667Y-82827200D02*
X143364286Y-82779580D01*
X143364286Y-82779580D02*
X143411905Y-82684342D01*
X143411905Y-82684342D02*
X143411905Y-82398628D01*
X143411905Y-82398628D02*
X143364286Y-82303390D01*
X143364286Y-82303390D02*
X143316667Y-82255771D01*
X143316667Y-82255771D02*
X143221429Y-82208152D01*
X143221429Y-82208152D02*
X143078572Y-82208152D01*
X143078572Y-82208152D02*
X142983334Y-82255771D01*
X142983334Y-82255771D02*
X142935715Y-82303390D01*
X142935715Y-82303390D02*
X142888096Y-82398628D01*
X142888096Y-82398628D02*
X142888096Y-82684342D01*
X142888096Y-82684342D02*
X142935715Y-82779580D01*
X142935715Y-82779580D02*
X142983334Y-82827200D01*
X142983334Y-82827200D02*
X143078572Y-82874819D01*
X143078572Y-82874819D02*
X143221429Y-82874819D01*
X142459524Y-82208152D02*
X142459524Y-82874819D01*
X142459524Y-82303390D02*
X142411905Y-82255771D01*
X142411905Y-82255771D02*
X142316667Y-82208152D01*
X142316667Y-82208152D02*
X142173810Y-82208152D01*
X142173810Y-82208152D02*
X142078572Y-82255771D01*
X142078572Y-82255771D02*
X142030953Y-82351009D01*
X142030953Y-82351009D02*
X142030953Y-82874819D01*
X141554762Y-82208152D02*
X141554762Y-82874819D01*
X141554762Y-82303390D02*
X141507143Y-82255771D01*
X141507143Y-82255771D02*
X141411905Y-82208152D01*
X141411905Y-82208152D02*
X141269048Y-82208152D01*
X141269048Y-82208152D02*
X141173810Y-82255771D01*
X141173810Y-82255771D02*
X141126191Y-82351009D01*
X141126191Y-82351009D02*
X141126191Y-82874819D01*
X140888096Y-82970057D02*
X140126191Y-82970057D01*
X139697619Y-81874819D02*
X139602381Y-81874819D01*
X139602381Y-81874819D02*
X139507143Y-81922438D01*
X139507143Y-81922438D02*
X139459524Y-81970057D01*
X139459524Y-81970057D02*
X139411905Y-82065295D01*
X139411905Y-82065295D02*
X139364286Y-82255771D01*
X139364286Y-82255771D02*
X139364286Y-82493866D01*
X139364286Y-82493866D02*
X139411905Y-82684342D01*
X139411905Y-82684342D02*
X139459524Y-82779580D01*
X139459524Y-82779580D02*
X139507143Y-82827200D01*
X139507143Y-82827200D02*
X139602381Y-82874819D01*
X139602381Y-82874819D02*
X139697619Y-82874819D01*
X139697619Y-82874819D02*
X139792857Y-82827200D01*
X139792857Y-82827200D02*
X139840476Y-82779580D01*
X139840476Y-82779580D02*
X139888095Y-82684342D01*
X139888095Y-82684342D02*
X139935714Y-82493866D01*
X139935714Y-82493866D02*
X139935714Y-82255771D01*
X139935714Y-82255771D02*
X139888095Y-82065295D01*
X139888095Y-82065295D02*
X139840476Y-81970057D01*
X139840476Y-81970057D02*
X139792857Y-81922438D01*
X139792857Y-81922438D02*
X139697619Y-81874819D01*
X138983333Y-81970057D02*
X138935714Y-81922438D01*
X138935714Y-81922438D02*
X138840476Y-81874819D01*
X138840476Y-81874819D02*
X138602381Y-81874819D01*
X138602381Y-81874819D02*
X138507143Y-81922438D01*
X138507143Y-81922438D02*
X138459524Y-81970057D01*
X138459524Y-81970057D02*
X138411905Y-82065295D01*
X138411905Y-82065295D02*
X138411905Y-82160533D01*
X138411905Y-82160533D02*
X138459524Y-82303390D01*
X138459524Y-82303390D02*
X139030952Y-82874819D01*
X139030952Y-82874819D02*
X138411905Y-82874819D01*
X138078571Y-82874819D02*
X137554762Y-82208152D01*
X138078571Y-82208152D02*
X137554762Y-82874819D01*
X137221428Y-81970057D02*
X137173809Y-81922438D01*
X137173809Y-81922438D02*
X137078571Y-81874819D01*
X137078571Y-81874819D02*
X136840476Y-81874819D01*
X136840476Y-81874819D02*
X136745238Y-81922438D01*
X136745238Y-81922438D02*
X136697619Y-81970057D01*
X136697619Y-81970057D02*
X136650000Y-82065295D01*
X136650000Y-82065295D02*
X136650000Y-82160533D01*
X136650000Y-82160533D02*
X136697619Y-82303390D01*
X136697619Y-82303390D02*
X137269047Y-82874819D01*
X137269047Y-82874819D02*
X136650000Y-82874819D01*
X136269047Y-81970057D02*
X136221428Y-81922438D01*
X136221428Y-81922438D02*
X136126190Y-81874819D01*
X136126190Y-81874819D02*
X135888095Y-81874819D01*
X135888095Y-81874819D02*
X135792857Y-81922438D01*
X135792857Y-81922438D02*
X135745238Y-81970057D01*
X135745238Y-81970057D02*
X135697619Y-82065295D01*
X135697619Y-82065295D02*
X135697619Y-82160533D01*
X135697619Y-82160533D02*
X135745238Y-82303390D01*
X135745238Y-82303390D02*
X136316666Y-82874819D01*
X136316666Y-82874819D02*
X135697619Y-82874819D01*
X135507143Y-82970057D02*
X134745238Y-82970057D01*
X134316666Y-81874819D02*
X134126190Y-81874819D01*
X134126190Y-81874819D02*
X134030952Y-81922438D01*
X134030952Y-81922438D02*
X133935714Y-82017676D01*
X133935714Y-82017676D02*
X133888095Y-82208152D01*
X133888095Y-82208152D02*
X133888095Y-82541485D01*
X133888095Y-82541485D02*
X133935714Y-82731961D01*
X133935714Y-82731961D02*
X134030952Y-82827200D01*
X134030952Y-82827200D02*
X134126190Y-82874819D01*
X134126190Y-82874819D02*
X134316666Y-82874819D01*
X134316666Y-82874819D02*
X134411904Y-82827200D01*
X134411904Y-82827200D02*
X134507142Y-82731961D01*
X134507142Y-82731961D02*
X134554761Y-82541485D01*
X134554761Y-82541485D02*
X134554761Y-82208152D01*
X134554761Y-82208152D02*
X134507142Y-82017676D01*
X134507142Y-82017676D02*
X134411904Y-81922438D01*
X134411904Y-81922438D02*
X134316666Y-81874819D01*
X133030952Y-82874819D02*
X133030952Y-81874819D01*
X133030952Y-82827200D02*
X133126190Y-82874819D01*
X133126190Y-82874819D02*
X133316666Y-82874819D01*
X133316666Y-82874819D02*
X133411904Y-82827200D01*
X133411904Y-82827200D02*
X133459523Y-82779580D01*
X133459523Y-82779580D02*
X133507142Y-82684342D01*
X133507142Y-82684342D02*
X133507142Y-82398628D01*
X133507142Y-82398628D02*
X133459523Y-82303390D01*
X133459523Y-82303390D02*
X133411904Y-82255771D01*
X133411904Y-82255771D02*
X133316666Y-82208152D01*
X133316666Y-82208152D02*
X133126190Y-82208152D01*
X133126190Y-82208152D02*
X133030952Y-82255771D01*
X132126190Y-82874819D02*
X132126190Y-81874819D01*
X132126190Y-82827200D02*
X132221428Y-82874819D01*
X132221428Y-82874819D02*
X132411904Y-82874819D01*
X132411904Y-82874819D02*
X132507142Y-82827200D01*
X132507142Y-82827200D02*
X132554761Y-82779580D01*
X132554761Y-82779580D02*
X132602380Y-82684342D01*
X132602380Y-82684342D02*
X132602380Y-82398628D01*
X132602380Y-82398628D02*
X132554761Y-82303390D01*
X132554761Y-82303390D02*
X132507142Y-82255771D01*
X132507142Y-82255771D02*
X132411904Y-82208152D01*
X132411904Y-82208152D02*
X132221428Y-82208152D01*
X132221428Y-82208152D02*
X132126190Y-82255771D01*
X131888095Y-82970057D02*
X131126190Y-82970057D01*
X130888094Y-82351009D02*
X130554761Y-82351009D01*
X130411904Y-82874819D02*
X130888094Y-82874819D01*
X130888094Y-82874819D02*
X130888094Y-81874819D01*
X130888094Y-81874819D02*
X130411904Y-81874819D01*
X130078570Y-82208152D02*
X129840475Y-82874819D01*
X129840475Y-82874819D02*
X129602380Y-82208152D01*
X128840475Y-82827200D02*
X128935713Y-82874819D01*
X128935713Y-82874819D02*
X129126189Y-82874819D01*
X129126189Y-82874819D02*
X129221427Y-82827200D01*
X129221427Y-82827200D02*
X129269046Y-82731961D01*
X129269046Y-82731961D02*
X129269046Y-82351009D01*
X129269046Y-82351009D02*
X129221427Y-82255771D01*
X129221427Y-82255771D02*
X129126189Y-82208152D01*
X129126189Y-82208152D02*
X128935713Y-82208152D01*
X128935713Y-82208152D02*
X128840475Y-82255771D01*
X128840475Y-82255771D02*
X128792856Y-82351009D01*
X128792856Y-82351009D02*
X128792856Y-82446247D01*
X128792856Y-82446247D02*
X129269046Y-82541485D01*
X128364284Y-82208152D02*
X128364284Y-82874819D01*
X128364284Y-82303390D02*
X128316665Y-82255771D01*
X128316665Y-82255771D02*
X128221427Y-82208152D01*
X128221427Y-82208152D02*
X128078570Y-82208152D01*
X128078570Y-82208152D02*
X127983332Y-82255771D01*
X127983332Y-82255771D02*
X127935713Y-82351009D01*
X127935713Y-82351009D02*
X127935713Y-82874819D01*
X135604819Y-67056666D02*
X136319104Y-67056666D01*
X136319104Y-67056666D02*
X136461961Y-67009047D01*
X136461961Y-67009047D02*
X136557200Y-66913809D01*
X136557200Y-66913809D02*
X136604819Y-66770952D01*
X136604819Y-66770952D02*
X136604819Y-66675714D01*
X136604819Y-68056666D02*
X136604819Y-67485238D01*
X136604819Y-67770952D02*
X135604819Y-67770952D01*
X135604819Y-67770952D02*
X135747676Y-67675714D01*
X135747676Y-67675714D02*
X135842914Y-67580476D01*
X135842914Y-67580476D02*
X135890533Y-67485238D01*
X157654761Y-56788152D02*
X157654761Y-57454819D01*
X157892856Y-56407200D02*
X158130951Y-57121485D01*
X158130951Y-57121485D02*
X157511904Y-57121485D01*
X157130951Y-57359580D02*
X157083332Y-57407200D01*
X157083332Y-57407200D02*
X157130951Y-57454819D01*
X157130951Y-57454819D02*
X157178570Y-57407200D01*
X157178570Y-57407200D02*
X157130951Y-57359580D01*
X157130951Y-57359580D02*
X157130951Y-57454819D01*
X156749999Y-56454819D02*
X156083333Y-56454819D01*
X156083333Y-56454819D02*
X156511904Y-57454819D01*
X155273809Y-56788152D02*
X155273809Y-57454819D01*
X155702380Y-56788152D02*
X155702380Y-57311961D01*
X155702380Y-57311961D02*
X155654761Y-57407200D01*
X155654761Y-57407200D02*
X155559523Y-57454819D01*
X155559523Y-57454819D02*
X155416666Y-57454819D01*
X155416666Y-57454819D02*
X155321428Y-57407200D01*
X155321428Y-57407200D02*
X155273809Y-57359580D01*
X154464285Y-56931009D02*
X154797618Y-56931009D01*
X154797618Y-57454819D02*
X154797618Y-56454819D01*
X154797618Y-56454819D02*
X154321428Y-56454819D01*
D14*
X156383332Y-59137664D02*
X156421428Y-59175760D01*
X156421428Y-59175760D02*
X156535713Y-59213855D01*
X156535713Y-59213855D02*
X156611904Y-59213855D01*
X156611904Y-59213855D02*
X156726190Y-59175760D01*
X156726190Y-59175760D02*
X156802380Y-59099569D01*
X156802380Y-59099569D02*
X156840475Y-59023379D01*
X156840475Y-59023379D02*
X156878571Y-58870998D01*
X156878571Y-58870998D02*
X156878571Y-58756712D01*
X156878571Y-58756712D02*
X156840475Y-58604331D01*
X156840475Y-58604331D02*
X156802380Y-58528140D01*
X156802380Y-58528140D02*
X156726190Y-58451950D01*
X156726190Y-58451950D02*
X156611904Y-58413855D01*
X156611904Y-58413855D02*
X156535713Y-58413855D01*
X156535713Y-58413855D02*
X156421428Y-58451950D01*
X156421428Y-58451950D02*
X156383332Y-58490045D01*
X155697618Y-58413855D02*
X155849999Y-58413855D01*
X155849999Y-58413855D02*
X155926190Y-58451950D01*
X155926190Y-58451950D02*
X155964285Y-58490045D01*
X155964285Y-58490045D02*
X156040475Y-58604331D01*
X156040475Y-58604331D02*
X156078571Y-58756712D01*
X156078571Y-58756712D02*
X156078571Y-59061474D01*
X156078571Y-59061474D02*
X156040475Y-59137664D01*
X156040475Y-59137664D02*
X156002380Y-59175760D01*
X156002380Y-59175760D02*
X155926190Y-59213855D01*
X155926190Y-59213855D02*
X155773809Y-59213855D01*
X155773809Y-59213855D02*
X155697618Y-59175760D01*
X155697618Y-59175760D02*
X155659523Y-59137664D01*
X155659523Y-59137664D02*
X155621428Y-59061474D01*
X155621428Y-59061474D02*
X155621428Y-58870998D01*
X155621428Y-58870998D02*
X155659523Y-58794807D01*
X155659523Y-58794807D02*
X155697618Y-58756712D01*
X155697618Y-58756712D02*
X155773809Y-58718617D01*
X155773809Y-58718617D02*
X155926190Y-58718617D01*
X155926190Y-58718617D02*
X156002380Y-58756712D01*
X156002380Y-58756712D02*
X156040475Y-58794807D01*
X156040475Y-58794807D02*
X156078571Y-58870998D01*
D11*
X147204761Y-81478152D02*
X147204761Y-82144819D01*
X147442856Y-81097200D02*
X147680951Y-81811485D01*
X147680951Y-81811485D02*
X147061904Y-81811485D01*
X146680951Y-82049580D02*
X146633332Y-82097200D01*
X146633332Y-82097200D02*
X146680951Y-82144819D01*
X146680951Y-82144819D02*
X146728570Y-82097200D01*
X146728570Y-82097200D02*
X146680951Y-82049580D01*
X146680951Y-82049580D02*
X146680951Y-82144819D01*
X146299999Y-81144819D02*
X145633333Y-81144819D01*
X145633333Y-81144819D02*
X146061904Y-82144819D01*
X144823809Y-81478152D02*
X144823809Y-82144819D01*
X145252380Y-81478152D02*
X145252380Y-82001961D01*
X145252380Y-82001961D02*
X145204761Y-82097200D01*
X145204761Y-82097200D02*
X145109523Y-82144819D01*
X145109523Y-82144819D02*
X144966666Y-82144819D01*
X144966666Y-82144819D02*
X144871428Y-82097200D01*
X144871428Y-82097200D02*
X144823809Y-82049580D01*
X144014285Y-81621009D02*
X144347618Y-81621009D01*
X144347618Y-82144819D02*
X144347618Y-81144819D01*
X144347618Y-81144819D02*
X143871428Y-81144819D01*
D14*
X145933332Y-80127664D02*
X145971428Y-80165760D01*
X145971428Y-80165760D02*
X146085713Y-80203855D01*
X146085713Y-80203855D02*
X146161904Y-80203855D01*
X146161904Y-80203855D02*
X146276190Y-80165760D01*
X146276190Y-80165760D02*
X146352380Y-80089569D01*
X146352380Y-80089569D02*
X146390475Y-80013379D01*
X146390475Y-80013379D02*
X146428571Y-79860998D01*
X146428571Y-79860998D02*
X146428571Y-79746712D01*
X146428571Y-79746712D02*
X146390475Y-79594331D01*
X146390475Y-79594331D02*
X146352380Y-79518140D01*
X146352380Y-79518140D02*
X146276190Y-79441950D01*
X146276190Y-79441950D02*
X146161904Y-79403855D01*
X146161904Y-79403855D02*
X146085713Y-79403855D01*
X146085713Y-79403855D02*
X145971428Y-79441950D01*
X145971428Y-79441950D02*
X145933332Y-79480045D01*
X145247618Y-79670521D02*
X145247618Y-80203855D01*
X145438094Y-79365760D02*
X145628571Y-79937188D01*
X145628571Y-79937188D02*
X145133332Y-79937188D01*
D11*
X147201905Y-54864819D02*
X147201905Y-55579104D01*
X147201905Y-55579104D02*
X147249524Y-55721961D01*
X147249524Y-55721961D02*
X147344762Y-55817200D01*
X147344762Y-55817200D02*
X147487619Y-55864819D01*
X147487619Y-55864819D02*
X147582857Y-55864819D01*
X146297143Y-55198152D02*
X146297143Y-55864819D01*
X146725714Y-55198152D02*
X146725714Y-55721961D01*
X146725714Y-55721961D02*
X146678095Y-55817200D01*
X146678095Y-55817200D02*
X146582857Y-55864819D01*
X146582857Y-55864819D02*
X146440000Y-55864819D01*
X146440000Y-55864819D02*
X146344762Y-55817200D01*
X146344762Y-55817200D02*
X146297143Y-55769580D01*
X145820952Y-55864819D02*
X145820952Y-55198152D01*
X145820952Y-55293390D02*
X145773333Y-55245771D01*
X145773333Y-55245771D02*
X145678095Y-55198152D01*
X145678095Y-55198152D02*
X145535238Y-55198152D01*
X145535238Y-55198152D02*
X145440000Y-55245771D01*
X145440000Y-55245771D02*
X145392381Y-55341009D01*
X145392381Y-55341009D02*
X145392381Y-55864819D01*
X145392381Y-55341009D02*
X145344762Y-55245771D01*
X145344762Y-55245771D02*
X145249524Y-55198152D01*
X145249524Y-55198152D02*
X145106667Y-55198152D01*
X145106667Y-55198152D02*
X145011428Y-55245771D01*
X145011428Y-55245771D02*
X144963809Y-55341009D01*
X144963809Y-55341009D02*
X144963809Y-55864819D01*
X144487619Y-55198152D02*
X144487619Y-56198152D01*
X144487619Y-55245771D02*
X144392381Y-55198152D01*
X144392381Y-55198152D02*
X144201905Y-55198152D01*
X144201905Y-55198152D02*
X144106667Y-55245771D01*
X144106667Y-55245771D02*
X144059048Y-55293390D01*
X144059048Y-55293390D02*
X144011429Y-55388628D01*
X144011429Y-55388628D02*
X144011429Y-55674342D01*
X144011429Y-55674342D02*
X144059048Y-55769580D01*
X144059048Y-55769580D02*
X144106667Y-55817200D01*
X144106667Y-55817200D02*
X144201905Y-55864819D01*
X144201905Y-55864819D02*
X144392381Y-55864819D01*
X144392381Y-55864819D02*
X144487619Y-55817200D01*
X143201905Y-55817200D02*
X143297143Y-55864819D01*
X143297143Y-55864819D02*
X143487619Y-55864819D01*
X143487619Y-55864819D02*
X143582857Y-55817200D01*
X143582857Y-55817200D02*
X143630476Y-55721961D01*
X143630476Y-55721961D02*
X143630476Y-55341009D01*
X143630476Y-55341009D02*
X143582857Y-55245771D01*
X143582857Y-55245771D02*
X143487619Y-55198152D01*
X143487619Y-55198152D02*
X143297143Y-55198152D01*
X143297143Y-55198152D02*
X143201905Y-55245771D01*
X143201905Y-55245771D02*
X143154286Y-55341009D01*
X143154286Y-55341009D02*
X143154286Y-55436247D01*
X143154286Y-55436247D02*
X143630476Y-55531485D01*
X142725714Y-55864819D02*
X142725714Y-55198152D01*
X142725714Y-55388628D02*
X142678095Y-55293390D01*
X142678095Y-55293390D02*
X142630476Y-55245771D01*
X142630476Y-55245771D02*
X142535238Y-55198152D01*
X142535238Y-55198152D02*
X142440000Y-55198152D01*
X142344762Y-55960057D02*
X141582857Y-55960057D01*
X141392380Y-54960057D02*
X141344761Y-54912438D01*
X141344761Y-54912438D02*
X141249523Y-54864819D01*
X141249523Y-54864819D02*
X141011428Y-54864819D01*
X141011428Y-54864819D02*
X140916190Y-54912438D01*
X140916190Y-54912438D02*
X140868571Y-54960057D01*
X140868571Y-54960057D02*
X140820952Y-55055295D01*
X140820952Y-55055295D02*
X140820952Y-55150533D01*
X140820952Y-55150533D02*
X140868571Y-55293390D01*
X140868571Y-55293390D02*
X141439999Y-55864819D01*
X141439999Y-55864819D02*
X140820952Y-55864819D01*
X140630476Y-55960057D02*
X139868571Y-55960057D01*
X139439999Y-54864819D02*
X139249523Y-54864819D01*
X139249523Y-54864819D02*
X139154285Y-54912438D01*
X139154285Y-54912438D02*
X139059047Y-55007676D01*
X139059047Y-55007676D02*
X139011428Y-55198152D01*
X139011428Y-55198152D02*
X139011428Y-55531485D01*
X139011428Y-55531485D02*
X139059047Y-55721961D01*
X139059047Y-55721961D02*
X139154285Y-55817200D01*
X139154285Y-55817200D02*
X139249523Y-55864819D01*
X139249523Y-55864819D02*
X139439999Y-55864819D01*
X139439999Y-55864819D02*
X139535237Y-55817200D01*
X139535237Y-55817200D02*
X139630475Y-55721961D01*
X139630475Y-55721961D02*
X139678094Y-55531485D01*
X139678094Y-55531485D02*
X139678094Y-55198152D01*
X139678094Y-55198152D02*
X139630475Y-55007676D01*
X139630475Y-55007676D02*
X139535237Y-54912438D01*
X139535237Y-54912438D02*
X139439999Y-54864819D01*
X138582856Y-55198152D02*
X138582856Y-56198152D01*
X138582856Y-55245771D02*
X138487618Y-55198152D01*
X138487618Y-55198152D02*
X138297142Y-55198152D01*
X138297142Y-55198152D02*
X138201904Y-55245771D01*
X138201904Y-55245771D02*
X138154285Y-55293390D01*
X138154285Y-55293390D02*
X138106666Y-55388628D01*
X138106666Y-55388628D02*
X138106666Y-55674342D01*
X138106666Y-55674342D02*
X138154285Y-55769580D01*
X138154285Y-55769580D02*
X138201904Y-55817200D01*
X138201904Y-55817200D02*
X138297142Y-55864819D01*
X138297142Y-55864819D02*
X138487618Y-55864819D01*
X138487618Y-55864819D02*
X138582856Y-55817200D01*
X137297142Y-55817200D02*
X137392380Y-55864819D01*
X137392380Y-55864819D02*
X137582856Y-55864819D01*
X137582856Y-55864819D02*
X137678094Y-55817200D01*
X137678094Y-55817200D02*
X137725713Y-55721961D01*
X137725713Y-55721961D02*
X137725713Y-55341009D01*
X137725713Y-55341009D02*
X137678094Y-55245771D01*
X137678094Y-55245771D02*
X137582856Y-55198152D01*
X137582856Y-55198152D02*
X137392380Y-55198152D01*
X137392380Y-55198152D02*
X137297142Y-55245771D01*
X137297142Y-55245771D02*
X137249523Y-55341009D01*
X137249523Y-55341009D02*
X137249523Y-55436247D01*
X137249523Y-55436247D02*
X137725713Y-55531485D01*
X136820951Y-55198152D02*
X136820951Y-55864819D01*
X136820951Y-55293390D02*
X136773332Y-55245771D01*
X136773332Y-55245771D02*
X136678094Y-55198152D01*
X136678094Y-55198152D02*
X136535237Y-55198152D01*
X136535237Y-55198152D02*
X136439999Y-55245771D01*
X136439999Y-55245771D02*
X136392380Y-55341009D01*
X136392380Y-55341009D02*
X136392380Y-55864819D01*
D13*
X142273333Y-53761927D02*
X142273333Y-54047641D01*
X142273333Y-54047641D02*
X142292380Y-54104784D01*
X142292380Y-54104784D02*
X142330476Y-54142880D01*
X142330476Y-54142880D02*
X142387618Y-54161927D01*
X142387618Y-54161927D02*
X142425714Y-54161927D01*
X142082856Y-54161927D02*
X142082856Y-53761927D01*
X142082856Y-53761927D02*
X141930475Y-53761927D01*
X141930475Y-53761927D02*
X141892380Y-53780975D01*
X141892380Y-53780975D02*
X141873333Y-53800022D01*
X141873333Y-53800022D02*
X141854285Y-53838118D01*
X141854285Y-53838118D02*
X141854285Y-53895260D01*
X141854285Y-53895260D02*
X141873333Y-53933356D01*
X141873333Y-53933356D02*
X141892380Y-53952403D01*
X141892380Y-53952403D02*
X141930475Y-53971451D01*
X141930475Y-53971451D02*
X142082856Y-53971451D01*
X141701904Y-53800022D02*
X141682856Y-53780975D01*
X141682856Y-53780975D02*
X141644761Y-53761927D01*
X141644761Y-53761927D02*
X141549523Y-53761927D01*
X141549523Y-53761927D02*
X141511428Y-53780975D01*
X141511428Y-53780975D02*
X141492380Y-53800022D01*
X141492380Y-53800022D02*
X141473333Y-53838118D01*
X141473333Y-53838118D02*
X141473333Y-53876213D01*
X141473333Y-53876213D02*
X141492380Y-53933356D01*
X141492380Y-53933356D02*
X141720952Y-54161927D01*
X141720952Y-54161927D02*
X141473333Y-54161927D01*
D11*
X164452856Y-118694819D02*
X164357618Y-118694819D01*
X164357618Y-118694819D02*
X164262380Y-118742438D01*
X164262380Y-118742438D02*
X164214761Y-118790057D01*
X164214761Y-118790057D02*
X164167142Y-118885295D01*
X164167142Y-118885295D02*
X164119523Y-119075771D01*
X164119523Y-119075771D02*
X164119523Y-119313866D01*
X164119523Y-119313866D02*
X164167142Y-119504342D01*
X164167142Y-119504342D02*
X164214761Y-119599580D01*
X164214761Y-119599580D02*
X164262380Y-119647200D01*
X164262380Y-119647200D02*
X164357618Y-119694819D01*
X164357618Y-119694819D02*
X164452856Y-119694819D01*
X164452856Y-119694819D02*
X164548094Y-119647200D01*
X164548094Y-119647200D02*
X164595713Y-119599580D01*
X164595713Y-119599580D02*
X164643332Y-119504342D01*
X164643332Y-119504342D02*
X164690951Y-119313866D01*
X164690951Y-119313866D02*
X164690951Y-119075771D01*
X164690951Y-119075771D02*
X164643332Y-118885295D01*
X164643332Y-118885295D02*
X164595713Y-118790057D01*
X164595713Y-118790057D02*
X164548094Y-118742438D01*
X164548094Y-118742438D02*
X164452856Y-118694819D01*
X163690951Y-119599580D02*
X163643332Y-119647200D01*
X163643332Y-119647200D02*
X163690951Y-119694819D01*
X163690951Y-119694819D02*
X163738570Y-119647200D01*
X163738570Y-119647200D02*
X163690951Y-119599580D01*
X163690951Y-119599580D02*
X163690951Y-119694819D01*
X162690952Y-119694819D02*
X163262380Y-119694819D01*
X162976666Y-119694819D02*
X162976666Y-118694819D01*
X162976666Y-118694819D02*
X163071904Y-118837676D01*
X163071904Y-118837676D02*
X163167142Y-118932914D01*
X163167142Y-118932914D02*
X163262380Y-118980533D01*
X161833809Y-119028152D02*
X161833809Y-119694819D01*
X162262380Y-119028152D02*
X162262380Y-119551961D01*
X162262380Y-119551961D02*
X162214761Y-119647200D01*
X162214761Y-119647200D02*
X162119523Y-119694819D01*
X162119523Y-119694819D02*
X161976666Y-119694819D01*
X161976666Y-119694819D02*
X161881428Y-119647200D01*
X161881428Y-119647200D02*
X161833809Y-119599580D01*
X161024285Y-119171009D02*
X161357618Y-119171009D01*
X161357618Y-119694819D02*
X161357618Y-118694819D01*
X161357618Y-118694819D02*
X160881428Y-118694819D01*
D13*
X162876666Y-117953832D02*
X162895714Y-117972880D01*
X162895714Y-117972880D02*
X162952856Y-117991927D01*
X162952856Y-117991927D02*
X162990952Y-117991927D01*
X162990952Y-117991927D02*
X163048095Y-117972880D01*
X163048095Y-117972880D02*
X163086190Y-117934784D01*
X163086190Y-117934784D02*
X163105237Y-117896689D01*
X163105237Y-117896689D02*
X163124285Y-117820499D01*
X163124285Y-117820499D02*
X163124285Y-117763356D01*
X163124285Y-117763356D02*
X163105237Y-117687165D01*
X163105237Y-117687165D02*
X163086190Y-117649070D01*
X163086190Y-117649070D02*
X163048095Y-117610975D01*
X163048095Y-117610975D02*
X162990952Y-117591927D01*
X162990952Y-117591927D02*
X162952856Y-117591927D01*
X162952856Y-117591927D02*
X162895714Y-117610975D01*
X162895714Y-117610975D02*
X162876666Y-117630022D01*
X162495714Y-117991927D02*
X162724285Y-117991927D01*
X162609999Y-117991927D02*
X162609999Y-117591927D01*
X162609999Y-117591927D02*
X162648095Y-117649070D01*
X162648095Y-117649070D02*
X162686190Y-117687165D01*
X162686190Y-117687165D02*
X162724285Y-117706213D01*
D11*
X168254761Y-116178152D02*
X168254761Y-116844819D01*
X168492856Y-115797200D02*
X168730951Y-116511485D01*
X168730951Y-116511485D02*
X168111904Y-116511485D01*
X167730951Y-116749580D02*
X167683332Y-116797200D01*
X167683332Y-116797200D02*
X167730951Y-116844819D01*
X167730951Y-116844819D02*
X167778570Y-116797200D01*
X167778570Y-116797200D02*
X167730951Y-116749580D01*
X167730951Y-116749580D02*
X167730951Y-116844819D01*
X167349999Y-115844819D02*
X166683333Y-115844819D01*
X166683333Y-115844819D02*
X167111904Y-116844819D01*
X165873809Y-116178152D02*
X165873809Y-116844819D01*
X166302380Y-116178152D02*
X166302380Y-116701961D01*
X166302380Y-116701961D02*
X166254761Y-116797200D01*
X166254761Y-116797200D02*
X166159523Y-116844819D01*
X166159523Y-116844819D02*
X166016666Y-116844819D01*
X166016666Y-116844819D02*
X165921428Y-116797200D01*
X165921428Y-116797200D02*
X165873809Y-116749580D01*
X165064285Y-116321009D02*
X165397618Y-116321009D01*
X165397618Y-116844819D02*
X165397618Y-115844819D01*
X165397618Y-115844819D02*
X164921428Y-115844819D01*
D14*
X166983332Y-118527664D02*
X167021428Y-118565760D01*
X167021428Y-118565760D02*
X167135713Y-118603855D01*
X167135713Y-118603855D02*
X167211904Y-118603855D01*
X167211904Y-118603855D02*
X167326190Y-118565760D01*
X167326190Y-118565760D02*
X167402380Y-118489569D01*
X167402380Y-118489569D02*
X167440475Y-118413379D01*
X167440475Y-118413379D02*
X167478571Y-118260998D01*
X167478571Y-118260998D02*
X167478571Y-118146712D01*
X167478571Y-118146712D02*
X167440475Y-117994331D01*
X167440475Y-117994331D02*
X167402380Y-117918140D01*
X167402380Y-117918140D02*
X167326190Y-117841950D01*
X167326190Y-117841950D02*
X167211904Y-117803855D01*
X167211904Y-117803855D02*
X167135713Y-117803855D01*
X167135713Y-117803855D02*
X167021428Y-117841950D01*
X167021428Y-117841950D02*
X166983332Y-117880045D01*
X166716666Y-117803855D02*
X166221428Y-117803855D01*
X166221428Y-117803855D02*
X166488094Y-118108617D01*
X166488094Y-118108617D02*
X166373809Y-118108617D01*
X166373809Y-118108617D02*
X166297618Y-118146712D01*
X166297618Y-118146712D02*
X166259523Y-118184807D01*
X166259523Y-118184807D02*
X166221428Y-118260998D01*
X166221428Y-118260998D02*
X166221428Y-118451474D01*
X166221428Y-118451474D02*
X166259523Y-118527664D01*
X166259523Y-118527664D02*
X166297618Y-118565760D01*
X166297618Y-118565760D02*
X166373809Y-118603855D01*
X166373809Y-118603855D02*
X166602380Y-118603855D01*
X166602380Y-118603855D02*
X166678571Y-118565760D01*
X166678571Y-118565760D02*
X166716666Y-118527664D01*
%TO.C,R1*%
D15*
X141880000Y-57377500D02*
X143480000Y-57377500D01*
X141880000Y-58202500D02*
X141880000Y-57377500D01*
X143480000Y-57377500D02*
X143480000Y-58202500D01*
X143480000Y-58202500D02*
X141880000Y-58202500D01*
%TO.C,RN1*%
D16*
X154899100Y-62784200D02*
X154899100Y-63241400D01*
X154899100Y-62784200D02*
X156600900Y-62784200D01*
X154899100Y-63734922D02*
X154899100Y-63277722D01*
X154899100Y-64228444D02*
X154899100Y-63771244D01*
X154899100Y-64721966D02*
X154899100Y-64264766D01*
X154899100Y-65215488D02*
X154899100Y-64758288D01*
X154899100Y-65709010D02*
X154899100Y-65251810D01*
X154899100Y-66202532D02*
X154899100Y-65745332D01*
X154899100Y-66238600D02*
X154899100Y-66238854D01*
X154899100Y-66695800D02*
X154899100Y-66238600D01*
X154899100Y-66695800D02*
X156600900Y-66695800D01*
X156600900Y-62784200D02*
X156600900Y-63241400D01*
X156600900Y-63038200D02*
X156346900Y-62784200D01*
X156600900Y-63734922D02*
X156600900Y-63277722D01*
X156600900Y-64228444D02*
X156600900Y-63771244D01*
X156600900Y-64721966D02*
X156600900Y-64264766D01*
X156600900Y-65215488D02*
X156600900Y-64758288D01*
X156600900Y-65709010D02*
X156600900Y-65251810D01*
X156600900Y-66202532D02*
X156600900Y-65745332D01*
X156600900Y-66238600D02*
X156600900Y-66238854D01*
X156600900Y-66695800D02*
X156600900Y-66238600D01*
X154899100Y-63241400D02*
G75*
G02*
X154899100Y-63277720I0J-18160D01*
G01*
X154899100Y-63734922D02*
G75*
G02*
X154899100Y-63771278I0J-18178D01*
G01*
X154899100Y-64228444D02*
G75*
G02*
X154899100Y-64264756I0J-18156D01*
G01*
X154899100Y-64721966D02*
G75*
G02*
X154899100Y-64758234I0J-18134D01*
G01*
X154899100Y-65215488D02*
G75*
G02*
X154899100Y-65251812I0J-18162D01*
G01*
X154899100Y-65709010D02*
G75*
G02*
X154899100Y-65745390I0J-18190D01*
G01*
X154899100Y-66202532D02*
G75*
G02*
X154899100Y-66238868I0J-18168D01*
G01*
X156600900Y-63277722D02*
G75*
G02*
X156600900Y-63241400I0J18161D01*
G01*
X156600900Y-63771244D02*
G75*
G02*
X156600900Y-63734922I0J18161D01*
G01*
X156600900Y-64264766D02*
G75*
G02*
X156600900Y-64228444I0J18161D01*
G01*
X156600900Y-64758288D02*
G75*
G02*
X156600900Y-64721966I0J18161D01*
G01*
X156600900Y-65251810D02*
G75*
G02*
X156600900Y-65215488I0J18161D01*
G01*
X156600900Y-65745332D02*
G75*
G02*
X156600900Y-65709010I0J18161D01*
G01*
X156600900Y-66238854D02*
G75*
G02*
X156600900Y-66202532I0J18161D01*
G01*
%TO.C,R2*%
D15*
X141885000Y-58847500D02*
X143485000Y-58847500D01*
X141885000Y-59672500D02*
X141885000Y-58847500D01*
X143485000Y-58847500D02*
X143485000Y-59672500D01*
X143485000Y-59672500D02*
X141885000Y-59672500D01*
%TO.C,RN2*%
D16*
X152485363Y-78721282D02*
X152808653Y-78397993D01*
X152664969Y-78541677D02*
X152664969Y-78900887D01*
X153157625Y-78049020D02*
X152834336Y-78372310D01*
X153506598Y-77700048D02*
X153183309Y-78023337D01*
X153688718Y-79924637D02*
X152485363Y-78721282D01*
X153688718Y-79924637D02*
X154012007Y-79601347D01*
X153855571Y-77351075D02*
X153532282Y-77674364D01*
X154204544Y-77002102D02*
X153881254Y-77325391D01*
X154360980Y-79252375D02*
X154037690Y-79575664D01*
X154553516Y-76653129D02*
X154230227Y-76976419D01*
X154709952Y-78903402D02*
X154386663Y-79226691D01*
X154902489Y-76304157D02*
X154579200Y-76627446D01*
X154927993Y-76278653D02*
X154928173Y-76278473D01*
X155058925Y-78554429D02*
X154735636Y-78877718D01*
X155251282Y-75955363D02*
X154927993Y-76278653D01*
X155407898Y-78205456D02*
X155084609Y-78528746D01*
X155756871Y-77856484D02*
X155433581Y-78179773D01*
X156105843Y-77507511D02*
X155782554Y-77830800D01*
X156131347Y-77482007D02*
X156131527Y-77481827D01*
X156454637Y-77158718D02*
X155251282Y-75955363D01*
X156454637Y-77158718D02*
X156131347Y-77482007D01*
X152834336Y-78372310D02*
G75*
G02*
X152808653Y-78397993I-12842J-12841D01*
G01*
X153183309Y-78023337D02*
G75*
G02*
X153157626Y-78049020I-12841J-12842D01*
G01*
X153532282Y-77674364D02*
G75*
G02*
X153506599Y-77700047I-12841J-12842D01*
G01*
X153881254Y-77325391D02*
G75*
G02*
X153855571Y-77351075I-12841J-12842D01*
G01*
X154012007Y-79601347D02*
G75*
G02*
X154037689Y-79575665I12841J12841D01*
G01*
X154230227Y-76976419D02*
G75*
G02*
X154204544Y-77002102I-12842J-12841D01*
G01*
X154360980Y-79252375D02*
G75*
G02*
X154386687Y-79226667I12853J12854D01*
G01*
X154579200Y-76627446D02*
G75*
G02*
X154553517Y-76653129I-12841J-12842D01*
G01*
X154709952Y-78903402D02*
G75*
G02*
X154735629Y-78877725I12839J12838D01*
G01*
X154928173Y-76278473D02*
G75*
G02*
X154902490Y-76304156I-12841J-12842D01*
G01*
X155058925Y-78554429D02*
G75*
G02*
X155084571Y-78528783I12823J12823D01*
G01*
X155407898Y-78205456D02*
G75*
G02*
X155433582Y-78179772I12842J12842D01*
G01*
X155756871Y-77856484D02*
G75*
G02*
X155782596Y-77830758I12862J12863D01*
G01*
X156105843Y-77507511D02*
G75*
G02*
X156131537Y-77481817I12847J12847D01*
G01*
%TO.C,C5*%
D15*
X159400000Y-58880000D02*
X161000000Y-58880000D01*
X159400000Y-59680000D02*
X159400000Y-58880000D01*
X161000000Y-58880000D02*
X161000000Y-59680000D01*
X161000000Y-59680000D02*
X159400000Y-59680000D01*
%TO.C,JP1*%
X159410000Y-54807500D02*
X161010000Y-54807500D01*
X159410000Y-55632500D02*
X159410000Y-54807500D01*
X161010000Y-54807500D02*
X161010000Y-55632500D01*
X161010000Y-55632500D02*
X159410000Y-55632500D01*
%TO.C,RN3*%
D16*
X156615363Y-74551282D02*
X156938653Y-74227993D01*
X156615363Y-74551282D02*
X157818718Y-75754637D01*
X156938653Y-74227993D02*
X156938473Y-74228173D01*
X156964157Y-74202489D02*
X157287446Y-73879200D01*
X157313129Y-73853516D02*
X157636419Y-73530227D01*
X157662102Y-73504544D02*
X157985391Y-73181254D01*
X157818718Y-75754637D02*
X158142007Y-75431347D01*
X158011075Y-73155571D02*
X158334364Y-72832282D01*
X158142007Y-75431347D02*
X158141827Y-75431527D01*
X158167511Y-75405843D02*
X158490800Y-75082554D01*
X158360048Y-72806598D02*
X158683337Y-72483309D01*
X158516484Y-75056871D02*
X158839773Y-74733581D01*
X158709020Y-72457625D02*
X159032310Y-72134336D01*
X158865456Y-74707898D02*
X159188746Y-74384609D01*
X159214429Y-74358925D02*
X159537718Y-74035636D01*
X159381282Y-71785363D02*
X159057993Y-72108653D01*
X159381282Y-71785363D02*
X160584637Y-72988718D01*
X159563402Y-74009952D02*
X159886691Y-73686663D01*
X159912375Y-73660980D02*
X160235664Y-73337690D01*
X160405031Y-73168323D02*
X160405031Y-72809113D01*
X160584637Y-72988718D02*
X160261347Y-73312007D01*
X156964157Y-74202489D02*
G75*
G02*
X156938463Y-74228183I-12847J-12847D01*
G01*
X157313129Y-73853516D02*
G75*
G02*
X157287404Y-73879242I-12862J-12863D01*
G01*
X157662102Y-73504544D02*
G75*
G02*
X157636418Y-73530228I-12842J-12842D01*
G01*
X158011075Y-73155571D02*
G75*
G02*
X157985429Y-73181217I-12823J-12823D01*
G01*
X158141827Y-75431527D02*
G75*
G02*
X158167510Y-75405844I12841J12842D01*
G01*
X158360048Y-72806598D02*
G75*
G02*
X158334371Y-72832275I-12839J-12838D01*
G01*
X158490800Y-75082554D02*
G75*
G02*
X158516483Y-75056871I12841J12842D01*
G01*
X158709020Y-72457625D02*
G75*
G02*
X158683313Y-72483333I-12853J-12854D01*
G01*
X158839773Y-74733581D02*
G75*
G02*
X158865456Y-74707898I12842J12841D01*
G01*
X159057993Y-72108653D02*
G75*
G02*
X159032311Y-72134335I-12841J-12841D01*
G01*
X159188746Y-74384609D02*
G75*
G02*
X159214429Y-74358925I12841J12842D01*
G01*
X159537718Y-74035636D02*
G75*
G02*
X159563401Y-74009953I12841J12842D01*
G01*
X159886691Y-73686663D02*
G75*
G02*
X159912374Y-73660980I12841J12842D01*
G01*
X160235664Y-73337690D02*
G75*
G02*
X160261347Y-73312007I12842J12841D01*
G01*
%TO.C,C2*%
D15*
X141170000Y-79860000D02*
X142770000Y-79860000D01*
X141170000Y-80660000D02*
X141170000Y-79860000D01*
X142770000Y-79860000D02*
X142770000Y-80660000D01*
X142770000Y-80660000D02*
X141170000Y-80660000D01*
%TO.C,R3*%
X144487500Y-57720000D02*
X145312500Y-57720000D01*
X144487500Y-59320000D02*
X144487500Y-57720000D01*
X145312500Y-57720000D02*
X145312500Y-59320000D01*
X145312500Y-59320000D02*
X144487500Y-59320000D01*
%TO.C,J1*%
X133350000Y-53855000D02*
X134445000Y-53855000D01*
X133350000Y-54255000D02*
X133350000Y-53855000D01*
X133350000Y-55125000D02*
X134395000Y-55125000D01*
X133350000Y-55525000D02*
X133350000Y-55125000D01*
X133350000Y-56395000D02*
X134395000Y-56395000D01*
X133350000Y-56795000D02*
X133350000Y-56395000D01*
X133350000Y-57665000D02*
X134395000Y-57665000D01*
X133350000Y-58065000D02*
X133350000Y-57665000D01*
X133350000Y-58935000D02*
X134395000Y-58935000D01*
X133350000Y-59335000D02*
X133350000Y-58935000D01*
X133350000Y-60205000D02*
X134395000Y-60205000D01*
X133350000Y-60605000D02*
X133350000Y-60205000D01*
X133350000Y-61475000D02*
X134395000Y-61475000D01*
X133350000Y-61875000D02*
X133350000Y-61475000D01*
X133350000Y-62745000D02*
X134395000Y-62745000D01*
X133350000Y-63145000D02*
X133350000Y-62745000D01*
X133350000Y-64015000D02*
X134395000Y-64015000D01*
X133350000Y-64415000D02*
X133350000Y-64015000D01*
X133350000Y-65285000D02*
X134395000Y-65285000D01*
X133350000Y-65685000D02*
X133350000Y-65285000D01*
X133350000Y-66555000D02*
X134395000Y-66555000D01*
X133350000Y-66955000D02*
X133350000Y-66555000D01*
X133350000Y-67825000D02*
X134395000Y-67825000D01*
X133350000Y-68225000D02*
X133350000Y-67825000D01*
X133350000Y-69095000D02*
X134395000Y-69095000D01*
X133350000Y-69495000D02*
X133350000Y-69095000D01*
X133350000Y-70365000D02*
X134395000Y-70365000D01*
X133350000Y-70765000D02*
X133350000Y-70365000D01*
X133350000Y-71635000D02*
X134395000Y-71635000D01*
X133350000Y-72035000D02*
X133350000Y-71635000D01*
X133350000Y-72905000D02*
X134395000Y-72905000D01*
X133350000Y-73305000D02*
X133350000Y-72905000D01*
X133350000Y-74175000D02*
X134395000Y-74175000D01*
X133350000Y-74575000D02*
X133350000Y-74175000D01*
X133350000Y-75445000D02*
X134395000Y-75445000D01*
X133350000Y-75845000D02*
X133350000Y-75445000D01*
X133350000Y-76715000D02*
X134395000Y-76715000D01*
X133350000Y-77115000D02*
X133350000Y-76715000D01*
X133350000Y-77985000D02*
X134395000Y-77985000D01*
X133350000Y-78385000D02*
X133350000Y-77985000D01*
X133350000Y-79255000D02*
X134395000Y-79255000D01*
X133350000Y-79655000D02*
X133350000Y-79255000D01*
X133350000Y-80525000D02*
X134395000Y-80525000D01*
X133350000Y-80925000D02*
X133350000Y-80525000D01*
X134395000Y-55525000D02*
X133350000Y-55525000D01*
X134395000Y-56795000D02*
X133350000Y-56795000D01*
X134395000Y-58065000D02*
X133350000Y-58065000D01*
X134395000Y-59335000D02*
X133350000Y-59335000D01*
X134395000Y-60605000D02*
X133350000Y-60605000D01*
X134395000Y-61875000D02*
X133350000Y-61875000D01*
X134395000Y-63145000D02*
X133350000Y-63145000D01*
X134395000Y-64415000D02*
X133350000Y-64415000D01*
X134395000Y-65685000D02*
X133350000Y-65685000D01*
X134395000Y-66955000D02*
X133350000Y-66955000D01*
X134395000Y-68225000D02*
X133350000Y-68225000D01*
X134395000Y-69495000D02*
X133350000Y-69495000D01*
X134395000Y-70765000D02*
X133350000Y-70765000D01*
X134395000Y-72035000D02*
X133350000Y-72035000D01*
X134395000Y-73305000D02*
X133350000Y-73305000D01*
X134395000Y-74575000D02*
X133350000Y-74575000D01*
X134395000Y-75845000D02*
X133350000Y-75845000D01*
X134395000Y-77115000D02*
X133350000Y-77115000D01*
X134395000Y-78385000D02*
X133350000Y-78385000D01*
X134395000Y-79655000D02*
X133350000Y-79655000D01*
X134395000Y-80925000D02*
X133350000Y-80925000D01*
X134445000Y-53855000D02*
X134445000Y-81360000D01*
X134445000Y-54255000D02*
X133350000Y-54255000D01*
X134445000Y-81360000D02*
X137855000Y-81360000D01*
X134880000Y-53420000D02*
X134445000Y-53855000D01*
X137855000Y-53420000D02*
X134880000Y-53420000D01*
X137855000Y-81360000D02*
X137855000Y-53420000D01*
X137905000Y-54255000D02*
X138950000Y-54255000D01*
X137905000Y-55525000D02*
X138950000Y-55525000D01*
X137905000Y-56795000D02*
X138950000Y-56795000D01*
X137905000Y-58065000D02*
X138950000Y-58065000D01*
X137905000Y-59335000D02*
X138950000Y-59335000D01*
X137905000Y-60605000D02*
X138950000Y-60605000D01*
X137905000Y-61875000D02*
X138950000Y-61875000D01*
X137905000Y-63145000D02*
X138950000Y-63145000D01*
X137905000Y-64415000D02*
X138950000Y-64415000D01*
X137905000Y-65685000D02*
X138950000Y-65685000D01*
X137905000Y-66955000D02*
X138950000Y-66955000D01*
X137905000Y-68225000D02*
X138950000Y-68225000D01*
X137905000Y-69495000D02*
X138950000Y-69495000D01*
X137905000Y-70765000D02*
X138950000Y-70765000D01*
X137905000Y-72035000D02*
X138950000Y-72035000D01*
X137905000Y-73305000D02*
X138950000Y-73305000D01*
X137905000Y-74575000D02*
X138950000Y-74575000D01*
X137905000Y-75845000D02*
X138950000Y-75845000D01*
X137905000Y-77115000D02*
X138950000Y-77115000D01*
X137905000Y-78385000D02*
X138950000Y-78385000D01*
X137905000Y-79655000D02*
X138950000Y-79655000D01*
X137905000Y-80925000D02*
X138950000Y-80925000D01*
X138950000Y-53855000D02*
X137905000Y-53855000D01*
X138950000Y-54255000D02*
X138950000Y-53855000D01*
X138950000Y-55125000D02*
X137905000Y-55125000D01*
X138950000Y-55525000D02*
X138950000Y-55125000D01*
X138950000Y-56395000D02*
X137905000Y-56395000D01*
X138950000Y-56795000D02*
X138950000Y-56395000D01*
X138950000Y-57665000D02*
X137905000Y-57665000D01*
X138950000Y-58065000D02*
X138950000Y-57665000D01*
X138950000Y-58935000D02*
X137905000Y-58935000D01*
X138950000Y-59335000D02*
X138950000Y-58935000D01*
X138950000Y-60205000D02*
X137905000Y-60205000D01*
X138950000Y-60605000D02*
X138950000Y-60205000D01*
X138950000Y-61475000D02*
X137905000Y-61475000D01*
X138950000Y-61875000D02*
X138950000Y-61475000D01*
X138950000Y-62745000D02*
X137905000Y-62745000D01*
X138950000Y-63145000D02*
X138950000Y-62745000D01*
X138950000Y-64015000D02*
X137905000Y-64015000D01*
X138950000Y-64415000D02*
X138950000Y-64015000D01*
X138950000Y-65285000D02*
X137905000Y-65285000D01*
X138950000Y-65685000D02*
X138950000Y-65285000D01*
X138950000Y-66555000D02*
X137905000Y-66555000D01*
X138950000Y-66955000D02*
X138950000Y-66555000D01*
X138950000Y-67825000D02*
X137905000Y-67825000D01*
X138950000Y-68225000D02*
X138950000Y-67825000D01*
X138950000Y-69095000D02*
X137905000Y-69095000D01*
X138950000Y-69495000D02*
X138950000Y-69095000D01*
X138950000Y-70365000D02*
X137905000Y-70365000D01*
X138950000Y-70765000D02*
X138950000Y-70365000D01*
X138950000Y-71635000D02*
X137905000Y-71635000D01*
X138950000Y-72035000D02*
X138950000Y-71635000D01*
X138950000Y-72905000D02*
X137905000Y-72905000D01*
X138950000Y-73305000D02*
X138950000Y-72905000D01*
X138950000Y-74175000D02*
X137905000Y-74175000D01*
X138950000Y-74575000D02*
X138950000Y-74175000D01*
X138950000Y-75445000D02*
X137905000Y-75445000D01*
X138950000Y-75845000D02*
X138950000Y-75445000D01*
X138950000Y-76715000D02*
X137905000Y-76715000D01*
X138950000Y-77115000D02*
X138950000Y-76715000D01*
X138950000Y-77985000D02*
X137905000Y-77985000D01*
X138950000Y-78385000D02*
X138950000Y-77985000D01*
X138950000Y-79255000D02*
X137905000Y-79255000D01*
X138950000Y-79655000D02*
X138950000Y-79255000D01*
X138950000Y-80525000D02*
X137905000Y-80525000D01*
X138950000Y-80925000D02*
X138950000Y-80525000D01*
%TO.C,C6*%
X154650000Y-58050000D02*
X157850000Y-58050000D01*
X154650000Y-59650000D02*
X154650000Y-58050000D01*
X157850000Y-58050000D02*
X157850000Y-59650000D01*
X157850000Y-59650000D02*
X154650000Y-59650000D01*
%TO.C,C4*%
X144200000Y-79040000D02*
X147400000Y-79040000D01*
X144200000Y-80640000D02*
X144200000Y-79040000D01*
X147400000Y-79040000D02*
X147400000Y-80640000D01*
X147400000Y-80640000D02*
X144200000Y-80640000D01*
%TO.C,JP2*%
X141140000Y-53567500D02*
X142740000Y-53567500D01*
X141140000Y-54392500D02*
X141140000Y-53567500D01*
X142740000Y-53567500D02*
X142740000Y-54392500D01*
X142740000Y-54392500D02*
X141140000Y-54392500D01*
%TO.C,C1*%
X162010000Y-117410000D02*
X163610000Y-117410000D01*
X162010000Y-118210000D02*
X162010000Y-117410000D01*
X163610000Y-117410000D02*
X163610000Y-118210000D01*
X163610000Y-118210000D02*
X162010000Y-118210000D01*
%TO.C,C3*%
X165250000Y-117440000D02*
X168450000Y-117440000D01*
X165250000Y-119040000D02*
X165250000Y-117440000D01*
X168450000Y-117440000D02*
X168450000Y-119040000D01*
X168450000Y-119040000D02*
X165250000Y-119040000D01*
%TD*%
M02*
