%TF.GenerationSoftware,KiCad,Pcbnew,10.0.3*%
%TF.CreationDate,2026-09-06T00:29:23-07:00*%
%TF.ProjectId,OBI Data Interconnect,4f424920-4461-4746-9120-496e74657263,rev?*%
%TF.SameCoordinates,Original*%
%TF.FileFunction,Soldermask,Top*%
%TF.FilePolarity,Negative*%
%FSLAX46Y46*%
G04 Gerber Fmt 4.6, Leading zero omitted, Abs format (unit mm)*
G04 Created by KiCad (PCBNEW 10.0.3) date 2026-09-06 00:29:23*
%MOMM*%
%LPD*%
G01*
G04 APERTURE LIST*
G04 Aperture macros list*
%AMRoundRect*
0 Rectangle with rounded corners*
0 $1 Rounding radius*
0 $2 $3 $4 $5 $6 $7 $8 $9 X,Y pos of 4 corners*
0 Add a 4 corners polygon primitive as box body*
4,1,4,$2,$3,$4,$5,$6,$7,$8,$9,$2,$3,0*
0 Add four circle primitives for the rounded corners*
1,1,$1+$1,$2,$3*
1,1,$1+$1,$4,$5*
1,1,$1+$1,$6,$7*
1,1,$1+$1,$8,$9*
0 Add four rect primitives between the rounded corners*
20,1,$1+$1,$2,$3,$4,$5,0*
20,1,$1+$1,$4,$5,$6,$7,0*
20,1,$1+$1,$6,$7,$8,$9,0*
20,1,$1+$1,$8,$9,$2,$3,0*%
G04 Aperture macros list end*
%ADD10RoundRect,0.250000X-0.600000X-0.600000X0.600000X-0.600000X0.600000X0.600000X-0.600000X0.600000X0*%
%ADD11C,1.700000*%
%ADD12C,0.800000*%
%ADD13C,7.000000*%
%ADD14R,1.700000X1.700000*%
%ADD15O,1.700000X1.700000*%
G04 APERTURE END LIST*
D10*
%TO.C,J2*%
X165810000Y-52480000D03*
D11*
X168350000Y-52480000D03*
X165810000Y-55020000D03*
X168350000Y-55020000D03*
X165810000Y-57560000D03*
X168350000Y-57560000D03*
X165810000Y-60100000D03*
X168350000Y-60100000D03*
X165810000Y-62640000D03*
X168350000Y-62640000D03*
X165810000Y-65180000D03*
X168350000Y-65180000D03*
X165810000Y-67720000D03*
X168350000Y-67720000D03*
X165810000Y-70260000D03*
X168350000Y-70260000D03*
X165810000Y-72800000D03*
X168350000Y-72800000D03*
X165810000Y-75340000D03*
X168350000Y-75340000D03*
%TD*%
D10*
%TO.C,J4*%
X165810000Y-88040000D03*
D11*
X168350000Y-88040000D03*
X165810000Y-90580000D03*
X168350000Y-90580000D03*
X165810000Y-93120000D03*
X168350000Y-93120000D03*
X165810000Y-95660000D03*
X168350000Y-95660000D03*
X165810000Y-98200000D03*
X168350000Y-98200000D03*
X165810000Y-100740000D03*
X168350000Y-100740000D03*
X165810000Y-103280000D03*
X168350000Y-103280000D03*
X165810000Y-105820000D03*
X168350000Y-105820000D03*
X165810000Y-108360000D03*
X168350000Y-108360000D03*
X165810000Y-110900000D03*
X168350000Y-110900000D03*
%TD*%
D10*
%TO.C,J3*%
X155650000Y-88040000D03*
D11*
X158190000Y-88040000D03*
X155650000Y-90580000D03*
X158190000Y-90580000D03*
X155650000Y-93120000D03*
X158190000Y-93120000D03*
X155650000Y-95660000D03*
X158190000Y-95660000D03*
X155650000Y-98200000D03*
X158190000Y-98200000D03*
X155650000Y-100740000D03*
X158190000Y-100740000D03*
X155650000Y-103280000D03*
X158190000Y-103280000D03*
X155650000Y-105820000D03*
X158190000Y-105820000D03*
X155650000Y-108360000D03*
X158190000Y-108360000D03*
X155650000Y-110900000D03*
X158190000Y-110900000D03*
%TD*%
D12*
%TO.C,H3*%
X153025000Y-120900000D03*
X153793845Y-119043845D03*
X153793845Y-122756155D03*
X155650000Y-118275000D03*
D13*
X155650000Y-120900000D03*
D12*
X155650000Y-123525000D03*
X157506155Y-119043845D03*
X157506155Y-122756155D03*
X158275000Y-120900000D03*
%TD*%
%TO.C,H1*%
X135025000Y-48900000D03*
X135793845Y-47043845D03*
X135793845Y-50756155D03*
X137650000Y-46275000D03*
D13*
X137650000Y-48900000D03*
D12*
X137650000Y-51525000D03*
X139506155Y-47043845D03*
X139506155Y-50756155D03*
X140275000Y-48900000D03*
%TD*%
%TO.C,H2*%
X153025000Y-48900000D03*
X153793845Y-47043845D03*
X153793845Y-50756155D03*
X155650000Y-46275000D03*
D13*
X155650000Y-48900000D03*
D12*
X155650000Y-51525000D03*
X157506155Y-47043845D03*
X157506155Y-50756155D03*
X158275000Y-48900000D03*
%TD*%
D14*
%TO.C,J5*%
X147495000Y-59810000D03*
D15*
X147495000Y-57270000D03*
%TD*%
M02*
