%TF.GenerationSoftware,KiCad,Pcbnew,10.0.3*%
%TF.CreationDate,2026-09-06T00:29:23-07:00*%
%TF.ProjectId,OBI Data Interconnect,4f424920-4461-4746-9120-496e74657263,rev?*%
%TF.SameCoordinates,Original*%
%TF.FileFunction,Legend,Top*%
%TF.FilePolarity,Positive*%
%FSLAX46Y46*%
G04 Gerber Fmt 4.6, Leading zero omitted, Abs format (unit mm)*
G04 Created by KiCad (PCBNEW 10.0.3) date 2026-09-06 00:29:23*
%MOMM*%
%LPD*%
G01*
G04 APERTURE LIST*
%ADD10C,0.150000*%
%ADD11C,0.125000*%
%ADD12C,0.200000*%
%ADD13C,0.120000*%
%ADD14C,0.000000*%
G04 APERTURE END LIST*
D10*
X138347976Y-62399523D02*
G75*
G02*
X141115102Y-63545687I1146224J-1146077D01*
G01*
X139246000Y-66345548D02*
X140262000Y-65329548D01*
X135572026Y-62399524D02*
G75*
G02*
X138347974Y-62399523I1387974J-76D01*
G01*
X134677933Y-66322047D02*
X136198000Y-64801980D01*
X138690695Y-66049512D02*
G75*
G02*
X137261305Y-66049512I-714695J714696D01*
G01*
X137276634Y-66181616D02*
G75*
G02*
X135847244Y-66181616I-714695J714696D01*
G01*
X134052128Y-65723676D02*
G75*
G02*
X133404000Y-64159045I-648128J648076D01*
G01*
X133150000Y-65837548D02*
X134674000Y-64313548D01*
X135714344Y-66115892D02*
G75*
G02*
X134090887Y-65443420I-672444J672492D01*
G01*
X140262000Y-66091548D02*
G75*
G02*
X138832610Y-66091548I-714695J714696D01*
G01*
X133375001Y-64099501D02*
G75*
G02*
X136264745Y-62902566I1692799J-99D01*
G01*
X141180629Y-63563085D02*
G75*
G02*
X140034465Y-66330132I-1146229J-1146115D01*
G01*
X137976000Y-66345548D02*
X139246000Y-65075548D01*
X134166000Y-65837548D02*
X135436000Y-64567548D01*
X132557180Y-65426312D02*
X133923944Y-64059548D01*
X135714344Y-66115892D02*
X136960000Y-64870236D01*
X140262000Y-66091548D02*
X141024000Y-65329548D01*
X136561939Y-66477652D02*
X137976000Y-65063591D01*
D11*
X136565742Y-66781143D02*
X136611738Y-66793468D01*
X136611738Y-66793468D02*
X136651572Y-66828791D01*
X136651572Y-66828791D02*
X136668408Y-66857951D01*
X136668408Y-66857951D02*
X136679082Y-66910110D01*
X136679082Y-66910110D02*
X136677430Y-67008265D01*
X136677430Y-67008265D02*
X136646619Y-67123257D01*
X136646619Y-67123257D02*
X136598971Y-67209087D01*
X136598971Y-67209087D02*
X136563648Y-67248921D01*
X136563648Y-67248921D02*
X136534487Y-67265757D01*
X136534487Y-67265757D02*
X136482329Y-67276431D01*
X136482329Y-67276431D02*
X136436332Y-67264106D01*
X136436332Y-67264106D02*
X136396498Y-67228783D01*
X136396498Y-67228783D02*
X136379662Y-67199622D01*
X136379662Y-67199622D02*
X136368989Y-67147464D01*
X136368989Y-67147464D02*
X136370640Y-67049308D01*
X136370640Y-67049308D02*
X136401452Y-66934317D01*
X136401452Y-66934317D02*
X136449099Y-66848487D01*
X136449099Y-66848487D02*
X136484422Y-66808652D01*
X136484422Y-66808652D02*
X136513583Y-66791817D01*
X136513583Y-66791817D02*
X136565742Y-66781143D01*
X136388978Y-68084785D02*
X136112999Y-68010837D01*
X136250988Y-68047811D02*
X136380398Y-67564848D01*
X136380398Y-67564848D02*
X136315914Y-67621518D01*
X136315914Y-67621518D02*
X136257593Y-67655190D01*
X136257593Y-67655190D02*
X136205434Y-67665864D01*
X136180636Y-68862328D02*
X135904657Y-68788380D01*
X136042646Y-68825354D02*
X136172056Y-68342391D01*
X136172056Y-68342391D02*
X136107572Y-68399061D01*
X136107572Y-68399061D02*
X136049251Y-68432733D01*
X136049251Y-68432733D02*
X135997092Y-68443407D01*
X135940716Y-69113772D02*
X135986712Y-69126097D01*
X135986712Y-69126097D02*
X136026546Y-69161420D01*
X136026546Y-69161420D02*
X136043382Y-69190580D01*
X136043382Y-69190580D02*
X136054056Y-69242739D01*
X136054056Y-69242739D02*
X136052404Y-69340894D01*
X136052404Y-69340894D02*
X136021593Y-69455886D01*
X136021593Y-69455886D02*
X135973945Y-69541716D01*
X135973945Y-69541716D02*
X135938622Y-69581550D01*
X135938622Y-69581550D02*
X135909461Y-69598386D01*
X135909461Y-69598386D02*
X135857303Y-69609060D01*
X135857303Y-69609060D02*
X135811306Y-69596735D01*
X135811306Y-69596735D02*
X135771472Y-69561412D01*
X135771472Y-69561412D02*
X135754636Y-69532251D01*
X135754636Y-69532251D02*
X135743963Y-69480093D01*
X135743963Y-69480093D02*
X135745614Y-69381937D01*
X135745614Y-69381937D02*
X135776426Y-69266946D01*
X135776426Y-69266946D02*
X135824073Y-69181116D01*
X135824073Y-69181116D02*
X135859396Y-69141281D01*
X135859396Y-69141281D02*
X135888557Y-69124446D01*
X135888557Y-69124446D02*
X135940716Y-69113772D01*
X135763952Y-70417414D02*
X135487973Y-70343466D01*
X135625962Y-70380440D02*
X135755372Y-69897477D01*
X135755372Y-69897477D02*
X135690888Y-69954147D01*
X135690888Y-69954147D02*
X135632567Y-69987819D01*
X135632567Y-69987819D02*
X135580408Y-69998493D01*
X135555610Y-71194957D02*
X135279631Y-71121009D01*
X135417620Y-71157983D02*
X135547030Y-70675020D01*
X135547030Y-70675020D02*
X135482546Y-70731690D01*
X135482546Y-70731690D02*
X135424225Y-70765362D01*
X135424225Y-70765362D02*
X135372066Y-70776036D01*
X135315690Y-71446401D02*
X135361686Y-71458726D01*
X135361686Y-71458726D02*
X135401520Y-71494049D01*
X135401520Y-71494049D02*
X135418356Y-71523209D01*
X135418356Y-71523209D02*
X135429030Y-71575368D01*
X135429030Y-71575368D02*
X135427378Y-71673523D01*
X135427378Y-71673523D02*
X135396567Y-71788515D01*
X135396567Y-71788515D02*
X135348919Y-71874345D01*
X135348919Y-71874345D02*
X135313596Y-71914179D01*
X135313596Y-71914179D02*
X135284435Y-71931015D01*
X135284435Y-71931015D02*
X135232277Y-71941689D01*
X135232277Y-71941689D02*
X135186280Y-71929364D01*
X135186280Y-71929364D02*
X135146446Y-71894041D01*
X135146446Y-71894041D02*
X135129610Y-71864880D01*
X135129610Y-71864880D02*
X135118937Y-71812722D01*
X135118937Y-71812722D02*
X135120588Y-71714566D01*
X135120588Y-71714566D02*
X135151400Y-71599575D01*
X135151400Y-71599575D02*
X135199047Y-71513745D01*
X135199047Y-71513745D02*
X135234370Y-71473910D01*
X135234370Y-71473910D02*
X135263531Y-71457075D01*
X135263531Y-71457075D02*
X135315690Y-71446401D01*
X135107348Y-72223944D02*
X135153344Y-72236269D01*
X135153344Y-72236269D02*
X135193178Y-72271592D01*
X135193178Y-72271592D02*
X135210014Y-72300752D01*
X135210014Y-72300752D02*
X135220688Y-72352911D01*
X135220688Y-72352911D02*
X135219036Y-72451066D01*
X135219036Y-72451066D02*
X135188225Y-72566058D01*
X135188225Y-72566058D02*
X135140577Y-72651888D01*
X135140577Y-72651888D02*
X135105254Y-72691722D01*
X135105254Y-72691722D02*
X135076093Y-72708558D01*
X135076093Y-72708558D02*
X135023935Y-72719232D01*
X135023935Y-72719232D02*
X134977938Y-72706907D01*
X134977938Y-72706907D02*
X134938104Y-72671584D01*
X134938104Y-72671584D02*
X134921268Y-72642423D01*
X134921268Y-72642423D02*
X134910595Y-72590265D01*
X134910595Y-72590265D02*
X134912246Y-72492109D01*
X134912246Y-72492109D02*
X134943058Y-72377118D01*
X134943058Y-72377118D02*
X134990705Y-72291288D01*
X134990705Y-72291288D02*
X135026028Y-72251453D01*
X135026028Y-72251453D02*
X135055189Y-72234618D01*
X135055189Y-72234618D02*
X135107348Y-72223944D01*
X138089742Y-66781143D02*
X138135738Y-66793468D01*
X138135738Y-66793468D02*
X138175572Y-66828791D01*
X138175572Y-66828791D02*
X138192408Y-66857951D01*
X138192408Y-66857951D02*
X138203082Y-66910110D01*
X138203082Y-66910110D02*
X138201430Y-67008265D01*
X138201430Y-67008265D02*
X138170619Y-67123257D01*
X138170619Y-67123257D02*
X138122971Y-67209087D01*
X138122971Y-67209087D02*
X138087648Y-67248921D01*
X138087648Y-67248921D02*
X138058487Y-67265757D01*
X138058487Y-67265757D02*
X138006329Y-67276431D01*
X138006329Y-67276431D02*
X137960332Y-67264106D01*
X137960332Y-67264106D02*
X137920498Y-67228783D01*
X137920498Y-67228783D02*
X137903662Y-67199622D01*
X137903662Y-67199622D02*
X137892989Y-67147464D01*
X137892989Y-67147464D02*
X137894640Y-67049308D01*
X137894640Y-67049308D02*
X137925452Y-66934317D01*
X137925452Y-66934317D02*
X137973099Y-66848487D01*
X137973099Y-66848487D02*
X138008422Y-66808652D01*
X138008422Y-66808652D02*
X138037583Y-66791817D01*
X138037583Y-66791817D02*
X138089742Y-66781143D01*
X137912978Y-68084785D02*
X137636999Y-68010837D01*
X137774988Y-68047811D02*
X137904398Y-67564848D01*
X137904398Y-67564848D02*
X137839914Y-67621518D01*
X137839914Y-67621518D02*
X137781593Y-67655190D01*
X137781593Y-67655190D02*
X137729434Y-67665864D01*
X137704636Y-68862328D02*
X137428657Y-68788380D01*
X137566646Y-68825354D02*
X137696056Y-68342391D01*
X137696056Y-68342391D02*
X137631572Y-68399061D01*
X137631572Y-68399061D02*
X137573251Y-68432733D01*
X137573251Y-68432733D02*
X137521092Y-68443407D01*
X137464716Y-69113772D02*
X137510712Y-69126097D01*
X137510712Y-69126097D02*
X137550546Y-69161420D01*
X137550546Y-69161420D02*
X137567382Y-69190580D01*
X137567382Y-69190580D02*
X137578056Y-69242739D01*
X137578056Y-69242739D02*
X137576404Y-69340894D01*
X137576404Y-69340894D02*
X137545593Y-69455886D01*
X137545593Y-69455886D02*
X137497945Y-69541716D01*
X137497945Y-69541716D02*
X137462622Y-69581550D01*
X137462622Y-69581550D02*
X137433461Y-69598386D01*
X137433461Y-69598386D02*
X137381303Y-69609060D01*
X137381303Y-69609060D02*
X137335306Y-69596735D01*
X137335306Y-69596735D02*
X137295472Y-69561412D01*
X137295472Y-69561412D02*
X137278636Y-69532251D01*
X137278636Y-69532251D02*
X137267963Y-69480093D01*
X137267963Y-69480093D02*
X137269614Y-69381937D01*
X137269614Y-69381937D02*
X137300426Y-69266946D01*
X137300426Y-69266946D02*
X137348073Y-69181116D01*
X137348073Y-69181116D02*
X137383396Y-69141281D01*
X137383396Y-69141281D02*
X137412557Y-69124446D01*
X137412557Y-69124446D02*
X137464716Y-69113772D01*
X137287952Y-70417414D02*
X137011973Y-70343466D01*
X137149962Y-70380440D02*
X137279372Y-69897477D01*
X137279372Y-69897477D02*
X137214888Y-69954147D01*
X137214888Y-69954147D02*
X137156567Y-69987819D01*
X137156567Y-69987819D02*
X137104408Y-69998493D01*
X137079610Y-71194957D02*
X136803631Y-71121009D01*
X136941620Y-71157983D02*
X137071030Y-70675020D01*
X137071030Y-70675020D02*
X137006546Y-70731690D01*
X137006546Y-70731690D02*
X136948225Y-70765362D01*
X136948225Y-70765362D02*
X136896066Y-70776036D01*
X136839690Y-71446401D02*
X136885686Y-71458726D01*
X136885686Y-71458726D02*
X136925520Y-71494049D01*
X136925520Y-71494049D02*
X136942356Y-71523209D01*
X136942356Y-71523209D02*
X136953030Y-71575368D01*
X136953030Y-71575368D02*
X136951378Y-71673523D01*
X136951378Y-71673523D02*
X136920567Y-71788515D01*
X136920567Y-71788515D02*
X136872919Y-71874345D01*
X136872919Y-71874345D02*
X136837596Y-71914179D01*
X136837596Y-71914179D02*
X136808435Y-71931015D01*
X136808435Y-71931015D02*
X136756277Y-71941689D01*
X136756277Y-71941689D02*
X136710280Y-71929364D01*
X136710280Y-71929364D02*
X136670446Y-71894041D01*
X136670446Y-71894041D02*
X136653610Y-71864880D01*
X136653610Y-71864880D02*
X136642937Y-71812722D01*
X136642937Y-71812722D02*
X136644588Y-71714566D01*
X136644588Y-71714566D02*
X136675400Y-71599575D01*
X136675400Y-71599575D02*
X136723047Y-71513745D01*
X136723047Y-71513745D02*
X136758370Y-71473910D01*
X136758370Y-71473910D02*
X136787531Y-71457075D01*
X136787531Y-71457075D02*
X136839690Y-71446401D01*
X136631348Y-72223944D02*
X136677344Y-72236269D01*
X136677344Y-72236269D02*
X136717178Y-72271592D01*
X136717178Y-72271592D02*
X136734014Y-72300752D01*
X136734014Y-72300752D02*
X136744688Y-72352911D01*
X136744688Y-72352911D02*
X136743036Y-72451066D01*
X136743036Y-72451066D02*
X136712225Y-72566058D01*
X136712225Y-72566058D02*
X136664577Y-72651888D01*
X136664577Y-72651888D02*
X136629254Y-72691722D01*
X136629254Y-72691722D02*
X136600093Y-72708558D01*
X136600093Y-72708558D02*
X136547935Y-72719232D01*
X136547935Y-72719232D02*
X136501938Y-72706907D01*
X136501938Y-72706907D02*
X136462104Y-72671584D01*
X136462104Y-72671584D02*
X136445268Y-72642423D01*
X136445268Y-72642423D02*
X136434595Y-72590265D01*
X136434595Y-72590265D02*
X136436246Y-72492109D01*
X136436246Y-72492109D02*
X136467058Y-72377118D01*
X136467058Y-72377118D02*
X136514705Y-72291288D01*
X136514705Y-72291288D02*
X136550028Y-72251453D01*
X136550028Y-72251453D02*
X136579189Y-72234618D01*
X136579189Y-72234618D02*
X136631348Y-72223944D01*
X134025742Y-66273143D02*
X134071738Y-66285468D01*
X134071738Y-66285468D02*
X134111572Y-66320791D01*
X134111572Y-66320791D02*
X134128408Y-66349951D01*
X134128408Y-66349951D02*
X134139082Y-66402110D01*
X134139082Y-66402110D02*
X134137430Y-66500265D01*
X134137430Y-66500265D02*
X134106619Y-66615257D01*
X134106619Y-66615257D02*
X134058971Y-66701087D01*
X134058971Y-66701087D02*
X134023648Y-66740921D01*
X134023648Y-66740921D02*
X133994487Y-66757757D01*
X133994487Y-66757757D02*
X133942329Y-66768431D01*
X133942329Y-66768431D02*
X133896332Y-66756106D01*
X133896332Y-66756106D02*
X133856498Y-66720783D01*
X133856498Y-66720783D02*
X133839662Y-66691622D01*
X133839662Y-66691622D02*
X133828989Y-66639464D01*
X133828989Y-66639464D02*
X133830640Y-66541308D01*
X133830640Y-66541308D02*
X133861452Y-66426317D01*
X133861452Y-66426317D02*
X133909099Y-66340487D01*
X133909099Y-66340487D02*
X133944422Y-66300652D01*
X133944422Y-66300652D02*
X133973583Y-66283817D01*
X133973583Y-66283817D02*
X134025742Y-66273143D01*
X133848978Y-67576785D02*
X133572999Y-67502837D01*
X133710988Y-67539811D02*
X133840398Y-67056848D01*
X133840398Y-67056848D02*
X133775914Y-67113518D01*
X133775914Y-67113518D02*
X133717593Y-67147190D01*
X133717593Y-67147190D02*
X133665434Y-67157864D01*
X133640636Y-68354328D02*
X133364657Y-68280380D01*
X133502646Y-68317354D02*
X133632056Y-67834391D01*
X133632056Y-67834391D02*
X133567572Y-67891061D01*
X133567572Y-67891061D02*
X133509251Y-67924733D01*
X133509251Y-67924733D02*
X133457092Y-67935407D01*
X133400716Y-68605772D02*
X133446712Y-68618097D01*
X133446712Y-68618097D02*
X133486546Y-68653420D01*
X133486546Y-68653420D02*
X133503382Y-68682580D01*
X133503382Y-68682580D02*
X133514056Y-68734739D01*
X133514056Y-68734739D02*
X133512404Y-68832894D01*
X133512404Y-68832894D02*
X133481593Y-68947886D01*
X133481593Y-68947886D02*
X133433945Y-69033716D01*
X133433945Y-69033716D02*
X133398622Y-69073550D01*
X133398622Y-69073550D02*
X133369461Y-69090386D01*
X133369461Y-69090386D02*
X133317303Y-69101060D01*
X133317303Y-69101060D02*
X133271306Y-69088735D01*
X133271306Y-69088735D02*
X133231472Y-69053412D01*
X133231472Y-69053412D02*
X133214636Y-69024251D01*
X133214636Y-69024251D02*
X133203963Y-68972093D01*
X133203963Y-68972093D02*
X133205614Y-68873937D01*
X133205614Y-68873937D02*
X133236426Y-68758946D01*
X133236426Y-68758946D02*
X133284073Y-68673116D01*
X133284073Y-68673116D02*
X133319396Y-68633281D01*
X133319396Y-68633281D02*
X133348557Y-68616446D01*
X133348557Y-68616446D02*
X133400716Y-68605772D01*
X133223952Y-69909414D02*
X132947973Y-69835466D01*
X133085962Y-69872440D02*
X133215372Y-69389477D01*
X133215372Y-69389477D02*
X133150888Y-69446147D01*
X133150888Y-69446147D02*
X133092567Y-69479819D01*
X133092567Y-69479819D02*
X133040408Y-69490493D01*
X132984032Y-70160858D02*
X133030028Y-70173183D01*
X133030028Y-70173183D02*
X133069862Y-70208506D01*
X133069862Y-70208506D02*
X133086698Y-70237666D01*
X133086698Y-70237666D02*
X133097372Y-70289825D01*
X133097372Y-70289825D02*
X133095720Y-70387980D01*
X133095720Y-70387980D02*
X133064909Y-70502972D01*
X133064909Y-70502972D02*
X133017261Y-70588802D01*
X133017261Y-70588802D02*
X132981938Y-70628636D01*
X132981938Y-70628636D02*
X132952777Y-70645472D01*
X132952777Y-70645472D02*
X132900619Y-70656146D01*
X132900619Y-70656146D02*
X132854622Y-70643821D01*
X132854622Y-70643821D02*
X132814788Y-70608498D01*
X132814788Y-70608498D02*
X132797952Y-70579337D01*
X132797952Y-70579337D02*
X132787279Y-70527179D01*
X132787279Y-70527179D02*
X132788930Y-70429023D01*
X132788930Y-70429023D02*
X132819742Y-70314032D01*
X132819742Y-70314032D02*
X132867389Y-70228202D01*
X132867389Y-70228202D02*
X132902712Y-70188367D01*
X132902712Y-70188367D02*
X132931873Y-70171532D01*
X132931873Y-70171532D02*
X132984032Y-70160858D01*
X132775690Y-70938401D02*
X132821686Y-70950726D01*
X132821686Y-70950726D02*
X132861520Y-70986049D01*
X132861520Y-70986049D02*
X132878356Y-71015209D01*
X132878356Y-71015209D02*
X132889030Y-71067368D01*
X132889030Y-71067368D02*
X132887378Y-71165523D01*
X132887378Y-71165523D02*
X132856567Y-71280515D01*
X132856567Y-71280515D02*
X132808919Y-71366345D01*
X132808919Y-71366345D02*
X132773596Y-71406179D01*
X132773596Y-71406179D02*
X132744435Y-71423015D01*
X132744435Y-71423015D02*
X132692277Y-71433689D01*
X132692277Y-71433689D02*
X132646280Y-71421364D01*
X132646280Y-71421364D02*
X132606446Y-71386041D01*
X132606446Y-71386041D02*
X132589610Y-71356880D01*
X132589610Y-71356880D02*
X132578937Y-71304722D01*
X132578937Y-71304722D02*
X132580588Y-71206566D01*
X132580588Y-71206566D02*
X132611400Y-71091575D01*
X132611400Y-71091575D02*
X132659047Y-71005745D01*
X132659047Y-71005745D02*
X132694370Y-70965910D01*
X132694370Y-70965910D02*
X132723531Y-70949075D01*
X132723531Y-70949075D02*
X132775690Y-70938401D01*
X132567348Y-71715944D02*
X132613344Y-71728269D01*
X132613344Y-71728269D02*
X132653178Y-71763592D01*
X132653178Y-71763592D02*
X132670014Y-71792752D01*
X132670014Y-71792752D02*
X132680688Y-71844911D01*
X132680688Y-71844911D02*
X132679036Y-71943066D01*
X132679036Y-71943066D02*
X132648225Y-72058058D01*
X132648225Y-72058058D02*
X132600577Y-72143888D01*
X132600577Y-72143888D02*
X132565254Y-72183722D01*
X132565254Y-72183722D02*
X132536093Y-72200558D01*
X132536093Y-72200558D02*
X132483935Y-72211232D01*
X132483935Y-72211232D02*
X132437938Y-72198907D01*
X132437938Y-72198907D02*
X132398104Y-72163584D01*
X132398104Y-72163584D02*
X132381268Y-72134423D01*
X132381268Y-72134423D02*
X132370595Y-72082265D01*
X132370595Y-72082265D02*
X132372246Y-71984109D01*
X132372246Y-71984109D02*
X132403058Y-71869118D01*
X132403058Y-71869118D02*
X132450705Y-71783288D01*
X132450705Y-71783288D02*
X132486028Y-71743453D01*
X132486028Y-71743453D02*
X132515189Y-71726618D01*
X132515189Y-71726618D02*
X132567348Y-71715944D01*
D12*
X142331863Y-71970631D02*
X142331863Y-70970631D01*
X142717577Y-71923012D02*
X142803291Y-71970631D01*
X142803291Y-71970631D02*
X142974720Y-71970631D01*
X142974720Y-71970631D02*
X143060434Y-71923012D01*
X143060434Y-71923012D02*
X143103291Y-71827773D01*
X143103291Y-71827773D02*
X143103291Y-71780154D01*
X143103291Y-71780154D02*
X143060434Y-71684916D01*
X143060434Y-71684916D02*
X142974720Y-71637297D01*
X142974720Y-71637297D02*
X142846149Y-71637297D01*
X142846149Y-71637297D02*
X142760434Y-71589678D01*
X142760434Y-71589678D02*
X142717577Y-71494440D01*
X142717577Y-71494440D02*
X142717577Y-71446821D01*
X142717577Y-71446821D02*
X142760434Y-71351583D01*
X142760434Y-71351583D02*
X142846149Y-71303964D01*
X142846149Y-71303964D02*
X142974720Y-71303964D01*
X142974720Y-71303964D02*
X143060434Y-71351583D01*
X143874720Y-71970631D02*
X143874720Y-71446821D01*
X143874720Y-71446821D02*
X143831862Y-71351583D01*
X143831862Y-71351583D02*
X143746148Y-71303964D01*
X143746148Y-71303964D02*
X143574720Y-71303964D01*
X143574720Y-71303964D02*
X143489005Y-71351583D01*
X143874720Y-71923012D02*
X143789005Y-71970631D01*
X143789005Y-71970631D02*
X143574720Y-71970631D01*
X143574720Y-71970631D02*
X143489005Y-71923012D01*
X143489005Y-71923012D02*
X143446148Y-71827773D01*
X143446148Y-71827773D02*
X143446148Y-71732535D01*
X143446148Y-71732535D02*
X143489005Y-71637297D01*
X143489005Y-71637297D02*
X143574720Y-71589678D01*
X143574720Y-71589678D02*
X143789005Y-71589678D01*
X143789005Y-71589678D02*
X143874720Y-71542059D01*
X144303291Y-71970631D02*
X144303291Y-70970631D01*
X144303291Y-71351583D02*
X144389006Y-71303964D01*
X144389006Y-71303964D02*
X144560434Y-71303964D01*
X144560434Y-71303964D02*
X144646148Y-71351583D01*
X144646148Y-71351583D02*
X144689006Y-71399202D01*
X144689006Y-71399202D02*
X144731863Y-71494440D01*
X144731863Y-71494440D02*
X144731863Y-71780154D01*
X144731863Y-71780154D02*
X144689006Y-71875392D01*
X144689006Y-71875392D02*
X144646148Y-71923012D01*
X144646148Y-71923012D02*
X144560434Y-71970631D01*
X144560434Y-71970631D02*
X144389006Y-71970631D01*
X144389006Y-71970631D02*
X144303291Y-71923012D01*
X145460434Y-71923012D02*
X145374720Y-71970631D01*
X145374720Y-71970631D02*
X145203292Y-71970631D01*
X145203292Y-71970631D02*
X145117577Y-71923012D01*
X145117577Y-71923012D02*
X145074720Y-71827773D01*
X145074720Y-71827773D02*
X145074720Y-71446821D01*
X145074720Y-71446821D02*
X145117577Y-71351583D01*
X145117577Y-71351583D02*
X145203292Y-71303964D01*
X145203292Y-71303964D02*
X145374720Y-71303964D01*
X145374720Y-71303964D02*
X145460434Y-71351583D01*
X145460434Y-71351583D02*
X145503292Y-71446821D01*
X145503292Y-71446821D02*
X145503292Y-71542059D01*
X145503292Y-71542059D02*
X145074720Y-71637297D01*
X146017578Y-71970631D02*
X145931863Y-71923012D01*
X145931863Y-71923012D02*
X145889006Y-71827773D01*
X145889006Y-71827773D02*
X145889006Y-70970631D01*
X147346149Y-71446821D02*
X147474721Y-71494440D01*
X147474721Y-71494440D02*
X147517578Y-71542059D01*
X147517578Y-71542059D02*
X147560435Y-71637297D01*
X147560435Y-71637297D02*
X147560435Y-71780154D01*
X147560435Y-71780154D02*
X147517578Y-71875392D01*
X147517578Y-71875392D02*
X147474721Y-71923012D01*
X147474721Y-71923012D02*
X147389006Y-71970631D01*
X147389006Y-71970631D02*
X147046149Y-71970631D01*
X147046149Y-71970631D02*
X147046149Y-70970631D01*
X147046149Y-70970631D02*
X147346149Y-70970631D01*
X147346149Y-70970631D02*
X147431864Y-71018250D01*
X147431864Y-71018250D02*
X147474721Y-71065869D01*
X147474721Y-71065869D02*
X147517578Y-71161107D01*
X147517578Y-71161107D02*
X147517578Y-71256345D01*
X147517578Y-71256345D02*
X147474721Y-71351583D01*
X147474721Y-71351583D02*
X147431864Y-71399202D01*
X147431864Y-71399202D02*
X147346149Y-71446821D01*
X147346149Y-71446821D02*
X147046149Y-71446821D01*
X148331864Y-71303964D02*
X148331864Y-71970631D01*
X147946149Y-71303964D02*
X147946149Y-71827773D01*
X147946149Y-71827773D02*
X147989006Y-71923012D01*
X147989006Y-71923012D02*
X148074721Y-71970631D01*
X148074721Y-71970631D02*
X148203292Y-71970631D01*
X148203292Y-71970631D02*
X148289006Y-71923012D01*
X148289006Y-71923012D02*
X148331864Y-71875392D01*
X148760435Y-71970631D02*
X148760435Y-71303964D01*
X148760435Y-71494440D02*
X148803292Y-71399202D01*
X148803292Y-71399202D02*
X148846150Y-71351583D01*
X148846150Y-71351583D02*
X148931864Y-71303964D01*
X148931864Y-71303964D02*
X149017578Y-71303964D01*
X149703293Y-71303964D02*
X149703293Y-72113488D01*
X149703293Y-72113488D02*
X149660435Y-72208726D01*
X149660435Y-72208726D02*
X149617578Y-72256345D01*
X149617578Y-72256345D02*
X149531864Y-72303964D01*
X149531864Y-72303964D02*
X149403293Y-72303964D01*
X149403293Y-72303964D02*
X149317578Y-72256345D01*
X149703293Y-71923012D02*
X149617578Y-71970631D01*
X149617578Y-71970631D02*
X149446150Y-71970631D01*
X149446150Y-71970631D02*
X149360435Y-71923012D01*
X149360435Y-71923012D02*
X149317578Y-71875392D01*
X149317578Y-71875392D02*
X149274721Y-71780154D01*
X149274721Y-71780154D02*
X149274721Y-71494440D01*
X149274721Y-71494440D02*
X149317578Y-71399202D01*
X149317578Y-71399202D02*
X149360435Y-71351583D01*
X149360435Y-71351583D02*
X149446150Y-71303964D01*
X149446150Y-71303964D02*
X149617578Y-71303964D01*
X149617578Y-71303964D02*
X149703293Y-71351583D01*
X150260436Y-71970631D02*
X150174721Y-71923012D01*
X150174721Y-71923012D02*
X150131864Y-71875392D01*
X150131864Y-71875392D02*
X150089007Y-71780154D01*
X150089007Y-71780154D02*
X150089007Y-71494440D01*
X150089007Y-71494440D02*
X150131864Y-71399202D01*
X150131864Y-71399202D02*
X150174721Y-71351583D01*
X150174721Y-71351583D02*
X150260436Y-71303964D01*
X150260436Y-71303964D02*
X150389007Y-71303964D01*
X150389007Y-71303964D02*
X150474721Y-71351583D01*
X150474721Y-71351583D02*
X150517579Y-71399202D01*
X150517579Y-71399202D02*
X150560436Y-71494440D01*
X150560436Y-71494440D02*
X150560436Y-71780154D01*
X150560436Y-71780154D02*
X150517579Y-71875392D01*
X150517579Y-71875392D02*
X150474721Y-71923012D01*
X150474721Y-71923012D02*
X150389007Y-71970631D01*
X150389007Y-71970631D02*
X150260436Y-71970631D01*
X150903293Y-71923012D02*
X150989007Y-71970631D01*
X150989007Y-71970631D02*
X151160436Y-71970631D01*
X151160436Y-71970631D02*
X151246150Y-71923012D01*
X151246150Y-71923012D02*
X151289007Y-71827773D01*
X151289007Y-71827773D02*
X151289007Y-71780154D01*
X151289007Y-71780154D02*
X151246150Y-71684916D01*
X151246150Y-71684916D02*
X151160436Y-71637297D01*
X151160436Y-71637297D02*
X151031865Y-71637297D01*
X151031865Y-71637297D02*
X150946150Y-71589678D01*
X150946150Y-71589678D02*
X150903293Y-71494440D01*
X150903293Y-71494440D02*
X150903293Y-71446821D01*
X150903293Y-71446821D02*
X150946150Y-71351583D01*
X150946150Y-71351583D02*
X151031865Y-71303964D01*
X151031865Y-71303964D02*
X151160436Y-71303964D01*
X151160436Y-71303964D02*
X151246150Y-71351583D01*
X142506435Y-63580196D02*
X142792149Y-63580196D01*
X142792149Y-63580196D02*
X142935006Y-63651625D01*
X142935006Y-63651625D02*
X143077863Y-63794482D01*
X143077863Y-63794482D02*
X143149292Y-64080196D01*
X143149292Y-64080196D02*
X143149292Y-64580196D01*
X143149292Y-64580196D02*
X143077863Y-64865910D01*
X143077863Y-64865910D02*
X142935006Y-65008768D01*
X142935006Y-65008768D02*
X142792149Y-65080196D01*
X142792149Y-65080196D02*
X142506435Y-65080196D01*
X142506435Y-65080196D02*
X142363578Y-65008768D01*
X142363578Y-65008768D02*
X142220720Y-64865910D01*
X142220720Y-64865910D02*
X142149292Y-64580196D01*
X142149292Y-64580196D02*
X142149292Y-64080196D01*
X142149292Y-64080196D02*
X142220720Y-63794482D01*
X142220720Y-63794482D02*
X142363578Y-63651625D01*
X142363578Y-63651625D02*
X142506435Y-63580196D01*
X144292149Y-64294482D02*
X144506435Y-64365910D01*
X144506435Y-64365910D02*
X144577864Y-64437339D01*
X144577864Y-64437339D02*
X144649292Y-64580196D01*
X144649292Y-64580196D02*
X144649292Y-64794482D01*
X144649292Y-64794482D02*
X144577864Y-64937339D01*
X144577864Y-64937339D02*
X144506435Y-65008768D01*
X144506435Y-65008768D02*
X144363578Y-65080196D01*
X144363578Y-65080196D02*
X143792149Y-65080196D01*
X143792149Y-65080196D02*
X143792149Y-63580196D01*
X143792149Y-63580196D02*
X144292149Y-63580196D01*
X144292149Y-63580196D02*
X144435007Y-63651625D01*
X144435007Y-63651625D02*
X144506435Y-63723053D01*
X144506435Y-63723053D02*
X144577864Y-63865910D01*
X144577864Y-63865910D02*
X144577864Y-64008768D01*
X144577864Y-64008768D02*
X144506435Y-64151625D01*
X144506435Y-64151625D02*
X144435007Y-64223053D01*
X144435007Y-64223053D02*
X144292149Y-64294482D01*
X144292149Y-64294482D02*
X143792149Y-64294482D01*
X145292149Y-65080196D02*
X145292149Y-63580196D01*
X147149292Y-65080196D02*
X147149292Y-63580196D01*
X147149292Y-63580196D02*
X147506435Y-63580196D01*
X147506435Y-63580196D02*
X147720721Y-63651625D01*
X147720721Y-63651625D02*
X147863578Y-63794482D01*
X147863578Y-63794482D02*
X147935007Y-63937339D01*
X147935007Y-63937339D02*
X148006435Y-64223053D01*
X148006435Y-64223053D02*
X148006435Y-64437339D01*
X148006435Y-64437339D02*
X147935007Y-64723053D01*
X147935007Y-64723053D02*
X147863578Y-64865910D01*
X147863578Y-64865910D02*
X147720721Y-65008768D01*
X147720721Y-65008768D02*
X147506435Y-65080196D01*
X147506435Y-65080196D02*
X147149292Y-65080196D01*
X148577864Y-64651625D02*
X149292150Y-64651625D01*
X148435007Y-65080196D02*
X148935007Y-63580196D01*
X148935007Y-63580196D02*
X149435007Y-65080196D01*
X149720721Y-63580196D02*
X150577864Y-63580196D01*
X150149292Y-65080196D02*
X150149292Y-63580196D01*
X151006435Y-64651625D02*
X151720721Y-64651625D01*
X150863578Y-65080196D02*
X151363578Y-63580196D01*
X151363578Y-63580196D02*
X151863578Y-65080196D01*
X142220720Y-67495112D02*
X142220720Y-65995112D01*
X142935006Y-67495112D02*
X142935006Y-65995112D01*
X142935006Y-65995112D02*
X143792149Y-67495112D01*
X143792149Y-67495112D02*
X143792149Y-65995112D01*
X144292150Y-65995112D02*
X145149293Y-65995112D01*
X144720721Y-67495112D02*
X144720721Y-65995112D01*
X145649292Y-66709398D02*
X146149292Y-66709398D01*
X146363578Y-67495112D02*
X145649292Y-67495112D01*
X145649292Y-67495112D02*
X145649292Y-65995112D01*
X145649292Y-65995112D02*
X146363578Y-65995112D01*
X147863578Y-67495112D02*
X147363578Y-66780826D01*
X147006435Y-67495112D02*
X147006435Y-65995112D01*
X147006435Y-65995112D02*
X147577864Y-65995112D01*
X147577864Y-65995112D02*
X147720721Y-66066541D01*
X147720721Y-66066541D02*
X147792150Y-66137969D01*
X147792150Y-66137969D02*
X147863578Y-66280826D01*
X147863578Y-66280826D02*
X147863578Y-66495112D01*
X147863578Y-66495112D02*
X147792150Y-66637969D01*
X147792150Y-66637969D02*
X147720721Y-66709398D01*
X147720721Y-66709398D02*
X147577864Y-66780826D01*
X147577864Y-66780826D02*
X147006435Y-66780826D01*
X149363578Y-67352255D02*
X149292150Y-67423684D01*
X149292150Y-67423684D02*
X149077864Y-67495112D01*
X149077864Y-67495112D02*
X148935007Y-67495112D01*
X148935007Y-67495112D02*
X148720721Y-67423684D01*
X148720721Y-67423684D02*
X148577864Y-67280826D01*
X148577864Y-67280826D02*
X148506435Y-67137969D01*
X148506435Y-67137969D02*
X148435007Y-66852255D01*
X148435007Y-66852255D02*
X148435007Y-66637969D01*
X148435007Y-66637969D02*
X148506435Y-66352255D01*
X148506435Y-66352255D02*
X148577864Y-66209398D01*
X148577864Y-66209398D02*
X148720721Y-66066541D01*
X148720721Y-66066541D02*
X148935007Y-65995112D01*
X148935007Y-65995112D02*
X149077864Y-65995112D01*
X149077864Y-65995112D02*
X149292150Y-66066541D01*
X149292150Y-66066541D02*
X149363578Y-66137969D01*
X150292150Y-65995112D02*
X150577864Y-65995112D01*
X150577864Y-65995112D02*
X150720721Y-66066541D01*
X150720721Y-66066541D02*
X150863578Y-66209398D01*
X150863578Y-66209398D02*
X150935007Y-66495112D01*
X150935007Y-66495112D02*
X150935007Y-66995112D01*
X150935007Y-66995112D02*
X150863578Y-67280826D01*
X150863578Y-67280826D02*
X150720721Y-67423684D01*
X150720721Y-67423684D02*
X150577864Y-67495112D01*
X150577864Y-67495112D02*
X150292150Y-67495112D01*
X150292150Y-67495112D02*
X150149293Y-67423684D01*
X150149293Y-67423684D02*
X150006435Y-67280826D01*
X150006435Y-67280826D02*
X149935007Y-66995112D01*
X149935007Y-66995112D02*
X149935007Y-66495112D01*
X149935007Y-66495112D02*
X150006435Y-66209398D01*
X150006435Y-66209398D02*
X150149293Y-66066541D01*
X150149293Y-66066541D02*
X150292150Y-65995112D01*
X151577864Y-67495112D02*
X151577864Y-65995112D01*
X151577864Y-65995112D02*
X152435007Y-67495112D01*
X152435007Y-67495112D02*
X152435007Y-65995112D01*
X153149293Y-67495112D02*
X153149293Y-65995112D01*
X153149293Y-65995112D02*
X154006436Y-67495112D01*
X154006436Y-67495112D02*
X154006436Y-65995112D01*
X154720722Y-66709398D02*
X155220722Y-66709398D01*
X155435008Y-67495112D02*
X154720722Y-67495112D01*
X154720722Y-67495112D02*
X154720722Y-65995112D01*
X154720722Y-65995112D02*
X155435008Y-65995112D01*
X156935008Y-67352255D02*
X156863580Y-67423684D01*
X156863580Y-67423684D02*
X156649294Y-67495112D01*
X156649294Y-67495112D02*
X156506437Y-67495112D01*
X156506437Y-67495112D02*
X156292151Y-67423684D01*
X156292151Y-67423684D02*
X156149294Y-67280826D01*
X156149294Y-67280826D02*
X156077865Y-67137969D01*
X156077865Y-67137969D02*
X156006437Y-66852255D01*
X156006437Y-66852255D02*
X156006437Y-66637969D01*
X156006437Y-66637969D02*
X156077865Y-66352255D01*
X156077865Y-66352255D02*
X156149294Y-66209398D01*
X156149294Y-66209398D02*
X156292151Y-66066541D01*
X156292151Y-66066541D02*
X156506437Y-65995112D01*
X156506437Y-65995112D02*
X156649294Y-65995112D01*
X156649294Y-65995112D02*
X156863580Y-66066541D01*
X156863580Y-66066541D02*
X156935008Y-66137969D01*
X157363580Y-65995112D02*
X158220723Y-65995112D01*
X157792151Y-67495112D02*
X157792151Y-65995112D01*
X143006435Y-68481457D02*
X142863578Y-68410028D01*
X142863578Y-68410028D02*
X142649292Y-68410028D01*
X142649292Y-68410028D02*
X142435006Y-68481457D01*
X142435006Y-68481457D02*
X142292149Y-68624314D01*
X142292149Y-68624314D02*
X142220720Y-68767171D01*
X142220720Y-68767171D02*
X142149292Y-69052885D01*
X142149292Y-69052885D02*
X142149292Y-69267171D01*
X142149292Y-69267171D02*
X142220720Y-69552885D01*
X142220720Y-69552885D02*
X142292149Y-69695742D01*
X142292149Y-69695742D02*
X142435006Y-69838600D01*
X142435006Y-69838600D02*
X142649292Y-69910028D01*
X142649292Y-69910028D02*
X142792149Y-69910028D01*
X142792149Y-69910028D02*
X143006435Y-69838600D01*
X143006435Y-69838600D02*
X143077863Y-69767171D01*
X143077863Y-69767171D02*
X143077863Y-69267171D01*
X143077863Y-69267171D02*
X142792149Y-69267171D01*
X143935006Y-69910028D02*
X143792149Y-69838600D01*
X143792149Y-69838600D02*
X143720720Y-69695742D01*
X143720720Y-69695742D02*
X143720720Y-68410028D01*
X145149292Y-69910028D02*
X145149292Y-69124314D01*
X145149292Y-69124314D02*
X145077863Y-68981457D01*
X145077863Y-68981457D02*
X144935006Y-68910028D01*
X144935006Y-68910028D02*
X144649292Y-68910028D01*
X144649292Y-68910028D02*
X144506434Y-68981457D01*
X145149292Y-69838600D02*
X145006434Y-69910028D01*
X145006434Y-69910028D02*
X144649292Y-69910028D01*
X144649292Y-69910028D02*
X144506434Y-69838600D01*
X144506434Y-69838600D02*
X144435006Y-69695742D01*
X144435006Y-69695742D02*
X144435006Y-69552885D01*
X144435006Y-69552885D02*
X144506434Y-69410028D01*
X144506434Y-69410028D02*
X144649292Y-69338600D01*
X144649292Y-69338600D02*
X145006434Y-69338600D01*
X145006434Y-69338600D02*
X145149292Y-69267171D01*
X145792149Y-69838600D02*
X145935006Y-69910028D01*
X145935006Y-69910028D02*
X146220720Y-69910028D01*
X146220720Y-69910028D02*
X146363577Y-69838600D01*
X146363577Y-69838600D02*
X146435006Y-69695742D01*
X146435006Y-69695742D02*
X146435006Y-69624314D01*
X146435006Y-69624314D02*
X146363577Y-69481457D01*
X146363577Y-69481457D02*
X146220720Y-69410028D01*
X146220720Y-69410028D02*
X146006435Y-69410028D01*
X146006435Y-69410028D02*
X145863577Y-69338600D01*
X145863577Y-69338600D02*
X145792149Y-69195742D01*
X145792149Y-69195742D02*
X145792149Y-69124314D01*
X145792149Y-69124314D02*
X145863577Y-68981457D01*
X145863577Y-68981457D02*
X146006435Y-68910028D01*
X146006435Y-68910028D02*
X146220720Y-68910028D01*
X146220720Y-68910028D02*
X146363577Y-68981457D01*
X147720721Y-68910028D02*
X147720721Y-70124314D01*
X147720721Y-70124314D02*
X147649292Y-70267171D01*
X147649292Y-70267171D02*
X147577863Y-70338600D01*
X147577863Y-70338600D02*
X147435006Y-70410028D01*
X147435006Y-70410028D02*
X147220721Y-70410028D01*
X147220721Y-70410028D02*
X147077863Y-70338600D01*
X147720721Y-69838600D02*
X147577863Y-69910028D01*
X147577863Y-69910028D02*
X147292149Y-69910028D01*
X147292149Y-69910028D02*
X147149292Y-69838600D01*
X147149292Y-69838600D02*
X147077863Y-69767171D01*
X147077863Y-69767171D02*
X147006435Y-69624314D01*
X147006435Y-69624314D02*
X147006435Y-69195742D01*
X147006435Y-69195742D02*
X147077863Y-69052885D01*
X147077863Y-69052885D02*
X147149292Y-68981457D01*
X147149292Y-68981457D02*
X147292149Y-68910028D01*
X147292149Y-68910028D02*
X147577863Y-68910028D01*
X147577863Y-68910028D02*
X147720721Y-68981457D01*
X148649292Y-69910028D02*
X148506435Y-69838600D01*
X148506435Y-69838600D02*
X148435006Y-69767171D01*
X148435006Y-69767171D02*
X148363578Y-69624314D01*
X148363578Y-69624314D02*
X148363578Y-69195742D01*
X148363578Y-69195742D02*
X148435006Y-69052885D01*
X148435006Y-69052885D02*
X148506435Y-68981457D01*
X148506435Y-68981457D02*
X148649292Y-68910028D01*
X148649292Y-68910028D02*
X148863578Y-68910028D01*
X148863578Y-68910028D02*
X149006435Y-68981457D01*
X149006435Y-68981457D02*
X149077864Y-69052885D01*
X149077864Y-69052885D02*
X149149292Y-69195742D01*
X149149292Y-69195742D02*
X149149292Y-69624314D01*
X149149292Y-69624314D02*
X149077864Y-69767171D01*
X149077864Y-69767171D02*
X149006435Y-69838600D01*
X149006435Y-69838600D02*
X148863578Y-69910028D01*
X148863578Y-69910028D02*
X148649292Y-69910028D01*
X149649292Y-68910028D02*
X149935007Y-69910028D01*
X149935007Y-69910028D02*
X150220721Y-69195742D01*
X150220721Y-69195742D02*
X150506435Y-69910028D01*
X150506435Y-69910028D02*
X150792149Y-68910028D01*
X153363578Y-69767171D02*
X153292150Y-69838600D01*
X153292150Y-69838600D02*
X153077864Y-69910028D01*
X153077864Y-69910028D02*
X152935007Y-69910028D01*
X152935007Y-69910028D02*
X152720721Y-69838600D01*
X152720721Y-69838600D02*
X152577864Y-69695742D01*
X152577864Y-69695742D02*
X152506435Y-69552885D01*
X152506435Y-69552885D02*
X152435007Y-69267171D01*
X152435007Y-69267171D02*
X152435007Y-69052885D01*
X152435007Y-69052885D02*
X152506435Y-68767171D01*
X152506435Y-68767171D02*
X152577864Y-68624314D01*
X152577864Y-68624314D02*
X152720721Y-68481457D01*
X152720721Y-68481457D02*
X152935007Y-68410028D01*
X152935007Y-68410028D02*
X153077864Y-68410028D01*
X153077864Y-68410028D02*
X153292150Y-68481457D01*
X153292150Y-68481457D02*
X153363578Y-68552885D01*
X153863578Y-68410028D02*
X154792150Y-68410028D01*
X154792150Y-68410028D02*
X154292150Y-68981457D01*
X154292150Y-68981457D02*
X154506435Y-68981457D01*
X154506435Y-68981457D02*
X154649293Y-69052885D01*
X154649293Y-69052885D02*
X154720721Y-69124314D01*
X154720721Y-69124314D02*
X154792150Y-69267171D01*
X154792150Y-69267171D02*
X154792150Y-69624314D01*
X154792150Y-69624314D02*
X154720721Y-69767171D01*
X154720721Y-69767171D02*
X154649293Y-69838600D01*
X154649293Y-69838600D02*
X154506435Y-69910028D01*
X154506435Y-69910028D02*
X154077864Y-69910028D01*
X154077864Y-69910028D02*
X153935007Y-69838600D01*
X153935007Y-69838600D02*
X153863578Y-69767171D01*
X142289006Y-73208916D02*
X142717578Y-73208916D01*
X142203292Y-73494631D02*
X142503292Y-72494631D01*
X142503292Y-72494631D02*
X142803292Y-73494631D01*
X143489007Y-73494631D02*
X143489007Y-72494631D01*
X143489007Y-73447012D02*
X143403292Y-73494631D01*
X143403292Y-73494631D02*
X143231864Y-73494631D01*
X143231864Y-73494631D02*
X143146149Y-73447012D01*
X143146149Y-73447012D02*
X143103292Y-73399392D01*
X143103292Y-73399392D02*
X143060435Y-73304154D01*
X143060435Y-73304154D02*
X143060435Y-73018440D01*
X143060435Y-73018440D02*
X143103292Y-72923202D01*
X143103292Y-72923202D02*
X143146149Y-72875583D01*
X143146149Y-72875583D02*
X143231864Y-72827964D01*
X143231864Y-72827964D02*
X143403292Y-72827964D01*
X143403292Y-72827964D02*
X143489007Y-72875583D01*
X144303293Y-73494631D02*
X144303293Y-72970821D01*
X144303293Y-72970821D02*
X144260435Y-72875583D01*
X144260435Y-72875583D02*
X144174721Y-72827964D01*
X144174721Y-72827964D02*
X144003293Y-72827964D01*
X144003293Y-72827964D02*
X143917578Y-72875583D01*
X144303293Y-73447012D02*
X144217578Y-73494631D01*
X144217578Y-73494631D02*
X144003293Y-73494631D01*
X144003293Y-73494631D02*
X143917578Y-73447012D01*
X143917578Y-73447012D02*
X143874721Y-73351773D01*
X143874721Y-73351773D02*
X143874721Y-73256535D01*
X143874721Y-73256535D02*
X143917578Y-73161297D01*
X143917578Y-73161297D02*
X144003293Y-73113678D01*
X144003293Y-73113678D02*
X144217578Y-73113678D01*
X144217578Y-73113678D02*
X144303293Y-73066059D01*
X144731864Y-73494631D02*
X144731864Y-72827964D01*
X144731864Y-72923202D02*
X144774721Y-72875583D01*
X144774721Y-72875583D02*
X144860436Y-72827964D01*
X144860436Y-72827964D02*
X144989007Y-72827964D01*
X144989007Y-72827964D02*
X145074721Y-72875583D01*
X145074721Y-72875583D02*
X145117579Y-72970821D01*
X145117579Y-72970821D02*
X145117579Y-73494631D01*
X145117579Y-72970821D02*
X145160436Y-72875583D01*
X145160436Y-72875583D02*
X145246150Y-72827964D01*
X145246150Y-72827964D02*
X145374721Y-72827964D01*
X145374721Y-72827964D02*
X145460436Y-72875583D01*
X145460436Y-72875583D02*
X145503293Y-72970821D01*
X145503293Y-72970821D02*
X145503293Y-73494631D01*
X146617578Y-73494631D02*
X146617578Y-72494631D01*
X146617578Y-72494631D02*
X146917578Y-73208916D01*
X146917578Y-73208916D02*
X147217578Y-72494631D01*
X147217578Y-72494631D02*
X147217578Y-73494631D01*
X148031864Y-73447012D02*
X147946149Y-73494631D01*
X147946149Y-73494631D02*
X147774721Y-73494631D01*
X147774721Y-73494631D02*
X147689006Y-73447012D01*
X147689006Y-73447012D02*
X147646149Y-73399392D01*
X147646149Y-73399392D02*
X147603292Y-73304154D01*
X147603292Y-73304154D02*
X147603292Y-73018440D01*
X147603292Y-73018440D02*
X147646149Y-72923202D01*
X147646149Y-72923202D02*
X147689006Y-72875583D01*
X147689006Y-72875583D02*
X147774721Y-72827964D01*
X147774721Y-72827964D02*
X147946149Y-72827964D01*
X147946149Y-72827964D02*
X148031864Y-72875583D01*
X148931864Y-73399392D02*
X148889007Y-73447012D01*
X148889007Y-73447012D02*
X148760435Y-73494631D01*
X148760435Y-73494631D02*
X148674721Y-73494631D01*
X148674721Y-73494631D02*
X148546150Y-73447012D01*
X148546150Y-73447012D02*
X148460435Y-73351773D01*
X148460435Y-73351773D02*
X148417578Y-73256535D01*
X148417578Y-73256535D02*
X148374721Y-73066059D01*
X148374721Y-73066059D02*
X148374721Y-72923202D01*
X148374721Y-72923202D02*
X148417578Y-72732726D01*
X148417578Y-72732726D02*
X148460435Y-72637488D01*
X148460435Y-72637488D02*
X148546150Y-72542250D01*
X148546150Y-72542250D02*
X148674721Y-72494631D01*
X148674721Y-72494631D02*
X148760435Y-72494631D01*
X148760435Y-72494631D02*
X148889007Y-72542250D01*
X148889007Y-72542250D02*
X148931864Y-72589869D01*
X149446150Y-73494631D02*
X149360435Y-73447012D01*
X149360435Y-73447012D02*
X149317578Y-73399392D01*
X149317578Y-73399392D02*
X149274721Y-73304154D01*
X149274721Y-73304154D02*
X149274721Y-73018440D01*
X149274721Y-73018440D02*
X149317578Y-72923202D01*
X149317578Y-72923202D02*
X149360435Y-72875583D01*
X149360435Y-72875583D02*
X149446150Y-72827964D01*
X149446150Y-72827964D02*
X149574721Y-72827964D01*
X149574721Y-72827964D02*
X149660435Y-72875583D01*
X149660435Y-72875583D02*
X149703293Y-72923202D01*
X149703293Y-72923202D02*
X149746150Y-73018440D01*
X149746150Y-73018440D02*
X149746150Y-73304154D01*
X149746150Y-73304154D02*
X149703293Y-73399392D01*
X149703293Y-73399392D02*
X149660435Y-73447012D01*
X149660435Y-73447012D02*
X149574721Y-73494631D01*
X149574721Y-73494631D02*
X149446150Y-73494631D01*
X150131864Y-73494631D02*
X150131864Y-72827964D01*
X150131864Y-72923202D02*
X150174721Y-72875583D01*
X150174721Y-72875583D02*
X150260436Y-72827964D01*
X150260436Y-72827964D02*
X150389007Y-72827964D01*
X150389007Y-72827964D02*
X150474721Y-72875583D01*
X150474721Y-72875583D02*
X150517579Y-72970821D01*
X150517579Y-72970821D02*
X150517579Y-73494631D01*
X150517579Y-72970821D02*
X150560436Y-72875583D01*
X150560436Y-72875583D02*
X150646150Y-72827964D01*
X150646150Y-72827964D02*
X150774721Y-72827964D01*
X150774721Y-72827964D02*
X150860436Y-72875583D01*
X150860436Y-72875583D02*
X150903293Y-72970821D01*
X150903293Y-72970821D02*
X150903293Y-73494631D01*
X151331864Y-73494631D02*
X151331864Y-72494631D01*
X151331864Y-72875583D02*
X151417579Y-72827964D01*
X151417579Y-72827964D02*
X151589007Y-72827964D01*
X151589007Y-72827964D02*
X151674721Y-72875583D01*
X151674721Y-72875583D02*
X151717579Y-72923202D01*
X151717579Y-72923202D02*
X151760436Y-73018440D01*
X151760436Y-73018440D02*
X151760436Y-73304154D01*
X151760436Y-73304154D02*
X151717579Y-73399392D01*
X151717579Y-73399392D02*
X151674721Y-73447012D01*
X151674721Y-73447012D02*
X151589007Y-73494631D01*
X151589007Y-73494631D02*
X151417579Y-73494631D01*
X151417579Y-73494631D02*
X151331864Y-73447012D01*
X152103293Y-73447012D02*
X152189007Y-73494631D01*
X152189007Y-73494631D02*
X152360436Y-73494631D01*
X152360436Y-73494631D02*
X152446150Y-73447012D01*
X152446150Y-73447012D02*
X152489007Y-73351773D01*
X152489007Y-73351773D02*
X152489007Y-73304154D01*
X152489007Y-73304154D02*
X152446150Y-73208916D01*
X152446150Y-73208916D02*
X152360436Y-73161297D01*
X152360436Y-73161297D02*
X152231865Y-73161297D01*
X152231865Y-73161297D02*
X152146150Y-73113678D01*
X152146150Y-73113678D02*
X152103293Y-73018440D01*
X152103293Y-73018440D02*
X152103293Y-72970821D01*
X152103293Y-72970821D02*
X152146150Y-72875583D01*
X152146150Y-72875583D02*
X152231865Y-72827964D01*
X152231865Y-72827964D02*
X152360436Y-72827964D01*
X152360436Y-72827964D02*
X152446150Y-72875583D01*
D11*
X135041742Y-66781143D02*
X135087738Y-66793468D01*
X135087738Y-66793468D02*
X135127572Y-66828791D01*
X135127572Y-66828791D02*
X135144408Y-66857951D01*
X135144408Y-66857951D02*
X135155082Y-66910110D01*
X135155082Y-66910110D02*
X135153430Y-67008265D01*
X135153430Y-67008265D02*
X135122619Y-67123257D01*
X135122619Y-67123257D02*
X135074971Y-67209087D01*
X135074971Y-67209087D02*
X135039648Y-67248921D01*
X135039648Y-67248921D02*
X135010487Y-67265757D01*
X135010487Y-67265757D02*
X134958329Y-67276431D01*
X134958329Y-67276431D02*
X134912332Y-67264106D01*
X134912332Y-67264106D02*
X134872498Y-67228783D01*
X134872498Y-67228783D02*
X134855662Y-67199622D01*
X134855662Y-67199622D02*
X134844989Y-67147464D01*
X134844989Y-67147464D02*
X134846640Y-67049308D01*
X134846640Y-67049308D02*
X134877452Y-66934317D01*
X134877452Y-66934317D02*
X134925099Y-66848487D01*
X134925099Y-66848487D02*
X134960422Y-66808652D01*
X134960422Y-66808652D02*
X134989583Y-66791817D01*
X134989583Y-66791817D02*
X135041742Y-66781143D01*
X134864978Y-68084785D02*
X134588999Y-68010837D01*
X134726988Y-68047811D02*
X134856398Y-67564848D01*
X134856398Y-67564848D02*
X134791914Y-67621518D01*
X134791914Y-67621518D02*
X134733593Y-67655190D01*
X134733593Y-67655190D02*
X134681434Y-67665864D01*
X134656636Y-68862328D02*
X134380657Y-68788380D01*
X134518646Y-68825354D02*
X134648056Y-68342391D01*
X134648056Y-68342391D02*
X134583572Y-68399061D01*
X134583572Y-68399061D02*
X134525251Y-68432733D01*
X134525251Y-68432733D02*
X134473092Y-68443407D01*
X134416716Y-69113772D02*
X134462712Y-69126097D01*
X134462712Y-69126097D02*
X134502546Y-69161420D01*
X134502546Y-69161420D02*
X134519382Y-69190580D01*
X134519382Y-69190580D02*
X134530056Y-69242739D01*
X134530056Y-69242739D02*
X134528404Y-69340894D01*
X134528404Y-69340894D02*
X134497593Y-69455886D01*
X134497593Y-69455886D02*
X134449945Y-69541716D01*
X134449945Y-69541716D02*
X134414622Y-69581550D01*
X134414622Y-69581550D02*
X134385461Y-69598386D01*
X134385461Y-69598386D02*
X134333303Y-69609060D01*
X134333303Y-69609060D02*
X134287306Y-69596735D01*
X134287306Y-69596735D02*
X134247472Y-69561412D01*
X134247472Y-69561412D02*
X134230636Y-69532251D01*
X134230636Y-69532251D02*
X134219963Y-69480093D01*
X134219963Y-69480093D02*
X134221614Y-69381937D01*
X134221614Y-69381937D02*
X134252426Y-69266946D01*
X134252426Y-69266946D02*
X134300073Y-69181116D01*
X134300073Y-69181116D02*
X134335396Y-69141281D01*
X134335396Y-69141281D02*
X134364557Y-69124446D01*
X134364557Y-69124446D02*
X134416716Y-69113772D01*
X134208374Y-69891315D02*
X134254370Y-69903640D01*
X134254370Y-69903640D02*
X134294204Y-69938963D01*
X134294204Y-69938963D02*
X134311040Y-69968123D01*
X134311040Y-69968123D02*
X134321714Y-70020282D01*
X134321714Y-70020282D02*
X134320062Y-70118437D01*
X134320062Y-70118437D02*
X134289251Y-70233429D01*
X134289251Y-70233429D02*
X134241603Y-70319259D01*
X134241603Y-70319259D02*
X134206280Y-70359093D01*
X134206280Y-70359093D02*
X134177119Y-70375929D01*
X134177119Y-70375929D02*
X134124961Y-70386603D01*
X134124961Y-70386603D02*
X134078964Y-70374278D01*
X134078964Y-70374278D02*
X134039130Y-70338955D01*
X134039130Y-70338955D02*
X134022294Y-70309794D01*
X134022294Y-70309794D02*
X134011621Y-70257636D01*
X134011621Y-70257636D02*
X134013272Y-70159480D01*
X134013272Y-70159480D02*
X134044084Y-70044489D01*
X134044084Y-70044489D02*
X134091731Y-69958659D01*
X134091731Y-69958659D02*
X134127054Y-69918824D01*
X134127054Y-69918824D02*
X134156215Y-69901989D01*
X134156215Y-69901989D02*
X134208374Y-69891315D01*
X134031610Y-71194957D02*
X133755631Y-71121009D01*
X133893620Y-71157983D02*
X134023030Y-70675020D01*
X134023030Y-70675020D02*
X133958546Y-70731690D01*
X133958546Y-70731690D02*
X133900225Y-70765362D01*
X133900225Y-70765362D02*
X133848066Y-70776036D01*
X133791690Y-71446401D02*
X133837686Y-71458726D01*
X133837686Y-71458726D02*
X133877520Y-71494049D01*
X133877520Y-71494049D02*
X133894356Y-71523209D01*
X133894356Y-71523209D02*
X133905030Y-71575368D01*
X133905030Y-71575368D02*
X133903378Y-71673523D01*
X133903378Y-71673523D02*
X133872567Y-71788515D01*
X133872567Y-71788515D02*
X133824919Y-71874345D01*
X133824919Y-71874345D02*
X133789596Y-71914179D01*
X133789596Y-71914179D02*
X133760435Y-71931015D01*
X133760435Y-71931015D02*
X133708277Y-71941689D01*
X133708277Y-71941689D02*
X133662280Y-71929364D01*
X133662280Y-71929364D02*
X133622446Y-71894041D01*
X133622446Y-71894041D02*
X133605610Y-71864880D01*
X133605610Y-71864880D02*
X133594937Y-71812722D01*
X133594937Y-71812722D02*
X133596588Y-71714566D01*
X133596588Y-71714566D02*
X133627400Y-71599575D01*
X133627400Y-71599575D02*
X133675047Y-71513745D01*
X133675047Y-71513745D02*
X133710370Y-71473910D01*
X133710370Y-71473910D02*
X133739531Y-71457075D01*
X133739531Y-71457075D02*
X133791690Y-71446401D01*
X133614926Y-72750043D02*
X133338947Y-72676095D01*
X133476936Y-72713069D02*
X133606346Y-72230106D01*
X133606346Y-72230106D02*
X133541862Y-72286776D01*
X133541862Y-72286776D02*
X133483541Y-72320448D01*
X133483541Y-72320448D02*
X133431382Y-72331122D01*
X139613742Y-66781143D02*
X139659738Y-66793468D01*
X139659738Y-66793468D02*
X139699572Y-66828791D01*
X139699572Y-66828791D02*
X139716408Y-66857951D01*
X139716408Y-66857951D02*
X139727082Y-66910110D01*
X139727082Y-66910110D02*
X139725430Y-67008265D01*
X139725430Y-67008265D02*
X139694619Y-67123257D01*
X139694619Y-67123257D02*
X139646971Y-67209087D01*
X139646971Y-67209087D02*
X139611648Y-67248921D01*
X139611648Y-67248921D02*
X139582487Y-67265757D01*
X139582487Y-67265757D02*
X139530329Y-67276431D01*
X139530329Y-67276431D02*
X139484332Y-67264106D01*
X139484332Y-67264106D02*
X139444498Y-67228783D01*
X139444498Y-67228783D02*
X139427662Y-67199622D01*
X139427662Y-67199622D02*
X139416989Y-67147464D01*
X139416989Y-67147464D02*
X139418640Y-67049308D01*
X139418640Y-67049308D02*
X139449452Y-66934317D01*
X139449452Y-66934317D02*
X139497099Y-66848487D01*
X139497099Y-66848487D02*
X139532422Y-66808652D01*
X139532422Y-66808652D02*
X139561583Y-66791817D01*
X139561583Y-66791817D02*
X139613742Y-66781143D01*
X139436978Y-68084785D02*
X139160999Y-68010837D01*
X139298988Y-68047811D02*
X139428398Y-67564848D01*
X139428398Y-67564848D02*
X139363914Y-67621518D01*
X139363914Y-67621518D02*
X139305593Y-67655190D01*
X139305593Y-67655190D02*
X139253434Y-67665864D01*
X139228636Y-68862328D02*
X138952657Y-68788380D01*
X139090646Y-68825354D02*
X139220056Y-68342391D01*
X139220056Y-68342391D02*
X139155572Y-68399061D01*
X139155572Y-68399061D02*
X139097251Y-68432733D01*
X139097251Y-68432733D02*
X139045092Y-68443407D01*
X138988716Y-69113772D02*
X139034712Y-69126097D01*
X139034712Y-69126097D02*
X139074546Y-69161420D01*
X139074546Y-69161420D02*
X139091382Y-69190580D01*
X139091382Y-69190580D02*
X139102056Y-69242739D01*
X139102056Y-69242739D02*
X139100404Y-69340894D01*
X139100404Y-69340894D02*
X139069593Y-69455886D01*
X139069593Y-69455886D02*
X139021945Y-69541716D01*
X139021945Y-69541716D02*
X138986622Y-69581550D01*
X138986622Y-69581550D02*
X138957461Y-69598386D01*
X138957461Y-69598386D02*
X138905303Y-69609060D01*
X138905303Y-69609060D02*
X138859306Y-69596735D01*
X138859306Y-69596735D02*
X138819472Y-69561412D01*
X138819472Y-69561412D02*
X138802636Y-69532251D01*
X138802636Y-69532251D02*
X138791963Y-69480093D01*
X138791963Y-69480093D02*
X138793614Y-69381937D01*
X138793614Y-69381937D02*
X138824426Y-69266946D01*
X138824426Y-69266946D02*
X138872073Y-69181116D01*
X138872073Y-69181116D02*
X138907396Y-69141281D01*
X138907396Y-69141281D02*
X138936557Y-69124446D01*
X138936557Y-69124446D02*
X138988716Y-69113772D01*
X138811952Y-70417414D02*
X138535973Y-70343466D01*
X138673962Y-70380440D02*
X138803372Y-69897477D01*
X138803372Y-69897477D02*
X138738888Y-69954147D01*
X138738888Y-69954147D02*
X138680567Y-69987819D01*
X138680567Y-69987819D02*
X138628408Y-69998493D01*
X138603610Y-71194957D02*
X138327631Y-71121009D01*
X138465620Y-71157983D02*
X138595030Y-70675020D01*
X138595030Y-70675020D02*
X138530546Y-70731690D01*
X138530546Y-70731690D02*
X138472225Y-70765362D01*
X138472225Y-70765362D02*
X138420066Y-70776036D01*
X138395268Y-71972500D02*
X138119289Y-71898552D01*
X138257278Y-71935526D02*
X138386688Y-71452563D01*
X138386688Y-71452563D02*
X138322204Y-71509233D01*
X138322204Y-71509233D02*
X138263883Y-71542905D01*
X138263883Y-71542905D02*
X138211724Y-71553579D01*
X138186926Y-72750043D02*
X137910947Y-72676095D01*
X138048936Y-72713069D02*
X138178346Y-72230106D01*
X138178346Y-72230106D02*
X138113862Y-72286776D01*
X138113862Y-72286776D02*
X138055541Y-72320448D01*
X138055541Y-72320448D02*
X138003382Y-72331122D01*
D12*
X142225863Y-75007219D02*
X142225863Y-74340552D01*
X142225863Y-74531028D02*
X142268720Y-74435790D01*
X142268720Y-74435790D02*
X142311578Y-74388171D01*
X142311578Y-74388171D02*
X142397292Y-74340552D01*
X142397292Y-74340552D02*
X142483006Y-74340552D01*
X143125863Y-74959600D02*
X143040149Y-75007219D01*
X143040149Y-75007219D02*
X142868721Y-75007219D01*
X142868721Y-75007219D02*
X142783006Y-74959600D01*
X142783006Y-74959600D02*
X142740149Y-74864361D01*
X142740149Y-74864361D02*
X142740149Y-74483409D01*
X142740149Y-74483409D02*
X142783006Y-74388171D01*
X142783006Y-74388171D02*
X142868721Y-74340552D01*
X142868721Y-74340552D02*
X143040149Y-74340552D01*
X143040149Y-74340552D02*
X143125863Y-74388171D01*
X143125863Y-74388171D02*
X143168721Y-74483409D01*
X143168721Y-74483409D02*
X143168721Y-74578647D01*
X143168721Y-74578647D02*
X142740149Y-74673885D01*
X143468721Y-74340552D02*
X143683007Y-75007219D01*
X143683007Y-75007219D02*
X143897292Y-74340552D01*
X144197292Y-74721504D02*
X144625864Y-74721504D01*
X144111578Y-75007219D02*
X144411578Y-74007219D01*
X144411578Y-74007219D02*
X144711578Y-75007219D01*
X145654435Y-74102457D02*
X145697292Y-74054838D01*
X145697292Y-74054838D02*
X145783007Y-74007219D01*
X145783007Y-74007219D02*
X145997292Y-74007219D01*
X145997292Y-74007219D02*
X146083007Y-74054838D01*
X146083007Y-74054838D02*
X146125864Y-74102457D01*
X146125864Y-74102457D02*
X146168721Y-74197695D01*
X146168721Y-74197695D02*
X146168721Y-74292933D01*
X146168721Y-74292933D02*
X146125864Y-74435790D01*
X146125864Y-74435790D02*
X145611578Y-75007219D01*
X145611578Y-75007219D02*
X146168721Y-75007219D01*
X146725864Y-74007219D02*
X146811578Y-74007219D01*
X146811578Y-74007219D02*
X146897292Y-74054838D01*
X146897292Y-74054838D02*
X146940150Y-74102457D01*
X146940150Y-74102457D02*
X146983007Y-74197695D01*
X146983007Y-74197695D02*
X147025864Y-74388171D01*
X147025864Y-74388171D02*
X147025864Y-74626266D01*
X147025864Y-74626266D02*
X146983007Y-74816742D01*
X146983007Y-74816742D02*
X146940150Y-74911980D01*
X146940150Y-74911980D02*
X146897292Y-74959600D01*
X146897292Y-74959600D02*
X146811578Y-75007219D01*
X146811578Y-75007219D02*
X146725864Y-75007219D01*
X146725864Y-75007219D02*
X146640150Y-74959600D01*
X146640150Y-74959600D02*
X146597292Y-74911980D01*
X146597292Y-74911980D02*
X146554435Y-74816742D01*
X146554435Y-74816742D02*
X146511578Y-74626266D01*
X146511578Y-74626266D02*
X146511578Y-74388171D01*
X146511578Y-74388171D02*
X146554435Y-74197695D01*
X146554435Y-74197695D02*
X146597292Y-74102457D01*
X146597292Y-74102457D02*
X146640150Y-74054838D01*
X146640150Y-74054838D02*
X146725864Y-74007219D01*
X147368721Y-74102457D02*
X147411578Y-74054838D01*
X147411578Y-74054838D02*
X147497293Y-74007219D01*
X147497293Y-74007219D02*
X147711578Y-74007219D01*
X147711578Y-74007219D02*
X147797293Y-74054838D01*
X147797293Y-74054838D02*
X147840150Y-74102457D01*
X147840150Y-74102457D02*
X147883007Y-74197695D01*
X147883007Y-74197695D02*
X147883007Y-74292933D01*
X147883007Y-74292933D02*
X147840150Y-74435790D01*
X147840150Y-74435790D02*
X147325864Y-75007219D01*
X147325864Y-75007219D02*
X147883007Y-75007219D01*
X148654436Y-74007219D02*
X148483007Y-74007219D01*
X148483007Y-74007219D02*
X148397293Y-74054838D01*
X148397293Y-74054838D02*
X148354436Y-74102457D01*
X148354436Y-74102457D02*
X148268721Y-74245314D01*
X148268721Y-74245314D02*
X148225864Y-74435790D01*
X148225864Y-74435790D02*
X148225864Y-74816742D01*
X148225864Y-74816742D02*
X148268721Y-74911980D01*
X148268721Y-74911980D02*
X148311578Y-74959600D01*
X148311578Y-74959600D02*
X148397293Y-75007219D01*
X148397293Y-75007219D02*
X148568721Y-75007219D01*
X148568721Y-75007219D02*
X148654436Y-74959600D01*
X148654436Y-74959600D02*
X148697293Y-74911980D01*
X148697293Y-74911980D02*
X148740150Y-74816742D01*
X148740150Y-74816742D02*
X148740150Y-74578647D01*
X148740150Y-74578647D02*
X148697293Y-74483409D01*
X148697293Y-74483409D02*
X148654436Y-74435790D01*
X148654436Y-74435790D02*
X148568721Y-74388171D01*
X148568721Y-74388171D02*
X148397293Y-74388171D01*
X148397293Y-74388171D02*
X148311578Y-74435790D01*
X148311578Y-74435790D02*
X148268721Y-74483409D01*
X148268721Y-74483409D02*
X148225864Y-74578647D01*
X149125864Y-74626266D02*
X149811579Y-74626266D01*
X150411579Y-74007219D02*
X150497293Y-74007219D01*
X150497293Y-74007219D02*
X150583007Y-74054838D01*
X150583007Y-74054838D02*
X150625865Y-74102457D01*
X150625865Y-74102457D02*
X150668722Y-74197695D01*
X150668722Y-74197695D02*
X150711579Y-74388171D01*
X150711579Y-74388171D02*
X150711579Y-74626266D01*
X150711579Y-74626266D02*
X150668722Y-74816742D01*
X150668722Y-74816742D02*
X150625865Y-74911980D01*
X150625865Y-74911980D02*
X150583007Y-74959600D01*
X150583007Y-74959600D02*
X150497293Y-75007219D01*
X150497293Y-75007219D02*
X150411579Y-75007219D01*
X150411579Y-75007219D02*
X150325865Y-74959600D01*
X150325865Y-74959600D02*
X150283007Y-74911980D01*
X150283007Y-74911980D02*
X150240150Y-74816742D01*
X150240150Y-74816742D02*
X150197293Y-74626266D01*
X150197293Y-74626266D02*
X150197293Y-74388171D01*
X150197293Y-74388171D02*
X150240150Y-74197695D01*
X150240150Y-74197695D02*
X150283007Y-74102457D01*
X150283007Y-74102457D02*
X150325865Y-74054838D01*
X150325865Y-74054838D02*
X150411579Y-74007219D01*
X151140150Y-75007219D02*
X151311579Y-75007219D01*
X151311579Y-75007219D02*
X151397293Y-74959600D01*
X151397293Y-74959600D02*
X151440150Y-74911980D01*
X151440150Y-74911980D02*
X151525865Y-74769123D01*
X151525865Y-74769123D02*
X151568722Y-74578647D01*
X151568722Y-74578647D02*
X151568722Y-74197695D01*
X151568722Y-74197695D02*
X151525865Y-74102457D01*
X151525865Y-74102457D02*
X151483008Y-74054838D01*
X151483008Y-74054838D02*
X151397293Y-74007219D01*
X151397293Y-74007219D02*
X151225865Y-74007219D01*
X151225865Y-74007219D02*
X151140150Y-74054838D01*
X151140150Y-74054838D02*
X151097293Y-74102457D01*
X151097293Y-74102457D02*
X151054436Y-74197695D01*
X151054436Y-74197695D02*
X151054436Y-74435790D01*
X151054436Y-74435790D02*
X151097293Y-74531028D01*
X151097293Y-74531028D02*
X151140150Y-74578647D01*
X151140150Y-74578647D02*
X151225865Y-74626266D01*
X151225865Y-74626266D02*
X151397293Y-74626266D01*
X151397293Y-74626266D02*
X151483008Y-74578647D01*
X151483008Y-74578647D02*
X151525865Y-74531028D01*
X151525865Y-74531028D02*
X151568722Y-74435790D01*
X152854436Y-75340552D02*
X152854436Y-73911980D01*
X154654436Y-75007219D02*
X154140150Y-75007219D01*
X154397293Y-75007219D02*
X154397293Y-74007219D01*
X154397293Y-74007219D02*
X154311579Y-74150076D01*
X154311579Y-74150076D02*
X154225864Y-74245314D01*
X154225864Y-74245314D02*
X154140150Y-74292933D01*
X155425865Y-74340552D02*
X155425865Y-75007219D01*
X155211579Y-73959600D02*
X154997293Y-74673885D01*
X154997293Y-74673885D02*
X155554436Y-74673885D01*
X155897293Y-74626266D02*
X156583008Y-74626266D01*
X157011579Y-75007219D02*
X157011579Y-74007219D01*
X157011579Y-74388171D02*
X157097294Y-74340552D01*
X157097294Y-74340552D02*
X157268722Y-74340552D01*
X157268722Y-74340552D02*
X157354436Y-74388171D01*
X157354436Y-74388171D02*
X157397294Y-74435790D01*
X157397294Y-74435790D02*
X157440151Y-74531028D01*
X157440151Y-74531028D02*
X157440151Y-74816742D01*
X157440151Y-74816742D02*
X157397294Y-74911980D01*
X157397294Y-74911980D02*
X157354436Y-74959600D01*
X157354436Y-74959600D02*
X157268722Y-75007219D01*
X157268722Y-75007219D02*
X157097294Y-75007219D01*
X157097294Y-75007219D02*
X157011579Y-74959600D01*
X157825865Y-75007219D02*
X157825865Y-74340552D01*
X157825865Y-74007219D02*
X157783008Y-74054838D01*
X157783008Y-74054838D02*
X157825865Y-74102457D01*
X157825865Y-74102457D02*
X157868722Y-74054838D01*
X157868722Y-74054838D02*
X157825865Y-74007219D01*
X157825865Y-74007219D02*
X157825865Y-74102457D01*
X158125865Y-74340552D02*
X158468722Y-74340552D01*
X158254436Y-74007219D02*
X158254436Y-74864361D01*
X158254436Y-74864361D02*
X158297293Y-74959600D01*
X158297293Y-74959600D02*
X158383008Y-75007219D01*
X158383008Y-75007219D02*
X158468722Y-75007219D01*
X159411579Y-74959600D02*
X159497293Y-75007219D01*
X159497293Y-75007219D02*
X159668722Y-75007219D01*
X159668722Y-75007219D02*
X159754436Y-74959600D01*
X159754436Y-74959600D02*
X159797293Y-74864361D01*
X159797293Y-74864361D02*
X159797293Y-74816742D01*
X159797293Y-74816742D02*
X159754436Y-74721504D01*
X159754436Y-74721504D02*
X159668722Y-74673885D01*
X159668722Y-74673885D02*
X159540151Y-74673885D01*
X159540151Y-74673885D02*
X159454436Y-74626266D01*
X159454436Y-74626266D02*
X159411579Y-74531028D01*
X159411579Y-74531028D02*
X159411579Y-74483409D01*
X159411579Y-74483409D02*
X159454436Y-74388171D01*
X159454436Y-74388171D02*
X159540151Y-74340552D01*
X159540151Y-74340552D02*
X159668722Y-74340552D01*
X159668722Y-74340552D02*
X159754436Y-74388171D01*
X160183007Y-75007219D02*
X160183007Y-74007219D01*
X160568722Y-75007219D02*
X160568722Y-74483409D01*
X160568722Y-74483409D02*
X160525864Y-74388171D01*
X160525864Y-74388171D02*
X160440150Y-74340552D01*
X160440150Y-74340552D02*
X160311579Y-74340552D01*
X160311579Y-74340552D02*
X160225864Y-74388171D01*
X160225864Y-74388171D02*
X160183007Y-74435790D01*
X161383008Y-75007219D02*
X161383008Y-74483409D01*
X161383008Y-74483409D02*
X161340150Y-74388171D01*
X161340150Y-74388171D02*
X161254436Y-74340552D01*
X161254436Y-74340552D02*
X161083008Y-74340552D01*
X161083008Y-74340552D02*
X160997293Y-74388171D01*
X161383008Y-74959600D02*
X161297293Y-75007219D01*
X161297293Y-75007219D02*
X161083008Y-75007219D01*
X161083008Y-75007219D02*
X160997293Y-74959600D01*
X160997293Y-74959600D02*
X160954436Y-74864361D01*
X160954436Y-74864361D02*
X160954436Y-74769123D01*
X160954436Y-74769123D02*
X160997293Y-74673885D01*
X160997293Y-74673885D02*
X161083008Y-74626266D01*
X161083008Y-74626266D02*
X161297293Y-74626266D01*
X161297293Y-74626266D02*
X161383008Y-74578647D01*
X161811579Y-75007219D02*
X161811579Y-74340552D01*
X161811579Y-74531028D02*
X161854436Y-74435790D01*
X161854436Y-74435790D02*
X161897294Y-74388171D01*
X161897294Y-74388171D02*
X161983008Y-74340552D01*
X161983008Y-74340552D02*
X162068722Y-74340552D01*
X162711579Y-74959600D02*
X162625865Y-75007219D01*
X162625865Y-75007219D02*
X162454437Y-75007219D01*
X162454437Y-75007219D02*
X162368722Y-74959600D01*
X162368722Y-74959600D02*
X162325865Y-74864361D01*
X162325865Y-74864361D02*
X162325865Y-74483409D01*
X162325865Y-74483409D02*
X162368722Y-74388171D01*
X162368722Y-74388171D02*
X162454437Y-74340552D01*
X162454437Y-74340552D02*
X162625865Y-74340552D01*
X162625865Y-74340552D02*
X162711579Y-74388171D01*
X162711579Y-74388171D02*
X162754437Y-74483409D01*
X162754437Y-74483409D02*
X162754437Y-74578647D01*
X162754437Y-74578647D02*
X162325865Y-74673885D01*
X163525866Y-75007219D02*
X163525866Y-74007219D01*
X163525866Y-74959600D02*
X163440151Y-75007219D01*
X163440151Y-75007219D02*
X163268723Y-75007219D01*
X163268723Y-75007219D02*
X163183008Y-74959600D01*
X163183008Y-74959600D02*
X163140151Y-74911980D01*
X163140151Y-74911980D02*
X163097294Y-74816742D01*
X163097294Y-74816742D02*
X163097294Y-74531028D01*
X163097294Y-74531028D02*
X163140151Y-74435790D01*
X163140151Y-74435790D02*
X163183008Y-74388171D01*
X163183008Y-74388171D02*
X163268723Y-74340552D01*
X163268723Y-74340552D02*
X163440151Y-74340552D01*
X163440151Y-74340552D02*
X163525866Y-74388171D01*
X164640151Y-75007219D02*
X164640151Y-74007219D01*
X164640151Y-74388171D02*
X164725866Y-74340552D01*
X164725866Y-74340552D02*
X164897294Y-74340552D01*
X164897294Y-74340552D02*
X164983008Y-74388171D01*
X164983008Y-74388171D02*
X165025866Y-74435790D01*
X165025866Y-74435790D02*
X165068723Y-74531028D01*
X165068723Y-74531028D02*
X165068723Y-74816742D01*
X165068723Y-74816742D02*
X165025866Y-74911980D01*
X165025866Y-74911980D02*
X164983008Y-74959600D01*
X164983008Y-74959600D02*
X164897294Y-75007219D01*
X164897294Y-75007219D02*
X164725866Y-75007219D01*
X164725866Y-75007219D02*
X164640151Y-74959600D01*
X165840152Y-74340552D02*
X165840152Y-75007219D01*
X165454437Y-74340552D02*
X165454437Y-74864361D01*
X165454437Y-74864361D02*
X165497294Y-74959600D01*
X165497294Y-74959600D02*
X165583009Y-75007219D01*
X165583009Y-75007219D02*
X165711580Y-75007219D01*
X165711580Y-75007219D02*
X165797294Y-74959600D01*
X165797294Y-74959600D02*
X165840152Y-74911980D01*
X166225866Y-74959600D02*
X166311580Y-75007219D01*
X166311580Y-75007219D02*
X166483009Y-75007219D01*
X166483009Y-75007219D02*
X166568723Y-74959600D01*
X166568723Y-74959600D02*
X166611580Y-74864361D01*
X166611580Y-74864361D02*
X166611580Y-74816742D01*
X166611580Y-74816742D02*
X166568723Y-74721504D01*
X166568723Y-74721504D02*
X166483009Y-74673885D01*
X166483009Y-74673885D02*
X166354438Y-74673885D01*
X166354438Y-74673885D02*
X166268723Y-74626266D01*
X166268723Y-74626266D02*
X166225866Y-74531028D01*
X166225866Y-74531028D02*
X166225866Y-74483409D01*
X166225866Y-74483409D02*
X166268723Y-74388171D01*
X166268723Y-74388171D02*
X166354438Y-74340552D01*
X166354438Y-74340552D02*
X166483009Y-74340552D01*
X166483009Y-74340552D02*
X166568723Y-74388171D01*
D11*
X140883742Y-66527143D02*
X140929738Y-66539468D01*
X140929738Y-66539468D02*
X140969572Y-66574791D01*
X140969572Y-66574791D02*
X140986408Y-66603951D01*
X140986408Y-66603951D02*
X140997082Y-66656110D01*
X140997082Y-66656110D02*
X140995430Y-66754265D01*
X140995430Y-66754265D02*
X140964619Y-66869257D01*
X140964619Y-66869257D02*
X140916971Y-66955087D01*
X140916971Y-66955087D02*
X140881648Y-66994921D01*
X140881648Y-66994921D02*
X140852487Y-67011757D01*
X140852487Y-67011757D02*
X140800329Y-67022431D01*
X140800329Y-67022431D02*
X140754332Y-67010106D01*
X140754332Y-67010106D02*
X140714498Y-66974783D01*
X140714498Y-66974783D02*
X140697662Y-66945622D01*
X140697662Y-66945622D02*
X140686989Y-66893464D01*
X140686989Y-66893464D02*
X140688640Y-66795308D01*
X140688640Y-66795308D02*
X140719452Y-66680317D01*
X140719452Y-66680317D02*
X140767099Y-66594487D01*
X140767099Y-66594487D02*
X140802422Y-66554652D01*
X140802422Y-66554652D02*
X140831583Y-66537817D01*
X140831583Y-66537817D02*
X140883742Y-66527143D01*
X140675400Y-67304686D02*
X140721396Y-67317011D01*
X140721396Y-67317011D02*
X140761230Y-67352334D01*
X140761230Y-67352334D02*
X140778066Y-67381494D01*
X140778066Y-67381494D02*
X140788740Y-67433653D01*
X140788740Y-67433653D02*
X140787088Y-67531808D01*
X140787088Y-67531808D02*
X140756277Y-67646800D01*
X140756277Y-67646800D02*
X140708629Y-67732630D01*
X140708629Y-67732630D02*
X140673306Y-67772464D01*
X140673306Y-67772464D02*
X140644145Y-67789300D01*
X140644145Y-67789300D02*
X140591987Y-67799974D01*
X140591987Y-67799974D02*
X140545990Y-67787649D01*
X140545990Y-67787649D02*
X140506156Y-67752326D01*
X140506156Y-67752326D02*
X140489320Y-67723165D01*
X140489320Y-67723165D02*
X140478647Y-67671007D01*
X140478647Y-67671007D02*
X140480298Y-67572851D01*
X140480298Y-67572851D02*
X140511110Y-67457860D01*
X140511110Y-67457860D02*
X140558757Y-67372030D01*
X140558757Y-67372030D02*
X140594080Y-67332195D01*
X140594080Y-67332195D02*
X140623241Y-67315360D01*
X140623241Y-67315360D02*
X140675400Y-67304686D01*
X140498636Y-68608328D02*
X140222657Y-68534380D01*
X140360646Y-68571354D02*
X140490056Y-68088391D01*
X140490056Y-68088391D02*
X140425572Y-68145061D01*
X140425572Y-68145061D02*
X140367251Y-68178733D01*
X140367251Y-68178733D02*
X140315092Y-68189407D01*
X140258716Y-68859772D02*
X140304712Y-68872097D01*
X140304712Y-68872097D02*
X140344546Y-68907420D01*
X140344546Y-68907420D02*
X140361382Y-68936580D01*
X140361382Y-68936580D02*
X140372056Y-68988739D01*
X140372056Y-68988739D02*
X140370404Y-69086894D01*
X140370404Y-69086894D02*
X140339593Y-69201886D01*
X140339593Y-69201886D02*
X140291945Y-69287716D01*
X140291945Y-69287716D02*
X140256622Y-69327550D01*
X140256622Y-69327550D02*
X140227461Y-69344386D01*
X140227461Y-69344386D02*
X140175303Y-69355060D01*
X140175303Y-69355060D02*
X140129306Y-69342735D01*
X140129306Y-69342735D02*
X140089472Y-69307412D01*
X140089472Y-69307412D02*
X140072636Y-69278251D01*
X140072636Y-69278251D02*
X140061963Y-69226093D01*
X140061963Y-69226093D02*
X140063614Y-69127937D01*
X140063614Y-69127937D02*
X140094426Y-69012946D01*
X140094426Y-69012946D02*
X140142073Y-68927116D01*
X140142073Y-68927116D02*
X140177396Y-68887281D01*
X140177396Y-68887281D02*
X140206557Y-68870446D01*
X140206557Y-68870446D02*
X140258716Y-68859772D01*
X140050374Y-69637315D02*
X140096370Y-69649640D01*
X140096370Y-69649640D02*
X140136204Y-69684963D01*
X140136204Y-69684963D02*
X140153040Y-69714123D01*
X140153040Y-69714123D02*
X140163714Y-69766282D01*
X140163714Y-69766282D02*
X140162062Y-69864437D01*
X140162062Y-69864437D02*
X140131251Y-69979429D01*
X140131251Y-69979429D02*
X140083603Y-70065259D01*
X140083603Y-70065259D02*
X140048280Y-70105093D01*
X140048280Y-70105093D02*
X140019119Y-70121929D01*
X140019119Y-70121929D02*
X139966961Y-70132603D01*
X139966961Y-70132603D02*
X139920964Y-70120278D01*
X139920964Y-70120278D02*
X139881130Y-70084955D01*
X139881130Y-70084955D02*
X139864294Y-70055794D01*
X139864294Y-70055794D02*
X139853621Y-70003636D01*
X139853621Y-70003636D02*
X139855272Y-69905480D01*
X139855272Y-69905480D02*
X139886084Y-69790489D01*
X139886084Y-69790489D02*
X139933731Y-69704659D01*
X139933731Y-69704659D02*
X139969054Y-69664824D01*
X139969054Y-69664824D02*
X139998215Y-69647989D01*
X139998215Y-69647989D02*
X140050374Y-69637315D01*
X139842032Y-70414858D02*
X139888028Y-70427183D01*
X139888028Y-70427183D02*
X139927862Y-70462506D01*
X139927862Y-70462506D02*
X139944698Y-70491666D01*
X139944698Y-70491666D02*
X139955372Y-70543825D01*
X139955372Y-70543825D02*
X139953720Y-70641980D01*
X139953720Y-70641980D02*
X139922909Y-70756972D01*
X139922909Y-70756972D02*
X139875261Y-70842802D01*
X139875261Y-70842802D02*
X139839938Y-70882636D01*
X139839938Y-70882636D02*
X139810777Y-70899472D01*
X139810777Y-70899472D02*
X139758619Y-70910146D01*
X139758619Y-70910146D02*
X139712622Y-70897821D01*
X139712622Y-70897821D02*
X139672788Y-70862498D01*
X139672788Y-70862498D02*
X139655952Y-70833337D01*
X139655952Y-70833337D02*
X139645279Y-70781179D01*
X139645279Y-70781179D02*
X139646930Y-70683023D01*
X139646930Y-70683023D02*
X139677742Y-70568032D01*
X139677742Y-70568032D02*
X139725389Y-70482202D01*
X139725389Y-70482202D02*
X139760712Y-70442367D01*
X139760712Y-70442367D02*
X139789873Y-70425532D01*
X139789873Y-70425532D02*
X139842032Y-70414858D01*
X139633690Y-71192401D02*
X139679686Y-71204726D01*
X139679686Y-71204726D02*
X139719520Y-71240049D01*
X139719520Y-71240049D02*
X139736356Y-71269209D01*
X139736356Y-71269209D02*
X139747030Y-71321368D01*
X139747030Y-71321368D02*
X139745378Y-71419523D01*
X139745378Y-71419523D02*
X139714567Y-71534515D01*
X139714567Y-71534515D02*
X139666919Y-71620345D01*
X139666919Y-71620345D02*
X139631596Y-71660179D01*
X139631596Y-71660179D02*
X139602435Y-71677015D01*
X139602435Y-71677015D02*
X139550277Y-71687689D01*
X139550277Y-71687689D02*
X139504280Y-71675364D01*
X139504280Y-71675364D02*
X139464446Y-71640041D01*
X139464446Y-71640041D02*
X139447610Y-71610880D01*
X139447610Y-71610880D02*
X139436937Y-71558722D01*
X139436937Y-71558722D02*
X139438588Y-71460566D01*
X139438588Y-71460566D02*
X139469400Y-71345575D01*
X139469400Y-71345575D02*
X139517047Y-71259745D01*
X139517047Y-71259745D02*
X139552370Y-71219910D01*
X139552370Y-71219910D02*
X139581531Y-71203075D01*
X139581531Y-71203075D02*
X139633690Y-71192401D01*
X139456926Y-72496043D02*
X139180947Y-72422095D01*
X139318936Y-72459069D02*
X139448346Y-71976106D01*
X139448346Y-71976106D02*
X139383862Y-72032776D01*
X139383862Y-72032776D02*
X139325541Y-72066448D01*
X139325541Y-72066448D02*
X139273382Y-72077122D01*
D10*
X166746666Y-45834819D02*
X166746666Y-46549104D01*
X166746666Y-46549104D02*
X166699047Y-46691961D01*
X166699047Y-46691961D02*
X166603809Y-46787200D01*
X166603809Y-46787200D02*
X166460952Y-46834819D01*
X166460952Y-46834819D02*
X166365714Y-46834819D01*
X167175238Y-45930057D02*
X167222857Y-45882438D01*
X167222857Y-45882438D02*
X167318095Y-45834819D01*
X167318095Y-45834819D02*
X167556190Y-45834819D01*
X167556190Y-45834819D02*
X167651428Y-45882438D01*
X167651428Y-45882438D02*
X167699047Y-45930057D01*
X167699047Y-45930057D02*
X167746666Y-46025295D01*
X167746666Y-46025295D02*
X167746666Y-46120533D01*
X167746666Y-46120533D02*
X167699047Y-46263390D01*
X167699047Y-46263390D02*
X167127619Y-46834819D01*
X167127619Y-46834819D02*
X167746666Y-46834819D01*
X166746666Y-81394819D02*
X166746666Y-82109104D01*
X166746666Y-82109104D02*
X166699047Y-82251961D01*
X166699047Y-82251961D02*
X166603809Y-82347200D01*
X166603809Y-82347200D02*
X166460952Y-82394819D01*
X166460952Y-82394819D02*
X166365714Y-82394819D01*
X167651428Y-81728152D02*
X167651428Y-82394819D01*
X167413333Y-81347200D02*
X167175238Y-82061485D01*
X167175238Y-82061485D02*
X167794285Y-82061485D01*
X156586666Y-81394819D02*
X156586666Y-82109104D01*
X156586666Y-82109104D02*
X156539047Y-82251961D01*
X156539047Y-82251961D02*
X156443809Y-82347200D01*
X156443809Y-82347200D02*
X156300952Y-82394819D01*
X156300952Y-82394819D02*
X156205714Y-82394819D01*
X156967619Y-81394819D02*
X157586666Y-81394819D01*
X157586666Y-81394819D02*
X157253333Y-81775771D01*
X157253333Y-81775771D02*
X157396190Y-81775771D01*
X157396190Y-81775771D02*
X157491428Y-81823390D01*
X157491428Y-81823390D02*
X157539047Y-81871009D01*
X157539047Y-81871009D02*
X157586666Y-81966247D01*
X157586666Y-81966247D02*
X157586666Y-82204342D01*
X157586666Y-82204342D02*
X157539047Y-82299580D01*
X157539047Y-82299580D02*
X157491428Y-82347200D01*
X157491428Y-82347200D02*
X157396190Y-82394819D01*
X157396190Y-82394819D02*
X157110476Y-82394819D01*
X157110476Y-82394819D02*
X157015238Y-82347200D01*
X157015238Y-82347200D02*
X156967619Y-82299580D01*
X149926666Y-60134819D02*
X149926666Y-60849104D01*
X149926666Y-60849104D02*
X149879047Y-60991961D01*
X149879047Y-60991961D02*
X149783809Y-61087200D01*
X149783809Y-61087200D02*
X149640952Y-61134819D01*
X149640952Y-61134819D02*
X149545714Y-61134819D01*
X150879047Y-60134819D02*
X150402857Y-60134819D01*
X150402857Y-60134819D02*
X150355238Y-60611009D01*
X150355238Y-60611009D02*
X150402857Y-60563390D01*
X150402857Y-60563390D02*
X150498095Y-60515771D01*
X150498095Y-60515771D02*
X150736190Y-60515771D01*
X150736190Y-60515771D02*
X150831428Y-60563390D01*
X150831428Y-60563390D02*
X150879047Y-60611009D01*
X150879047Y-60611009D02*
X150926666Y-60706247D01*
X150926666Y-60706247D02*
X150926666Y-60944342D01*
X150926666Y-60944342D02*
X150879047Y-61039580D01*
X150879047Y-61039580D02*
X150831428Y-61087200D01*
X150831428Y-61087200D02*
X150736190Y-61134819D01*
X150736190Y-61134819D02*
X150498095Y-61134819D01*
X150498095Y-61134819D02*
X150402857Y-61087200D01*
X150402857Y-61087200D02*
X150355238Y-61039580D01*
%TO.C,J2*%
D13*
X162520000Y-47270000D02*
X171640000Y-47270000D01*
X162520000Y-61860000D02*
X163830000Y-61860000D01*
X162520000Y-80550000D02*
X162520000Y-47270000D01*
X163830000Y-48570000D02*
X170330000Y-48570000D01*
X163830000Y-61860000D02*
X163830000Y-48570000D01*
X163830000Y-65960000D02*
X162520000Y-65960000D01*
X163830000Y-65960000D02*
X163830000Y-65960000D01*
X163830000Y-79250000D02*
X163830000Y-65960000D01*
X170330000Y-48570000D02*
X170330000Y-79250000D01*
X170330000Y-79250000D02*
X163830000Y-79250000D01*
X171640000Y-47270000D02*
X171640000Y-80550000D01*
X171640000Y-80550000D02*
X162520000Y-80550000D01*
%TO.C,J4*%
X162520000Y-82830000D02*
X171640000Y-82830000D01*
X162520000Y-97420000D02*
X163830000Y-97420000D01*
X162520000Y-116110000D02*
X162520000Y-82830000D01*
X163830000Y-84130000D02*
X170330000Y-84130000D01*
X163830000Y-97420000D02*
X163830000Y-84130000D01*
X163830000Y-101520000D02*
X162520000Y-101520000D01*
X163830000Y-101520000D02*
X163830000Y-101520000D01*
X163830000Y-114810000D02*
X163830000Y-101520000D01*
X170330000Y-84130000D02*
X170330000Y-114810000D01*
X170330000Y-114810000D02*
X163830000Y-114810000D01*
X171640000Y-82830000D02*
X171640000Y-116110000D01*
X171640000Y-116110000D02*
X162520000Y-116110000D01*
%TO.C,J3*%
X152360000Y-82830000D02*
X161480000Y-82830000D01*
X152360000Y-97420000D02*
X153670000Y-97420000D01*
X152360000Y-116110000D02*
X152360000Y-82830000D01*
X153670000Y-84130000D02*
X160170000Y-84130000D01*
X153670000Y-97420000D02*
X153670000Y-84130000D01*
X153670000Y-101520000D02*
X152360000Y-101520000D01*
X153670000Y-101520000D02*
X153670000Y-101520000D01*
X153670000Y-114810000D02*
X153670000Y-101520000D01*
X160170000Y-84130000D02*
X160170000Y-114810000D01*
X160170000Y-114810000D02*
X153670000Y-114810000D01*
X161480000Y-82830000D02*
X161480000Y-116110000D01*
X161480000Y-116110000D02*
X152360000Y-116110000D01*
%TO.C,J5*%
X146165000Y-58540000D02*
X146165000Y-55940000D01*
X146165000Y-61140000D02*
X146165000Y-59810000D01*
X147495000Y-61140000D02*
X146165000Y-61140000D01*
X148825000Y-55940000D02*
X146165000Y-55940000D01*
X148825000Y-58540000D02*
X146165000Y-58540000D01*
X148825000Y-58540000D02*
X148825000Y-55940000D01*
D14*
%TO.C,REF\u002A\u002A*%
G36*
X149547370Y-76101434D02*
G01*
X149566866Y-76102550D01*
X149586660Y-76104410D01*
X149606752Y-76107015D01*
X149627141Y-76110363D01*
X149647828Y-76114456D01*
X149668813Y-76119293D01*
X149690095Y-76124874D01*
X149668665Y-76565405D01*
X149475783Y-76565405D01*
X149448187Y-76366709D01*
X149444195Y-76366013D01*
X149440065Y-76365380D01*
X149436493Y-76364822D01*
X149432921Y-76364338D01*
X149429349Y-76363929D01*
X149425777Y-76363594D01*
X149422205Y-76363334D01*
X149418634Y-76363148D01*
X149415062Y-76363036D01*
X149411490Y-76362999D01*
X149402262Y-76363176D01*
X149393035Y-76363706D01*
X149383807Y-76364590D01*
X149374580Y-76365827D01*
X149365353Y-76367417D01*
X149356125Y-76369361D01*
X149346898Y-76371659D01*
X149337671Y-76374310D01*
X149328443Y-76377314D01*
X149319216Y-76380672D01*
X149309989Y-76384384D01*
X149300762Y-76388449D01*
X149291534Y-76392867D01*
X149282307Y-76397639D01*
X149273080Y-76402764D01*
X149263852Y-76408243D01*
X149254997Y-76414000D01*
X149246291Y-76419963D01*
X149237733Y-76426130D01*
X149229324Y-76432502D01*
X149221064Y-76439078D01*
X149212953Y-76445859D01*
X149204991Y-76452845D01*
X149197177Y-76460035D01*
X149189512Y-76467430D01*
X149181997Y-76475029D01*
X149174630Y-76482833D01*
X149167411Y-76490842D01*
X149166221Y-76492226D01*
X149166221Y-77183857D01*
X149363864Y-77229774D01*
X149363864Y-77401224D01*
X148673301Y-77401224D01*
X148673301Y-77229774D01*
X148832846Y-77184471D01*
X148832846Y-76356285D01*
X148673301Y-76308230D01*
X148673301Y-76136780D01*
X149092402Y-76117730D01*
X149126908Y-76299844D01*
X149145831Y-76281739D01*
X149159142Y-76269591D01*
X149172434Y-76257852D01*
X149185708Y-76246522D01*
X149198963Y-76235602D01*
X149212199Y-76225091D01*
X149225417Y-76214989D01*
X149238616Y-76205297D01*
X149251797Y-76196014D01*
X149264959Y-76187140D01*
X149278102Y-76178675D01*
X149291227Y-76170620D01*
X149304333Y-76162974D01*
X149317486Y-76155477D01*
X149330750Y-76148463D01*
X149344126Y-76141933D01*
X149357614Y-76135887D01*
X149371213Y-76130325D01*
X149384924Y-76125246D01*
X149398746Y-76120651D01*
X149412680Y-76116540D01*
X149426726Y-76112912D01*
X149440883Y-76109768D01*
X149455152Y-76107108D01*
X149469533Y-76104931D01*
X149484025Y-76103238D01*
X149498628Y-76102029D01*
X149513344Y-76101303D01*
X149528171Y-76101061D01*
X149547370Y-76101434D01*
G37*
G36*
X142473107Y-76101461D02*
G01*
X142492706Y-76102661D01*
X142511877Y-76104661D01*
X142530620Y-76107461D01*
X142548935Y-76111061D01*
X142566822Y-76115461D01*
X142584282Y-76120660D01*
X142601313Y-76126660D01*
X142617917Y-76133459D01*
X142634093Y-76141059D01*
X142649841Y-76149458D01*
X142665161Y-76158658D01*
X142680053Y-76168657D01*
X142694517Y-76179457D01*
X142708553Y-76191056D01*
X142722162Y-76203455D01*
X142735128Y-76216366D01*
X142747239Y-76230095D01*
X142758494Y-76244643D01*
X142768894Y-76260010D01*
X142778437Y-76276195D01*
X142787125Y-76293199D01*
X142794957Y-76311021D01*
X142801934Y-76329661D01*
X142808054Y-76349121D01*
X142813319Y-76369399D01*
X142817728Y-76390495D01*
X142821281Y-76412410D01*
X142823979Y-76435143D01*
X142825820Y-76458695D01*
X142826806Y-76483066D01*
X142826937Y-76508255D01*
X142826937Y-77181911D01*
X142986480Y-77229774D01*
X142986480Y-77401224D01*
X142350687Y-77401224D01*
X142350687Y-77229774D01*
X142493562Y-77188415D01*
X142493562Y-76579693D01*
X142493357Y-76565349D01*
X142492743Y-76551490D01*
X142491720Y-76538114D01*
X142490287Y-76525222D01*
X142488446Y-76512813D01*
X142486195Y-76500888D01*
X142483534Y-76489447D01*
X142480465Y-76478490D01*
X142476986Y-76468016D01*
X142473098Y-76458026D01*
X142468800Y-76448519D01*
X142464094Y-76439497D01*
X142458978Y-76430958D01*
X142453453Y-76422902D01*
X142447518Y-76415331D01*
X142441174Y-76408243D01*
X142434793Y-76401610D01*
X142428152Y-76395406D01*
X142421250Y-76389630D01*
X142414087Y-76384281D01*
X142406665Y-76379361D01*
X142398981Y-76374868D01*
X142391038Y-76370803D01*
X142382834Y-76367166D01*
X142374369Y-76363957D01*
X142365644Y-76361176D01*
X142356658Y-76358822D01*
X142347412Y-76356897D01*
X142337906Y-76355399D01*
X142328139Y-76354330D01*
X142318112Y-76353688D01*
X142307824Y-76353474D01*
X142299741Y-76353613D01*
X142291565Y-76354032D01*
X142283295Y-76354730D01*
X142274933Y-76355706D01*
X142266478Y-76356962D01*
X142257930Y-76358497D01*
X142249288Y-76360311D01*
X142240554Y-76362404D01*
X142231727Y-76364776D01*
X142222806Y-76367427D01*
X142213793Y-76370357D01*
X142204686Y-76373566D01*
X142195487Y-76377054D01*
X142186194Y-76380821D01*
X142176809Y-76384867D01*
X142167330Y-76389193D01*
X142157815Y-76393797D01*
X142148318Y-76398680D01*
X142138839Y-76403843D01*
X142129379Y-76409284D01*
X142119938Y-76415005D01*
X142110515Y-76421005D01*
X142101111Y-76427283D01*
X142091726Y-76433841D01*
X142082359Y-76440678D01*
X142073011Y-76447794D01*
X142063681Y-76455189D01*
X142054370Y-76462863D01*
X142045077Y-76470816D01*
X142038743Y-76476439D01*
X142038743Y-77186716D01*
X142181618Y-77229774D01*
X142181618Y-77401224D01*
X141545824Y-77401224D01*
X141545824Y-77229774D01*
X141705368Y-77184190D01*
X141705368Y-76355713D01*
X141545824Y-76308230D01*
X141545824Y-76136780D01*
X141964924Y-76117730D01*
X141998543Y-76297032D01*
X142008289Y-76288083D01*
X142022967Y-76275190D01*
X142037757Y-76262782D01*
X142052658Y-76250857D01*
X142067671Y-76239416D01*
X142082796Y-76228458D01*
X142098032Y-76217985D01*
X142113380Y-76207994D01*
X142128840Y-76198488D01*
X142144411Y-76189465D01*
X142160094Y-76180926D01*
X142175888Y-76172871D01*
X142191794Y-76165299D01*
X142207812Y-76158211D01*
X142223839Y-76151291D01*
X142239773Y-76144817D01*
X142255613Y-76138789D01*
X142271361Y-76133208D01*
X142287016Y-76128074D01*
X142302578Y-76123386D01*
X142318047Y-76119144D01*
X142333423Y-76115349D01*
X142348705Y-76112000D01*
X142363895Y-76109098D01*
X142378992Y-76106643D01*
X142393996Y-76104633D01*
X142408906Y-76103071D01*
X142423724Y-76101954D01*
X142438449Y-76101285D01*
X142453080Y-76101061D01*
X142473107Y-76101461D01*
G37*
G36*
X145340370Y-76101461D02*
G01*
X145359969Y-76102661D01*
X145379140Y-76104661D01*
X145397883Y-76107461D01*
X145416198Y-76111061D01*
X145434085Y-76115461D01*
X145451545Y-76120660D01*
X145468576Y-76126660D01*
X145485180Y-76133459D01*
X145501356Y-76141059D01*
X145517104Y-76149458D01*
X145532424Y-76158658D01*
X145547316Y-76168657D01*
X145561780Y-76179457D01*
X145575816Y-76191056D01*
X145589425Y-76203455D01*
X145602391Y-76216366D01*
X145614502Y-76230095D01*
X145625757Y-76244643D01*
X145636157Y-76260010D01*
X145645700Y-76276195D01*
X145654388Y-76293199D01*
X145662220Y-76311021D01*
X145669197Y-76329661D01*
X145675317Y-76349121D01*
X145680582Y-76369399D01*
X145684991Y-76390495D01*
X145688544Y-76412410D01*
X145691242Y-76435143D01*
X145693084Y-76458695D01*
X145694070Y-76483066D01*
X145694200Y-76508255D01*
X145694200Y-77181911D01*
X145853743Y-77229774D01*
X145853743Y-77401224D01*
X145217950Y-77401224D01*
X145217950Y-77229774D01*
X145360825Y-77188415D01*
X145360825Y-76579693D01*
X145360620Y-76565349D01*
X145360006Y-76551490D01*
X145358983Y-76538114D01*
X145357551Y-76525222D01*
X145355709Y-76512813D01*
X145353458Y-76500888D01*
X145350797Y-76489447D01*
X145347728Y-76478490D01*
X145344249Y-76468016D01*
X145340361Y-76458026D01*
X145336063Y-76448519D01*
X145331357Y-76439497D01*
X145326241Y-76430958D01*
X145320716Y-76422902D01*
X145314781Y-76415331D01*
X145308437Y-76408243D01*
X145302056Y-76401610D01*
X145295415Y-76395406D01*
X145288513Y-76389630D01*
X145281351Y-76384281D01*
X145273928Y-76379361D01*
X145266244Y-76374868D01*
X145258301Y-76370803D01*
X145250097Y-76367166D01*
X145241632Y-76363957D01*
X145232907Y-76361176D01*
X145223921Y-76358822D01*
X145214675Y-76356897D01*
X145205169Y-76355399D01*
X145195402Y-76354330D01*
X145185375Y-76353688D01*
X145175087Y-76353474D01*
X145167004Y-76353613D01*
X145158828Y-76354032D01*
X145150558Y-76354730D01*
X145142196Y-76355706D01*
X145133741Y-76356962D01*
X145125193Y-76358497D01*
X145116551Y-76360311D01*
X145107817Y-76362404D01*
X145098990Y-76364776D01*
X145090069Y-76367427D01*
X145081056Y-76370357D01*
X145071949Y-76373566D01*
X145062750Y-76377054D01*
X145053457Y-76380821D01*
X145044072Y-76384867D01*
X145034593Y-76389193D01*
X145025078Y-76393797D01*
X145015581Y-76398680D01*
X145006102Y-76403843D01*
X144996642Y-76409284D01*
X144987201Y-76415005D01*
X144977778Y-76421005D01*
X144968374Y-76427283D01*
X144958989Y-76433841D01*
X144949622Y-76440678D01*
X144940274Y-76447794D01*
X144930944Y-76455189D01*
X144921633Y-76462863D01*
X144912341Y-76470816D01*
X144906006Y-76476438D01*
X144906006Y-77186716D01*
X145048881Y-77229774D01*
X145048881Y-77401224D01*
X144413087Y-77401224D01*
X144413087Y-77229774D01*
X144572631Y-77184190D01*
X144572631Y-76355713D01*
X144413087Y-76308230D01*
X144413087Y-76136780D01*
X144832187Y-76117730D01*
X144865806Y-76297032D01*
X144875552Y-76288083D01*
X144890230Y-76275190D01*
X144905020Y-76262782D01*
X144919921Y-76250857D01*
X144934934Y-76239416D01*
X144950059Y-76228458D01*
X144965295Y-76217985D01*
X144980643Y-76207994D01*
X144996103Y-76198488D01*
X145011674Y-76189465D01*
X145027357Y-76180926D01*
X145043151Y-76172871D01*
X145059057Y-76165299D01*
X145075075Y-76158211D01*
X145091102Y-76151291D01*
X145107036Y-76144817D01*
X145122877Y-76138789D01*
X145138624Y-76133208D01*
X145154279Y-76128074D01*
X145169841Y-76123386D01*
X145185310Y-76119144D01*
X145200686Y-76115349D01*
X145215968Y-76112000D01*
X145231158Y-76109098D01*
X145246255Y-76106643D01*
X145261259Y-76104633D01*
X145276169Y-76103071D01*
X145290987Y-76101954D01*
X145305712Y-76101285D01*
X145320343Y-76101061D01*
X145340370Y-76101461D01*
G37*
G36*
X152967529Y-76261993D02*
G01*
X152981445Y-76250857D01*
X152996458Y-76239416D01*
X153011582Y-76228458D01*
X153026818Y-76217985D01*
X153042166Y-76207994D01*
X153057626Y-76198488D01*
X153073197Y-76189465D01*
X153088880Y-76180926D01*
X153104674Y-76172871D01*
X153120580Y-76165299D01*
X153136598Y-76158211D01*
X153152625Y-76151291D01*
X153168559Y-76144817D01*
X153184400Y-76138789D01*
X153200148Y-76133208D01*
X153215802Y-76128074D01*
X153231364Y-76123386D01*
X153246833Y-76119144D01*
X153262209Y-76115349D01*
X153277491Y-76112000D01*
X153292681Y-76109098D01*
X153307778Y-76106643D01*
X153322782Y-76104633D01*
X153337692Y-76103071D01*
X153352510Y-76101954D01*
X153367235Y-76101285D01*
X153381866Y-76101061D01*
X153395177Y-76101238D01*
X153408320Y-76101768D01*
X153421296Y-76102652D01*
X153434105Y-76103889D01*
X153446746Y-76105480D01*
X153459220Y-76107424D01*
X153471526Y-76109721D01*
X153483665Y-76112372D01*
X153495636Y-76115377D01*
X153507440Y-76118735D01*
X153519077Y-76122446D01*
X153530546Y-76126511D01*
X153541847Y-76130929D01*
X153552982Y-76135701D01*
X153563949Y-76140826D01*
X153574748Y-76146305D01*
X153585315Y-76152137D01*
X153595584Y-76158323D01*
X153605555Y-76164862D01*
X153615229Y-76171755D01*
X153624605Y-76179001D01*
X153633683Y-76186600D01*
X153642464Y-76194553D01*
X153650947Y-76202860D01*
X153659133Y-76211520D01*
X153667021Y-76220533D01*
X153674611Y-76229900D01*
X153681904Y-76239620D01*
X153688899Y-76249694D01*
X153695596Y-76260122D01*
X153701995Y-76270902D01*
X153708097Y-76282036D01*
X153714143Y-76293236D01*
X153719780Y-76304807D01*
X153725008Y-76316751D01*
X153729826Y-76329066D01*
X153734235Y-76341754D01*
X153738235Y-76354813D01*
X153741825Y-76368245D01*
X153745007Y-76382049D01*
X153747779Y-76396225D01*
X153750141Y-76410773D01*
X153752095Y-76425693D01*
X153753639Y-76440985D01*
X153754774Y-76456649D01*
X153755500Y-76472685D01*
X153755816Y-76489094D01*
X153755723Y-76505874D01*
X153755723Y-77181911D01*
X153915267Y-77229774D01*
X153915267Y-77401224D01*
X153279473Y-77401224D01*
X153279473Y-77229774D01*
X153422348Y-77188952D01*
X153422348Y-76577311D01*
X153422431Y-76563257D01*
X153422087Y-76549667D01*
X153421315Y-76536542D01*
X153420115Y-76523882D01*
X153418487Y-76511688D01*
X153416432Y-76499958D01*
X153413948Y-76488694D01*
X153411037Y-76477894D01*
X153407697Y-76467560D01*
X153403930Y-76457691D01*
X153399735Y-76448287D01*
X153395112Y-76439348D01*
X153390061Y-76430874D01*
X153384583Y-76422865D01*
X153378676Y-76415321D01*
X153372341Y-76408243D01*
X153365672Y-76401610D01*
X153358761Y-76395406D01*
X153351608Y-76389630D01*
X153344213Y-76384281D01*
X153336576Y-76379361D01*
X153328697Y-76374868D01*
X153320577Y-76370803D01*
X153312215Y-76367166D01*
X153303611Y-76363957D01*
X153294765Y-76361176D01*
X153285677Y-76358822D01*
X153276347Y-76356897D01*
X153266776Y-76355399D01*
X153256962Y-76354330D01*
X153246907Y-76353688D01*
X153236610Y-76353474D01*
X153228527Y-76353613D01*
X153220351Y-76354032D01*
X153212081Y-76354730D01*
X153203719Y-76355706D01*
X153195264Y-76356962D01*
X153186716Y-76358497D01*
X153178074Y-76360311D01*
X153169340Y-76362404D01*
X153160512Y-76364776D01*
X153151592Y-76367427D01*
X153142579Y-76370357D01*
X153133472Y-76373566D01*
X153124273Y-76377054D01*
X153114980Y-76380821D01*
X153105595Y-76384867D01*
X153096116Y-76389193D01*
X153086591Y-76393797D01*
X153077066Y-76398680D01*
X153067541Y-76403843D01*
X153058016Y-76409284D01*
X153048491Y-76415005D01*
X153038966Y-76421005D01*
X153029441Y-76427283D01*
X153019916Y-76433841D01*
X153010391Y-76440678D01*
X153000866Y-76447794D01*
X152991341Y-76455189D01*
X152981816Y-76462863D01*
X152972291Y-76470816D01*
X152967529Y-76474932D01*
X152967529Y-77186716D01*
X153110404Y-77229774D01*
X153110404Y-77401224D01*
X152476991Y-77401224D01*
X152476991Y-77229774D01*
X152634154Y-77184329D01*
X152634154Y-75784556D01*
X152476991Y-75739111D01*
X152476991Y-75567661D01*
X152967529Y-75548611D01*
X152967529Y-76261993D01*
G37*
G36*
X151912148Y-76101350D02*
G01*
X151929021Y-76102215D01*
X151945634Y-76103657D01*
X151961987Y-76105675D01*
X151978079Y-76108270D01*
X151993910Y-76111442D01*
X152009482Y-76115191D01*
X152024792Y-76119516D01*
X152039843Y-76124418D01*
X152054632Y-76129897D01*
X152069162Y-76135952D01*
X152083431Y-76142584D01*
X152097439Y-76149793D01*
X152111187Y-76157579D01*
X152124674Y-76165941D01*
X152137902Y-76174880D01*
X152150822Y-76184089D01*
X152163388Y-76193856D01*
X152175601Y-76204181D01*
X152187461Y-76215064D01*
X152198967Y-76226505D01*
X152210120Y-76238504D01*
X152220920Y-76251062D01*
X152231366Y-76264177D01*
X152241458Y-76277851D01*
X152251197Y-76292082D01*
X152260582Y-76306872D01*
X152269614Y-76322220D01*
X152278293Y-76338126D01*
X152286618Y-76354590D01*
X152294589Y-76371612D01*
X152302207Y-76389193D01*
X152309704Y-76407006D01*
X152316718Y-76425321D01*
X152323248Y-76444138D01*
X152329294Y-76463458D01*
X152334857Y-76483280D01*
X152339935Y-76503604D01*
X152344530Y-76524431D01*
X152348642Y-76545760D01*
X152352269Y-76567591D01*
X152355413Y-76589925D01*
X152358074Y-76612760D01*
X152360250Y-76636099D01*
X152361943Y-76659939D01*
X152363152Y-76684282D01*
X152363878Y-76709127D01*
X152364120Y-76734474D01*
X152363813Y-76763049D01*
X152362892Y-76791029D01*
X152361357Y-76818413D01*
X152359208Y-76845202D01*
X152356446Y-76871396D01*
X152353069Y-76896994D01*
X152349079Y-76921997D01*
X152344475Y-76946405D01*
X152339256Y-76970218D01*
X152333424Y-76993435D01*
X152326978Y-77016057D01*
X152319918Y-77038083D01*
X152312244Y-77059514D01*
X152303956Y-77080350D01*
X152295055Y-77100591D01*
X152285539Y-77120236D01*
X152275465Y-77139286D01*
X152264889Y-77157741D01*
X152253811Y-77175600D01*
X152242230Y-77192864D01*
X152230147Y-77209533D01*
X152217562Y-77225607D01*
X152204474Y-77241085D01*
X152190884Y-77255968D01*
X152176792Y-77270255D01*
X152162198Y-77283947D01*
X152147101Y-77297044D01*
X152131502Y-77309546D01*
X152115401Y-77321452D01*
X152098797Y-77332763D01*
X152081691Y-77343479D01*
X152064083Y-77353599D01*
X152046335Y-77362826D01*
X152028215Y-77371458D01*
X152009723Y-77379495D01*
X151990860Y-77386936D01*
X151971623Y-77393782D01*
X151952015Y-77400033D01*
X151932035Y-77405689D01*
X151911683Y-77410749D01*
X151890958Y-77415214D01*
X151869862Y-77419083D01*
X151848393Y-77422358D01*
X151826553Y-77425036D01*
X151804340Y-77427120D01*
X151781756Y-77428608D01*
X151758799Y-77429501D01*
X151735470Y-77429799D01*
X151721108Y-77429650D01*
X151706598Y-77429204D01*
X151691938Y-77428459D01*
X151677130Y-77427418D01*
X151662173Y-77426078D01*
X151647067Y-77424441D01*
X151631812Y-77422506D01*
X151616408Y-77420274D01*
X151600855Y-77418376D01*
X151585154Y-77416256D01*
X151569304Y-77413911D01*
X151553305Y-77411344D01*
X151537157Y-77408554D01*
X151530683Y-77407357D01*
X151530683Y-77727532D01*
X151716420Y-77777461D01*
X151716420Y-77948911D01*
X151037764Y-77948911D01*
X151037764Y-77777461D01*
X151197308Y-77724906D01*
X151197308Y-77171754D01*
X151197308Y-76446615D01*
X151530683Y-76446615D01*
X151530683Y-77171754D01*
X151544821Y-77175303D01*
X151571127Y-77181033D01*
X151596762Y-77185721D01*
X151621728Y-77189367D01*
X151646024Y-77191972D01*
X151669651Y-77193534D01*
X151692608Y-77194055D01*
X151713379Y-77193609D01*
X151733424Y-77192269D01*
X151752744Y-77190037D01*
X151771338Y-77186912D01*
X151789207Y-77182893D01*
X151806350Y-77177982D01*
X151822767Y-77172177D01*
X151838459Y-77165480D01*
X151853426Y-77157890D01*
X151867667Y-77149407D01*
X151881182Y-77140031D01*
X151893972Y-77129761D01*
X151906037Y-77118599D01*
X151917376Y-77106544D01*
X151927989Y-77093596D01*
X151937877Y-77079755D01*
X151947392Y-77065142D01*
X151956294Y-77049878D01*
X151964582Y-77033963D01*
X151972256Y-77017396D01*
X151979316Y-77000179D01*
X151985762Y-76982310D01*
X151991594Y-76963790D01*
X151996812Y-76944619D01*
X152001417Y-76924797D01*
X152005407Y-76904324D01*
X152008784Y-76883200D01*
X152011546Y-76861424D01*
X152013695Y-76838998D01*
X152015230Y-76815920D01*
X152016151Y-76792191D01*
X152016458Y-76767811D01*
X152015974Y-76735665D01*
X152014523Y-76704708D01*
X152012104Y-76674943D01*
X152008719Y-76646368D01*
X152004366Y-76618983D01*
X151999045Y-76592790D01*
X151992757Y-76567786D01*
X151985502Y-76543974D01*
X151981539Y-76532244D01*
X151977391Y-76520868D01*
X151973056Y-76509846D01*
X151968535Y-76499177D01*
X151963829Y-76488861D01*
X151958936Y-76478899D01*
X151953857Y-76469290D01*
X151948592Y-76460035D01*
X151943141Y-76451133D01*
X151937504Y-76442585D01*
X151931681Y-76434390D01*
X151925673Y-76426549D01*
X151919478Y-76419061D01*
X151913097Y-76411926D01*
X151906529Y-76405145D01*
X151899776Y-76398718D01*
X151892828Y-76392374D01*
X151885675Y-76386439D01*
X151878317Y-76380914D01*
X151870755Y-76375798D01*
X151862988Y-76371091D01*
X151855016Y-76366794D01*
X151846840Y-76362906D01*
X151838459Y-76359427D01*
X151829874Y-76356357D01*
X151821083Y-76353697D01*
X151812089Y-76351446D01*
X151802889Y-76349604D01*
X151793485Y-76348172D01*
X151783876Y-76347149D01*
X151774063Y-76346535D01*
X151764045Y-76346330D01*
X151756278Y-76346460D01*
X151748455Y-76346851D01*
X151740577Y-76347502D01*
X151732642Y-76348414D01*
X151724652Y-76349586D01*
X151716606Y-76351018D01*
X151708504Y-76352711D01*
X151700347Y-76354665D01*
X151692133Y-76356878D01*
X151683864Y-76359353D01*
X151675539Y-76362087D01*
X151667158Y-76365083D01*
X151658721Y-76368338D01*
X151650229Y-76371854D01*
X151641681Y-76375631D01*
X151633077Y-76379668D01*
X151624426Y-76383974D01*
X151615738Y-76388560D01*
X151607013Y-76393425D01*
X151598251Y-76398569D01*
X151589452Y-76403992D01*
X151580615Y-76409694D01*
X151571741Y-76415675D01*
X151562830Y-76421935D01*
X151553882Y-76428474D01*
X151544896Y-76435292D01*
X151535873Y-76442389D01*
X151530683Y-76446615D01*
X151197308Y-76446615D01*
X151197308Y-76356286D01*
X151037764Y-76308230D01*
X151037764Y-76136780D01*
X151456864Y-76117730D01*
X151486701Y-76279968D01*
X151512377Y-76258819D01*
X151539798Y-76237537D01*
X151566997Y-76217743D01*
X151593972Y-76199437D01*
X151620724Y-76182619D01*
X151634016Y-76174769D01*
X151647252Y-76167290D01*
X151660433Y-76160183D01*
X151673558Y-76153449D01*
X151686980Y-76147105D01*
X151700458Y-76141171D01*
X151713992Y-76135645D01*
X151727582Y-76130529D01*
X151741228Y-76125823D01*
X151754930Y-76121525D01*
X151768687Y-76117637D01*
X151782500Y-76114158D01*
X151796369Y-76111089D01*
X151810294Y-76108428D01*
X151824274Y-76106177D01*
X151838311Y-76104336D01*
X151852403Y-76102903D01*
X151866551Y-76101880D01*
X151880755Y-76101266D01*
X151895014Y-76101061D01*
X151912148Y-76101350D01*
G37*
G36*
X143729458Y-76101434D02*
G01*
X143755912Y-76102550D01*
X143781547Y-76104410D01*
X143806365Y-76107015D01*
X143830363Y-76110363D01*
X143853543Y-76114456D01*
X143875905Y-76119293D01*
X143897447Y-76124874D01*
X143918172Y-76131199D01*
X143938077Y-76138268D01*
X143957165Y-76146082D01*
X143975433Y-76154640D01*
X143992884Y-76163941D01*
X144009515Y-76173987D01*
X144025328Y-76184777D01*
X144040323Y-76196311D01*
X144054452Y-76208627D01*
X144067670Y-76221761D01*
X144079976Y-76235714D01*
X144091371Y-76250485D01*
X144101854Y-76266075D01*
X144111425Y-76282483D01*
X144120085Y-76299710D01*
X144127833Y-76317755D01*
X144134670Y-76336619D01*
X144140595Y-76356302D01*
X144145609Y-76376803D01*
X144149711Y-76398122D01*
X144152902Y-76420261D01*
X144155180Y-76443217D01*
X144156548Y-76466993D01*
X144157004Y-76491586D01*
X144157004Y-77179685D01*
X144316547Y-77229774D01*
X144316547Y-77398843D01*
X143899829Y-77420274D01*
X143860244Y-77220265D01*
X143854324Y-77227058D01*
X143842093Y-77240480D01*
X143829731Y-77253438D01*
X143817238Y-77265930D01*
X143804616Y-77277957D01*
X143791863Y-77289519D01*
X143778980Y-77300616D01*
X143765967Y-77311248D01*
X143752824Y-77321415D01*
X143739550Y-77331117D01*
X143726146Y-77340353D01*
X143712612Y-77349125D01*
X143698948Y-77357431D01*
X143685153Y-77365273D01*
X143671229Y-77372649D01*
X143657211Y-77379569D01*
X143643137Y-77386043D01*
X143629008Y-77392071D01*
X143614823Y-77397652D01*
X143600582Y-77402787D01*
X143586285Y-77407475D01*
X143571932Y-77411716D01*
X143557523Y-77415511D01*
X143543058Y-77418860D01*
X143528538Y-77421762D01*
X143513961Y-77424218D01*
X143499329Y-77426227D01*
X143484640Y-77427790D01*
X143469896Y-77428906D01*
X143455096Y-77429576D01*
X143440239Y-77429799D01*
X143421394Y-77429418D01*
X143402958Y-77428273D01*
X143384931Y-77426367D01*
X143367314Y-77423697D01*
X143350105Y-77420265D01*
X143333306Y-77416069D01*
X143316917Y-77411112D01*
X143300936Y-77405391D01*
X143285365Y-77398908D01*
X143270203Y-77391662D01*
X143255451Y-77383653D01*
X143241107Y-77374881D01*
X143227173Y-77365347D01*
X143213649Y-77355050D01*
X143200533Y-77343990D01*
X143187827Y-77332168D01*
X143175716Y-77319629D01*
X143164387Y-77306420D01*
X143153838Y-77292542D01*
X143144072Y-77277994D01*
X143135086Y-77262777D01*
X143126882Y-77246889D01*
X143119459Y-77230332D01*
X143112818Y-77213105D01*
X143106958Y-77195209D01*
X143101879Y-77176642D01*
X143097581Y-77157406D01*
X143094065Y-77137500D01*
X143091331Y-77116925D01*
X143089377Y-77095680D01*
X143088205Y-77073765D01*
X143087814Y-77051180D01*
X143088038Y-77034437D01*
X143088707Y-77018140D01*
X143088728Y-77017843D01*
X143423571Y-77017843D01*
X143423729Y-77028679D01*
X143424203Y-77039162D01*
X143424994Y-77049292D01*
X143426101Y-77059068D01*
X143427524Y-77068491D01*
X143429264Y-77077560D01*
X143431320Y-77086276D01*
X143433692Y-77094638D01*
X143436381Y-77102647D01*
X143439386Y-77110302D01*
X143442707Y-77117604D01*
X143446345Y-77124552D01*
X143450299Y-77131147D01*
X143454570Y-77137389D01*
X143459157Y-77143277D01*
X143464060Y-77148811D01*
X143469501Y-77153713D01*
X143475110Y-77158299D01*
X143480887Y-77162569D01*
X143486831Y-77166522D01*
X143492942Y-77170159D01*
X143499221Y-77173480D01*
X143505667Y-77176484D01*
X143512280Y-77179172D01*
X143519061Y-77181544D01*
X143526010Y-77183600D01*
X143533125Y-77185340D01*
X143540409Y-77186763D01*
X143547859Y-77187870D01*
X143555478Y-77188660D01*
X143563263Y-77189135D01*
X143571216Y-77189293D01*
X143578704Y-77189153D01*
X143586285Y-77188735D01*
X143593959Y-77188037D01*
X143601726Y-77187060D01*
X143609586Y-77185805D01*
X143617539Y-77184270D01*
X143625585Y-77182456D01*
X143633724Y-77180363D01*
X143641956Y-77177991D01*
X143650281Y-77175340D01*
X143658699Y-77172410D01*
X143667210Y-77169201D01*
X143675814Y-77165713D01*
X143684512Y-77161945D01*
X143693302Y-77157899D01*
X143702185Y-77153574D01*
X143711087Y-77148709D01*
X143719933Y-77143640D01*
X143728723Y-77138365D01*
X143737457Y-77132887D01*
X143746136Y-77127203D01*
X143754758Y-77121315D01*
X143763325Y-77115223D01*
X143771836Y-77108925D01*
X143780292Y-77102423D01*
X143788691Y-77095717D01*
X143797035Y-77088806D01*
X143805323Y-77081690D01*
X143813555Y-77074369D01*
X143821731Y-77066844D01*
X143823629Y-77065038D01*
X143823629Y-76860680D01*
X143642654Y-76860680D01*
X143627473Y-76860829D01*
X143612888Y-76861275D01*
X143598898Y-76862020D01*
X143585504Y-76863061D01*
X143572704Y-76864401D01*
X143560501Y-76866038D01*
X143548892Y-76867973D01*
X143537879Y-76870205D01*
X143527461Y-76872735D01*
X143517638Y-76875563D01*
X143508411Y-76878688D01*
X143499779Y-76882111D01*
X143491742Y-76885832D01*
X143484301Y-76889850D01*
X143477455Y-76894166D01*
X143471204Y-76898780D01*
X143465435Y-76903710D01*
X143460039Y-76908975D01*
X143455015Y-76914575D01*
X143450363Y-76920509D01*
X143446084Y-76926778D01*
X143442176Y-76933383D01*
X143438641Y-76940322D01*
X143435478Y-76947596D01*
X143432687Y-76955205D01*
X143430268Y-76963148D01*
X143428222Y-76971427D01*
X143426547Y-76980040D01*
X143425245Y-76988989D01*
X143424315Y-76998272D01*
X143423757Y-77007890D01*
X143423571Y-77017843D01*
X143088728Y-77017843D01*
X143089824Y-77002290D01*
X143091386Y-76986886D01*
X143093396Y-76971929D01*
X143095851Y-76957418D01*
X143098753Y-76943354D01*
X143102102Y-76929736D01*
X143105897Y-76916565D01*
X143110139Y-76903840D01*
X143114827Y-76891562D01*
X143119961Y-76879730D01*
X143125542Y-76868345D01*
X143131570Y-76857406D01*
X143138044Y-76846914D01*
X143144964Y-76836868D01*
X143152611Y-76826924D01*
X143160666Y-76817334D01*
X143169130Y-76808097D01*
X143178004Y-76799214D01*
X143187287Y-76790684D01*
X143196980Y-76782508D01*
X143207082Y-76774685D01*
X143217593Y-76767216D01*
X143228513Y-76760100D01*
X143239842Y-76753338D01*
X143251581Y-76746929D01*
X143263729Y-76740874D01*
X143276287Y-76735172D01*
X143289253Y-76729823D01*
X143302629Y-76724828D01*
X143316415Y-76720186D01*
X143330590Y-76715861D01*
X143345139Y-76711815D01*
X143360059Y-76708048D01*
X143375352Y-76704559D01*
X143391016Y-76701350D01*
X143407053Y-76698420D01*
X143423462Y-76695769D01*
X143440243Y-76693397D01*
X143474922Y-76689491D01*
X143511088Y-76686700D01*
X143548743Y-76685026D01*
X143587885Y-76684468D01*
X143823629Y-76684468D01*
X143823629Y-76553499D01*
X143823415Y-76539760D01*
X143822773Y-76526524D01*
X143821703Y-76513790D01*
X143820206Y-76501558D01*
X143818280Y-76489828D01*
X143815927Y-76478601D01*
X143813146Y-76467876D01*
X143809936Y-76457654D01*
X143806299Y-76447933D01*
X143802235Y-76438715D01*
X143797742Y-76430000D01*
X143792821Y-76421786D01*
X143787473Y-76414075D01*
X143781696Y-76406866D01*
X143775492Y-76400159D01*
X143768860Y-76393955D01*
X143762116Y-76388188D01*
X143754982Y-76382793D01*
X143747457Y-76377770D01*
X143739541Y-76373119D01*
X143731234Y-76368840D01*
X143722537Y-76364934D01*
X143713449Y-76361399D01*
X143703971Y-76358236D01*
X143694102Y-76355446D01*
X143683842Y-76353027D01*
X143673191Y-76350981D01*
X143662150Y-76349307D01*
X143650718Y-76348005D01*
X143638896Y-76347074D01*
X143626683Y-76346516D01*
X143614079Y-76346330D01*
X143601466Y-76346479D01*
X143588629Y-76346926D01*
X143575569Y-76347670D01*
X143562286Y-76348711D01*
X143548780Y-76350051D01*
X143535051Y-76351688D01*
X143521098Y-76353623D01*
X143506922Y-76355855D01*
X143492486Y-76358385D01*
X143477751Y-76361213D01*
X143462718Y-76364338D01*
X143447387Y-76367761D01*
X143431759Y-76371482D01*
X143415833Y-76375500D01*
X143411962Y-76376530D01*
X143385471Y-76541593D01*
X143178302Y-76541593D01*
X143159252Y-76193930D01*
X143199287Y-76182433D01*
X143238429Y-76171755D01*
X143276677Y-76161895D01*
X143314033Y-76152854D01*
X143350496Y-76144631D01*
X143386066Y-76137227D01*
X143420743Y-76130641D01*
X143454527Y-76124874D01*
X143488090Y-76119293D01*
X143520909Y-76114456D01*
X143552983Y-76110363D01*
X143584312Y-76107015D01*
X143614897Y-76104410D01*
X143644737Y-76102550D01*
X143673833Y-76101434D01*
X143702185Y-76101061D01*
X143729458Y-76101434D01*
G37*
G36*
X150375546Y-76101434D02*
G01*
X150402000Y-76102550D01*
X150427636Y-76104410D01*
X150452453Y-76107015D01*
X150476452Y-76110363D01*
X150499632Y-76114456D01*
X150521993Y-76119293D01*
X150543536Y-76124874D01*
X150564260Y-76131199D01*
X150584166Y-76138268D01*
X150603253Y-76146082D01*
X150621522Y-76154640D01*
X150638972Y-76163941D01*
X150655603Y-76173987D01*
X150671416Y-76184777D01*
X150686411Y-76196311D01*
X150700540Y-76208627D01*
X150713758Y-76221761D01*
X150726064Y-76235714D01*
X150737459Y-76250485D01*
X150747942Y-76266075D01*
X150757513Y-76282483D01*
X150766173Y-76299710D01*
X150773921Y-76317755D01*
X150780758Y-76336619D01*
X150786683Y-76356302D01*
X150791697Y-76376803D01*
X150795799Y-76398122D01*
X150798989Y-76420261D01*
X150801268Y-76443217D01*
X150802635Y-76466993D01*
X150803091Y-76491586D01*
X150803091Y-77179684D01*
X150962636Y-77229774D01*
X150962636Y-77398843D01*
X150545917Y-77420274D01*
X150506332Y-77220265D01*
X150500413Y-77227058D01*
X150488181Y-77240480D01*
X150475819Y-77253438D01*
X150463326Y-77265930D01*
X150450704Y-77277957D01*
X150437951Y-77289519D01*
X150425068Y-77300616D01*
X150412055Y-77311248D01*
X150398912Y-77321415D01*
X150385638Y-77331117D01*
X150372234Y-77340353D01*
X150358700Y-77349125D01*
X150345036Y-77357431D01*
X150331242Y-77365273D01*
X150317317Y-77372649D01*
X150303299Y-77379569D01*
X150289226Y-77386043D01*
X150275096Y-77392071D01*
X150260911Y-77397652D01*
X150246670Y-77402787D01*
X150232373Y-77407475D01*
X150218021Y-77411716D01*
X150203612Y-77415511D01*
X150189148Y-77418860D01*
X150174628Y-77421762D01*
X150160052Y-77424218D01*
X150145420Y-77426227D01*
X150130733Y-77427790D01*
X150115990Y-77428906D01*
X150101191Y-77429576D01*
X150086336Y-77429799D01*
X150067490Y-77429418D01*
X150049054Y-77428273D01*
X150031027Y-77426367D01*
X150013410Y-77423697D01*
X149996202Y-77420265D01*
X149979403Y-77416069D01*
X149963013Y-77411112D01*
X149947033Y-77405391D01*
X149931462Y-77398908D01*
X149916300Y-77391662D01*
X149901547Y-77383653D01*
X149887204Y-77374881D01*
X149873270Y-77365347D01*
X149859745Y-77355050D01*
X149846630Y-77343990D01*
X149833923Y-77332168D01*
X149821812Y-77319629D01*
X149810483Y-77306420D01*
X149799935Y-77292542D01*
X149790168Y-77277994D01*
X149781183Y-77262777D01*
X149772978Y-77246889D01*
X149765556Y-77230332D01*
X149758914Y-77213105D01*
X149753054Y-77195209D01*
X149747975Y-77176642D01*
X149743678Y-77157406D01*
X149740162Y-77137500D01*
X149737427Y-77116925D01*
X149735474Y-77095680D01*
X149734302Y-77073765D01*
X149733911Y-77051180D01*
X149734134Y-77034437D01*
X149734804Y-77018140D01*
X149734825Y-77017843D01*
X150069667Y-77017843D01*
X150069825Y-77028679D01*
X150070299Y-77039162D01*
X150071090Y-77049292D01*
X150072197Y-77059068D01*
X150073620Y-77068491D01*
X150075359Y-77077560D01*
X150077415Y-77086276D01*
X150079787Y-77094638D01*
X150082475Y-77102647D01*
X150085480Y-77110302D01*
X150088801Y-77117604D01*
X150092438Y-77124552D01*
X150096391Y-77131147D01*
X150100661Y-77137389D01*
X150105247Y-77143277D01*
X150110149Y-77148811D01*
X150115590Y-77153713D01*
X150121199Y-77158299D01*
X150126975Y-77162569D01*
X150132919Y-77166522D01*
X150139030Y-77170159D01*
X150145309Y-77173480D01*
X150151755Y-77176484D01*
X150158368Y-77179172D01*
X150165149Y-77181544D01*
X150172098Y-77183600D01*
X150179213Y-77185340D01*
X150186497Y-77186763D01*
X150193947Y-77187870D01*
X150201565Y-77188660D01*
X150209351Y-77189135D01*
X150217304Y-77189293D01*
X150224792Y-77189153D01*
X150232373Y-77188735D01*
X150240047Y-77188037D01*
X150247814Y-77187060D01*
X150255674Y-77185805D01*
X150263627Y-77184270D01*
X150271673Y-77182456D01*
X150279812Y-77180363D01*
X150288044Y-77177991D01*
X150296369Y-77175340D01*
X150304788Y-77172410D01*
X150313299Y-77169201D01*
X150321903Y-77165713D01*
X150330600Y-77161945D01*
X150339390Y-77157899D01*
X150348273Y-77153574D01*
X150357175Y-77148709D01*
X150366021Y-77143640D01*
X150374811Y-77138365D01*
X150383545Y-77132887D01*
X150392224Y-77127203D01*
X150400847Y-77121315D01*
X150409414Y-77115223D01*
X150417925Y-77108925D01*
X150426380Y-77102423D01*
X150434779Y-77095717D01*
X150443123Y-77088806D01*
X150451411Y-77081690D01*
X150459643Y-77074369D01*
X150467819Y-77066844D01*
X150469717Y-77065038D01*
X150469717Y-76860680D01*
X150288742Y-76860680D01*
X150273561Y-76860829D01*
X150258976Y-76861275D01*
X150244986Y-76862020D01*
X150231592Y-76863061D01*
X150218793Y-76864401D01*
X150206589Y-76866038D01*
X150194980Y-76867973D01*
X150183967Y-76870205D01*
X150173549Y-76872735D01*
X150163726Y-76875563D01*
X150154499Y-76878688D01*
X150145867Y-76882111D01*
X150137830Y-76885832D01*
X150130389Y-76889850D01*
X150123543Y-76894166D01*
X150117292Y-76898780D01*
X150111525Y-76903710D01*
X150106130Y-76908975D01*
X150101107Y-76914575D01*
X150096456Y-76920509D01*
X150092177Y-76926778D01*
X150088271Y-76933383D01*
X150084736Y-76940322D01*
X150081573Y-76947596D01*
X150078783Y-76955205D01*
X150076364Y-76963148D01*
X150074318Y-76971427D01*
X150072643Y-76980040D01*
X150071341Y-76988989D01*
X150070411Y-76998272D01*
X150069853Y-77007890D01*
X150069667Y-77017843D01*
X149734825Y-77017843D01*
X149735920Y-77002290D01*
X149737483Y-76986886D01*
X149739492Y-76971929D01*
X149741948Y-76957418D01*
X149744850Y-76943354D01*
X149748198Y-76929736D01*
X149751994Y-76916565D01*
X149756235Y-76903840D01*
X149760923Y-76891562D01*
X149766058Y-76879730D01*
X149771639Y-76868345D01*
X149777666Y-76857406D01*
X149784140Y-76846914D01*
X149791061Y-76836868D01*
X149798707Y-76826924D01*
X149806762Y-76817334D01*
X149815227Y-76808097D01*
X149824101Y-76799214D01*
X149833384Y-76790684D01*
X149843076Y-76782508D01*
X149853178Y-76774685D01*
X149863689Y-76767216D01*
X149874609Y-76760100D01*
X149885939Y-76753338D01*
X149897677Y-76746929D01*
X149909825Y-76740874D01*
X149922383Y-76735172D01*
X149935349Y-76729823D01*
X149948725Y-76724828D01*
X149962511Y-76720186D01*
X149976686Y-76715861D01*
X149991234Y-76711815D01*
X150006154Y-76708048D01*
X150021447Y-76704559D01*
X150037111Y-76701350D01*
X150053147Y-76698420D01*
X150069555Y-76695769D01*
X150086335Y-76693397D01*
X150121012Y-76689491D01*
X150157178Y-76686700D01*
X150194831Y-76685026D01*
X150233973Y-76684468D01*
X150469717Y-76684468D01*
X150469717Y-76553499D01*
X150469503Y-76539760D01*
X150468861Y-76526524D01*
X150467791Y-76513790D01*
X150466294Y-76501558D01*
X150464368Y-76489828D01*
X150462015Y-76478601D01*
X150459234Y-76467876D01*
X150456025Y-76457654D01*
X150452388Y-76447933D01*
X150448323Y-76438715D01*
X150443830Y-76430000D01*
X150438909Y-76421786D01*
X150433561Y-76414075D01*
X150427785Y-76406866D01*
X150421580Y-76400159D01*
X150414948Y-76393955D01*
X150408205Y-76388188D01*
X150401070Y-76382793D01*
X150393545Y-76377770D01*
X150385629Y-76373119D01*
X150377322Y-76368840D01*
X150368625Y-76364934D01*
X150359537Y-76361399D01*
X150350059Y-76358236D01*
X150340190Y-76355446D01*
X150329930Y-76353027D01*
X150319279Y-76350981D01*
X150308238Y-76349307D01*
X150296806Y-76348005D01*
X150284984Y-76347074D01*
X150272770Y-76346516D01*
X150260166Y-76346330D01*
X150247553Y-76346479D01*
X150234717Y-76346926D01*
X150221657Y-76347670D01*
X150208375Y-76348711D01*
X150194869Y-76350051D01*
X150181139Y-76351688D01*
X150167187Y-76353623D01*
X150153011Y-76355855D01*
X150138575Y-76358385D01*
X150123841Y-76361213D01*
X150108809Y-76364338D01*
X150093480Y-76367761D01*
X150077853Y-76371482D01*
X150061928Y-76375500D01*
X150058059Y-76376530D01*
X150031567Y-76541593D01*
X149824398Y-76541593D01*
X149805348Y-76193930D01*
X149845383Y-76182433D01*
X149884525Y-76171755D01*
X149922774Y-76161895D01*
X149960129Y-76152854D01*
X149996592Y-76144631D01*
X150032162Y-76137227D01*
X150066839Y-76130641D01*
X150100624Y-76124874D01*
X150134184Y-76119293D01*
X150167001Y-76114456D01*
X150199073Y-76110363D01*
X150230401Y-76107015D01*
X150260985Y-76104410D01*
X150290825Y-76102550D01*
X150319921Y-76101434D01*
X150348273Y-76101061D01*
X150375546Y-76101434D01*
G37*
G36*
X146615994Y-76101713D02*
G01*
X146649666Y-76103666D01*
X146682371Y-76106922D01*
X146714109Y-76111479D01*
X146744879Y-76117340D01*
X146774682Y-76124502D01*
X146803517Y-76132966D01*
X146831385Y-76142733D01*
X146858286Y-76153802D01*
X146884219Y-76166174D01*
X146909185Y-76179847D01*
X146933184Y-76194823D01*
X146956215Y-76211101D01*
X146978279Y-76228682D01*
X146999375Y-76247564D01*
X147019504Y-76267749D01*
X147038536Y-76289134D01*
X147056339Y-76311616D01*
X147072915Y-76335196D01*
X147088263Y-76359874D01*
X147102383Y-76385649D01*
X147115275Y-76412522D01*
X147126940Y-76440492D01*
X147137376Y-76469560D01*
X147146585Y-76499725D01*
X147154566Y-76530989D01*
X147161319Y-76563350D01*
X147166844Y-76596808D01*
X147171141Y-76631364D01*
X147174211Y-76667018D01*
X147176053Y-76703769D01*
X147176667Y-76741618D01*
X147176369Y-76768174D01*
X147175476Y-76794266D01*
X147173988Y-76819892D01*
X147171904Y-76845053D01*
X147169225Y-76869749D01*
X147165951Y-76893980D01*
X147162081Y-76917746D01*
X147157617Y-76941047D01*
X147152556Y-76963883D01*
X147146901Y-76986254D01*
X147140650Y-77008160D01*
X147133804Y-77029600D01*
X147126363Y-77050576D01*
X147118326Y-77071086D01*
X147109694Y-77091131D01*
X147100467Y-77110711D01*
X147090681Y-77129492D01*
X147080375Y-77147732D01*
X147069548Y-77165434D01*
X147058199Y-77182595D01*
X147046330Y-77199218D01*
X147033941Y-77215300D01*
X147021030Y-77230844D01*
X147007598Y-77245847D01*
X146993645Y-77260312D01*
X146979172Y-77274236D01*
X146964177Y-77287622D01*
X146948662Y-77300467D01*
X146932626Y-77312774D01*
X146916069Y-77324540D01*
X146898991Y-77335767D01*
X146881392Y-77346455D01*
X146863309Y-77356548D01*
X146844780Y-77365989D01*
X146825804Y-77374779D01*
X146806382Y-77382918D01*
X146786514Y-77390406D01*
X146766198Y-77397243D01*
X146745437Y-77403428D01*
X146724229Y-77408963D01*
X146702574Y-77413846D01*
X146680473Y-77418079D01*
X146657926Y-77421660D01*
X146634932Y-77424590D01*
X146611492Y-77426869D01*
X146587605Y-77428497D01*
X146563271Y-77429473D01*
X146538492Y-77429799D01*
X146503861Y-77429148D01*
X146470217Y-77427194D01*
X146437558Y-77423939D01*
X146405886Y-77419381D01*
X146375199Y-77413521D01*
X146345499Y-77406359D01*
X146316784Y-77397894D01*
X146289056Y-77388127D01*
X146262313Y-77377058D01*
X146236557Y-77364687D01*
X146211786Y-77351013D01*
X146188001Y-77336037D01*
X146165203Y-77319759D01*
X146143390Y-77302179D01*
X146122563Y-77283296D01*
X146102723Y-77263111D01*
X146084268Y-77241727D01*
X146067004Y-77219244D01*
X146050931Y-77195664D01*
X146036048Y-77170987D01*
X146022356Y-77145212D01*
X146009854Y-77118339D01*
X145998543Y-77090368D01*
X145988423Y-77061300D01*
X145979493Y-77031135D01*
X145971754Y-76999872D01*
X145965206Y-76967511D01*
X145959848Y-76934052D01*
X145955681Y-76899496D01*
X145952704Y-76863843D01*
X145950918Y-76827091D01*
X145950323Y-76789243D01*
X145950504Y-76772574D01*
X146295604Y-76772574D01*
X146295855Y-76799782D01*
X146296609Y-76826040D01*
X146297864Y-76851350D01*
X146299622Y-76875712D01*
X146301883Y-76899124D01*
X146304645Y-76921588D01*
X146307910Y-76943103D01*
X146311677Y-76963669D01*
X146315947Y-76983287D01*
X146320719Y-77001955D01*
X146325993Y-77019675D01*
X146331769Y-77036446D01*
X146338048Y-77052268D01*
X146344829Y-77067142D01*
X146352112Y-77081067D01*
X146359898Y-77094043D01*
X146363981Y-77100049D01*
X146368195Y-77105865D01*
X146372539Y-77111490D01*
X146377013Y-77116925D01*
X146381618Y-77122169D01*
X146386352Y-77127222D01*
X146391217Y-77132084D01*
X146396212Y-77136756D01*
X146401337Y-77141237D01*
X146406593Y-77145528D01*
X146411978Y-77149628D01*
X146417494Y-77153537D01*
X146423141Y-77157255D01*
X146428917Y-77160783D01*
X146434824Y-77164120D01*
X146440860Y-77167266D01*
X146447027Y-77170222D01*
X146453325Y-77172987D01*
X146459752Y-77175561D01*
X146466310Y-77177945D01*
X146472998Y-77180137D01*
X146479816Y-77182140D01*
X146486765Y-77183951D01*
X146493843Y-77185572D01*
X146508391Y-77188242D01*
X146523460Y-77190149D01*
X146539050Y-77191293D01*
X146555160Y-77191674D01*
X146566927Y-77191488D01*
X146578415Y-77190930D01*
X146589623Y-77190000D01*
X146600553Y-77188697D01*
X146611203Y-77187023D01*
X146621575Y-77184977D01*
X146631667Y-77182558D01*
X146641481Y-77179768D01*
X146651015Y-77176605D01*
X146660270Y-77173070D01*
X146669246Y-77169164D01*
X146677944Y-77164885D01*
X146686362Y-77160234D01*
X146694501Y-77155211D01*
X146702361Y-77149816D01*
X146709942Y-77144049D01*
X146717271Y-77137901D01*
X146724378Y-77131361D01*
X146731261Y-77124432D01*
X146737921Y-77117111D01*
X146744358Y-77109400D01*
X146750572Y-77101298D01*
X146756562Y-77092806D01*
X146762329Y-77083922D01*
X146767873Y-77074649D01*
X146773194Y-77064984D01*
X146778291Y-77054929D01*
X146783165Y-77044483D01*
X146787816Y-77033646D01*
X146792243Y-77022419D01*
X146796448Y-77010801D01*
X146800429Y-76998793D01*
X146804178Y-76986412D01*
X146807684Y-76973678D01*
X146810949Y-76960590D01*
X146813972Y-76947149D01*
X146816754Y-76933355D01*
X146819293Y-76919207D01*
X146821591Y-76904705D01*
X146823646Y-76889850D01*
X146827032Y-76859080D01*
X146829450Y-76826896D01*
X146830902Y-76793298D01*
X146831385Y-76758286D01*
X146831125Y-76731656D01*
X146830343Y-76705936D01*
X146829041Y-76681128D01*
X146827218Y-76657232D01*
X146824874Y-76634248D01*
X146822009Y-76612174D01*
X146818623Y-76591013D01*
X146814717Y-76570763D01*
X146810289Y-76551425D01*
X146805340Y-76532998D01*
X146799871Y-76515483D01*
X146793881Y-76498879D01*
X146787369Y-76483187D01*
X146780337Y-76468406D01*
X146772784Y-76454538D01*
X146764710Y-76441580D01*
X146756115Y-76429181D01*
X146751623Y-76423281D01*
X146747000Y-76417582D01*
X146742247Y-76412082D01*
X146737363Y-76406782D01*
X146732350Y-76401683D01*
X146727206Y-76396783D01*
X146721932Y-76392083D01*
X146716527Y-76387583D01*
X146710993Y-76383284D01*
X146705328Y-76379184D01*
X146699533Y-76375284D01*
X146693608Y-76371584D01*
X146687552Y-76368085D01*
X146681367Y-76364785D01*
X146675051Y-76361685D01*
X146668605Y-76358785D01*
X146662028Y-76356085D01*
X146655322Y-76353586D01*
X146648485Y-76351286D01*
X146641518Y-76349186D01*
X146634421Y-76347286D01*
X146627193Y-76345586D01*
X146612348Y-76342786D01*
X146596981Y-76340786D01*
X146581094Y-76339586D01*
X146564685Y-76339186D01*
X146547989Y-76339605D01*
X146531832Y-76340861D01*
X146516214Y-76342954D01*
X146501136Y-76345884D01*
X146486597Y-76349651D01*
X146472598Y-76354255D01*
X146459138Y-76359697D01*
X146446218Y-76365975D01*
X146433838Y-76373091D01*
X146421996Y-76381044D01*
X146410695Y-76389835D01*
X146399933Y-76399462D01*
X146389710Y-76409926D01*
X146380027Y-76421228D01*
X146370883Y-76433367D01*
X146362279Y-76446343D01*
X146354205Y-76459895D01*
X146346652Y-76474360D01*
X146339620Y-76489735D01*
X146333109Y-76506023D01*
X146327119Y-76523222D01*
X146321649Y-76541332D01*
X146316701Y-76560354D01*
X146312273Y-76580288D01*
X146308366Y-76601133D01*
X146304980Y-76622890D01*
X146302115Y-76645558D01*
X146299771Y-76669138D01*
X146297948Y-76693630D01*
X146296646Y-76719033D01*
X146295864Y-76745348D01*
X146295604Y-76772574D01*
X145950504Y-76772574D01*
X145950611Y-76762695D01*
X145951476Y-76736632D01*
X145952918Y-76711052D01*
X145954937Y-76685956D01*
X145957532Y-76661344D01*
X145960704Y-76637215D01*
X145964452Y-76613570D01*
X145968778Y-76590408D01*
X145973680Y-76567731D01*
X145979158Y-76545537D01*
X145985214Y-76523826D01*
X145991846Y-76502600D01*
X145999055Y-76481857D01*
X146006840Y-76461598D01*
X146015203Y-76441822D01*
X146024142Y-76422530D01*
X146033918Y-76403462D01*
X146044196Y-76384951D01*
X146054977Y-76366999D01*
X146066260Y-76349604D01*
X146078045Y-76332768D01*
X146090333Y-76316490D01*
X146103123Y-76300770D01*
X146116415Y-76285608D01*
X146130210Y-76271005D01*
X146144506Y-76256959D01*
X146159306Y-76243471D01*
X146174607Y-76230542D01*
X146190411Y-76218171D01*
X146206717Y-76206357D01*
X146223525Y-76195102D01*
X146240835Y-76184405D01*
X146258630Y-76174313D01*
X146276889Y-76164872D01*
X146295614Y-76156081D01*
X146314803Y-76147942D01*
X146334458Y-76140454D01*
X146354577Y-76133618D01*
X146375162Y-76127432D01*
X146396212Y-76121897D01*
X146417727Y-76117014D01*
X146439707Y-76112782D01*
X146462152Y-76109201D01*
X146485062Y-76106270D01*
X146508438Y-76103992D01*
X146532278Y-76102364D01*
X146556583Y-76101387D01*
X146581354Y-76101061D01*
X146615994Y-76101713D01*
G37*
G36*
X154577758Y-76101359D02*
G01*
X154602724Y-76102252D01*
X154628062Y-76103740D01*
X154653772Y-76105824D01*
X154679854Y-76108503D01*
X154706308Y-76111777D01*
X154733134Y-76115647D01*
X154760333Y-76120111D01*
X154787792Y-76124539D01*
X154815399Y-76129488D01*
X154843155Y-76134957D01*
X154871060Y-76140947D01*
X154899114Y-76147459D01*
X154927317Y-76154491D01*
X154955669Y-76162044D01*
X154984169Y-76170118D01*
X154972263Y-76489205D01*
X154760333Y-76489205D01*
X154730441Y-76341613D01*
X154713153Y-76337549D01*
X154687220Y-76332229D01*
X154662105Y-76327876D01*
X154637809Y-76324490D01*
X154614332Y-76322071D01*
X154591672Y-76320620D01*
X154569832Y-76320136D01*
X154558949Y-76320276D01*
X154548326Y-76320695D01*
X154537964Y-76321392D01*
X154527863Y-76322369D01*
X154518022Y-76323625D01*
X154508441Y-76325159D01*
X154499121Y-76326973D01*
X154490061Y-76329066D01*
X154481261Y-76331438D01*
X154472722Y-76334089D01*
X154464444Y-76337019D01*
X154456426Y-76340228D01*
X154448668Y-76343716D01*
X154441171Y-76347484D01*
X154433934Y-76351530D01*
X154426958Y-76355855D01*
X154420614Y-76360134D01*
X154414679Y-76364636D01*
X154411866Y-76366971D01*
X154409154Y-76369361D01*
X154406545Y-76371808D01*
X154404038Y-76374310D01*
X154401633Y-76376868D01*
X154399331Y-76379482D01*
X154397131Y-76382151D01*
X154395034Y-76384877D01*
X154393039Y-76387658D01*
X154391146Y-76390495D01*
X154389355Y-76393388D01*
X154387667Y-76396336D01*
X154386081Y-76399341D01*
X154384597Y-76402401D01*
X154383216Y-76405517D01*
X154381937Y-76408689D01*
X154380760Y-76411917D01*
X154379686Y-76415200D01*
X154378714Y-76418540D01*
X154377844Y-76421935D01*
X154377077Y-76425386D01*
X154376412Y-76428893D01*
X154375849Y-76432455D01*
X154375388Y-76436074D01*
X154374775Y-76443478D01*
X154374570Y-76451105D01*
X154374756Y-76457868D01*
X154375314Y-76464462D01*
X154376244Y-76470890D01*
X154377546Y-76477150D01*
X154379221Y-76483243D01*
X154381267Y-76489168D01*
X154383685Y-76494926D01*
X154386476Y-76500516D01*
X154389638Y-76505939D01*
X154393173Y-76511195D01*
X154397080Y-76516283D01*
X154401359Y-76521203D01*
X154406009Y-76525956D01*
X154411032Y-76530542D01*
X154416427Y-76534961D01*
X154422194Y-76539211D01*
X154428250Y-76543341D01*
X154434510Y-76547397D01*
X154440975Y-76551378D01*
X154447644Y-76555285D01*
X154454518Y-76559117D01*
X154461597Y-76562875D01*
X154468880Y-76566559D01*
X154476368Y-76570168D01*
X154484061Y-76573702D01*
X154491958Y-76577163D01*
X154500060Y-76580548D01*
X154508366Y-76583860D01*
X154525593Y-76590259D01*
X154543639Y-76596361D01*
X154703183Y-76646368D01*
X154724428Y-76653177D01*
X154745301Y-76660506D01*
X154765802Y-76668357D01*
X154785931Y-76676729D01*
X154805688Y-76685621D01*
X154825073Y-76695034D01*
X154844086Y-76704969D01*
X154862726Y-76715424D01*
X154872140Y-76720596D01*
X154881330Y-76725991D01*
X154890297Y-76731609D01*
X154899040Y-76737450D01*
X154907561Y-76743515D01*
X154915858Y-76749803D01*
X154923932Y-76756314D01*
X154931783Y-76763049D01*
X154939410Y-76770007D01*
X154946814Y-76777188D01*
X154953995Y-76784592D01*
X154960953Y-76792219D01*
X154967687Y-76800070D01*
X154974198Y-76808144D01*
X154980486Y-76816441D01*
X154986551Y-76824961D01*
X154992318Y-76833752D01*
X154997713Y-76842858D01*
X155002736Y-76852281D01*
X155007387Y-76862020D01*
X155011666Y-76872075D01*
X155015573Y-76882446D01*
X155019107Y-76893134D01*
X155022270Y-76904138D01*
X155025060Y-76915458D01*
X155027479Y-76927095D01*
X155029525Y-76939047D01*
X155031199Y-76951316D01*
X155032502Y-76963902D01*
X155033432Y-76976803D01*
X155033990Y-76990021D01*
X155034176Y-77003555D01*
X155033878Y-77020940D01*
X155032985Y-77037972D01*
X155031497Y-77054650D01*
X155029414Y-77070974D01*
X155026735Y-77086945D01*
X155023461Y-77102563D01*
X155019591Y-77117827D01*
X155015126Y-77132738D01*
X155010066Y-77147295D01*
X155004411Y-77161499D01*
X154998160Y-77175349D01*
X154991314Y-77188846D01*
X154983872Y-77201990D01*
X154975835Y-77214780D01*
X154967203Y-77227216D01*
X154957975Y-77239299D01*
X154948237Y-77251019D01*
X154938070Y-77262367D01*
X154927475Y-77273343D01*
X154916453Y-77283947D01*
X154905003Y-77294179D01*
X154893124Y-77304039D01*
X154880818Y-77313527D01*
X154868084Y-77322643D01*
X154854922Y-77331386D01*
X154841332Y-77339758D01*
X154827314Y-77347757D01*
X154812869Y-77355385D01*
X154797995Y-77362640D01*
X154782694Y-77369524D01*
X154766964Y-77376035D01*
X154750807Y-77382174D01*
X154734306Y-77387941D01*
X154717544Y-77393336D01*
X154700522Y-77398359D01*
X154683239Y-77403010D01*
X154665696Y-77407289D01*
X154647893Y-77411195D01*
X154629829Y-77414730D01*
X154611504Y-77417893D01*
X154592919Y-77420683D01*
X154574074Y-77423102D01*
X154554968Y-77425148D01*
X154535602Y-77426822D01*
X154515975Y-77428125D01*
X154496088Y-77429055D01*
X154475941Y-77429613D01*
X154455533Y-77429799D01*
X154431534Y-77429538D01*
X154407163Y-77428757D01*
X154382420Y-77427455D01*
X154357306Y-77425632D01*
X154331819Y-77423288D01*
X154305960Y-77420423D01*
X154279729Y-77417037D01*
X154253127Y-77413130D01*
X154226821Y-77408777D01*
X154200292Y-77404052D01*
X154173541Y-77398954D01*
X154146565Y-77393485D01*
X154119367Y-77387643D01*
X154091946Y-77381430D01*
X154064301Y-77374844D01*
X154036433Y-77367886D01*
X154050719Y-77008318D01*
X154260269Y-77008318D01*
X154282259Y-77184222D01*
X154282297Y-77184232D01*
X154294947Y-77187432D01*
X154307895Y-77190483D01*
X154321141Y-77193385D01*
X154334684Y-77196139D01*
X154348525Y-77198743D01*
X154362664Y-77201199D01*
X154376728Y-77202873D01*
X154390346Y-77204324D01*
X154403517Y-77205552D01*
X154416242Y-77206557D01*
X154428520Y-77207338D01*
X154440352Y-77207896D01*
X154451737Y-77208231D01*
X154462677Y-77208343D01*
X154478006Y-77208082D01*
X154493038Y-77207301D01*
X154507771Y-77205999D01*
X154522207Y-77204176D01*
X154536346Y-77201831D01*
X154550187Y-77198967D01*
X154563730Y-77195581D01*
X154576976Y-77191674D01*
X154583738Y-77189535D01*
X154590333Y-77187284D01*
X154596761Y-77184921D01*
X154603021Y-77182447D01*
X154609114Y-77179861D01*
X154615039Y-77177163D01*
X154620797Y-77174354D01*
X154626387Y-77171433D01*
X154631810Y-77168401D01*
X154637066Y-77165257D01*
X154642154Y-77162001D01*
X154647074Y-77158634D01*
X154651828Y-77155155D01*
X154656413Y-77151565D01*
X154660832Y-77147863D01*
X154665082Y-77144049D01*
X154669408Y-77139817D01*
X154673454Y-77135454D01*
X154677221Y-77130961D01*
X154680709Y-77126338D01*
X154683918Y-77121585D01*
X154686848Y-77116702D01*
X154689499Y-77111688D01*
X154691871Y-77106544D01*
X154693964Y-77101270D01*
X154695778Y-77095866D01*
X154697313Y-77090331D01*
X154698568Y-77084666D01*
X154699545Y-77078871D01*
X154700243Y-77072946D01*
X154700661Y-77066891D01*
X154700801Y-77060705D01*
X154700615Y-77053654D01*
X154700057Y-77046790D01*
X154699127Y-77040111D01*
X154697824Y-77033618D01*
X154696150Y-77027312D01*
X154694104Y-77021191D01*
X154691685Y-77015257D01*
X154688895Y-77009508D01*
X154685732Y-77003946D01*
X154682198Y-76998569D01*
X154678291Y-76993379D01*
X154674012Y-76988375D01*
X154669361Y-76983556D01*
X154664338Y-76978924D01*
X154658943Y-76974478D01*
X154653176Y-76970218D01*
X154647112Y-76966088D01*
X154640823Y-76962032D01*
X154634312Y-76958051D01*
X154627578Y-76954144D01*
X154620620Y-76950312D01*
X154613439Y-76946554D01*
X154606035Y-76942871D01*
X154598407Y-76939261D01*
X154590556Y-76935727D01*
X154582482Y-76932267D01*
X154574185Y-76928881D01*
X154565665Y-76925569D01*
X154547954Y-76919170D01*
X154529351Y-76913068D01*
X154453151Y-76888660D01*
X154372190Y-76863061D01*
X154352023Y-76856253D01*
X154332005Y-76848923D01*
X154312136Y-76841072D01*
X154292416Y-76832700D01*
X154272846Y-76823808D01*
X154253424Y-76814395D01*
X154234150Y-76804460D01*
X154215026Y-76794005D01*
X154205901Y-76788536D01*
X154196981Y-76782843D01*
X154188265Y-76776927D01*
X154179754Y-76770788D01*
X154171447Y-76764426D01*
X154163346Y-76757840D01*
X154155448Y-76751031D01*
X154147756Y-76743999D01*
X154140268Y-76736744D01*
X154132984Y-76729265D01*
X154125906Y-76721563D01*
X154119032Y-76713638D01*
X154112362Y-76705490D01*
X154105897Y-76697118D01*
X154099637Y-76688523D01*
X154093582Y-76679705D01*
X154087815Y-76670608D01*
X154082420Y-76661176D01*
X154077397Y-76651409D01*
X154072746Y-76641308D01*
X154068468Y-76630871D01*
X154064561Y-76620100D01*
X154061026Y-76608993D01*
X154057864Y-76597552D01*
X154055073Y-76585776D01*
X154052655Y-76573665D01*
X154050608Y-76561219D01*
X154048934Y-76548439D01*
X154047631Y-76535323D01*
X154046701Y-76521873D01*
X154046143Y-76508088D01*
X154045957Y-76493968D01*
X154046227Y-76476908D01*
X154047036Y-76460258D01*
X154048385Y-76444017D01*
X154050273Y-76428186D01*
X154052701Y-76412763D01*
X154055668Y-76397750D01*
X154059175Y-76383147D01*
X154063221Y-76368952D01*
X154067807Y-76355167D01*
X154072932Y-76341791D01*
X154078597Y-76328824D01*
X154084801Y-76316267D01*
X154091545Y-76304119D01*
X154098828Y-76292380D01*
X154106651Y-76281050D01*
X154115014Y-76270130D01*
X154123822Y-76259303D01*
X154132984Y-76248848D01*
X154142500Y-76238765D01*
X154152369Y-76229054D01*
X154162592Y-76219715D01*
X154173168Y-76210748D01*
X154184097Y-76202153D01*
X154195380Y-76193930D01*
X154207017Y-76186080D01*
X154219007Y-76178601D01*
X154231350Y-76171494D01*
X154244047Y-76164760D01*
X154257097Y-76158398D01*
X154270501Y-76152407D01*
X154284259Y-76146789D01*
X154298369Y-76141543D01*
X154313038Y-76136641D01*
X154327875Y-76132055D01*
X154342879Y-76127785D01*
X154358050Y-76123832D01*
X154373389Y-76120195D01*
X154388895Y-76116874D01*
X154404568Y-76113870D01*
X154420409Y-76111182D01*
X154436417Y-76108810D01*
X154452593Y-76106754D01*
X154468936Y-76105015D01*
X154485447Y-76103592D01*
X154518970Y-76101694D01*
X154553164Y-76101061D01*
X154577758Y-76101359D01*
G37*
G36*
X147922429Y-76101322D02*
G01*
X147945870Y-76102103D01*
X147968864Y-76103406D01*
X147991411Y-76105229D01*
X148013512Y-76107573D01*
X148035167Y-76110438D01*
X148056375Y-76113823D01*
X148077136Y-76117730D01*
X148097451Y-76122158D01*
X148117320Y-76127106D01*
X148136742Y-76132576D01*
X148155717Y-76138566D01*
X148174246Y-76145077D01*
X148191983Y-76151975D01*
X148548624Y-76139161D01*
X148548624Y-76317755D01*
X148402050Y-76347441D01*
X148402633Y-76348321D01*
X148406381Y-76354292D01*
X148410000Y-76360376D01*
X148413488Y-76366571D01*
X148416846Y-76372877D01*
X148420073Y-76379296D01*
X148423171Y-76385825D01*
X148426138Y-76392467D01*
X148428975Y-76399220D01*
X148431682Y-76406085D01*
X148434258Y-76413061D01*
X148436705Y-76420149D01*
X148439012Y-76427358D01*
X148441170Y-76434697D01*
X148443179Y-76442166D01*
X148445039Y-76449766D01*
X148446751Y-76457496D01*
X148448314Y-76465356D01*
X148449727Y-76473346D01*
X148450992Y-76481466D01*
X148452109Y-76489717D01*
X148453076Y-76498098D01*
X148454564Y-76515250D01*
X148455457Y-76532923D01*
X148455755Y-76551118D01*
X148455150Y-76578437D01*
X148453337Y-76605031D01*
X148450313Y-76630899D01*
X148446081Y-76656042D01*
X148440640Y-76680459D01*
X148433989Y-76704150D01*
X148426129Y-76727116D01*
X148417060Y-76749357D01*
X148406781Y-76770872D01*
X148395293Y-76791661D01*
X148382597Y-76811725D01*
X148368691Y-76831063D01*
X148353575Y-76849676D01*
X148337251Y-76867563D01*
X148319717Y-76884725D01*
X148300974Y-76901161D01*
X148281208Y-76916444D01*
X148260605Y-76930741D01*
X148239164Y-76944052D01*
X148216886Y-76956377D01*
X148193771Y-76967715D01*
X148169819Y-76978068D01*
X148145030Y-76987435D01*
X148119404Y-76995816D01*
X148092940Y-77003211D01*
X148065640Y-77009620D01*
X148037502Y-77015043D01*
X148008527Y-77019480D01*
X147978714Y-77022931D01*
X147948065Y-77025396D01*
X147916579Y-77026875D01*
X147884255Y-77027368D01*
X147853448Y-77026847D01*
X147822938Y-77025284D01*
X147792726Y-77022680D01*
X147762811Y-77019033D01*
X147733194Y-77014345D01*
X147703875Y-77008615D01*
X147694074Y-77006328D01*
X147666360Y-77191674D01*
X148089043Y-77191674D01*
X148118650Y-77192037D01*
X148147346Y-77193125D01*
X148175130Y-77194939D01*
X148202003Y-77197478D01*
X148227964Y-77200743D01*
X148253014Y-77204734D01*
X148277152Y-77209450D01*
X148300378Y-77214891D01*
X148322693Y-77221058D01*
X148344097Y-77227951D01*
X148364588Y-77235569D01*
X148384169Y-77243913D01*
X148402837Y-77252982D01*
X148420594Y-77262777D01*
X148437440Y-77273297D01*
X148453374Y-77284543D01*
X148468368Y-77296486D01*
X148482395Y-77309099D01*
X148495455Y-77322382D01*
X148507547Y-77336335D01*
X148518672Y-77350957D01*
X148528830Y-77366249D01*
X148538020Y-77382211D01*
X148546243Y-77398843D01*
X148553498Y-77416144D01*
X148559786Y-77434115D01*
X148565107Y-77452756D01*
X148569460Y-77472066D01*
X148572846Y-77492046D01*
X148575264Y-77512696D01*
X148576715Y-77534016D01*
X148577199Y-77556005D01*
X148576501Y-77581222D01*
X148574408Y-77605677D01*
X148570920Y-77629368D01*
X148566037Y-77652297D01*
X148559758Y-77674463D01*
X148552084Y-77695866D01*
X148543015Y-77716507D01*
X148532550Y-77736385D01*
X148520691Y-77755500D01*
X148507436Y-77773852D01*
X148492785Y-77791442D01*
X148476740Y-77808269D01*
X148459299Y-77824333D01*
X148440463Y-77839634D01*
X148420231Y-77854173D01*
X148398605Y-77867949D01*
X148375890Y-77881213D01*
X148351798Y-77893622D01*
X148326330Y-77905175D01*
X148299485Y-77915872D01*
X148271264Y-77925713D01*
X148241665Y-77934698D01*
X148210691Y-77942828D01*
X148178339Y-77950102D01*
X148144611Y-77956520D01*
X148109506Y-77962083D01*
X148073025Y-77966789D01*
X148035167Y-77970640D01*
X147995932Y-77973635D01*
X147955320Y-77975775D01*
X147913332Y-77977058D01*
X147869968Y-77977486D01*
X147797935Y-77976259D01*
X147730664Y-77972575D01*
X147698815Y-77969812D01*
X147668157Y-77966436D01*
X147638689Y-77962445D01*
X147610411Y-77957841D01*
X147583325Y-77952623D01*
X147557429Y-77946791D01*
X147532723Y-77940344D01*
X147509208Y-77933284D01*
X147486884Y-77925610D01*
X147465751Y-77917323D01*
X147445808Y-77908421D01*
X147427055Y-77898905D01*
X147409466Y-77888785D01*
X147393011Y-77878069D01*
X147377691Y-77866758D01*
X147370456Y-77860880D01*
X147363506Y-77854852D01*
X147356838Y-77848676D01*
X147350455Y-77842350D01*
X147344355Y-77835876D01*
X147338540Y-77829254D01*
X147333007Y-77822482D01*
X147327759Y-77815561D01*
X147322794Y-77808492D01*
X147318113Y-77801274D01*
X147313716Y-77793907D01*
X147309602Y-77786391D01*
X147305772Y-77778726D01*
X147302226Y-77770913D01*
X147298963Y-77762951D01*
X147295984Y-77754840D01*
X147293289Y-77746580D01*
X147290877Y-77738171D01*
X147288750Y-77729613D01*
X147286906Y-77720907D01*
X147285345Y-77712051D01*
X147284069Y-77703047D01*
X147283076Y-77693894D01*
X147282366Y-77684593D01*
X147281799Y-77665543D01*
X147282115Y-77650809D01*
X147283064Y-77636372D01*
X147284645Y-77622234D01*
X147286859Y-77608393D01*
X147287860Y-77603630D01*
X147572311Y-77603630D01*
X147572618Y-77612132D01*
X147573539Y-77620373D01*
X147574230Y-77624396D01*
X147575074Y-77628354D01*
X147576071Y-77632247D01*
X147577223Y-77636075D01*
X147578527Y-77639837D01*
X147579985Y-77643535D01*
X147581597Y-77647167D01*
X147583362Y-77650734D01*
X147585280Y-77654236D01*
X147587352Y-77657673D01*
X147589578Y-77661045D01*
X147591957Y-77664352D01*
X147597175Y-77670770D01*
X147603007Y-77676928D01*
X147609453Y-77682825D01*
X147616513Y-77688462D01*
X147624187Y-77693839D01*
X147632475Y-77698955D01*
X147641377Y-77703810D01*
X147650893Y-77708405D01*
X147661069Y-77712730D01*
X147671952Y-77716777D01*
X147683542Y-77720544D01*
X147695839Y-77724032D01*
X147708843Y-77727241D01*
X147722553Y-77730171D01*
X147736971Y-77732822D01*
X147752096Y-77735194D01*
X147767927Y-77737287D01*
X147784466Y-77739101D01*
X147801711Y-77740636D01*
X147819663Y-77741891D01*
X147838323Y-77742868D01*
X147857689Y-77743566D01*
X147877762Y-77743984D01*
X147898542Y-77744124D01*
X147944493Y-77743491D01*
X147987095Y-77741594D01*
X148026349Y-77738431D01*
X148062254Y-77734004D01*
X148078950Y-77731315D01*
X148094810Y-77728311D01*
X148109832Y-77724990D01*
X148124017Y-77721353D01*
X148137365Y-77717400D01*
X148149876Y-77713130D01*
X148161550Y-77708545D01*
X148172386Y-77703643D01*
X148182767Y-77698434D01*
X148192478Y-77692927D01*
X148201520Y-77687123D01*
X148209891Y-77681021D01*
X148217593Y-77674621D01*
X148224625Y-77667924D01*
X148227890Y-77664464D01*
X148230988Y-77660929D01*
X148233918Y-77657320D01*
X148236680Y-77653636D01*
X148239275Y-77649878D01*
X148241703Y-77646046D01*
X148243963Y-77642139D01*
X148246056Y-77638158D01*
X148247982Y-77634103D01*
X148249740Y-77629973D01*
X148251330Y-77625768D01*
X148252753Y-77621489D01*
X148254009Y-77617136D01*
X148255097Y-77612709D01*
X148256018Y-77608207D01*
X148256772Y-77603630D01*
X148257358Y-77598979D01*
X148257776Y-77594254D01*
X148258111Y-77584580D01*
X148257888Y-77575213D01*
X148257218Y-77566163D01*
X148256102Y-77557428D01*
X148254539Y-77549010D01*
X148252530Y-77540908D01*
X148250075Y-77533123D01*
X148247173Y-77525653D01*
X148243824Y-77518500D01*
X148240029Y-77511664D01*
X148235787Y-77505143D01*
X148231099Y-77498939D01*
X148225965Y-77493051D01*
X148220384Y-77487479D01*
X148214356Y-77482224D01*
X148207882Y-77477284D01*
X148200962Y-77472661D01*
X148193622Y-77468336D01*
X148185893Y-77464290D01*
X148177772Y-77460523D01*
X148169261Y-77457034D01*
X148160359Y-77453825D01*
X148151067Y-77450895D01*
X148141384Y-77448244D01*
X148131310Y-77445872D01*
X148120845Y-77443779D01*
X148109990Y-77441966D01*
X148098744Y-77440431D01*
X148087108Y-77439175D01*
X148075081Y-77438198D01*
X148062663Y-77437501D01*
X148049854Y-77437082D01*
X148036655Y-77436943D01*
X147676248Y-77436943D01*
X147670761Y-77440849D01*
X147657199Y-77451388D01*
X147644641Y-77462095D01*
X147633089Y-77472968D01*
X147622541Y-77484010D01*
X147612997Y-77495218D01*
X147604458Y-77506594D01*
X147596924Y-77518138D01*
X147590394Y-77529849D01*
X147584868Y-77541727D01*
X147580348Y-77553773D01*
X147576832Y-77565986D01*
X147574320Y-77578367D01*
X147572813Y-77590915D01*
X147572311Y-77603630D01*
X147287860Y-77603630D01*
X147289705Y-77594849D01*
X147293184Y-77581604D01*
X147297296Y-77568655D01*
X147302039Y-77556005D01*
X147307416Y-77543652D01*
X147313425Y-77531597D01*
X147320066Y-77519840D01*
X147327340Y-77508380D01*
X147335247Y-77497218D01*
X147343786Y-77486354D01*
X147352957Y-77475787D01*
X147362761Y-77465518D01*
X147373477Y-77455797D01*
X147384788Y-77446282D01*
X147396694Y-77436971D01*
X147409196Y-77427864D01*
X147422293Y-77418962D01*
X147435985Y-77410265D01*
X147450272Y-77401773D01*
X147465155Y-77393485D01*
X147480633Y-77385402D01*
X147496687Y-77377532D01*
X147492223Y-77375644D01*
X147483907Y-77371756D01*
X147475852Y-77367607D01*
X147468057Y-77363198D01*
X147460523Y-77358529D01*
X147453249Y-77353599D01*
X147446328Y-77348436D01*
X147439854Y-77343069D01*
X147433827Y-77337498D01*
X147428246Y-77331721D01*
X147423111Y-77325740D01*
X147418423Y-77319554D01*
X147414181Y-77313164D01*
X147410386Y-77306569D01*
X147407038Y-77299770D01*
X147404136Y-77292765D01*
X147401680Y-77285557D01*
X147399671Y-77278143D01*
X147398108Y-77270525D01*
X147396992Y-77262702D01*
X147396322Y-77254675D01*
X147396099Y-77246443D01*
X147396211Y-77241048D01*
X147396545Y-77235578D01*
X147397103Y-77230034D01*
X147397885Y-77224416D01*
X147398889Y-77218723D01*
X147400117Y-77212956D01*
X147401568Y-77207115D01*
X147403243Y-77201199D01*
X147405215Y-77195060D01*
X147407559Y-77188549D01*
X147410275Y-77181665D01*
X147413363Y-77174410D01*
X147416823Y-77166782D01*
X147420655Y-77158783D01*
X147424860Y-77150411D01*
X147429436Y-77141668D01*
X147434422Y-77131882D01*
X147439854Y-77121576D01*
X147445733Y-77110749D01*
X147452058Y-77099400D01*
X147458830Y-77087531D01*
X147466048Y-77075141D01*
X147473712Y-77062231D01*
X147481823Y-77048799D01*
X147519328Y-76986886D01*
X147540927Y-76950983D01*
X147527291Y-76943326D01*
X147513971Y-76935243D01*
X147501097Y-76926806D01*
X147488670Y-76918016D01*
X147476689Y-76908873D01*
X147465155Y-76899375D01*
X147454067Y-76889525D01*
X147443426Y-76879321D01*
X147433231Y-76868763D01*
X147423483Y-76857852D01*
X147414181Y-76846588D01*
X147405326Y-76834970D01*
X147396917Y-76822999D01*
X147388955Y-76810674D01*
X147381458Y-76798024D01*
X147374444Y-76785076D01*
X147367914Y-76771830D01*
X147361868Y-76758286D01*
X147356306Y-76744445D01*
X147351227Y-76730307D01*
X147346632Y-76715870D01*
X147342521Y-76701136D01*
X147338893Y-76686105D01*
X147335749Y-76670776D01*
X147333089Y-76655149D01*
X147330912Y-76639224D01*
X147329219Y-76623002D01*
X147328010Y-76606482D01*
X147327285Y-76589664D01*
X147327043Y-76572549D01*
X147327247Y-76563024D01*
X147660417Y-76563024D01*
X147660640Y-76577395D01*
X147661310Y-76591339D01*
X147662426Y-76604854D01*
X147663989Y-76617942D01*
X147665998Y-76630601D01*
X147668454Y-76642833D01*
X147671356Y-76654637D01*
X147674705Y-76666013D01*
X147678500Y-76676961D01*
X147682741Y-76687481D01*
X147687430Y-76697574D01*
X147692564Y-76707238D01*
X147698145Y-76716475D01*
X147704173Y-76725284D01*
X147710647Y-76733665D01*
X147717567Y-76741618D01*
X147724916Y-76749115D01*
X147732674Y-76756128D01*
X147740841Y-76762658D01*
X147749417Y-76768704D01*
X147758402Y-76774267D01*
X147767797Y-76779346D01*
X147777601Y-76783941D01*
X147787814Y-76788052D01*
X147798437Y-76791680D01*
X147809469Y-76794824D01*
X147820910Y-76797484D01*
X147832761Y-76799661D01*
X147845020Y-76801354D01*
X147857689Y-76802563D01*
X147870767Y-76803288D01*
X147884255Y-76803530D01*
X147898626Y-76803288D01*
X147912570Y-76802563D01*
X147926085Y-76801354D01*
X147939173Y-76799661D01*
X147951832Y-76797484D01*
X147964064Y-76794824D01*
X147975868Y-76791680D01*
X147987244Y-76788052D01*
X147998192Y-76783941D01*
X148008713Y-76779346D01*
X148018805Y-76774267D01*
X148028470Y-76768704D01*
X148037706Y-76762658D01*
X148046515Y-76756128D01*
X148054896Y-76749115D01*
X148062849Y-76741618D01*
X148070346Y-76733646D01*
X148077360Y-76725209D01*
X148083890Y-76716308D01*
X148089936Y-76706941D01*
X148095498Y-76697109D01*
X148100577Y-76686812D01*
X148105172Y-76676050D01*
X148109283Y-76664822D01*
X148112911Y-76653130D01*
X148116055Y-76640973D01*
X148118716Y-76628350D01*
X148120892Y-76615263D01*
X148122585Y-76601710D01*
X148123794Y-76587692D01*
X148124520Y-76573209D01*
X148124762Y-76558261D01*
X148124539Y-76543341D01*
X148123869Y-76528942D01*
X148122753Y-76515064D01*
X148121190Y-76501707D01*
X148119181Y-76488870D01*
X148116725Y-76476555D01*
X148113823Y-76464760D01*
X148110474Y-76453486D01*
X148106679Y-76442734D01*
X148102437Y-76432502D01*
X148097749Y-76422791D01*
X148092615Y-76413600D01*
X148087034Y-76404931D01*
X148081006Y-76396783D01*
X148074532Y-76389155D01*
X148067611Y-76382049D01*
X148060245Y-76375128D01*
X148052431Y-76368654D01*
X148044171Y-76362627D01*
X148035465Y-76357046D01*
X148026312Y-76351911D01*
X148016712Y-76347223D01*
X148006667Y-76342982D01*
X147996174Y-76339186D01*
X147985235Y-76335838D01*
X147973850Y-76332936D01*
X147962018Y-76330480D01*
X147949740Y-76328471D01*
X147937015Y-76326908D01*
X147923844Y-76325792D01*
X147910226Y-76325122D01*
X147896162Y-76324899D01*
X147881800Y-76325132D01*
X147867884Y-76325829D01*
X147854415Y-76326992D01*
X147841393Y-76328620D01*
X147828817Y-76330713D01*
X147816687Y-76333271D01*
X147805004Y-76336294D01*
X147793768Y-76339782D01*
X147782977Y-76343735D01*
X147772634Y-76348153D01*
X147762737Y-76353037D01*
X147753286Y-76358385D01*
X147744282Y-76364199D01*
X147735724Y-76370478D01*
X147727613Y-76377221D01*
X147719949Y-76384430D01*
X147712740Y-76392104D01*
X147705996Y-76400243D01*
X147699717Y-76408847D01*
X147693904Y-76417917D01*
X147688555Y-76427451D01*
X147683672Y-76437450D01*
X147679253Y-76447915D01*
X147675300Y-76458844D01*
X147671812Y-76470239D01*
X147668789Y-76482099D01*
X147666231Y-76494423D01*
X147664138Y-76507213D01*
X147662510Y-76520468D01*
X147661347Y-76534189D01*
X147660650Y-76548374D01*
X147660417Y-76563024D01*
X147327247Y-76563024D01*
X147327629Y-76545248D01*
X147329387Y-76518710D01*
X147332317Y-76492935D01*
X147336419Y-76467923D01*
X147341693Y-76443673D01*
X147348139Y-76420186D01*
X147355757Y-76397462D01*
X147364547Y-76375500D01*
X147374510Y-76354302D01*
X147385644Y-76333866D01*
X147397950Y-76314193D01*
X147411428Y-76295282D01*
X147426078Y-76277134D01*
X147441901Y-76259749D01*
X147458895Y-76243127D01*
X147477061Y-76227268D01*
X147496567Y-76211985D01*
X147516984Y-76197688D01*
X147538313Y-76184377D01*
X147560554Y-76172052D01*
X147583706Y-76160714D01*
X147607770Y-76150361D01*
X147632745Y-76140994D01*
X147658632Y-76132613D01*
X147685430Y-76125218D01*
X147713140Y-76118809D01*
X147741761Y-76113386D01*
X147771294Y-76108949D01*
X147801739Y-76105498D01*
X147833095Y-76103033D01*
X147865363Y-76101554D01*
X147898542Y-76101061D01*
X147922429Y-76101322D01*
G37*
%TD*%
M02*
