%TF.GenerationSoftware,KiCad,Pcbnew,10.0.3*%
%TF.CreationDate,2026-09-06T00:29:23-07:00*%
%TF.ProjectId,OBI Data Interconnect,4f424920-4461-4746-9120-496e74657263,rev?*%
%TF.SameCoordinates,Original*%
%TF.FileFunction,Copper,L1,Top*%
%TF.FilePolarity,Positive*%
%FSLAX46Y46*%
G04 Gerber Fmt 4.6, Leading zero omitted, Abs format (unit mm)*
G04 Created by KiCad (PCBNEW 10.0.3) date 2026-09-06 00:29:23*
%MOMM*%
%LPD*%
G01*
G04 APERTURE LIST*
G04 Aperture macros list*
%AMRoundRect*
0 Rectangle with rounded corners*
0 $1 Rounding radius*
0 $2 $3 $4 $5 $6 $7 $8 $9 X,Y pos of 4 corners*
0 Add a 4 corners polygon primitive as box body*
4,1,4,$2,$3,$4,$5,$6,$7,$8,$9,$2,$3,0*
0 Add four circle primitives for the rounded corners*
1,1,$1+$1,$2,$3*
1,1,$1+$1,$4,$5*
1,1,$1+$1,$6,$7*
1,1,$1+$1,$8,$9*
0 Add four rect primitives between the rounded corners*
20,1,$1+$1,$2,$3,$4,$5,0*
20,1,$1+$1,$4,$5,$6,$7,0*
20,1,$1+$1,$6,$7,$8,$9,0*
20,1,$1+$1,$8,$9,$2,$3,0*%
G04 Aperture macros list end*
%TA.AperFunction,ComponentPad*%
%ADD10RoundRect,0.250000X-0.600000X-0.600000X0.600000X-0.600000X0.600000X0.600000X-0.600000X0.600000X0*%
%TD*%
%TA.AperFunction,ComponentPad*%
%ADD11C,1.700000*%
%TD*%
%TA.AperFunction,ComponentPad*%
%ADD12C,0.800000*%
%TD*%
%TA.AperFunction,ComponentPad*%
%ADD13C,7.000000*%
%TD*%
%TA.AperFunction,ComponentPad*%
%ADD14R,1.700000X1.700000*%
%TD*%
%TA.AperFunction,ComponentPad*%
%ADD15O,1.700000X1.700000*%
%TD*%
%TA.AperFunction,ViaPad*%
%ADD16C,0.800000*%
%TD*%
%TA.AperFunction,ViaPad*%
%ADD17C,0.508000*%
%TD*%
%TA.AperFunction,Conductor*%
%ADD18C,0.500000*%
%TD*%
%TA.AperFunction,Conductor*%
%ADD19C,0.250000*%
%TD*%
G04 APERTURE END LIST*
D10*
%TO.P,J2,1,Pin_1*%
%TO.N,External +3.3V Source*%
X165810000Y-52480000D03*
D11*
%TO.P,J2,2,Pin_2*%
%TO.N,+3.3V*%
X168350000Y-52480000D03*
%TO.P,J2,3,Pin_3*%
%TO.N,/D-17*%
X165810000Y-55020000D03*
%TO.P,J2,4,Pin_4*%
%TO.N,GNDD*%
X168350000Y-55020000D03*
%TO.P,J2,5,Pin_5*%
%TO.N,/D-18*%
X165810000Y-57560000D03*
%TO.P,J2,6,Pin_6*%
%TO.N,GNDD*%
X168350000Y-57560000D03*
%TO.P,J2,7,Pin_7*%
%TO.N,/D-19*%
X165810000Y-60100000D03*
%TO.P,J2,8,Pin_8*%
%TO.N,GNDD*%
X168350000Y-60100000D03*
%TO.P,J2,9,Pin_9*%
%TO.N,/D-20*%
X165810000Y-62640000D03*
%TO.P,J2,10,Pin_10*%
%TO.N,GNDD*%
X168350000Y-62640000D03*
%TO.P,J2,11,Pin_11*%
%TO.N,/D-21*%
X165810000Y-65180000D03*
%TO.P,J2,12,Pin_12*%
%TO.N,GNDD*%
X168350000Y-65180000D03*
%TO.P,J2,13,Pin_13*%
%TO.N,/D-22*%
X165810000Y-67720000D03*
%TO.P,J2,14,Pin_14*%
%TO.N,GNDD*%
X168350000Y-67720000D03*
%TO.P,J2,15,Pin_15*%
%TO.N,/D-23*%
X165810000Y-70260000D03*
%TO.P,J2,16,Pin_16*%
%TO.N,GNDD*%
X168350000Y-70260000D03*
%TO.P,J2,17,Pin_17*%
%TO.N,/D-24*%
X165810000Y-72800000D03*
%TO.P,J2,18,Pin_18*%
%TO.N,GNDD*%
X168350000Y-72800000D03*
%TO.P,J2,19,Pin_19*%
%TO.N,unconnected-(J2-Pin_19-Pad19)*%
X165810000Y-75340000D03*
%TO.P,J2,20,Pin_20*%
%TO.N,unconnected-(J2-Pin_20-Pad20)*%
X168350000Y-75340000D03*
%TD*%
D10*
%TO.P,J4,1,Pin_1*%
%TO.N,unconnected-(J4-Pin_1-Pad1)*%
X165810000Y-88040000D03*
D11*
%TO.P,J4,2,Pin_2*%
%TO.N,+3.3V*%
X168350000Y-88040000D03*
%TO.P,J4,3,Pin_3*%
%TO.N,/D-9*%
X165810000Y-90580000D03*
%TO.P,J4,4,Pin_4*%
%TO.N,GNDD*%
X168350000Y-90580000D03*
%TO.P,J4,5,Pin_5*%
%TO.N,/D-10*%
X165810000Y-93120000D03*
%TO.P,J4,6,Pin_6*%
%TO.N,GNDD*%
X168350000Y-93120000D03*
%TO.P,J4,7,Pin_7*%
%TO.N,/D-11*%
X165810000Y-95660000D03*
%TO.P,J4,8,Pin_8*%
%TO.N,GNDD*%
X168350000Y-95660000D03*
%TO.P,J4,9,Pin_9*%
%TO.N,/D-12*%
X165810000Y-98200000D03*
%TO.P,J4,10,Pin_10*%
%TO.N,GNDD*%
X168350000Y-98200000D03*
%TO.P,J4,11,Pin_11*%
%TO.N,/D-13*%
X165810000Y-100740000D03*
%TO.P,J4,12,Pin_12*%
%TO.N,GNDD*%
X168350000Y-100740000D03*
%TO.P,J4,13,Pin_13*%
%TO.N,/D-14*%
X165810000Y-103280000D03*
%TO.P,J4,14,Pin_14*%
%TO.N,GNDD*%
X168350000Y-103280000D03*
%TO.P,J4,15,Pin_15*%
%TO.N,/D-15*%
X165810000Y-105820000D03*
%TO.P,J4,16,Pin_16*%
%TO.N,GNDD*%
X168350000Y-105820000D03*
%TO.P,J4,17,Pin_17*%
%TO.N,/D-16*%
X165810000Y-108360000D03*
%TO.P,J4,18,Pin_18*%
%TO.N,GNDD*%
X168350000Y-108360000D03*
%TO.P,J4,19,Pin_19*%
%TO.N,unconnected-(J4-Pin_19-Pad19)*%
X165810000Y-110900000D03*
%TO.P,J4,20,Pin_20*%
%TO.N,unconnected-(J4-Pin_20-Pad20)*%
X168350000Y-110900000D03*
%TD*%
D10*
%TO.P,J3,1,Pin_1*%
%TO.N,unconnected-(J3-Pin_1-Pad1)*%
X155650000Y-88040000D03*
D11*
%TO.P,J3,2,Pin_2*%
%TO.N,+3.3V*%
X158190000Y-88040000D03*
%TO.P,J3,3,Pin_3*%
%TO.N,/D-1*%
X155650000Y-90580000D03*
%TO.P,J3,4,Pin_4*%
%TO.N,GNDD*%
X158190000Y-90580000D03*
%TO.P,J3,5,Pin_5*%
%TO.N,/D-2*%
X155650000Y-93120000D03*
%TO.P,J3,6,Pin_6*%
%TO.N,GNDD*%
X158190000Y-93120000D03*
%TO.P,J3,7,Pin_7*%
%TO.N,/D-3*%
X155650000Y-95660000D03*
%TO.P,J3,8,Pin_8*%
%TO.N,GNDD*%
X158190000Y-95660000D03*
%TO.P,J3,9,Pin_9*%
%TO.N,/D-4*%
X155650000Y-98200000D03*
%TO.P,J3,10,Pin_10*%
%TO.N,GNDD*%
X158190000Y-98200000D03*
%TO.P,J3,11,Pin_11*%
%TO.N,/D-5*%
X155650000Y-100740000D03*
%TO.P,J3,12,Pin_12*%
%TO.N,GNDD*%
X158190000Y-100740000D03*
%TO.P,J3,13,Pin_13*%
%TO.N,/D-6*%
X155650000Y-103280000D03*
%TO.P,J3,14,Pin_14*%
%TO.N,GNDD*%
X158190000Y-103280000D03*
%TO.P,J3,15,Pin_15*%
%TO.N,/D-7*%
X155650000Y-105820000D03*
%TO.P,J3,16,Pin_16*%
%TO.N,GNDD*%
X158190000Y-105820000D03*
%TO.P,J3,17,Pin_17*%
%TO.N,/D-8*%
X155650000Y-108360000D03*
%TO.P,J3,18,Pin_18*%
%TO.N,GNDD*%
X158190000Y-108360000D03*
%TO.P,J3,19,Pin_19*%
%TO.N,unconnected-(J3-Pin_19-Pad19)*%
X155650000Y-110900000D03*
%TO.P,J3,20,Pin_20*%
%TO.N,unconnected-(J3-Pin_20-Pad20)*%
X158190000Y-110900000D03*
%TD*%
D12*
%TO.P,H3,1*%
%TO.N,N/C*%
X153025000Y-120900000D03*
X153793845Y-119043845D03*
X153793845Y-122756155D03*
X155650000Y-118275000D03*
D13*
X155650000Y-120900000D03*
D12*
X155650000Y-123525000D03*
X157506155Y-119043845D03*
X157506155Y-122756155D03*
X158275000Y-120900000D03*
%TD*%
%TO.P,H1,1*%
%TO.N,N/C*%
X135025000Y-48900000D03*
X135793845Y-47043845D03*
X135793845Y-50756155D03*
X137650000Y-46275000D03*
D13*
X137650000Y-48900000D03*
D12*
X137650000Y-51525000D03*
X139506155Y-47043845D03*
X139506155Y-50756155D03*
X140275000Y-48900000D03*
%TD*%
%TO.P,H2,1*%
%TO.N,N/C*%
X153025000Y-48900000D03*
X153793845Y-47043845D03*
X153793845Y-50756155D03*
X155650000Y-46275000D03*
D13*
X155650000Y-48900000D03*
D12*
X155650000Y-51525000D03*
X157506155Y-47043845D03*
X157506155Y-50756155D03*
X158275000Y-48900000D03*
%TD*%
D14*
%TO.P,J5,1,Pin_1*%
%TO.N,Net-(J5-Pin_1)*%
X147495000Y-59810000D03*
D15*
%TO.P,J5,2,Pin_2*%
%TO.N,Net-(J5-Pin_2)*%
X147495000Y-57270000D03*
%TD*%
D16*
%TO.N,+3.3V*%
X141180000Y-79270000D03*
X163590000Y-116810000D03*
X165380000Y-116800000D03*
X158430000Y-55180000D03*
X160980000Y-58260000D03*
X154775000Y-60295000D03*
X147280000Y-78380000D03*
X142710000Y-54980000D03*
D17*
%TO.N,GNDD*%
X167080000Y-107250000D03*
D16*
X135535068Y-69281821D03*
X136750000Y-56615000D03*
D17*
X146490000Y-71750000D03*
X160110000Y-60560000D03*
D16*
X135550000Y-80730000D03*
D17*
X153860000Y-105200000D03*
X163600000Y-51240000D03*
X168110000Y-85140000D03*
X163240000Y-110180000D03*
X160250000Y-117210000D03*
X132930000Y-75710000D03*
X140120000Y-80090000D03*
X161620000Y-50380000D03*
X164100000Y-63020000D03*
X146960000Y-67100000D03*
D16*
X132940000Y-76910000D03*
D17*
X152620000Y-103910000D03*
X153860000Y-99650000D03*
X160400000Y-80060000D03*
X155290000Y-83340000D03*
X163210000Y-123220000D03*
X150300000Y-57110000D03*
X166860000Y-48070000D03*
X150360000Y-62820000D03*
X164540000Y-108370000D03*
X158780000Y-113680000D03*
X151940000Y-71720000D03*
X154680000Y-71750000D03*
X162710000Y-53750000D03*
D16*
X144330000Y-78400000D03*
D17*
X163090000Y-104210000D03*
X167380000Y-112900000D03*
X163470000Y-101960000D03*
X132760000Y-55330000D03*
X153890000Y-87410000D03*
X154730000Y-112970000D03*
X166180000Y-115820000D03*
X158320000Y-77890000D03*
X164280000Y-46120000D03*
X142680000Y-58530000D03*
X132920000Y-66370000D03*
X171370000Y-120910000D03*
X132610000Y-67870000D03*
X166230000Y-123040000D03*
X161120000Y-80820000D03*
X132920000Y-63090000D03*
X167550000Y-124110000D03*
D16*
X136730000Y-55311000D03*
D17*
X132640000Y-77960000D03*
X158450000Y-54250000D03*
X141310000Y-71830000D03*
X167080000Y-61470000D03*
X150060000Y-51630000D03*
D16*
X168320000Y-116810000D03*
D17*
X164330000Y-55980000D03*
D16*
X157725000Y-60290000D03*
D17*
X141320000Y-66850000D03*
X162440000Y-121430000D03*
X163530000Y-71700000D03*
X150670000Y-80830000D03*
X160590000Y-112800000D03*
X152860000Y-111610000D03*
X151850000Y-53290000D03*
X164320000Y-58060000D03*
X147120000Y-62800000D03*
X169640000Y-46090000D03*
X167440000Y-79160000D03*
X170390000Y-78180000D03*
X164200000Y-98300000D03*
X132950000Y-79040000D03*
X169590000Y-47740000D03*
X148900000Y-68400000D03*
X153840000Y-60440000D03*
X153130000Y-83460000D03*
X161880000Y-81500000D03*
D16*
X135540000Y-54060000D03*
D17*
X162760000Y-115700000D03*
X141040000Y-52950000D03*
X152890000Y-62820000D03*
X144430000Y-55430000D03*
X153760000Y-90450000D03*
X154050000Y-93400000D03*
X132950000Y-52410000D03*
X132610000Y-70660000D03*
D16*
X162020000Y-116810000D03*
D17*
X158480000Y-56150000D03*
X154900000Y-85540000D03*
X165000000Y-115580000D03*
X164390000Y-105440000D03*
D16*
X135560000Y-61658000D03*
D17*
X154230000Y-81660000D03*
X147570000Y-50480000D03*
X156860000Y-55810000D03*
X170650000Y-80930000D03*
X170320000Y-111500000D03*
X162410000Y-73900000D03*
X163460000Y-68730000D03*
X166790000Y-116650000D03*
X156518271Y-68430000D03*
X152790000Y-66850000D03*
D16*
X135560000Y-57879000D03*
D17*
X139510000Y-53210000D03*
X164450000Y-103070000D03*
X164290000Y-67150000D03*
X160330000Y-62310000D03*
X132970000Y-71910000D03*
X161480000Y-57440000D03*
D16*
X139357387Y-68045000D03*
D17*
X165810000Y-83830000D03*
X160830000Y-123610000D03*
X149770000Y-58490000D03*
X160190000Y-115120000D03*
X132900000Y-59260000D03*
X170720000Y-83620000D03*
D16*
X136670000Y-75620000D03*
D17*
X156890000Y-101340000D03*
X158360000Y-61780000D03*
X141850000Y-78510000D03*
X162010000Y-70060000D03*
X156620000Y-115260000D03*
X167220000Y-121350000D03*
X153320000Y-85540000D03*
X169160000Y-86400000D03*
X147210000Y-76073000D03*
X132620000Y-69250000D03*
X163880000Y-115580000D03*
X161470000Y-47510000D03*
X152790000Y-98050000D03*
X146120000Y-68400000D03*
X152550000Y-68430000D03*
X166290000Y-77130000D03*
D16*
X139300000Y-60450000D03*
D17*
X143200000Y-47450000D03*
X170840000Y-115300000D03*
X167140000Y-102120000D03*
X152720000Y-109120000D03*
D16*
X135587334Y-65468000D03*
D17*
X166250000Y-81500000D03*
X170370000Y-117380000D03*
D16*
X159440000Y-58280000D03*
D17*
X150460000Y-79660000D03*
X167200000Y-99320000D03*
X167620000Y-86500000D03*
X147020000Y-45820000D03*
X169660000Y-122210000D03*
D16*
X133015000Y-73105000D03*
D17*
X142970000Y-51450000D03*
X153820000Y-102430000D03*
X167000000Y-56270000D03*
X162970000Y-106860000D03*
X164050000Y-73890000D03*
X151050000Y-78290000D03*
X156890000Y-109560000D03*
X164450000Y-52240000D03*
X140240000Y-79060000D03*
X167080000Y-58950000D03*
X132920000Y-56510000D03*
X168120000Y-115300000D03*
X152760000Y-92210000D03*
X146280000Y-78280000D03*
X152780000Y-82020000D03*
X132610000Y-53970000D03*
X161060000Y-110790000D03*
X163690000Y-52980000D03*
X153890000Y-107650000D03*
X141570000Y-60570000D03*
X132660000Y-64790000D03*
X152800000Y-101070000D03*
X161250000Y-67000000D03*
X132640000Y-74390000D03*
X152370000Y-80620000D03*
X162540000Y-113570000D03*
X169950000Y-87780000D03*
D16*
X142750000Y-79230000D03*
X136795000Y-79475000D03*
D17*
X145140000Y-56450000D03*
X150350000Y-67170000D03*
X142610000Y-45800000D03*
X132740000Y-58050000D03*
X152830000Y-106430000D03*
X161130000Y-63230000D03*
X142960000Y-76090000D03*
D16*
X136765000Y-71815000D03*
D17*
X161740000Y-45850000D03*
X144150000Y-62820000D03*
X152990000Y-88910000D03*
X168950000Y-49990000D03*
X164610000Y-112520000D03*
X143960000Y-68070000D03*
X132640000Y-61330000D03*
X159420000Y-79030000D03*
X141990000Y-62560000D03*
X153840000Y-96390000D03*
X142750000Y-52930000D03*
X158300000Y-67530000D03*
X167100000Y-104540000D03*
X149560000Y-47490000D03*
X159600000Y-68220000D03*
X153140000Y-114730000D03*
X167930000Y-83620000D03*
X166090000Y-86150000D03*
X148270000Y-78370000D03*
X157010000Y-112630000D03*
X156920000Y-96380000D03*
X155710000Y-60430000D03*
X154050000Y-110350000D03*
X164380000Y-60300000D03*
X170630000Y-119080000D03*
X154770000Y-61240000D03*
X163270000Y-49180000D03*
X156780000Y-84980000D03*
X165900000Y-50340000D03*
X160360000Y-70470000D03*
X154990000Y-74250000D03*
X164190000Y-100320000D03*
X151070000Y-45730000D03*
D16*
X139380000Y-64229000D03*
D17*
X158070000Y-85930000D03*
X152960000Y-95050000D03*
X139140000Y-79840000D03*
X156900000Y-106380000D03*
%TD*%
%TO.N,+3.3V*%
D18*
X158470000Y-55220000D02*
X158430000Y-55180000D01*
X165375000Y-116805000D02*
X165380000Y-116800000D01*
X163585000Y-116815000D02*
X163590000Y-116810000D01*
%TO.N,GNDD*%
X162035000Y-116825000D02*
X162020000Y-116810000D01*
X159425000Y-58295000D02*
X159440000Y-58280000D01*
X168325000Y-116815000D02*
X168320000Y-116810000D01*
%TO.N,/D-17*%
D19*
X165810000Y-55020000D02*
X165810000Y-55800000D01*
%TO.N,/D-21*%
X165810000Y-65180000D02*
X165590356Y-64960356D01*
%TO.N,/D-23*%
X165810000Y-70260000D02*
X165810000Y-70090000D01*
%TD*%
%TA.AperFunction,Conductor*%
%TO.N,GNDD*%
G36*
X136705096Y-45299806D02*
G01*
X136723402Y-45344000D01*
X136705096Y-45388194D01*
X136679046Y-45403807D01*
X136426458Y-45480430D01*
X136426454Y-45480431D01*
X136426446Y-45480434D01*
X136097174Y-45616823D01*
X135782848Y-45784833D01*
X135486489Y-45982854D01*
X135486486Y-45982857D01*
X135210987Y-46208953D01*
X135210980Y-46208959D01*
X134958959Y-46460980D01*
X134958953Y-46460987D01*
X134732857Y-46736486D01*
X134732854Y-46736489D01*
X134534833Y-47032848D01*
X134366823Y-47347174D01*
X134230434Y-47676446D01*
X134126968Y-48017524D01*
X134126964Y-48017540D01*
X134057433Y-48367100D01*
X134039578Y-48548393D01*
X134024900Y-48697431D01*
X134022500Y-48721795D01*
X134022500Y-49078204D01*
X134057433Y-49432899D01*
X134126964Y-49782459D01*
X134126968Y-49782474D01*
X134230430Y-50123542D01*
X134230432Y-50123547D01*
X134230434Y-50123553D01*
X134366823Y-50452825D01*
X134534833Y-50767151D01*
X134732854Y-51063510D01*
X134732857Y-51063513D01*
X134958953Y-51339012D01*
X134958959Y-51339019D01*
X135210980Y-51591040D01*
X135210987Y-51591046D01*
X135486486Y-51817142D01*
X135486489Y-51817145D01*
X135486495Y-51817149D01*
X135782843Y-52015163D01*
X135782845Y-52015164D01*
X135782848Y-52015166D01*
X135786240Y-52016979D01*
X136097173Y-52183176D01*
X136426446Y-52319565D01*
X136426445Y-52319565D01*
X136426448Y-52319566D01*
X136426458Y-52319570D01*
X136767526Y-52423032D01*
X136767535Y-52423033D01*
X136767540Y-52423035D01*
X136860825Y-52441590D01*
X137117093Y-52492565D01*
X137117098Y-52492565D01*
X137117101Y-52492566D01*
X137117099Y-52492566D01*
X137297778Y-52510361D01*
X137471792Y-52527500D01*
X137471796Y-52527500D01*
X137828204Y-52527500D01*
X137828208Y-52527500D01*
X138058783Y-52504790D01*
X138182899Y-52492566D01*
X138182901Y-52492565D01*
X138182907Y-52492565D01*
X138532474Y-52423032D01*
X138873542Y-52319570D01*
X139202827Y-52183176D01*
X139517157Y-52015163D01*
X139813505Y-51817149D01*
X140089018Y-51591042D01*
X140341042Y-51339018D01*
X140567149Y-51063505D01*
X140765163Y-50767157D01*
X140933176Y-50452827D01*
X141069570Y-50123542D01*
X141173032Y-49782474D01*
X141242565Y-49432907D01*
X141277500Y-49078208D01*
X141277500Y-48721792D01*
X141242565Y-48367093D01*
X141173032Y-48017526D01*
X141069570Y-47676458D01*
X140933176Y-47347173D01*
X140765163Y-47032843D01*
X140567149Y-46736495D01*
X140567145Y-46736489D01*
X140567142Y-46736486D01*
X140341046Y-46460987D01*
X140341040Y-46460980D01*
X140089019Y-46208959D01*
X140089012Y-46208953D01*
X139813513Y-45982857D01*
X139813510Y-45982854D01*
X139517151Y-45784833D01*
X139202825Y-45616823D01*
X138873553Y-45480434D01*
X138873554Y-45480434D01*
X138873545Y-45480431D01*
X138873542Y-45480430D01*
X138620953Y-45403808D01*
X138583978Y-45373462D01*
X138579289Y-45325857D01*
X138609636Y-45288880D01*
X138639098Y-45281500D01*
X154660902Y-45281500D01*
X154705096Y-45299806D01*
X154723402Y-45344000D01*
X154705096Y-45388194D01*
X154679046Y-45403807D01*
X154426458Y-45480430D01*
X154426454Y-45480431D01*
X154426446Y-45480434D01*
X154097174Y-45616823D01*
X153782848Y-45784833D01*
X153486489Y-45982854D01*
X153486486Y-45982857D01*
X153210987Y-46208953D01*
X153210980Y-46208959D01*
X152958959Y-46460980D01*
X152958953Y-46460987D01*
X152732857Y-46736486D01*
X152732854Y-46736489D01*
X152534833Y-47032848D01*
X152366823Y-47347174D01*
X152230434Y-47676446D01*
X152126968Y-48017524D01*
X152126964Y-48017540D01*
X152057433Y-48367100D01*
X152039578Y-48548393D01*
X152024900Y-48697431D01*
X152022500Y-48721795D01*
X152022500Y-49078204D01*
X152057433Y-49432899D01*
X152126964Y-49782459D01*
X152126968Y-49782474D01*
X152230430Y-50123542D01*
X152230432Y-50123547D01*
X152230434Y-50123553D01*
X152366823Y-50452825D01*
X152534833Y-50767151D01*
X152732854Y-51063510D01*
X152732857Y-51063513D01*
X152958953Y-51339012D01*
X152958959Y-51339019D01*
X153210980Y-51591040D01*
X153210987Y-51591046D01*
X153486486Y-51817142D01*
X153486489Y-51817145D01*
X153486495Y-51817149D01*
X153782843Y-52015163D01*
X153782845Y-52015164D01*
X153782848Y-52015166D01*
X153786240Y-52016979D01*
X154097173Y-52183176D01*
X154426446Y-52319565D01*
X154426445Y-52319565D01*
X154426448Y-52319566D01*
X154426458Y-52319570D01*
X154767526Y-52423032D01*
X154767535Y-52423033D01*
X154767540Y-52423035D01*
X154860825Y-52441590D01*
X155117093Y-52492565D01*
X155117098Y-52492565D01*
X155117101Y-52492566D01*
X155117099Y-52492566D01*
X155297778Y-52510361D01*
X155471792Y-52527500D01*
X155471796Y-52527500D01*
X155828204Y-52527500D01*
X155828208Y-52527500D01*
X156058783Y-52504790D01*
X156182899Y-52492566D01*
X156182901Y-52492565D01*
X156182907Y-52492565D01*
X156532474Y-52423032D01*
X156873542Y-52319570D01*
X157202827Y-52183176D01*
X157517157Y-52015163D01*
X157773061Y-51844173D01*
X164832500Y-51844173D01*
X164832500Y-53115825D01*
X164843190Y-53189201D01*
X164843191Y-53189204D01*
X164898524Y-53302390D01*
X164987610Y-53391476D01*
X165100796Y-53446809D01*
X165174173Y-53457500D01*
X166445826Y-53457499D01*
X166519204Y-53446809D01*
X166632390Y-53391476D01*
X166721476Y-53302390D01*
X166776809Y-53189204D01*
X166787500Y-53115827D01*
X166787499Y-52383724D01*
X167372500Y-52383724D01*
X167372500Y-52576275D01*
X167410064Y-52765126D01*
X167410066Y-52765134D01*
X167483750Y-52943020D01*
X167590726Y-53103120D01*
X167726880Y-53239274D01*
X167886980Y-53346250D01*
X167966299Y-53379105D01*
X168064865Y-53419933D01*
X168064869Y-53419934D01*
X168064874Y-53419936D01*
X168253725Y-53457500D01*
X168446275Y-53457500D01*
X168635126Y-53419936D01*
X168635132Y-53419933D01*
X168635134Y-53419933D01*
X168677611Y-53402337D01*
X168813020Y-53346250D01*
X168973120Y-53239274D01*
X169109274Y-53103120D01*
X169216250Y-52943020D01*
X169289936Y-52765126D01*
X169327500Y-52576275D01*
X169327500Y-52383725D01*
X169289936Y-52194874D01*
X169289934Y-52194869D01*
X169289933Y-52194865D01*
X169249105Y-52096299D01*
X169216250Y-52016980D01*
X169109274Y-51856880D01*
X168973120Y-51720726D01*
X168878658Y-51657608D01*
X168813022Y-51613751D01*
X168813020Y-51613750D01*
X168635134Y-51540066D01*
X168635126Y-51540064D01*
X168446275Y-51502500D01*
X168253725Y-51502500D01*
X168064873Y-51540064D01*
X168064865Y-51540066D01*
X167886979Y-51613750D01*
X167886977Y-51613751D01*
X167726880Y-51720725D01*
X167590725Y-51856880D01*
X167483751Y-52016977D01*
X167483750Y-52016979D01*
X167410066Y-52194865D01*
X167410064Y-52194873D01*
X167372500Y-52383724D01*
X166787499Y-52383724D01*
X166787499Y-51844174D01*
X166776809Y-51770796D01*
X166721476Y-51657610D01*
X166632390Y-51568524D01*
X166519204Y-51513191D01*
X166519202Y-51513190D01*
X166519201Y-51513190D01*
X166460913Y-51504698D01*
X166445827Y-51502500D01*
X166445826Y-51502500D01*
X165174174Y-51502500D01*
X165100798Y-51513190D01*
X165100797Y-51513190D01*
X165100796Y-51513191D01*
X164987610Y-51568524D01*
X164987608Y-51568525D01*
X164898525Y-51657608D01*
X164843190Y-51770798D01*
X164832500Y-51844173D01*
X157773061Y-51844173D01*
X157813505Y-51817149D01*
X157813514Y-51817142D01*
X157813524Y-51817134D01*
X157842193Y-51793606D01*
X157842203Y-51793598D01*
X158007904Y-51657610D01*
X158089018Y-51591042D01*
X158341042Y-51339018D01*
X158567149Y-51063505D01*
X158765163Y-50767157D01*
X158933176Y-50452827D01*
X159069570Y-50123542D01*
X159173032Y-49782474D01*
X159242565Y-49432907D01*
X159277500Y-49078208D01*
X159277500Y-48721792D01*
X159242565Y-48367093D01*
X159173032Y-48017526D01*
X159069570Y-47676458D01*
X158933176Y-47347173D01*
X158765163Y-47032843D01*
X158567149Y-46736495D01*
X158567145Y-46736489D01*
X158567142Y-46736486D01*
X158341046Y-46460987D01*
X158341040Y-46460980D01*
X158089019Y-46208959D01*
X158089012Y-46208953D01*
X157813513Y-45982857D01*
X157813510Y-45982854D01*
X157517151Y-45784833D01*
X157202825Y-45616823D01*
X156873553Y-45480434D01*
X156873554Y-45480434D01*
X156873545Y-45480431D01*
X156873542Y-45480430D01*
X156620953Y-45403808D01*
X156583978Y-45373462D01*
X156579289Y-45325857D01*
X156609636Y-45288880D01*
X156639098Y-45281500D01*
X168095149Y-45281500D01*
X168148460Y-45281500D01*
X168151526Y-45281574D01*
X168501610Y-45298773D01*
X168507705Y-45299373D01*
X168852906Y-45350579D01*
X168858913Y-45351775D01*
X169197429Y-45436568D01*
X169203279Y-45438343D01*
X169531859Y-45555911D01*
X169537506Y-45558250D01*
X169852981Y-45707459D01*
X169858372Y-45710340D01*
X170157705Y-45889753D01*
X170162793Y-45893153D01*
X170283745Y-45982857D01*
X170443080Y-46101029D01*
X170447821Y-46104919D01*
X170706390Y-46339271D01*
X170710728Y-46343609D01*
X170945080Y-46602178D01*
X170948970Y-46606919D01*
X171156842Y-46887200D01*
X171160250Y-46892300D01*
X171339654Y-47191618D01*
X171342545Y-47197027D01*
X171491745Y-47512484D01*
X171494092Y-47518150D01*
X171611653Y-47846710D01*
X171613434Y-47852580D01*
X171698223Y-48191082D01*
X171699420Y-48197097D01*
X171750625Y-48542289D01*
X171751226Y-48548393D01*
X171768425Y-48898473D01*
X171768500Y-48901540D01*
X171768500Y-120898459D01*
X171768425Y-120901526D01*
X171751226Y-121251606D01*
X171750625Y-121257710D01*
X171699420Y-121602902D01*
X171698223Y-121608917D01*
X171613434Y-121947419D01*
X171611653Y-121953289D01*
X171494092Y-122281849D01*
X171491745Y-122287515D01*
X171342545Y-122602972D01*
X171339654Y-122608381D01*
X171160250Y-122907699D01*
X171156842Y-122912799D01*
X170948970Y-123193080D01*
X170945080Y-123197821D01*
X170710728Y-123456390D01*
X170706390Y-123460728D01*
X170447821Y-123695080D01*
X170443080Y-123698970D01*
X170162799Y-123906842D01*
X170157699Y-123910250D01*
X169858381Y-124089654D01*
X169852972Y-124092545D01*
X169537515Y-124241745D01*
X169531849Y-124244092D01*
X169203289Y-124361653D01*
X169197419Y-124363434D01*
X168858917Y-124448223D01*
X168852902Y-124449420D01*
X168507710Y-124500625D01*
X168501606Y-124501226D01*
X168151527Y-124518425D01*
X168148460Y-124518500D01*
X156639098Y-124518500D01*
X156594904Y-124500194D01*
X156576598Y-124456000D01*
X156594904Y-124411806D01*
X156620953Y-124396192D01*
X156873542Y-124319570D01*
X157202827Y-124183176D01*
X157517157Y-124015163D01*
X157813505Y-123817149D01*
X158089018Y-123591042D01*
X158341042Y-123339018D01*
X158567149Y-123063505D01*
X158765163Y-122767157D01*
X158933176Y-122452827D01*
X159069570Y-122123542D01*
X159173032Y-121782474D01*
X159242565Y-121432907D01*
X159277500Y-121078208D01*
X159277500Y-120721792D01*
X159242565Y-120367093D01*
X159173032Y-120017526D01*
X159069570Y-119676458D01*
X158933176Y-119347173D01*
X158765163Y-119032843D01*
X158567149Y-118736495D01*
X158567145Y-118736489D01*
X158567142Y-118736486D01*
X158341046Y-118460987D01*
X158341040Y-118460980D01*
X158089019Y-118208959D01*
X158089012Y-118208953D01*
X157813513Y-117982857D01*
X157813510Y-117982854D01*
X157517151Y-117784833D01*
X157202825Y-117616823D01*
X156873553Y-117480434D01*
X156873554Y-117480434D01*
X156873545Y-117480431D01*
X156873542Y-117480430D01*
X156688488Y-117424294D01*
X156532475Y-117376968D01*
X156532459Y-117376964D01*
X156182898Y-117307433D01*
X156182900Y-117307433D01*
X155910185Y-117280574D01*
X155828208Y-117272500D01*
X155471792Y-117272500D01*
X155389814Y-117280574D01*
X155117100Y-117307433D01*
X154767540Y-117376964D01*
X154767524Y-117376968D01*
X154553427Y-117441914D01*
X154426458Y-117480430D01*
X154426454Y-117480431D01*
X154426446Y-117480434D01*
X154097174Y-117616823D01*
X153782848Y-117784833D01*
X153486489Y-117982854D01*
X153486486Y-117982857D01*
X153210987Y-118208953D01*
X153210980Y-118208959D01*
X152958959Y-118460980D01*
X152958953Y-118460987D01*
X152732857Y-118736486D01*
X152732854Y-118736489D01*
X152534833Y-119032848D01*
X152366823Y-119347174D01*
X152230434Y-119676446D01*
X152230431Y-119676454D01*
X152230430Y-119676458D01*
X152153809Y-119929044D01*
X152123462Y-119966021D01*
X152075857Y-119970710D01*
X152038880Y-119940363D01*
X152031500Y-119910901D01*
X152031500Y-116740554D01*
X163062500Y-116740554D01*
X163062500Y-116879445D01*
X163062501Y-116879453D01*
X163098446Y-117013603D01*
X163098447Y-117013606D01*
X163098448Y-117013607D01*
X163162124Y-117123898D01*
X163167896Y-117133894D01*
X163167899Y-117133898D01*
X163266101Y-117232100D01*
X163266105Y-117232103D01*
X163266107Y-117232105D01*
X163369074Y-117291553D01*
X163386393Y-117301552D01*
X163386396Y-117301553D01*
X163468495Y-117323551D01*
X163520553Y-117337500D01*
X163520554Y-117337500D01*
X163659446Y-117337500D01*
X163659447Y-117337500D01*
X163793607Y-117301552D01*
X163913893Y-117232105D01*
X164012105Y-117133893D01*
X164081552Y-117013607D01*
X164117500Y-116879447D01*
X164117500Y-116740553D01*
X164117499Y-116740552D01*
X164117499Y-116740546D01*
X164114822Y-116730554D01*
X164852500Y-116730554D01*
X164852500Y-116869445D01*
X164852501Y-116869453D01*
X164888446Y-117003603D01*
X164888447Y-117003606D01*
X164957896Y-117123894D01*
X164957899Y-117123898D01*
X165056101Y-117222100D01*
X165056105Y-117222103D01*
X165056107Y-117222105D01*
X165143394Y-117272500D01*
X165176393Y-117291552D01*
X165176396Y-117291553D01*
X165213717Y-117301553D01*
X165310553Y-117327500D01*
X165310554Y-117327500D01*
X165449446Y-117327500D01*
X165449447Y-117327500D01*
X165583607Y-117291552D01*
X165703893Y-117222105D01*
X165802105Y-117123893D01*
X165871552Y-117003607D01*
X165907500Y-116869447D01*
X165907500Y-116730553D01*
X165874232Y-116606396D01*
X165871553Y-116596396D01*
X165871552Y-116596393D01*
X165807877Y-116486105D01*
X165802105Y-116476107D01*
X165802103Y-116476105D01*
X165802100Y-116476101D01*
X165703898Y-116377899D01*
X165703894Y-116377896D01*
X165703893Y-116377895D01*
X165600926Y-116318447D01*
X165583606Y-116308447D01*
X165583603Y-116308446D01*
X165449453Y-116272501D01*
X165449448Y-116272500D01*
X165449447Y-116272500D01*
X165310553Y-116272500D01*
X165310552Y-116272500D01*
X165310546Y-116272501D01*
X165176396Y-116308446D01*
X165176393Y-116308447D01*
X165056105Y-116377896D01*
X165056101Y-116377899D01*
X164957899Y-116476101D01*
X164957896Y-116476105D01*
X164888447Y-116596393D01*
X164888446Y-116596396D01*
X164852501Y-116730546D01*
X164852500Y-116730554D01*
X164114822Y-116730554D01*
X164081553Y-116606396D01*
X164081552Y-116606393D01*
X164075780Y-116596396D01*
X164012105Y-116486107D01*
X164012103Y-116486105D01*
X164012100Y-116486101D01*
X163913898Y-116387899D01*
X163913894Y-116387896D01*
X163913893Y-116387895D01*
X163853750Y-116353171D01*
X163793606Y-116318447D01*
X163793603Y-116318446D01*
X163659453Y-116282501D01*
X163659448Y-116282500D01*
X163659447Y-116282500D01*
X163520553Y-116282500D01*
X163520552Y-116282500D01*
X163520546Y-116282501D01*
X163386396Y-116318446D01*
X163386393Y-116318447D01*
X163266105Y-116387896D01*
X163266101Y-116387899D01*
X163167899Y-116486101D01*
X163167896Y-116486105D01*
X163098447Y-116606393D01*
X163098446Y-116606396D01*
X163062501Y-116740546D01*
X163062500Y-116740554D01*
X152031500Y-116740554D01*
X152031500Y-110803724D01*
X154672500Y-110803724D01*
X154672500Y-110996275D01*
X154710064Y-111185126D01*
X154710066Y-111185134D01*
X154783750Y-111363020D01*
X154890726Y-111523120D01*
X155026880Y-111659274D01*
X155186980Y-111766250D01*
X155266299Y-111799105D01*
X155364865Y-111839933D01*
X155364869Y-111839934D01*
X155364874Y-111839936D01*
X155553725Y-111877500D01*
X155746275Y-111877500D01*
X155935126Y-111839936D01*
X155935132Y-111839933D01*
X155935134Y-111839933D01*
X155977611Y-111822337D01*
X156113020Y-111766250D01*
X156273120Y-111659274D01*
X156409274Y-111523120D01*
X156516250Y-111363020D01*
X156589936Y-111185126D01*
X156627500Y-110996275D01*
X156627500Y-110803725D01*
X156627500Y-110803724D01*
X157212500Y-110803724D01*
X157212500Y-110996275D01*
X157250064Y-111185126D01*
X157250066Y-111185134D01*
X157323750Y-111363020D01*
X157430726Y-111523120D01*
X157566880Y-111659274D01*
X157726980Y-111766250D01*
X157806299Y-111799105D01*
X157904865Y-111839933D01*
X157904869Y-111839934D01*
X157904874Y-111839936D01*
X158093725Y-111877500D01*
X158286275Y-111877500D01*
X158475126Y-111839936D01*
X158475132Y-111839933D01*
X158475134Y-111839933D01*
X158517611Y-111822337D01*
X158653020Y-111766250D01*
X158813120Y-111659274D01*
X158949274Y-111523120D01*
X159056250Y-111363020D01*
X159129936Y-111185126D01*
X159167500Y-110996275D01*
X159167500Y-110803725D01*
X159167500Y-110803724D01*
X164832500Y-110803724D01*
X164832500Y-110996275D01*
X164870064Y-111185126D01*
X164870066Y-111185134D01*
X164943750Y-111363020D01*
X165050726Y-111523120D01*
X165186880Y-111659274D01*
X165346980Y-111766250D01*
X165426299Y-111799105D01*
X165524865Y-111839933D01*
X165524869Y-111839934D01*
X165524874Y-111839936D01*
X165713725Y-111877500D01*
X165906275Y-111877500D01*
X166095126Y-111839936D01*
X166095132Y-111839933D01*
X166095134Y-111839933D01*
X166137611Y-111822337D01*
X166273020Y-111766250D01*
X166433120Y-111659274D01*
X166569274Y-111523120D01*
X166676250Y-111363020D01*
X166749936Y-111185126D01*
X166787500Y-110996275D01*
X166787500Y-110803725D01*
X166787500Y-110803724D01*
X167372500Y-110803724D01*
X167372500Y-110996275D01*
X167410064Y-111185126D01*
X167410066Y-111185134D01*
X167483750Y-111363020D01*
X167590726Y-111523120D01*
X167726880Y-111659274D01*
X167886980Y-111766250D01*
X167966299Y-111799105D01*
X168064865Y-111839933D01*
X168064869Y-111839934D01*
X168064874Y-111839936D01*
X168253725Y-111877500D01*
X168446275Y-111877500D01*
X168635126Y-111839936D01*
X168635132Y-111839933D01*
X168635134Y-111839933D01*
X168677611Y-111822337D01*
X168813020Y-111766250D01*
X168973120Y-111659274D01*
X169109274Y-111523120D01*
X169216250Y-111363020D01*
X169289936Y-111185126D01*
X169327500Y-110996275D01*
X169327500Y-110803725D01*
X169289936Y-110614874D01*
X169289934Y-110614869D01*
X169289933Y-110614865D01*
X169249105Y-110516299D01*
X169216250Y-110436980D01*
X169109274Y-110276880D01*
X168973120Y-110140726D01*
X168973119Y-110140725D01*
X168813022Y-110033751D01*
X168813020Y-110033750D01*
X168635134Y-109960066D01*
X168635126Y-109960064D01*
X168446275Y-109922500D01*
X168253725Y-109922500D01*
X168064873Y-109960064D01*
X168064865Y-109960066D01*
X167886979Y-110033750D01*
X167886977Y-110033751D01*
X167726880Y-110140725D01*
X167590725Y-110276880D01*
X167483751Y-110436977D01*
X167483750Y-110436979D01*
X167410066Y-110614865D01*
X167410064Y-110614873D01*
X167372500Y-110803724D01*
X166787500Y-110803724D01*
X166749936Y-110614874D01*
X166749934Y-110614869D01*
X166749933Y-110614865D01*
X166709105Y-110516299D01*
X166676250Y-110436980D01*
X166569274Y-110276880D01*
X166433120Y-110140726D01*
X166433119Y-110140725D01*
X166273022Y-110033751D01*
X166273020Y-110033750D01*
X166095134Y-109960066D01*
X166095126Y-109960064D01*
X165906275Y-109922500D01*
X165713725Y-109922500D01*
X165524873Y-109960064D01*
X165524865Y-109960066D01*
X165346979Y-110033750D01*
X165346977Y-110033751D01*
X165186880Y-110140725D01*
X165050725Y-110276880D01*
X164943751Y-110436977D01*
X164943750Y-110436979D01*
X164870066Y-110614865D01*
X164870064Y-110614873D01*
X164832500Y-110803724D01*
X159167500Y-110803724D01*
X159129936Y-110614874D01*
X159129934Y-110614869D01*
X159129933Y-110614865D01*
X159089105Y-110516299D01*
X159056250Y-110436980D01*
X158949274Y-110276880D01*
X158813120Y-110140726D01*
X158813119Y-110140725D01*
X158653022Y-110033751D01*
X158653020Y-110033750D01*
X158475134Y-109960066D01*
X158475126Y-109960064D01*
X158286275Y-109922500D01*
X158093725Y-109922500D01*
X157904873Y-109960064D01*
X157904865Y-109960066D01*
X157726979Y-110033750D01*
X157726977Y-110033751D01*
X157566880Y-110140725D01*
X157430725Y-110276880D01*
X157323751Y-110436977D01*
X157323750Y-110436979D01*
X157250066Y-110614865D01*
X157250064Y-110614873D01*
X157212500Y-110803724D01*
X156627500Y-110803724D01*
X156589936Y-110614874D01*
X156589934Y-110614869D01*
X156589933Y-110614865D01*
X156549105Y-110516299D01*
X156516250Y-110436980D01*
X156409274Y-110276880D01*
X156273120Y-110140726D01*
X156273119Y-110140725D01*
X156113022Y-110033751D01*
X156113020Y-110033750D01*
X155935134Y-109960066D01*
X155935126Y-109960064D01*
X155746275Y-109922500D01*
X155553725Y-109922500D01*
X155364873Y-109960064D01*
X155364865Y-109960066D01*
X155186979Y-110033750D01*
X155186977Y-110033751D01*
X155026880Y-110140725D01*
X154890725Y-110276880D01*
X154783751Y-110436977D01*
X154783750Y-110436979D01*
X154710066Y-110614865D01*
X154710064Y-110614873D01*
X154672500Y-110803724D01*
X152031500Y-110803724D01*
X152031500Y-108263724D01*
X154672500Y-108263724D01*
X154672500Y-108456275D01*
X154710064Y-108645126D01*
X154710066Y-108645134D01*
X154783750Y-108823020D01*
X154783751Y-108823022D01*
X154890725Y-108983119D01*
X154890726Y-108983120D01*
X155026880Y-109119274D01*
X155186980Y-109226250D01*
X155266299Y-109259105D01*
X155364865Y-109299933D01*
X155364869Y-109299934D01*
X155364874Y-109299936D01*
X155553725Y-109337500D01*
X155746275Y-109337500D01*
X155935126Y-109299936D01*
X155935132Y-109299933D01*
X155935134Y-109299933D01*
X155983992Y-109279694D01*
X156113020Y-109226250D01*
X156273120Y-109119274D01*
X156409274Y-108983120D01*
X156516250Y-108823020D01*
X156589936Y-108645126D01*
X156627500Y-108456275D01*
X156627500Y-108273430D01*
X157090000Y-108273430D01*
X157090000Y-108446569D01*
X157090001Y-108446583D01*
X157117085Y-108617583D01*
X157170590Y-108782254D01*
X157170591Y-108782256D01*
X157249197Y-108936526D01*
X157249201Y-108936533D01*
X157253708Y-108942737D01*
X157707037Y-108489408D01*
X157724075Y-108552993D01*
X157789901Y-108667007D01*
X157882993Y-108760099D01*
X157997007Y-108825925D01*
X158060590Y-108842962D01*
X157607261Y-109296290D01*
X157613471Y-109300801D01*
X157767743Y-109379408D01*
X157767745Y-109379409D01*
X157932417Y-109432914D01*
X157932416Y-109432914D01*
X158103416Y-109459998D01*
X158103430Y-109460000D01*
X158276570Y-109460000D01*
X158276583Y-109459998D01*
X158447583Y-109432914D01*
X158612254Y-109379409D01*
X158612256Y-109379408D01*
X158766525Y-109300803D01*
X158772736Y-109296289D01*
X158319409Y-108842962D01*
X158382993Y-108825925D01*
X158497007Y-108760099D01*
X158590099Y-108667007D01*
X158655925Y-108552993D01*
X158672962Y-108489409D01*
X159126289Y-108942736D01*
X159130803Y-108936525D01*
X159209408Y-108782256D01*
X159209409Y-108782254D01*
X159262914Y-108617583D01*
X159289998Y-108446583D01*
X159290000Y-108446569D01*
X159290000Y-108273430D01*
X159289999Y-108273426D01*
X159289526Y-108270437D01*
X159289526Y-108270432D01*
X159288464Y-108263724D01*
X164832500Y-108263724D01*
X164832500Y-108456275D01*
X164870064Y-108645126D01*
X164870066Y-108645134D01*
X164943750Y-108823020D01*
X164943751Y-108823022D01*
X165050725Y-108983119D01*
X165050726Y-108983120D01*
X165186880Y-109119274D01*
X165346980Y-109226250D01*
X165426299Y-109259105D01*
X165524865Y-109299933D01*
X165524869Y-109299934D01*
X165524874Y-109299936D01*
X165713725Y-109337500D01*
X165906275Y-109337500D01*
X166095126Y-109299936D01*
X166095132Y-109299933D01*
X166095134Y-109299933D01*
X166143992Y-109279694D01*
X166273020Y-109226250D01*
X166433120Y-109119274D01*
X166569274Y-108983120D01*
X166676250Y-108823020D01*
X166749936Y-108645126D01*
X166787500Y-108456275D01*
X166787500Y-108273430D01*
X167250000Y-108273430D01*
X167250000Y-108446569D01*
X167250001Y-108446583D01*
X167277085Y-108617583D01*
X167330590Y-108782254D01*
X167330591Y-108782256D01*
X167409197Y-108936526D01*
X167409201Y-108936533D01*
X167413708Y-108942737D01*
X167867037Y-108489408D01*
X167884075Y-108552993D01*
X167949901Y-108667007D01*
X168042993Y-108760099D01*
X168157007Y-108825925D01*
X168220590Y-108842962D01*
X167767261Y-109296290D01*
X167773471Y-109300801D01*
X167927743Y-109379408D01*
X167927745Y-109379409D01*
X168092417Y-109432914D01*
X168092416Y-109432914D01*
X168263416Y-109459998D01*
X168263430Y-109460000D01*
X168436570Y-109460000D01*
X168436583Y-109459998D01*
X168607583Y-109432914D01*
X168772254Y-109379409D01*
X168772256Y-109379408D01*
X168926525Y-109300803D01*
X168932736Y-109296289D01*
X168479409Y-108842962D01*
X168542993Y-108825925D01*
X168657007Y-108760099D01*
X168750099Y-108667007D01*
X168815925Y-108552993D01*
X168832962Y-108489409D01*
X169286289Y-108942736D01*
X169290803Y-108936525D01*
X169369408Y-108782256D01*
X169369409Y-108782254D01*
X169422914Y-108617583D01*
X169449998Y-108446583D01*
X169450000Y-108446569D01*
X169450000Y-108273430D01*
X169449998Y-108273416D01*
X169422914Y-108102416D01*
X169369409Y-107937745D01*
X169369408Y-107937743D01*
X169290801Y-107783471D01*
X169286289Y-107777261D01*
X168832962Y-108230589D01*
X168815925Y-108167007D01*
X168750099Y-108052993D01*
X168657007Y-107959901D01*
X168542993Y-107894075D01*
X168479407Y-107877037D01*
X168932737Y-107423708D01*
X168926533Y-107419201D01*
X168926526Y-107419197D01*
X168772256Y-107340591D01*
X168772254Y-107340590D01*
X168607582Y-107287085D01*
X168607583Y-107287085D01*
X168436583Y-107260001D01*
X168436570Y-107260000D01*
X168263430Y-107260000D01*
X168263416Y-107260001D01*
X168092416Y-107287085D01*
X167927745Y-107340590D01*
X167927743Y-107340591D01*
X167773472Y-107419197D01*
X167767261Y-107423708D01*
X168220590Y-107877037D01*
X168157007Y-107894075D01*
X168042993Y-107959901D01*
X167949901Y-108052993D01*
X167884075Y-108167007D01*
X167867037Y-108230590D01*
X167413708Y-107777261D01*
X167409197Y-107783472D01*
X167330591Y-107937743D01*
X167330590Y-107937745D01*
X167277085Y-108102416D01*
X167250001Y-108273416D01*
X167250000Y-108273430D01*
X166787500Y-108273430D01*
X166787500Y-108263725D01*
X166749936Y-108074874D01*
X166749934Y-108074869D01*
X166749933Y-108074865D01*
X166693135Y-107937745D01*
X166676250Y-107896980D01*
X166569274Y-107736880D01*
X166433120Y-107600726D01*
X166273020Y-107493750D01*
X166273018Y-107493749D01*
X166095134Y-107420066D01*
X166095126Y-107420064D01*
X165906275Y-107382500D01*
X165713725Y-107382500D01*
X165524873Y-107420064D01*
X165524865Y-107420066D01*
X165346979Y-107493750D01*
X165346977Y-107493751D01*
X165186880Y-107600725D01*
X165050725Y-107736880D01*
X164943751Y-107896977D01*
X164943750Y-107896979D01*
X164870066Y-108074865D01*
X164870064Y-108074873D01*
X164832500Y-108263724D01*
X159288464Y-108263724D01*
X159262914Y-108102418D01*
X159262914Y-108102417D01*
X159209409Y-107937745D01*
X159209408Y-107937743D01*
X159130801Y-107783471D01*
X159126289Y-107777261D01*
X158672962Y-108230589D01*
X158655925Y-108167007D01*
X158590099Y-108052993D01*
X158497007Y-107959901D01*
X158382993Y-107894075D01*
X158319407Y-107877037D01*
X158772737Y-107423708D01*
X158766533Y-107419201D01*
X158766526Y-107419197D01*
X158612256Y-107340591D01*
X158612254Y-107340590D01*
X158447582Y-107287085D01*
X158447583Y-107287085D01*
X158276583Y-107260001D01*
X158276570Y-107260000D01*
X158103430Y-107260000D01*
X158103416Y-107260001D01*
X157932416Y-107287085D01*
X157767745Y-107340590D01*
X157767743Y-107340591D01*
X157613472Y-107419197D01*
X157607261Y-107423708D01*
X158060590Y-107877037D01*
X157997007Y-107894075D01*
X157882993Y-107959901D01*
X157789901Y-108052993D01*
X157724075Y-108167007D01*
X157707037Y-108230590D01*
X157253708Y-107777261D01*
X157249197Y-107783472D01*
X157170591Y-107937743D01*
X157170590Y-107937745D01*
X157117085Y-108102416D01*
X157090001Y-108273416D01*
X157090000Y-108273430D01*
X156627500Y-108273430D01*
X156627500Y-108263725D01*
X156589936Y-108074874D01*
X156589934Y-108074869D01*
X156589933Y-108074865D01*
X156533135Y-107937745D01*
X156516250Y-107896980D01*
X156409274Y-107736880D01*
X156273120Y-107600726D01*
X156113020Y-107493750D01*
X156113018Y-107493749D01*
X155935134Y-107420066D01*
X155935126Y-107420064D01*
X155746275Y-107382500D01*
X155553725Y-107382500D01*
X155364873Y-107420064D01*
X155364865Y-107420066D01*
X155186979Y-107493750D01*
X155186977Y-107493751D01*
X155026880Y-107600725D01*
X154890725Y-107736880D01*
X154783751Y-107896977D01*
X154783750Y-107896979D01*
X154710066Y-108074865D01*
X154710064Y-108074873D01*
X154672500Y-108263724D01*
X152031500Y-108263724D01*
X152031500Y-105723724D01*
X154672500Y-105723724D01*
X154672500Y-105916275D01*
X154710064Y-106105126D01*
X154710066Y-106105134D01*
X154783750Y-106283020D01*
X154783751Y-106283022D01*
X154890725Y-106443119D01*
X154890726Y-106443120D01*
X155026880Y-106579274D01*
X155186980Y-106686250D01*
X155266299Y-106719105D01*
X155364865Y-106759933D01*
X155364869Y-106759934D01*
X155364874Y-106759936D01*
X155553725Y-106797500D01*
X155746275Y-106797500D01*
X155935126Y-106759936D01*
X155935132Y-106759933D01*
X155935134Y-106759933D01*
X155983992Y-106739694D01*
X156113020Y-106686250D01*
X156273120Y-106579274D01*
X156409274Y-106443120D01*
X156516250Y-106283020D01*
X156589936Y-106105126D01*
X156627500Y-105916275D01*
X156627500Y-105733430D01*
X157090000Y-105733430D01*
X157090000Y-105906569D01*
X157090001Y-105906583D01*
X157117085Y-106077583D01*
X157170590Y-106242254D01*
X157170591Y-106242256D01*
X157249197Y-106396526D01*
X157249201Y-106396533D01*
X157253708Y-106402737D01*
X157707037Y-105949408D01*
X157724075Y-106012993D01*
X157789901Y-106127007D01*
X157882993Y-106220099D01*
X157997007Y-106285925D01*
X158060590Y-106302962D01*
X157607261Y-106756290D01*
X157613471Y-106760801D01*
X157767743Y-106839408D01*
X157767745Y-106839409D01*
X157932417Y-106892914D01*
X157932416Y-106892914D01*
X158103416Y-106919998D01*
X158103430Y-106920000D01*
X158276570Y-106920000D01*
X158276583Y-106919998D01*
X158447583Y-106892914D01*
X158612254Y-106839409D01*
X158612256Y-106839408D01*
X158766525Y-106760803D01*
X158772736Y-106756289D01*
X158319409Y-106302962D01*
X158382993Y-106285925D01*
X158497007Y-106220099D01*
X158590099Y-106127007D01*
X158655925Y-106012993D01*
X158672962Y-105949409D01*
X159126289Y-106402736D01*
X159130803Y-106396525D01*
X159209408Y-106242256D01*
X159209409Y-106242254D01*
X159262914Y-106077583D01*
X159289998Y-105906583D01*
X159290000Y-105906569D01*
X159290000Y-105733430D01*
X159289999Y-105733426D01*
X159289526Y-105730437D01*
X159289526Y-105730432D01*
X159288464Y-105723724D01*
X164832500Y-105723724D01*
X164832500Y-105916275D01*
X164870064Y-106105126D01*
X164870066Y-106105134D01*
X164943750Y-106283020D01*
X164943751Y-106283022D01*
X165050725Y-106443119D01*
X165050726Y-106443120D01*
X165186880Y-106579274D01*
X165346980Y-106686250D01*
X165426299Y-106719105D01*
X165524865Y-106759933D01*
X165524869Y-106759934D01*
X165524874Y-106759936D01*
X165713725Y-106797500D01*
X165906275Y-106797500D01*
X166095126Y-106759936D01*
X166095132Y-106759933D01*
X166095134Y-106759933D01*
X166143992Y-106739694D01*
X166273020Y-106686250D01*
X166433120Y-106579274D01*
X166569274Y-106443120D01*
X166676250Y-106283020D01*
X166749936Y-106105126D01*
X166787500Y-105916275D01*
X166787500Y-105733430D01*
X167250000Y-105733430D01*
X167250000Y-105906569D01*
X167250001Y-105906583D01*
X167277085Y-106077583D01*
X167330590Y-106242254D01*
X167330591Y-106242256D01*
X167409197Y-106396526D01*
X167409201Y-106396533D01*
X167413708Y-106402737D01*
X167867037Y-105949408D01*
X167884075Y-106012993D01*
X167949901Y-106127007D01*
X168042993Y-106220099D01*
X168157007Y-106285925D01*
X168220590Y-106302962D01*
X167767261Y-106756290D01*
X167773471Y-106760801D01*
X167927743Y-106839408D01*
X167927745Y-106839409D01*
X168092417Y-106892914D01*
X168092416Y-106892914D01*
X168263416Y-106919998D01*
X168263430Y-106920000D01*
X168436570Y-106920000D01*
X168436583Y-106919998D01*
X168607583Y-106892914D01*
X168772254Y-106839409D01*
X168772256Y-106839408D01*
X168926525Y-106760803D01*
X168932736Y-106756289D01*
X168479409Y-106302962D01*
X168542993Y-106285925D01*
X168657007Y-106220099D01*
X168750099Y-106127007D01*
X168815925Y-106012993D01*
X168832962Y-105949409D01*
X169286289Y-106402736D01*
X169290803Y-106396525D01*
X169369408Y-106242256D01*
X169369409Y-106242254D01*
X169422914Y-106077583D01*
X169449998Y-105906583D01*
X169450000Y-105906569D01*
X169450000Y-105733430D01*
X169449998Y-105733416D01*
X169422914Y-105562416D01*
X169369409Y-105397745D01*
X169369408Y-105397743D01*
X169290801Y-105243471D01*
X169286289Y-105237261D01*
X168832962Y-105690589D01*
X168815925Y-105627007D01*
X168750099Y-105512993D01*
X168657007Y-105419901D01*
X168542993Y-105354075D01*
X168479407Y-105337037D01*
X168932737Y-104883708D01*
X168926533Y-104879201D01*
X168926526Y-104879197D01*
X168772256Y-104800591D01*
X168772254Y-104800590D01*
X168607582Y-104747085D01*
X168607583Y-104747085D01*
X168436583Y-104720001D01*
X168436570Y-104720000D01*
X168263430Y-104720000D01*
X168263416Y-104720001D01*
X168092416Y-104747085D01*
X167927745Y-104800590D01*
X167927743Y-104800591D01*
X167773472Y-104879197D01*
X167767261Y-104883708D01*
X168220590Y-105337037D01*
X168157007Y-105354075D01*
X168042993Y-105419901D01*
X167949901Y-105512993D01*
X167884075Y-105627007D01*
X167867037Y-105690590D01*
X167413708Y-105237261D01*
X167409197Y-105243472D01*
X167330591Y-105397743D01*
X167330590Y-105397745D01*
X167277085Y-105562416D01*
X167250001Y-105733416D01*
X167250000Y-105733430D01*
X166787500Y-105733430D01*
X166787500Y-105723725D01*
X166749936Y-105534874D01*
X166749934Y-105534869D01*
X166749933Y-105534865D01*
X166693135Y-105397745D01*
X166676250Y-105356980D01*
X166569274Y-105196880D01*
X166433120Y-105060726D01*
X166273020Y-104953750D01*
X166273018Y-104953749D01*
X166095134Y-104880066D01*
X166095126Y-104880064D01*
X165906275Y-104842500D01*
X165713725Y-104842500D01*
X165524873Y-104880064D01*
X165524865Y-104880066D01*
X165346979Y-104953750D01*
X165346977Y-104953751D01*
X165186880Y-105060725D01*
X165050725Y-105196880D01*
X164943751Y-105356977D01*
X164943750Y-105356979D01*
X164870066Y-105534865D01*
X164870064Y-105534873D01*
X164832500Y-105723724D01*
X159288464Y-105723724D01*
X159262914Y-105562418D01*
X159262914Y-105562417D01*
X159209409Y-105397745D01*
X159209408Y-105397743D01*
X159130801Y-105243471D01*
X159126289Y-105237261D01*
X158672962Y-105690589D01*
X158655925Y-105627007D01*
X158590099Y-105512993D01*
X158497007Y-105419901D01*
X158382993Y-105354075D01*
X158319407Y-105337037D01*
X158772737Y-104883708D01*
X158766533Y-104879201D01*
X158766526Y-104879197D01*
X158612256Y-104800591D01*
X158612254Y-104800590D01*
X158447582Y-104747085D01*
X158447583Y-104747085D01*
X158276583Y-104720001D01*
X158276570Y-104720000D01*
X158103430Y-104720000D01*
X158103416Y-104720001D01*
X157932416Y-104747085D01*
X157767745Y-104800590D01*
X157767743Y-104800591D01*
X157613472Y-104879197D01*
X157607261Y-104883708D01*
X158060590Y-105337037D01*
X157997007Y-105354075D01*
X157882993Y-105419901D01*
X157789901Y-105512993D01*
X157724075Y-105627007D01*
X157707037Y-105690590D01*
X157253708Y-105237261D01*
X157249197Y-105243472D01*
X157170591Y-105397743D01*
X157170590Y-105397745D01*
X157117085Y-105562416D01*
X157090001Y-105733416D01*
X157090000Y-105733430D01*
X156627500Y-105733430D01*
X156627500Y-105723725D01*
X156589936Y-105534874D01*
X156589934Y-105534869D01*
X156589933Y-105534865D01*
X156533135Y-105397745D01*
X156516250Y-105356980D01*
X156409274Y-105196880D01*
X156273120Y-105060726D01*
X156113020Y-104953750D01*
X156113018Y-104953749D01*
X155935134Y-104880066D01*
X155935126Y-104880064D01*
X155746275Y-104842500D01*
X155553725Y-104842500D01*
X155364873Y-104880064D01*
X155364865Y-104880066D01*
X155186979Y-104953750D01*
X155186977Y-104953751D01*
X155026880Y-105060725D01*
X154890725Y-105196880D01*
X154783751Y-105356977D01*
X154783750Y-105356979D01*
X154710066Y-105534865D01*
X154710064Y-105534873D01*
X154672500Y-105723724D01*
X152031500Y-105723724D01*
X152031500Y-103183724D01*
X154672500Y-103183724D01*
X154672500Y-103376275D01*
X154710064Y-103565126D01*
X154710066Y-103565134D01*
X154783750Y-103743020D01*
X154783751Y-103743022D01*
X154890725Y-103903119D01*
X154890726Y-103903120D01*
X155026880Y-104039274D01*
X155186980Y-104146250D01*
X155266299Y-104179105D01*
X155364865Y-104219933D01*
X155364869Y-104219934D01*
X155364874Y-104219936D01*
X155553725Y-104257500D01*
X155746275Y-104257500D01*
X155935126Y-104219936D01*
X155935132Y-104219933D01*
X155935134Y-104219933D01*
X155983992Y-104199694D01*
X156113020Y-104146250D01*
X156273120Y-104039274D01*
X156409274Y-103903120D01*
X156516250Y-103743020D01*
X156589936Y-103565126D01*
X156627500Y-103376275D01*
X156627500Y-103193430D01*
X157090000Y-103193430D01*
X157090000Y-103366569D01*
X157090001Y-103366583D01*
X157117085Y-103537583D01*
X157170590Y-103702254D01*
X157170591Y-103702256D01*
X157249197Y-103856526D01*
X157249201Y-103856533D01*
X157253708Y-103862737D01*
X157707037Y-103409408D01*
X157724075Y-103472993D01*
X157789901Y-103587007D01*
X157882993Y-103680099D01*
X157997007Y-103745925D01*
X158060590Y-103762962D01*
X157607261Y-104216290D01*
X157613471Y-104220801D01*
X157767743Y-104299408D01*
X157767745Y-104299409D01*
X157932417Y-104352914D01*
X157932416Y-104352914D01*
X158103416Y-104379998D01*
X158103430Y-104380000D01*
X158276570Y-104380000D01*
X158276583Y-104379998D01*
X158447583Y-104352914D01*
X158612254Y-104299409D01*
X158612256Y-104299408D01*
X158766525Y-104220803D01*
X158772736Y-104216289D01*
X158319409Y-103762962D01*
X158382993Y-103745925D01*
X158497007Y-103680099D01*
X158590099Y-103587007D01*
X158655925Y-103472993D01*
X158672962Y-103409409D01*
X159126289Y-103862736D01*
X159130803Y-103856525D01*
X159209408Y-103702256D01*
X159209409Y-103702254D01*
X159262914Y-103537583D01*
X159289998Y-103366583D01*
X159290000Y-103366569D01*
X159290000Y-103193430D01*
X159289999Y-103193426D01*
X159289526Y-103190437D01*
X159289526Y-103190432D01*
X159288464Y-103183724D01*
X164832500Y-103183724D01*
X164832500Y-103376275D01*
X164870064Y-103565126D01*
X164870066Y-103565134D01*
X164943750Y-103743020D01*
X164943751Y-103743022D01*
X165050725Y-103903119D01*
X165050726Y-103903120D01*
X165186880Y-104039274D01*
X165346980Y-104146250D01*
X165426299Y-104179105D01*
X165524865Y-104219933D01*
X165524869Y-104219934D01*
X165524874Y-104219936D01*
X165713725Y-104257500D01*
X165906275Y-104257500D01*
X166095126Y-104219936D01*
X166095132Y-104219933D01*
X166095134Y-104219933D01*
X166143992Y-104199694D01*
X166273020Y-104146250D01*
X166433120Y-104039274D01*
X166569274Y-103903120D01*
X166676250Y-103743020D01*
X166749936Y-103565126D01*
X166787500Y-103376275D01*
X166787500Y-103193430D01*
X167250000Y-103193430D01*
X167250000Y-103366569D01*
X167250001Y-103366583D01*
X167277085Y-103537583D01*
X167330590Y-103702254D01*
X167330591Y-103702256D01*
X167409197Y-103856526D01*
X167409201Y-103856533D01*
X167413708Y-103862737D01*
X167867037Y-103409408D01*
X167884075Y-103472993D01*
X167949901Y-103587007D01*
X168042993Y-103680099D01*
X168157007Y-103745925D01*
X168220590Y-103762962D01*
X167767261Y-104216290D01*
X167773471Y-104220801D01*
X167927743Y-104299408D01*
X167927745Y-104299409D01*
X168092417Y-104352914D01*
X168092416Y-104352914D01*
X168263416Y-104379998D01*
X168263430Y-104380000D01*
X168436570Y-104380000D01*
X168436583Y-104379998D01*
X168607583Y-104352914D01*
X168772254Y-104299409D01*
X168772256Y-104299408D01*
X168926525Y-104220803D01*
X168932736Y-104216289D01*
X168479409Y-103762962D01*
X168542993Y-103745925D01*
X168657007Y-103680099D01*
X168750099Y-103587007D01*
X168815925Y-103472993D01*
X168832962Y-103409409D01*
X169286289Y-103862736D01*
X169290803Y-103856525D01*
X169369408Y-103702256D01*
X169369409Y-103702254D01*
X169422914Y-103537583D01*
X169449998Y-103366583D01*
X169450000Y-103366569D01*
X169450000Y-103193430D01*
X169449998Y-103193416D01*
X169422914Y-103022416D01*
X169369409Y-102857745D01*
X169369408Y-102857743D01*
X169290801Y-102703471D01*
X169286289Y-102697261D01*
X168832962Y-103150589D01*
X168815925Y-103087007D01*
X168750099Y-102972993D01*
X168657007Y-102879901D01*
X168542993Y-102814075D01*
X168479407Y-102797037D01*
X168932737Y-102343708D01*
X168926533Y-102339201D01*
X168926526Y-102339197D01*
X168772256Y-102260591D01*
X168772254Y-102260590D01*
X168607582Y-102207085D01*
X168607583Y-102207085D01*
X168436583Y-102180001D01*
X168436570Y-102180000D01*
X168263430Y-102180000D01*
X168263416Y-102180001D01*
X168092416Y-102207085D01*
X167927745Y-102260590D01*
X167927743Y-102260591D01*
X167773472Y-102339197D01*
X167767261Y-102343708D01*
X168220590Y-102797037D01*
X168157007Y-102814075D01*
X168042993Y-102879901D01*
X167949901Y-102972993D01*
X167884075Y-103087007D01*
X167867037Y-103150590D01*
X167413708Y-102697261D01*
X167409197Y-102703472D01*
X167330591Y-102857743D01*
X167330590Y-102857745D01*
X167277085Y-103022416D01*
X167250001Y-103193416D01*
X167250000Y-103193430D01*
X166787500Y-103193430D01*
X166787500Y-103183725D01*
X166749936Y-102994874D01*
X166749934Y-102994869D01*
X166749933Y-102994865D01*
X166693135Y-102857745D01*
X166676250Y-102816980D01*
X166569274Y-102656880D01*
X166433120Y-102520726D01*
X166273020Y-102413750D01*
X166273018Y-102413749D01*
X166095134Y-102340066D01*
X166095126Y-102340064D01*
X165906275Y-102302500D01*
X165713725Y-102302500D01*
X165524873Y-102340064D01*
X165524865Y-102340066D01*
X165346979Y-102413750D01*
X165346977Y-102413751D01*
X165186880Y-102520725D01*
X165050725Y-102656880D01*
X164943751Y-102816977D01*
X164943750Y-102816979D01*
X164870066Y-102994865D01*
X164870064Y-102994873D01*
X164832500Y-103183724D01*
X159288464Y-103183724D01*
X159262914Y-103022418D01*
X159262914Y-103022417D01*
X159209409Y-102857745D01*
X159209408Y-102857743D01*
X159130801Y-102703471D01*
X159126289Y-102697261D01*
X158672962Y-103150589D01*
X158655925Y-103087007D01*
X158590099Y-102972993D01*
X158497007Y-102879901D01*
X158382993Y-102814075D01*
X158319407Y-102797037D01*
X158772737Y-102343708D01*
X158766533Y-102339201D01*
X158766526Y-102339197D01*
X158612256Y-102260591D01*
X158612254Y-102260590D01*
X158447582Y-102207085D01*
X158447583Y-102207085D01*
X158276583Y-102180001D01*
X158276570Y-102180000D01*
X158103430Y-102180000D01*
X158103416Y-102180001D01*
X157932416Y-102207085D01*
X157767745Y-102260590D01*
X157767743Y-102260591D01*
X157613472Y-102339197D01*
X157607261Y-102343708D01*
X158060590Y-102797037D01*
X157997007Y-102814075D01*
X157882993Y-102879901D01*
X157789901Y-102972993D01*
X157724075Y-103087007D01*
X157707037Y-103150590D01*
X157253708Y-102697261D01*
X157249197Y-102703472D01*
X157170591Y-102857743D01*
X157170590Y-102857745D01*
X157117085Y-103022416D01*
X157090001Y-103193416D01*
X157090000Y-103193430D01*
X156627500Y-103193430D01*
X156627500Y-103183725D01*
X156589936Y-102994874D01*
X156589934Y-102994869D01*
X156589933Y-102994865D01*
X156533135Y-102857745D01*
X156516250Y-102816980D01*
X156409274Y-102656880D01*
X156273120Y-102520726D01*
X156113020Y-102413750D01*
X156113018Y-102413749D01*
X155935134Y-102340066D01*
X155935126Y-102340064D01*
X155746275Y-102302500D01*
X155553725Y-102302500D01*
X155364873Y-102340064D01*
X155364865Y-102340066D01*
X155186979Y-102413750D01*
X155186977Y-102413751D01*
X155026880Y-102520725D01*
X154890725Y-102656880D01*
X154783751Y-102816977D01*
X154783750Y-102816979D01*
X154710066Y-102994865D01*
X154710064Y-102994873D01*
X154672500Y-103183724D01*
X152031500Y-103183724D01*
X152031500Y-100643724D01*
X154672500Y-100643724D01*
X154672500Y-100836275D01*
X154710064Y-101025126D01*
X154710066Y-101025134D01*
X154783750Y-101203020D01*
X154783751Y-101203022D01*
X154890725Y-101363119D01*
X154890726Y-101363120D01*
X155026880Y-101499274D01*
X155186980Y-101606250D01*
X155266299Y-101639105D01*
X155364865Y-101679933D01*
X155364869Y-101679934D01*
X155364874Y-101679936D01*
X155553725Y-101717500D01*
X155746275Y-101717500D01*
X155935126Y-101679936D01*
X155935132Y-101679933D01*
X155935134Y-101679933D01*
X155983992Y-101659694D01*
X156113020Y-101606250D01*
X156273120Y-101499274D01*
X156409274Y-101363120D01*
X156516250Y-101203020D01*
X156589936Y-101025126D01*
X156627500Y-100836275D01*
X156627500Y-100653430D01*
X157090000Y-100653430D01*
X157090000Y-100826569D01*
X157090001Y-100826583D01*
X157117085Y-100997583D01*
X157170590Y-101162254D01*
X157170591Y-101162256D01*
X157249197Y-101316526D01*
X157249201Y-101316533D01*
X157253708Y-101322737D01*
X157707037Y-100869408D01*
X157724075Y-100932993D01*
X157789901Y-101047007D01*
X157882993Y-101140099D01*
X157997007Y-101205925D01*
X158060590Y-101222962D01*
X157607261Y-101676290D01*
X157613471Y-101680801D01*
X157767743Y-101759408D01*
X157767745Y-101759409D01*
X157932417Y-101812914D01*
X157932416Y-101812914D01*
X158103416Y-101839998D01*
X158103430Y-101840000D01*
X158276570Y-101840000D01*
X158276583Y-101839998D01*
X158447583Y-101812914D01*
X158612254Y-101759409D01*
X158612256Y-101759408D01*
X158766525Y-101680803D01*
X158772736Y-101676289D01*
X158319409Y-101222962D01*
X158382993Y-101205925D01*
X158497007Y-101140099D01*
X158590099Y-101047007D01*
X158655925Y-100932993D01*
X158672962Y-100869409D01*
X159126289Y-101322736D01*
X159130803Y-101316525D01*
X159209408Y-101162256D01*
X159209409Y-101162254D01*
X159262914Y-100997583D01*
X159289998Y-100826583D01*
X159290000Y-100826569D01*
X159290000Y-100653430D01*
X159289999Y-100653426D01*
X159289526Y-100650437D01*
X159289526Y-100650432D01*
X159288464Y-100643724D01*
X164832500Y-100643724D01*
X164832500Y-100836275D01*
X164870064Y-101025126D01*
X164870066Y-101025134D01*
X164943750Y-101203020D01*
X164943751Y-101203022D01*
X165050725Y-101363119D01*
X165050726Y-101363120D01*
X165186880Y-101499274D01*
X165346980Y-101606250D01*
X165426299Y-101639105D01*
X165524865Y-101679933D01*
X165524869Y-101679934D01*
X165524874Y-101679936D01*
X165713725Y-101717500D01*
X165906275Y-101717500D01*
X166095126Y-101679936D01*
X166095132Y-101679933D01*
X166095134Y-101679933D01*
X166143992Y-101659694D01*
X166273020Y-101606250D01*
X166433120Y-101499274D01*
X166569274Y-101363120D01*
X166676250Y-101203020D01*
X166749936Y-101025126D01*
X166787500Y-100836275D01*
X166787500Y-100653430D01*
X167250000Y-100653430D01*
X167250000Y-100826569D01*
X167250001Y-100826583D01*
X167277085Y-100997583D01*
X167330590Y-101162254D01*
X167330591Y-101162256D01*
X167409197Y-101316526D01*
X167409201Y-101316533D01*
X167413708Y-101322737D01*
X167867037Y-100869408D01*
X167884075Y-100932993D01*
X167949901Y-101047007D01*
X168042993Y-101140099D01*
X168157007Y-101205925D01*
X168220590Y-101222962D01*
X167767261Y-101676290D01*
X167773471Y-101680801D01*
X167927743Y-101759408D01*
X167927745Y-101759409D01*
X168092417Y-101812914D01*
X168092416Y-101812914D01*
X168263416Y-101839998D01*
X168263430Y-101840000D01*
X168436570Y-101840000D01*
X168436583Y-101839998D01*
X168607583Y-101812914D01*
X168772254Y-101759409D01*
X168772256Y-101759408D01*
X168926525Y-101680803D01*
X168932736Y-101676289D01*
X168479409Y-101222962D01*
X168542993Y-101205925D01*
X168657007Y-101140099D01*
X168750099Y-101047007D01*
X168815925Y-100932993D01*
X168832962Y-100869409D01*
X169286289Y-101322736D01*
X169290803Y-101316525D01*
X169369408Y-101162256D01*
X169369409Y-101162254D01*
X169422914Y-100997583D01*
X169449998Y-100826583D01*
X169450000Y-100826569D01*
X169450000Y-100653430D01*
X169449998Y-100653416D01*
X169422914Y-100482416D01*
X169369409Y-100317745D01*
X169369408Y-100317743D01*
X169290801Y-100163471D01*
X169286289Y-100157261D01*
X168832962Y-100610589D01*
X168815925Y-100547007D01*
X168750099Y-100432993D01*
X168657007Y-100339901D01*
X168542993Y-100274075D01*
X168479407Y-100257037D01*
X168932737Y-99803708D01*
X168926533Y-99799201D01*
X168926526Y-99799197D01*
X168772256Y-99720591D01*
X168772254Y-99720590D01*
X168607582Y-99667085D01*
X168607583Y-99667085D01*
X168436583Y-99640001D01*
X168436570Y-99640000D01*
X168263430Y-99640000D01*
X168263416Y-99640001D01*
X168092416Y-99667085D01*
X167927745Y-99720590D01*
X167927743Y-99720591D01*
X167773472Y-99799197D01*
X167767261Y-99803708D01*
X168220590Y-100257037D01*
X168157007Y-100274075D01*
X168042993Y-100339901D01*
X167949901Y-100432993D01*
X167884075Y-100547007D01*
X167867037Y-100610590D01*
X167413708Y-100157261D01*
X167409197Y-100163472D01*
X167330591Y-100317743D01*
X167330590Y-100317745D01*
X167277085Y-100482416D01*
X167250001Y-100653416D01*
X167250000Y-100653430D01*
X166787500Y-100653430D01*
X166787500Y-100643725D01*
X166749936Y-100454874D01*
X166749934Y-100454869D01*
X166749933Y-100454865D01*
X166693135Y-100317745D01*
X166676250Y-100276980D01*
X166569274Y-100116880D01*
X166433120Y-99980726D01*
X166273020Y-99873750D01*
X166273018Y-99873749D01*
X166095134Y-99800066D01*
X166095126Y-99800064D01*
X165906275Y-99762500D01*
X165713725Y-99762500D01*
X165524873Y-99800064D01*
X165524865Y-99800066D01*
X165346979Y-99873750D01*
X165346977Y-99873751D01*
X165186880Y-99980725D01*
X165050725Y-100116880D01*
X164943751Y-100276977D01*
X164943750Y-100276979D01*
X164870066Y-100454865D01*
X164870064Y-100454873D01*
X164832500Y-100643724D01*
X159288464Y-100643724D01*
X159262914Y-100482418D01*
X159262914Y-100482417D01*
X159209409Y-100317745D01*
X159209408Y-100317743D01*
X159130801Y-100163471D01*
X159126289Y-100157261D01*
X158672962Y-100610589D01*
X158655925Y-100547007D01*
X158590099Y-100432993D01*
X158497007Y-100339901D01*
X158382993Y-100274075D01*
X158319407Y-100257037D01*
X158772737Y-99803708D01*
X158766533Y-99799201D01*
X158766526Y-99799197D01*
X158612256Y-99720591D01*
X158612254Y-99720590D01*
X158447582Y-99667085D01*
X158447583Y-99667085D01*
X158276583Y-99640001D01*
X158276570Y-99640000D01*
X158103430Y-99640000D01*
X158103416Y-99640001D01*
X157932416Y-99667085D01*
X157767745Y-99720590D01*
X157767743Y-99720591D01*
X157613472Y-99799197D01*
X157607261Y-99803708D01*
X158060590Y-100257037D01*
X157997007Y-100274075D01*
X157882993Y-100339901D01*
X157789901Y-100432993D01*
X157724075Y-100547007D01*
X157707037Y-100610590D01*
X157253708Y-100157261D01*
X157249197Y-100163472D01*
X157170591Y-100317743D01*
X157170590Y-100317745D01*
X157117085Y-100482416D01*
X157090001Y-100653416D01*
X157090000Y-100653430D01*
X156627500Y-100653430D01*
X156627500Y-100643725D01*
X156589936Y-100454874D01*
X156589934Y-100454869D01*
X156589933Y-100454865D01*
X156533135Y-100317745D01*
X156516250Y-100276980D01*
X156409274Y-100116880D01*
X156273120Y-99980726D01*
X156113020Y-99873750D01*
X156113018Y-99873749D01*
X155935134Y-99800066D01*
X155935126Y-99800064D01*
X155746275Y-99762500D01*
X155553725Y-99762500D01*
X155364873Y-99800064D01*
X155364865Y-99800066D01*
X155186979Y-99873750D01*
X155186977Y-99873751D01*
X155026880Y-99980725D01*
X154890725Y-100116880D01*
X154783751Y-100276977D01*
X154783750Y-100276979D01*
X154710066Y-100454865D01*
X154710064Y-100454873D01*
X154672500Y-100643724D01*
X152031500Y-100643724D01*
X152031500Y-98103724D01*
X154672500Y-98103724D01*
X154672500Y-98296275D01*
X154710064Y-98485126D01*
X154710066Y-98485134D01*
X154783750Y-98663020D01*
X154783751Y-98663022D01*
X154890725Y-98823119D01*
X154890726Y-98823120D01*
X155026880Y-98959274D01*
X155186980Y-99066250D01*
X155266299Y-99099105D01*
X155364865Y-99139933D01*
X155364869Y-99139934D01*
X155364874Y-99139936D01*
X155553725Y-99177500D01*
X155746275Y-99177500D01*
X155935126Y-99139936D01*
X155935132Y-99139933D01*
X155935134Y-99139933D01*
X155983992Y-99119694D01*
X156113020Y-99066250D01*
X156273120Y-98959274D01*
X156409274Y-98823120D01*
X156516250Y-98663020D01*
X156589936Y-98485126D01*
X156627500Y-98296275D01*
X156627500Y-98113430D01*
X157090000Y-98113430D01*
X157090000Y-98286569D01*
X157090001Y-98286583D01*
X157117085Y-98457583D01*
X157170590Y-98622254D01*
X157170591Y-98622256D01*
X157249197Y-98776526D01*
X157249201Y-98776533D01*
X157253708Y-98782737D01*
X157707037Y-98329408D01*
X157724075Y-98392993D01*
X157789901Y-98507007D01*
X157882993Y-98600099D01*
X157997007Y-98665925D01*
X158060590Y-98682962D01*
X157607261Y-99136290D01*
X157613471Y-99140801D01*
X157767743Y-99219408D01*
X157767745Y-99219409D01*
X157932417Y-99272914D01*
X157932416Y-99272914D01*
X158103416Y-99299998D01*
X158103430Y-99300000D01*
X158276570Y-99300000D01*
X158276583Y-99299998D01*
X158447583Y-99272914D01*
X158612254Y-99219409D01*
X158612256Y-99219408D01*
X158766525Y-99140803D01*
X158772736Y-99136289D01*
X158319409Y-98682962D01*
X158382993Y-98665925D01*
X158497007Y-98600099D01*
X158590099Y-98507007D01*
X158655925Y-98392993D01*
X158672962Y-98329409D01*
X159126289Y-98782736D01*
X159130803Y-98776525D01*
X159209408Y-98622256D01*
X159209409Y-98622254D01*
X159262914Y-98457583D01*
X159289998Y-98286583D01*
X159290000Y-98286569D01*
X159290000Y-98113430D01*
X159289999Y-98113426D01*
X159289526Y-98110437D01*
X159289526Y-98110432D01*
X159288464Y-98103724D01*
X164832500Y-98103724D01*
X164832500Y-98296275D01*
X164870064Y-98485126D01*
X164870066Y-98485134D01*
X164943750Y-98663020D01*
X164943751Y-98663022D01*
X165050725Y-98823119D01*
X165050726Y-98823120D01*
X165186880Y-98959274D01*
X165346980Y-99066250D01*
X165426299Y-99099105D01*
X165524865Y-99139933D01*
X165524869Y-99139934D01*
X165524874Y-99139936D01*
X165713725Y-99177500D01*
X165906275Y-99177500D01*
X166095126Y-99139936D01*
X166095132Y-99139933D01*
X166095134Y-99139933D01*
X166143992Y-99119694D01*
X166273020Y-99066250D01*
X166433120Y-98959274D01*
X166569274Y-98823120D01*
X166676250Y-98663020D01*
X166749936Y-98485126D01*
X166787500Y-98296275D01*
X166787500Y-98113430D01*
X167250000Y-98113430D01*
X167250000Y-98286569D01*
X167250001Y-98286583D01*
X167277085Y-98457583D01*
X167330590Y-98622254D01*
X167330591Y-98622256D01*
X167409197Y-98776526D01*
X167409201Y-98776533D01*
X167413708Y-98782737D01*
X167867037Y-98329408D01*
X167884075Y-98392993D01*
X167949901Y-98507007D01*
X168042993Y-98600099D01*
X168157007Y-98665925D01*
X168220590Y-98682962D01*
X167767261Y-99136290D01*
X167773471Y-99140801D01*
X167927743Y-99219408D01*
X167927745Y-99219409D01*
X168092417Y-99272914D01*
X168092416Y-99272914D01*
X168263416Y-99299998D01*
X168263430Y-99300000D01*
X168436570Y-99300000D01*
X168436583Y-99299998D01*
X168607583Y-99272914D01*
X168772254Y-99219409D01*
X168772256Y-99219408D01*
X168926525Y-99140803D01*
X168932736Y-99136289D01*
X168479409Y-98682962D01*
X168542993Y-98665925D01*
X168657007Y-98600099D01*
X168750099Y-98507007D01*
X168815925Y-98392993D01*
X168832962Y-98329409D01*
X169286289Y-98782736D01*
X169290803Y-98776525D01*
X169369408Y-98622256D01*
X169369409Y-98622254D01*
X169422914Y-98457583D01*
X169449998Y-98286583D01*
X169450000Y-98286569D01*
X169450000Y-98113430D01*
X169449998Y-98113416D01*
X169422914Y-97942416D01*
X169369409Y-97777745D01*
X169369408Y-97777743D01*
X169290801Y-97623471D01*
X169286289Y-97617261D01*
X168832962Y-98070589D01*
X168815925Y-98007007D01*
X168750099Y-97892993D01*
X168657007Y-97799901D01*
X168542993Y-97734075D01*
X168479407Y-97717037D01*
X168932737Y-97263708D01*
X168926533Y-97259201D01*
X168926526Y-97259197D01*
X168772256Y-97180591D01*
X168772254Y-97180590D01*
X168607582Y-97127085D01*
X168607583Y-97127085D01*
X168436583Y-97100001D01*
X168436570Y-97100000D01*
X168263430Y-97100000D01*
X168263416Y-97100001D01*
X168092416Y-97127085D01*
X167927745Y-97180590D01*
X167927743Y-97180591D01*
X167773472Y-97259197D01*
X167767261Y-97263708D01*
X168220590Y-97717037D01*
X168157007Y-97734075D01*
X168042993Y-97799901D01*
X167949901Y-97892993D01*
X167884075Y-98007007D01*
X167867037Y-98070590D01*
X167413708Y-97617261D01*
X167409197Y-97623472D01*
X167330591Y-97777743D01*
X167330590Y-97777745D01*
X167277085Y-97942416D01*
X167250001Y-98113416D01*
X167250000Y-98113430D01*
X166787500Y-98113430D01*
X166787500Y-98103725D01*
X166749936Y-97914874D01*
X166749934Y-97914869D01*
X166749933Y-97914865D01*
X166693135Y-97777745D01*
X166676250Y-97736980D01*
X166569274Y-97576880D01*
X166433120Y-97440726D01*
X166273020Y-97333750D01*
X166273018Y-97333749D01*
X166095134Y-97260066D01*
X166095126Y-97260064D01*
X165906275Y-97222500D01*
X165713725Y-97222500D01*
X165524873Y-97260064D01*
X165524865Y-97260066D01*
X165346979Y-97333750D01*
X165346977Y-97333751D01*
X165186880Y-97440725D01*
X165050725Y-97576880D01*
X164943751Y-97736977D01*
X164943750Y-97736979D01*
X164870066Y-97914865D01*
X164870064Y-97914873D01*
X164832500Y-98103724D01*
X159288464Y-98103724D01*
X159262914Y-97942418D01*
X159262914Y-97942417D01*
X159209409Y-97777745D01*
X159209408Y-97777743D01*
X159130801Y-97623471D01*
X159126289Y-97617261D01*
X158672962Y-98070589D01*
X158655925Y-98007007D01*
X158590099Y-97892993D01*
X158497007Y-97799901D01*
X158382993Y-97734075D01*
X158319407Y-97717037D01*
X158772737Y-97263708D01*
X158766533Y-97259201D01*
X158766526Y-97259197D01*
X158612256Y-97180591D01*
X158612254Y-97180590D01*
X158447582Y-97127085D01*
X158447583Y-97127085D01*
X158276583Y-97100001D01*
X158276570Y-97100000D01*
X158103430Y-97100000D01*
X158103416Y-97100001D01*
X157932416Y-97127085D01*
X157767745Y-97180590D01*
X157767743Y-97180591D01*
X157613472Y-97259197D01*
X157607261Y-97263708D01*
X158060590Y-97717037D01*
X157997007Y-97734075D01*
X157882993Y-97799901D01*
X157789901Y-97892993D01*
X157724075Y-98007007D01*
X157707037Y-98070590D01*
X157253708Y-97617261D01*
X157249197Y-97623472D01*
X157170591Y-97777743D01*
X157170590Y-97777745D01*
X157117085Y-97942416D01*
X157090001Y-98113416D01*
X157090000Y-98113430D01*
X156627500Y-98113430D01*
X156627500Y-98103725D01*
X156589936Y-97914874D01*
X156589934Y-97914869D01*
X156589933Y-97914865D01*
X156533135Y-97777745D01*
X156516250Y-97736980D01*
X156409274Y-97576880D01*
X156273120Y-97440726D01*
X156113020Y-97333750D01*
X156113018Y-97333749D01*
X155935134Y-97260066D01*
X155935126Y-97260064D01*
X155746275Y-97222500D01*
X155553725Y-97222500D01*
X155364873Y-97260064D01*
X155364865Y-97260066D01*
X155186979Y-97333750D01*
X155186977Y-97333751D01*
X155026880Y-97440725D01*
X154890725Y-97576880D01*
X154783751Y-97736977D01*
X154783750Y-97736979D01*
X154710066Y-97914865D01*
X154710064Y-97914873D01*
X154672500Y-98103724D01*
X152031500Y-98103724D01*
X152031500Y-95563724D01*
X154672500Y-95563724D01*
X154672500Y-95756275D01*
X154710064Y-95945126D01*
X154710066Y-95945134D01*
X154783750Y-96123020D01*
X154783751Y-96123022D01*
X154890725Y-96283119D01*
X154890726Y-96283120D01*
X155026880Y-96419274D01*
X155186980Y-96526250D01*
X155266299Y-96559105D01*
X155364865Y-96599933D01*
X155364869Y-96599934D01*
X155364874Y-96599936D01*
X155553725Y-96637500D01*
X155746275Y-96637500D01*
X155935126Y-96599936D01*
X155935132Y-96599933D01*
X155935134Y-96599933D01*
X155983992Y-96579694D01*
X156113020Y-96526250D01*
X156273120Y-96419274D01*
X156409274Y-96283120D01*
X156516250Y-96123020D01*
X156589936Y-95945126D01*
X156627500Y-95756275D01*
X156627500Y-95573430D01*
X157090000Y-95573430D01*
X157090000Y-95746569D01*
X157090001Y-95746583D01*
X157117085Y-95917583D01*
X157170590Y-96082254D01*
X157170591Y-96082256D01*
X157249197Y-96236526D01*
X157249201Y-96236533D01*
X157253708Y-96242737D01*
X157707037Y-95789408D01*
X157724075Y-95852993D01*
X157789901Y-95967007D01*
X157882993Y-96060099D01*
X157997007Y-96125925D01*
X158060590Y-96142962D01*
X157607261Y-96596290D01*
X157613471Y-96600801D01*
X157767743Y-96679408D01*
X157767745Y-96679409D01*
X157932417Y-96732914D01*
X157932416Y-96732914D01*
X158103416Y-96759998D01*
X158103430Y-96760000D01*
X158276570Y-96760000D01*
X158276583Y-96759998D01*
X158447583Y-96732914D01*
X158612254Y-96679409D01*
X158612256Y-96679408D01*
X158766525Y-96600803D01*
X158772736Y-96596289D01*
X158319409Y-96142962D01*
X158382993Y-96125925D01*
X158497007Y-96060099D01*
X158590099Y-95967007D01*
X158655925Y-95852993D01*
X158672962Y-95789409D01*
X159126289Y-96242736D01*
X159130803Y-96236525D01*
X159209408Y-96082256D01*
X159209409Y-96082254D01*
X159262914Y-95917583D01*
X159289998Y-95746583D01*
X159290000Y-95746569D01*
X159290000Y-95573430D01*
X159289999Y-95573426D01*
X159289526Y-95570437D01*
X159289526Y-95570432D01*
X159288464Y-95563724D01*
X164832500Y-95563724D01*
X164832500Y-95756275D01*
X164870064Y-95945126D01*
X164870066Y-95945134D01*
X164943750Y-96123020D01*
X164943751Y-96123022D01*
X165050725Y-96283119D01*
X165050726Y-96283120D01*
X165186880Y-96419274D01*
X165346980Y-96526250D01*
X165426299Y-96559105D01*
X165524865Y-96599933D01*
X165524869Y-96599934D01*
X165524874Y-96599936D01*
X165713725Y-96637500D01*
X165906275Y-96637500D01*
X166095126Y-96599936D01*
X166095132Y-96599933D01*
X166095134Y-96599933D01*
X166143992Y-96579694D01*
X166273020Y-96526250D01*
X166433120Y-96419274D01*
X166569274Y-96283120D01*
X166676250Y-96123020D01*
X166749936Y-95945126D01*
X166787500Y-95756275D01*
X166787500Y-95573430D01*
X167250000Y-95573430D01*
X167250000Y-95746569D01*
X167250001Y-95746583D01*
X167277085Y-95917583D01*
X167330590Y-96082254D01*
X167330591Y-96082256D01*
X167409197Y-96236526D01*
X167409201Y-96236533D01*
X167413708Y-96242737D01*
X167867037Y-95789408D01*
X167884075Y-95852993D01*
X167949901Y-95967007D01*
X168042993Y-96060099D01*
X168157007Y-96125925D01*
X168220590Y-96142962D01*
X167767261Y-96596290D01*
X167773471Y-96600801D01*
X167927743Y-96679408D01*
X167927745Y-96679409D01*
X168092417Y-96732914D01*
X168092416Y-96732914D01*
X168263416Y-96759998D01*
X168263430Y-96760000D01*
X168436570Y-96760000D01*
X168436583Y-96759998D01*
X168607583Y-96732914D01*
X168772254Y-96679409D01*
X168772256Y-96679408D01*
X168926525Y-96600803D01*
X168932736Y-96596289D01*
X168479409Y-96142962D01*
X168542993Y-96125925D01*
X168657007Y-96060099D01*
X168750099Y-95967007D01*
X168815925Y-95852993D01*
X168832962Y-95789409D01*
X169286289Y-96242736D01*
X169290803Y-96236525D01*
X169369408Y-96082256D01*
X169369409Y-96082254D01*
X169422914Y-95917583D01*
X169449998Y-95746583D01*
X169450000Y-95746569D01*
X169450000Y-95573430D01*
X169449998Y-95573416D01*
X169422914Y-95402416D01*
X169369409Y-95237745D01*
X169369408Y-95237743D01*
X169290801Y-95083471D01*
X169286289Y-95077261D01*
X168832962Y-95530589D01*
X168815925Y-95467007D01*
X168750099Y-95352993D01*
X168657007Y-95259901D01*
X168542993Y-95194075D01*
X168479407Y-95177037D01*
X168932737Y-94723708D01*
X168926533Y-94719201D01*
X168926526Y-94719197D01*
X168772256Y-94640591D01*
X168772254Y-94640590D01*
X168607582Y-94587085D01*
X168607583Y-94587085D01*
X168436583Y-94560001D01*
X168436570Y-94560000D01*
X168263430Y-94560000D01*
X168263416Y-94560001D01*
X168092416Y-94587085D01*
X167927745Y-94640590D01*
X167927743Y-94640591D01*
X167773472Y-94719197D01*
X167767261Y-94723708D01*
X168220590Y-95177037D01*
X168157007Y-95194075D01*
X168042993Y-95259901D01*
X167949901Y-95352993D01*
X167884075Y-95467007D01*
X167867037Y-95530590D01*
X167413708Y-95077261D01*
X167409197Y-95083472D01*
X167330591Y-95237743D01*
X167330590Y-95237745D01*
X167277085Y-95402416D01*
X167250001Y-95573416D01*
X167250000Y-95573430D01*
X166787500Y-95573430D01*
X166787500Y-95563725D01*
X166749936Y-95374874D01*
X166749934Y-95374869D01*
X166749933Y-95374865D01*
X166693135Y-95237745D01*
X166676250Y-95196980D01*
X166569274Y-95036880D01*
X166433120Y-94900726D01*
X166273020Y-94793750D01*
X166273018Y-94793749D01*
X166095134Y-94720066D01*
X166095126Y-94720064D01*
X165906275Y-94682500D01*
X165713725Y-94682500D01*
X165524873Y-94720064D01*
X165524865Y-94720066D01*
X165346979Y-94793750D01*
X165346977Y-94793751D01*
X165186880Y-94900725D01*
X165050725Y-95036880D01*
X164943751Y-95196977D01*
X164943750Y-95196979D01*
X164870066Y-95374865D01*
X164870064Y-95374873D01*
X164832500Y-95563724D01*
X159288464Y-95563724D01*
X159262914Y-95402418D01*
X159262914Y-95402417D01*
X159209409Y-95237745D01*
X159209408Y-95237743D01*
X159130801Y-95083471D01*
X159126289Y-95077261D01*
X158672962Y-95530589D01*
X158655925Y-95467007D01*
X158590099Y-95352993D01*
X158497007Y-95259901D01*
X158382993Y-95194075D01*
X158319407Y-95177037D01*
X158772737Y-94723708D01*
X158766533Y-94719201D01*
X158766526Y-94719197D01*
X158612256Y-94640591D01*
X158612254Y-94640590D01*
X158447582Y-94587085D01*
X158447583Y-94587085D01*
X158276583Y-94560001D01*
X158276570Y-94560000D01*
X158103430Y-94560000D01*
X158103416Y-94560001D01*
X157932416Y-94587085D01*
X157767745Y-94640590D01*
X157767743Y-94640591D01*
X157613472Y-94719197D01*
X157607261Y-94723708D01*
X158060590Y-95177037D01*
X157997007Y-95194075D01*
X157882993Y-95259901D01*
X157789901Y-95352993D01*
X157724075Y-95467007D01*
X157707037Y-95530590D01*
X157253708Y-95077261D01*
X157249197Y-95083472D01*
X157170591Y-95237743D01*
X157170590Y-95237745D01*
X157117085Y-95402416D01*
X157090001Y-95573416D01*
X157090000Y-95573430D01*
X156627500Y-95573430D01*
X156627500Y-95563725D01*
X156589936Y-95374874D01*
X156589934Y-95374869D01*
X156589933Y-95374865D01*
X156533135Y-95237745D01*
X156516250Y-95196980D01*
X156409274Y-95036880D01*
X156273120Y-94900726D01*
X156113020Y-94793750D01*
X156113018Y-94793749D01*
X155935134Y-94720066D01*
X155935126Y-94720064D01*
X155746275Y-94682500D01*
X155553725Y-94682500D01*
X155364873Y-94720064D01*
X155364865Y-94720066D01*
X155186979Y-94793750D01*
X155186977Y-94793751D01*
X155026880Y-94900725D01*
X154890725Y-95036880D01*
X154783751Y-95196977D01*
X154783750Y-95196979D01*
X154710066Y-95374865D01*
X154710064Y-95374873D01*
X154672500Y-95563724D01*
X152031500Y-95563724D01*
X152031500Y-93023724D01*
X154672500Y-93023724D01*
X154672500Y-93216275D01*
X154710064Y-93405126D01*
X154710066Y-93405134D01*
X154783750Y-93583020D01*
X154783751Y-93583022D01*
X154890725Y-93743119D01*
X154890726Y-93743120D01*
X155026880Y-93879274D01*
X155186980Y-93986250D01*
X155266299Y-94019105D01*
X155364865Y-94059933D01*
X155364869Y-94059934D01*
X155364874Y-94059936D01*
X155553725Y-94097500D01*
X155746275Y-94097500D01*
X155935126Y-94059936D01*
X155935132Y-94059933D01*
X155935134Y-94059933D01*
X155983992Y-94039694D01*
X156113020Y-93986250D01*
X156273120Y-93879274D01*
X156409274Y-93743120D01*
X156516250Y-93583020D01*
X156589936Y-93405126D01*
X156627500Y-93216275D01*
X156627500Y-93033430D01*
X157090000Y-93033430D01*
X157090000Y-93206569D01*
X157090001Y-93206583D01*
X157117085Y-93377583D01*
X157170590Y-93542254D01*
X157170591Y-93542256D01*
X157249197Y-93696526D01*
X157249201Y-93696533D01*
X157253708Y-93702737D01*
X157707037Y-93249408D01*
X157724075Y-93312993D01*
X157789901Y-93427007D01*
X157882993Y-93520099D01*
X157997007Y-93585925D01*
X158060590Y-93602962D01*
X157607261Y-94056290D01*
X157613471Y-94060801D01*
X157767743Y-94139408D01*
X157767745Y-94139409D01*
X157932417Y-94192914D01*
X157932416Y-94192914D01*
X158103416Y-94219998D01*
X158103430Y-94220000D01*
X158276570Y-94220000D01*
X158276583Y-94219998D01*
X158447583Y-94192914D01*
X158612254Y-94139409D01*
X158612256Y-94139408D01*
X158766525Y-94060803D01*
X158772736Y-94056289D01*
X158319409Y-93602962D01*
X158382993Y-93585925D01*
X158497007Y-93520099D01*
X158590099Y-93427007D01*
X158655925Y-93312993D01*
X158672962Y-93249409D01*
X159126289Y-93702736D01*
X159130803Y-93696525D01*
X159209408Y-93542256D01*
X159209409Y-93542254D01*
X159262914Y-93377583D01*
X159289998Y-93206583D01*
X159290000Y-93206569D01*
X159290000Y-93033430D01*
X159289999Y-93033426D01*
X159289526Y-93030437D01*
X159289526Y-93030432D01*
X159288464Y-93023724D01*
X164832500Y-93023724D01*
X164832500Y-93216275D01*
X164870064Y-93405126D01*
X164870066Y-93405134D01*
X164943750Y-93583020D01*
X164943751Y-93583022D01*
X165050725Y-93743119D01*
X165050726Y-93743120D01*
X165186880Y-93879274D01*
X165346980Y-93986250D01*
X165426299Y-94019105D01*
X165524865Y-94059933D01*
X165524869Y-94059934D01*
X165524874Y-94059936D01*
X165713725Y-94097500D01*
X165906275Y-94097500D01*
X166095126Y-94059936D01*
X166095132Y-94059933D01*
X166095134Y-94059933D01*
X166143992Y-94039694D01*
X166273020Y-93986250D01*
X166433120Y-93879274D01*
X166569274Y-93743120D01*
X166676250Y-93583020D01*
X166749936Y-93405126D01*
X166787500Y-93216275D01*
X166787500Y-93033430D01*
X167250000Y-93033430D01*
X167250000Y-93206569D01*
X167250001Y-93206583D01*
X167277085Y-93377583D01*
X167330590Y-93542254D01*
X167330591Y-93542256D01*
X167409197Y-93696526D01*
X167409201Y-93696533D01*
X167413708Y-93702737D01*
X167867037Y-93249408D01*
X167884075Y-93312993D01*
X167949901Y-93427007D01*
X168042993Y-93520099D01*
X168157007Y-93585925D01*
X168220590Y-93602962D01*
X167767261Y-94056290D01*
X167773471Y-94060801D01*
X167927743Y-94139408D01*
X167927745Y-94139409D01*
X168092417Y-94192914D01*
X168092416Y-94192914D01*
X168263416Y-94219998D01*
X168263430Y-94220000D01*
X168436570Y-94220000D01*
X168436583Y-94219998D01*
X168607583Y-94192914D01*
X168772254Y-94139409D01*
X168772256Y-94139408D01*
X168926525Y-94060803D01*
X168932736Y-94056289D01*
X168479409Y-93602962D01*
X168542993Y-93585925D01*
X168657007Y-93520099D01*
X168750099Y-93427007D01*
X168815925Y-93312993D01*
X168832962Y-93249409D01*
X169286289Y-93702736D01*
X169290803Y-93696525D01*
X169369408Y-93542256D01*
X169369409Y-93542254D01*
X169422914Y-93377583D01*
X169449998Y-93206583D01*
X169450000Y-93206569D01*
X169450000Y-93033430D01*
X169449998Y-93033416D01*
X169422914Y-92862416D01*
X169369409Y-92697745D01*
X169369408Y-92697743D01*
X169290801Y-92543471D01*
X169286289Y-92537261D01*
X168832962Y-92990589D01*
X168815925Y-92927007D01*
X168750099Y-92812993D01*
X168657007Y-92719901D01*
X168542993Y-92654075D01*
X168479407Y-92637037D01*
X168932737Y-92183708D01*
X168926533Y-92179201D01*
X168926526Y-92179197D01*
X168772256Y-92100591D01*
X168772254Y-92100590D01*
X168607582Y-92047085D01*
X168607583Y-92047085D01*
X168436583Y-92020001D01*
X168436570Y-92020000D01*
X168263430Y-92020000D01*
X168263416Y-92020001D01*
X168092416Y-92047085D01*
X167927745Y-92100590D01*
X167927743Y-92100591D01*
X167773472Y-92179197D01*
X167767261Y-92183708D01*
X168220590Y-92637037D01*
X168157007Y-92654075D01*
X168042993Y-92719901D01*
X167949901Y-92812993D01*
X167884075Y-92927007D01*
X167867037Y-92990590D01*
X167413708Y-92537261D01*
X167409197Y-92543472D01*
X167330591Y-92697743D01*
X167330590Y-92697745D01*
X167277085Y-92862416D01*
X167250001Y-93033416D01*
X167250000Y-93033430D01*
X166787500Y-93033430D01*
X166787500Y-93023725D01*
X166749936Y-92834874D01*
X166749934Y-92834869D01*
X166749933Y-92834865D01*
X166693135Y-92697745D01*
X166676250Y-92656980D01*
X166569274Y-92496880D01*
X166433120Y-92360726D01*
X166273020Y-92253750D01*
X166273018Y-92253749D01*
X166095134Y-92180066D01*
X166095126Y-92180064D01*
X165906275Y-92142500D01*
X165713725Y-92142500D01*
X165524873Y-92180064D01*
X165524865Y-92180066D01*
X165346979Y-92253750D01*
X165346977Y-92253751D01*
X165186880Y-92360725D01*
X165050725Y-92496880D01*
X164943751Y-92656977D01*
X164943750Y-92656979D01*
X164870066Y-92834865D01*
X164870064Y-92834873D01*
X164832500Y-93023724D01*
X159288464Y-93023724D01*
X159262914Y-92862418D01*
X159262914Y-92862417D01*
X159209409Y-92697745D01*
X159209408Y-92697743D01*
X159130801Y-92543471D01*
X159126289Y-92537261D01*
X158672962Y-92990589D01*
X158655925Y-92927007D01*
X158590099Y-92812993D01*
X158497007Y-92719901D01*
X158382993Y-92654075D01*
X158319407Y-92637037D01*
X158772737Y-92183708D01*
X158766533Y-92179201D01*
X158766526Y-92179197D01*
X158612256Y-92100591D01*
X158612254Y-92100590D01*
X158447582Y-92047085D01*
X158447583Y-92047085D01*
X158276583Y-92020001D01*
X158276570Y-92020000D01*
X158103430Y-92020000D01*
X158103416Y-92020001D01*
X157932416Y-92047085D01*
X157767745Y-92100590D01*
X157767743Y-92100591D01*
X157613472Y-92179197D01*
X157607261Y-92183708D01*
X158060590Y-92637037D01*
X157997007Y-92654075D01*
X157882993Y-92719901D01*
X157789901Y-92812993D01*
X157724075Y-92927007D01*
X157707037Y-92990590D01*
X157253708Y-92537261D01*
X157249197Y-92543472D01*
X157170591Y-92697743D01*
X157170590Y-92697745D01*
X157117085Y-92862416D01*
X157090001Y-93033416D01*
X157090000Y-93033430D01*
X156627500Y-93033430D01*
X156627500Y-93023725D01*
X156589936Y-92834874D01*
X156589934Y-92834869D01*
X156589933Y-92834865D01*
X156533135Y-92697745D01*
X156516250Y-92656980D01*
X156409274Y-92496880D01*
X156273120Y-92360726D01*
X156113020Y-92253750D01*
X156113018Y-92253749D01*
X155935134Y-92180066D01*
X155935126Y-92180064D01*
X155746275Y-92142500D01*
X155553725Y-92142500D01*
X155364873Y-92180064D01*
X155364865Y-92180066D01*
X155186979Y-92253750D01*
X155186977Y-92253751D01*
X155026880Y-92360725D01*
X154890725Y-92496880D01*
X154783751Y-92656977D01*
X154783750Y-92656979D01*
X154710066Y-92834865D01*
X154710064Y-92834873D01*
X154672500Y-93023724D01*
X152031500Y-93023724D01*
X152031500Y-90483724D01*
X154672500Y-90483724D01*
X154672500Y-90676275D01*
X154710064Y-90865126D01*
X154710066Y-90865134D01*
X154783750Y-91043020D01*
X154783751Y-91043022D01*
X154890725Y-91203119D01*
X154890726Y-91203120D01*
X155026880Y-91339274D01*
X155186980Y-91446250D01*
X155266299Y-91479105D01*
X155364865Y-91519933D01*
X155364869Y-91519934D01*
X155364874Y-91519936D01*
X155553725Y-91557500D01*
X155746275Y-91557500D01*
X155935126Y-91519936D01*
X155935132Y-91519933D01*
X155935134Y-91519933D01*
X155983992Y-91499694D01*
X156113020Y-91446250D01*
X156273120Y-91339274D01*
X156409274Y-91203120D01*
X156516250Y-91043020D01*
X156589936Y-90865126D01*
X156627500Y-90676275D01*
X156627500Y-90493430D01*
X157090000Y-90493430D01*
X157090000Y-90666569D01*
X157090001Y-90666583D01*
X157117085Y-90837583D01*
X157170590Y-91002254D01*
X157170591Y-91002256D01*
X157249197Y-91156526D01*
X157249201Y-91156533D01*
X157253708Y-91162737D01*
X157707037Y-90709408D01*
X157724075Y-90772993D01*
X157789901Y-90887007D01*
X157882993Y-90980099D01*
X157997007Y-91045925D01*
X158060590Y-91062962D01*
X157607261Y-91516290D01*
X157613471Y-91520801D01*
X157767743Y-91599408D01*
X157767745Y-91599409D01*
X157932417Y-91652914D01*
X157932416Y-91652914D01*
X158103416Y-91679998D01*
X158103430Y-91680000D01*
X158276570Y-91680000D01*
X158276583Y-91679998D01*
X158447583Y-91652914D01*
X158612254Y-91599409D01*
X158612256Y-91599408D01*
X158766525Y-91520803D01*
X158772736Y-91516289D01*
X158319409Y-91062962D01*
X158382993Y-91045925D01*
X158497007Y-90980099D01*
X158590099Y-90887007D01*
X158655925Y-90772993D01*
X158672962Y-90709409D01*
X159126289Y-91162736D01*
X159130803Y-91156525D01*
X159209408Y-91002256D01*
X159209409Y-91002254D01*
X159262914Y-90837583D01*
X159289998Y-90666583D01*
X159290000Y-90666569D01*
X159290000Y-90493430D01*
X159289999Y-90493426D01*
X159289526Y-90490437D01*
X159289526Y-90490432D01*
X159288464Y-90483724D01*
X164832500Y-90483724D01*
X164832500Y-90676275D01*
X164870064Y-90865126D01*
X164870066Y-90865134D01*
X164943750Y-91043020D01*
X164943751Y-91043022D01*
X165050725Y-91203119D01*
X165050726Y-91203120D01*
X165186880Y-91339274D01*
X165346980Y-91446250D01*
X165426299Y-91479105D01*
X165524865Y-91519933D01*
X165524869Y-91519934D01*
X165524874Y-91519936D01*
X165713725Y-91557500D01*
X165906275Y-91557500D01*
X166095126Y-91519936D01*
X166095132Y-91519933D01*
X166095134Y-91519933D01*
X166143992Y-91499694D01*
X166273020Y-91446250D01*
X166433120Y-91339274D01*
X166569274Y-91203120D01*
X166676250Y-91043020D01*
X166749936Y-90865126D01*
X166787500Y-90676275D01*
X166787500Y-90493430D01*
X167250000Y-90493430D01*
X167250000Y-90666569D01*
X167250001Y-90666583D01*
X167277085Y-90837583D01*
X167330590Y-91002254D01*
X167330591Y-91002256D01*
X167409197Y-91156526D01*
X167409201Y-91156533D01*
X167413708Y-91162737D01*
X167867037Y-90709408D01*
X167884075Y-90772993D01*
X167949901Y-90887007D01*
X168042993Y-90980099D01*
X168157007Y-91045925D01*
X168220590Y-91062962D01*
X167767261Y-91516290D01*
X167773471Y-91520801D01*
X167927743Y-91599408D01*
X167927745Y-91599409D01*
X168092417Y-91652914D01*
X168092416Y-91652914D01*
X168263416Y-91679998D01*
X168263430Y-91680000D01*
X168436570Y-91680000D01*
X168436583Y-91679998D01*
X168607583Y-91652914D01*
X168772254Y-91599409D01*
X168772256Y-91599408D01*
X168926525Y-91520803D01*
X168932736Y-91516289D01*
X168479409Y-91062962D01*
X168542993Y-91045925D01*
X168657007Y-90980099D01*
X168750099Y-90887007D01*
X168815925Y-90772993D01*
X168832962Y-90709409D01*
X169286289Y-91162736D01*
X169290803Y-91156525D01*
X169369408Y-91002256D01*
X169369409Y-91002254D01*
X169422914Y-90837583D01*
X169449998Y-90666583D01*
X169450000Y-90666569D01*
X169450000Y-90493430D01*
X169449998Y-90493416D01*
X169422914Y-90322416D01*
X169369409Y-90157745D01*
X169369408Y-90157743D01*
X169290801Y-90003471D01*
X169286289Y-89997261D01*
X168832962Y-90450589D01*
X168815925Y-90387007D01*
X168750099Y-90272993D01*
X168657007Y-90179901D01*
X168542993Y-90114075D01*
X168479407Y-90097037D01*
X168932737Y-89643708D01*
X168926533Y-89639201D01*
X168926526Y-89639197D01*
X168772256Y-89560591D01*
X168772254Y-89560590D01*
X168607582Y-89507085D01*
X168607583Y-89507085D01*
X168436583Y-89480001D01*
X168436570Y-89480000D01*
X168263430Y-89480000D01*
X168263416Y-89480001D01*
X168092416Y-89507085D01*
X167927745Y-89560590D01*
X167927743Y-89560591D01*
X167773472Y-89639197D01*
X167767261Y-89643708D01*
X168220590Y-90097037D01*
X168157007Y-90114075D01*
X168042993Y-90179901D01*
X167949901Y-90272993D01*
X167884075Y-90387007D01*
X167867037Y-90450590D01*
X167413708Y-89997261D01*
X167409197Y-90003472D01*
X167330591Y-90157743D01*
X167330590Y-90157745D01*
X167277085Y-90322416D01*
X167250001Y-90493416D01*
X167250000Y-90493430D01*
X166787500Y-90493430D01*
X166787500Y-90483725D01*
X166749936Y-90294874D01*
X166749934Y-90294869D01*
X166749933Y-90294865D01*
X166693135Y-90157745D01*
X166676250Y-90116980D01*
X166569274Y-89956880D01*
X166433120Y-89820726D01*
X166273020Y-89713750D01*
X166273018Y-89713749D01*
X166095134Y-89640066D01*
X166095126Y-89640064D01*
X165906275Y-89602500D01*
X165713725Y-89602500D01*
X165524873Y-89640064D01*
X165524865Y-89640066D01*
X165346979Y-89713750D01*
X165346977Y-89713751D01*
X165186880Y-89820725D01*
X165050725Y-89956880D01*
X164943751Y-90116977D01*
X164943750Y-90116979D01*
X164870066Y-90294865D01*
X164870064Y-90294873D01*
X164832500Y-90483724D01*
X159288464Y-90483724D01*
X159262914Y-90322418D01*
X159262914Y-90322417D01*
X159209409Y-90157745D01*
X159209408Y-90157743D01*
X159130801Y-90003471D01*
X159126289Y-89997261D01*
X158672962Y-90450589D01*
X158655925Y-90387007D01*
X158590099Y-90272993D01*
X158497007Y-90179901D01*
X158382993Y-90114075D01*
X158319407Y-90097037D01*
X158772737Y-89643708D01*
X158766533Y-89639201D01*
X158766526Y-89639197D01*
X158612256Y-89560591D01*
X158612254Y-89560590D01*
X158447582Y-89507085D01*
X158447583Y-89507085D01*
X158276583Y-89480001D01*
X158276570Y-89480000D01*
X158103430Y-89480000D01*
X158103416Y-89480001D01*
X157932416Y-89507085D01*
X157767745Y-89560590D01*
X157767743Y-89560591D01*
X157613472Y-89639197D01*
X157607261Y-89643708D01*
X158060590Y-90097037D01*
X157997007Y-90114075D01*
X157882993Y-90179901D01*
X157789901Y-90272993D01*
X157724075Y-90387007D01*
X157707037Y-90450590D01*
X157253708Y-89997261D01*
X157249197Y-90003472D01*
X157170591Y-90157743D01*
X157170590Y-90157745D01*
X157117085Y-90322416D01*
X157090001Y-90493416D01*
X157090000Y-90493430D01*
X156627500Y-90493430D01*
X156627500Y-90483725D01*
X156589936Y-90294874D01*
X156589934Y-90294869D01*
X156589933Y-90294865D01*
X156533135Y-90157745D01*
X156516250Y-90116980D01*
X156409274Y-89956880D01*
X156273120Y-89820726D01*
X156113020Y-89713750D01*
X156113018Y-89713749D01*
X155935134Y-89640066D01*
X155935126Y-89640064D01*
X155746275Y-89602500D01*
X155553725Y-89602500D01*
X155364873Y-89640064D01*
X155364865Y-89640066D01*
X155186979Y-89713750D01*
X155186977Y-89713751D01*
X155026880Y-89820725D01*
X154890725Y-89956880D01*
X154783751Y-90116977D01*
X154783750Y-90116979D01*
X154710066Y-90294865D01*
X154710064Y-90294873D01*
X154672500Y-90483724D01*
X152031500Y-90483724D01*
X152031500Y-87404173D01*
X154672500Y-87404173D01*
X154672500Y-88675825D01*
X154683190Y-88749201D01*
X154683191Y-88749204D01*
X154738524Y-88862390D01*
X154827610Y-88951476D01*
X154940796Y-89006809D01*
X155014173Y-89017500D01*
X156285826Y-89017499D01*
X156359204Y-89006809D01*
X156472390Y-88951476D01*
X156561476Y-88862390D01*
X156616809Y-88749204D01*
X156627500Y-88675827D01*
X156627499Y-87943724D01*
X157212500Y-87943724D01*
X157212500Y-88136275D01*
X157250064Y-88325126D01*
X157250066Y-88325134D01*
X157323750Y-88503020D01*
X157430726Y-88663120D01*
X157566880Y-88799274D01*
X157726980Y-88906250D01*
X157806299Y-88939105D01*
X157904865Y-88979933D01*
X157904869Y-88979934D01*
X157904874Y-88979936D01*
X158093725Y-89017500D01*
X158286275Y-89017500D01*
X158475126Y-88979936D01*
X158475132Y-88979933D01*
X158475134Y-88979933D01*
X158517611Y-88962337D01*
X158653020Y-88906250D01*
X158813120Y-88799274D01*
X158949274Y-88663120D01*
X159056250Y-88503020D01*
X159129936Y-88325126D01*
X159167500Y-88136275D01*
X159167500Y-87943725D01*
X159129936Y-87754874D01*
X159129934Y-87754869D01*
X159129933Y-87754865D01*
X159089105Y-87656299D01*
X159056250Y-87576980D01*
X158949274Y-87416880D01*
X158936567Y-87404173D01*
X164832500Y-87404173D01*
X164832500Y-88675825D01*
X164843190Y-88749201D01*
X164843191Y-88749204D01*
X164898524Y-88862390D01*
X164987610Y-88951476D01*
X165100796Y-89006809D01*
X165174173Y-89017500D01*
X166445826Y-89017499D01*
X166519204Y-89006809D01*
X166632390Y-88951476D01*
X166721476Y-88862390D01*
X166776809Y-88749204D01*
X166787500Y-88675827D01*
X166787499Y-87943724D01*
X167372500Y-87943724D01*
X167372500Y-88136275D01*
X167410064Y-88325126D01*
X167410066Y-88325134D01*
X167483750Y-88503020D01*
X167590726Y-88663120D01*
X167726880Y-88799274D01*
X167886980Y-88906250D01*
X167966299Y-88939105D01*
X168064865Y-88979933D01*
X168064869Y-88979934D01*
X168064874Y-88979936D01*
X168253725Y-89017500D01*
X168446275Y-89017500D01*
X168635126Y-88979936D01*
X168635132Y-88979933D01*
X168635134Y-88979933D01*
X168677611Y-88962337D01*
X168813020Y-88906250D01*
X168973120Y-88799274D01*
X169109274Y-88663120D01*
X169216250Y-88503020D01*
X169289936Y-88325126D01*
X169327500Y-88136275D01*
X169327500Y-87943725D01*
X169289936Y-87754874D01*
X169289934Y-87754869D01*
X169289933Y-87754865D01*
X169249105Y-87656299D01*
X169216250Y-87576980D01*
X169109274Y-87416880D01*
X168973120Y-87280726D01*
X168878658Y-87217608D01*
X168813022Y-87173751D01*
X168813020Y-87173750D01*
X168635134Y-87100066D01*
X168635126Y-87100064D01*
X168446275Y-87062500D01*
X168253725Y-87062500D01*
X168064873Y-87100064D01*
X168064865Y-87100066D01*
X167886979Y-87173750D01*
X167886977Y-87173751D01*
X167726880Y-87280725D01*
X167590725Y-87416880D01*
X167483751Y-87576977D01*
X167483750Y-87576979D01*
X167410066Y-87754865D01*
X167410064Y-87754873D01*
X167372500Y-87943724D01*
X166787499Y-87943724D01*
X166787499Y-87404174D01*
X166776809Y-87330796D01*
X166721476Y-87217610D01*
X166632390Y-87128524D01*
X166519204Y-87073191D01*
X166519202Y-87073190D01*
X166519201Y-87073190D01*
X166460913Y-87064698D01*
X166445827Y-87062500D01*
X166445826Y-87062500D01*
X165174174Y-87062500D01*
X165100798Y-87073190D01*
X165100797Y-87073190D01*
X165100796Y-87073191D01*
X164987610Y-87128524D01*
X164987608Y-87128525D01*
X164898525Y-87217608D01*
X164843190Y-87330798D01*
X164832500Y-87404173D01*
X158936567Y-87404173D01*
X158813120Y-87280726D01*
X158718658Y-87217608D01*
X158653022Y-87173751D01*
X158653020Y-87173750D01*
X158475134Y-87100066D01*
X158475126Y-87100064D01*
X158286275Y-87062500D01*
X158093725Y-87062500D01*
X157904873Y-87100064D01*
X157904865Y-87100066D01*
X157726979Y-87173750D01*
X157726977Y-87173751D01*
X157566880Y-87280725D01*
X157430725Y-87416880D01*
X157323751Y-87576977D01*
X157323750Y-87576979D01*
X157250066Y-87754865D01*
X157250064Y-87754873D01*
X157212500Y-87943724D01*
X156627499Y-87943724D01*
X156627499Y-87404174D01*
X156616809Y-87330796D01*
X156561476Y-87217610D01*
X156472390Y-87128524D01*
X156359204Y-87073191D01*
X156359202Y-87073190D01*
X156359201Y-87073190D01*
X156300913Y-87064698D01*
X156285827Y-87062500D01*
X156285826Y-87062500D01*
X155014174Y-87062500D01*
X154940798Y-87073190D01*
X154940797Y-87073190D01*
X154940796Y-87073191D01*
X154827610Y-87128524D01*
X154827608Y-87128525D01*
X154738525Y-87217608D01*
X154683190Y-87330798D01*
X154672500Y-87404173D01*
X152031500Y-87404173D01*
X152031500Y-81565776D01*
X152031499Y-81565770D01*
X152021411Y-81528125D01*
X152005501Y-81468746D01*
X151955276Y-81381753D01*
X151884247Y-81310724D01*
X151797254Y-81260499D01*
X151797253Y-81260498D01*
X151797252Y-81260498D01*
X151700229Y-81234500D01*
X151700225Y-81234500D01*
X132254000Y-81234500D01*
X132209806Y-81216194D01*
X132191500Y-81172000D01*
X132191500Y-79200554D01*
X140652500Y-79200554D01*
X140652500Y-79339445D01*
X140652501Y-79339453D01*
X140688446Y-79473603D01*
X140688447Y-79473606D01*
X140757896Y-79593894D01*
X140757899Y-79593898D01*
X140856101Y-79692100D01*
X140856105Y-79692103D01*
X140856107Y-79692105D01*
X140976393Y-79761552D01*
X140976396Y-79761553D01*
X141058495Y-79783551D01*
X141110553Y-79797500D01*
X141110554Y-79797500D01*
X141249446Y-79797500D01*
X141249447Y-79797500D01*
X141383607Y-79761552D01*
X141503893Y-79692105D01*
X141602105Y-79593893D01*
X141671552Y-79473607D01*
X141707500Y-79339447D01*
X141707500Y-79200553D01*
X141671552Y-79066393D01*
X141602105Y-78946107D01*
X141602103Y-78946105D01*
X141602100Y-78946101D01*
X141503898Y-78847899D01*
X141503894Y-78847896D01*
X141503893Y-78847895D01*
X141424574Y-78802100D01*
X141383606Y-78778447D01*
X141383603Y-78778446D01*
X141249453Y-78742501D01*
X141249448Y-78742500D01*
X141249447Y-78742500D01*
X141110553Y-78742500D01*
X141110552Y-78742500D01*
X141110546Y-78742501D01*
X140976396Y-78778446D01*
X140976393Y-78778447D01*
X140856105Y-78847896D01*
X140856101Y-78847899D01*
X140757899Y-78946101D01*
X140757896Y-78946105D01*
X140688447Y-79066393D01*
X140688446Y-79066396D01*
X140652501Y-79200546D01*
X140652500Y-79200554D01*
X132191500Y-79200554D01*
X132191500Y-78310554D01*
X146752500Y-78310554D01*
X146752500Y-78449445D01*
X146752501Y-78449453D01*
X146788446Y-78583603D01*
X146788447Y-78583606D01*
X146857896Y-78703894D01*
X146857899Y-78703898D01*
X146956101Y-78802100D01*
X146956105Y-78802103D01*
X146956107Y-78802105D01*
X147035418Y-78847895D01*
X147076393Y-78871552D01*
X147076396Y-78871553D01*
X147158495Y-78893551D01*
X147210553Y-78907500D01*
X147210554Y-78907500D01*
X147349446Y-78907500D01*
X147349447Y-78907500D01*
X147483607Y-78871552D01*
X147603893Y-78802105D01*
X147702105Y-78703893D01*
X147771552Y-78583607D01*
X147807500Y-78449447D01*
X147807500Y-78310553D01*
X147771552Y-78176393D01*
X147702105Y-78056107D01*
X147702103Y-78056105D01*
X147702100Y-78056101D01*
X147603898Y-77957899D01*
X147603894Y-77957896D01*
X147603893Y-77957895D01*
X147543750Y-77923171D01*
X147483606Y-77888447D01*
X147483603Y-77888446D01*
X147349453Y-77852501D01*
X147349448Y-77852500D01*
X147349447Y-77852500D01*
X147210553Y-77852500D01*
X147210552Y-77852500D01*
X147210546Y-77852501D01*
X147076396Y-77888446D01*
X147076393Y-77888447D01*
X146956105Y-77957896D01*
X146956101Y-77957899D01*
X146857899Y-78056101D01*
X146857896Y-78056105D01*
X146788447Y-78176393D01*
X146788446Y-78176396D01*
X146752501Y-78310546D01*
X146752500Y-78310554D01*
X132191500Y-78310554D01*
X132191500Y-75243724D01*
X164832500Y-75243724D01*
X164832500Y-75436275D01*
X164870064Y-75625126D01*
X164870066Y-75625134D01*
X164943750Y-75803020D01*
X165050726Y-75963120D01*
X165186880Y-76099274D01*
X165346980Y-76206250D01*
X165426299Y-76239105D01*
X165524865Y-76279933D01*
X165524869Y-76279934D01*
X165524874Y-76279936D01*
X165713725Y-76317500D01*
X165906275Y-76317500D01*
X166095126Y-76279936D01*
X166095132Y-76279933D01*
X166095134Y-76279933D01*
X166137611Y-76262337D01*
X166273020Y-76206250D01*
X166433120Y-76099274D01*
X166569274Y-75963120D01*
X166676250Y-75803020D01*
X166749936Y-75625126D01*
X166787500Y-75436275D01*
X166787500Y-75243725D01*
X166787500Y-75243724D01*
X167372500Y-75243724D01*
X167372500Y-75436275D01*
X167410064Y-75625126D01*
X167410066Y-75625134D01*
X167483750Y-75803020D01*
X167590726Y-75963120D01*
X167726880Y-76099274D01*
X167886980Y-76206250D01*
X167966299Y-76239105D01*
X168064865Y-76279933D01*
X168064869Y-76279934D01*
X168064874Y-76279936D01*
X168253725Y-76317500D01*
X168446275Y-76317500D01*
X168635126Y-76279936D01*
X168635132Y-76279933D01*
X168635134Y-76279933D01*
X168677611Y-76262337D01*
X168813020Y-76206250D01*
X168973120Y-76099274D01*
X169109274Y-75963120D01*
X169216250Y-75803020D01*
X169289936Y-75625126D01*
X169327500Y-75436275D01*
X169327500Y-75243725D01*
X169289936Y-75054874D01*
X169289934Y-75054869D01*
X169289933Y-75054865D01*
X169249105Y-74956299D01*
X169216250Y-74876980D01*
X169109274Y-74716880D01*
X168973120Y-74580726D01*
X168973119Y-74580725D01*
X168813022Y-74473751D01*
X168813020Y-74473750D01*
X168635134Y-74400066D01*
X168635126Y-74400064D01*
X168446275Y-74362500D01*
X168253725Y-74362500D01*
X168064873Y-74400064D01*
X168064865Y-74400066D01*
X167886979Y-74473750D01*
X167886977Y-74473751D01*
X167726880Y-74580725D01*
X167590725Y-74716880D01*
X167483751Y-74876977D01*
X167483750Y-74876979D01*
X167410066Y-75054865D01*
X167410064Y-75054873D01*
X167372500Y-75243724D01*
X166787500Y-75243724D01*
X166749936Y-75054874D01*
X166749934Y-75054869D01*
X166749933Y-75054865D01*
X166709105Y-74956299D01*
X166676250Y-74876980D01*
X166569274Y-74716880D01*
X166433120Y-74580726D01*
X166433119Y-74580725D01*
X166273022Y-74473751D01*
X166273020Y-74473750D01*
X166095134Y-74400066D01*
X166095126Y-74400064D01*
X165906275Y-74362500D01*
X165713725Y-74362500D01*
X165524873Y-74400064D01*
X165524865Y-74400066D01*
X165346979Y-74473750D01*
X165346977Y-74473751D01*
X165186880Y-74580725D01*
X165050725Y-74716880D01*
X164943751Y-74876977D01*
X164943750Y-74876979D01*
X164870066Y-75054865D01*
X164870064Y-75054873D01*
X164832500Y-75243724D01*
X132191500Y-75243724D01*
X132191500Y-72703724D01*
X164832500Y-72703724D01*
X164832500Y-72896275D01*
X164870064Y-73085126D01*
X164870066Y-73085134D01*
X164943750Y-73263020D01*
X164943751Y-73263022D01*
X165050725Y-73423119D01*
X165050726Y-73423120D01*
X165186880Y-73559274D01*
X165346980Y-73666250D01*
X165426299Y-73699105D01*
X165524865Y-73739933D01*
X165524869Y-73739934D01*
X165524874Y-73739936D01*
X165713725Y-73777500D01*
X165906275Y-73777500D01*
X166095126Y-73739936D01*
X166095132Y-73739933D01*
X166095134Y-73739933D01*
X166143992Y-73719694D01*
X166273020Y-73666250D01*
X166433120Y-73559274D01*
X166569274Y-73423120D01*
X166676250Y-73263020D01*
X166749936Y-73085126D01*
X166787500Y-72896275D01*
X166787500Y-72713430D01*
X167250000Y-72713430D01*
X167250000Y-72886569D01*
X167250001Y-72886583D01*
X167277085Y-73057583D01*
X167330590Y-73222254D01*
X167330591Y-73222256D01*
X167409197Y-73376526D01*
X167409201Y-73376533D01*
X167413708Y-73382737D01*
X167867037Y-72929408D01*
X167884075Y-72992993D01*
X167949901Y-73107007D01*
X168042993Y-73200099D01*
X168157007Y-73265925D01*
X168220590Y-73282962D01*
X167767261Y-73736290D01*
X167773471Y-73740801D01*
X167927743Y-73819408D01*
X167927745Y-73819409D01*
X168092417Y-73872914D01*
X168092416Y-73872914D01*
X168263416Y-73899998D01*
X168263430Y-73900000D01*
X168436570Y-73900000D01*
X168436583Y-73899998D01*
X168607583Y-73872914D01*
X168772254Y-73819409D01*
X168772256Y-73819408D01*
X168926525Y-73740803D01*
X168932736Y-73736289D01*
X168479409Y-73282962D01*
X168542993Y-73265925D01*
X168657007Y-73200099D01*
X168750099Y-73107007D01*
X168815925Y-72992993D01*
X168832962Y-72929409D01*
X169286289Y-73382736D01*
X169290803Y-73376525D01*
X169369408Y-73222256D01*
X169369409Y-73222254D01*
X169422914Y-73057583D01*
X169449998Y-72886583D01*
X169450000Y-72886569D01*
X169450000Y-72713430D01*
X169449998Y-72713416D01*
X169422914Y-72542416D01*
X169369409Y-72377745D01*
X169369408Y-72377743D01*
X169290801Y-72223471D01*
X169286289Y-72217261D01*
X168832962Y-72670589D01*
X168815925Y-72607007D01*
X168750099Y-72492993D01*
X168657007Y-72399901D01*
X168542993Y-72334075D01*
X168479407Y-72317037D01*
X168932737Y-71863708D01*
X168926533Y-71859201D01*
X168926526Y-71859197D01*
X168772256Y-71780591D01*
X168772254Y-71780590D01*
X168607582Y-71727085D01*
X168607583Y-71727085D01*
X168436583Y-71700001D01*
X168436570Y-71700000D01*
X168263430Y-71700000D01*
X168263416Y-71700001D01*
X168092416Y-71727085D01*
X167927745Y-71780590D01*
X167927743Y-71780591D01*
X167773472Y-71859197D01*
X167767261Y-71863708D01*
X168220590Y-72317037D01*
X168157007Y-72334075D01*
X168042993Y-72399901D01*
X167949901Y-72492993D01*
X167884075Y-72607007D01*
X167867037Y-72670590D01*
X167413708Y-72217261D01*
X167409197Y-72223472D01*
X167330591Y-72377743D01*
X167330590Y-72377745D01*
X167277085Y-72542416D01*
X167250001Y-72713416D01*
X167250000Y-72713430D01*
X166787500Y-72713430D01*
X166787500Y-72703725D01*
X166749936Y-72514874D01*
X166749934Y-72514869D01*
X166749933Y-72514865D01*
X166693135Y-72377745D01*
X166676250Y-72336980D01*
X166569274Y-72176880D01*
X166433120Y-72040726D01*
X166273020Y-71933750D01*
X166273018Y-71933749D01*
X166095134Y-71860066D01*
X166095126Y-71860064D01*
X165906275Y-71822500D01*
X165713725Y-71822500D01*
X165524873Y-71860064D01*
X165524865Y-71860066D01*
X165346979Y-71933750D01*
X165346977Y-71933751D01*
X165186880Y-72040725D01*
X165050725Y-72176880D01*
X164943751Y-72336977D01*
X164943750Y-72336979D01*
X164870066Y-72514865D01*
X164870064Y-72514873D01*
X164832500Y-72703724D01*
X132191500Y-72703724D01*
X132191500Y-70163724D01*
X164832500Y-70163724D01*
X164832500Y-70356275D01*
X164870064Y-70545126D01*
X164870066Y-70545134D01*
X164943750Y-70723020D01*
X164943751Y-70723022D01*
X165050725Y-70883119D01*
X165050726Y-70883120D01*
X165186880Y-71019274D01*
X165346980Y-71126250D01*
X165426299Y-71159105D01*
X165524865Y-71199933D01*
X165524869Y-71199934D01*
X165524874Y-71199936D01*
X165713725Y-71237500D01*
X165906275Y-71237500D01*
X166095126Y-71199936D01*
X166095132Y-71199933D01*
X166095134Y-71199933D01*
X166143992Y-71179694D01*
X166273020Y-71126250D01*
X166433120Y-71019274D01*
X166569274Y-70883120D01*
X166676250Y-70723020D01*
X166749936Y-70545126D01*
X166787500Y-70356275D01*
X166787500Y-70173430D01*
X167250000Y-70173430D01*
X167250000Y-70346569D01*
X167250001Y-70346583D01*
X167277085Y-70517583D01*
X167330590Y-70682254D01*
X167330591Y-70682256D01*
X167409197Y-70836526D01*
X167409201Y-70836533D01*
X167413708Y-70842737D01*
X167867037Y-70389408D01*
X167884075Y-70452993D01*
X167949901Y-70567007D01*
X168042993Y-70660099D01*
X168157007Y-70725925D01*
X168220590Y-70742962D01*
X167767261Y-71196290D01*
X167773471Y-71200801D01*
X167927743Y-71279408D01*
X167927745Y-71279409D01*
X168092417Y-71332914D01*
X168092416Y-71332914D01*
X168263416Y-71359998D01*
X168263430Y-71360000D01*
X168436570Y-71360000D01*
X168436583Y-71359998D01*
X168607583Y-71332914D01*
X168772254Y-71279409D01*
X168772256Y-71279408D01*
X168926525Y-71200803D01*
X168932736Y-71196289D01*
X168479409Y-70742962D01*
X168542993Y-70725925D01*
X168657007Y-70660099D01*
X168750099Y-70567007D01*
X168815925Y-70452993D01*
X168832962Y-70389409D01*
X169286289Y-70842736D01*
X169290803Y-70836525D01*
X169369408Y-70682256D01*
X169369409Y-70682254D01*
X169422914Y-70517583D01*
X169449998Y-70346583D01*
X169450000Y-70346569D01*
X169450000Y-70173430D01*
X169449998Y-70173416D01*
X169422914Y-70002416D01*
X169369409Y-69837745D01*
X169369408Y-69837743D01*
X169290801Y-69683471D01*
X169286289Y-69677261D01*
X168832962Y-70130589D01*
X168815925Y-70067007D01*
X168750099Y-69952993D01*
X168657007Y-69859901D01*
X168542993Y-69794075D01*
X168479407Y-69777037D01*
X168932737Y-69323708D01*
X168926533Y-69319201D01*
X168926526Y-69319197D01*
X168772256Y-69240591D01*
X168772254Y-69240590D01*
X168607582Y-69187085D01*
X168607583Y-69187085D01*
X168436583Y-69160001D01*
X168436570Y-69160000D01*
X168263430Y-69160000D01*
X168263416Y-69160001D01*
X168092416Y-69187085D01*
X167927745Y-69240590D01*
X167927743Y-69240591D01*
X167773472Y-69319197D01*
X167767261Y-69323708D01*
X168220590Y-69777037D01*
X168157007Y-69794075D01*
X168042993Y-69859901D01*
X167949901Y-69952993D01*
X167884075Y-70067007D01*
X167867037Y-70130590D01*
X167413708Y-69677261D01*
X167409197Y-69683472D01*
X167330591Y-69837743D01*
X167330590Y-69837745D01*
X167277085Y-70002416D01*
X167250001Y-70173416D01*
X167250000Y-70173430D01*
X166787500Y-70173430D01*
X166787500Y-70163725D01*
X166749936Y-69974874D01*
X166749934Y-69974869D01*
X166749933Y-69974865D01*
X166693135Y-69837745D01*
X166676250Y-69796980D01*
X166569274Y-69636880D01*
X166433120Y-69500726D01*
X166273020Y-69393750D01*
X166273018Y-69393749D01*
X166095134Y-69320066D01*
X166095126Y-69320064D01*
X165906275Y-69282500D01*
X165713725Y-69282500D01*
X165524873Y-69320064D01*
X165524865Y-69320066D01*
X165346979Y-69393750D01*
X165346977Y-69393751D01*
X165186880Y-69500725D01*
X165050725Y-69636880D01*
X164943751Y-69796977D01*
X164943750Y-69796979D01*
X164870066Y-69974865D01*
X164870064Y-69974873D01*
X164832500Y-70163724D01*
X132191500Y-70163724D01*
X132191500Y-67623724D01*
X164832500Y-67623724D01*
X164832500Y-67816275D01*
X164870064Y-68005126D01*
X164870066Y-68005134D01*
X164943750Y-68183020D01*
X164943751Y-68183022D01*
X165050725Y-68343119D01*
X165050726Y-68343120D01*
X165186880Y-68479274D01*
X165346980Y-68586250D01*
X165426299Y-68619105D01*
X165524865Y-68659933D01*
X165524869Y-68659934D01*
X165524874Y-68659936D01*
X165713725Y-68697500D01*
X165906275Y-68697500D01*
X166095126Y-68659936D01*
X166095132Y-68659933D01*
X166095134Y-68659933D01*
X166143992Y-68639694D01*
X166273020Y-68586250D01*
X166433120Y-68479274D01*
X166569274Y-68343120D01*
X166676250Y-68183020D01*
X166749936Y-68005126D01*
X166787500Y-67816275D01*
X166787500Y-67633430D01*
X167250000Y-67633430D01*
X167250000Y-67806569D01*
X167250001Y-67806583D01*
X167277085Y-67977583D01*
X167330590Y-68142254D01*
X167330591Y-68142256D01*
X167409197Y-68296526D01*
X167409201Y-68296533D01*
X167413708Y-68302737D01*
X167867037Y-67849408D01*
X167884075Y-67912993D01*
X167949901Y-68027007D01*
X168042993Y-68120099D01*
X168157007Y-68185925D01*
X168220590Y-68202962D01*
X167767261Y-68656290D01*
X167773471Y-68660801D01*
X167927743Y-68739408D01*
X167927745Y-68739409D01*
X168092417Y-68792914D01*
X168092416Y-68792914D01*
X168263416Y-68819998D01*
X168263430Y-68820000D01*
X168436570Y-68820000D01*
X168436583Y-68819998D01*
X168607583Y-68792914D01*
X168772254Y-68739409D01*
X168772256Y-68739408D01*
X168926525Y-68660803D01*
X168932736Y-68656289D01*
X168479409Y-68202962D01*
X168542993Y-68185925D01*
X168657007Y-68120099D01*
X168750099Y-68027007D01*
X168815925Y-67912993D01*
X168832962Y-67849409D01*
X169286289Y-68302736D01*
X169290803Y-68296525D01*
X169369408Y-68142256D01*
X169369409Y-68142254D01*
X169422914Y-67977583D01*
X169449998Y-67806583D01*
X169450000Y-67806569D01*
X169450000Y-67633430D01*
X169449998Y-67633416D01*
X169422914Y-67462416D01*
X169369409Y-67297745D01*
X169369408Y-67297743D01*
X169290801Y-67143471D01*
X169286289Y-67137261D01*
X168832962Y-67590589D01*
X168815925Y-67527007D01*
X168750099Y-67412993D01*
X168657007Y-67319901D01*
X168542993Y-67254075D01*
X168479407Y-67237037D01*
X168932737Y-66783708D01*
X168926533Y-66779201D01*
X168926526Y-66779197D01*
X168772256Y-66700591D01*
X168772254Y-66700590D01*
X168607582Y-66647085D01*
X168607583Y-66647085D01*
X168436583Y-66620001D01*
X168436570Y-66620000D01*
X168263430Y-66620000D01*
X168263416Y-66620001D01*
X168092416Y-66647085D01*
X167927745Y-66700590D01*
X167927743Y-66700591D01*
X167773472Y-66779197D01*
X167767261Y-66783708D01*
X168220590Y-67237037D01*
X168157007Y-67254075D01*
X168042993Y-67319901D01*
X167949901Y-67412993D01*
X167884075Y-67527007D01*
X167867037Y-67590590D01*
X167413708Y-67137261D01*
X167409197Y-67143472D01*
X167330591Y-67297743D01*
X167330590Y-67297745D01*
X167277085Y-67462416D01*
X167250001Y-67633416D01*
X167250000Y-67633430D01*
X166787500Y-67633430D01*
X166787500Y-67623725D01*
X166749936Y-67434874D01*
X166749934Y-67434869D01*
X166749933Y-67434865D01*
X166693135Y-67297745D01*
X166676250Y-67256980D01*
X166569274Y-67096880D01*
X166433120Y-66960726D01*
X166273020Y-66853750D01*
X166273018Y-66853749D01*
X166095134Y-66780066D01*
X166095126Y-66780064D01*
X165906275Y-66742500D01*
X165713725Y-66742500D01*
X165524873Y-66780064D01*
X165524865Y-66780066D01*
X165346979Y-66853750D01*
X165346977Y-66853751D01*
X165186880Y-66960725D01*
X165050725Y-67096880D01*
X164943751Y-67256977D01*
X164943750Y-67256979D01*
X164870066Y-67434865D01*
X164870064Y-67434873D01*
X164832500Y-67623724D01*
X132191500Y-67623724D01*
X132191500Y-65083724D01*
X164832500Y-65083724D01*
X164832500Y-65276275D01*
X164870064Y-65465126D01*
X164870066Y-65465134D01*
X164943750Y-65643020D01*
X164943751Y-65643022D01*
X165050725Y-65803119D01*
X165050726Y-65803120D01*
X165186880Y-65939274D01*
X165346980Y-66046250D01*
X165426299Y-66079105D01*
X165524865Y-66119933D01*
X165524869Y-66119934D01*
X165524874Y-66119936D01*
X165713725Y-66157500D01*
X165906275Y-66157500D01*
X166095126Y-66119936D01*
X166095132Y-66119933D01*
X166095134Y-66119933D01*
X166143992Y-66099694D01*
X166273020Y-66046250D01*
X166433120Y-65939274D01*
X166569274Y-65803120D01*
X166676250Y-65643020D01*
X166749936Y-65465126D01*
X166787500Y-65276275D01*
X166787500Y-65093430D01*
X167250000Y-65093430D01*
X167250000Y-65266569D01*
X167250001Y-65266583D01*
X167277085Y-65437583D01*
X167330590Y-65602254D01*
X167330591Y-65602256D01*
X167409197Y-65756526D01*
X167409201Y-65756533D01*
X167413708Y-65762737D01*
X167867037Y-65309408D01*
X167884075Y-65372993D01*
X167949901Y-65487007D01*
X168042993Y-65580099D01*
X168157007Y-65645925D01*
X168220590Y-65662962D01*
X167767261Y-66116290D01*
X167773471Y-66120801D01*
X167927743Y-66199408D01*
X167927745Y-66199409D01*
X168092417Y-66252914D01*
X168092416Y-66252914D01*
X168263416Y-66279998D01*
X168263430Y-66280000D01*
X168436570Y-66280000D01*
X168436583Y-66279998D01*
X168607583Y-66252914D01*
X168772254Y-66199409D01*
X168772256Y-66199408D01*
X168926525Y-66120803D01*
X168932736Y-66116289D01*
X168479409Y-65662962D01*
X168542993Y-65645925D01*
X168657007Y-65580099D01*
X168750099Y-65487007D01*
X168815925Y-65372993D01*
X168832962Y-65309409D01*
X169286289Y-65762736D01*
X169290803Y-65756525D01*
X169369408Y-65602256D01*
X169369409Y-65602254D01*
X169422914Y-65437583D01*
X169449998Y-65266583D01*
X169450000Y-65266569D01*
X169450000Y-65093430D01*
X169449998Y-65093416D01*
X169422914Y-64922416D01*
X169369409Y-64757745D01*
X169369408Y-64757743D01*
X169290801Y-64603471D01*
X169286289Y-64597261D01*
X168832962Y-65050589D01*
X168815925Y-64987007D01*
X168750099Y-64872993D01*
X168657007Y-64779901D01*
X168542993Y-64714075D01*
X168479407Y-64697037D01*
X168932737Y-64243708D01*
X168926533Y-64239201D01*
X168926526Y-64239197D01*
X168772256Y-64160591D01*
X168772254Y-64160590D01*
X168607582Y-64107085D01*
X168607583Y-64107085D01*
X168436583Y-64080001D01*
X168436570Y-64080000D01*
X168263430Y-64080000D01*
X168263416Y-64080001D01*
X168092416Y-64107085D01*
X167927745Y-64160590D01*
X167927743Y-64160591D01*
X167773472Y-64239197D01*
X167767261Y-64243708D01*
X168220590Y-64697037D01*
X168157007Y-64714075D01*
X168042993Y-64779901D01*
X167949901Y-64872993D01*
X167884075Y-64987007D01*
X167867037Y-65050590D01*
X167413708Y-64597261D01*
X167409197Y-64603472D01*
X167330591Y-64757743D01*
X167330590Y-64757745D01*
X167277085Y-64922416D01*
X167250001Y-65093416D01*
X167250000Y-65093430D01*
X166787500Y-65093430D01*
X166787500Y-65083725D01*
X166749936Y-64894874D01*
X166749934Y-64894869D01*
X166749933Y-64894865D01*
X166693135Y-64757745D01*
X166676250Y-64716980D01*
X166569274Y-64556880D01*
X166433120Y-64420726D01*
X166273020Y-64313750D01*
X166273018Y-64313749D01*
X166095134Y-64240066D01*
X166095126Y-64240064D01*
X165906275Y-64202500D01*
X165713725Y-64202500D01*
X165524873Y-64240064D01*
X165524865Y-64240066D01*
X165346979Y-64313750D01*
X165346977Y-64313751D01*
X165186880Y-64420725D01*
X165050725Y-64556880D01*
X164943751Y-64716977D01*
X164943750Y-64716979D01*
X164870066Y-64894865D01*
X164870064Y-64894873D01*
X164832500Y-65083724D01*
X132191500Y-65083724D01*
X132191500Y-62543724D01*
X164832500Y-62543724D01*
X164832500Y-62736275D01*
X164870064Y-62925126D01*
X164870066Y-62925134D01*
X164943750Y-63103020D01*
X164943751Y-63103022D01*
X165050725Y-63263119D01*
X165050726Y-63263120D01*
X165186880Y-63399274D01*
X165346980Y-63506250D01*
X165426299Y-63539105D01*
X165524865Y-63579933D01*
X165524869Y-63579934D01*
X165524874Y-63579936D01*
X165713725Y-63617500D01*
X165906275Y-63617500D01*
X166095126Y-63579936D01*
X166095132Y-63579933D01*
X166095134Y-63579933D01*
X166143992Y-63559694D01*
X166273020Y-63506250D01*
X166433120Y-63399274D01*
X166569274Y-63263120D01*
X166676250Y-63103020D01*
X166749936Y-62925126D01*
X166787500Y-62736275D01*
X166787500Y-62553430D01*
X167250000Y-62553430D01*
X167250000Y-62726569D01*
X167250001Y-62726583D01*
X167277085Y-62897583D01*
X167330590Y-63062254D01*
X167330591Y-63062256D01*
X167409197Y-63216526D01*
X167409201Y-63216533D01*
X167413708Y-63222737D01*
X167867037Y-62769408D01*
X167884075Y-62832993D01*
X167949901Y-62947007D01*
X168042993Y-63040099D01*
X168157007Y-63105925D01*
X168220590Y-63122962D01*
X167767261Y-63576290D01*
X167773471Y-63580801D01*
X167927743Y-63659408D01*
X167927745Y-63659409D01*
X168092417Y-63712914D01*
X168092416Y-63712914D01*
X168263416Y-63739998D01*
X168263430Y-63740000D01*
X168436570Y-63740000D01*
X168436583Y-63739998D01*
X168607583Y-63712914D01*
X168772254Y-63659409D01*
X168772256Y-63659408D01*
X168926525Y-63580803D01*
X168932736Y-63576289D01*
X168479409Y-63122962D01*
X168542993Y-63105925D01*
X168657007Y-63040099D01*
X168750099Y-62947007D01*
X168815925Y-62832993D01*
X168832962Y-62769409D01*
X169286289Y-63222736D01*
X169290803Y-63216525D01*
X169369408Y-63062256D01*
X169369409Y-63062254D01*
X169422914Y-62897583D01*
X169449998Y-62726583D01*
X169450000Y-62726569D01*
X169450000Y-62553430D01*
X169449998Y-62553416D01*
X169422914Y-62382416D01*
X169369409Y-62217745D01*
X169369408Y-62217743D01*
X169290801Y-62063471D01*
X169286289Y-62057261D01*
X168832962Y-62510589D01*
X168815925Y-62447007D01*
X168750099Y-62332993D01*
X168657007Y-62239901D01*
X168542993Y-62174075D01*
X168479407Y-62157037D01*
X168932737Y-61703708D01*
X168926533Y-61699201D01*
X168926526Y-61699197D01*
X168772256Y-61620591D01*
X168772254Y-61620590D01*
X168607582Y-61567085D01*
X168607583Y-61567085D01*
X168436583Y-61540001D01*
X168436570Y-61540000D01*
X168263430Y-61540000D01*
X168263416Y-61540001D01*
X168092416Y-61567085D01*
X167927745Y-61620590D01*
X167927743Y-61620591D01*
X167773472Y-61699197D01*
X167767261Y-61703708D01*
X168220590Y-62157037D01*
X168157007Y-62174075D01*
X168042993Y-62239901D01*
X167949901Y-62332993D01*
X167884075Y-62447007D01*
X167867037Y-62510590D01*
X167413708Y-62057261D01*
X167409197Y-62063472D01*
X167330591Y-62217743D01*
X167330590Y-62217745D01*
X167277085Y-62382416D01*
X167250001Y-62553416D01*
X167250000Y-62553430D01*
X166787500Y-62553430D01*
X166787500Y-62543725D01*
X166749936Y-62354874D01*
X166749934Y-62354869D01*
X166749933Y-62354865D01*
X166693135Y-62217745D01*
X166676250Y-62176980D01*
X166569274Y-62016880D01*
X166433120Y-61880726D01*
X166273020Y-61773750D01*
X166273018Y-61773749D01*
X166095134Y-61700066D01*
X166095126Y-61700064D01*
X165906275Y-61662500D01*
X165713725Y-61662500D01*
X165524873Y-61700064D01*
X165524865Y-61700066D01*
X165346979Y-61773750D01*
X165346977Y-61773751D01*
X165186880Y-61880725D01*
X165050725Y-62016880D01*
X164943751Y-62176977D01*
X164943750Y-62176979D01*
X164870066Y-62354865D01*
X164870064Y-62354873D01*
X164832500Y-62543724D01*
X132191500Y-62543724D01*
X132191500Y-58947442D01*
X146517500Y-58947442D01*
X146517500Y-60672558D01*
X146518291Y-60676533D01*
X146524898Y-60709748D01*
X146524898Y-60709749D01*
X146553077Y-60751922D01*
X146581257Y-60770750D01*
X146595252Y-60780102D01*
X146632442Y-60787500D01*
X146632443Y-60787500D01*
X148357557Y-60787500D01*
X148357558Y-60787500D01*
X148394748Y-60780102D01*
X148436922Y-60751922D01*
X148465102Y-60709748D01*
X148472500Y-60672558D01*
X148472500Y-60225554D01*
X154247500Y-60225554D01*
X154247500Y-60364445D01*
X154247501Y-60364453D01*
X154283446Y-60498603D01*
X154283447Y-60498606D01*
X154352896Y-60618894D01*
X154352899Y-60618898D01*
X154451101Y-60717100D01*
X154451105Y-60717103D01*
X154451107Y-60717105D01*
X154560220Y-60780101D01*
X154571393Y-60786552D01*
X154571396Y-60786553D01*
X154653495Y-60808551D01*
X154705553Y-60822500D01*
X154705554Y-60822500D01*
X154844446Y-60822500D01*
X154844447Y-60822500D01*
X154978607Y-60786552D01*
X155098893Y-60717105D01*
X155197105Y-60618893D01*
X155266552Y-60498607D01*
X155302500Y-60364447D01*
X155302500Y-60225553D01*
X155266552Y-60091393D01*
X155215936Y-60003724D01*
X164832500Y-60003724D01*
X164832500Y-60196275D01*
X164870064Y-60385126D01*
X164870066Y-60385134D01*
X164943750Y-60563020D01*
X164943751Y-60563022D01*
X165046707Y-60717105D01*
X165050726Y-60723120D01*
X165186880Y-60859274D01*
X165346980Y-60966250D01*
X165426299Y-60999105D01*
X165524865Y-61039933D01*
X165524869Y-61039934D01*
X165524874Y-61039936D01*
X165713725Y-61077500D01*
X165906275Y-61077500D01*
X166095126Y-61039936D01*
X166095132Y-61039933D01*
X166095134Y-61039933D01*
X166143992Y-61019694D01*
X166273020Y-60966250D01*
X166433120Y-60859274D01*
X166569274Y-60723120D01*
X166676250Y-60563020D01*
X166749936Y-60385126D01*
X166787500Y-60196275D01*
X166787500Y-60013430D01*
X167250000Y-60013430D01*
X167250000Y-60186569D01*
X167250001Y-60186583D01*
X167277085Y-60357583D01*
X167330590Y-60522254D01*
X167330591Y-60522256D01*
X167409197Y-60676526D01*
X167409201Y-60676533D01*
X167413708Y-60682737D01*
X167867037Y-60229408D01*
X167884075Y-60292993D01*
X167949901Y-60407007D01*
X168042993Y-60500099D01*
X168157007Y-60565925D01*
X168220590Y-60582962D01*
X167767261Y-61036290D01*
X167773471Y-61040801D01*
X167927743Y-61119408D01*
X167927745Y-61119409D01*
X168092417Y-61172914D01*
X168092416Y-61172914D01*
X168263416Y-61199998D01*
X168263430Y-61200000D01*
X168436570Y-61200000D01*
X168436583Y-61199998D01*
X168607583Y-61172914D01*
X168772254Y-61119409D01*
X168772256Y-61119408D01*
X168926525Y-61040803D01*
X168932736Y-61036289D01*
X168479409Y-60582962D01*
X168542993Y-60565925D01*
X168657007Y-60500099D01*
X168750099Y-60407007D01*
X168815925Y-60292993D01*
X168832962Y-60229409D01*
X169286289Y-60682736D01*
X169290803Y-60676525D01*
X169369408Y-60522256D01*
X169369409Y-60522254D01*
X169422914Y-60357583D01*
X169449998Y-60186583D01*
X169450000Y-60186569D01*
X169450000Y-60013430D01*
X169449998Y-60013416D01*
X169422914Y-59842416D01*
X169369409Y-59677745D01*
X169369408Y-59677743D01*
X169290801Y-59523471D01*
X169286289Y-59517261D01*
X168832962Y-59970589D01*
X168815925Y-59907007D01*
X168750099Y-59792993D01*
X168657007Y-59699901D01*
X168542993Y-59634075D01*
X168479407Y-59617037D01*
X168932737Y-59163708D01*
X168926533Y-59159201D01*
X168926526Y-59159197D01*
X168772256Y-59080591D01*
X168772254Y-59080590D01*
X168607582Y-59027085D01*
X168607583Y-59027085D01*
X168436583Y-59000001D01*
X168436570Y-59000000D01*
X168263430Y-59000000D01*
X168263416Y-59000001D01*
X168092416Y-59027085D01*
X167927745Y-59080590D01*
X167927743Y-59080591D01*
X167773472Y-59159197D01*
X167767261Y-59163708D01*
X168220590Y-59617037D01*
X168157007Y-59634075D01*
X168042993Y-59699901D01*
X167949901Y-59792993D01*
X167884075Y-59907007D01*
X167867037Y-59970590D01*
X167413708Y-59517261D01*
X167409197Y-59523472D01*
X167330591Y-59677743D01*
X167330590Y-59677745D01*
X167277085Y-59842416D01*
X167250001Y-60013416D01*
X167250000Y-60013430D01*
X166787500Y-60013430D01*
X166787500Y-60003725D01*
X166749936Y-59814874D01*
X166749934Y-59814869D01*
X166749933Y-59814865D01*
X166693135Y-59677745D01*
X166676250Y-59636980D01*
X166569274Y-59476880D01*
X166433120Y-59340726D01*
X166273020Y-59233750D01*
X166273018Y-59233749D01*
X166095134Y-59160066D01*
X166095126Y-59160064D01*
X165906275Y-59122500D01*
X165713725Y-59122500D01*
X165524873Y-59160064D01*
X165524865Y-59160066D01*
X165346979Y-59233750D01*
X165346977Y-59233751D01*
X165186880Y-59340725D01*
X165050725Y-59476880D01*
X164943751Y-59636977D01*
X164943750Y-59636979D01*
X164870066Y-59814865D01*
X164870064Y-59814873D01*
X164832500Y-60003724D01*
X155215936Y-60003724D01*
X155197105Y-59971107D01*
X155197103Y-59971105D01*
X155197100Y-59971101D01*
X155098898Y-59872899D01*
X155098894Y-59872896D01*
X155098893Y-59872895D01*
X155038750Y-59838171D01*
X154978606Y-59803447D01*
X154978603Y-59803446D01*
X154844453Y-59767501D01*
X154844448Y-59767500D01*
X154844447Y-59767500D01*
X154705553Y-59767500D01*
X154705552Y-59767500D01*
X154705546Y-59767501D01*
X154571396Y-59803446D01*
X154571393Y-59803447D01*
X154451105Y-59872896D01*
X154451101Y-59872899D01*
X154352899Y-59971101D01*
X154352896Y-59971105D01*
X154283447Y-60091393D01*
X154283446Y-60091396D01*
X154247501Y-60225546D01*
X154247500Y-60225554D01*
X148472500Y-60225554D01*
X148472500Y-58947442D01*
X148465102Y-58910252D01*
X148465101Y-58910250D01*
X148436922Y-58868077D01*
X148394748Y-58839898D01*
X148357558Y-58832500D01*
X146632442Y-58832500D01*
X146613847Y-58836199D01*
X146595251Y-58839898D01*
X146595250Y-58839898D01*
X146553077Y-58868077D01*
X146524898Y-58910250D01*
X146524898Y-58910251D01*
X146524898Y-58910252D01*
X146517500Y-58947442D01*
X132191500Y-58947442D01*
X132191500Y-57173724D01*
X146517500Y-57173724D01*
X146517500Y-57366275D01*
X146555064Y-57555126D01*
X146555066Y-57555134D01*
X146628750Y-57733020D01*
X146628751Y-57733022D01*
X146735725Y-57893119D01*
X146735726Y-57893120D01*
X146871880Y-58029274D01*
X147031980Y-58136250D01*
X147111299Y-58169105D01*
X147209865Y-58209933D01*
X147209869Y-58209934D01*
X147209874Y-58209936D01*
X147398725Y-58247500D01*
X147591275Y-58247500D01*
X147780126Y-58209936D01*
X147780132Y-58209933D01*
X147780134Y-58209933D01*
X147826919Y-58190554D01*
X160452500Y-58190554D01*
X160452500Y-58329445D01*
X160452501Y-58329453D01*
X160488446Y-58463603D01*
X160488447Y-58463606D01*
X160509922Y-58500801D01*
X160555306Y-58579409D01*
X160557896Y-58583894D01*
X160557899Y-58583898D01*
X160656101Y-58682100D01*
X160656105Y-58682103D01*
X160656107Y-58682105D01*
X160776393Y-58751552D01*
X160776396Y-58751553D01*
X160858495Y-58773551D01*
X160910553Y-58787500D01*
X160910554Y-58787500D01*
X161049446Y-58787500D01*
X161049447Y-58787500D01*
X161183607Y-58751552D01*
X161303893Y-58682105D01*
X161402105Y-58583893D01*
X161471552Y-58463607D01*
X161507500Y-58329447D01*
X161507500Y-58190553D01*
X161492478Y-58134490D01*
X161471553Y-58056396D01*
X161471552Y-58056393D01*
X161428749Y-57982256D01*
X161402105Y-57936107D01*
X161402103Y-57936105D01*
X161402100Y-57936101D01*
X161303898Y-57837899D01*
X161303894Y-57837896D01*
X161303893Y-57837895D01*
X161243750Y-57803171D01*
X161183606Y-57768447D01*
X161183603Y-57768446D01*
X161049453Y-57732501D01*
X161049448Y-57732500D01*
X161049447Y-57732500D01*
X160910553Y-57732500D01*
X160910552Y-57732500D01*
X160910546Y-57732501D01*
X160776396Y-57768446D01*
X160776393Y-57768447D01*
X160656105Y-57837896D01*
X160656101Y-57837899D01*
X160557899Y-57936101D01*
X160557896Y-57936105D01*
X160488447Y-58056393D01*
X160488446Y-58056396D01*
X160452501Y-58190546D01*
X160452500Y-58190554D01*
X147826919Y-58190554D01*
X147826938Y-58190546D01*
X147958020Y-58136250D01*
X148118120Y-58029274D01*
X148254274Y-57893120D01*
X148361250Y-57733020D01*
X148434936Y-57555126D01*
X148453117Y-57463724D01*
X164832500Y-57463724D01*
X164832500Y-57656275D01*
X164870064Y-57845126D01*
X164870066Y-57845134D01*
X164943750Y-58023020D01*
X164943751Y-58023022D01*
X165050725Y-58183119D01*
X165050726Y-58183120D01*
X165186880Y-58319274D01*
X165346980Y-58426250D01*
X165426299Y-58459105D01*
X165524865Y-58499933D01*
X165524869Y-58499934D01*
X165524874Y-58499936D01*
X165713725Y-58537500D01*
X165906275Y-58537500D01*
X166095126Y-58499936D01*
X166095132Y-58499933D01*
X166095134Y-58499933D01*
X166143992Y-58479694D01*
X166273020Y-58426250D01*
X166433120Y-58319274D01*
X166569274Y-58183120D01*
X166676250Y-58023020D01*
X166749936Y-57845126D01*
X166787500Y-57656275D01*
X166787500Y-57473430D01*
X167250000Y-57473430D01*
X167250000Y-57646569D01*
X167250001Y-57646583D01*
X167277085Y-57817583D01*
X167330590Y-57982254D01*
X167330591Y-57982256D01*
X167409197Y-58136526D01*
X167409201Y-58136533D01*
X167413708Y-58142737D01*
X167867037Y-57689408D01*
X167884075Y-57752993D01*
X167949901Y-57867007D01*
X168042993Y-57960099D01*
X168157007Y-58025925D01*
X168220590Y-58042962D01*
X167767261Y-58496290D01*
X167773471Y-58500801D01*
X167927743Y-58579408D01*
X167927745Y-58579409D01*
X168092417Y-58632914D01*
X168092416Y-58632914D01*
X168263416Y-58659998D01*
X168263430Y-58660000D01*
X168436570Y-58660000D01*
X168436583Y-58659998D01*
X168607583Y-58632914D01*
X168772254Y-58579409D01*
X168772256Y-58579408D01*
X168926525Y-58500803D01*
X168932736Y-58496289D01*
X168479409Y-58042962D01*
X168542993Y-58025925D01*
X168657007Y-57960099D01*
X168750099Y-57867007D01*
X168815925Y-57752993D01*
X168832962Y-57689409D01*
X169286289Y-58142736D01*
X169290803Y-58136525D01*
X169369408Y-57982256D01*
X169369409Y-57982254D01*
X169422914Y-57817583D01*
X169449998Y-57646583D01*
X169450000Y-57646569D01*
X169450000Y-57473430D01*
X169449998Y-57473416D01*
X169422914Y-57302416D01*
X169369409Y-57137745D01*
X169369408Y-57137743D01*
X169290801Y-56983471D01*
X169286289Y-56977261D01*
X168832962Y-57430589D01*
X168815925Y-57367007D01*
X168750099Y-57252993D01*
X168657007Y-57159901D01*
X168542993Y-57094075D01*
X168479407Y-57077037D01*
X168932737Y-56623708D01*
X168926533Y-56619201D01*
X168926526Y-56619197D01*
X168772256Y-56540591D01*
X168772254Y-56540590D01*
X168607582Y-56487085D01*
X168607583Y-56487085D01*
X168436583Y-56460001D01*
X168436570Y-56460000D01*
X168263430Y-56460000D01*
X168263416Y-56460001D01*
X168092416Y-56487085D01*
X167927745Y-56540590D01*
X167927743Y-56540591D01*
X167773472Y-56619197D01*
X167767261Y-56623708D01*
X168220590Y-57077037D01*
X168157007Y-57094075D01*
X168042993Y-57159901D01*
X167949901Y-57252993D01*
X167884075Y-57367007D01*
X167867037Y-57430590D01*
X167413708Y-56977261D01*
X167409197Y-56983472D01*
X167330591Y-57137743D01*
X167330590Y-57137745D01*
X167277085Y-57302416D01*
X167250001Y-57473416D01*
X167250000Y-57473430D01*
X166787500Y-57473430D01*
X166787500Y-57463725D01*
X166749936Y-57274874D01*
X166749934Y-57274869D01*
X166749933Y-57274865D01*
X166693135Y-57137745D01*
X166676250Y-57096980D01*
X166569274Y-56936880D01*
X166433120Y-56800726D01*
X166273020Y-56693750D01*
X166273018Y-56693749D01*
X166095134Y-56620066D01*
X166095126Y-56620064D01*
X165906275Y-56582500D01*
X165713725Y-56582500D01*
X165524873Y-56620064D01*
X165524865Y-56620066D01*
X165346979Y-56693750D01*
X165346977Y-56693751D01*
X165186880Y-56800725D01*
X165050725Y-56936880D01*
X164943751Y-57096977D01*
X164943750Y-57096979D01*
X164870066Y-57274865D01*
X164870064Y-57274873D01*
X164832500Y-57463724D01*
X148453117Y-57463724D01*
X148472500Y-57366275D01*
X148472500Y-57173725D01*
X148434936Y-56984874D01*
X148434934Y-56984869D01*
X148434933Y-56984865D01*
X148394105Y-56886299D01*
X148361250Y-56806980D01*
X148254274Y-56646880D01*
X148118120Y-56510726D01*
X148082739Y-56487085D01*
X147958022Y-56403751D01*
X147958020Y-56403750D01*
X147780134Y-56330066D01*
X147780126Y-56330064D01*
X147591275Y-56292500D01*
X147398725Y-56292500D01*
X147209873Y-56330064D01*
X147209865Y-56330066D01*
X147031979Y-56403750D01*
X147031977Y-56403751D01*
X146871880Y-56510725D01*
X146735725Y-56646880D01*
X146628751Y-56806977D01*
X146628750Y-56806979D01*
X146555066Y-56984865D01*
X146555064Y-56984873D01*
X146517500Y-57173724D01*
X132191500Y-57173724D01*
X132191500Y-54910554D01*
X142182500Y-54910554D01*
X142182500Y-55049445D01*
X142182501Y-55049453D01*
X142218446Y-55183603D01*
X142218447Y-55183606D01*
X142287896Y-55303894D01*
X142287899Y-55303898D01*
X142386101Y-55402100D01*
X142386105Y-55402103D01*
X142386107Y-55402105D01*
X142455651Y-55442256D01*
X142506393Y-55471552D01*
X142506396Y-55471553D01*
X142560034Y-55485925D01*
X142640553Y-55507500D01*
X142640554Y-55507500D01*
X142779446Y-55507500D01*
X142779447Y-55507500D01*
X142913607Y-55471552D01*
X143033893Y-55402105D01*
X143132105Y-55303893D01*
X143201552Y-55183607D01*
X143219594Y-55116275D01*
X143221127Y-55110554D01*
X157902500Y-55110554D01*
X157902500Y-55249445D01*
X157902501Y-55249453D01*
X157938446Y-55383603D01*
X157938447Y-55383606D01*
X158007896Y-55503894D01*
X158007899Y-55503898D01*
X158106101Y-55602100D01*
X158106105Y-55602103D01*
X158106107Y-55602105D01*
X158226393Y-55671552D01*
X158226396Y-55671553D01*
X158308495Y-55693551D01*
X158360553Y-55707500D01*
X158360554Y-55707500D01*
X158499446Y-55707500D01*
X158499447Y-55707500D01*
X158633607Y-55671552D01*
X158753893Y-55602105D01*
X158852105Y-55503893D01*
X158921552Y-55383607D01*
X158957500Y-55249447D01*
X158957500Y-55110553D01*
X158941126Y-55049445D01*
X158921553Y-54976396D01*
X158921551Y-54976391D01*
X158917966Y-54970182D01*
X158891144Y-54923724D01*
X164832500Y-54923724D01*
X164832500Y-55116275D01*
X164870064Y-55305126D01*
X164870066Y-55305134D01*
X164943750Y-55483020D01*
X164943751Y-55483022D01*
X165050725Y-55643119D01*
X165050726Y-55643120D01*
X165186880Y-55779274D01*
X165346980Y-55886250D01*
X165426299Y-55919105D01*
X165524865Y-55959933D01*
X165524869Y-55959934D01*
X165524874Y-55959936D01*
X165616096Y-55978080D01*
X165648096Y-55995185D01*
X165666970Y-56014059D01*
X165759775Y-56052500D01*
X165759776Y-56052500D01*
X165860224Y-56052500D01*
X165860225Y-56052500D01*
X165953030Y-56014059D01*
X165971903Y-55995185D01*
X166003902Y-55978080D01*
X166095126Y-55959936D01*
X166095131Y-55959933D01*
X166095134Y-55959933D01*
X166143992Y-55939694D01*
X166273020Y-55886250D01*
X166433120Y-55779274D01*
X166569274Y-55643120D01*
X166676250Y-55483020D01*
X166749936Y-55305126D01*
X166787500Y-55116275D01*
X166787500Y-54933430D01*
X167250000Y-54933430D01*
X167250000Y-55106569D01*
X167250001Y-55106583D01*
X167277085Y-55277583D01*
X167330590Y-55442254D01*
X167330591Y-55442256D01*
X167409197Y-55596526D01*
X167409201Y-55596533D01*
X167413708Y-55602737D01*
X167867037Y-55149408D01*
X167884075Y-55212993D01*
X167949901Y-55327007D01*
X168042993Y-55420099D01*
X168157007Y-55485925D01*
X168220590Y-55502962D01*
X167767261Y-55956290D01*
X167773471Y-55960801D01*
X167927743Y-56039408D01*
X167927745Y-56039409D01*
X168092417Y-56092914D01*
X168092416Y-56092914D01*
X168263416Y-56119998D01*
X168263430Y-56120000D01*
X168436570Y-56120000D01*
X168436583Y-56119998D01*
X168607583Y-56092914D01*
X168772254Y-56039409D01*
X168772256Y-56039408D01*
X168926525Y-55960803D01*
X168932736Y-55956289D01*
X168479409Y-55502962D01*
X168542993Y-55485925D01*
X168657007Y-55420099D01*
X168750099Y-55327007D01*
X168815925Y-55212993D01*
X168832962Y-55149409D01*
X169286289Y-55602736D01*
X169290803Y-55596525D01*
X169369408Y-55442256D01*
X169369409Y-55442254D01*
X169422914Y-55277583D01*
X169449998Y-55106583D01*
X169450000Y-55106569D01*
X169450000Y-54933430D01*
X169449998Y-54933416D01*
X169422914Y-54762416D01*
X169369409Y-54597745D01*
X169369408Y-54597743D01*
X169290801Y-54443471D01*
X169286289Y-54437261D01*
X168832962Y-54890589D01*
X168815925Y-54827007D01*
X168750099Y-54712993D01*
X168657007Y-54619901D01*
X168542993Y-54554075D01*
X168479407Y-54537037D01*
X168932737Y-54083708D01*
X168926533Y-54079201D01*
X168926526Y-54079197D01*
X168772256Y-54000591D01*
X168772254Y-54000590D01*
X168607582Y-53947085D01*
X168607583Y-53947085D01*
X168436583Y-53920001D01*
X168436570Y-53920000D01*
X168263430Y-53920000D01*
X168263416Y-53920001D01*
X168092416Y-53947085D01*
X167927745Y-54000590D01*
X167927743Y-54000591D01*
X167773472Y-54079197D01*
X167767261Y-54083708D01*
X168220590Y-54537037D01*
X168157007Y-54554075D01*
X168042993Y-54619901D01*
X167949901Y-54712993D01*
X167884075Y-54827007D01*
X167867037Y-54890590D01*
X167413708Y-54437261D01*
X167409197Y-54443472D01*
X167330591Y-54597743D01*
X167330590Y-54597745D01*
X167277085Y-54762416D01*
X167250001Y-54933416D01*
X167250000Y-54933430D01*
X166787500Y-54933430D01*
X166787500Y-54923725D01*
X166749936Y-54734874D01*
X166749934Y-54734869D01*
X166749933Y-54734865D01*
X166693135Y-54597745D01*
X166676250Y-54556980D01*
X166569274Y-54396880D01*
X166433120Y-54260726D01*
X166273020Y-54153750D01*
X166273018Y-54153749D01*
X166095134Y-54080066D01*
X166095126Y-54080064D01*
X165906275Y-54042500D01*
X165713725Y-54042500D01*
X165524873Y-54080064D01*
X165524865Y-54080066D01*
X165346979Y-54153750D01*
X165346977Y-54153751D01*
X165186880Y-54260725D01*
X165050725Y-54396880D01*
X164943751Y-54556977D01*
X164943750Y-54556979D01*
X164870066Y-54734865D01*
X164870064Y-54734873D01*
X164832500Y-54923724D01*
X158891144Y-54923724D01*
X158852105Y-54856107D01*
X158852103Y-54856105D01*
X158852100Y-54856101D01*
X158753898Y-54757899D01*
X158753894Y-54757896D01*
X158753893Y-54757895D01*
X158676120Y-54712993D01*
X158633606Y-54688447D01*
X158633603Y-54688446D01*
X158499453Y-54652501D01*
X158499448Y-54652500D01*
X158499447Y-54652500D01*
X158360553Y-54652500D01*
X158360552Y-54652500D01*
X158360546Y-54652501D01*
X158226396Y-54688446D01*
X158226393Y-54688447D01*
X158106105Y-54757896D01*
X158106101Y-54757899D01*
X158007899Y-54856101D01*
X158007896Y-54856105D01*
X157938447Y-54976393D01*
X157938446Y-54976396D01*
X157902501Y-55110546D01*
X157902500Y-55110554D01*
X143221127Y-55110554D01*
X143226559Y-55090281D01*
X143226559Y-55090280D01*
X143237499Y-55049451D01*
X143237500Y-55049445D01*
X143237500Y-54910554D01*
X143237498Y-54910546D01*
X143201553Y-54776396D01*
X143201552Y-54776393D01*
X143193482Y-54762416D01*
X143132105Y-54656107D01*
X143132103Y-54656105D01*
X143132100Y-54656101D01*
X143033898Y-54557899D01*
X143033894Y-54557896D01*
X143033893Y-54557895D01*
X142968257Y-54520000D01*
X142913606Y-54488447D01*
X142913603Y-54488446D01*
X142779453Y-54452501D01*
X142779448Y-54452500D01*
X142779447Y-54452500D01*
X142640553Y-54452500D01*
X142640552Y-54452500D01*
X142640546Y-54452501D01*
X142506396Y-54488446D01*
X142506393Y-54488447D01*
X142386105Y-54557896D01*
X142386101Y-54557899D01*
X142287899Y-54656101D01*
X142287896Y-54656105D01*
X142218447Y-54776393D01*
X142218446Y-54776396D01*
X142182501Y-54910546D01*
X142182500Y-54910554D01*
X132191500Y-54910554D01*
X132191500Y-48901540D01*
X132191575Y-48898473D01*
X132194164Y-48845775D01*
X132208773Y-48548387D01*
X132209374Y-48542289D01*
X132260580Y-48197089D01*
X132261776Y-48191082D01*
X132346569Y-47852564D01*
X132348341Y-47846725D01*
X132465913Y-47518133D01*
X132468247Y-47512500D01*
X132617463Y-47197009D01*
X132620335Y-47191635D01*
X132799759Y-46892284D01*
X132803146Y-46887215D01*
X133011032Y-46606914D01*
X133014919Y-46602178D01*
X133249282Y-46343597D01*
X133253597Y-46339282D01*
X133512182Y-46104915D01*
X133516914Y-46101032D01*
X133797215Y-45893146D01*
X133802284Y-45889759D01*
X134101635Y-45710335D01*
X134107009Y-45707463D01*
X134422500Y-45558247D01*
X134428133Y-45555913D01*
X134756725Y-45438341D01*
X134762564Y-45436569D01*
X135101090Y-45351774D01*
X135107089Y-45350580D01*
X135452296Y-45299373D01*
X135458387Y-45298773D01*
X135808473Y-45281574D01*
X135811540Y-45281500D01*
X135864851Y-45281500D01*
X136660902Y-45281500D01*
X136705096Y-45299806D01*
G37*
%TD.AperFunction*%
%TD*%
M02*
