%TF.GenerationSoftware,KiCad,Pcbnew,10.0.3*%
%TF.CreationDate,2026-09-06T00:29:23-07:00*%
%TF.ProjectId,OBI Data Interconnect,4f424920-4461-4746-9120-496e74657263,rev?*%
%TF.SameCoordinates,Original*%
%TF.FileFunction,Copper,L4,Bot*%
%TF.FilePolarity,Positive*%
%FSLAX46Y46*%
G04 Gerber Fmt 4.6, Leading zero omitted, Abs format (unit mm)*
G04 Created by KiCad (PCBNEW 10.0.3) date 2026-09-06 00:29:23*
%MOMM*%
%LPD*%
G01*
G04 APERTURE LIST*
G04 Aperture macros list*
%AMRoundRect*
0 Rectangle with rounded corners*
0 $1 Rounding radius*
0 $2 $3 $4 $5 $6 $7 $8 $9 X,Y pos of 4 corners*
0 Add a 4 corners polygon primitive as box body*
4,1,4,$2,$3,$4,$5,$6,$7,$8,$9,$2,$3,0*
0 Add four circle primitives for the rounded corners*
1,1,$1+$1,$2,$3*
1,1,$1+$1,$4,$5*
1,1,$1+$1,$6,$7*
1,1,$1+$1,$8,$9*
0 Add four rect primitives between the rounded corners*
20,1,$1+$1,$2,$3,$4,$5,0*
20,1,$1+$1,$4,$5,$6,$7,0*
20,1,$1+$1,$6,$7,$8,$9,0*
20,1,$1+$1,$8,$9,$2,$3,0*%
%AMRotRect*
0 Rectangle, with rotation*
0 The origin of the aperture is its center*
0 $1 length*
0 $2 width*
0 $3 Rotation angle, in degrees counterclockwise*
0 Add horizontal line*
21,1,$1,$2,0,0,$3*%
G04 Aperture macros list end*
%TA.AperFunction,ComponentPad*%
%ADD10RoundRect,0.250000X-0.600000X-0.600000X0.600000X-0.600000X0.600000X0.600000X-0.600000X0.600000X0*%
%TD*%
%TA.AperFunction,ComponentPad*%
%ADD11C,1.700000*%
%TD*%
%TA.AperFunction,ComponentPad*%
%ADD12C,0.800000*%
%TD*%
%TA.AperFunction,ComponentPad*%
%ADD13C,7.000000*%
%TD*%
%TA.AperFunction,ComponentPad*%
%ADD14R,1.700000X1.700000*%
%TD*%
%TA.AperFunction,ComponentPad*%
%ADD15O,1.700000X1.700000*%
%TD*%
%TA.AperFunction,SMDPad,CuDef*%
%ADD16RoundRect,0.200000X-0.200000X-0.275000X0.200000X-0.275000X0.200000X0.275000X-0.200000X0.275000X0*%
%TD*%
%TA.AperFunction,SMDPad,CuDef*%
%ADD17R,0.787400X0.863600*%
%TD*%
%TA.AperFunction,SMDPad,CuDef*%
%ADD18R,0.787400X0.355600*%
%TD*%
%TA.AperFunction,SMDPad,CuDef*%
%ADD19RotRect,0.787400X0.863600X315.000000*%
%TD*%
%TA.AperFunction,SMDPad,CuDef*%
%ADD20RotRect,0.787400X0.355600X315.000000*%
%TD*%
%TA.AperFunction,SMDPad,CuDef*%
%ADD21RoundRect,0.225000X0.225000X0.250000X-0.225000X0.250000X-0.225000X-0.250000X0.225000X-0.250000X0*%
%TD*%
%TA.AperFunction,SMDPad,CuDef*%
%ADD22RotRect,0.787400X0.863600X135.000000*%
%TD*%
%TA.AperFunction,SMDPad,CuDef*%
%ADD23RotRect,0.787400X0.355600X135.000000*%
%TD*%
%TA.AperFunction,SMDPad,CuDef*%
%ADD24RoundRect,0.225000X-0.225000X-0.250000X0.225000X-0.250000X0.225000X0.250000X-0.225000X0.250000X0*%
%TD*%
%TA.AperFunction,SMDPad,CuDef*%
%ADD25RoundRect,0.200000X0.275000X-0.200000X0.275000X0.200000X-0.275000X0.200000X-0.275000X-0.200000X0*%
%TD*%
%TA.AperFunction,SMDPad,CuDef*%
%ADD26RoundRect,0.190000X-0.545000X-0.190000X0.545000X-0.190000X0.545000X0.190000X-0.545000X0.190000X0*%
%TD*%
%TA.AperFunction,SMDPad,CuDef*%
%ADD27RoundRect,0.250000X-0.325000X-0.650000X0.325000X-0.650000X0.325000X0.650000X-0.325000X0.650000X0*%
%TD*%
%TA.AperFunction,SMDPad,CuDef*%
%ADD28RoundRect,0.250000X0.325000X0.650000X-0.325000X0.650000X-0.325000X-0.650000X0.325000X-0.650000X0*%
%TD*%
%TA.AperFunction,SMDPad,CuDef*%
%ADD29RoundRect,0.200000X0.200000X0.275000X-0.200000X0.275000X-0.200000X-0.275000X0.200000X-0.275000X0*%
%TD*%
%TA.AperFunction,ViaPad*%
%ADD30C,0.800000*%
%TD*%
%TA.AperFunction,ViaPad*%
%ADD31C,0.508000*%
%TD*%
%TA.AperFunction,Conductor*%
%ADD32C,0.500000*%
%TD*%
%TA.AperFunction,Conductor*%
%ADD33C,0.250000*%
%TD*%
%TA.AperFunction,Conductor*%
%ADD34C,0.200000*%
%TD*%
G04 APERTURE END LIST*
D10*
%TO.P,J2,1,Pin_1*%
%TO.N,External +3.3V Source*%
X165810000Y-52480000D03*
D11*
%TO.P,J2,2,Pin_2*%
%TO.N,+3.3V*%
X168350000Y-52480000D03*
%TO.P,J2,3,Pin_3*%
%TO.N,/D-17*%
X165810000Y-55020000D03*
%TO.P,J2,4,Pin_4*%
%TO.N,GNDD*%
X168350000Y-55020000D03*
%TO.P,J2,5,Pin_5*%
%TO.N,/D-18*%
X165810000Y-57560000D03*
%TO.P,J2,6,Pin_6*%
%TO.N,GNDD*%
X168350000Y-57560000D03*
%TO.P,J2,7,Pin_7*%
%TO.N,/D-19*%
X165810000Y-60100000D03*
%TO.P,J2,8,Pin_8*%
%TO.N,GNDD*%
X168350000Y-60100000D03*
%TO.P,J2,9,Pin_9*%
%TO.N,/D-20*%
X165810000Y-62640000D03*
%TO.P,J2,10,Pin_10*%
%TO.N,GNDD*%
X168350000Y-62640000D03*
%TO.P,J2,11,Pin_11*%
%TO.N,/D-21*%
X165810000Y-65180000D03*
%TO.P,J2,12,Pin_12*%
%TO.N,GNDD*%
X168350000Y-65180000D03*
%TO.P,J2,13,Pin_13*%
%TO.N,/D-22*%
X165810000Y-67720000D03*
%TO.P,J2,14,Pin_14*%
%TO.N,GNDD*%
X168350000Y-67720000D03*
%TO.P,J2,15,Pin_15*%
%TO.N,/D-23*%
X165810000Y-70260000D03*
%TO.P,J2,16,Pin_16*%
%TO.N,GNDD*%
X168350000Y-70260000D03*
%TO.P,J2,17,Pin_17*%
%TO.N,/D-24*%
X165810000Y-72800000D03*
%TO.P,J2,18,Pin_18*%
%TO.N,GNDD*%
X168350000Y-72800000D03*
%TO.P,J2,19,Pin_19*%
%TO.N,unconnected-(J2-Pin_19-Pad19)*%
X165810000Y-75340000D03*
%TO.P,J2,20,Pin_20*%
%TO.N,unconnected-(J2-Pin_20-Pad20)*%
X168350000Y-75340000D03*
%TD*%
D10*
%TO.P,J4,1,Pin_1*%
%TO.N,unconnected-(J4-Pin_1-Pad1)*%
X165810000Y-88040000D03*
D11*
%TO.P,J4,2,Pin_2*%
%TO.N,+3.3V*%
X168350000Y-88040000D03*
%TO.P,J4,3,Pin_3*%
%TO.N,/D-9*%
X165810000Y-90580000D03*
%TO.P,J4,4,Pin_4*%
%TO.N,GNDD*%
X168350000Y-90580000D03*
%TO.P,J4,5,Pin_5*%
%TO.N,/D-10*%
X165810000Y-93120000D03*
%TO.P,J4,6,Pin_6*%
%TO.N,GNDD*%
X168350000Y-93120000D03*
%TO.P,J4,7,Pin_7*%
%TO.N,/D-11*%
X165810000Y-95660000D03*
%TO.P,J4,8,Pin_8*%
%TO.N,GNDD*%
X168350000Y-95660000D03*
%TO.P,J4,9,Pin_9*%
%TO.N,/D-12*%
X165810000Y-98200000D03*
%TO.P,J4,10,Pin_10*%
%TO.N,GNDD*%
X168350000Y-98200000D03*
%TO.P,J4,11,Pin_11*%
%TO.N,/D-13*%
X165810000Y-100740000D03*
%TO.P,J4,12,Pin_12*%
%TO.N,GNDD*%
X168350000Y-100740000D03*
%TO.P,J4,13,Pin_13*%
%TO.N,/D-14*%
X165810000Y-103280000D03*
%TO.P,J4,14,Pin_14*%
%TO.N,GNDD*%
X168350000Y-103280000D03*
%TO.P,J4,15,Pin_15*%
%TO.N,/D-15*%
X165810000Y-105820000D03*
%TO.P,J4,16,Pin_16*%
%TO.N,GNDD*%
X168350000Y-105820000D03*
%TO.P,J4,17,Pin_17*%
%TO.N,/D-16*%
X165810000Y-108360000D03*
%TO.P,J4,18,Pin_18*%
%TO.N,GNDD*%
X168350000Y-108360000D03*
%TO.P,J4,19,Pin_19*%
%TO.N,unconnected-(J4-Pin_19-Pad19)*%
X165810000Y-110900000D03*
%TO.P,J4,20,Pin_20*%
%TO.N,unconnected-(J4-Pin_20-Pad20)*%
X168350000Y-110900000D03*
%TD*%
D10*
%TO.P,J3,1,Pin_1*%
%TO.N,unconnected-(J3-Pin_1-Pad1)*%
X155650000Y-88040000D03*
D11*
%TO.P,J3,2,Pin_2*%
%TO.N,+3.3V*%
X158190000Y-88040000D03*
%TO.P,J3,3,Pin_3*%
%TO.N,/D-1*%
X155650000Y-90580000D03*
%TO.P,J3,4,Pin_4*%
%TO.N,GNDD*%
X158190000Y-90580000D03*
%TO.P,J3,5,Pin_5*%
%TO.N,/D-2*%
X155650000Y-93120000D03*
%TO.P,J3,6,Pin_6*%
%TO.N,GNDD*%
X158190000Y-93120000D03*
%TO.P,J3,7,Pin_7*%
%TO.N,/D-3*%
X155650000Y-95660000D03*
%TO.P,J3,8,Pin_8*%
%TO.N,GNDD*%
X158190000Y-95660000D03*
%TO.P,J3,9,Pin_9*%
%TO.N,/D-4*%
X155650000Y-98200000D03*
%TO.P,J3,10,Pin_10*%
%TO.N,GNDD*%
X158190000Y-98200000D03*
%TO.P,J3,11,Pin_11*%
%TO.N,/D-5*%
X155650000Y-100740000D03*
%TO.P,J3,12,Pin_12*%
%TO.N,GNDD*%
X158190000Y-100740000D03*
%TO.P,J3,13,Pin_13*%
%TO.N,/D-6*%
X155650000Y-103280000D03*
%TO.P,J3,14,Pin_14*%
%TO.N,GNDD*%
X158190000Y-103280000D03*
%TO.P,J3,15,Pin_15*%
%TO.N,/D-7*%
X155650000Y-105820000D03*
%TO.P,J3,16,Pin_16*%
%TO.N,GNDD*%
X158190000Y-105820000D03*
%TO.P,J3,17,Pin_17*%
%TO.N,/D-8*%
X155650000Y-108360000D03*
%TO.P,J3,18,Pin_18*%
%TO.N,GNDD*%
X158190000Y-108360000D03*
%TO.P,J3,19,Pin_19*%
%TO.N,unconnected-(J3-Pin_19-Pad19)*%
X155650000Y-110900000D03*
%TO.P,J3,20,Pin_20*%
%TO.N,unconnected-(J3-Pin_20-Pad20)*%
X158190000Y-110900000D03*
%TD*%
D12*
%TO.P,H3,1*%
%TO.N,N/C*%
X153025000Y-120900000D03*
X153793845Y-119043845D03*
X153793845Y-122756155D03*
X155650000Y-118275000D03*
D13*
X155650000Y-120900000D03*
D12*
X155650000Y-123525000D03*
X157506155Y-119043845D03*
X157506155Y-122756155D03*
X158275000Y-120900000D03*
%TD*%
%TO.P,H1,1*%
%TO.N,N/C*%
X135025000Y-48900000D03*
X135793845Y-47043845D03*
X135793845Y-50756155D03*
X137650000Y-46275000D03*
D13*
X137650000Y-48900000D03*
D12*
X137650000Y-51525000D03*
X139506155Y-47043845D03*
X139506155Y-50756155D03*
X140275000Y-48900000D03*
%TD*%
%TO.P,H2,1*%
%TO.N,N/C*%
X153025000Y-48900000D03*
X153793845Y-47043845D03*
X153793845Y-50756155D03*
X155650000Y-46275000D03*
D13*
X155650000Y-48900000D03*
D12*
X155650000Y-51525000D03*
X157506155Y-47043845D03*
X157506155Y-50756155D03*
X158275000Y-48900000D03*
%TD*%
D14*
%TO.P,J5,1,Pin_1*%
%TO.N,Net-(J5-Pin_1)*%
X147495000Y-59810000D03*
D15*
%TO.P,J5,2,Pin_2*%
%TO.N,Net-(J5-Pin_2)*%
X147495000Y-57270000D03*
%TD*%
D16*
%TO.P,R1,1*%
%TO.N,/Z12_P*%
X141855000Y-57790000D03*
%TO.P,R1,2*%
%TO.N,Net-(J5-Pin_2)*%
X143505000Y-57790000D03*
%TD*%
D17*
%TO.P,RN1,1,R1.1*%
%TO.N,/D-17*%
X156664400Y-62758800D03*
D18*
%TO.P,RN1,2,R2.1*%
%TO.N,/D-18*%
X156664400Y-63506322D03*
%TO.P,RN1,3,R3.1*%
%TO.N,/D-19*%
X156664400Y-63999844D03*
%TO.P,RN1,4,R4.1*%
%TO.N,/D-20*%
X156664400Y-64493366D03*
%TO.P,RN1,5,R5.1*%
%TO.N,/D-21*%
X156664400Y-64986888D03*
%TO.P,RN1,6,R6.1*%
%TO.N,/D-22*%
X156664400Y-65480410D03*
%TO.P,RN1,7,R7.1*%
%TO.N,/D-23*%
X156664400Y-65973932D03*
D17*
%TO.P,RN1,8,R8.1*%
%TO.N,/D-24*%
X156664400Y-66721200D03*
%TO.P,RN1,9,R8.2*%
%TO.N,/G1*%
X154835600Y-66721200D03*
D18*
%TO.P,RN1,10,R7.2*%
%TO.N,/F3*%
X154835600Y-65973932D03*
%TO.P,RN1,11,R6.2*%
%TO.N,/H2*%
X154835600Y-65480410D03*
%TO.P,RN1,12,R5.2*%
%TO.N,/G3*%
X154835600Y-64986888D03*
%TO.P,RN1,13,R4.2*%
%TO.N,/H1*%
X154835600Y-64493366D03*
%TO.P,RN1,14,R3.2*%
%TO.N,/H3*%
X154835600Y-63999844D03*
%TO.P,RN1,15,R2.2*%
%TO.N,/J1*%
X154835600Y-63506322D03*
D17*
%TO.P,RN1,16,R1.2*%
%TO.N,/K1*%
X154835600Y-62758800D03*
%TD*%
D16*
%TO.P,R2,1*%
%TO.N,/Z12_N*%
X141860000Y-59260000D03*
%TO.P,R2,2*%
%TO.N,Net-(J5-Pin_1)*%
X143510000Y-59260000D03*
%TD*%
D19*
%TO.P,RN2,1,R1.1*%
%TO.N,/B2*%
X152422502Y-78694342D03*
D20*
%TO.P,RN2,2,R2.1*%
%TO.N,/C4*%
X152951079Y-78165764D03*
%TO.P,RN2,3,R3.1*%
%TO.N,/B1*%
X153300052Y-77816791D03*
%TO.P,RN2,4,R4.1*%
%TO.N,/C3*%
X153649025Y-77467818D03*
%TO.P,RN2,5,R5.1*%
%TO.N,/C2*%
X153997998Y-77118845D03*
%TO.P,RN2,6,R6.1*%
%TO.N,/C1*%
X154346970Y-76769873D03*
%TO.P,RN2,7,R7.1*%
%TO.N,/D3*%
X154695943Y-76420900D03*
D19*
%TO.P,RN2,8,R8.1*%
%TO.N,/D1*%
X155224342Y-75892502D03*
%TO.P,RN2,9,R8.2*%
%TO.N,/D-8*%
X156517498Y-77185658D03*
D20*
%TO.P,RN2,10,R7.2*%
%TO.N,/D-7*%
X155989100Y-77714057D03*
%TO.P,RN2,11,R6.2*%
%TO.N,/D-6*%
X155640127Y-78063030D03*
%TO.P,RN2,12,R5.2*%
%TO.N,/D-5*%
X155291155Y-78412002D03*
%TO.P,RN2,13,R4.2*%
%TO.N,/D-4*%
X154942182Y-78760975D03*
%TO.P,RN2,14,R3.2*%
%TO.N,/D-3*%
X154593209Y-79109948D03*
%TO.P,RN2,15,R2.2*%
%TO.N,/D-2*%
X154244236Y-79458921D03*
D19*
%TO.P,RN2,16,R1.2*%
%TO.N,/D-1*%
X153715658Y-79987498D03*
%TD*%
D21*
%TO.P,C5,1*%
%TO.N,+3.3V*%
X160975000Y-59280000D03*
%TO.P,C5,2*%
%TO.N,GNDD*%
X159425000Y-59280000D03*
%TD*%
D16*
%TO.P,JP1,1,A*%
%TO.N,+3.3V*%
X159385000Y-55220000D03*
%TO.P,JP1,2,B*%
%TO.N,External +3.3V Source*%
X161035000Y-55220000D03*
%TD*%
D22*
%TO.P,RN3,1,R1.1*%
%TO.N,/D-9*%
X160647498Y-73015658D03*
D23*
%TO.P,RN3,2,R2.1*%
%TO.N,/D-10*%
X160118921Y-73544236D03*
%TO.P,RN3,3,R3.1*%
%TO.N,/D-11*%
X159769948Y-73893209D03*
%TO.P,RN3,4,R4.1*%
%TO.N,/D-12*%
X159420975Y-74242182D03*
%TO.P,RN3,5,R5.1*%
%TO.N,/D-13*%
X159072002Y-74591155D03*
%TO.P,RN3,6,R6.1*%
%TO.N,/D-14*%
X158723030Y-74940127D03*
%TO.P,RN3,7,R7.1*%
%TO.N,/D-15*%
X158374057Y-75289100D03*
D22*
%TO.P,RN3,8,R8.1*%
%TO.N,/D-16*%
X157845658Y-75817498D03*
%TO.P,RN3,9,R8.2*%
%TO.N,/D2*%
X156552502Y-74524342D03*
D23*
%TO.P,RN3,10,R7.2*%
%TO.N,/E1*%
X157080900Y-73995943D03*
%TO.P,RN3,11,R6.2*%
%TO.N,/F2*%
X157429873Y-73646970D03*
%TO.P,RN3,12,R5.2*%
%TO.N,/E2*%
X157778845Y-73297998D03*
%TO.P,RN3,13,R4.2*%
%TO.N,/F1*%
X158127818Y-72949025D03*
%TO.P,RN3,14,R3.2*%
%TO.N,/E3*%
X158476791Y-72600052D03*
%TO.P,RN3,15,R2.2*%
%TO.N,/G2*%
X158825764Y-72251079D03*
D22*
%TO.P,RN3,16,R1.2*%
%TO.N,/F4*%
X159354342Y-71722502D03*
%TD*%
D24*
%TO.P,C2,1*%
%TO.N,+3.3V*%
X141195000Y-80260000D03*
%TO.P,C2,2*%
%TO.N,GNDD*%
X142745000Y-80260000D03*
%TD*%
D25*
%TO.P,R3,1*%
%TO.N,Net-(J5-Pin_1)*%
X144900000Y-59345000D03*
%TO.P,R3,2*%
%TO.N,Net-(J5-Pin_2)*%
X144900000Y-57695000D03*
%TD*%
D26*
%TO.P,J1,1,Pin_1*%
%TO.N,GNDD*%
X134275000Y-54055000D03*
%TO.P,J1,2,Pin_2*%
%TO.N,Glasgow +3.3V Source*%
X138025000Y-54055000D03*
%TO.P,J1,3,Pin_3*%
%TO.N,/K1*%
X134275000Y-55325000D03*
%TO.P,J1,4,Pin_4*%
%TO.N,GNDD*%
X138025000Y-55325000D03*
%TO.P,J1,5,Pin_5*%
%TO.N,/J1*%
X134275000Y-56595000D03*
%TO.P,J1,6,Pin_6*%
%TO.N,GNDD*%
X138025000Y-56595000D03*
%TO.P,J1,7,Pin_7*%
X134275000Y-57865000D03*
%TO.P,J1,8,Pin_8*%
%TO.N,/Z12_P*%
X138025000Y-57865000D03*
%TO.P,J1,9,Pin_9*%
%TO.N,/H1*%
X134275000Y-59135000D03*
%TO.P,J1,10,Pin_10*%
%TO.N,/Z12_N*%
X138025000Y-59135000D03*
%TO.P,J1,11,Pin_11*%
%TO.N,/H2*%
X134275000Y-60405000D03*
%TO.P,J1,12,Pin_12*%
%TO.N,GNDD*%
X138025000Y-60405000D03*
%TO.P,J1,13,Pin_13*%
X134275000Y-61675000D03*
%TO.P,J1,14,Pin_14*%
%TO.N,/H3*%
X138025000Y-61675000D03*
%TO.P,J1,15,Pin_15*%
%TO.N,/G1*%
X134275000Y-62945000D03*
%TO.P,J1,16,Pin_16*%
%TO.N,/G3*%
X138025000Y-62945000D03*
%TO.P,J1,17,Pin_17*%
%TO.N,/G2*%
X134275000Y-64215000D03*
%TO.P,J1,18,Pin_18*%
%TO.N,GNDD*%
X138025000Y-64215000D03*
%TO.P,J1,19,Pin_19*%
X134275000Y-65485000D03*
%TO.P,J1,20,Pin_20*%
%TO.N,/F3*%
X138025000Y-65485000D03*
%TO.P,J1,21,Pin_21*%
%TO.N,/F1*%
X134275000Y-66755000D03*
%TO.P,J1,22,Pin_22*%
%TO.N,/F4*%
X138025000Y-66755000D03*
%TO.P,J1,23,Pin_23*%
%TO.N,/F2*%
X134275000Y-68025000D03*
%TO.P,J1,24,Pin_24*%
%TO.N,GNDD*%
X138025000Y-68025000D03*
%TO.P,J1,25,Pin_25*%
X134275000Y-69295000D03*
%TO.P,J1,26,Pin_26*%
%TO.N,/E3*%
X138025000Y-69295000D03*
%TO.P,J1,27,Pin_27*%
%TO.N,/E1*%
X134275000Y-70565000D03*
%TO.P,J1,28,Pin_28*%
%TO.N,/E2*%
X138025000Y-70565000D03*
%TO.P,J1,29,Pin_29*%
%TO.N,/D1*%
X134275000Y-71835000D03*
%TO.P,J1,30,Pin_30*%
%TO.N,GNDD*%
X138025000Y-71835000D03*
%TO.P,J1,31,Pin_31*%
X134275000Y-73105000D03*
%TO.P,J1,32,Pin_32*%
%TO.N,/D2*%
X138025000Y-73105000D03*
%TO.P,J1,33,Pin_33*%
%TO.N,/C1*%
X134275000Y-74375000D03*
%TO.P,J1,34,Pin_34*%
%TO.N,/D3*%
X138025000Y-74375000D03*
%TO.P,J1,35,Pin_35*%
%TO.N,/C2*%
X134275000Y-75645000D03*
%TO.P,J1,36,Pin_36*%
%TO.N,GNDD*%
X138025000Y-75645000D03*
%TO.P,J1,37,Pin_37*%
X134275000Y-76915000D03*
%TO.P,J1,38,Pin_38*%
%TO.N,/C3*%
X138025000Y-76915000D03*
%TO.P,J1,39,Pin_39*%
%TO.N,/B1*%
X134275000Y-78185000D03*
%TO.P,J1,40,Pin_40*%
%TO.N,/C4*%
X138025000Y-78185000D03*
%TO.P,J1,41,Pin_41*%
%TO.N,/B2*%
X134275000Y-79455000D03*
%TO.P,J1,42,Pin_42*%
%TO.N,GNDD*%
X138025000Y-79455000D03*
%TO.P,J1,43,Pin_43*%
X134275000Y-80725000D03*
%TO.P,J1,44,Pin_44*%
%TO.N,+3.3V*%
X138025000Y-80725000D03*
%TD*%
D27*
%TO.P,C6,1*%
%TO.N,+3.3V*%
X154775000Y-58850000D03*
%TO.P,C6,2*%
%TO.N,GNDD*%
X157725000Y-58850000D03*
%TD*%
D28*
%TO.P,C4,1*%
%TO.N,+3.3V*%
X147275000Y-79840000D03*
%TO.P,C4,2*%
%TO.N,GNDD*%
X144325000Y-79840000D03*
%TD*%
D29*
%TO.P,JP2,1,A*%
%TO.N,+3.3V*%
X142765000Y-53980000D03*
%TO.P,JP2,2,B*%
%TO.N,Glasgow +3.3V Source*%
X141115000Y-53980000D03*
%TD*%
D21*
%TO.P,C1,1*%
%TO.N,+3.3V*%
X163585000Y-117810000D03*
%TO.P,C1,2*%
%TO.N,GNDD*%
X162035000Y-117810000D03*
%TD*%
D27*
%TO.P,C3,1*%
%TO.N,+3.3V*%
X165375000Y-118240000D03*
%TO.P,C3,2*%
%TO.N,GNDD*%
X168325000Y-118240000D03*
%TD*%
D30*
%TO.N,+3.3V*%
X141180000Y-79270000D03*
X163590000Y-116810000D03*
X165380000Y-116800000D03*
X158430000Y-55180000D03*
X160980000Y-58260000D03*
X154775000Y-60295000D03*
X147280000Y-78380000D03*
X142710000Y-54980000D03*
D31*
%TO.N,GNDD*%
X167080000Y-107250000D03*
D30*
X135535068Y-69281821D03*
X136750000Y-56615000D03*
D31*
X146490000Y-71750000D03*
X160110000Y-60560000D03*
D30*
X135550000Y-80730000D03*
D31*
X153860000Y-105200000D03*
X163600000Y-51240000D03*
X168110000Y-85140000D03*
X163240000Y-110180000D03*
X160250000Y-117210000D03*
X132930000Y-75710000D03*
X140120000Y-80090000D03*
X161620000Y-50380000D03*
X164100000Y-63020000D03*
X146960000Y-67100000D03*
D30*
X132940000Y-76910000D03*
D31*
X152620000Y-103910000D03*
X153860000Y-99650000D03*
X160400000Y-80060000D03*
X155290000Y-83340000D03*
X163210000Y-123220000D03*
X150300000Y-57110000D03*
X166860000Y-48070000D03*
X150360000Y-62820000D03*
X164540000Y-108370000D03*
X158780000Y-113680000D03*
X151940000Y-71720000D03*
X154680000Y-71750000D03*
X162710000Y-53750000D03*
D30*
X144330000Y-78400000D03*
D31*
X163090000Y-104210000D03*
X167380000Y-112900000D03*
X163470000Y-101960000D03*
X132760000Y-55330000D03*
X153890000Y-87410000D03*
X154730000Y-112970000D03*
X166180000Y-115820000D03*
X158320000Y-77890000D03*
X164280000Y-46120000D03*
X142680000Y-58530000D03*
X132920000Y-66370000D03*
X171370000Y-120910000D03*
X132610000Y-67870000D03*
X166230000Y-123040000D03*
X161120000Y-80820000D03*
X132920000Y-63090000D03*
X167550000Y-124110000D03*
D30*
X136730000Y-55311000D03*
D31*
X132640000Y-77960000D03*
X158450000Y-54250000D03*
X141310000Y-71830000D03*
X167080000Y-61470000D03*
X150060000Y-51630000D03*
D30*
X168320000Y-116810000D03*
D31*
X164330000Y-55980000D03*
D30*
X157725000Y-60290000D03*
D31*
X141320000Y-66850000D03*
X162440000Y-121430000D03*
X163530000Y-71700000D03*
X150670000Y-80830000D03*
X160590000Y-112800000D03*
X152860000Y-111610000D03*
X151850000Y-53290000D03*
X164320000Y-58060000D03*
X147120000Y-62800000D03*
X169640000Y-46090000D03*
X167440000Y-79160000D03*
X170390000Y-78180000D03*
X164200000Y-98300000D03*
X132950000Y-79040000D03*
X169590000Y-47740000D03*
X148900000Y-68400000D03*
X153840000Y-60440000D03*
X153130000Y-83460000D03*
X161880000Y-81500000D03*
D30*
X135540000Y-54060000D03*
D31*
X162760000Y-115700000D03*
X141040000Y-52950000D03*
X152890000Y-62820000D03*
X144430000Y-55430000D03*
X153760000Y-90450000D03*
X154050000Y-93400000D03*
X132950000Y-52410000D03*
X132610000Y-70660000D03*
D30*
X162020000Y-116810000D03*
D31*
X158480000Y-56150000D03*
X154900000Y-85540000D03*
X165000000Y-115580000D03*
X164390000Y-105440000D03*
D30*
X135560000Y-61658000D03*
D31*
X154230000Y-81660000D03*
X147570000Y-50480000D03*
X156860000Y-55810000D03*
X170650000Y-80930000D03*
X170320000Y-111500000D03*
X162410000Y-73900000D03*
X163460000Y-68730000D03*
X166790000Y-116650000D03*
X156518271Y-68430000D03*
X152790000Y-66850000D03*
D30*
X135560000Y-57879000D03*
D31*
X139510000Y-53210000D03*
X164450000Y-103070000D03*
X164290000Y-67150000D03*
X160330000Y-62310000D03*
X132970000Y-71910000D03*
X161480000Y-57440000D03*
D30*
X139357387Y-68045000D03*
D31*
X165810000Y-83830000D03*
X160830000Y-123610000D03*
X149770000Y-58490000D03*
X160190000Y-115120000D03*
X132900000Y-59260000D03*
X170720000Y-83620000D03*
D30*
X136670000Y-75620000D03*
D31*
X156890000Y-101340000D03*
X158360000Y-61780000D03*
X141850000Y-78510000D03*
X162010000Y-70060000D03*
X156620000Y-115260000D03*
X167220000Y-121350000D03*
X153320000Y-85540000D03*
X169160000Y-86400000D03*
X147210000Y-76073000D03*
X132620000Y-69250000D03*
X163880000Y-115580000D03*
X161470000Y-47510000D03*
X152790000Y-98050000D03*
X146120000Y-68400000D03*
X152550000Y-68430000D03*
X166290000Y-77130000D03*
D30*
X139300000Y-60450000D03*
D31*
X143200000Y-47450000D03*
X170840000Y-115300000D03*
X167140000Y-102120000D03*
X152720000Y-109120000D03*
D30*
X135587334Y-65468000D03*
D31*
X166250000Y-81500000D03*
X170370000Y-117380000D03*
D30*
X159440000Y-58280000D03*
D31*
X150460000Y-79660000D03*
X167200000Y-99320000D03*
X167620000Y-86500000D03*
X147020000Y-45820000D03*
X169660000Y-122210000D03*
D30*
X133015000Y-73105000D03*
D31*
X142970000Y-51450000D03*
X153820000Y-102430000D03*
X167000000Y-56270000D03*
X162970000Y-106860000D03*
X164050000Y-73890000D03*
X151050000Y-78290000D03*
X156890000Y-109560000D03*
X164450000Y-52240000D03*
X140240000Y-79060000D03*
X167080000Y-58950000D03*
X132920000Y-56510000D03*
X168120000Y-115300000D03*
X152760000Y-92210000D03*
X146280000Y-78280000D03*
X152780000Y-82020000D03*
X132610000Y-53970000D03*
X161060000Y-110790000D03*
X163690000Y-52980000D03*
X153890000Y-107650000D03*
X141570000Y-60570000D03*
X132660000Y-64790000D03*
X152800000Y-101070000D03*
X161250000Y-67000000D03*
X132640000Y-74390000D03*
X152370000Y-80620000D03*
X162540000Y-113570000D03*
X169950000Y-87780000D03*
D30*
X142750000Y-79230000D03*
X136795000Y-79475000D03*
D31*
X145140000Y-56450000D03*
X150350000Y-67170000D03*
X142610000Y-45800000D03*
X132740000Y-58050000D03*
X152830000Y-106430000D03*
X161130000Y-63230000D03*
X142960000Y-76090000D03*
D30*
X136765000Y-71815000D03*
D31*
X161740000Y-45850000D03*
X144150000Y-62820000D03*
X152990000Y-88910000D03*
X168950000Y-49990000D03*
X164610000Y-112520000D03*
X143960000Y-68070000D03*
X132640000Y-61330000D03*
X159420000Y-79030000D03*
X141990000Y-62560000D03*
X153840000Y-96390000D03*
X142750000Y-52930000D03*
X158300000Y-67530000D03*
X167100000Y-104540000D03*
X149560000Y-47490000D03*
X159600000Y-68220000D03*
X153140000Y-114730000D03*
X167930000Y-83620000D03*
X166090000Y-86150000D03*
X148270000Y-78370000D03*
X157010000Y-112630000D03*
X156920000Y-96380000D03*
X155710000Y-60430000D03*
X154050000Y-110350000D03*
X164380000Y-60300000D03*
X170630000Y-119080000D03*
X154770000Y-61240000D03*
X163270000Y-49180000D03*
X156780000Y-84980000D03*
X165900000Y-50340000D03*
X160360000Y-70470000D03*
X154990000Y-74250000D03*
X164190000Y-100320000D03*
X151070000Y-45730000D03*
D30*
X139380000Y-64229000D03*
D31*
X158070000Y-85930000D03*
X152960000Y-95050000D03*
X139140000Y-79840000D03*
X156900000Y-106380000D03*
%TD*%
%TO.N,External +3.3V Source*%
D32*
X163070000Y-55220000D02*
X165810000Y-52480000D01*
X161035000Y-55220000D02*
X163070000Y-55220000D01*
%TO.N,+3.3V*%
X147405000Y-78385000D02*
X147410000Y-78380000D01*
X159385000Y-55220000D02*
X158470000Y-55220000D01*
X141180000Y-79270000D02*
X141180000Y-80245000D01*
X142765000Y-53980000D02*
X142765000Y-54925000D01*
X163585000Y-117810000D02*
X163585000Y-116815000D01*
X163585000Y-116815000D02*
X163590000Y-116810000D01*
X142765000Y-54925000D02*
X142710000Y-54980000D01*
X141195000Y-80260000D02*
X140730000Y-80725000D01*
X154775000Y-58850000D02*
X154775000Y-60295000D01*
X141310000Y-80245000D02*
X141325000Y-80260000D01*
X165375000Y-116805000D02*
X165380000Y-116800000D01*
X165375000Y-118240000D02*
X165375000Y-116805000D01*
X158470000Y-55220000D02*
X158430000Y-55180000D01*
X140730000Y-80725000D02*
X138025000Y-80725000D01*
X160975000Y-58265000D02*
X160980000Y-58260000D01*
X160975000Y-59280000D02*
X160975000Y-58265000D01*
X147275000Y-79840000D02*
X147275000Y-78385000D01*
%TO.N,GNDD*%
X142745000Y-80260000D02*
X142745000Y-79235000D01*
X134280000Y-54060000D02*
X134275000Y-54055000D01*
X168325000Y-116815000D02*
X168320000Y-116810000D01*
X139300000Y-60450000D02*
X139255000Y-60405000D01*
X132945000Y-76915000D02*
X132940000Y-76910000D01*
X139366000Y-64215000D02*
X138025000Y-64215000D01*
X139255000Y-60405000D02*
X138025000Y-60405000D01*
X135550000Y-80730000D02*
X134280000Y-80730000D01*
X134280000Y-80730000D02*
X134275000Y-80725000D01*
X136695000Y-75645000D02*
X138025000Y-75645000D01*
X135535068Y-69281821D02*
X134288179Y-69281821D01*
X162035000Y-117810000D02*
X162035000Y-116825000D01*
X139337387Y-68025000D02*
X138025000Y-68025000D01*
X136785000Y-71835000D02*
X138025000Y-71835000D01*
X144325000Y-79840000D02*
X144325000Y-78405000D01*
X138011000Y-55311000D02*
X138025000Y-55325000D01*
X136730000Y-55311000D02*
X138011000Y-55311000D01*
X159425000Y-59280000D02*
X159425000Y-58295000D01*
X135560000Y-61658000D02*
X134292000Y-61658000D01*
X159425000Y-58295000D02*
X159440000Y-58280000D01*
X139357387Y-68045000D02*
X139337387Y-68025000D01*
X134275000Y-76915000D02*
X132945000Y-76915000D01*
X142875000Y-79235000D02*
X142880000Y-79230000D01*
X168325000Y-118240000D02*
X168325000Y-116815000D01*
X136795000Y-79475000D02*
X136815000Y-79455000D01*
X135587334Y-65468000D02*
X135570334Y-65485000D01*
X157725000Y-58850000D02*
X157725000Y-60290000D01*
X135540000Y-54060000D02*
X134280000Y-54060000D01*
X138005000Y-56615000D02*
X138025000Y-56595000D01*
X136670000Y-75620000D02*
X136695000Y-75645000D01*
X136765000Y-71815000D02*
X136785000Y-71835000D01*
X136815000Y-79455000D02*
X138025000Y-79455000D01*
X135570334Y-65485000D02*
X134275000Y-65485000D01*
X134292000Y-61658000D02*
X134275000Y-61675000D01*
X135560000Y-57879000D02*
X134289000Y-57879000D01*
X136750000Y-56615000D02*
X138005000Y-56615000D01*
X134289000Y-57879000D02*
X134275000Y-57865000D01*
X144455000Y-78405000D02*
X144460000Y-78400000D01*
X162035000Y-116825000D02*
X162020000Y-116810000D01*
X133015000Y-73105000D02*
X134275000Y-73105000D01*
X139380000Y-64229000D02*
X139366000Y-64215000D01*
X134288179Y-69281821D02*
X134275000Y-69295000D01*
%TO.N,/F2*%
D33*
X136170000Y-70892778D02*
X136170000Y-70430000D01*
X133288000Y-69673346D02*
X133288000Y-68682000D01*
X154979903Y-71197000D02*
X137049068Y-71197000D01*
X136170000Y-70430000D02*
X135770000Y-70030000D01*
X133288000Y-68682000D02*
X133945000Y-68025000D01*
X157429873Y-73646970D02*
X154979903Y-71197000D01*
X137049068Y-71197000D02*
X137015068Y-71163000D01*
X135105346Y-70030000D02*
X135008346Y-69933000D01*
X135770000Y-70030000D02*
X135105346Y-70030000D01*
X133945000Y-68025000D02*
X134275000Y-68025000D01*
X133547654Y-69933000D02*
X133288000Y-69673346D01*
X137015068Y-71163000D02*
X136440222Y-71163000D01*
X135008346Y-69933000D02*
X133547654Y-69933000D01*
X136440222Y-71163000D02*
X136170000Y-70892778D01*
%TO.N,/E1*%
X134625000Y-70565000D02*
X135330000Y-71270000D01*
X136093000Y-72223000D02*
X136337000Y-72467000D01*
X135820000Y-71270000D02*
X136093000Y-71543000D01*
X135330000Y-71270000D02*
X135820000Y-71270000D01*
X136093000Y-71543000D02*
X136093000Y-72223000D01*
X155551957Y-72467000D02*
X157080900Y-73995943D01*
X136337000Y-72467000D02*
X155551957Y-72467000D01*
X134275000Y-70565000D02*
X134625000Y-70565000D01*
%TO.N,/E2*%
X157778845Y-73297998D02*
X155208254Y-70727407D01*
X155208254Y-70727407D02*
X138187407Y-70727407D01*
X138187407Y-70727407D02*
X138025000Y-70565000D01*
%TO.N,/D1*%
X134275000Y-71835000D02*
X134625000Y-71835000D01*
X134625000Y-71835000D02*
X135296238Y-72506238D01*
X135756238Y-72506238D02*
X136203762Y-72953762D01*
X135296238Y-72506238D02*
X135756238Y-72506238D01*
X136203762Y-72953762D02*
X136203762Y-73363762D01*
X153068840Y-73737000D02*
X155224342Y-75892502D01*
X136577000Y-73737000D02*
X153068840Y-73737000D01*
X136203762Y-73363762D02*
X136577000Y-73737000D01*
%TO.N,/D2*%
X155138160Y-73110000D02*
X138552000Y-73110000D01*
X138552000Y-73110000D02*
X138286000Y-72844000D01*
X138286000Y-72844000D02*
X138025000Y-73105000D01*
X156552502Y-74524342D02*
X155138160Y-73110000D01*
X138286000Y-72844000D02*
X138284504Y-72845496D01*
%TO.N,/D3*%
X152650043Y-74375000D02*
X138025000Y-74375000D01*
X154695943Y-76420900D02*
X152650043Y-74375000D01*
%TO.N,/D-1*%
X159130000Y-89260000D02*
X156970000Y-89260000D01*
X159430000Y-88960000D02*
X159130000Y-89260000D01*
X153715658Y-79987498D02*
X159430000Y-85701840D01*
X156970000Y-89260000D02*
X155650000Y-90580000D01*
X159430000Y-85701840D02*
X159430000Y-88960000D01*
%TO.N,/D-2*%
X159807000Y-91023000D02*
X158980000Y-91850000D01*
X156920000Y-91850000D02*
X155650000Y-93120000D01*
X158980000Y-91850000D02*
X156920000Y-91850000D01*
X159807000Y-85021685D02*
X159807000Y-91023000D01*
X154244236Y-79458921D02*
X159807000Y-85021685D01*
%TO.N,Glasgow +3.3V Source*%
D32*
X138025000Y-54055000D02*
X141040000Y-54055000D01*
X141040000Y-54055000D02*
X141115000Y-53980000D01*
D33*
X141295000Y-54210000D02*
X141295000Y-54095000D01*
%TO.N,/K1*%
X154835600Y-62758800D02*
X149650000Y-57573200D01*
X134370346Y-55325000D02*
X134275000Y-55325000D01*
X144947000Y-55963000D02*
X135253000Y-55963000D01*
X134615000Y-55325000D02*
X134275000Y-55325000D01*
X149650000Y-55640000D02*
X149310000Y-55300000D01*
X149650000Y-57573200D02*
X149650000Y-55640000D01*
X145610000Y-55300000D02*
X144947000Y-55963000D01*
X149310000Y-55300000D02*
X145610000Y-55300000D01*
X135253000Y-55963000D02*
X134615000Y-55325000D01*
%TO.N,/J1*%
X139983000Y-59773000D02*
X143716322Y-63506322D01*
X136212000Y-59362000D02*
X136623000Y-59773000D01*
X135857000Y-57227000D02*
X136212000Y-57582000D01*
X134593168Y-56595000D02*
X135225168Y-57227000D01*
X134275000Y-56595000D02*
X134593168Y-56595000D01*
X135225168Y-57227000D02*
X135857000Y-57227000D01*
X143716322Y-63506322D02*
X154835600Y-63506322D01*
X136212000Y-57582000D02*
X136212000Y-59362000D01*
X136623000Y-59773000D02*
X139983000Y-59773000D01*
%TO.N,/H1*%
X134563693Y-59135000D02*
X134275000Y-59135000D01*
X135898572Y-59740000D02*
X135168693Y-59740000D01*
X154835600Y-64493366D02*
X142343366Y-64493366D01*
X140157000Y-62307000D02*
X136580102Y-62307000D01*
X136580102Y-62307000D02*
X136270000Y-61996898D01*
X135168693Y-59740000D02*
X134563693Y-59135000D01*
X136270000Y-61996898D02*
X136270000Y-60111428D01*
X142343366Y-64493366D02*
X140157000Y-62307000D01*
X136270000Y-60111428D02*
X135898572Y-59740000D01*
%TO.N,/H2*%
X133288000Y-61052000D02*
X133935000Y-60405000D01*
X133544654Y-62310000D02*
X133288000Y-62053346D01*
X154835600Y-65480410D02*
X154326278Y-65480410D01*
X136164000Y-63324000D02*
X136164000Y-62654000D01*
X133288000Y-62053346D02*
X133288000Y-61052000D01*
X140253842Y-63577000D02*
X136417000Y-63577000D01*
X136164000Y-62654000D02*
X135820000Y-62310000D01*
X133935000Y-60405000D02*
X134275000Y-60405000D01*
X154326278Y-65480410D02*
X154209756Y-65363888D01*
X136417000Y-63577000D02*
X136164000Y-63324000D01*
X135820000Y-62310000D02*
X133544654Y-62310000D01*
X142040730Y-65363888D02*
X140253842Y-63577000D01*
X154209756Y-65363888D02*
X142040730Y-65363888D01*
%TO.N,/H3*%
X142629844Y-63999844D02*
X140560000Y-61930000D01*
X138280000Y-61930000D02*
X138025000Y-61675000D01*
X154835600Y-63999844D02*
X142629844Y-63999844D01*
X140560000Y-61930000D02*
X138280000Y-61930000D01*
%TO.N,/G1*%
X135300000Y-63630000D02*
X135770000Y-63630000D01*
X152773481Y-66117888D02*
X153376793Y-66721200D01*
X136239334Y-64099334D02*
X136239334Y-65849334D01*
X153376793Y-66721200D02*
X154835600Y-66721200D01*
X134615000Y-62945000D02*
X135300000Y-63630000D01*
X136239334Y-65849334D02*
X136507888Y-66117888D01*
X135770000Y-63630000D02*
X136239334Y-64099334D01*
X136507888Y-66117888D02*
X152773481Y-66117888D01*
X134275000Y-62945000D02*
X134615000Y-62945000D01*
%TO.N,/G3*%
X142196888Y-64986888D02*
X140155000Y-62945000D01*
X140155000Y-62945000D02*
X138025000Y-62945000D01*
X154835600Y-64986888D02*
X142196888Y-64986888D01*
%TO.N,/G2*%
X136563000Y-67393000D02*
X136170000Y-67000000D01*
X133288000Y-65863346D02*
X133288000Y-64852000D01*
X136170000Y-67000000D02*
X136170000Y-66590000D01*
X135700000Y-66120000D02*
X133544654Y-66120000D01*
X133925000Y-64215000D02*
X134275000Y-64215000D01*
X155887685Y-69313000D02*
X141649842Y-69313000D01*
X133544654Y-66120000D02*
X133288000Y-65863346D01*
X158825764Y-72251079D02*
X155887685Y-69313000D01*
X133288000Y-64852000D02*
X133925000Y-64215000D01*
X136170000Y-66590000D02*
X135700000Y-66120000D01*
X139729842Y-67393000D02*
X136563000Y-67393000D01*
X141649842Y-69313000D02*
X139729842Y-67393000D01*
%TO.N,/F3*%
X154835600Y-65973932D02*
X154266786Y-65973932D01*
X138930888Y-65740888D02*
X138660000Y-65470000D01*
X138280888Y-65740888D02*
X138025000Y-65485000D01*
X154266786Y-65973932D02*
X154033742Y-65740888D01*
X139010000Y-65740888D02*
X138280888Y-65740888D01*
X154033742Y-65740888D02*
X139010000Y-65740888D01*
%TO.N,/F1*%
X155529200Y-70350407D02*
X158127818Y-72949025D01*
X135860000Y-67390000D02*
X136190000Y-67720000D01*
X136190000Y-67720000D02*
X136190000Y-69650000D01*
X136190000Y-69650000D02*
X136467000Y-69927000D01*
X139222593Y-69927000D02*
X139646000Y-70350407D01*
X136467000Y-69927000D02*
X139222593Y-69927000D01*
X139646000Y-70350407D02*
X155529200Y-70350407D01*
X134760000Y-66920000D02*
X135230000Y-67390000D01*
X135230000Y-67390000D02*
X135860000Y-67390000D01*
X134595000Y-66755000D02*
X134275000Y-66755000D01*
%TO.N,/F4*%
X156567840Y-68936000D02*
X141806000Y-68936000D01*
X138914504Y-67004504D02*
X138700000Y-66790000D01*
X139874504Y-67004504D02*
X138914504Y-67004504D01*
X141806000Y-68936000D02*
X139874504Y-67004504D01*
X138914504Y-67016000D02*
X138914504Y-67004504D01*
X138286000Y-67016000D02*
X138025000Y-66755000D01*
X159354342Y-71722502D02*
X156567840Y-68936000D01*
X138914504Y-67016000D02*
X138286000Y-67016000D01*
%TO.N,/D-3*%
X160184000Y-84700739D02*
X160184000Y-93196000D01*
X156890000Y-94420000D02*
X155650000Y-95660000D01*
X154593209Y-79109948D02*
X160184000Y-84700739D01*
X160184000Y-93196000D02*
X158960000Y-94420000D01*
X158960000Y-94420000D02*
X156890000Y-94420000D01*
%TO.N,/E3*%
X155566739Y-69690000D02*
X140522188Y-69690000D01*
X140522188Y-69690000D02*
X140127188Y-69295000D01*
X158476791Y-72600052D02*
X155566739Y-69690000D01*
X140127188Y-69295000D02*
X138025000Y-69295000D01*
%TO.N,/D-4*%
X160561000Y-95949000D02*
X159600000Y-96910000D01*
X159600000Y-96910000D02*
X156940000Y-96910000D01*
X156940000Y-96910000D02*
X155650000Y-98200000D01*
X154942182Y-78760975D02*
X160561000Y-84379793D01*
X160561000Y-84379793D02*
X160561000Y-95949000D01*
%TO.N,/D-5*%
X159430000Y-99510000D02*
X156880000Y-99510000D01*
X160938000Y-98002000D02*
X159430000Y-99510000D01*
X155291155Y-78412002D02*
X160938000Y-84058847D01*
X156880000Y-99510000D02*
X155650000Y-100740000D01*
X160938000Y-84058847D02*
X160938000Y-98002000D01*
%TO.N,/D-6*%
X159460000Y-102010000D02*
X156920000Y-102010000D01*
X161315000Y-100155000D02*
X159460000Y-102010000D01*
X155640127Y-78063030D02*
X161315000Y-83737903D01*
X161315000Y-83737903D02*
X161315000Y-100155000D01*
X156920000Y-102010000D02*
X155650000Y-103280000D01*
%TO.N,/C1*%
X134625000Y-74375000D02*
X134275000Y-74375000D01*
X152330443Y-74753346D02*
X139012000Y-74753346D01*
X138758346Y-75007000D02*
X136979068Y-75007000D01*
X139012000Y-74753346D02*
X138758346Y-75007000D01*
X154346970Y-76769873D02*
X152330443Y-74753346D01*
X135218000Y-74968000D02*
X134625000Y-74375000D01*
X136979068Y-75007000D02*
X136940068Y-74968000D01*
X136940068Y-74968000D02*
X135218000Y-74968000D01*
%TO.N,/C2*%
X152069153Y-75190000D02*
X139845346Y-75190000D01*
X153997998Y-77118845D02*
X152069153Y-75190000D01*
X134615000Y-75645000D02*
X134275000Y-75645000D01*
X138758346Y-76277000D02*
X135247000Y-76277000D01*
X135247000Y-76277000D02*
X134615000Y-75645000D01*
X139845346Y-75190000D02*
X138758346Y-76277000D01*
%TO.N,/C3*%
X138286000Y-76654000D02*
X138025000Y-76915000D01*
X138914504Y-76654000D02*
X138286000Y-76654000D01*
X151748207Y-75567000D02*
X140001504Y-75567000D01*
X140001504Y-75567000D02*
X138914504Y-76654000D01*
X153649025Y-77467818D02*
X151748207Y-75567000D01*
X138914504Y-76655496D02*
X138660000Y-76910000D01*
X138914504Y-76654000D02*
X138914504Y-76655496D01*
%TO.N,/B1*%
X135243000Y-77547000D02*
X134605000Y-78185000D01*
X139695346Y-76610000D02*
X138758346Y-77547000D01*
X152093261Y-76610000D02*
X139695346Y-76610000D01*
X134605000Y-78185000D02*
X134275000Y-78185000D01*
X153300052Y-77816791D02*
X152093261Y-76610000D01*
X138758346Y-77547000D02*
X135243000Y-77547000D01*
%TO.N,/C4*%
X151772315Y-76987000D02*
X139851504Y-76987000D01*
X139851504Y-76987000D02*
X138914504Y-77924000D01*
X152951079Y-78165764D02*
X151772315Y-76987000D01*
X138286000Y-77924000D02*
X138025000Y-78185000D01*
X138914504Y-77924000D02*
X138906000Y-77924000D01*
X138906000Y-77924000D02*
X138630000Y-78200000D01*
X138914504Y-77924000D02*
X138286000Y-77924000D01*
%TO.N,/B2*%
X152422502Y-78694342D02*
X151342160Y-77614000D01*
X134615000Y-79455000D02*
X134275000Y-79455000D01*
X135247000Y-78823000D02*
X134615000Y-79455000D01*
X138752346Y-78823000D02*
X135247000Y-78823000D01*
X151342160Y-77614000D02*
X139961346Y-77614000D01*
X139961346Y-77614000D02*
X138752346Y-78823000D01*
%TO.N,/D-17*%
X158652014Y-62758800D02*
X165810000Y-55600814D01*
X165810000Y-55600814D02*
X165810000Y-55020000D01*
X156664400Y-62758800D02*
X158652014Y-62758800D01*
%TO.N,/D-18*%
X159863678Y-63506322D02*
X165810000Y-57560000D01*
X156664400Y-63506322D02*
X159863678Y-63506322D01*
%TO.N,/D-19*%
X161910156Y-63999844D02*
X165810000Y-60100000D01*
X156664400Y-63999844D02*
X161910156Y-63999844D01*
%TO.N,/D-20*%
X156664400Y-64493366D02*
X163956634Y-64493366D01*
X163956634Y-64493366D02*
X165810000Y-62640000D01*
%TO.N,/D-21*%
X165616888Y-64986888D02*
X165810000Y-65180000D01*
X156664400Y-64986888D02*
X165616888Y-64986888D01*
%TO.N,/D-22*%
X156664400Y-65480410D02*
X163570410Y-65480410D01*
X163570410Y-65480410D02*
X165810000Y-67720000D01*
%TO.N,/D-23*%
X156664400Y-65973932D02*
X156688332Y-65950000D01*
X161500000Y-65950000D02*
X165810000Y-70260000D01*
X156688332Y-65950000D02*
X161500000Y-65950000D01*
%TO.N,/D-24*%
X159731200Y-66721200D02*
X165810000Y-72800000D01*
X156664400Y-66721200D02*
X159731200Y-66721200D01*
%TO.N,Net-(J5-Pin_1)*%
X147030000Y-59345000D02*
X147495000Y-59810000D01*
X143510000Y-59260000D02*
X144815000Y-59260000D01*
X144900000Y-59345000D02*
X147030000Y-59345000D01*
X143385000Y-59260000D02*
X143470000Y-59345000D01*
%TO.N,Net-(J5-Pin_2)*%
X147070000Y-57695000D02*
X147495000Y-57270000D01*
X144900000Y-57695000D02*
X147070000Y-57695000D01*
X143505000Y-57790000D02*
X144805000Y-57790000D01*
%TO.N,/Z12_P*%
D34*
X139140000Y-57890000D02*
X139240000Y-57790000D01*
X138510000Y-57890000D02*
X139140000Y-57890000D01*
X139240000Y-57790000D02*
X141855000Y-57790000D01*
%TO.N,/Z12_N*%
X138620000Y-59140000D02*
X139140000Y-59140000D01*
X139260000Y-59260000D02*
X141860000Y-59260000D01*
X139140000Y-59140000D02*
X139260000Y-59260000D01*
%TO.N,/D-7*%
D33*
X159220000Y-104570000D02*
X156900000Y-104570000D01*
X161692000Y-102098000D02*
X159220000Y-104570000D01*
X156900000Y-104570000D02*
X155650000Y-105820000D01*
X155989100Y-77714057D02*
X161692000Y-83416957D01*
X161692000Y-83416957D02*
X161692000Y-102098000D01*
%TO.N,/D-8*%
X162069000Y-82737160D02*
X162069000Y-104991000D01*
X156900000Y-107110000D02*
X155650000Y-108360000D01*
X156517498Y-77185658D02*
X162069000Y-82737160D01*
X159950000Y-107110000D02*
X156900000Y-107110000D01*
X162069000Y-104991000D02*
X159950000Y-107110000D01*
%TO.N,/D-9*%
X166912000Y-89478000D02*
X165810000Y-90580000D01*
X160647498Y-73015658D02*
X160647498Y-73083091D01*
X166912000Y-79347593D02*
X166912000Y-89478000D01*
X160647498Y-73083091D02*
X166912000Y-79347593D01*
%TO.N,/D-10*%
X160118921Y-73544236D02*
X164708000Y-78133315D01*
X164708000Y-78133315D02*
X164708000Y-92018000D01*
X164708000Y-92018000D02*
X165810000Y-93120000D01*
%TO.N,/D-11*%
X159769948Y-73893209D02*
X164331000Y-78454261D01*
X164331000Y-94181000D02*
X165810000Y-95660000D01*
X164331000Y-78454261D02*
X164331000Y-94181000D01*
%TO.N,/D-12*%
X159420975Y-74242182D02*
X163954000Y-78775207D01*
X163954000Y-96344000D02*
X165810000Y-98200000D01*
X163954000Y-78775207D02*
X163954000Y-96344000D01*
%TO.N,/D-13*%
X163577000Y-98507000D02*
X165810000Y-100740000D01*
X159072002Y-74591155D02*
X163577000Y-79096153D01*
X163577000Y-79096153D02*
X163577000Y-98507000D01*
%TO.N,/D-14*%
X163200000Y-100670000D02*
X165810000Y-103280000D01*
X163200000Y-79417097D02*
X163200000Y-100670000D01*
X158723030Y-74940127D02*
X163200000Y-79417097D01*
%TO.N,/D-15*%
X162823000Y-102833000D02*
X165810000Y-105820000D01*
X158374057Y-75289100D02*
X162823000Y-79738043D01*
X162823000Y-79738043D02*
X162823000Y-102833000D01*
%TO.N,/D-16*%
X157845658Y-75817498D02*
X162446000Y-80417840D01*
X162446000Y-80417840D02*
X162446000Y-104996000D01*
X162446000Y-104996000D02*
X165810000Y-108360000D01*
%TD*%
M02*
