M48
; DRILL file KiCad 10.0.3 date 2026-09-06T00:29:24
; FORMAT={-:-/ absolute / metric / decimal}
; #@! TF.CreationDate,2026-09-06T00:29:24-07:00
; #@! TF.GenerationSoftware,Kicad,Pcbnew,10.0.3
; #@! TF.FileFunction,MixedPlating,1,4
FMAT,2
METRIC
; #@! TA.AperFunction,Plated,PTH,ViaDrill
T1C0.254
; #@! TA.AperFunction,Plated,PTH,ViaDrill
T2C0.400
; #@! TA.AperFunction,Plated,PTH,ComponentDrill
T3C0.500
; #@! TA.AperFunction,Plated,PTH,ComponentDrill
T4C1.000
; #@! TA.AperFunction,Plated,PTH,ComponentDrill
T5C3.500
%
G90
G05
T1
X132.61Y-53.97
X132.61Y-67.87
X132.61Y-70.66
X132.62Y-69.25
X132.64Y-61.33
X132.64Y-74.39
X132.64Y-77.96
X132.66Y-64.79
X132.74Y-58.05
X132.76Y-55.33
X132.9Y-59.26
X132.92Y-56.51
X132.92Y-63.09
X132.92Y-66.37
X132.93Y-75.71
X132.95Y-52.41
X132.95Y-79.04
X132.97Y-71.91
X139.14Y-79.84
X139.51Y-53.21
X140.12Y-80.09
X140.24Y-79.06
X141.04Y-52.95
X141.31Y-71.83
X141.32Y-66.85
X141.57Y-60.57
X141.85Y-78.51
X141.99Y-62.56
X142.61Y-45.8
X142.68Y-58.53
X142.75Y-52.93
X142.96Y-76.09
X142.97Y-51.45
X143.2Y-47.45
X143.96Y-68.07
X144.15Y-62.82
X144.43Y-55.43
X145.14Y-56.45
X146.12Y-68.4
X146.28Y-78.28
X146.49Y-71.75
X146.96Y-67.1
X147.02Y-45.82
X147.12Y-62.8
X147.21Y-76.073
X147.57Y-50.48
X148.27Y-78.37
X148.9Y-68.4
X149.56Y-47.49
X149.77Y-58.49
X150.06Y-51.63
X150.3Y-57.11
X150.35Y-67.17
X150.36Y-62.82
X150.46Y-79.66
X150.67Y-80.83
X151.05Y-78.29
X151.07Y-45.73
X151.85Y-53.29
X151.94Y-71.72
X152.37Y-80.62
X152.55Y-68.43
X152.62Y-103.91
X152.72Y-109.12
X152.76Y-92.21
X152.78Y-82.02
X152.79Y-66.85
X152.79Y-98.05
X152.8Y-101.07
X152.83Y-106.43
X152.86Y-111.61
X152.89Y-62.82
X152.96Y-95.05
X152.99Y-88.91
X153.13Y-83.46
X153.14Y-114.73
X153.32Y-85.54
X153.76Y-90.45
X153.82Y-102.43
X153.84Y-60.44
X153.84Y-96.39
X153.86Y-99.65
X153.86Y-105.2
X153.89Y-87.41
X153.89Y-107.65
X154.05Y-93.4
X154.05Y-110.35
X154.23Y-81.66
X154.68Y-71.75
X154.73Y-112.97
X154.77Y-61.24
X154.9Y-85.54
X154.99Y-74.25
X155.29Y-83.34
X155.71Y-60.43
X156.518Y-68.43
X156.62Y-115.26
X156.78Y-84.98
X156.86Y-55.81
X156.89Y-101.34
X156.89Y-109.56
X156.9Y-106.38
X156.92Y-96.38
X157.01Y-112.63
X158.07Y-85.93
X158.3Y-67.53
X158.32Y-77.89
X158.36Y-61.78
X158.45Y-54.25
X158.48Y-56.15
X158.78Y-113.68
X159.42Y-79.03
X159.6Y-68.22
X160.11Y-60.56
X160.19Y-115.12
X160.25Y-117.21
X160.33Y-62.31
X160.36Y-70.47
X160.4Y-80.06
X160.59Y-112.8
X160.83Y-123.61
X161.06Y-110.79
X161.12Y-80.82
X161.13Y-63.23
X161.25Y-67.0
X161.47Y-47.51
X161.48Y-57.44
X161.62Y-50.38
X161.74Y-45.85
X161.88Y-81.5
X162.01Y-70.06
X162.41Y-73.9
X162.44Y-121.43
X162.54Y-113.57
X162.71Y-53.75
X162.76Y-115.7
X162.97Y-106.86
X163.09Y-104.21
X163.21Y-123.22
X163.24Y-110.18
X163.27Y-49.18
X163.46Y-68.73
X163.47Y-101.96
X163.53Y-71.7
X163.6Y-51.24
X163.69Y-52.98
X163.88Y-115.58
X164.05Y-73.89
X164.1Y-63.02
X164.19Y-100.32
X164.2Y-98.3
X164.28Y-46.12
X164.29Y-67.15
X164.32Y-58.06
X164.33Y-55.98
X164.38Y-60.3
X164.39Y-105.44
X164.45Y-52.24
X164.45Y-103.07
X164.54Y-108.37
X164.61Y-112.52
X165.0Y-115.58
X165.81Y-83.83
X165.9Y-50.34
X166.09Y-86.15
X166.18Y-115.82
X166.23Y-123.04
X166.25Y-81.5
X166.29Y-77.13
X166.79Y-116.65
X166.86Y-48.07
X167.0Y-56.27
X167.08Y-58.95
X167.08Y-61.47
X167.08Y-107.25
X167.1Y-104.54
X167.14Y-102.12
X167.2Y-99.32
X167.22Y-121.35
X167.38Y-112.9
X167.44Y-79.16
X167.55Y-124.11
X167.62Y-86.5
X167.93Y-83.62
X168.11Y-85.14
X168.12Y-115.3
X168.95Y-49.99
X169.16Y-86.4
X169.59Y-47.74
X169.64Y-46.09
X169.66Y-122.21
X169.95Y-87.78
X170.32Y-111.5
X170.37Y-117.38
X170.39Y-78.18
X170.63Y-119.08
X170.65Y-80.93
X170.72Y-83.62
X170.84Y-115.3
X171.37Y-120.91
T2
X132.94Y-76.91
X133.015Y-73.105
X135.535Y-69.282
X135.54Y-54.06
X135.55Y-80.73
X135.56Y-57.879
X135.56Y-61.658
X135.587Y-65.468
X136.67Y-75.62
X136.73Y-55.311
X136.75Y-56.615
X136.765Y-71.815
X136.795Y-79.475
X139.3Y-60.45
X139.357Y-68.045
X139.38Y-64.229
X141.18Y-79.27
X142.71Y-54.98
X142.75Y-79.23
X144.33Y-78.4
X147.28Y-78.38
X154.775Y-60.295
X157.725Y-60.29
X158.43Y-55.18
X159.44Y-58.28
X160.98Y-58.26
X162.02Y-116.81
X163.59Y-116.81
X165.38Y-116.8
X168.32Y-116.81
T3
X135.025Y-48.9
X135.794Y-47.044
X135.794Y-50.756
X137.65Y-46.275
X137.65Y-51.525
X139.506Y-47.044
X139.506Y-50.756
X140.275Y-48.9
X153.025Y-48.9
X153.025Y-120.9
X153.794Y-47.044
X153.794Y-50.756
X153.794Y-119.044
X153.794Y-122.756
X155.65Y-46.275
X155.65Y-51.525
X155.65Y-118.275
X155.65Y-123.525
X157.506Y-47.044
X157.506Y-50.756
X157.506Y-119.044
X157.506Y-122.756
X158.275Y-48.9
X158.275Y-120.9
T4
X147.495Y-57.27
X147.495Y-59.81
X155.65Y-88.04
X155.65Y-90.58
X155.65Y-93.12
X155.65Y-95.66
X155.65Y-98.2
X155.65Y-100.74
X155.65Y-103.28
X155.65Y-105.82
X155.65Y-108.36
X155.65Y-110.9
X158.19Y-88.04
X158.19Y-90.58
X158.19Y-93.12
X158.19Y-95.66
X158.19Y-98.2
X158.19Y-100.74
X158.19Y-103.28
X158.19Y-105.82
X158.19Y-108.36
X158.19Y-110.9
X165.81Y-52.48
X165.81Y-55.02
X165.81Y-57.56
X165.81Y-60.1
X165.81Y-62.64
X165.81Y-65.18
X165.81Y-67.72
X165.81Y-70.26
X165.81Y-72.8
X165.81Y-75.34
X165.81Y-88.04
X165.81Y-90.58
X165.81Y-93.12
X165.81Y-95.66
X165.81Y-98.2
X165.81Y-100.74
X165.81Y-103.28
X165.81Y-105.82
X165.81Y-108.36
X165.81Y-110.9
X168.35Y-52.48
X168.35Y-55.02
X168.35Y-57.56
X168.35Y-60.1
X168.35Y-62.64
X168.35Y-65.18
X168.35Y-67.72
X168.35Y-70.26
X168.35Y-72.8
X168.35Y-75.34
X168.35Y-88.04
X168.35Y-90.58
X168.35Y-93.12
X168.35Y-95.66
X168.35Y-98.2
X168.35Y-100.74
X168.35Y-103.28
X168.35Y-105.82
X168.35Y-108.36
X168.35Y-110.9
T5
X137.65Y-48.9
X155.65Y-48.9
X155.65Y-120.9
M30
