%TF.GenerationSoftware,KiCad,Pcbnew,10.0.3*%
%TF.CreationDate,2026-09-06T00:29:23-07:00*%
%TF.ProjectId,OBI Data Interconnect,4f424920-4461-4746-9120-496e74657263,rev?*%
%TF.SameCoordinates,Original*%
%TF.FileFunction,Other,User*%
%FSLAX46Y46*%
G04 Gerber Fmt 4.6, Leading zero omitted, Abs format (unit mm)*
G04 Created by KiCad (PCBNEW 10.0.3) date 2026-09-06 00:29:23*
%MOMM*%
%LPD*%
G01*
G04 APERTURE LIST*
%ADD10C,0.050000*%
%ADD11C,0.120000*%
G04 APERTURE END LIST*
%TO.C,J2*%
D10*
X162130000Y-46880000D02*
X162130000Y-80940000D01*
X162130000Y-80940000D02*
X172030000Y-80940000D01*
X172030000Y-46880000D02*
X162130000Y-46880000D01*
X172030000Y-80940000D02*
X172030000Y-46880000D01*
%TO.C,J4*%
X162130000Y-82440000D02*
X162130000Y-116500000D01*
X162130000Y-116500000D02*
X172030000Y-116500000D01*
X172030000Y-82440000D02*
X162130000Y-82440000D01*
X172030000Y-116500000D02*
X172030000Y-82440000D01*
%TO.C,J3*%
X151970000Y-82440000D02*
X151970000Y-116500000D01*
X151970000Y-116500000D02*
X161870000Y-116500000D01*
X161870000Y-82440000D02*
X151970000Y-82440000D01*
X161870000Y-116500000D02*
X161870000Y-82440000D01*
%TO.C,H3*%
X159400000Y-120900000D02*
G75*
G02*
X151900000Y-120900000I-3750000J0D01*
G01*
X151900000Y-120900000D02*
G75*
G02*
X159400000Y-120900000I3750000J0D01*
G01*
D11*
X160650000Y-120900000D02*
G75*
G02*
X150650000Y-120900000I-5000000J0D01*
G01*
X150650000Y-120900000D02*
G75*
G02*
X160650000Y-120900000I5000000J0D01*
G01*
%TO.C,H1*%
D10*
X141400000Y-48900000D02*
G75*
G02*
X133900000Y-48900000I-3750000J0D01*
G01*
X133900000Y-48900000D02*
G75*
G02*
X141400000Y-48900000I3750000J0D01*
G01*
D11*
X142650000Y-48900000D02*
G75*
G02*
X132650000Y-48900000I-5000000J0D01*
G01*
X132650000Y-48900000D02*
G75*
G02*
X142650000Y-48900000I5000000J0D01*
G01*
%TO.C,H2*%
D10*
X159400000Y-48900000D02*
G75*
G02*
X151900000Y-48900000I-3750000J0D01*
G01*
X151900000Y-48900000D02*
G75*
G02*
X159400000Y-48900000I3750000J0D01*
G01*
D11*
X160650000Y-48900000D02*
G75*
G02*
X150650000Y-48900000I-5000000J0D01*
G01*
X150650000Y-48900000D02*
G75*
G02*
X160650000Y-48900000I5000000J0D01*
G01*
%TO.C,J5*%
D10*
X145745000Y-55510000D02*
X149295000Y-55510000D01*
X145745000Y-61610000D02*
X145745000Y-55510000D01*
X149295000Y-55510000D02*
X149295000Y-61610000D01*
X149295000Y-61610000D02*
X145745000Y-61610000D01*
%TD*%
M02*
