%TF.GenerationSoftware,KiCad,Pcbnew,7.0.11+dfsg-1build4*%
%TF.CreationDate,2026-09-28T02:57:55+00:00*%
%TF.ProjectId,RPi5VacuumIO,52506935-5661-4637-9575-6d494f2e6b69,rev?*%
%TF.SameCoordinates,Original*%
%TF.FileFunction,Drillmap*%
%TF.FilePolarity,Positive*%
%FSLAX45Y45*%
G04 Gerber Fmt 4.5, Leading zero omitted, Abs format (unit mm)*
G04 Created by KiCad (PCBNEW 7.0.11+dfsg-1build4) date 2026-09-28 02:57:55*
%MOMM*%
%LPD*%
G01*
G04 APERTURE LIST*
%ADD10C,0.100000*%
%ADD11C,0.200000*%
%ADD12C,0.120000*%
%ADD13C,0.130000*%
%ADD14C,0.140000*%
G04 APERTURE END LIST*
D10*
X0Y16000000D02*
X19500000Y16000000D01*
X19500000Y0D02*
X0Y0D01*
X19500000Y16000000D02*
X19500000Y0D01*
X0Y0D02*
X0Y16000000D01*
D11*
D10*
X1254230Y7033550D02*
X1284230Y7003550D01*
X1284230Y7033550D02*
X1254230Y7003550D01*
X1685000Y12220930D02*
X1715000Y12190930D01*
X1715000Y12220930D02*
X1685000Y12190930D01*
X2017860Y8578700D02*
X2047860Y8548700D01*
X2047860Y8578700D02*
X2017860Y8548700D01*
X2435100Y9699510D02*
X2465100Y9669510D01*
X2465100Y9699510D02*
X2435100Y9669510D01*
X3017240Y5969530D02*
X3047240Y5939530D01*
X3047240Y5969530D02*
X3017240Y5939530D01*
X3017240Y5242510D02*
X3047240Y5212510D01*
X3047240Y5242510D02*
X3017240Y5212510D01*
X3085070Y6679180D02*
X3115070Y6649180D01*
X3115070Y6679180D02*
X3085070Y6649180D01*
X3323420Y7013450D02*
X3353420Y6983450D01*
X3353420Y7013450D02*
X3323420Y6983450D01*
X3596320Y5532750D02*
X3626320Y5502750D01*
X3626320Y5532750D02*
X3596320Y5502750D01*
X3868760Y5164470D02*
X3898760Y5134470D01*
X3898760Y5164470D02*
X3868760Y5134470D01*
X3985000Y12220930D02*
X4015000Y12190930D01*
X4015000Y12220930D02*
X3985000Y12190930D01*
X4063000Y6917500D02*
X4093000Y6887500D01*
X4093000Y6917500D02*
X4063000Y6887500D01*
X4081160Y6768520D02*
X4111160Y6738520D01*
X4111160Y6768520D02*
X4081160Y6738520D01*
X4282090Y6724190D02*
X4312090Y6694190D01*
X4312090Y6724190D02*
X4282090Y6694190D01*
X4318480Y6799120D02*
X4348480Y6769120D01*
X4348480Y6799120D02*
X4318480Y6769120D01*
X5114070Y7291970D02*
X5144070Y7261970D01*
X5144070Y7291970D02*
X5114070Y7261970D01*
X5342640Y7113080D02*
X5372640Y7083080D01*
X5372640Y7113080D02*
X5342640Y7083080D01*
X5446560Y10536790D02*
X5476560Y10506790D01*
X5476560Y10536790D02*
X5446560Y10506790D01*
X5534480Y7079970D02*
X5564480Y7049970D01*
X5564480Y7079970D02*
X5534480Y7049970D01*
X5626470Y9471650D02*
X5656470Y9441650D01*
X5656470Y9471650D02*
X5626470Y9441650D01*
X5772690Y6474540D02*
X5802690Y6444540D01*
X5802690Y6474540D02*
X5772690Y6444540D01*
X5900190Y7468200D02*
X5930190Y7438200D01*
X5930190Y7468200D02*
X5900190Y7438200D01*
X5946400Y5402630D02*
X5976400Y5372630D01*
X5976400Y5402630D02*
X5946400Y5372630D01*
X6094170Y7663370D02*
X6124170Y7633370D01*
X6124170Y7663370D02*
X6094170Y7633370D01*
X6188130Y6619830D02*
X6218130Y6589830D01*
X6218130Y6619830D02*
X6188130Y6589830D01*
X6285000Y12220680D02*
X6315000Y12190680D01*
X6315000Y12220680D02*
X6285000Y12190680D01*
X6532190Y8318820D02*
X6562190Y8288820D01*
X6562190Y8318820D02*
X6532190Y8288820D01*
X6582610Y8578700D02*
X6612610Y8548700D01*
X6612610Y8578700D02*
X6582610Y8548700D01*
X6706330Y11215360D02*
X6736330Y11185360D01*
X6736330Y11215360D02*
X6706330Y11185360D01*
X6767150Y6664000D02*
X6797150Y6634000D01*
X6797150Y6664000D02*
X6767150Y6634000D01*
X6785440Y6474820D02*
X6815440Y6444820D01*
X6815440Y6474820D02*
X6785440Y6444820D01*
X6883260Y5179870D02*
X6913260Y5149870D01*
X6913260Y5179870D02*
X6883260Y5149870D01*
X6999730Y8385280D02*
X7029730Y8355280D01*
X7029730Y8385280D02*
X6999730Y8355280D01*
X7013000Y2541330D02*
X7043000Y2511330D01*
X7043000Y2541330D02*
X7013000Y2511330D01*
X7030270Y7116220D02*
X7060270Y7086220D01*
X7060270Y7116220D02*
X7030270Y7086220D01*
X7068450Y6050480D02*
X7098450Y6020480D01*
X7098450Y6050480D02*
X7068450Y6020480D01*
X7110490Y6594890D02*
X7140490Y6564890D01*
X7140490Y6594890D02*
X7110490Y6564890D01*
X7165730Y6525770D02*
X7195730Y6495770D01*
X7195730Y6525770D02*
X7165730Y6495770D01*
X7173240Y6283000D02*
X7203240Y6253000D01*
X7203240Y6283000D02*
X7173240Y6253000D01*
X7249230Y5775000D02*
X7279230Y5745000D01*
X7279230Y5775000D02*
X7249230Y5745000D01*
X7507260Y9840350D02*
X7537260Y9810350D01*
X7537260Y9840350D02*
X7507260Y9810350D01*
X7609520Y7019340D02*
X7639520Y6989340D01*
X7639520Y7019340D02*
X7609520Y6989340D01*
X7620710Y1829530D02*
X7650710Y1799530D01*
X7650710Y1829530D02*
X7620710Y1799530D01*
X7645910Y7103300D02*
X7675910Y7073300D01*
X7675910Y7103300D02*
X7645910Y7073300D01*
X7839720Y6994660D02*
X7869720Y6964660D01*
X7869720Y6994660D02*
X7839720Y6964660D01*
X7854900Y4550630D02*
X7884900Y4520630D01*
X7884900Y4550630D02*
X7854900Y4520630D01*
X7933520Y3824210D02*
X7963520Y3794210D01*
X7963520Y3824210D02*
X7933520Y3794210D01*
X7993400Y6791000D02*
X8023400Y6761000D01*
X8023400Y6791000D02*
X7993400Y6761000D01*
X8011230Y4296810D02*
X8041230Y4266810D01*
X8041230Y4296810D02*
X8011230Y4266810D01*
X8097450Y12525320D02*
X8127450Y12495320D01*
X8127450Y12525320D02*
X8097450Y12495320D01*
X8188970Y4471210D02*
X8218970Y4441210D01*
X8218970Y4471210D02*
X8188970Y4441210D01*
X8194770Y7006520D02*
X8224770Y6976520D01*
X8224770Y7006520D02*
X8194770Y6976520D01*
X8328980Y2667050D02*
X8358980Y2637050D01*
X8358980Y2667050D02*
X8328980Y2637050D01*
X8343960Y4902180D02*
X8373960Y4872180D01*
X8373960Y4902180D02*
X8343960Y4872180D01*
X8414750Y3194750D02*
X8444750Y3164750D01*
X8444750Y3194750D02*
X8414750Y3164750D01*
X8416040Y6633940D02*
X8446040Y6603940D01*
X8446040Y6633940D02*
X8416040Y6603940D01*
X8463390Y5892750D02*
X8493390Y5862750D01*
X8493390Y5892750D02*
X8463390Y5862750D01*
X8500590Y6537000D02*
X8530590Y6507000D01*
X8530590Y6537000D02*
X8500590Y6507000D01*
X8568690Y6410000D02*
X8598690Y6380000D01*
X8598690Y6410000D02*
X8568690Y6380000D01*
X8615120Y6540590D02*
X8645120Y6510590D01*
X8645120Y6540590D02*
X8615120Y6510590D01*
X8674890Y6691320D02*
X8704890Y6661320D01*
X8704890Y6691320D02*
X8674890Y6661320D01*
X8784020Y6265260D02*
X8814020Y6235260D01*
X8814020Y6265260D02*
X8784020Y6235260D01*
X8804230Y7074020D02*
X8834230Y7044020D01*
X8834230Y7074020D02*
X8804230Y7044020D01*
X8843450Y5911950D02*
X8873450Y5881950D01*
X8873450Y5911950D02*
X8843450Y5881950D01*
X8845230Y6206890D02*
X8875230Y6176890D01*
X8875230Y6206890D02*
X8845230Y6176890D01*
X8884990Y10517510D02*
X8914990Y10487510D01*
X8914990Y10517510D02*
X8884990Y10487510D01*
X8892870Y1205060D02*
X8922870Y1175060D01*
X8922870Y1205060D02*
X8892870Y1175060D01*
X8957260Y7092530D02*
X8987260Y7062530D01*
X8987260Y7092530D02*
X8957260Y7062530D01*
X8964090Y8107860D02*
X8994090Y8077860D01*
X8994090Y8107860D02*
X8964090Y8077860D01*
X8991990Y4390670D02*
X9021990Y4360670D01*
X9021990Y4390670D02*
X8991990Y4360670D01*
X9057250Y5852090D02*
X9087250Y5822090D01*
X9087250Y5852090D02*
X9057250Y5822090D01*
X9105240Y11095960D02*
X9135240Y11065960D01*
X9135240Y11095960D02*
X9105240Y11065960D01*
X9193800Y11337330D02*
X9223800Y11307330D01*
X9223800Y11337330D02*
X9193800Y11307330D01*
X9235240Y2435720D02*
X9265240Y2405720D01*
X9265240Y2435720D02*
X9235240Y2405720D01*
X9291440Y6086740D02*
X9321440Y6056740D01*
X9321440Y6086740D02*
X9291440Y6056740D01*
X9389790Y4233550D02*
X9419790Y4203550D01*
X9419790Y4233550D02*
X9389790Y4203550D01*
X9418160Y9864000D02*
X9448160Y9834000D01*
X9448160Y9864000D02*
X9418160Y9834000D01*
X9451850Y6847060D02*
X9481850Y6817060D01*
X9481850Y6847060D02*
X9451850Y6817060D01*
X9470600Y10261010D02*
X9500600Y10231010D01*
X9500600Y10261010D02*
X9470600Y10231010D01*
X9483680Y6923390D02*
X9513680Y6893390D01*
X9513680Y6923390D02*
X9483680Y6893390D01*
X9500620Y6734470D02*
X9530620Y6704470D01*
X9530620Y6734470D02*
X9500620Y6704470D01*
X9563830Y1527020D02*
X9593830Y1497020D01*
X9593830Y1527020D02*
X9563830Y1497020D01*
X9602350Y5075000D02*
X9632350Y5045000D01*
X9632350Y5075000D02*
X9602350Y5045000D01*
X9607380Y10118000D02*
X9637380Y10088000D01*
X9637380Y10118000D02*
X9607380Y10088000D01*
X9688210Y9661000D02*
X9718210Y9631000D01*
X9718210Y9661000D02*
X9688210Y9631000D01*
X9787290Y6086740D02*
X9817290Y6056740D01*
X9817290Y6086740D02*
X9787290Y6056740D01*
X9849500Y6764890D02*
X9879500Y6734890D01*
X9879500Y6764890D02*
X9849500Y6734890D01*
X9864290Y8939280D02*
X9894290Y8909280D01*
X9894290Y8939280D02*
X9864290Y8909280D01*
X9964980Y5046350D02*
X9994980Y5016350D01*
X9994980Y5046350D02*
X9964980Y5016350D01*
X9970150Y4751090D02*
X10000150Y4721090D01*
X10000150Y4751090D02*
X9970150Y4721090D01*
X9984150Y1083190D02*
X10014150Y1053190D01*
X10014150Y1083190D02*
X9984150Y1053190D01*
X9987700Y4191290D02*
X10017700Y4161290D01*
X10017700Y4191290D02*
X9987700Y4161290D01*
X9990940Y2170370D02*
X10020940Y2140370D01*
X10020940Y2170370D02*
X9990940Y2140370D01*
X10025340Y4629840D02*
X10055340Y4599840D01*
X10055340Y4629840D02*
X10025340Y4599840D01*
X10043340Y10552080D02*
X10073340Y10522080D01*
X10073340Y10552080D02*
X10043340Y10522080D01*
X10052200Y3589500D02*
X10082200Y3559500D01*
X10082200Y3589500D02*
X10052200Y3559500D01*
X10060320Y4397000D02*
X10090320Y4367000D01*
X10090320Y4397000D02*
X10060320Y4367000D01*
X10066450Y4056710D02*
X10096450Y4026710D01*
X10096450Y4056710D02*
X10066450Y4026710D01*
X10070600Y4517800D02*
X10100600Y4487800D01*
X10100600Y4517800D02*
X10070600Y4487800D01*
X10099430Y3653000D02*
X10129430Y3623000D01*
X10129430Y3653000D02*
X10099430Y3623000D01*
X10121610Y8348060D02*
X10151610Y8318060D01*
X10151610Y8348060D02*
X10121610Y8318060D01*
X10153810Y3179650D02*
X10183810Y3149650D01*
X10183810Y3179650D02*
X10153810Y3149650D01*
X10179820Y3782300D02*
X10209820Y3752300D01*
X10209820Y3782300D02*
X10179820Y3752300D01*
X10179820Y3461280D02*
X10209820Y3431280D01*
X10209820Y3461280D02*
X10179820Y3431280D01*
X10206790Y3073070D02*
X10236790Y3043070D01*
X10236790Y3073070D02*
X10206790Y3043070D01*
X10214700Y1825240D02*
X10244700Y1795240D01*
X10244700Y1825240D02*
X10214700Y1795240D01*
X10217450Y1388650D02*
X10247450Y1358650D01*
X10247450Y1388650D02*
X10217450Y1358650D01*
X10225740Y3232520D02*
X10255740Y3202520D01*
X10255740Y3232520D02*
X10225740Y3202520D01*
X10232500Y4995510D02*
X10262500Y4965510D01*
X10262500Y4995510D02*
X10232500Y4965510D01*
X10262000Y4147100D02*
X10292000Y4117100D01*
X10292000Y4147100D02*
X10262000Y4117100D01*
X10281840Y8280000D02*
X10311840Y8250000D01*
X10311840Y8280000D02*
X10281840Y8250000D01*
X10295000Y2421490D02*
X10325000Y2391490D01*
X10325000Y2421490D02*
X10295000Y2391490D01*
X10310120Y2175680D02*
X10340120Y2145680D01*
X10340120Y2175680D02*
X10310120Y2145680D01*
X10552300Y12376620D02*
X10582300Y12346620D01*
X10582300Y12376620D02*
X10552300Y12346620D01*
X10647740Y12759810D02*
X10677740Y12729810D01*
X10677740Y12759810D02*
X10647740Y12729810D01*
X10695920Y8213890D02*
X10725920Y8183890D01*
X10725920Y8213890D02*
X10695920Y8183890D01*
X10794040Y8594000D02*
X10824040Y8564000D01*
X10824040Y8594000D02*
X10794040Y8564000D01*
X11066000Y8052670D02*
X11096000Y8022670D01*
X11096000Y8052670D02*
X11066000Y8022670D01*
X11072250Y9928210D02*
X11102250Y9898210D01*
X11102250Y9928210D02*
X11072250Y9898210D01*
X11096140Y10029010D02*
X11126140Y9999010D01*
X11126140Y10029010D02*
X11096140Y9999010D01*
X11235000Y4796430D02*
X11265000Y4766430D01*
X11265000Y4796430D02*
X11235000Y4766430D01*
X11243160Y10250950D02*
X11273160Y10220950D01*
X11273160Y10250950D02*
X11243160Y10220950D01*
X11244790Y12597700D02*
X11274790Y12567700D01*
X11274790Y12597700D02*
X11244790Y12567700D01*
X11319520Y12652900D02*
X11349520Y12622900D01*
X11349520Y12652900D02*
X11319520Y12622900D01*
X11380670Y9265950D02*
X11410670Y9235950D01*
X11410670Y9265950D02*
X11380670Y9235950D01*
X11516780Y9583540D02*
X11546780Y9553540D01*
X11546780Y9583540D02*
X11516780Y9553540D01*
X11517250Y9483500D02*
X11547250Y9453500D01*
X11547250Y9483500D02*
X11517250Y9453500D01*
X11657520Y6767300D02*
X11687520Y6737300D01*
X11687520Y6767300D02*
X11657520Y6737300D01*
X11657520Y1251670D02*
X11687520Y1221670D01*
X11687520Y1251670D02*
X11657520Y1221670D01*
X11751390Y4341910D02*
X11781390Y4311910D01*
X11781390Y4341910D02*
X11751390Y4311910D01*
X11815330Y9356500D02*
X11845330Y9326500D01*
X11845330Y9356500D02*
X11815330Y9326500D01*
X11816970Y9737690D02*
X11846970Y9707690D01*
X11846970Y9737690D02*
X11816970Y9707690D01*
X11849560Y7468190D02*
X11879560Y7438190D01*
X11879560Y7468190D02*
X11849560Y7438190D01*
X11869610Y4054430D02*
X11899610Y4024430D01*
X11899610Y4054430D02*
X11869610Y4024430D01*
X11921530Y10138560D02*
X11951530Y10108560D01*
X11951530Y10138560D02*
X11921530Y10108560D01*
X12156780Y8472490D02*
X12186780Y8442490D01*
X12186780Y8472490D02*
X12156780Y8442490D01*
X12225840Y8536060D02*
X12255840Y8506060D01*
X12255840Y8536060D02*
X12225840Y8506060D01*
X12285000Y4666030D02*
X12315000Y4636030D01*
X12315000Y4666030D02*
X12285000Y4636030D01*
X12342120Y4147100D02*
X12372120Y4117100D01*
X12372120Y4147100D02*
X12342120Y4117100D01*
X12359090Y9864500D02*
X12389090Y9834500D01*
X12389090Y9864500D02*
X12359090Y9834500D01*
X12359190Y6763960D02*
X12389190Y6733960D01*
X12389190Y6763960D02*
X12359190Y6733960D01*
X12359190Y5241640D02*
X12389190Y5211640D01*
X12389190Y5241640D02*
X12359190Y5211640D01*
X12387480Y5164660D02*
X12417480Y5134660D01*
X12417480Y5164660D02*
X12387480Y5134660D01*
X12400750Y9581300D02*
X12430750Y9551300D01*
X12430750Y9581300D02*
X12400750Y9551300D01*
X12428250Y9987380D02*
X12458250Y9957380D01*
X12458250Y9987380D02*
X12428250Y9957380D01*
X12578380Y2873290D02*
X12608380Y2843290D01*
X12608380Y2873290D02*
X12578380Y2843290D01*
X12605740Y3999890D02*
X12635740Y3969890D01*
X12635740Y3999890D02*
X12605740Y3969890D01*
X12783950Y9479670D02*
X12813950Y9449670D01*
X12813950Y9479670D02*
X12783950Y9449670D01*
X12796000Y8848000D02*
X12826000Y8818000D01*
X12826000Y8848000D02*
X12796000Y8818000D01*
X12891200Y10496890D02*
X12921200Y10466890D01*
X12921200Y10496890D02*
X12891200Y10466890D01*
X12988900Y9356500D02*
X13018900Y9326500D01*
X13018900Y9356500D02*
X12988900Y9326500D01*
X13186800Y12128710D02*
X13216800Y12098710D01*
X13216800Y12128710D02*
X13186800Y12098710D01*
X13709460Y3589500D02*
X13739460Y3559500D01*
X13739460Y3589500D02*
X13709460Y3559500D01*
X13775740Y10212790D02*
X13805740Y10182790D01*
X13805740Y10212790D02*
X13775740Y10182790D01*
X13825000Y3904650D02*
X13855000Y3874650D01*
X13855000Y3904650D02*
X13825000Y3874650D01*
X14240000Y3912550D02*
X14270000Y3882550D01*
X14270000Y3912550D02*
X14240000Y3882550D01*
X14842170Y3028980D02*
X14872170Y2998980D01*
X14872170Y3028980D02*
X14842170Y2998980D01*
X14906040Y2646550D02*
X14936040Y2616550D01*
X14936040Y2646550D02*
X14906040Y2616550D01*
X14941050Y12074690D02*
X14971050Y12044690D01*
X14971050Y12074690D02*
X14941050Y12044690D01*
X15033800Y6882500D02*
X15063800Y6852500D01*
X15063800Y6882500D02*
X15033800Y6852500D01*
X15136080Y10197920D02*
X15166080Y10167920D01*
X15166080Y10197920D02*
X15136080Y10167920D01*
X15164720Y10000420D02*
X15194720Y9970420D01*
X15194720Y10000420D02*
X15164720Y9970420D01*
X15393540Y6782500D02*
X15423540Y6752500D01*
X15423540Y6782500D02*
X15393540Y6752500D01*
X15428360Y9686310D02*
X15458360Y9656310D01*
X15458360Y9686310D02*
X15428360Y9656310D01*
X15472500Y6746070D02*
X15502500Y6716070D01*
X15502500Y6746070D02*
X15472500Y6716070D01*
X15472500Y6243400D02*
X15502500Y6213400D01*
X15502500Y6243400D02*
X15472500Y6213400D01*
X15548300Y6968030D02*
X15578300Y6938030D01*
X15578300Y6968030D02*
X15548300Y6938030D01*
X15551700Y6782500D02*
X15581700Y6752500D01*
X15581700Y6782500D02*
X15551700Y6752500D01*
X15551700Y5745330D02*
X15581700Y5715330D01*
X15581700Y5745330D02*
X15551700Y5715330D01*
X15636640Y11209770D02*
X15666640Y11179770D01*
X15666640Y11209770D02*
X15636640Y11179770D01*
X15636640Y10139900D02*
X15666640Y10109900D01*
X15666640Y10139900D02*
X15636640Y10109900D01*
X15711110Y6389110D02*
X15741110Y6359110D01*
X15741110Y6389110D02*
X15711110Y6359110D01*
X15801040Y6932500D02*
X15831040Y6902500D01*
X15831040Y6932500D02*
X15801040Y6902500D01*
X15908730Y5925800D02*
X15938730Y5895800D01*
X15938730Y5925800D02*
X15908730Y5895800D01*
X16009000Y5719970D02*
X16039000Y5689970D01*
X16039000Y5719970D02*
X16009000Y5689970D01*
X16015540Y6786600D02*
X16045540Y6756600D01*
X16045540Y6786600D02*
X16015540Y6756600D01*
X16024740Y5503970D02*
X16054740Y5473970D01*
X16054740Y5503970D02*
X16024740Y5473970D01*
X16075230Y6934880D02*
X16105230Y6904880D01*
X16105230Y6934880D02*
X16075230Y6904880D01*
X16091450Y6700240D02*
X16121450Y6670240D01*
X16121450Y6700240D02*
X16091450Y6670240D01*
X16111120Y5877440D02*
X16141120Y5847440D01*
X16141120Y5877440D02*
X16111120Y5847440D01*
X16158270Y7637840D02*
X16188270Y7607840D01*
X16188270Y7637840D02*
X16158270Y7607840D01*
X16158270Y6936940D02*
X16188270Y6906940D01*
X16188270Y6936940D02*
X16158270Y6906940D01*
X16182610Y5541800D02*
X16212610Y5511800D01*
X16212610Y5541800D02*
X16182610Y5511800D01*
X16211870Y6880130D02*
X16241870Y6850130D01*
X16241870Y6880130D02*
X16211870Y6850130D01*
X16230250Y6732500D02*
X16260250Y6702500D01*
X16260250Y6732500D02*
X16230250Y6702500D01*
X16232480Y5447520D02*
X16262480Y5417520D01*
X16262480Y5447520D02*
X16232480Y5417520D01*
X16308280Y6578750D02*
X16338280Y6548750D01*
X16338280Y6578750D02*
X16308280Y6548750D01*
X16368490Y9879000D02*
X16398490Y9849000D01*
X16398490Y9879000D02*
X16368490Y9849000D01*
X16370750Y10154810D02*
X16400750Y10124810D01*
X16400750Y10154810D02*
X16370750Y10124810D01*
X16384650Y4972900D02*
X16414650Y4942900D01*
X16414650Y4972900D02*
X16384650Y4942900D01*
X16433330Y6765180D02*
X16463330Y6735180D01*
X16463330Y6765180D02*
X16433330Y6735180D01*
X16668010Y10465270D02*
X16698010Y10435270D01*
X16698010Y10465270D02*
X16668010Y10435270D01*
X16922010Y8974920D02*
X16952010Y8944920D01*
X16952010Y8974920D02*
X16922010Y8944920D01*
X16979220Y9216900D02*
X17009220Y9186900D01*
X17009220Y9216900D02*
X16979220Y9186900D01*
X17260000Y6118520D02*
X17290000Y6088520D01*
X17290000Y6118520D02*
X17260000Y6088520D01*
X17319650Y6390570D02*
X17349650Y6360570D01*
X17349650Y6390570D02*
X17319650Y6360570D01*
X17348700Y9074580D02*
X17378700Y9044580D01*
X17378700Y9074580D02*
X17348700Y9044580D01*
X17392050Y5626370D02*
X17422050Y5596370D01*
X17422050Y5626370D02*
X17392050Y5596370D01*
X17447240Y5056490D02*
X17477240Y5026490D01*
X17477240Y5056490D02*
X17447240Y5026490D01*
X17785000Y12220680D02*
X17815000Y12190680D01*
X17815000Y12220680D02*
X17785000Y12190680D01*
X17856780Y6801380D02*
X17886780Y6771380D01*
X17886780Y6801380D02*
X17856780Y6771380D01*
X17918580Y7019560D02*
X17948580Y6989560D01*
X17948580Y7019560D02*
X17918580Y6989560D01*
X1931510Y7124170D02*
G75*
G03*
X1891510Y7124170I-20000J0D01*
G01*
X1891510Y7124170D02*
G75*
G03*
X1931510Y7124170I20000J0D01*
G01*
X1931510Y6780260D02*
G75*
G03*
X1891510Y6780260I-20000J0D01*
G01*
X1891510Y6780260D02*
G75*
G03*
X1931510Y6780260I20000J0D01*
G01*
X2240820Y5975760D02*
G75*
G03*
X2200820Y5975760I-20000J0D01*
G01*
X2200820Y5975760D02*
G75*
G03*
X2240820Y5975760I20000J0D01*
G01*
X2675620Y5941170D02*
G75*
G03*
X2635620Y5941170I-20000J0D01*
G01*
X2635620Y5941170D02*
G75*
G03*
X2675620Y5941170I20000J0D01*
G01*
X2798350Y6328900D02*
G75*
G03*
X2758350Y6328900I-20000J0D01*
G01*
X2758350Y6328900D02*
G75*
G03*
X2798350Y6328900I20000J0D01*
G01*
X3218210Y6735950D02*
G75*
G03*
X3178210Y6735950I-20000J0D01*
G01*
X3178210Y6735950D02*
G75*
G03*
X3218210Y6735950I20000J0D01*
G01*
X3249360Y12032000D02*
G75*
G03*
X3209360Y12032000I-20000J0D01*
G01*
X3209360Y12032000D02*
G75*
G03*
X3249360Y12032000I20000J0D01*
G01*
X3426500Y5478490D02*
G75*
G03*
X3386500Y5478490I-20000J0D01*
G01*
X3386500Y5478490D02*
G75*
G03*
X3426500Y5478490I20000J0D01*
G01*
X3426500Y5149470D02*
G75*
G03*
X3386500Y5149470I-20000J0D01*
G01*
X3386500Y5149470D02*
G75*
G03*
X3426500Y5149470I20000J0D01*
G01*
X3503750Y6665130D02*
G75*
G03*
X3463750Y6665130I-20000J0D01*
G01*
X3463750Y6665130D02*
G75*
G03*
X3503750Y6665130I20000J0D01*
G01*
X3643960Y5982900D02*
G75*
G03*
X3603960Y5982900I-20000J0D01*
G01*
X3603960Y5982900D02*
G75*
G03*
X3643960Y5982900I20000J0D01*
G01*
X3970000Y6279310D02*
G75*
G03*
X3930000Y6279310I-20000J0D01*
G01*
X3930000Y6279310D02*
G75*
G03*
X3970000Y6279310I20000J0D01*
G01*
X4063990Y6334580D02*
G75*
G03*
X4023990Y6334580I-20000J0D01*
G01*
X4023990Y6334580D02*
G75*
G03*
X4063990Y6334580I20000J0D01*
G01*
X4485310Y6286080D02*
G75*
G03*
X4445310Y6286080I-20000J0D01*
G01*
X4445310Y6286080D02*
G75*
G03*
X4485310Y6286080I20000J0D01*
G01*
X4514970Y12243150D02*
G75*
G03*
X4474970Y12243150I-20000J0D01*
G01*
X4474970Y12243150D02*
G75*
G03*
X4514970Y12243150I20000J0D01*
G01*
X4666880Y6099140D02*
G75*
G03*
X4626880Y6099140I-20000J0D01*
G01*
X4626880Y6099140D02*
G75*
G03*
X4666880Y6099140I20000J0D01*
G01*
X5136430Y5979810D02*
G75*
G03*
X5096430Y5979810I-20000J0D01*
G01*
X5096430Y5979810D02*
G75*
G03*
X5136430Y5979810I20000J0D01*
G01*
X5139710Y6979390D02*
G75*
G03*
X5099710Y6979390I-20000J0D01*
G01*
X5099710Y6979390D02*
G75*
G03*
X5139710Y6979390I20000J0D01*
G01*
X5244690Y5483880D02*
G75*
G03*
X5204690Y5483880I-20000J0D01*
G01*
X5204690Y5483880D02*
G75*
G03*
X5244690Y5483880I20000J0D01*
G01*
X5352190Y9173470D02*
G75*
G03*
X5312190Y9173470I-20000J0D01*
G01*
X5312190Y9173470D02*
G75*
G03*
X5352190Y9173470I20000J0D01*
G01*
X5389210Y6729890D02*
G75*
G03*
X5349210Y6729890I-20000J0D01*
G01*
X5349210Y6729890D02*
G75*
G03*
X5389210Y6729890I20000J0D01*
G01*
X5556820Y5553500D02*
G75*
G03*
X5516820Y5553500I-20000J0D01*
G01*
X5516820Y5553500D02*
G75*
G03*
X5556820Y5553500I20000J0D01*
G01*
X5652170Y6644140D02*
G75*
G03*
X5612170Y6644140I-20000J0D01*
G01*
X5612170Y6644140D02*
G75*
G03*
X5652170Y6644140I20000J0D01*
G01*
X6029320Y12185500D02*
G75*
G03*
X5989320Y12185500I-20000J0D01*
G01*
X5989320Y12185500D02*
G75*
G03*
X6029320Y12185500I20000J0D01*
G01*
X6091930Y6535480D02*
G75*
G03*
X6051930Y6535480I-20000J0D01*
G01*
X6051930Y6535480D02*
G75*
G03*
X6091930Y6535480I20000J0D01*
G01*
X7702500Y12031840D02*
G75*
G03*
X7662500Y12031840I-20000J0D01*
G01*
X7662500Y12031840D02*
G75*
G03*
X7702500Y12031840I20000J0D01*
G01*
X8389450Y12315800D02*
G75*
G03*
X8349450Y12315800I-20000J0D01*
G01*
X8349450Y12315800D02*
G75*
G03*
X8389450Y12315800I20000J0D01*
G01*
X8632950Y10446770D02*
G75*
G03*
X8592950Y10446770I-20000J0D01*
G01*
X8592950Y10446770D02*
G75*
G03*
X8632950Y10446770I20000J0D01*
G01*
X10226640Y12319570D02*
G75*
G03*
X10186640Y12319570I-20000J0D01*
G01*
X10186640Y12319570D02*
G75*
G03*
X10226640Y12319570I20000J0D01*
G01*
X11692520Y12029940D02*
G75*
G03*
X11652520Y12029940I-20000J0D01*
G01*
X11652520Y12029940D02*
G75*
G03*
X11692520Y12029940I20000J0D01*
G01*
X12478820Y9152190D02*
G75*
G03*
X12438820Y9152190I-20000J0D01*
G01*
X12438820Y9152190D02*
G75*
G03*
X12478820Y9152190I20000J0D01*
G01*
X14057560Y12025270D02*
G75*
G03*
X14017560Y12025270I-20000J0D01*
G01*
X14017560Y12025270D02*
G75*
G03*
X14057560Y12025270I20000J0D01*
G01*
X14872030Y12026900D02*
G75*
G03*
X14832030Y12026900I-20000J0D01*
G01*
X14832030Y12026900D02*
G75*
G03*
X14872030Y12026900I20000J0D01*
G01*
X15053930Y11816520D02*
G75*
G03*
X15013930Y11816520I-20000J0D01*
G01*
X15013930Y11816520D02*
G75*
G03*
X15053930Y11816520I20000J0D01*
G01*
X1598500Y11122500D02*
X1598500Y11022500D01*
X1548500Y11072500D02*
X1648500Y11072500D01*
X2106500Y11121500D02*
X2106500Y11021500D01*
X2056500Y11071500D02*
X2156500Y11071500D01*
X13000000Y11104000D02*
X13000000Y11004000D01*
X12950000Y11054000D02*
X13050000Y11054000D01*
X13000000Y10850000D02*
X13000000Y10750000D01*
X12950000Y10800000D02*
X13050000Y10800000D01*
X13254000Y11104000D02*
X13254000Y11004000D01*
X13204000Y11054000D02*
X13304000Y11054000D01*
X13254000Y10850000D02*
X13254000Y10750000D01*
X13204000Y10800000D02*
X13304000Y10800000D01*
X13508000Y11104000D02*
X13508000Y11004000D01*
X13458000Y11054000D02*
X13558000Y11054000D01*
X13508000Y10850000D02*
X13508000Y10750000D01*
X13458000Y10800000D02*
X13558000Y10800000D01*
X13762000Y11104000D02*
X13762000Y11004000D01*
X13712000Y11054000D02*
X13812000Y11054000D01*
X13762000Y10850000D02*
X13762000Y10750000D01*
X13712000Y10800000D02*
X13812000Y10800000D01*
X14016000Y11104000D02*
X14016000Y11004000D01*
X13966000Y11054000D02*
X14066000Y11054000D01*
X14016000Y10850000D02*
X14016000Y10750000D01*
X13966000Y10800000D02*
X14066000Y10800000D01*
X14270000Y11104000D02*
X14270000Y11004000D01*
X14220000Y11054000D02*
X14320000Y11054000D01*
X14270000Y10850000D02*
X14270000Y10750000D01*
X14220000Y10800000D02*
X14320000Y10800000D01*
X14524000Y11104000D02*
X14524000Y11004000D01*
X14474000Y11054000D02*
X14574000Y11054000D01*
X14524000Y10850000D02*
X14524000Y10750000D01*
X14474000Y10800000D02*
X14574000Y10800000D01*
X14778000Y11104000D02*
X14778000Y11004000D01*
X14728000Y11054000D02*
X14828000Y11054000D01*
X14778000Y10850000D02*
X14778000Y10750000D01*
X14728000Y10800000D02*
X14828000Y10800000D01*
X15032000Y11104000D02*
X15032000Y11004000D01*
X14982000Y11054000D02*
X15082000Y11054000D01*
X15032000Y10850000D02*
X15032000Y10750000D01*
X14982000Y10800000D02*
X15082000Y10800000D01*
X15286000Y11104000D02*
X15286000Y11004000D01*
X15236000Y11054000D02*
X15336000Y11054000D01*
X15286000Y10850000D02*
X15286000Y10750000D01*
X15236000Y10800000D02*
X15336000Y10800000D01*
X15540000Y11104000D02*
X15540000Y11004000D01*
X15490000Y11054000D02*
X15590000Y11054000D01*
X15540000Y10850000D02*
X15540000Y10750000D01*
X15490000Y10800000D02*
X15590000Y10800000D01*
X15794000Y11104000D02*
X15794000Y11004000D01*
X15744000Y11054000D02*
X15844000Y11054000D01*
X15794000Y10850000D02*
X15794000Y10750000D01*
X15744000Y10800000D02*
X15844000Y10800000D01*
X16048000Y11104000D02*
X16048000Y11004000D01*
X15998000Y11054000D02*
X16098000Y11054000D01*
X16048000Y10850000D02*
X16048000Y10750000D01*
X15998000Y10800000D02*
X16098000Y10800000D01*
X16302000Y11104000D02*
X16302000Y11004000D01*
X16252000Y11054000D02*
X16352000Y11054000D01*
X16302000Y10850000D02*
X16302000Y10750000D01*
X16252000Y10800000D02*
X16352000Y10800000D01*
X16556000Y11104000D02*
X16556000Y11004000D01*
X16506000Y11054000D02*
X16606000Y11054000D01*
X16556000Y10850000D02*
X16556000Y10750000D01*
X16506000Y10800000D02*
X16606000Y10800000D01*
X16810000Y11104000D02*
X16810000Y11004000D01*
X16760000Y11054000D02*
X16860000Y11054000D01*
X16810000Y10850000D02*
X16810000Y10750000D01*
X16760000Y10800000D02*
X16860000Y10800000D01*
X17064000Y11104000D02*
X17064000Y11004000D01*
X17014000Y11054000D02*
X17114000Y11054000D01*
X17064000Y10850000D02*
X17064000Y10750000D01*
X17014000Y10800000D02*
X17114000Y10800000D01*
X17318000Y11104000D02*
X17318000Y11004000D01*
X17268000Y11054000D02*
X17368000Y11054000D01*
X17318000Y10850000D02*
X17318000Y10750000D01*
X17268000Y10800000D02*
X17368000Y10800000D01*
X17572000Y11104000D02*
X17572000Y11004000D01*
X17522000Y11054000D02*
X17622000Y11054000D01*
X17572000Y10850000D02*
X17572000Y10750000D01*
X17522000Y10800000D02*
X17622000Y10800000D01*
X17826000Y11104000D02*
X17826000Y11004000D01*
X17776000Y11054000D02*
X17876000Y11054000D01*
X17826000Y10850000D02*
X17826000Y10750000D01*
X17776000Y10800000D02*
X17876000Y10800000D01*
D12*
X895427Y9357573D02*
X895427Y9442427D01*
X810573Y9442427D01*
X810573Y9357573D01*
X895427Y9357573D01*
X895427Y9007573D02*
X895427Y9092427D01*
X810573Y9092427D01*
X810573Y9007573D01*
X895427Y9007573D01*
X1142427Y810573D02*
X1142427Y895427D01*
X1057573Y895427D01*
X1057573Y810573D01*
X1142427Y810573D01*
X1492427Y810573D02*
X1492427Y895427D01*
X1407573Y895427D01*
X1407573Y810573D01*
X1492427Y810573D01*
X1842427Y810573D02*
X1842427Y895427D01*
X1757573Y895427D01*
X1757573Y810573D01*
X1842427Y810573D01*
X2192427Y810573D02*
X2192427Y895427D01*
X2107573Y895427D01*
X2107573Y810573D01*
X2192427Y810573D01*
X2942427Y810573D02*
X2942427Y895427D01*
X2857573Y895427D01*
X2857573Y810573D01*
X2942427Y810573D01*
X3292427Y810573D02*
X3292427Y895427D01*
X3207573Y895427D01*
X3207573Y810573D01*
X3292427Y810573D01*
X3642427Y810573D02*
X3642427Y895427D01*
X3557573Y895427D01*
X3557573Y810573D01*
X3642427Y810573D01*
X3992427Y810573D02*
X3992427Y895427D01*
X3907573Y895427D01*
X3907573Y810573D01*
X3992427Y810573D01*
X4742427Y810573D02*
X4742427Y895427D01*
X4657573Y895427D01*
X4657573Y810573D01*
X4742427Y810573D01*
X5092427Y810573D02*
X5092427Y895427D01*
X5007573Y895427D01*
X5007573Y810573D01*
X5092427Y810573D01*
X5442427Y810573D02*
X5442427Y895427D01*
X5357573Y895427D01*
X5357573Y810573D01*
X5442427Y810573D01*
X5792427Y810573D02*
X5792427Y895427D01*
X5707573Y895427D01*
X5707573Y810573D01*
X5792427Y810573D01*
X6542427Y810573D02*
X6542427Y895427D01*
X6457573Y895427D01*
X6457573Y810573D01*
X6542427Y810573D01*
X6892427Y810573D02*
X6892427Y895427D01*
X6807573Y895427D01*
X6807573Y810573D01*
X6892427Y810573D01*
X7242427Y810573D02*
X7242427Y895427D01*
X7157573Y895427D01*
X7157573Y810573D01*
X7242427Y810573D01*
X7592427Y810573D02*
X7592427Y895427D01*
X7507573Y895427D01*
X7507573Y810573D01*
X7592427Y810573D01*
X8442427Y810573D02*
X8442427Y895427D01*
X8357573Y895427D01*
X8357573Y810573D01*
X8442427Y810573D01*
X8792427Y810573D02*
X8792427Y895427D01*
X8707573Y895427D01*
X8707573Y810573D01*
X8792427Y810573D01*
X9142427Y810573D02*
X9142427Y895427D01*
X9057573Y895427D01*
X9057573Y810573D01*
X9142427Y810573D01*
X9492427Y810573D02*
X9492427Y895427D01*
X9407573Y895427D01*
X9407573Y810573D01*
X9492427Y810573D01*
X9842427Y810573D02*
X9842427Y895427D01*
X9757573Y895427D01*
X9757573Y810573D01*
X9842427Y810573D01*
X10192427Y810573D02*
X10192427Y895427D01*
X10107573Y895427D01*
X10107573Y810573D01*
X10192427Y810573D01*
X10942427Y810573D02*
X10942427Y895427D01*
X10857573Y895427D01*
X10857573Y810573D01*
X10942427Y810573D01*
X11292427Y810573D02*
X11292427Y895427D01*
X11207573Y895427D01*
X11207573Y810573D01*
X11292427Y810573D01*
X11642427Y810573D02*
X11642427Y895427D01*
X11557573Y895427D01*
X11557573Y810573D01*
X11642427Y810573D01*
X11992427Y810573D02*
X11992427Y895427D01*
X11907573Y895427D01*
X11907573Y810573D01*
X11992427Y810573D01*
X12342427Y810573D02*
X12342427Y895427D01*
X12257573Y895427D01*
X12257573Y810573D01*
X12342427Y810573D01*
X12692427Y810573D02*
X12692427Y895427D01*
X12607573Y895427D01*
X12607573Y810573D01*
X12692427Y810573D01*
X13442427Y810573D02*
X13442427Y895427D01*
X13357573Y895427D01*
X13357573Y810573D01*
X13442427Y810573D01*
X13792427Y810573D02*
X13792427Y895427D01*
X13707573Y895427D01*
X13707573Y810573D01*
X13792427Y810573D01*
X14142427Y810573D02*
X14142427Y895427D01*
X14057573Y895427D01*
X14057573Y810573D01*
X14142427Y810573D01*
X14492427Y810573D02*
X14492427Y895427D01*
X14407573Y895427D01*
X14407573Y810573D01*
X14492427Y810573D01*
X14842427Y810573D02*
X14842427Y895427D01*
X14757573Y895427D01*
X14757573Y810573D01*
X14842427Y810573D01*
X15192427Y810573D02*
X15192427Y895427D01*
X15107573Y895427D01*
X15107573Y810573D01*
X15192427Y810573D01*
X15942427Y810573D02*
X15942427Y895427D01*
X15857573Y895427D01*
X15857573Y810573D01*
X15942427Y810573D01*
X16292427Y810573D02*
X16292427Y895427D01*
X16207573Y895427D01*
X16207573Y810573D01*
X16292427Y810573D01*
X16642427Y810573D02*
X16642427Y895427D01*
X16557573Y895427D01*
X16557573Y810573D01*
X16642427Y810573D01*
X16992427Y810573D02*
X16992427Y895427D01*
X16907573Y895427D01*
X16907573Y810573D01*
X16992427Y810573D01*
X17342427Y810573D02*
X17342427Y895427D01*
X17257573Y895427D01*
X17257573Y810573D01*
X17342427Y810573D01*
X17692427Y810573D02*
X17692427Y895427D01*
X17607573Y895427D01*
X17607573Y810573D01*
X17692427Y810573D01*
X18689427Y9657573D02*
X18689427Y9742427D01*
X18604573Y9742427D01*
X18604573Y9657573D01*
X18689427Y9657573D01*
X18689427Y9307573D02*
X18689427Y9392427D01*
X18604573Y9392427D01*
X18604573Y9307573D01*
X18689427Y9307573D01*
X18689427Y8957573D02*
X18689427Y9042427D01*
X18604573Y9042427D01*
X18604573Y8957573D01*
X18689427Y8957573D01*
X18689427Y8157573D02*
X18689427Y8242427D01*
X18604573Y8242427D01*
X18604573Y8157573D01*
X18689427Y8157573D01*
X18689427Y7807573D02*
X18689427Y7892427D01*
X18604573Y7892427D01*
X18604573Y7807573D01*
X18689427Y7807573D01*
X18689427Y7457573D02*
X18689427Y7542427D01*
X18604573Y7542427D01*
X18604573Y7457573D01*
X18689427Y7457573D01*
X18689427Y6607573D02*
X18689427Y6692427D01*
X18604573Y6692427D01*
X18604573Y6607573D01*
X18689427Y6607573D01*
X18689427Y6257573D02*
X18689427Y6342427D01*
X18604573Y6342427D01*
X18604573Y6257573D01*
X18689427Y6257573D01*
X18689427Y5907573D02*
X18689427Y5992427D01*
X18604573Y5992427D01*
X18604573Y5907573D01*
X18689427Y5907573D01*
X18689427Y5557573D02*
X18689427Y5642427D01*
X18604573Y5642427D01*
X18604573Y5557573D01*
X18689427Y5557573D01*
X18689427Y5207573D02*
X18689427Y5292427D01*
X18604573Y5292427D01*
X18604573Y5207573D01*
X18689427Y5207573D01*
X18689427Y4857573D02*
X18689427Y4942427D01*
X18604573Y4942427D01*
X18604573Y4857573D01*
X18689427Y4857573D01*
X18689427Y4507573D02*
X18689427Y4592427D01*
X18604573Y4592427D01*
X18604573Y4507573D01*
X18689427Y4507573D01*
X18689427Y4157573D02*
X18689427Y4242427D01*
X18604573Y4242427D01*
X18604573Y4157573D01*
X18689427Y4157573D01*
X18689427Y3457573D02*
X18689427Y3542427D01*
X18604573Y3542427D01*
X18604573Y3457573D01*
X18689427Y3457573D01*
X18689427Y3107573D02*
X18689427Y3192427D01*
X18604573Y3192427D01*
X18604573Y3107573D01*
X18689427Y3107573D01*
X18689427Y2757573D02*
X18689427Y2842427D01*
X18604573Y2842427D01*
X18604573Y2757573D01*
X18689427Y2757573D01*
X18689427Y2407573D02*
X18689427Y2492427D01*
X18604573Y2492427D01*
X18604573Y2407573D01*
X18689427Y2407573D01*
X18689427Y2057573D02*
X18689427Y2142427D01*
X18604573Y2142427D01*
X18604573Y2057573D01*
X18689427Y2057573D01*
X18689427Y1707573D02*
X18689427Y1792427D01*
X18604573Y1792427D01*
X18604573Y1707573D01*
X18689427Y1707573D01*
X18689427Y1357573D02*
X18689427Y1442427D01*
X18604573Y1442427D01*
X18604573Y1357573D01*
X18689427Y1357573D01*
X18689427Y1007573D02*
X18689427Y1092427D01*
X18604573Y1092427D01*
X18604573Y1007573D01*
X18689427Y1007573D01*
D13*
X1080000Y14135000D02*
X1145000Y14200000D01*
X1080000Y14265000D01*
X1015000Y14200000D01*
X1080000Y14135000D01*
X1080000Y12915000D02*
X1145000Y12980000D01*
X1080000Y13045000D01*
X1015000Y12980000D01*
X1080000Y12915000D01*
X1680000Y14335000D02*
X1745000Y14400000D01*
X1680000Y14465000D01*
X1615000Y14400000D01*
X1680000Y14335000D01*
X2280000Y14135000D02*
X2345000Y14200000D01*
X2280000Y14265000D01*
X2215000Y14200000D01*
X2280000Y14135000D01*
X2280000Y12915000D02*
X2345000Y12980000D01*
X2280000Y13045000D01*
X2215000Y12980000D01*
X2280000Y12915000D01*
X3380000Y14135000D02*
X3445000Y14200000D01*
X3380000Y14265000D01*
X3315000Y14200000D01*
X3380000Y14135000D01*
X3380000Y12915000D02*
X3445000Y12980000D01*
X3380000Y13045000D01*
X3315000Y12980000D01*
X3380000Y12915000D01*
X3980000Y14335000D02*
X4045000Y14400000D01*
X3980000Y14465000D01*
X3915000Y14400000D01*
X3980000Y14335000D01*
X4580000Y14135000D02*
X4645000Y14200000D01*
X4580000Y14265000D01*
X4515000Y14200000D01*
X4580000Y14135000D01*
X4580000Y12915000D02*
X4645000Y12980000D01*
X4580000Y13045000D01*
X4515000Y12980000D01*
X4580000Y12915000D01*
X5000000Y10235000D02*
X5065000Y10300000D01*
X5000000Y10365000D01*
X4935000Y10300000D01*
X5000000Y10235000D01*
X5000000Y8335000D02*
X5065000Y8400000D01*
X5000000Y8465000D01*
X4935000Y8400000D01*
X5000000Y8335000D01*
X5200000Y10835000D02*
X5265000Y10900000D01*
X5200000Y10965000D01*
X5135000Y10900000D01*
X5200000Y10835000D01*
X5200000Y9635000D02*
X5265000Y9700000D01*
X5200000Y9765000D01*
X5135000Y9700000D01*
X5200000Y9635000D01*
X5200000Y8935000D02*
X5265000Y9000000D01*
X5200000Y9065000D01*
X5135000Y9000000D01*
X5200000Y8935000D01*
X5200000Y7735000D02*
X5265000Y7800000D01*
X5200000Y7865000D01*
X5135000Y7800000D01*
X5200000Y7735000D01*
X5680000Y14135000D02*
X5745000Y14200000D01*
X5680000Y14265000D01*
X5615000Y14200000D01*
X5680000Y14135000D01*
X5680000Y12915000D02*
X5745000Y12980000D01*
X5680000Y13045000D01*
X5615000Y12980000D01*
X5680000Y12915000D01*
X6280000Y14335000D02*
X6345000Y14400000D01*
X6280000Y14465000D01*
X6215000Y14400000D01*
X6280000Y14335000D01*
X6420000Y10835000D02*
X6485000Y10900000D01*
X6420000Y10965000D01*
X6355000Y10900000D01*
X6420000Y10835000D01*
X6420000Y9635000D02*
X6485000Y9700000D01*
X6420000Y9765000D01*
X6355000Y9700000D01*
X6420000Y9635000D01*
X6420000Y8935000D02*
X6485000Y9000000D01*
X6420000Y9065000D01*
X6355000Y9000000D01*
X6420000Y8935000D01*
X6420000Y7735000D02*
X6485000Y7800000D01*
X6420000Y7865000D01*
X6355000Y7800000D01*
X6420000Y7735000D01*
X6880000Y14135000D02*
X6945000Y14200000D01*
X6880000Y14265000D01*
X6815000Y14200000D01*
X6880000Y14135000D01*
X6880000Y12915000D02*
X6945000Y12980000D01*
X6880000Y13045000D01*
X6815000Y12980000D01*
X6880000Y12915000D01*
X7980000Y14135000D02*
X8045000Y14200000D01*
X7980000Y14265000D01*
X7915000Y14200000D01*
X7980000Y14135000D01*
X7980000Y12915000D02*
X8045000Y12980000D01*
X7980000Y13045000D01*
X7915000Y12980000D01*
X7980000Y12915000D01*
X8580000Y14335000D02*
X8645000Y14400000D01*
X8580000Y14465000D01*
X8515000Y14400000D01*
X8580000Y14335000D01*
X9180000Y14135000D02*
X9245000Y14200000D01*
X9180000Y14265000D01*
X9115000Y14200000D01*
X9180000Y14135000D01*
X9180000Y12915000D02*
X9245000Y12980000D01*
X9180000Y13045000D01*
X9115000Y12980000D01*
X9180000Y12915000D01*
X10280000Y14135000D02*
X10345000Y14200000D01*
X10280000Y14265000D01*
X10215000Y14200000D01*
X10280000Y14135000D01*
X10280000Y12915000D02*
X10345000Y12980000D01*
X10280000Y13045000D01*
X10215000Y12980000D01*
X10280000Y12915000D01*
X10880000Y14335000D02*
X10945000Y14400000D01*
X10880000Y14465000D01*
X10815000Y14400000D01*
X10880000Y14335000D01*
X11480000Y14135000D02*
X11545000Y14200000D01*
X11480000Y14265000D01*
X11415000Y14200000D01*
X11480000Y14135000D01*
X11480000Y12915000D02*
X11545000Y12980000D01*
X11480000Y13045000D01*
X11415000Y12980000D01*
X11480000Y12915000D01*
X12580000Y14135000D02*
X12645000Y14200000D01*
X12580000Y14265000D01*
X12515000Y14200000D01*
X12580000Y14135000D01*
X12580000Y12915000D02*
X12645000Y12980000D01*
X12580000Y13045000D01*
X12515000Y12980000D01*
X12580000Y12915000D01*
X13180000Y14335000D02*
X13245000Y14400000D01*
X13180000Y14465000D01*
X13115000Y14400000D01*
X13180000Y14335000D01*
X13780000Y14135000D02*
X13845000Y14200000D01*
X13780000Y14265000D01*
X13715000Y14200000D01*
X13780000Y14135000D01*
X13780000Y12915000D02*
X13845000Y12980000D01*
X13780000Y13045000D01*
X13715000Y12980000D01*
X13780000Y12915000D01*
X14880000Y14135000D02*
X14945000Y14200000D01*
X14880000Y14265000D01*
X14815000Y14200000D01*
X14880000Y14135000D01*
X14880000Y12915000D02*
X14945000Y12980000D01*
X14880000Y13045000D01*
X14815000Y12980000D01*
X14880000Y12915000D01*
X15480000Y14335000D02*
X15545000Y14400000D01*
X15480000Y14465000D01*
X15415000Y14400000D01*
X15480000Y14335000D01*
X16080000Y14135000D02*
X16145000Y14200000D01*
X16080000Y14265000D01*
X16015000Y14200000D01*
X16080000Y14135000D01*
X16080000Y12915000D02*
X16145000Y12980000D01*
X16080000Y13045000D01*
X16015000Y12980000D01*
X16080000Y12915000D01*
X17180000Y14135000D02*
X17245000Y14200000D01*
X17180000Y14265000D01*
X17115000Y14200000D01*
X17180000Y14135000D01*
X17180000Y12915000D02*
X17245000Y12980000D01*
X17180000Y13045000D01*
X17115000Y12980000D01*
X17180000Y12915000D01*
X17780000Y14335000D02*
X17845000Y14400000D01*
X17780000Y14465000D01*
X17715000Y14400000D01*
X17780000Y14335000D01*
X18380000Y14135000D02*
X18445000Y14200000D01*
X18380000Y14265000D01*
X18315000Y14200000D01*
X18380000Y14135000D01*
X18380000Y12915000D02*
X18445000Y12980000D01*
X18380000Y13045000D01*
X18315000Y12980000D01*
X18380000Y12915000D01*
D14*
X983000Y11070000D02*
X1123000Y10930000D01*
X1123000Y11070000D02*
X983000Y10930000D01*
X1123000Y11000000D02*
G75*
G03*
X983000Y11000000I-70000J0D01*
G01*
X983000Y11000000D02*
G75*
G03*
X1123000Y11000000I70000J0D01*
G01*
X983000Y10562000D02*
X1123000Y10422000D01*
X1123000Y10562000D02*
X983000Y10422000D01*
X1123000Y10492000D02*
G75*
G03*
X983000Y10492000I-70000J0D01*
G01*
X983000Y10492000D02*
G75*
G03*
X1123000Y10492000I70000J0D01*
G01*
X1102000Y15017000D02*
X1242000Y14877000D01*
X1242000Y15017000D02*
X1102000Y14877000D01*
X1242000Y14947000D02*
G75*
G03*
X1102000Y14947000I-70000J0D01*
G01*
X1102000Y14947000D02*
G75*
G03*
X1242000Y14947000I70000J0D01*
G01*
X1610000Y15017000D02*
X1750000Y14877000D01*
X1750000Y15017000D02*
X1610000Y14877000D01*
X1750000Y14947000D02*
G75*
G03*
X1610000Y14947000I-70000J0D01*
G01*
X1610000Y14947000D02*
G75*
G03*
X1750000Y14947000I70000J0D01*
G01*
X2118000Y15017000D02*
X2258000Y14877000D01*
X2258000Y15017000D02*
X2118000Y14877000D01*
X2258000Y14947000D02*
G75*
G03*
X2118000Y14947000I-70000J0D01*
G01*
X2118000Y14947000D02*
G75*
G03*
X2258000Y14947000I70000J0D01*
G01*
X3402000Y15017000D02*
X3542000Y14877000D01*
X3542000Y15017000D02*
X3402000Y14877000D01*
X3542000Y14947000D02*
G75*
G03*
X3402000Y14947000I-70000J0D01*
G01*
X3402000Y14947000D02*
G75*
G03*
X3542000Y14947000I70000J0D01*
G01*
X3910000Y15017000D02*
X4050000Y14877000D01*
X4050000Y15017000D02*
X3910000Y14877000D01*
X4050000Y14947000D02*
G75*
G03*
X3910000Y14947000I-70000J0D01*
G01*
X3910000Y14947000D02*
G75*
G03*
X4050000Y14947000I70000J0D01*
G01*
X4418000Y15017000D02*
X4558000Y14877000D01*
X4558000Y15017000D02*
X4418000Y14877000D01*
X4558000Y14947000D02*
G75*
G03*
X4418000Y14947000I-70000J0D01*
G01*
X4418000Y14947000D02*
G75*
G03*
X4558000Y14947000I70000J0D01*
G01*
X5702000Y15017000D02*
X5842000Y14877000D01*
X5842000Y15017000D02*
X5702000Y14877000D01*
X5842000Y14947000D02*
G75*
G03*
X5702000Y14947000I-70000J0D01*
G01*
X5702000Y14947000D02*
G75*
G03*
X5842000Y14947000I70000J0D01*
G01*
X6210000Y15017000D02*
X6350000Y14877000D01*
X6350000Y15017000D02*
X6210000Y14877000D01*
X6350000Y14947000D02*
G75*
G03*
X6210000Y14947000I-70000J0D01*
G01*
X6210000Y14947000D02*
G75*
G03*
X6350000Y14947000I70000J0D01*
G01*
X6718000Y15017000D02*
X6858000Y14877000D01*
X6858000Y15017000D02*
X6718000Y14877000D01*
X6858000Y14947000D02*
G75*
G03*
X6718000Y14947000I-70000J0D01*
G01*
X6718000Y14947000D02*
G75*
G03*
X6858000Y14947000I70000J0D01*
G01*
X8002000Y15017000D02*
X8142000Y14877000D01*
X8142000Y15017000D02*
X8002000Y14877000D01*
X8142000Y14947000D02*
G75*
G03*
X8002000Y14947000I-70000J0D01*
G01*
X8002000Y14947000D02*
G75*
G03*
X8142000Y14947000I70000J0D01*
G01*
X8510000Y15017000D02*
X8650000Y14877000D01*
X8650000Y15017000D02*
X8510000Y14877000D01*
X8650000Y14947000D02*
G75*
G03*
X8510000Y14947000I-70000J0D01*
G01*
X8510000Y14947000D02*
G75*
G03*
X8650000Y14947000I70000J0D01*
G01*
X9018000Y15017000D02*
X9158000Y14877000D01*
X9158000Y15017000D02*
X9018000Y14877000D01*
X9158000Y14947000D02*
G75*
G03*
X9018000Y14947000I-70000J0D01*
G01*
X9018000Y14947000D02*
G75*
G03*
X9158000Y14947000I70000J0D01*
G01*
X10302000Y15017000D02*
X10442000Y14877000D01*
X10442000Y15017000D02*
X10302000Y14877000D01*
X10442000Y14947000D02*
G75*
G03*
X10302000Y14947000I-70000J0D01*
G01*
X10302000Y14947000D02*
G75*
G03*
X10442000Y14947000I70000J0D01*
G01*
X10810000Y15017000D02*
X10950000Y14877000D01*
X10950000Y15017000D02*
X10810000Y14877000D01*
X10950000Y14947000D02*
G75*
G03*
X10810000Y14947000I-70000J0D01*
G01*
X10810000Y14947000D02*
G75*
G03*
X10950000Y14947000I70000J0D01*
G01*
X11318000Y15017000D02*
X11458000Y14877000D01*
X11458000Y15017000D02*
X11318000Y14877000D01*
X11458000Y14947000D02*
G75*
G03*
X11318000Y14947000I-70000J0D01*
G01*
X11318000Y14947000D02*
G75*
G03*
X11458000Y14947000I70000J0D01*
G01*
X12602000Y15017000D02*
X12742000Y14877000D01*
X12742000Y15017000D02*
X12602000Y14877000D01*
X12742000Y14947000D02*
G75*
G03*
X12602000Y14947000I-70000J0D01*
G01*
X12602000Y14947000D02*
G75*
G03*
X12742000Y14947000I70000J0D01*
G01*
X13110000Y15017000D02*
X13250000Y14877000D01*
X13250000Y15017000D02*
X13110000Y14877000D01*
X13250000Y14947000D02*
G75*
G03*
X13110000Y14947000I-70000J0D01*
G01*
X13110000Y14947000D02*
G75*
G03*
X13250000Y14947000I70000J0D01*
G01*
X13618000Y15017000D02*
X13758000Y14877000D01*
X13758000Y15017000D02*
X13618000Y14877000D01*
X13758000Y14947000D02*
G75*
G03*
X13618000Y14947000I-70000J0D01*
G01*
X13618000Y14947000D02*
G75*
G03*
X13758000Y14947000I70000J0D01*
G01*
X14902000Y15017000D02*
X15042000Y14877000D01*
X15042000Y15017000D02*
X14902000Y14877000D01*
X15042000Y14947000D02*
G75*
G03*
X14902000Y14947000I-70000J0D01*
G01*
X14902000Y14947000D02*
G75*
G03*
X15042000Y14947000I70000J0D01*
G01*
X15410000Y15017000D02*
X15550000Y14877000D01*
X15550000Y15017000D02*
X15410000Y14877000D01*
X15550000Y14947000D02*
G75*
G03*
X15410000Y14947000I-70000J0D01*
G01*
X15410000Y14947000D02*
G75*
G03*
X15550000Y14947000I70000J0D01*
G01*
X15918000Y15017000D02*
X16058000Y14877000D01*
X16058000Y15017000D02*
X15918000Y14877000D01*
X16058000Y14947000D02*
G75*
G03*
X15918000Y14947000I-70000J0D01*
G01*
X15918000Y14947000D02*
G75*
G03*
X16058000Y14947000I70000J0D01*
G01*
X17202000Y15017000D02*
X17342000Y14877000D01*
X17342000Y15017000D02*
X17202000Y14877000D01*
X17342000Y14947000D02*
G75*
G03*
X17202000Y14947000I-70000J0D01*
G01*
X17202000Y14947000D02*
G75*
G03*
X17342000Y14947000I70000J0D01*
G01*
X17710000Y15017000D02*
X17850000Y14877000D01*
X17850000Y15017000D02*
X17710000Y14877000D01*
X17850000Y14947000D02*
G75*
G03*
X17710000Y14947000I-70000J0D01*
G01*
X17710000Y14947000D02*
G75*
G03*
X17850000Y14947000I70000J0D01*
G01*
X18218000Y15017000D02*
X18358000Y14877000D01*
X18358000Y15017000D02*
X18218000Y14877000D01*
X18358000Y14947000D02*
G75*
G03*
X18218000Y14947000I-70000J0D01*
G01*
X18218000Y14947000D02*
G75*
G03*
X18358000Y14947000I70000J0D01*
G01*
D11*
X255777Y-316484D02*
X255777Y-116484D01*
X255777Y-116484D02*
X303396Y-116484D01*
X303396Y-116484D02*
X331967Y-126008D01*
X331967Y-126008D02*
X351015Y-145055D01*
X351015Y-145055D02*
X360539Y-164103D01*
X360539Y-164103D02*
X370062Y-202198D01*
X370062Y-202198D02*
X370062Y-230769D01*
X370062Y-230769D02*
X360539Y-268865D01*
X360539Y-268865D02*
X351015Y-287912D01*
X351015Y-287912D02*
X331967Y-306960D01*
X331967Y-306960D02*
X303396Y-316484D01*
X303396Y-316484D02*
X255777Y-316484D01*
X455777Y-316484D02*
X455777Y-183150D01*
X455777Y-221246D02*
X465301Y-202198D01*
X465301Y-202198D02*
X474824Y-192674D01*
X474824Y-192674D02*
X493872Y-183150D01*
X493872Y-183150D02*
X512920Y-183150D01*
X579586Y-316484D02*
X579586Y-183150D01*
X579586Y-116484D02*
X570063Y-126008D01*
X570063Y-126008D02*
X579586Y-135531D01*
X579586Y-135531D02*
X589110Y-126008D01*
X589110Y-126008D02*
X579586Y-116484D01*
X579586Y-116484D02*
X579586Y-135531D01*
X703396Y-316484D02*
X684348Y-306960D01*
X684348Y-306960D02*
X674824Y-287912D01*
X674824Y-287912D02*
X674824Y-116484D01*
X808158Y-316484D02*
X789110Y-306960D01*
X789110Y-306960D02*
X779586Y-287912D01*
X779586Y-287912D02*
X779586Y-116484D01*
X1036729Y-316484D02*
X1036729Y-116484D01*
X1036729Y-116484D02*
X1103396Y-259341D01*
X1103396Y-259341D02*
X1170063Y-116484D01*
X1170063Y-116484D02*
X1170063Y-316484D01*
X1351015Y-316484D02*
X1351015Y-211722D01*
X1351015Y-211722D02*
X1341491Y-192674D01*
X1341491Y-192674D02*
X1322444Y-183150D01*
X1322444Y-183150D02*
X1284348Y-183150D01*
X1284348Y-183150D02*
X1265301Y-192674D01*
X1351015Y-306960D02*
X1331967Y-316484D01*
X1331967Y-316484D02*
X1284348Y-316484D01*
X1284348Y-316484D02*
X1265301Y-306960D01*
X1265301Y-306960D02*
X1255777Y-287912D01*
X1255777Y-287912D02*
X1255777Y-268865D01*
X1255777Y-268865D02*
X1265301Y-249817D01*
X1265301Y-249817D02*
X1284348Y-240293D01*
X1284348Y-240293D02*
X1331967Y-240293D01*
X1331967Y-240293D02*
X1351015Y-230769D01*
X1446253Y-183150D02*
X1446253Y-383150D01*
X1446253Y-192674D02*
X1465301Y-183150D01*
X1465301Y-183150D02*
X1503396Y-183150D01*
X1503396Y-183150D02*
X1522443Y-192674D01*
X1522443Y-192674D02*
X1531967Y-202198D01*
X1531967Y-202198D02*
X1541491Y-221246D01*
X1541491Y-221246D02*
X1541491Y-278389D01*
X1541491Y-278389D02*
X1531967Y-297436D01*
X1531967Y-297436D02*
X1522443Y-306960D01*
X1522443Y-306960D02*
X1503396Y-316484D01*
X1503396Y-316484D02*
X1465301Y-316484D01*
X1465301Y-316484D02*
X1446253Y-306960D01*
X1627205Y-297436D02*
X1636729Y-306960D01*
X1636729Y-306960D02*
X1627205Y-316484D01*
X1627205Y-316484D02*
X1617682Y-306960D01*
X1617682Y-306960D02*
X1627205Y-297436D01*
X1627205Y-297436D02*
X1627205Y-316484D01*
X1627205Y-192674D02*
X1636729Y-202198D01*
X1636729Y-202198D02*
X1627205Y-211722D01*
X1627205Y-211722D02*
X1617682Y-202198D01*
X1617682Y-202198D02*
X1627205Y-192674D01*
X1627205Y-192674D02*
X1627205Y-211722D01*
D10*
X-35000Y-630000D02*
X-5000Y-660000D01*
X-5000Y-630000D02*
X-35000Y-660000D01*
D11*
X293872Y-536484D02*
X312920Y-536484D01*
X312920Y-536484D02*
X331967Y-546008D01*
X331967Y-546008D02*
X341491Y-555531D01*
X341491Y-555531D02*
X351015Y-574579D01*
X351015Y-574579D02*
X360539Y-612674D01*
X360539Y-612674D02*
X360539Y-660293D01*
X360539Y-660293D02*
X351015Y-698389D01*
X351015Y-698389D02*
X341491Y-717436D01*
X341491Y-717436D02*
X331967Y-726960D01*
X331967Y-726960D02*
X312920Y-736484D01*
X312920Y-736484D02*
X293872Y-736484D01*
X293872Y-736484D02*
X274824Y-726960D01*
X274824Y-726960D02*
X265301Y-717436D01*
X265301Y-717436D02*
X255777Y-698389D01*
X255777Y-698389D02*
X246253Y-660293D01*
X246253Y-660293D02*
X246253Y-612674D01*
X246253Y-612674D02*
X255777Y-574579D01*
X255777Y-574579D02*
X265301Y-555531D01*
X265301Y-555531D02*
X274824Y-546008D01*
X274824Y-546008D02*
X293872Y-536484D01*
X446253Y-717436D02*
X455777Y-726960D01*
X455777Y-726960D02*
X446253Y-736484D01*
X446253Y-736484D02*
X436729Y-726960D01*
X436729Y-726960D02*
X446253Y-717436D01*
X446253Y-717436D02*
X446253Y-736484D01*
X522443Y-536484D02*
X646253Y-536484D01*
X646253Y-536484D02*
X579586Y-612674D01*
X579586Y-612674D02*
X608158Y-612674D01*
X608158Y-612674D02*
X627205Y-622198D01*
X627205Y-622198D02*
X636729Y-631722D01*
X636729Y-631722D02*
X646253Y-650770D01*
X646253Y-650770D02*
X646253Y-698389D01*
X646253Y-698389D02*
X636729Y-717436D01*
X636729Y-717436D02*
X627205Y-726960D01*
X627205Y-726960D02*
X608158Y-736484D01*
X608158Y-736484D02*
X551015Y-736484D01*
X551015Y-736484D02*
X531967Y-726960D01*
X531967Y-726960D02*
X522443Y-717436D01*
X770062Y-536484D02*
X789110Y-536484D01*
X789110Y-536484D02*
X808158Y-546008D01*
X808158Y-546008D02*
X817682Y-555531D01*
X817682Y-555531D02*
X827205Y-574579D01*
X827205Y-574579D02*
X836729Y-612674D01*
X836729Y-612674D02*
X836729Y-660293D01*
X836729Y-660293D02*
X827205Y-698389D01*
X827205Y-698389D02*
X817682Y-717436D01*
X817682Y-717436D02*
X808158Y-726960D01*
X808158Y-726960D02*
X789110Y-736484D01*
X789110Y-736484D02*
X770062Y-736484D01*
X770062Y-736484D02*
X751015Y-726960D01*
X751015Y-726960D02*
X741491Y-717436D01*
X741491Y-717436D02*
X731967Y-698389D01*
X731967Y-698389D02*
X722443Y-660293D01*
X722443Y-660293D02*
X722443Y-612674D01*
X722443Y-612674D02*
X731967Y-574579D01*
X731967Y-574579D02*
X741491Y-555531D01*
X741491Y-555531D02*
X751015Y-546008D01*
X751015Y-546008D02*
X770062Y-536484D01*
X960539Y-536484D02*
X979586Y-536484D01*
X979586Y-536484D02*
X998634Y-546008D01*
X998634Y-546008D02*
X1008158Y-555531D01*
X1008158Y-555531D02*
X1017682Y-574579D01*
X1017682Y-574579D02*
X1027205Y-612674D01*
X1027205Y-612674D02*
X1027205Y-660293D01*
X1027205Y-660293D02*
X1017682Y-698389D01*
X1017682Y-698389D02*
X1008158Y-717436D01*
X1008158Y-717436D02*
X998634Y-726960D01*
X998634Y-726960D02*
X979586Y-736484D01*
X979586Y-736484D02*
X960539Y-736484D01*
X960539Y-736484D02*
X941491Y-726960D01*
X941491Y-726960D02*
X931967Y-717436D01*
X931967Y-717436D02*
X922443Y-698389D01*
X922443Y-698389D02*
X912920Y-660293D01*
X912920Y-660293D02*
X912920Y-612674D01*
X912920Y-612674D02*
X922443Y-574579D01*
X922443Y-574579D02*
X931967Y-555531D01*
X931967Y-555531D02*
X941491Y-546008D01*
X941491Y-546008D02*
X960539Y-536484D01*
X1112920Y-736484D02*
X1112920Y-603150D01*
X1112920Y-622198D02*
X1122444Y-612674D01*
X1122444Y-612674D02*
X1141491Y-603150D01*
X1141491Y-603150D02*
X1170063Y-603150D01*
X1170063Y-603150D02*
X1189110Y-612674D01*
X1189110Y-612674D02*
X1198634Y-631722D01*
X1198634Y-631722D02*
X1198634Y-736484D01*
X1198634Y-631722D02*
X1208158Y-612674D01*
X1208158Y-612674D02*
X1227205Y-603150D01*
X1227205Y-603150D02*
X1255777Y-603150D01*
X1255777Y-603150D02*
X1274825Y-612674D01*
X1274825Y-612674D02*
X1284348Y-631722D01*
X1284348Y-631722D02*
X1284348Y-736484D01*
X1379586Y-736484D02*
X1379586Y-603150D01*
X1379586Y-622198D02*
X1389110Y-612674D01*
X1389110Y-612674D02*
X1408158Y-603150D01*
X1408158Y-603150D02*
X1436729Y-603150D01*
X1436729Y-603150D02*
X1455777Y-612674D01*
X1455777Y-612674D02*
X1465301Y-631722D01*
X1465301Y-631722D02*
X1465301Y-736484D01*
X1465301Y-631722D02*
X1474824Y-612674D01*
X1474824Y-612674D02*
X1493872Y-603150D01*
X1493872Y-603150D02*
X1522443Y-603150D01*
X1522443Y-603150D02*
X1541491Y-612674D01*
X1541491Y-612674D02*
X1551015Y-631722D01*
X1551015Y-631722D02*
X1551015Y-736484D01*
X1941491Y-526960D02*
X1770063Y-784103D01*
X2198634Y-536484D02*
X2217682Y-536484D01*
X2217682Y-536484D02*
X2236729Y-546008D01*
X2236729Y-546008D02*
X2246253Y-555531D01*
X2246253Y-555531D02*
X2255777Y-574579D01*
X2255777Y-574579D02*
X2265301Y-612674D01*
X2265301Y-612674D02*
X2265301Y-660293D01*
X2265301Y-660293D02*
X2255777Y-698389D01*
X2255777Y-698389D02*
X2246253Y-717436D01*
X2246253Y-717436D02*
X2236729Y-726960D01*
X2236729Y-726960D02*
X2217682Y-736484D01*
X2217682Y-736484D02*
X2198634Y-736484D01*
X2198634Y-736484D02*
X2179587Y-726960D01*
X2179587Y-726960D02*
X2170063Y-717436D01*
X2170063Y-717436D02*
X2160539Y-698389D01*
X2160539Y-698389D02*
X2151015Y-660293D01*
X2151015Y-660293D02*
X2151015Y-612674D01*
X2151015Y-612674D02*
X2160539Y-574579D01*
X2160539Y-574579D02*
X2170063Y-555531D01*
X2170063Y-555531D02*
X2179587Y-546008D01*
X2179587Y-546008D02*
X2198634Y-536484D01*
X2351015Y-717436D02*
X2360539Y-726960D01*
X2360539Y-726960D02*
X2351015Y-736484D01*
X2351015Y-736484D02*
X2341491Y-726960D01*
X2341491Y-726960D02*
X2351015Y-717436D01*
X2351015Y-717436D02*
X2351015Y-736484D01*
X2484348Y-536484D02*
X2503396Y-536484D01*
X2503396Y-536484D02*
X2522444Y-546008D01*
X2522444Y-546008D02*
X2531968Y-555531D01*
X2531968Y-555531D02*
X2541491Y-574579D01*
X2541491Y-574579D02*
X2551015Y-612674D01*
X2551015Y-612674D02*
X2551015Y-660293D01*
X2551015Y-660293D02*
X2541491Y-698389D01*
X2541491Y-698389D02*
X2531968Y-717436D01*
X2531968Y-717436D02*
X2522444Y-726960D01*
X2522444Y-726960D02*
X2503396Y-736484D01*
X2503396Y-736484D02*
X2484348Y-736484D01*
X2484348Y-736484D02*
X2465301Y-726960D01*
X2465301Y-726960D02*
X2455777Y-717436D01*
X2455777Y-717436D02*
X2446253Y-698389D01*
X2446253Y-698389D02*
X2436729Y-660293D01*
X2436729Y-660293D02*
X2436729Y-612674D01*
X2436729Y-612674D02*
X2446253Y-574579D01*
X2446253Y-574579D02*
X2455777Y-555531D01*
X2455777Y-555531D02*
X2465301Y-546008D01*
X2465301Y-546008D02*
X2484348Y-536484D01*
X2741491Y-736484D02*
X2627206Y-736484D01*
X2684348Y-736484D02*
X2684348Y-536484D01*
X2684348Y-536484D02*
X2665301Y-565055D01*
X2665301Y-565055D02*
X2646253Y-584103D01*
X2646253Y-584103D02*
X2627206Y-593627D01*
X2931967Y-736484D02*
X2817682Y-736484D01*
X2874825Y-736484D02*
X2874825Y-536484D01*
X2874825Y-536484D02*
X2855777Y-565055D01*
X2855777Y-565055D02*
X2836729Y-584103D01*
X2836729Y-584103D02*
X2817682Y-593627D01*
X3046253Y-622198D02*
X3027206Y-612674D01*
X3027206Y-612674D02*
X3017682Y-603150D01*
X3017682Y-603150D02*
X3008158Y-584103D01*
X3008158Y-584103D02*
X3008158Y-574579D01*
X3008158Y-574579D02*
X3017682Y-555531D01*
X3017682Y-555531D02*
X3027206Y-546008D01*
X3027206Y-546008D02*
X3046253Y-536484D01*
X3046253Y-536484D02*
X3084348Y-536484D01*
X3084348Y-536484D02*
X3103396Y-546008D01*
X3103396Y-546008D02*
X3112920Y-555531D01*
X3112920Y-555531D02*
X3122444Y-574579D01*
X3122444Y-574579D02*
X3122444Y-584103D01*
X3122444Y-584103D02*
X3112920Y-603150D01*
X3112920Y-603150D02*
X3103396Y-612674D01*
X3103396Y-612674D02*
X3084348Y-622198D01*
X3084348Y-622198D02*
X3046253Y-622198D01*
X3046253Y-622198D02*
X3027206Y-631722D01*
X3027206Y-631722D02*
X3017682Y-641246D01*
X3017682Y-641246D02*
X3008158Y-660293D01*
X3008158Y-660293D02*
X3008158Y-698389D01*
X3008158Y-698389D02*
X3017682Y-717436D01*
X3017682Y-717436D02*
X3027206Y-726960D01*
X3027206Y-726960D02*
X3046253Y-736484D01*
X3046253Y-736484D02*
X3084348Y-736484D01*
X3084348Y-736484D02*
X3103396Y-726960D01*
X3103396Y-726960D02*
X3112920Y-717436D01*
X3112920Y-717436D02*
X3122444Y-698389D01*
X3122444Y-698389D02*
X3122444Y-660293D01*
X3122444Y-660293D02*
X3112920Y-641246D01*
X3112920Y-641246D02*
X3103396Y-631722D01*
X3103396Y-631722D02*
X3084348Y-622198D01*
X3198634Y-536484D02*
X3198634Y-574579D01*
X3274825Y-536484D02*
X3274825Y-574579D01*
X3570063Y-812674D02*
X3560539Y-803150D01*
X3560539Y-803150D02*
X3541491Y-774579D01*
X3541491Y-774579D02*
X3531968Y-755531D01*
X3531968Y-755531D02*
X3522444Y-726960D01*
X3522444Y-726960D02*
X3512920Y-679341D01*
X3512920Y-679341D02*
X3512920Y-641246D01*
X3512920Y-641246D02*
X3522444Y-593627D01*
X3522444Y-593627D02*
X3531968Y-565055D01*
X3531968Y-565055D02*
X3541491Y-546008D01*
X3541491Y-546008D02*
X3560539Y-517436D01*
X3560539Y-517436D02*
X3570063Y-507912D01*
X3636729Y-555531D02*
X3646253Y-546008D01*
X3646253Y-546008D02*
X3665301Y-536484D01*
X3665301Y-536484D02*
X3712920Y-536484D01*
X3712920Y-536484D02*
X3731968Y-546008D01*
X3731968Y-546008D02*
X3741491Y-555531D01*
X3741491Y-555531D02*
X3751015Y-574579D01*
X3751015Y-574579D02*
X3751015Y-593627D01*
X3751015Y-593627D02*
X3741491Y-622198D01*
X3741491Y-622198D02*
X3627206Y-736484D01*
X3627206Y-736484D02*
X3751015Y-736484D01*
X3874825Y-536484D02*
X3893872Y-536484D01*
X3893872Y-536484D02*
X3912920Y-546008D01*
X3912920Y-546008D02*
X3922444Y-555531D01*
X3922444Y-555531D02*
X3931968Y-574579D01*
X3931968Y-574579D02*
X3941491Y-612674D01*
X3941491Y-612674D02*
X3941491Y-660293D01*
X3941491Y-660293D02*
X3931968Y-698389D01*
X3931968Y-698389D02*
X3922444Y-717436D01*
X3922444Y-717436D02*
X3912920Y-726960D01*
X3912920Y-726960D02*
X3893872Y-736484D01*
X3893872Y-736484D02*
X3874825Y-736484D01*
X3874825Y-736484D02*
X3855777Y-726960D01*
X3855777Y-726960D02*
X3846253Y-717436D01*
X3846253Y-717436D02*
X3836729Y-698389D01*
X3836729Y-698389D02*
X3827206Y-660293D01*
X3827206Y-660293D02*
X3827206Y-612674D01*
X3827206Y-612674D02*
X3836729Y-574579D01*
X3836729Y-574579D02*
X3846253Y-555531D01*
X3846253Y-555531D02*
X3855777Y-546008D01*
X3855777Y-546008D02*
X3874825Y-536484D01*
X4017682Y-555531D02*
X4027206Y-546008D01*
X4027206Y-546008D02*
X4046253Y-536484D01*
X4046253Y-536484D02*
X4093872Y-536484D01*
X4093872Y-536484D02*
X4112920Y-546008D01*
X4112920Y-546008D02*
X4122444Y-555531D01*
X4122444Y-555531D02*
X4131968Y-574579D01*
X4131968Y-574579D02*
X4131968Y-593627D01*
X4131968Y-593627D02*
X4122444Y-622198D01*
X4122444Y-622198D02*
X4008158Y-736484D01*
X4008158Y-736484D02*
X4131968Y-736484D01*
X4370063Y-736484D02*
X4370063Y-536484D01*
X4455777Y-736484D02*
X4455777Y-631722D01*
X4455777Y-631722D02*
X4446253Y-612674D01*
X4446253Y-612674D02*
X4427206Y-603150D01*
X4427206Y-603150D02*
X4398634Y-603150D01*
X4398634Y-603150D02*
X4379587Y-612674D01*
X4379587Y-612674D02*
X4370063Y-622198D01*
X4579587Y-736484D02*
X4560539Y-726960D01*
X4560539Y-726960D02*
X4551015Y-717436D01*
X4551015Y-717436D02*
X4541492Y-698389D01*
X4541492Y-698389D02*
X4541492Y-641246D01*
X4541492Y-641246D02*
X4551015Y-622198D01*
X4551015Y-622198D02*
X4560539Y-612674D01*
X4560539Y-612674D02*
X4579587Y-603150D01*
X4579587Y-603150D02*
X4608158Y-603150D01*
X4608158Y-603150D02*
X4627206Y-612674D01*
X4627206Y-612674D02*
X4636730Y-622198D01*
X4636730Y-622198D02*
X4646253Y-641246D01*
X4646253Y-641246D02*
X4646253Y-698389D01*
X4646253Y-698389D02*
X4636730Y-717436D01*
X4636730Y-717436D02*
X4627206Y-726960D01*
X4627206Y-726960D02*
X4608158Y-736484D01*
X4608158Y-736484D02*
X4579587Y-736484D01*
X4760539Y-736484D02*
X4741492Y-726960D01*
X4741492Y-726960D02*
X4731968Y-707912D01*
X4731968Y-707912D02*
X4731968Y-536484D01*
X4912920Y-726960D02*
X4893873Y-736484D01*
X4893873Y-736484D02*
X4855777Y-736484D01*
X4855777Y-736484D02*
X4836730Y-726960D01*
X4836730Y-726960D02*
X4827206Y-707912D01*
X4827206Y-707912D02*
X4827206Y-631722D01*
X4827206Y-631722D02*
X4836730Y-612674D01*
X4836730Y-612674D02*
X4855777Y-603150D01*
X4855777Y-603150D02*
X4893873Y-603150D01*
X4893873Y-603150D02*
X4912920Y-612674D01*
X4912920Y-612674D02*
X4922444Y-631722D01*
X4922444Y-631722D02*
X4922444Y-650770D01*
X4922444Y-650770D02*
X4827206Y-669817D01*
X4998634Y-726960D02*
X5017682Y-736484D01*
X5017682Y-736484D02*
X5055777Y-736484D01*
X5055777Y-736484D02*
X5074825Y-726960D01*
X5074825Y-726960D02*
X5084349Y-707912D01*
X5084349Y-707912D02*
X5084349Y-698389D01*
X5084349Y-698389D02*
X5074825Y-679341D01*
X5074825Y-679341D02*
X5055777Y-669817D01*
X5055777Y-669817D02*
X5027206Y-669817D01*
X5027206Y-669817D02*
X5008158Y-660293D01*
X5008158Y-660293D02*
X4998634Y-641246D01*
X4998634Y-641246D02*
X4998634Y-631722D01*
X4998634Y-631722D02*
X5008158Y-612674D01*
X5008158Y-612674D02*
X5027206Y-603150D01*
X5027206Y-603150D02*
X5055777Y-603150D01*
X5055777Y-603150D02*
X5074825Y-612674D01*
X5151015Y-812674D02*
X5160539Y-803150D01*
X5160539Y-803150D02*
X5179587Y-774579D01*
X5179587Y-774579D02*
X5189111Y-755531D01*
X5189111Y-755531D02*
X5198634Y-726960D01*
X5198634Y-726960D02*
X5208158Y-679341D01*
X5208158Y-679341D02*
X5208158Y-641246D01*
X5208158Y-641246D02*
X5198634Y-593627D01*
X5198634Y-593627D02*
X5189111Y-565055D01*
X5189111Y-565055D02*
X5179587Y-546008D01*
X5179587Y-546008D02*
X5160539Y-517436D01*
X5160539Y-517436D02*
X5151015Y-507912D01*
D10*
X-5000Y-909000D02*
G75*
G03*
X-45000Y-909000I-20000J0D01*
G01*
X-45000Y-909000D02*
G75*
G03*
X-5000Y-909000I20000J0D01*
G01*
D11*
X293872Y-800484D02*
X312920Y-800484D01*
X312920Y-800484D02*
X331967Y-810008D01*
X331967Y-810008D02*
X341491Y-819531D01*
X341491Y-819531D02*
X351015Y-838579D01*
X351015Y-838579D02*
X360539Y-876674D01*
X360539Y-876674D02*
X360539Y-924293D01*
X360539Y-924293D02*
X351015Y-962388D01*
X351015Y-962388D02*
X341491Y-981436D01*
X341491Y-981436D02*
X331967Y-990960D01*
X331967Y-990960D02*
X312920Y-1000484D01*
X312920Y-1000484D02*
X293872Y-1000484D01*
X293872Y-1000484D02*
X274824Y-990960D01*
X274824Y-990960D02*
X265301Y-981436D01*
X265301Y-981436D02*
X255777Y-962388D01*
X255777Y-962388D02*
X246253Y-924293D01*
X246253Y-924293D02*
X246253Y-876674D01*
X246253Y-876674D02*
X255777Y-838579D01*
X255777Y-838579D02*
X265301Y-819531D01*
X265301Y-819531D02*
X274824Y-810008D01*
X274824Y-810008D02*
X293872Y-800484D01*
X446253Y-981436D02*
X455777Y-990960D01*
X455777Y-990960D02*
X446253Y-1000484D01*
X446253Y-1000484D02*
X436729Y-990960D01*
X436729Y-990960D02*
X446253Y-981436D01*
X446253Y-981436D02*
X446253Y-1000484D01*
X627205Y-867150D02*
X627205Y-1000484D01*
X579586Y-790960D02*
X531967Y-933817D01*
X531967Y-933817D02*
X655777Y-933817D01*
X770062Y-800484D02*
X789110Y-800484D01*
X789110Y-800484D02*
X808158Y-810008D01*
X808158Y-810008D02*
X817682Y-819531D01*
X817682Y-819531D02*
X827205Y-838579D01*
X827205Y-838579D02*
X836729Y-876674D01*
X836729Y-876674D02*
X836729Y-924293D01*
X836729Y-924293D02*
X827205Y-962388D01*
X827205Y-962388D02*
X817682Y-981436D01*
X817682Y-981436D02*
X808158Y-990960D01*
X808158Y-990960D02*
X789110Y-1000484D01*
X789110Y-1000484D02*
X770062Y-1000484D01*
X770062Y-1000484D02*
X751015Y-990960D01*
X751015Y-990960D02*
X741491Y-981436D01*
X741491Y-981436D02*
X731967Y-962388D01*
X731967Y-962388D02*
X722443Y-924293D01*
X722443Y-924293D02*
X722443Y-876674D01*
X722443Y-876674D02*
X731967Y-838579D01*
X731967Y-838579D02*
X741491Y-819531D01*
X741491Y-819531D02*
X751015Y-810008D01*
X751015Y-810008D02*
X770062Y-800484D01*
X960539Y-800484D02*
X979586Y-800484D01*
X979586Y-800484D02*
X998634Y-810008D01*
X998634Y-810008D02*
X1008158Y-819531D01*
X1008158Y-819531D02*
X1017682Y-838579D01*
X1017682Y-838579D02*
X1027205Y-876674D01*
X1027205Y-876674D02*
X1027205Y-924293D01*
X1027205Y-924293D02*
X1017682Y-962388D01*
X1017682Y-962388D02*
X1008158Y-981436D01*
X1008158Y-981436D02*
X998634Y-990960D01*
X998634Y-990960D02*
X979586Y-1000484D01*
X979586Y-1000484D02*
X960539Y-1000484D01*
X960539Y-1000484D02*
X941491Y-990960D01*
X941491Y-990960D02*
X931967Y-981436D01*
X931967Y-981436D02*
X922443Y-962388D01*
X922443Y-962388D02*
X912920Y-924293D01*
X912920Y-924293D02*
X912920Y-876674D01*
X912920Y-876674D02*
X922443Y-838579D01*
X922443Y-838579D02*
X931967Y-819531D01*
X931967Y-819531D02*
X941491Y-810008D01*
X941491Y-810008D02*
X960539Y-800484D01*
X1112920Y-1000484D02*
X1112920Y-867150D01*
X1112920Y-886198D02*
X1122444Y-876674D01*
X1122444Y-876674D02*
X1141491Y-867150D01*
X1141491Y-867150D02*
X1170063Y-867150D01*
X1170063Y-867150D02*
X1189110Y-876674D01*
X1189110Y-876674D02*
X1198634Y-895722D01*
X1198634Y-895722D02*
X1198634Y-1000484D01*
X1198634Y-895722D02*
X1208158Y-876674D01*
X1208158Y-876674D02*
X1227205Y-867150D01*
X1227205Y-867150D02*
X1255777Y-867150D01*
X1255777Y-867150D02*
X1274825Y-876674D01*
X1274825Y-876674D02*
X1284348Y-895722D01*
X1284348Y-895722D02*
X1284348Y-1000484D01*
X1379586Y-1000484D02*
X1379586Y-867150D01*
X1379586Y-886198D02*
X1389110Y-876674D01*
X1389110Y-876674D02*
X1408158Y-867150D01*
X1408158Y-867150D02*
X1436729Y-867150D01*
X1436729Y-867150D02*
X1455777Y-876674D01*
X1455777Y-876674D02*
X1465301Y-895722D01*
X1465301Y-895722D02*
X1465301Y-1000484D01*
X1465301Y-895722D02*
X1474824Y-876674D01*
X1474824Y-876674D02*
X1493872Y-867150D01*
X1493872Y-867150D02*
X1522443Y-867150D01*
X1522443Y-867150D02*
X1541491Y-876674D01*
X1541491Y-876674D02*
X1551015Y-895722D01*
X1551015Y-895722D02*
X1551015Y-1000484D01*
X1941491Y-790960D02*
X1770063Y-1048103D01*
X2198634Y-800484D02*
X2217682Y-800484D01*
X2217682Y-800484D02*
X2236729Y-810008D01*
X2236729Y-810008D02*
X2246253Y-819531D01*
X2246253Y-819531D02*
X2255777Y-838579D01*
X2255777Y-838579D02*
X2265301Y-876674D01*
X2265301Y-876674D02*
X2265301Y-924293D01*
X2265301Y-924293D02*
X2255777Y-962388D01*
X2255777Y-962388D02*
X2246253Y-981436D01*
X2246253Y-981436D02*
X2236729Y-990960D01*
X2236729Y-990960D02*
X2217682Y-1000484D01*
X2217682Y-1000484D02*
X2198634Y-1000484D01*
X2198634Y-1000484D02*
X2179587Y-990960D01*
X2179587Y-990960D02*
X2170063Y-981436D01*
X2170063Y-981436D02*
X2160539Y-962388D01*
X2160539Y-962388D02*
X2151015Y-924293D01*
X2151015Y-924293D02*
X2151015Y-876674D01*
X2151015Y-876674D02*
X2160539Y-838579D01*
X2160539Y-838579D02*
X2170063Y-819531D01*
X2170063Y-819531D02*
X2179587Y-810008D01*
X2179587Y-810008D02*
X2198634Y-800484D01*
X2351015Y-981436D02*
X2360539Y-990960D01*
X2360539Y-990960D02*
X2351015Y-1000484D01*
X2351015Y-1000484D02*
X2341491Y-990960D01*
X2341491Y-990960D02*
X2351015Y-981436D01*
X2351015Y-981436D02*
X2351015Y-1000484D01*
X2484348Y-800484D02*
X2503396Y-800484D01*
X2503396Y-800484D02*
X2522444Y-810008D01*
X2522444Y-810008D02*
X2531968Y-819531D01*
X2531968Y-819531D02*
X2541491Y-838579D01*
X2541491Y-838579D02*
X2551015Y-876674D01*
X2551015Y-876674D02*
X2551015Y-924293D01*
X2551015Y-924293D02*
X2541491Y-962388D01*
X2541491Y-962388D02*
X2531968Y-981436D01*
X2531968Y-981436D02*
X2522444Y-990960D01*
X2522444Y-990960D02*
X2503396Y-1000484D01*
X2503396Y-1000484D02*
X2484348Y-1000484D01*
X2484348Y-1000484D02*
X2465301Y-990960D01*
X2465301Y-990960D02*
X2455777Y-981436D01*
X2455777Y-981436D02*
X2446253Y-962388D01*
X2446253Y-962388D02*
X2436729Y-924293D01*
X2436729Y-924293D02*
X2436729Y-876674D01*
X2436729Y-876674D02*
X2446253Y-838579D01*
X2446253Y-838579D02*
X2455777Y-819531D01*
X2455777Y-819531D02*
X2465301Y-810008D01*
X2465301Y-810008D02*
X2484348Y-800484D01*
X2741491Y-1000484D02*
X2627206Y-1000484D01*
X2684348Y-1000484D02*
X2684348Y-800484D01*
X2684348Y-800484D02*
X2665301Y-829055D01*
X2665301Y-829055D02*
X2646253Y-848103D01*
X2646253Y-848103D02*
X2627206Y-857627D01*
X2922444Y-800484D02*
X2827206Y-800484D01*
X2827206Y-800484D02*
X2817682Y-895722D01*
X2817682Y-895722D02*
X2827206Y-886198D01*
X2827206Y-886198D02*
X2846253Y-876674D01*
X2846253Y-876674D02*
X2893872Y-876674D01*
X2893872Y-876674D02*
X2912920Y-886198D01*
X2912920Y-886198D02*
X2922444Y-895722D01*
X2922444Y-895722D02*
X2931967Y-914769D01*
X2931967Y-914769D02*
X2931967Y-962388D01*
X2931967Y-962388D02*
X2922444Y-981436D01*
X2922444Y-981436D02*
X2912920Y-990960D01*
X2912920Y-990960D02*
X2893872Y-1000484D01*
X2893872Y-1000484D02*
X2846253Y-1000484D01*
X2846253Y-1000484D02*
X2827206Y-990960D01*
X2827206Y-990960D02*
X2817682Y-981436D01*
X2998634Y-800484D02*
X3131967Y-800484D01*
X3131967Y-800484D02*
X3046253Y-1000484D01*
X3198634Y-800484D02*
X3198634Y-838579D01*
X3274825Y-800484D02*
X3274825Y-838579D01*
X3570063Y-1076674D02*
X3560539Y-1067150D01*
X3560539Y-1067150D02*
X3541491Y-1038579D01*
X3541491Y-1038579D02*
X3531968Y-1019531D01*
X3531968Y-1019531D02*
X3522444Y-990960D01*
X3522444Y-990960D02*
X3512920Y-943341D01*
X3512920Y-943341D02*
X3512920Y-905246D01*
X3512920Y-905246D02*
X3522444Y-857627D01*
X3522444Y-857627D02*
X3531968Y-829055D01*
X3531968Y-829055D02*
X3541491Y-810008D01*
X3541491Y-810008D02*
X3560539Y-781436D01*
X3560539Y-781436D02*
X3570063Y-771912D01*
X3627206Y-800484D02*
X3751015Y-800484D01*
X3751015Y-800484D02*
X3684348Y-876674D01*
X3684348Y-876674D02*
X3712920Y-876674D01*
X3712920Y-876674D02*
X3731968Y-886198D01*
X3731968Y-886198D02*
X3741491Y-895722D01*
X3741491Y-895722D02*
X3751015Y-914769D01*
X3751015Y-914769D02*
X3751015Y-962388D01*
X3751015Y-962388D02*
X3741491Y-981436D01*
X3741491Y-981436D02*
X3731968Y-990960D01*
X3731968Y-990960D02*
X3712920Y-1000484D01*
X3712920Y-1000484D02*
X3655777Y-1000484D01*
X3655777Y-1000484D02*
X3636729Y-990960D01*
X3636729Y-990960D02*
X3627206Y-981436D01*
X3922444Y-867150D02*
X3922444Y-1000484D01*
X3874825Y-790960D02*
X3827206Y-933817D01*
X3827206Y-933817D02*
X3951015Y-933817D01*
X4179587Y-1000484D02*
X4179587Y-800484D01*
X4265301Y-1000484D02*
X4265301Y-895722D01*
X4265301Y-895722D02*
X4255777Y-876674D01*
X4255777Y-876674D02*
X4236730Y-867150D01*
X4236730Y-867150D02*
X4208158Y-867150D01*
X4208158Y-867150D02*
X4189110Y-876674D01*
X4189110Y-876674D02*
X4179587Y-886198D01*
X4389111Y-1000484D02*
X4370063Y-990960D01*
X4370063Y-990960D02*
X4360539Y-981436D01*
X4360539Y-981436D02*
X4351015Y-962388D01*
X4351015Y-962388D02*
X4351015Y-905246D01*
X4351015Y-905246D02*
X4360539Y-886198D01*
X4360539Y-886198D02*
X4370063Y-876674D01*
X4370063Y-876674D02*
X4389111Y-867150D01*
X4389111Y-867150D02*
X4417682Y-867150D01*
X4417682Y-867150D02*
X4436730Y-876674D01*
X4436730Y-876674D02*
X4446253Y-886198D01*
X4446253Y-886198D02*
X4455777Y-905246D01*
X4455777Y-905246D02*
X4455777Y-962388D01*
X4455777Y-962388D02*
X4446253Y-981436D01*
X4446253Y-981436D02*
X4436730Y-990960D01*
X4436730Y-990960D02*
X4417682Y-1000484D01*
X4417682Y-1000484D02*
X4389111Y-1000484D01*
X4570063Y-1000484D02*
X4551015Y-990960D01*
X4551015Y-990960D02*
X4541492Y-971912D01*
X4541492Y-971912D02*
X4541492Y-800484D01*
X4722444Y-990960D02*
X4703396Y-1000484D01*
X4703396Y-1000484D02*
X4665301Y-1000484D01*
X4665301Y-1000484D02*
X4646253Y-990960D01*
X4646253Y-990960D02*
X4636730Y-971912D01*
X4636730Y-971912D02*
X4636730Y-895722D01*
X4636730Y-895722D02*
X4646253Y-876674D01*
X4646253Y-876674D02*
X4665301Y-867150D01*
X4665301Y-867150D02*
X4703396Y-867150D01*
X4703396Y-867150D02*
X4722444Y-876674D01*
X4722444Y-876674D02*
X4731968Y-895722D01*
X4731968Y-895722D02*
X4731968Y-914769D01*
X4731968Y-914769D02*
X4636730Y-933817D01*
X4808158Y-990960D02*
X4827206Y-1000484D01*
X4827206Y-1000484D02*
X4865301Y-1000484D01*
X4865301Y-1000484D02*
X4884349Y-990960D01*
X4884349Y-990960D02*
X4893873Y-971912D01*
X4893873Y-971912D02*
X4893873Y-962388D01*
X4893873Y-962388D02*
X4884349Y-943341D01*
X4884349Y-943341D02*
X4865301Y-933817D01*
X4865301Y-933817D02*
X4836730Y-933817D01*
X4836730Y-933817D02*
X4817682Y-924293D01*
X4817682Y-924293D02*
X4808158Y-905246D01*
X4808158Y-905246D02*
X4808158Y-895722D01*
X4808158Y-895722D02*
X4817682Y-876674D01*
X4817682Y-876674D02*
X4836730Y-867150D01*
X4836730Y-867150D02*
X4865301Y-867150D01*
X4865301Y-867150D02*
X4884349Y-876674D01*
X4960539Y-1076674D02*
X4970063Y-1067150D01*
X4970063Y-1067150D02*
X4989111Y-1038579D01*
X4989111Y-1038579D02*
X4998634Y-1019531D01*
X4998634Y-1019531D02*
X5008158Y-990960D01*
X5008158Y-990960D02*
X5017682Y-943341D01*
X5017682Y-943341D02*
X5017682Y-905246D01*
X5017682Y-905246D02*
X5008158Y-857627D01*
X5008158Y-857627D02*
X4998634Y-829055D01*
X4998634Y-829055D02*
X4989111Y-810008D01*
X4989111Y-810008D02*
X4970063Y-781436D01*
X4970063Y-781436D02*
X4960539Y-771912D01*
D10*
X-55000Y-1123000D02*
X-55000Y-1223000D01*
X-105000Y-1173000D02*
X-5000Y-1173000D01*
D11*
X360539Y-1264484D02*
X246253Y-1264484D01*
X303396Y-1264484D02*
X303396Y-1064484D01*
X303396Y-1064484D02*
X284348Y-1093055D01*
X284348Y-1093055D02*
X265301Y-1112103D01*
X265301Y-1112103D02*
X246253Y-1121627D01*
X446253Y-1245436D02*
X455777Y-1254960D01*
X455777Y-1254960D02*
X446253Y-1264484D01*
X446253Y-1264484D02*
X436729Y-1254960D01*
X436729Y-1254960D02*
X446253Y-1245436D01*
X446253Y-1245436D02*
X446253Y-1264484D01*
X579586Y-1064484D02*
X598634Y-1064484D01*
X598634Y-1064484D02*
X617682Y-1074008D01*
X617682Y-1074008D02*
X627205Y-1083531D01*
X627205Y-1083531D02*
X636729Y-1102579D01*
X636729Y-1102579D02*
X646253Y-1140674D01*
X646253Y-1140674D02*
X646253Y-1188293D01*
X646253Y-1188293D02*
X636729Y-1226389D01*
X636729Y-1226389D02*
X627205Y-1245436D01*
X627205Y-1245436D02*
X617682Y-1254960D01*
X617682Y-1254960D02*
X598634Y-1264484D01*
X598634Y-1264484D02*
X579586Y-1264484D01*
X579586Y-1264484D02*
X560539Y-1254960D01*
X560539Y-1254960D02*
X551015Y-1245436D01*
X551015Y-1245436D02*
X541491Y-1226389D01*
X541491Y-1226389D02*
X531967Y-1188293D01*
X531967Y-1188293D02*
X531967Y-1140674D01*
X531967Y-1140674D02*
X541491Y-1102579D01*
X541491Y-1102579D02*
X551015Y-1083531D01*
X551015Y-1083531D02*
X560539Y-1074008D01*
X560539Y-1074008D02*
X579586Y-1064484D01*
X770062Y-1064484D02*
X789110Y-1064484D01*
X789110Y-1064484D02*
X808158Y-1074008D01*
X808158Y-1074008D02*
X817682Y-1083531D01*
X817682Y-1083531D02*
X827205Y-1102579D01*
X827205Y-1102579D02*
X836729Y-1140674D01*
X836729Y-1140674D02*
X836729Y-1188293D01*
X836729Y-1188293D02*
X827205Y-1226389D01*
X827205Y-1226389D02*
X817682Y-1245436D01*
X817682Y-1245436D02*
X808158Y-1254960D01*
X808158Y-1254960D02*
X789110Y-1264484D01*
X789110Y-1264484D02*
X770062Y-1264484D01*
X770062Y-1264484D02*
X751015Y-1254960D01*
X751015Y-1254960D02*
X741491Y-1245436D01*
X741491Y-1245436D02*
X731967Y-1226389D01*
X731967Y-1226389D02*
X722443Y-1188293D01*
X722443Y-1188293D02*
X722443Y-1140674D01*
X722443Y-1140674D02*
X731967Y-1102579D01*
X731967Y-1102579D02*
X741491Y-1083531D01*
X741491Y-1083531D02*
X751015Y-1074008D01*
X751015Y-1074008D02*
X770062Y-1064484D01*
X960539Y-1064484D02*
X979586Y-1064484D01*
X979586Y-1064484D02*
X998634Y-1074008D01*
X998634Y-1074008D02*
X1008158Y-1083531D01*
X1008158Y-1083531D02*
X1017682Y-1102579D01*
X1017682Y-1102579D02*
X1027205Y-1140674D01*
X1027205Y-1140674D02*
X1027205Y-1188293D01*
X1027205Y-1188293D02*
X1017682Y-1226389D01*
X1017682Y-1226389D02*
X1008158Y-1245436D01*
X1008158Y-1245436D02*
X998634Y-1254960D01*
X998634Y-1254960D02*
X979586Y-1264484D01*
X979586Y-1264484D02*
X960539Y-1264484D01*
X960539Y-1264484D02*
X941491Y-1254960D01*
X941491Y-1254960D02*
X931967Y-1245436D01*
X931967Y-1245436D02*
X922443Y-1226389D01*
X922443Y-1226389D02*
X912920Y-1188293D01*
X912920Y-1188293D02*
X912920Y-1140674D01*
X912920Y-1140674D02*
X922443Y-1102579D01*
X922443Y-1102579D02*
X931967Y-1083531D01*
X931967Y-1083531D02*
X941491Y-1074008D01*
X941491Y-1074008D02*
X960539Y-1064484D01*
X1112920Y-1264484D02*
X1112920Y-1131150D01*
X1112920Y-1150198D02*
X1122444Y-1140674D01*
X1122444Y-1140674D02*
X1141491Y-1131150D01*
X1141491Y-1131150D02*
X1170063Y-1131150D01*
X1170063Y-1131150D02*
X1189110Y-1140674D01*
X1189110Y-1140674D02*
X1198634Y-1159722D01*
X1198634Y-1159722D02*
X1198634Y-1264484D01*
X1198634Y-1159722D02*
X1208158Y-1140674D01*
X1208158Y-1140674D02*
X1227205Y-1131150D01*
X1227205Y-1131150D02*
X1255777Y-1131150D01*
X1255777Y-1131150D02*
X1274825Y-1140674D01*
X1274825Y-1140674D02*
X1284348Y-1159722D01*
X1284348Y-1159722D02*
X1284348Y-1264484D01*
X1379586Y-1264484D02*
X1379586Y-1131150D01*
X1379586Y-1150198D02*
X1389110Y-1140674D01*
X1389110Y-1140674D02*
X1408158Y-1131150D01*
X1408158Y-1131150D02*
X1436729Y-1131150D01*
X1436729Y-1131150D02*
X1455777Y-1140674D01*
X1455777Y-1140674D02*
X1465301Y-1159722D01*
X1465301Y-1159722D02*
X1465301Y-1264484D01*
X1465301Y-1159722D02*
X1474824Y-1140674D01*
X1474824Y-1140674D02*
X1493872Y-1131150D01*
X1493872Y-1131150D02*
X1522443Y-1131150D01*
X1522443Y-1131150D02*
X1541491Y-1140674D01*
X1541491Y-1140674D02*
X1551015Y-1159722D01*
X1551015Y-1159722D02*
X1551015Y-1264484D01*
X1941491Y-1054960D02*
X1770063Y-1312103D01*
X2198634Y-1064484D02*
X2217682Y-1064484D01*
X2217682Y-1064484D02*
X2236729Y-1074008D01*
X2236729Y-1074008D02*
X2246253Y-1083531D01*
X2246253Y-1083531D02*
X2255777Y-1102579D01*
X2255777Y-1102579D02*
X2265301Y-1140674D01*
X2265301Y-1140674D02*
X2265301Y-1188293D01*
X2265301Y-1188293D02*
X2255777Y-1226389D01*
X2255777Y-1226389D02*
X2246253Y-1245436D01*
X2246253Y-1245436D02*
X2236729Y-1254960D01*
X2236729Y-1254960D02*
X2217682Y-1264484D01*
X2217682Y-1264484D02*
X2198634Y-1264484D01*
X2198634Y-1264484D02*
X2179587Y-1254960D01*
X2179587Y-1254960D02*
X2170063Y-1245436D01*
X2170063Y-1245436D02*
X2160539Y-1226389D01*
X2160539Y-1226389D02*
X2151015Y-1188293D01*
X2151015Y-1188293D02*
X2151015Y-1140674D01*
X2151015Y-1140674D02*
X2160539Y-1102579D01*
X2160539Y-1102579D02*
X2170063Y-1083531D01*
X2170063Y-1083531D02*
X2179587Y-1074008D01*
X2179587Y-1074008D02*
X2198634Y-1064484D01*
X2351015Y-1245436D02*
X2360539Y-1254960D01*
X2360539Y-1254960D02*
X2351015Y-1264484D01*
X2351015Y-1264484D02*
X2341491Y-1254960D01*
X2341491Y-1254960D02*
X2351015Y-1245436D01*
X2351015Y-1245436D02*
X2351015Y-1264484D01*
X2484348Y-1064484D02*
X2503396Y-1064484D01*
X2503396Y-1064484D02*
X2522444Y-1074008D01*
X2522444Y-1074008D02*
X2531968Y-1083531D01*
X2531968Y-1083531D02*
X2541491Y-1102579D01*
X2541491Y-1102579D02*
X2551015Y-1140674D01*
X2551015Y-1140674D02*
X2551015Y-1188293D01*
X2551015Y-1188293D02*
X2541491Y-1226389D01*
X2541491Y-1226389D02*
X2531968Y-1245436D01*
X2531968Y-1245436D02*
X2522444Y-1254960D01*
X2522444Y-1254960D02*
X2503396Y-1264484D01*
X2503396Y-1264484D02*
X2484348Y-1264484D01*
X2484348Y-1264484D02*
X2465301Y-1254960D01*
X2465301Y-1254960D02*
X2455777Y-1245436D01*
X2455777Y-1245436D02*
X2446253Y-1226389D01*
X2446253Y-1226389D02*
X2436729Y-1188293D01*
X2436729Y-1188293D02*
X2436729Y-1140674D01*
X2436729Y-1140674D02*
X2446253Y-1102579D01*
X2446253Y-1102579D02*
X2455777Y-1083531D01*
X2455777Y-1083531D02*
X2465301Y-1074008D01*
X2465301Y-1074008D02*
X2484348Y-1064484D01*
X2617682Y-1064484D02*
X2741491Y-1064484D01*
X2741491Y-1064484D02*
X2674825Y-1140674D01*
X2674825Y-1140674D02*
X2703396Y-1140674D01*
X2703396Y-1140674D02*
X2722444Y-1150198D01*
X2722444Y-1150198D02*
X2731968Y-1159722D01*
X2731968Y-1159722D02*
X2741491Y-1178770D01*
X2741491Y-1178770D02*
X2741491Y-1226389D01*
X2741491Y-1226389D02*
X2731968Y-1245436D01*
X2731968Y-1245436D02*
X2722444Y-1254960D01*
X2722444Y-1254960D02*
X2703396Y-1264484D01*
X2703396Y-1264484D02*
X2646253Y-1264484D01*
X2646253Y-1264484D02*
X2627206Y-1254960D01*
X2627206Y-1254960D02*
X2617682Y-1245436D01*
X2836729Y-1264484D02*
X2874825Y-1264484D01*
X2874825Y-1264484D02*
X2893872Y-1254960D01*
X2893872Y-1254960D02*
X2903396Y-1245436D01*
X2903396Y-1245436D02*
X2922444Y-1216865D01*
X2922444Y-1216865D02*
X2931967Y-1178770D01*
X2931967Y-1178770D02*
X2931967Y-1102579D01*
X2931967Y-1102579D02*
X2922444Y-1083531D01*
X2922444Y-1083531D02*
X2912920Y-1074008D01*
X2912920Y-1074008D02*
X2893872Y-1064484D01*
X2893872Y-1064484D02*
X2855777Y-1064484D01*
X2855777Y-1064484D02*
X2836729Y-1074008D01*
X2836729Y-1074008D02*
X2827206Y-1083531D01*
X2827206Y-1083531D02*
X2817682Y-1102579D01*
X2817682Y-1102579D02*
X2817682Y-1150198D01*
X2817682Y-1150198D02*
X2827206Y-1169246D01*
X2827206Y-1169246D02*
X2836729Y-1178770D01*
X2836729Y-1178770D02*
X2855777Y-1188293D01*
X2855777Y-1188293D02*
X2893872Y-1188293D01*
X2893872Y-1188293D02*
X2912920Y-1178770D01*
X2912920Y-1178770D02*
X2922444Y-1169246D01*
X2922444Y-1169246D02*
X2931967Y-1150198D01*
X3103396Y-1131150D02*
X3103396Y-1264484D01*
X3055777Y-1054960D02*
X3008158Y-1197817D01*
X3008158Y-1197817D02*
X3131967Y-1197817D01*
X3198634Y-1064484D02*
X3198634Y-1102579D01*
X3274825Y-1064484D02*
X3274825Y-1102579D01*
X3570063Y-1340674D02*
X3560539Y-1331150D01*
X3560539Y-1331150D02*
X3541491Y-1302579D01*
X3541491Y-1302579D02*
X3531968Y-1283531D01*
X3531968Y-1283531D02*
X3522444Y-1254960D01*
X3522444Y-1254960D02*
X3512920Y-1207341D01*
X3512920Y-1207341D02*
X3512920Y-1169246D01*
X3512920Y-1169246D02*
X3522444Y-1121627D01*
X3522444Y-1121627D02*
X3531968Y-1093055D01*
X3531968Y-1093055D02*
X3541491Y-1074008D01*
X3541491Y-1074008D02*
X3560539Y-1045436D01*
X3560539Y-1045436D02*
X3570063Y-1035912D01*
X3731968Y-1131150D02*
X3731968Y-1264484D01*
X3684348Y-1054960D02*
X3636729Y-1197817D01*
X3636729Y-1197817D02*
X3760539Y-1197817D01*
X3827206Y-1083531D02*
X3836729Y-1074008D01*
X3836729Y-1074008D02*
X3855777Y-1064484D01*
X3855777Y-1064484D02*
X3903396Y-1064484D01*
X3903396Y-1064484D02*
X3922444Y-1074008D01*
X3922444Y-1074008D02*
X3931968Y-1083531D01*
X3931968Y-1083531D02*
X3941491Y-1102579D01*
X3941491Y-1102579D02*
X3941491Y-1121627D01*
X3941491Y-1121627D02*
X3931968Y-1150198D01*
X3931968Y-1150198D02*
X3817682Y-1264484D01*
X3817682Y-1264484D02*
X3941491Y-1264484D01*
X4179587Y-1264484D02*
X4179587Y-1064484D01*
X4265301Y-1264484D02*
X4265301Y-1159722D01*
X4265301Y-1159722D02*
X4255777Y-1140674D01*
X4255777Y-1140674D02*
X4236730Y-1131150D01*
X4236730Y-1131150D02*
X4208158Y-1131150D01*
X4208158Y-1131150D02*
X4189110Y-1140674D01*
X4189110Y-1140674D02*
X4179587Y-1150198D01*
X4389111Y-1264484D02*
X4370063Y-1254960D01*
X4370063Y-1254960D02*
X4360539Y-1245436D01*
X4360539Y-1245436D02*
X4351015Y-1226389D01*
X4351015Y-1226389D02*
X4351015Y-1169246D01*
X4351015Y-1169246D02*
X4360539Y-1150198D01*
X4360539Y-1150198D02*
X4370063Y-1140674D01*
X4370063Y-1140674D02*
X4389111Y-1131150D01*
X4389111Y-1131150D02*
X4417682Y-1131150D01*
X4417682Y-1131150D02*
X4436730Y-1140674D01*
X4436730Y-1140674D02*
X4446253Y-1150198D01*
X4446253Y-1150198D02*
X4455777Y-1169246D01*
X4455777Y-1169246D02*
X4455777Y-1226389D01*
X4455777Y-1226389D02*
X4446253Y-1245436D01*
X4446253Y-1245436D02*
X4436730Y-1254960D01*
X4436730Y-1254960D02*
X4417682Y-1264484D01*
X4417682Y-1264484D02*
X4389111Y-1264484D01*
X4570063Y-1264484D02*
X4551015Y-1254960D01*
X4551015Y-1254960D02*
X4541492Y-1235912D01*
X4541492Y-1235912D02*
X4541492Y-1064484D01*
X4722444Y-1254960D02*
X4703396Y-1264484D01*
X4703396Y-1264484D02*
X4665301Y-1264484D01*
X4665301Y-1264484D02*
X4646253Y-1254960D01*
X4646253Y-1254960D02*
X4636730Y-1235912D01*
X4636730Y-1235912D02*
X4636730Y-1159722D01*
X4636730Y-1159722D02*
X4646253Y-1140674D01*
X4646253Y-1140674D02*
X4665301Y-1131150D01*
X4665301Y-1131150D02*
X4703396Y-1131150D01*
X4703396Y-1131150D02*
X4722444Y-1140674D01*
X4722444Y-1140674D02*
X4731968Y-1159722D01*
X4731968Y-1159722D02*
X4731968Y-1178770D01*
X4731968Y-1178770D02*
X4636730Y-1197817D01*
X4808158Y-1254960D02*
X4827206Y-1264484D01*
X4827206Y-1264484D02*
X4865301Y-1264484D01*
X4865301Y-1264484D02*
X4884349Y-1254960D01*
X4884349Y-1254960D02*
X4893873Y-1235912D01*
X4893873Y-1235912D02*
X4893873Y-1226389D01*
X4893873Y-1226389D02*
X4884349Y-1207341D01*
X4884349Y-1207341D02*
X4865301Y-1197817D01*
X4865301Y-1197817D02*
X4836730Y-1197817D01*
X4836730Y-1197817D02*
X4817682Y-1188293D01*
X4817682Y-1188293D02*
X4808158Y-1169246D01*
X4808158Y-1169246D02*
X4808158Y-1159722D01*
X4808158Y-1159722D02*
X4817682Y-1140674D01*
X4817682Y-1140674D02*
X4836730Y-1131150D01*
X4836730Y-1131150D02*
X4865301Y-1131150D01*
X4865301Y-1131150D02*
X4884349Y-1140674D01*
X4960539Y-1340674D02*
X4970063Y-1331150D01*
X4970063Y-1331150D02*
X4989111Y-1302579D01*
X4989111Y-1302579D02*
X4998634Y-1283531D01*
X4998634Y-1283531D02*
X5008158Y-1254960D01*
X5008158Y-1254960D02*
X5017682Y-1207341D01*
X5017682Y-1207341D02*
X5017682Y-1169246D01*
X5017682Y-1169246D02*
X5008158Y-1121627D01*
X5008158Y-1121627D02*
X4998634Y-1093055D01*
X4998634Y-1093055D02*
X4989111Y-1074008D01*
X4989111Y-1074008D02*
X4970063Y-1045436D01*
X4970063Y-1045436D02*
X4960539Y-1035912D01*
D12*
X-22573Y-1479427D02*
X-22573Y-1394573D01*
X-107427Y-1394573D01*
X-107427Y-1479427D01*
X-22573Y-1479427D01*
D11*
X360539Y-1528484D02*
X246253Y-1528484D01*
X303396Y-1528484D02*
X303396Y-1328484D01*
X303396Y-1328484D02*
X284348Y-1357055D01*
X284348Y-1357055D02*
X265301Y-1376103D01*
X265301Y-1376103D02*
X246253Y-1385627D01*
X446253Y-1509436D02*
X455777Y-1518960D01*
X455777Y-1518960D02*
X446253Y-1528484D01*
X446253Y-1528484D02*
X436729Y-1518960D01*
X436729Y-1518960D02*
X446253Y-1509436D01*
X446253Y-1509436D02*
X446253Y-1528484D01*
X531967Y-1347531D02*
X541491Y-1338008D01*
X541491Y-1338008D02*
X560539Y-1328484D01*
X560539Y-1328484D02*
X608158Y-1328484D01*
X608158Y-1328484D02*
X627205Y-1338008D01*
X627205Y-1338008D02*
X636729Y-1347531D01*
X636729Y-1347531D02*
X646253Y-1366579D01*
X646253Y-1366579D02*
X646253Y-1385627D01*
X646253Y-1385627D02*
X636729Y-1414198D01*
X636729Y-1414198D02*
X522443Y-1528484D01*
X522443Y-1528484D02*
X646253Y-1528484D01*
X770062Y-1328484D02*
X789110Y-1328484D01*
X789110Y-1328484D02*
X808158Y-1338008D01*
X808158Y-1338008D02*
X817682Y-1347531D01*
X817682Y-1347531D02*
X827205Y-1366579D01*
X827205Y-1366579D02*
X836729Y-1404674D01*
X836729Y-1404674D02*
X836729Y-1452293D01*
X836729Y-1452293D02*
X827205Y-1490388D01*
X827205Y-1490388D02*
X817682Y-1509436D01*
X817682Y-1509436D02*
X808158Y-1518960D01*
X808158Y-1518960D02*
X789110Y-1528484D01*
X789110Y-1528484D02*
X770062Y-1528484D01*
X770062Y-1528484D02*
X751015Y-1518960D01*
X751015Y-1518960D02*
X741491Y-1509436D01*
X741491Y-1509436D02*
X731967Y-1490388D01*
X731967Y-1490388D02*
X722443Y-1452293D01*
X722443Y-1452293D02*
X722443Y-1404674D01*
X722443Y-1404674D02*
X731967Y-1366579D01*
X731967Y-1366579D02*
X741491Y-1347531D01*
X741491Y-1347531D02*
X751015Y-1338008D01*
X751015Y-1338008D02*
X770062Y-1328484D01*
X960539Y-1328484D02*
X979586Y-1328484D01*
X979586Y-1328484D02*
X998634Y-1338008D01*
X998634Y-1338008D02*
X1008158Y-1347531D01*
X1008158Y-1347531D02*
X1017682Y-1366579D01*
X1017682Y-1366579D02*
X1027205Y-1404674D01*
X1027205Y-1404674D02*
X1027205Y-1452293D01*
X1027205Y-1452293D02*
X1017682Y-1490388D01*
X1017682Y-1490388D02*
X1008158Y-1509436D01*
X1008158Y-1509436D02*
X998634Y-1518960D01*
X998634Y-1518960D02*
X979586Y-1528484D01*
X979586Y-1528484D02*
X960539Y-1528484D01*
X960539Y-1528484D02*
X941491Y-1518960D01*
X941491Y-1518960D02*
X931967Y-1509436D01*
X931967Y-1509436D02*
X922443Y-1490388D01*
X922443Y-1490388D02*
X912920Y-1452293D01*
X912920Y-1452293D02*
X912920Y-1404674D01*
X912920Y-1404674D02*
X922443Y-1366579D01*
X922443Y-1366579D02*
X931967Y-1347531D01*
X931967Y-1347531D02*
X941491Y-1338008D01*
X941491Y-1338008D02*
X960539Y-1328484D01*
X1112920Y-1528484D02*
X1112920Y-1395150D01*
X1112920Y-1414198D02*
X1122444Y-1404674D01*
X1122444Y-1404674D02*
X1141491Y-1395150D01*
X1141491Y-1395150D02*
X1170063Y-1395150D01*
X1170063Y-1395150D02*
X1189110Y-1404674D01*
X1189110Y-1404674D02*
X1198634Y-1423722D01*
X1198634Y-1423722D02*
X1198634Y-1528484D01*
X1198634Y-1423722D02*
X1208158Y-1404674D01*
X1208158Y-1404674D02*
X1227205Y-1395150D01*
X1227205Y-1395150D02*
X1255777Y-1395150D01*
X1255777Y-1395150D02*
X1274825Y-1404674D01*
X1274825Y-1404674D02*
X1284348Y-1423722D01*
X1284348Y-1423722D02*
X1284348Y-1528484D01*
X1379586Y-1528484D02*
X1379586Y-1395150D01*
X1379586Y-1414198D02*
X1389110Y-1404674D01*
X1389110Y-1404674D02*
X1408158Y-1395150D01*
X1408158Y-1395150D02*
X1436729Y-1395150D01*
X1436729Y-1395150D02*
X1455777Y-1404674D01*
X1455777Y-1404674D02*
X1465301Y-1423722D01*
X1465301Y-1423722D02*
X1465301Y-1528484D01*
X1465301Y-1423722D02*
X1474824Y-1404674D01*
X1474824Y-1404674D02*
X1493872Y-1395150D01*
X1493872Y-1395150D02*
X1522443Y-1395150D01*
X1522443Y-1395150D02*
X1541491Y-1404674D01*
X1541491Y-1404674D02*
X1551015Y-1423722D01*
X1551015Y-1423722D02*
X1551015Y-1528484D01*
X1941491Y-1318960D02*
X1770063Y-1576103D01*
X2198634Y-1328484D02*
X2217682Y-1328484D01*
X2217682Y-1328484D02*
X2236729Y-1338008D01*
X2236729Y-1338008D02*
X2246253Y-1347531D01*
X2246253Y-1347531D02*
X2255777Y-1366579D01*
X2255777Y-1366579D02*
X2265301Y-1404674D01*
X2265301Y-1404674D02*
X2265301Y-1452293D01*
X2265301Y-1452293D02*
X2255777Y-1490388D01*
X2255777Y-1490388D02*
X2246253Y-1509436D01*
X2246253Y-1509436D02*
X2236729Y-1518960D01*
X2236729Y-1518960D02*
X2217682Y-1528484D01*
X2217682Y-1528484D02*
X2198634Y-1528484D01*
X2198634Y-1528484D02*
X2179587Y-1518960D01*
X2179587Y-1518960D02*
X2170063Y-1509436D01*
X2170063Y-1509436D02*
X2160539Y-1490388D01*
X2160539Y-1490388D02*
X2151015Y-1452293D01*
X2151015Y-1452293D02*
X2151015Y-1404674D01*
X2151015Y-1404674D02*
X2160539Y-1366579D01*
X2160539Y-1366579D02*
X2170063Y-1347531D01*
X2170063Y-1347531D02*
X2179587Y-1338008D01*
X2179587Y-1338008D02*
X2198634Y-1328484D01*
X2351015Y-1509436D02*
X2360539Y-1518960D01*
X2360539Y-1518960D02*
X2351015Y-1528484D01*
X2351015Y-1528484D02*
X2341491Y-1518960D01*
X2341491Y-1518960D02*
X2351015Y-1509436D01*
X2351015Y-1509436D02*
X2351015Y-1528484D01*
X2484348Y-1328484D02*
X2503396Y-1328484D01*
X2503396Y-1328484D02*
X2522444Y-1338008D01*
X2522444Y-1338008D02*
X2531968Y-1347531D01*
X2531968Y-1347531D02*
X2541491Y-1366579D01*
X2541491Y-1366579D02*
X2551015Y-1404674D01*
X2551015Y-1404674D02*
X2551015Y-1452293D01*
X2551015Y-1452293D02*
X2541491Y-1490388D01*
X2541491Y-1490388D02*
X2531968Y-1509436D01*
X2531968Y-1509436D02*
X2522444Y-1518960D01*
X2522444Y-1518960D02*
X2503396Y-1528484D01*
X2503396Y-1528484D02*
X2484348Y-1528484D01*
X2484348Y-1528484D02*
X2465301Y-1518960D01*
X2465301Y-1518960D02*
X2455777Y-1509436D01*
X2455777Y-1509436D02*
X2446253Y-1490388D01*
X2446253Y-1490388D02*
X2436729Y-1452293D01*
X2436729Y-1452293D02*
X2436729Y-1404674D01*
X2436729Y-1404674D02*
X2446253Y-1366579D01*
X2446253Y-1366579D02*
X2455777Y-1347531D01*
X2455777Y-1347531D02*
X2465301Y-1338008D01*
X2465301Y-1338008D02*
X2484348Y-1328484D01*
X2722444Y-1395150D02*
X2722444Y-1528484D01*
X2674825Y-1318960D02*
X2627206Y-1461817D01*
X2627206Y-1461817D02*
X2751015Y-1461817D01*
X2808158Y-1328484D02*
X2941491Y-1328484D01*
X2941491Y-1328484D02*
X2855777Y-1528484D01*
X3008158Y-1347531D02*
X3017682Y-1338008D01*
X3017682Y-1338008D02*
X3036729Y-1328484D01*
X3036729Y-1328484D02*
X3084348Y-1328484D01*
X3084348Y-1328484D02*
X3103396Y-1338008D01*
X3103396Y-1338008D02*
X3112920Y-1347531D01*
X3112920Y-1347531D02*
X3122444Y-1366579D01*
X3122444Y-1366579D02*
X3122444Y-1385627D01*
X3122444Y-1385627D02*
X3112920Y-1414198D01*
X3112920Y-1414198D02*
X2998634Y-1528484D01*
X2998634Y-1528484D02*
X3122444Y-1528484D01*
X3198634Y-1328484D02*
X3198634Y-1366579D01*
X3274825Y-1328484D02*
X3274825Y-1366579D01*
X3570063Y-1604674D02*
X3560539Y-1595150D01*
X3560539Y-1595150D02*
X3541491Y-1566579D01*
X3541491Y-1566579D02*
X3531968Y-1547531D01*
X3531968Y-1547531D02*
X3522444Y-1518960D01*
X3522444Y-1518960D02*
X3512920Y-1471341D01*
X3512920Y-1471341D02*
X3512920Y-1433246D01*
X3512920Y-1433246D02*
X3522444Y-1385627D01*
X3522444Y-1385627D02*
X3531968Y-1357055D01*
X3531968Y-1357055D02*
X3541491Y-1338008D01*
X3541491Y-1338008D02*
X3560539Y-1309436D01*
X3560539Y-1309436D02*
X3570063Y-1299912D01*
X3731968Y-1328484D02*
X3693872Y-1328484D01*
X3693872Y-1328484D02*
X3674825Y-1338008D01*
X3674825Y-1338008D02*
X3665301Y-1347531D01*
X3665301Y-1347531D02*
X3646253Y-1376103D01*
X3646253Y-1376103D02*
X3636729Y-1414198D01*
X3636729Y-1414198D02*
X3636729Y-1490388D01*
X3636729Y-1490388D02*
X3646253Y-1509436D01*
X3646253Y-1509436D02*
X3655777Y-1518960D01*
X3655777Y-1518960D02*
X3674825Y-1528484D01*
X3674825Y-1528484D02*
X3712920Y-1528484D01*
X3712920Y-1528484D02*
X3731968Y-1518960D01*
X3731968Y-1518960D02*
X3741491Y-1509436D01*
X3741491Y-1509436D02*
X3751015Y-1490388D01*
X3751015Y-1490388D02*
X3751015Y-1442769D01*
X3751015Y-1442769D02*
X3741491Y-1423722D01*
X3741491Y-1423722D02*
X3731968Y-1414198D01*
X3731968Y-1414198D02*
X3712920Y-1404674D01*
X3712920Y-1404674D02*
X3674825Y-1404674D01*
X3674825Y-1404674D02*
X3655777Y-1414198D01*
X3655777Y-1414198D02*
X3646253Y-1423722D01*
X3646253Y-1423722D02*
X3636729Y-1442769D01*
X3922444Y-1395150D02*
X3922444Y-1528484D01*
X3874825Y-1318960D02*
X3827206Y-1461817D01*
X3827206Y-1461817D02*
X3951015Y-1461817D01*
X4179587Y-1528484D02*
X4179587Y-1328484D01*
X4265301Y-1528484D02*
X4265301Y-1423722D01*
X4265301Y-1423722D02*
X4255777Y-1404674D01*
X4255777Y-1404674D02*
X4236730Y-1395150D01*
X4236730Y-1395150D02*
X4208158Y-1395150D01*
X4208158Y-1395150D02*
X4189110Y-1404674D01*
X4189110Y-1404674D02*
X4179587Y-1414198D01*
X4389111Y-1528484D02*
X4370063Y-1518960D01*
X4370063Y-1518960D02*
X4360539Y-1509436D01*
X4360539Y-1509436D02*
X4351015Y-1490388D01*
X4351015Y-1490388D02*
X4351015Y-1433246D01*
X4351015Y-1433246D02*
X4360539Y-1414198D01*
X4360539Y-1414198D02*
X4370063Y-1404674D01*
X4370063Y-1404674D02*
X4389111Y-1395150D01*
X4389111Y-1395150D02*
X4417682Y-1395150D01*
X4417682Y-1395150D02*
X4436730Y-1404674D01*
X4436730Y-1404674D02*
X4446253Y-1414198D01*
X4446253Y-1414198D02*
X4455777Y-1433246D01*
X4455777Y-1433246D02*
X4455777Y-1490388D01*
X4455777Y-1490388D02*
X4446253Y-1509436D01*
X4446253Y-1509436D02*
X4436730Y-1518960D01*
X4436730Y-1518960D02*
X4417682Y-1528484D01*
X4417682Y-1528484D02*
X4389111Y-1528484D01*
X4570063Y-1528484D02*
X4551015Y-1518960D01*
X4551015Y-1518960D02*
X4541492Y-1499912D01*
X4541492Y-1499912D02*
X4541492Y-1328484D01*
X4722444Y-1518960D02*
X4703396Y-1528484D01*
X4703396Y-1528484D02*
X4665301Y-1528484D01*
X4665301Y-1528484D02*
X4646253Y-1518960D01*
X4646253Y-1518960D02*
X4636730Y-1499912D01*
X4636730Y-1499912D02*
X4636730Y-1423722D01*
X4636730Y-1423722D02*
X4646253Y-1404674D01*
X4646253Y-1404674D02*
X4665301Y-1395150D01*
X4665301Y-1395150D02*
X4703396Y-1395150D01*
X4703396Y-1395150D02*
X4722444Y-1404674D01*
X4722444Y-1404674D02*
X4731968Y-1423722D01*
X4731968Y-1423722D02*
X4731968Y-1442769D01*
X4731968Y-1442769D02*
X4636730Y-1461817D01*
X4808158Y-1518960D02*
X4827206Y-1528484D01*
X4827206Y-1528484D02*
X4865301Y-1528484D01*
X4865301Y-1528484D02*
X4884349Y-1518960D01*
X4884349Y-1518960D02*
X4893873Y-1499912D01*
X4893873Y-1499912D02*
X4893873Y-1490388D01*
X4893873Y-1490388D02*
X4884349Y-1471341D01*
X4884349Y-1471341D02*
X4865301Y-1461817D01*
X4865301Y-1461817D02*
X4836730Y-1461817D01*
X4836730Y-1461817D02*
X4817682Y-1452293D01*
X4817682Y-1452293D02*
X4808158Y-1433246D01*
X4808158Y-1433246D02*
X4808158Y-1423722D01*
X4808158Y-1423722D02*
X4817682Y-1404674D01*
X4817682Y-1404674D02*
X4836730Y-1395150D01*
X4836730Y-1395150D02*
X4865301Y-1395150D01*
X4865301Y-1395150D02*
X4884349Y-1404674D01*
X4960539Y-1604674D02*
X4970063Y-1595150D01*
X4970063Y-1595150D02*
X4989111Y-1566579D01*
X4989111Y-1566579D02*
X4998634Y-1547531D01*
X4998634Y-1547531D02*
X5008158Y-1518960D01*
X5008158Y-1518960D02*
X5017682Y-1471341D01*
X5017682Y-1471341D02*
X5017682Y-1433246D01*
X5017682Y-1433246D02*
X5008158Y-1385627D01*
X5008158Y-1385627D02*
X4998634Y-1357055D01*
X4998634Y-1357055D02*
X4989111Y-1338008D01*
X4989111Y-1338008D02*
X4970063Y-1309436D01*
X4970063Y-1309436D02*
X4960539Y-1299912D01*
D13*
X-70000Y-1766000D02*
X-5000Y-1701000D01*
X-70000Y-1636000D01*
X-135000Y-1701000D01*
X-70000Y-1766000D01*
D11*
X360539Y-1792484D02*
X246253Y-1792484D01*
X303396Y-1792484D02*
X303396Y-1592484D01*
X303396Y-1592484D02*
X284348Y-1621055D01*
X284348Y-1621055D02*
X265301Y-1640103D01*
X265301Y-1640103D02*
X246253Y-1649627D01*
X446253Y-1773436D02*
X455777Y-1782960D01*
X455777Y-1782960D02*
X446253Y-1792484D01*
X446253Y-1792484D02*
X436729Y-1782960D01*
X436729Y-1782960D02*
X446253Y-1773436D01*
X446253Y-1773436D02*
X446253Y-1792484D01*
X522443Y-1592484D02*
X646253Y-1592484D01*
X646253Y-1592484D02*
X579586Y-1668674D01*
X579586Y-1668674D02*
X608158Y-1668674D01*
X608158Y-1668674D02*
X627205Y-1678198D01*
X627205Y-1678198D02*
X636729Y-1687722D01*
X636729Y-1687722D02*
X646253Y-1706769D01*
X646253Y-1706769D02*
X646253Y-1754388D01*
X646253Y-1754388D02*
X636729Y-1773436D01*
X636729Y-1773436D02*
X627205Y-1782960D01*
X627205Y-1782960D02*
X608158Y-1792484D01*
X608158Y-1792484D02*
X551015Y-1792484D01*
X551015Y-1792484D02*
X531967Y-1782960D01*
X531967Y-1782960D02*
X522443Y-1773436D01*
X770062Y-1592484D02*
X789110Y-1592484D01*
X789110Y-1592484D02*
X808158Y-1602008D01*
X808158Y-1602008D02*
X817682Y-1611531D01*
X817682Y-1611531D02*
X827205Y-1630579D01*
X827205Y-1630579D02*
X836729Y-1668674D01*
X836729Y-1668674D02*
X836729Y-1716293D01*
X836729Y-1716293D02*
X827205Y-1754388D01*
X827205Y-1754388D02*
X817682Y-1773436D01*
X817682Y-1773436D02*
X808158Y-1782960D01*
X808158Y-1782960D02*
X789110Y-1792484D01*
X789110Y-1792484D02*
X770062Y-1792484D01*
X770062Y-1792484D02*
X751015Y-1782960D01*
X751015Y-1782960D02*
X741491Y-1773436D01*
X741491Y-1773436D02*
X731967Y-1754388D01*
X731967Y-1754388D02*
X722443Y-1716293D01*
X722443Y-1716293D02*
X722443Y-1668674D01*
X722443Y-1668674D02*
X731967Y-1630579D01*
X731967Y-1630579D02*
X741491Y-1611531D01*
X741491Y-1611531D02*
X751015Y-1602008D01*
X751015Y-1602008D02*
X770062Y-1592484D01*
X960539Y-1592484D02*
X979586Y-1592484D01*
X979586Y-1592484D02*
X998634Y-1602008D01*
X998634Y-1602008D02*
X1008158Y-1611531D01*
X1008158Y-1611531D02*
X1017682Y-1630579D01*
X1017682Y-1630579D02*
X1027205Y-1668674D01*
X1027205Y-1668674D02*
X1027205Y-1716293D01*
X1027205Y-1716293D02*
X1017682Y-1754388D01*
X1017682Y-1754388D02*
X1008158Y-1773436D01*
X1008158Y-1773436D02*
X998634Y-1782960D01*
X998634Y-1782960D02*
X979586Y-1792484D01*
X979586Y-1792484D02*
X960539Y-1792484D01*
X960539Y-1792484D02*
X941491Y-1782960D01*
X941491Y-1782960D02*
X931967Y-1773436D01*
X931967Y-1773436D02*
X922443Y-1754388D01*
X922443Y-1754388D02*
X912920Y-1716293D01*
X912920Y-1716293D02*
X912920Y-1668674D01*
X912920Y-1668674D02*
X922443Y-1630579D01*
X922443Y-1630579D02*
X931967Y-1611531D01*
X931967Y-1611531D02*
X941491Y-1602008D01*
X941491Y-1602008D02*
X960539Y-1592484D01*
X1112920Y-1792484D02*
X1112920Y-1659150D01*
X1112920Y-1678198D02*
X1122444Y-1668674D01*
X1122444Y-1668674D02*
X1141491Y-1659150D01*
X1141491Y-1659150D02*
X1170063Y-1659150D01*
X1170063Y-1659150D02*
X1189110Y-1668674D01*
X1189110Y-1668674D02*
X1198634Y-1687722D01*
X1198634Y-1687722D02*
X1198634Y-1792484D01*
X1198634Y-1687722D02*
X1208158Y-1668674D01*
X1208158Y-1668674D02*
X1227205Y-1659150D01*
X1227205Y-1659150D02*
X1255777Y-1659150D01*
X1255777Y-1659150D02*
X1274825Y-1668674D01*
X1274825Y-1668674D02*
X1284348Y-1687722D01*
X1284348Y-1687722D02*
X1284348Y-1792484D01*
X1379586Y-1792484D02*
X1379586Y-1659150D01*
X1379586Y-1678198D02*
X1389110Y-1668674D01*
X1389110Y-1668674D02*
X1408158Y-1659150D01*
X1408158Y-1659150D02*
X1436729Y-1659150D01*
X1436729Y-1659150D02*
X1455777Y-1668674D01*
X1455777Y-1668674D02*
X1465301Y-1687722D01*
X1465301Y-1687722D02*
X1465301Y-1792484D01*
X1465301Y-1687722D02*
X1474824Y-1668674D01*
X1474824Y-1668674D02*
X1493872Y-1659150D01*
X1493872Y-1659150D02*
X1522443Y-1659150D01*
X1522443Y-1659150D02*
X1541491Y-1668674D01*
X1541491Y-1668674D02*
X1551015Y-1687722D01*
X1551015Y-1687722D02*
X1551015Y-1792484D01*
X1941491Y-1582960D02*
X1770063Y-1840103D01*
X2198634Y-1592484D02*
X2217682Y-1592484D01*
X2217682Y-1592484D02*
X2236729Y-1602008D01*
X2236729Y-1602008D02*
X2246253Y-1611531D01*
X2246253Y-1611531D02*
X2255777Y-1630579D01*
X2255777Y-1630579D02*
X2265301Y-1668674D01*
X2265301Y-1668674D02*
X2265301Y-1716293D01*
X2265301Y-1716293D02*
X2255777Y-1754388D01*
X2255777Y-1754388D02*
X2246253Y-1773436D01*
X2246253Y-1773436D02*
X2236729Y-1782960D01*
X2236729Y-1782960D02*
X2217682Y-1792484D01*
X2217682Y-1792484D02*
X2198634Y-1792484D01*
X2198634Y-1792484D02*
X2179587Y-1782960D01*
X2179587Y-1782960D02*
X2170063Y-1773436D01*
X2170063Y-1773436D02*
X2160539Y-1754388D01*
X2160539Y-1754388D02*
X2151015Y-1716293D01*
X2151015Y-1716293D02*
X2151015Y-1668674D01*
X2151015Y-1668674D02*
X2160539Y-1630579D01*
X2160539Y-1630579D02*
X2170063Y-1611531D01*
X2170063Y-1611531D02*
X2179587Y-1602008D01*
X2179587Y-1602008D02*
X2198634Y-1592484D01*
X2351015Y-1773436D02*
X2360539Y-1782960D01*
X2360539Y-1782960D02*
X2351015Y-1792484D01*
X2351015Y-1792484D02*
X2341491Y-1782960D01*
X2341491Y-1782960D02*
X2351015Y-1773436D01*
X2351015Y-1773436D02*
X2351015Y-1792484D01*
X2484348Y-1592484D02*
X2503396Y-1592484D01*
X2503396Y-1592484D02*
X2522444Y-1602008D01*
X2522444Y-1602008D02*
X2531968Y-1611531D01*
X2531968Y-1611531D02*
X2541491Y-1630579D01*
X2541491Y-1630579D02*
X2551015Y-1668674D01*
X2551015Y-1668674D02*
X2551015Y-1716293D01*
X2551015Y-1716293D02*
X2541491Y-1754388D01*
X2541491Y-1754388D02*
X2531968Y-1773436D01*
X2531968Y-1773436D02*
X2522444Y-1782960D01*
X2522444Y-1782960D02*
X2503396Y-1792484D01*
X2503396Y-1792484D02*
X2484348Y-1792484D01*
X2484348Y-1792484D02*
X2465301Y-1782960D01*
X2465301Y-1782960D02*
X2455777Y-1773436D01*
X2455777Y-1773436D02*
X2446253Y-1754388D01*
X2446253Y-1754388D02*
X2436729Y-1716293D01*
X2436729Y-1716293D02*
X2436729Y-1668674D01*
X2436729Y-1668674D02*
X2446253Y-1630579D01*
X2446253Y-1630579D02*
X2455777Y-1611531D01*
X2455777Y-1611531D02*
X2465301Y-1602008D01*
X2465301Y-1602008D02*
X2484348Y-1592484D01*
X2731968Y-1592484D02*
X2636729Y-1592484D01*
X2636729Y-1592484D02*
X2627206Y-1687722D01*
X2627206Y-1687722D02*
X2636729Y-1678198D01*
X2636729Y-1678198D02*
X2655777Y-1668674D01*
X2655777Y-1668674D02*
X2703396Y-1668674D01*
X2703396Y-1668674D02*
X2722444Y-1678198D01*
X2722444Y-1678198D02*
X2731968Y-1687722D01*
X2731968Y-1687722D02*
X2741491Y-1706769D01*
X2741491Y-1706769D02*
X2741491Y-1754388D01*
X2741491Y-1754388D02*
X2731968Y-1773436D01*
X2731968Y-1773436D02*
X2722444Y-1782960D01*
X2722444Y-1782960D02*
X2703396Y-1792484D01*
X2703396Y-1792484D02*
X2655777Y-1792484D01*
X2655777Y-1792484D02*
X2636729Y-1782960D01*
X2636729Y-1782960D02*
X2627206Y-1773436D01*
X2931967Y-1792484D02*
X2817682Y-1792484D01*
X2874825Y-1792484D02*
X2874825Y-1592484D01*
X2874825Y-1592484D02*
X2855777Y-1621055D01*
X2855777Y-1621055D02*
X2836729Y-1640103D01*
X2836729Y-1640103D02*
X2817682Y-1649627D01*
X3008158Y-1611531D02*
X3017682Y-1602008D01*
X3017682Y-1602008D02*
X3036729Y-1592484D01*
X3036729Y-1592484D02*
X3084348Y-1592484D01*
X3084348Y-1592484D02*
X3103396Y-1602008D01*
X3103396Y-1602008D02*
X3112920Y-1611531D01*
X3112920Y-1611531D02*
X3122444Y-1630579D01*
X3122444Y-1630579D02*
X3122444Y-1649627D01*
X3122444Y-1649627D02*
X3112920Y-1678198D01*
X3112920Y-1678198D02*
X2998634Y-1792484D01*
X2998634Y-1792484D02*
X3122444Y-1792484D01*
X3198634Y-1592484D02*
X3198634Y-1630579D01*
X3274825Y-1592484D02*
X3274825Y-1630579D01*
X3570063Y-1868674D02*
X3560539Y-1859150D01*
X3560539Y-1859150D02*
X3541491Y-1830579D01*
X3541491Y-1830579D02*
X3531968Y-1811531D01*
X3531968Y-1811531D02*
X3522444Y-1782960D01*
X3522444Y-1782960D02*
X3512920Y-1735341D01*
X3512920Y-1735341D02*
X3512920Y-1697246D01*
X3512920Y-1697246D02*
X3522444Y-1649627D01*
X3522444Y-1649627D02*
X3531968Y-1621055D01*
X3531968Y-1621055D02*
X3541491Y-1602008D01*
X3541491Y-1602008D02*
X3560539Y-1573436D01*
X3560539Y-1573436D02*
X3570063Y-1563912D01*
X3741491Y-1592484D02*
X3646253Y-1592484D01*
X3646253Y-1592484D02*
X3636729Y-1687722D01*
X3636729Y-1687722D02*
X3646253Y-1678198D01*
X3646253Y-1678198D02*
X3665301Y-1668674D01*
X3665301Y-1668674D02*
X3712920Y-1668674D01*
X3712920Y-1668674D02*
X3731968Y-1678198D01*
X3731968Y-1678198D02*
X3741491Y-1687722D01*
X3741491Y-1687722D02*
X3751015Y-1706769D01*
X3751015Y-1706769D02*
X3751015Y-1754388D01*
X3751015Y-1754388D02*
X3741491Y-1773436D01*
X3741491Y-1773436D02*
X3731968Y-1782960D01*
X3731968Y-1782960D02*
X3712920Y-1792484D01*
X3712920Y-1792484D02*
X3665301Y-1792484D01*
X3665301Y-1792484D02*
X3646253Y-1782960D01*
X3646253Y-1782960D02*
X3636729Y-1773436D01*
X3874825Y-1592484D02*
X3893872Y-1592484D01*
X3893872Y-1592484D02*
X3912920Y-1602008D01*
X3912920Y-1602008D02*
X3922444Y-1611531D01*
X3922444Y-1611531D02*
X3931968Y-1630579D01*
X3931968Y-1630579D02*
X3941491Y-1668674D01*
X3941491Y-1668674D02*
X3941491Y-1716293D01*
X3941491Y-1716293D02*
X3931968Y-1754388D01*
X3931968Y-1754388D02*
X3922444Y-1773436D01*
X3922444Y-1773436D02*
X3912920Y-1782960D01*
X3912920Y-1782960D02*
X3893872Y-1792484D01*
X3893872Y-1792484D02*
X3874825Y-1792484D01*
X3874825Y-1792484D02*
X3855777Y-1782960D01*
X3855777Y-1782960D02*
X3846253Y-1773436D01*
X3846253Y-1773436D02*
X3836729Y-1754388D01*
X3836729Y-1754388D02*
X3827206Y-1716293D01*
X3827206Y-1716293D02*
X3827206Y-1668674D01*
X3827206Y-1668674D02*
X3836729Y-1630579D01*
X3836729Y-1630579D02*
X3846253Y-1611531D01*
X3846253Y-1611531D02*
X3855777Y-1602008D01*
X3855777Y-1602008D02*
X3874825Y-1592484D01*
X4179587Y-1792484D02*
X4179587Y-1592484D01*
X4265301Y-1792484D02*
X4265301Y-1687722D01*
X4265301Y-1687722D02*
X4255777Y-1668674D01*
X4255777Y-1668674D02*
X4236730Y-1659150D01*
X4236730Y-1659150D02*
X4208158Y-1659150D01*
X4208158Y-1659150D02*
X4189110Y-1668674D01*
X4189110Y-1668674D02*
X4179587Y-1678198D01*
X4389111Y-1792484D02*
X4370063Y-1782960D01*
X4370063Y-1782960D02*
X4360539Y-1773436D01*
X4360539Y-1773436D02*
X4351015Y-1754388D01*
X4351015Y-1754388D02*
X4351015Y-1697246D01*
X4351015Y-1697246D02*
X4360539Y-1678198D01*
X4360539Y-1678198D02*
X4370063Y-1668674D01*
X4370063Y-1668674D02*
X4389111Y-1659150D01*
X4389111Y-1659150D02*
X4417682Y-1659150D01*
X4417682Y-1659150D02*
X4436730Y-1668674D01*
X4436730Y-1668674D02*
X4446253Y-1678198D01*
X4446253Y-1678198D02*
X4455777Y-1697246D01*
X4455777Y-1697246D02*
X4455777Y-1754388D01*
X4455777Y-1754388D02*
X4446253Y-1773436D01*
X4446253Y-1773436D02*
X4436730Y-1782960D01*
X4436730Y-1782960D02*
X4417682Y-1792484D01*
X4417682Y-1792484D02*
X4389111Y-1792484D01*
X4570063Y-1792484D02*
X4551015Y-1782960D01*
X4551015Y-1782960D02*
X4541492Y-1763912D01*
X4541492Y-1763912D02*
X4541492Y-1592484D01*
X4722444Y-1782960D02*
X4703396Y-1792484D01*
X4703396Y-1792484D02*
X4665301Y-1792484D01*
X4665301Y-1792484D02*
X4646253Y-1782960D01*
X4646253Y-1782960D02*
X4636730Y-1763912D01*
X4636730Y-1763912D02*
X4636730Y-1687722D01*
X4636730Y-1687722D02*
X4646253Y-1668674D01*
X4646253Y-1668674D02*
X4665301Y-1659150D01*
X4665301Y-1659150D02*
X4703396Y-1659150D01*
X4703396Y-1659150D02*
X4722444Y-1668674D01*
X4722444Y-1668674D02*
X4731968Y-1687722D01*
X4731968Y-1687722D02*
X4731968Y-1706769D01*
X4731968Y-1706769D02*
X4636730Y-1725817D01*
X4808158Y-1782960D02*
X4827206Y-1792484D01*
X4827206Y-1792484D02*
X4865301Y-1792484D01*
X4865301Y-1792484D02*
X4884349Y-1782960D01*
X4884349Y-1782960D02*
X4893873Y-1763912D01*
X4893873Y-1763912D02*
X4893873Y-1754388D01*
X4893873Y-1754388D02*
X4884349Y-1735341D01*
X4884349Y-1735341D02*
X4865301Y-1725817D01*
X4865301Y-1725817D02*
X4836730Y-1725817D01*
X4836730Y-1725817D02*
X4817682Y-1716293D01*
X4817682Y-1716293D02*
X4808158Y-1697246D01*
X4808158Y-1697246D02*
X4808158Y-1687722D01*
X4808158Y-1687722D02*
X4817682Y-1668674D01*
X4817682Y-1668674D02*
X4836730Y-1659150D01*
X4836730Y-1659150D02*
X4865301Y-1659150D01*
X4865301Y-1659150D02*
X4884349Y-1668674D01*
X4960539Y-1868674D02*
X4970063Y-1859150D01*
X4970063Y-1859150D02*
X4989111Y-1830579D01*
X4989111Y-1830579D02*
X4998634Y-1811531D01*
X4998634Y-1811531D02*
X5008158Y-1782960D01*
X5008158Y-1782960D02*
X5017682Y-1735341D01*
X5017682Y-1735341D02*
X5017682Y-1697246D01*
X5017682Y-1697246D02*
X5008158Y-1649627D01*
X5008158Y-1649627D02*
X4998634Y-1621055D01*
X4998634Y-1621055D02*
X4989111Y-1602008D01*
X4989111Y-1602008D02*
X4970063Y-1573436D01*
X4970063Y-1573436D02*
X4960539Y-1563912D01*
D14*
X-145000Y-1895000D02*
X-5000Y-2035000D01*
X-5000Y-1895000D02*
X-145000Y-2035000D01*
X-5000Y-1965000D02*
G75*
G03*
X-145000Y-1965000I-70000J0D01*
G01*
X-145000Y-1965000D02*
G75*
G03*
X-5000Y-1965000I70000J0D01*
G01*
D11*
X360539Y-2056484D02*
X246253Y-2056484D01*
X303396Y-2056484D02*
X303396Y-1856484D01*
X303396Y-1856484D02*
X284348Y-1885055D01*
X284348Y-1885055D02*
X265301Y-1904103D01*
X265301Y-1904103D02*
X246253Y-1913627D01*
X446253Y-2037436D02*
X455777Y-2046960D01*
X455777Y-2046960D02*
X446253Y-2056484D01*
X446253Y-2056484D02*
X436729Y-2046960D01*
X436729Y-2046960D02*
X446253Y-2037436D01*
X446253Y-2037436D02*
X446253Y-2056484D01*
X627205Y-1923150D02*
X627205Y-2056484D01*
X579586Y-1846960D02*
X531967Y-1989817D01*
X531967Y-1989817D02*
X655777Y-1989817D01*
X770062Y-1856484D02*
X789110Y-1856484D01*
X789110Y-1856484D02*
X808158Y-1866008D01*
X808158Y-1866008D02*
X817682Y-1875531D01*
X817682Y-1875531D02*
X827205Y-1894579D01*
X827205Y-1894579D02*
X836729Y-1932674D01*
X836729Y-1932674D02*
X836729Y-1980293D01*
X836729Y-1980293D02*
X827205Y-2018388D01*
X827205Y-2018388D02*
X817682Y-2037436D01*
X817682Y-2037436D02*
X808158Y-2046960D01*
X808158Y-2046960D02*
X789110Y-2056484D01*
X789110Y-2056484D02*
X770062Y-2056484D01*
X770062Y-2056484D02*
X751015Y-2046960D01*
X751015Y-2046960D02*
X741491Y-2037436D01*
X741491Y-2037436D02*
X731967Y-2018388D01*
X731967Y-2018388D02*
X722443Y-1980293D01*
X722443Y-1980293D02*
X722443Y-1932674D01*
X722443Y-1932674D02*
X731967Y-1894579D01*
X731967Y-1894579D02*
X741491Y-1875531D01*
X741491Y-1875531D02*
X751015Y-1866008D01*
X751015Y-1866008D02*
X770062Y-1856484D01*
X960539Y-1856484D02*
X979586Y-1856484D01*
X979586Y-1856484D02*
X998634Y-1866008D01*
X998634Y-1866008D02*
X1008158Y-1875531D01*
X1008158Y-1875531D02*
X1017682Y-1894579D01*
X1017682Y-1894579D02*
X1027205Y-1932674D01*
X1027205Y-1932674D02*
X1027205Y-1980293D01*
X1027205Y-1980293D02*
X1017682Y-2018388D01*
X1017682Y-2018388D02*
X1008158Y-2037436D01*
X1008158Y-2037436D02*
X998634Y-2046960D01*
X998634Y-2046960D02*
X979586Y-2056484D01*
X979586Y-2056484D02*
X960539Y-2056484D01*
X960539Y-2056484D02*
X941491Y-2046960D01*
X941491Y-2046960D02*
X931967Y-2037436D01*
X931967Y-2037436D02*
X922443Y-2018388D01*
X922443Y-2018388D02*
X912920Y-1980293D01*
X912920Y-1980293D02*
X912920Y-1932674D01*
X912920Y-1932674D02*
X922443Y-1894579D01*
X922443Y-1894579D02*
X931967Y-1875531D01*
X931967Y-1875531D02*
X941491Y-1866008D01*
X941491Y-1866008D02*
X960539Y-1856484D01*
X1112920Y-2056484D02*
X1112920Y-1923150D01*
X1112920Y-1942198D02*
X1122444Y-1932674D01*
X1122444Y-1932674D02*
X1141491Y-1923150D01*
X1141491Y-1923150D02*
X1170063Y-1923150D01*
X1170063Y-1923150D02*
X1189110Y-1932674D01*
X1189110Y-1932674D02*
X1198634Y-1951722D01*
X1198634Y-1951722D02*
X1198634Y-2056484D01*
X1198634Y-1951722D02*
X1208158Y-1932674D01*
X1208158Y-1932674D02*
X1227205Y-1923150D01*
X1227205Y-1923150D02*
X1255777Y-1923150D01*
X1255777Y-1923150D02*
X1274825Y-1932674D01*
X1274825Y-1932674D02*
X1284348Y-1951722D01*
X1284348Y-1951722D02*
X1284348Y-2056484D01*
X1379586Y-2056484D02*
X1379586Y-1923150D01*
X1379586Y-1942198D02*
X1389110Y-1932674D01*
X1389110Y-1932674D02*
X1408158Y-1923150D01*
X1408158Y-1923150D02*
X1436729Y-1923150D01*
X1436729Y-1923150D02*
X1455777Y-1932674D01*
X1455777Y-1932674D02*
X1465301Y-1951722D01*
X1465301Y-1951722D02*
X1465301Y-2056484D01*
X1465301Y-1951722D02*
X1474824Y-1932674D01*
X1474824Y-1932674D02*
X1493872Y-1923150D01*
X1493872Y-1923150D02*
X1522443Y-1923150D01*
X1522443Y-1923150D02*
X1541491Y-1932674D01*
X1541491Y-1932674D02*
X1551015Y-1951722D01*
X1551015Y-1951722D02*
X1551015Y-2056484D01*
X1941491Y-1846960D02*
X1770063Y-2104103D01*
X2198634Y-1856484D02*
X2217682Y-1856484D01*
X2217682Y-1856484D02*
X2236729Y-1866008D01*
X2236729Y-1866008D02*
X2246253Y-1875531D01*
X2246253Y-1875531D02*
X2255777Y-1894579D01*
X2255777Y-1894579D02*
X2265301Y-1932674D01*
X2265301Y-1932674D02*
X2265301Y-1980293D01*
X2265301Y-1980293D02*
X2255777Y-2018388D01*
X2255777Y-2018388D02*
X2246253Y-2037436D01*
X2246253Y-2037436D02*
X2236729Y-2046960D01*
X2236729Y-2046960D02*
X2217682Y-2056484D01*
X2217682Y-2056484D02*
X2198634Y-2056484D01*
X2198634Y-2056484D02*
X2179587Y-2046960D01*
X2179587Y-2046960D02*
X2170063Y-2037436D01*
X2170063Y-2037436D02*
X2160539Y-2018388D01*
X2160539Y-2018388D02*
X2151015Y-1980293D01*
X2151015Y-1980293D02*
X2151015Y-1932674D01*
X2151015Y-1932674D02*
X2160539Y-1894579D01*
X2160539Y-1894579D02*
X2170063Y-1875531D01*
X2170063Y-1875531D02*
X2179587Y-1866008D01*
X2179587Y-1866008D02*
X2198634Y-1856484D01*
X2351015Y-2037436D02*
X2360539Y-2046960D01*
X2360539Y-2046960D02*
X2351015Y-2056484D01*
X2351015Y-2056484D02*
X2341491Y-2046960D01*
X2341491Y-2046960D02*
X2351015Y-2037436D01*
X2351015Y-2037436D02*
X2351015Y-2056484D01*
X2484348Y-1856484D02*
X2503396Y-1856484D01*
X2503396Y-1856484D02*
X2522444Y-1866008D01*
X2522444Y-1866008D02*
X2531968Y-1875531D01*
X2531968Y-1875531D02*
X2541491Y-1894579D01*
X2541491Y-1894579D02*
X2551015Y-1932674D01*
X2551015Y-1932674D02*
X2551015Y-1980293D01*
X2551015Y-1980293D02*
X2541491Y-2018388D01*
X2541491Y-2018388D02*
X2531968Y-2037436D01*
X2531968Y-2037436D02*
X2522444Y-2046960D01*
X2522444Y-2046960D02*
X2503396Y-2056484D01*
X2503396Y-2056484D02*
X2484348Y-2056484D01*
X2484348Y-2056484D02*
X2465301Y-2046960D01*
X2465301Y-2046960D02*
X2455777Y-2037436D01*
X2455777Y-2037436D02*
X2446253Y-2018388D01*
X2446253Y-2018388D02*
X2436729Y-1980293D01*
X2436729Y-1980293D02*
X2436729Y-1932674D01*
X2436729Y-1932674D02*
X2446253Y-1894579D01*
X2446253Y-1894579D02*
X2455777Y-1875531D01*
X2455777Y-1875531D02*
X2465301Y-1866008D01*
X2465301Y-1866008D02*
X2484348Y-1856484D01*
X2731968Y-1856484D02*
X2636729Y-1856484D01*
X2636729Y-1856484D02*
X2627206Y-1951722D01*
X2627206Y-1951722D02*
X2636729Y-1942198D01*
X2636729Y-1942198D02*
X2655777Y-1932674D01*
X2655777Y-1932674D02*
X2703396Y-1932674D01*
X2703396Y-1932674D02*
X2722444Y-1942198D01*
X2722444Y-1942198D02*
X2731968Y-1951722D01*
X2731968Y-1951722D02*
X2741491Y-1970769D01*
X2741491Y-1970769D02*
X2741491Y-2018388D01*
X2741491Y-2018388D02*
X2731968Y-2037436D01*
X2731968Y-2037436D02*
X2722444Y-2046960D01*
X2722444Y-2046960D02*
X2703396Y-2056484D01*
X2703396Y-2056484D02*
X2655777Y-2056484D01*
X2655777Y-2056484D02*
X2636729Y-2046960D01*
X2636729Y-2046960D02*
X2627206Y-2037436D01*
X2922444Y-1856484D02*
X2827206Y-1856484D01*
X2827206Y-1856484D02*
X2817682Y-1951722D01*
X2817682Y-1951722D02*
X2827206Y-1942198D01*
X2827206Y-1942198D02*
X2846253Y-1932674D01*
X2846253Y-1932674D02*
X2893872Y-1932674D01*
X2893872Y-1932674D02*
X2912920Y-1942198D01*
X2912920Y-1942198D02*
X2922444Y-1951722D01*
X2922444Y-1951722D02*
X2931967Y-1970769D01*
X2931967Y-1970769D02*
X2931967Y-2018388D01*
X2931967Y-2018388D02*
X2922444Y-2037436D01*
X2922444Y-2037436D02*
X2912920Y-2046960D01*
X2912920Y-2046960D02*
X2893872Y-2056484D01*
X2893872Y-2056484D02*
X2846253Y-2056484D01*
X2846253Y-2056484D02*
X2827206Y-2046960D01*
X2827206Y-2046960D02*
X2817682Y-2037436D01*
X3122444Y-2056484D02*
X3008158Y-2056484D01*
X3065301Y-2056484D02*
X3065301Y-1856484D01*
X3065301Y-1856484D02*
X3046253Y-1885055D01*
X3046253Y-1885055D02*
X3027206Y-1904103D01*
X3027206Y-1904103D02*
X3008158Y-1913627D01*
X3198634Y-1856484D02*
X3198634Y-1894579D01*
X3274825Y-1856484D02*
X3274825Y-1894579D01*
X3570063Y-2132674D02*
X3560539Y-2123150D01*
X3560539Y-2123150D02*
X3541491Y-2094579D01*
X3541491Y-2094579D02*
X3531968Y-2075531D01*
X3531968Y-2075531D02*
X3522444Y-2046960D01*
X3522444Y-2046960D02*
X3512920Y-1999341D01*
X3512920Y-1999341D02*
X3512920Y-1961246D01*
X3512920Y-1961246D02*
X3522444Y-1913627D01*
X3522444Y-1913627D02*
X3531968Y-1885055D01*
X3531968Y-1885055D02*
X3541491Y-1866008D01*
X3541491Y-1866008D02*
X3560539Y-1837436D01*
X3560539Y-1837436D02*
X3570063Y-1827912D01*
X3636729Y-1875531D02*
X3646253Y-1866008D01*
X3646253Y-1866008D02*
X3665301Y-1856484D01*
X3665301Y-1856484D02*
X3712920Y-1856484D01*
X3712920Y-1856484D02*
X3731968Y-1866008D01*
X3731968Y-1866008D02*
X3741491Y-1875531D01*
X3741491Y-1875531D02*
X3751015Y-1894579D01*
X3751015Y-1894579D02*
X3751015Y-1913627D01*
X3751015Y-1913627D02*
X3741491Y-1942198D01*
X3741491Y-1942198D02*
X3627206Y-2056484D01*
X3627206Y-2056484D02*
X3751015Y-2056484D01*
X3922444Y-1856484D02*
X3884348Y-1856484D01*
X3884348Y-1856484D02*
X3865301Y-1866008D01*
X3865301Y-1866008D02*
X3855777Y-1875531D01*
X3855777Y-1875531D02*
X3836729Y-1904103D01*
X3836729Y-1904103D02*
X3827206Y-1942198D01*
X3827206Y-1942198D02*
X3827206Y-2018388D01*
X3827206Y-2018388D02*
X3836729Y-2037436D01*
X3836729Y-2037436D02*
X3846253Y-2046960D01*
X3846253Y-2046960D02*
X3865301Y-2056484D01*
X3865301Y-2056484D02*
X3903396Y-2056484D01*
X3903396Y-2056484D02*
X3922444Y-2046960D01*
X3922444Y-2046960D02*
X3931968Y-2037436D01*
X3931968Y-2037436D02*
X3941491Y-2018388D01*
X3941491Y-2018388D02*
X3941491Y-1970769D01*
X3941491Y-1970769D02*
X3931968Y-1951722D01*
X3931968Y-1951722D02*
X3922444Y-1942198D01*
X3922444Y-1942198D02*
X3903396Y-1932674D01*
X3903396Y-1932674D02*
X3865301Y-1932674D01*
X3865301Y-1932674D02*
X3846253Y-1942198D01*
X3846253Y-1942198D02*
X3836729Y-1951722D01*
X3836729Y-1951722D02*
X3827206Y-1970769D01*
X4179587Y-2056484D02*
X4179587Y-1856484D01*
X4265301Y-2056484D02*
X4265301Y-1951722D01*
X4265301Y-1951722D02*
X4255777Y-1932674D01*
X4255777Y-1932674D02*
X4236730Y-1923150D01*
X4236730Y-1923150D02*
X4208158Y-1923150D01*
X4208158Y-1923150D02*
X4189110Y-1932674D01*
X4189110Y-1932674D02*
X4179587Y-1942198D01*
X4389111Y-2056484D02*
X4370063Y-2046960D01*
X4370063Y-2046960D02*
X4360539Y-2037436D01*
X4360539Y-2037436D02*
X4351015Y-2018388D01*
X4351015Y-2018388D02*
X4351015Y-1961246D01*
X4351015Y-1961246D02*
X4360539Y-1942198D01*
X4360539Y-1942198D02*
X4370063Y-1932674D01*
X4370063Y-1932674D02*
X4389111Y-1923150D01*
X4389111Y-1923150D02*
X4417682Y-1923150D01*
X4417682Y-1923150D02*
X4436730Y-1932674D01*
X4436730Y-1932674D02*
X4446253Y-1942198D01*
X4446253Y-1942198D02*
X4455777Y-1961246D01*
X4455777Y-1961246D02*
X4455777Y-2018388D01*
X4455777Y-2018388D02*
X4446253Y-2037436D01*
X4446253Y-2037436D02*
X4436730Y-2046960D01*
X4436730Y-2046960D02*
X4417682Y-2056484D01*
X4417682Y-2056484D02*
X4389111Y-2056484D01*
X4570063Y-2056484D02*
X4551015Y-2046960D01*
X4551015Y-2046960D02*
X4541492Y-2027912D01*
X4541492Y-2027912D02*
X4541492Y-1856484D01*
X4722444Y-2046960D02*
X4703396Y-2056484D01*
X4703396Y-2056484D02*
X4665301Y-2056484D01*
X4665301Y-2056484D02*
X4646253Y-2046960D01*
X4646253Y-2046960D02*
X4636730Y-2027912D01*
X4636730Y-2027912D02*
X4636730Y-1951722D01*
X4636730Y-1951722D02*
X4646253Y-1932674D01*
X4646253Y-1932674D02*
X4665301Y-1923150D01*
X4665301Y-1923150D02*
X4703396Y-1923150D01*
X4703396Y-1923150D02*
X4722444Y-1932674D01*
X4722444Y-1932674D02*
X4731968Y-1951722D01*
X4731968Y-1951722D02*
X4731968Y-1970769D01*
X4731968Y-1970769D02*
X4636730Y-1989817D01*
X4808158Y-2046960D02*
X4827206Y-2056484D01*
X4827206Y-2056484D02*
X4865301Y-2056484D01*
X4865301Y-2056484D02*
X4884349Y-2046960D01*
X4884349Y-2046960D02*
X4893873Y-2027912D01*
X4893873Y-2027912D02*
X4893873Y-2018388D01*
X4893873Y-2018388D02*
X4884349Y-1999341D01*
X4884349Y-1999341D02*
X4865301Y-1989817D01*
X4865301Y-1989817D02*
X4836730Y-1989817D01*
X4836730Y-1989817D02*
X4817682Y-1980293D01*
X4817682Y-1980293D02*
X4808158Y-1961246D01*
X4808158Y-1961246D02*
X4808158Y-1951722D01*
X4808158Y-1951722D02*
X4817682Y-1932674D01*
X4817682Y-1932674D02*
X4836730Y-1923150D01*
X4836730Y-1923150D02*
X4865301Y-1923150D01*
X4865301Y-1923150D02*
X4884349Y-1932674D01*
X4960539Y-2132674D02*
X4970063Y-2123150D01*
X4970063Y-2123150D02*
X4989111Y-2094579D01*
X4989111Y-2094579D02*
X4998634Y-2075531D01*
X4998634Y-2075531D02*
X5008158Y-2046960D01*
X5008158Y-2046960D02*
X5017682Y-1999341D01*
X5017682Y-1999341D02*
X5017682Y-1961246D01*
X5017682Y-1961246D02*
X5008158Y-1913627D01*
X5008158Y-1913627D02*
X4998634Y-1885055D01*
X4998634Y-1885055D02*
X4989111Y-1866008D01*
X4989111Y-1866008D02*
X4970063Y-1837436D01*
X4970063Y-1837436D02*
X4960539Y-1827912D01*
M02*
