%TF.GenerationSoftware,KiCad,Pcbnew,7.0.11+dfsg-1build4*%
%TF.CreationDate,2026-09-28T02:57:54+00:00*%
%TF.ProjectId,RPi5VacuumIO,52506935-5661-4637-9575-6d494f2e6b69,rev?*%
%TF.SameCoordinates,Original*%
%TF.FileFunction,Soldermask,Top*%
%TF.FilePolarity,Negative*%
%FSLAX46Y46*%
G04 Gerber Fmt 4.6, Leading zero omitted, Abs format (unit mm)*
G04 Created by KiCad (PCBNEW 7.0.11+dfsg-1build4) date 2026-09-28 02:57:54*
%MOMM*%
%LPD*%
G01*
G04 APERTURE LIST*
G04 Aperture macros list*
%AMRoundRect*
0 Rectangle with rounded corners*
0 $1 Rounding radius*
0 $2 $3 $4 $5 $6 $7 $8 $9 X,Y pos of 4 corners*
0 Add a 4 corners polygon primitive as box body*
4,1,4,$2,$3,$4,$5,$6,$7,$8,$9,$2,$3,0*
0 Add four circle primitives for the rounded corners*
1,1,$1+$1,$2,$3*
1,1,$1+$1,$4,$5*
1,1,$1+$1,$6,$7*
1,1,$1+$1,$8,$9*
0 Add four rect primitives between the rounded corners*
20,1,$1+$1,$2,$3,$4,$5,0*
20,1,$1+$1,$4,$5,$6,$7,0*
20,1,$1+$1,$6,$7,$8,$9,0*
20,1,$1+$1,$8,$9,$2,$3,0*%
%AMFreePoly0*
4,1,19,0.550000,-0.750000,0.000000,-0.750000,0.000000,-0.744911,-0.071157,-0.744911,-0.207708,-0.704816,-0.327430,-0.627875,-0.420627,-0.520320,-0.479746,-0.390866,-0.500000,-0.250000,-0.500000,0.250000,-0.479746,0.390866,-0.420627,0.520320,-0.327430,0.627875,-0.207708,0.704816,-0.071157,0.744911,0.000000,0.744911,0.000000,0.750000,0.550000,0.750000,0.550000,-0.750000,0.550000,-0.750000,
$1*%
%AMFreePoly1*
4,1,19,0.000000,0.744911,0.071157,0.744911,0.207708,0.704816,0.327430,0.627875,0.420627,0.520320,0.479746,0.390866,0.500000,0.250000,0.500000,-0.250000,0.479746,-0.390866,0.420627,-0.520320,0.327430,-0.627875,0.207708,-0.704816,0.071157,-0.744911,0.000000,-0.744911,0.000000,-0.750000,-0.550000,-0.750000,-0.550000,0.750000,0.000000,0.750000,0.000000,0.744911,0.000000,0.744911,
$1*%
%AMFreePoly2*
4,1,19,0.500000,-0.750000,0.000000,-0.750000,0.000000,-0.744911,-0.071157,-0.744911,-0.207708,-0.704816,-0.327430,-0.627875,-0.420627,-0.520320,-0.479746,-0.390866,-0.500000,-0.250000,-0.500000,0.250000,-0.479746,0.390866,-0.420627,0.520320,-0.327430,0.627875,-0.207708,0.704816,-0.071157,0.744911,0.000000,0.744911,0.000000,0.750000,0.500000,0.750000,0.500000,-0.750000,0.500000,-0.750000,
$1*%
%AMFreePoly3*
4,1,19,0.000000,0.744911,0.071157,0.744911,0.207708,0.704816,0.327430,0.627875,0.420627,0.520320,0.479746,0.390866,0.500000,0.250000,0.500000,-0.250000,0.479746,-0.390866,0.420627,-0.520320,0.327430,-0.627875,0.207708,-0.704816,0.071157,-0.744911,0.000000,-0.744911,0.000000,-0.750000,-0.500000,-0.750000,-0.500000,0.750000,0.000000,0.750000,0.000000,0.744911,0.000000,0.744911,
$1*%
G04 Aperture macros list end*
%ADD10RoundRect,0.250000X-0.337500X-0.475000X0.337500X-0.475000X0.337500X0.475000X-0.337500X0.475000X0*%
%ADD11RoundRect,0.250000X-0.350000X-0.450000X0.350000X-0.450000X0.350000X0.450000X-0.350000X0.450000X0*%
%ADD12RoundRect,0.250000X-0.325000X-0.450000X0.325000X-0.450000X0.325000X0.450000X-0.325000X0.450000X0*%
%ADD13RoundRect,0.250000X-0.400000X-0.625000X0.400000X-0.625000X0.400000X0.625000X-0.400000X0.625000X0*%
%ADD14RoundRect,0.225000X-0.225000X-0.375000X0.225000X-0.375000X0.225000X0.375000X-0.225000X0.375000X0*%
%ADD15RoundRect,0.150000X-0.587500X-0.150000X0.587500X-0.150000X0.587500X0.150000X-0.587500X0.150000X0*%
%ADD16R,2.500000X2.500000*%
%ADD17O,2.500000X2.500000*%
%ADD18RoundRect,0.250000X-1.000000X-0.650000X1.000000X-0.650000X1.000000X0.650000X-1.000000X0.650000X0*%
%ADD19RoundRect,0.137500X-0.662500X-0.137500X0.662500X-0.137500X0.662500X0.137500X-0.662500X0.137500X0*%
%ADD20RoundRect,0.250000X-0.412500X-1.100000X0.412500X-1.100000X0.412500X1.100000X-0.412500X1.100000X0*%
%ADD21RoundRect,0.249999X0.790001X1.550001X-0.790001X1.550001X-0.790001X-1.550001X0.790001X-1.550001X0*%
%ADD22O,2.080000X3.600000*%
%ADD23RoundRect,0.250000X1.550000X-0.650000X1.550000X0.650000X-1.550000X0.650000X-1.550000X-0.650000X0*%
%ADD24O,3.600000X1.800000*%
%ADD25RoundRect,0.150000X-0.875000X-0.150000X0.875000X-0.150000X0.875000X0.150000X-0.875000X0.150000X0*%
%ADD26FreePoly0,0.000000*%
%ADD27R,1.000000X1.500000*%
%ADD28FreePoly1,0.000000*%
%ADD29R,1.100000X0.250000*%
%ADD30RoundRect,0.250000X-1.500000X-1.000000X1.500000X-1.000000X1.500000X1.000000X-1.500000X1.000000X0*%
%ADD31C,3.200000*%
%ADD32RoundRect,0.250000X-0.650000X-1.550000X0.650000X-1.550000X0.650000X1.550000X-0.650000X1.550000X0*%
%ADD33O,1.800000X3.600000*%
%ADD34RoundRect,0.150000X-0.825000X-0.150000X0.825000X-0.150000X0.825000X0.150000X-0.825000X0.150000X0*%
%ADD35RoundRect,0.250000X1.000000X-1.400000X1.000000X1.400000X-1.000000X1.400000X-1.000000X-1.400000X0*%
%ADD36RoundRect,0.250000X-0.312500X-1.450000X0.312500X-1.450000X0.312500X1.450000X-0.312500X1.450000X0*%
%ADD37RoundRect,0.249999X-1.550001X0.790001X-1.550001X-0.790001X1.550001X-0.790001X1.550001X0.790001X0*%
%ADD38O,3.600000X2.080000*%
%ADD39RoundRect,0.250000X-1.550000X0.650000X-1.550000X-0.650000X1.550000X-0.650000X1.550000X0.650000X0*%
%ADD40FreePoly2,0.000000*%
%ADD41FreePoly3,0.000000*%
%ADD42RoundRect,0.250000X0.600000X-0.600000X0.600000X0.600000X-0.600000X0.600000X-0.600000X-0.600000X0*%
%ADD43C,1.700000*%
%ADD44C,2.000000*%
G04 APERTURE END LIST*
D10*
%TO.C,C9*%
X81177500Y68995000D03*
X83252500Y68995000D03*
%TD*%
D11*
%TO.C,R22*%
X132855000Y101025000D03*
X134855000Y101025000D03*
%TD*%
D12*
%TO.C,D10*%
X81350000Y100275000D03*
X83400000Y100275000D03*
%TD*%
D13*
%TO.C,R68*%
X40915000Y57005000D03*
X44015000Y57005000D03*
%TD*%
D14*
%TO.C,D129*%
X115375000Y38725000D03*
X118675000Y38725000D03*
%TD*%
D15*
%TO.C,Q6*%
X25107500Y61325000D03*
X25107500Y59425000D03*
X26982500Y60375000D03*
%TD*%
D11*
%TO.C,R14*%
X164935000Y101025000D03*
X166935000Y101025000D03*
%TD*%
%TO.C,R27*%
X104025000Y82175000D03*
X106025000Y82175000D03*
%TD*%
%TO.C,R52*%
X41855000Y69025000D03*
X43855000Y69025000D03*
%TD*%
%TO.C,R124*%
X87675000Y50175000D03*
X89675000Y50175000D03*
%TD*%
D10*
%TO.C,C4*%
X90607500Y111995000D03*
X92682500Y111995000D03*
%TD*%
D15*
%TO.C,Q3*%
X63087500Y69225000D03*
X63087500Y67325000D03*
X64962500Y68275000D03*
%TD*%
D16*
%TO.C,K7*%
X154800000Y144000000D03*
D17*
X148800000Y142000000D03*
X148800000Y129800000D03*
X160800000Y129800000D03*
X160800000Y142000000D03*
%TD*%
D18*
%TO.C,D2*%
X15525000Y104075000D03*
X19525000Y104075000D03*
%TD*%
D13*
%TO.C,R7*%
X77275000Y88855001D03*
X80375000Y88855001D03*
%TD*%
%TO.C,R37*%
X150775000Y121855000D03*
X153875000Y121855000D03*
%TD*%
%TO.C,R101*%
X98645000Y68855001D03*
X101745000Y68855001D03*
%TD*%
D12*
%TO.C,D27*%
X156050000Y122025000D03*
X158100000Y122025000D03*
%TD*%
D19*
%TO.C,U7*%
X97175000Y38920000D03*
X97175000Y37650000D03*
X97175000Y36380000D03*
X97175000Y35110000D03*
X97175000Y33840000D03*
X97175000Y32570000D03*
X97175000Y31300000D03*
X97175000Y30030000D03*
X103675000Y30030000D03*
X103675000Y31300000D03*
X103675000Y32570000D03*
X103675000Y33840000D03*
X103675000Y35110000D03*
X103675000Y36380000D03*
X103675000Y37650000D03*
X103675000Y38920000D03*
%TD*%
D20*
%TO.C,C7*%
X84802500Y103575000D03*
X87927500Y103575000D03*
%TD*%
D14*
%TO.C,D121*%
X107945000Y68825000D03*
X111245000Y68825000D03*
%TD*%
D21*
%TO.C,J16*%
X136880000Y149470000D03*
D22*
X131800000Y149470000D03*
X126720000Y149470000D03*
%TD*%
D23*
%TO.C,J42*%
X186470000Y10500000D03*
D24*
X186470000Y14000000D03*
X186470000Y17500000D03*
X186470000Y21000000D03*
X186470000Y24500000D03*
X186470000Y28000000D03*
X186470000Y31500000D03*
X186470000Y35000000D03*
%TD*%
D11*
%TO.C,R141*%
X178145000Y69025000D03*
X180145000Y69025000D03*
%TD*%
D25*
%TO.C,U2*%
X116825000Y101035000D03*
X116825000Y99765000D03*
X116825000Y98495000D03*
X116825000Y97225000D03*
X116825000Y95955000D03*
X116825000Y94685000D03*
X116825000Y93415000D03*
X116825000Y92145000D03*
X116825000Y90875000D03*
X126125000Y90875000D03*
X126125000Y92145000D03*
X126125000Y93415000D03*
X126125000Y94685000D03*
X126125000Y95955000D03*
X126125000Y97225000D03*
X126125000Y98495000D03*
X126125000Y99765000D03*
X126125000Y101035000D03*
%TD*%
D26*
%TO.C,JP6*%
X122825000Y121725000D03*
D27*
X124125000Y121725000D03*
D28*
X125425000Y121725000D03*
%TD*%
D12*
%TO.C,D110*%
X130150000Y38925000D03*
X132200000Y38925000D03*
%TD*%
D13*
%TO.C,R35*%
X104775000Y121855000D03*
X107875000Y121855000D03*
%TD*%
D12*
%TO.C,D21*%
X18050000Y122025000D03*
X20100000Y122025000D03*
%TD*%
D14*
%TO.C,D127*%
X68725000Y38725000D03*
X72025000Y38725000D03*
%TD*%
D12*
%TO.C,D45*%
X20800000Y61125000D03*
X22850000Y61125000D03*
%TD*%
D15*
%TO.C,D67*%
X174017500Y53625000D03*
X174017500Y51725000D03*
X175892500Y52675000D03*
%TD*%
D23*
%TO.C,J41*%
X186470000Y42000000D03*
D24*
X186470000Y45500000D03*
X186470000Y49000000D03*
X186470000Y52500000D03*
X186470000Y56000000D03*
X186470000Y59500000D03*
X186470000Y63000000D03*
X186470000Y66500000D03*
%TD*%
D14*
%TO.C,D135*%
X78225000Y16225000D03*
X81525000Y16225000D03*
%TD*%
D13*
%TO.C,R4*%
X90195000Y104055000D03*
X93295000Y104055000D03*
%TD*%
D29*
%TO.C,U10*%
X159175000Y69175000D03*
X159175000Y68675000D03*
X159175000Y68175000D03*
X159175000Y67675000D03*
X159175000Y67175000D03*
X163475000Y67175000D03*
X163475000Y67675000D03*
X163475000Y68175000D03*
X163475000Y68675000D03*
X163475000Y69175000D03*
%TD*%
D30*
%TO.C,C1*%
X23475000Y101425000D03*
X29975000Y101425000D03*
%TD*%
D11*
%TO.C,R136*%
X102325000Y16425000D03*
X104325000Y16425000D03*
%TD*%
%TO.C,R135*%
X83525000Y16425000D03*
X85525000Y16425000D03*
%TD*%
D14*
%TO.C,D132*%
X91675000Y27475000D03*
X94975000Y27475000D03*
%TD*%
D15*
%TO.C,Q7*%
X54647500Y61325000D03*
X54647500Y59425000D03*
X56522500Y60375000D03*
%TD*%
D11*
%TO.C,R133*%
X124825000Y27675000D03*
X126825000Y27675000D03*
%TD*%
D26*
%TO.C,JP5*%
X99825000Y121725000D03*
D27*
X101125000Y121725000D03*
D28*
X102425000Y121725000D03*
%TD*%
D13*
%TO.C,R64*%
X49215000Y64905000D03*
X52315000Y64905000D03*
%TD*%
D11*
%TO.C,R145*%
X157164999Y57275000D03*
X159164999Y57275000D03*
%TD*%
D31*
%TO.C,H2*%
X191500000Y156500000D03*
%TD*%
D13*
%TO.C,R116*%
X87725000Y16255000D03*
X90825000Y16255000D03*
%TD*%
D19*
%TO.C,U13*%
X85725000Y100270000D03*
X85725000Y99000000D03*
X85725000Y97730000D03*
X85725000Y96460000D03*
X85725000Y95190000D03*
X85725000Y93920000D03*
X85725000Y92650000D03*
X85725000Y91380000D03*
X92225000Y91380000D03*
X92225000Y92650000D03*
X92225000Y93920000D03*
X92225000Y95190000D03*
X92225000Y96460000D03*
X92225000Y97730000D03*
X92225000Y99000000D03*
X92225000Y100270000D03*
%TD*%
D12*
%TO.C,D112*%
X87650000Y27675000D03*
X89700000Y27675000D03*
%TD*%
D11*
%TO.C,R130*%
X139475000Y38925000D03*
X141475000Y38925000D03*
%TD*%
D13*
%TO.C,R33*%
X58775000Y121855000D03*
X61875000Y121855000D03*
%TD*%
D12*
%TO.C,D9*%
X71850000Y100275000D03*
X73900000Y100275000D03*
%TD*%
D15*
%TO.C,Q5*%
X58797500Y65275000D03*
X58797500Y63375000D03*
X60672500Y64325000D03*
%TD*%
D13*
%TO.C,R38*%
X173775000Y121855000D03*
X176875000Y121855000D03*
%TD*%
D16*
%TO.C,K3*%
X62800000Y144000000D03*
D17*
X56800000Y142000000D03*
X56800000Y129800000D03*
X68800000Y129800000D03*
X68800000Y142000000D03*
%TD*%
D11*
%TO.C,R57*%
X62954999Y61125000D03*
X64954999Y61125000D03*
%TD*%
D16*
%TO.C,K9*%
X50000000Y103000000D03*
D17*
X52000000Y97000000D03*
X64200000Y97000000D03*
X64200000Y109000000D03*
X52000000Y109000000D03*
%TD*%
D11*
%TO.C,R45*%
X62954999Y65075000D03*
X64954999Y65075000D03*
%TD*%
D32*
%TO.C,J33*%
X134000000Y8530000D03*
D33*
X137500000Y8530000D03*
X141000000Y8530000D03*
X144500000Y8530000D03*
X148000000Y8530000D03*
X151500000Y8530000D03*
%TD*%
D23*
%TO.C,J4*%
X186470000Y90000000D03*
D24*
X186470000Y93500000D03*
X186470000Y97000000D03*
%TD*%
D34*
%TO.C,U12*%
X171900000Y95370000D03*
X171900000Y94100000D03*
X171900000Y92830000D03*
X171900000Y91560000D03*
X171900000Y90290000D03*
X171900000Y89020000D03*
X171900000Y87750000D03*
X171900000Y86480000D03*
X176850000Y86480000D03*
X176850000Y87750000D03*
X176850000Y89020000D03*
X176850000Y90290000D03*
X176850000Y91560000D03*
X176850000Y92830000D03*
X176850000Y94100000D03*
X176850000Y95370000D03*
%TD*%
D13*
%TO.C,R32*%
X35775000Y121855000D03*
X38875000Y121855000D03*
%TD*%
D14*
%TO.C,D123*%
X145545000Y68825000D03*
X148845000Y68825000D03*
%TD*%
D10*
%TO.C,C15*%
X157077500Y84295001D03*
X159152500Y84295001D03*
%TD*%
D11*
%TO.C,R25*%
X145305000Y101025000D03*
X147305000Y101025000D03*
%TD*%
D16*
%TO.C,K4*%
X85800000Y144000000D03*
D17*
X79800000Y142000000D03*
X79800000Y129800000D03*
X91800000Y129800000D03*
X91800000Y142000000D03*
%TD*%
D18*
%TO.C,D33*%
X12825000Y64275000D03*
X16825000Y64275000D03*
%TD*%
D15*
%TO.C,D64*%
X153007500Y57475000D03*
X153007500Y55575000D03*
X154882500Y56525000D03*
%TD*%
%TO.C,D6*%
X72007500Y108375000D03*
X72007500Y106475000D03*
X73882500Y107425000D03*
%TD*%
D14*
%TO.C,D131*%
X72875000Y27475000D03*
X76175000Y27475000D03*
%TD*%
D12*
%TO.C,D47*%
X16650000Y57175000D03*
X18700000Y57175000D03*
%TD*%
D11*
%TO.C,R15*%
X169085000Y101025000D03*
X171085000Y101025000D03*
%TD*%
%TO.C,R51*%
X12315000Y69025000D03*
X14315000Y69025000D03*
%TD*%
%TO.C,R9*%
X86725000Y89025000D03*
X88725000Y89025000D03*
%TD*%
D16*
%TO.C,K10*%
X50000000Y84000000D03*
D17*
X52000000Y78000000D03*
X64200000Y78000000D03*
X64200000Y90000000D03*
X52000000Y90000000D03*
%TD*%
D18*
%TO.C,D32*%
X46655000Y68225000D03*
X50655000Y68225000D03*
%TD*%
D15*
%TO.C,D66*%
X157217499Y53625000D03*
X157217499Y51725000D03*
X159092499Y52675000D03*
%TD*%
%TO.C,D62*%
X178167500Y65175000D03*
X178167500Y63275000D03*
X180042500Y64225000D03*
%TD*%
D12*
%TO.C,D105*%
X106200000Y50175000D03*
X108250000Y50175000D03*
%TD*%
D11*
%TO.C,R128*%
X92825000Y38925000D03*
X94825000Y38925000D03*
%TD*%
D16*
%TO.C,K6*%
X131800000Y144000000D03*
D17*
X125800000Y142000000D03*
X125800000Y129800000D03*
X137800000Y129800000D03*
X137800000Y142000000D03*
%TD*%
D11*
%TO.C,R158*%
X152875000Y49575000D03*
X154875000Y49575000D03*
%TD*%
D18*
%TO.C,D36*%
X38215000Y60325000D03*
X42215000Y60325000D03*
%TD*%
D10*
%TO.C,C24*%
X177967500Y61095000D03*
X180042500Y61095000D03*
%TD*%
D16*
%TO.C,K8*%
X177800000Y144000000D03*
D17*
X171800000Y142000000D03*
X171800000Y129800000D03*
X183800000Y129800000D03*
X183800000Y142000000D03*
%TD*%
D12*
%TO.C,D103*%
X141520000Y69025000D03*
X143570000Y69025000D03*
%TD*%
D26*
%TO.C,JP8*%
X168825000Y121725000D03*
D27*
X170125000Y121725000D03*
D28*
X171425000Y121725000D03*
%TD*%
D11*
%TO.C,R17*%
X177385000Y101025000D03*
X179385000Y101025000D03*
%TD*%
D13*
%TO.C,R112*%
X82375000Y27505000D03*
X85475000Y27505000D03*
%TD*%
D25*
%TO.C,U3*%
X69304999Y69030000D03*
X69304999Y67760000D03*
X69304999Y66490000D03*
X69304999Y65220000D03*
X69304999Y63950000D03*
X69304999Y62680000D03*
X69304999Y61410000D03*
X69304999Y60140000D03*
X69304999Y58870000D03*
X69304999Y57600000D03*
X69304999Y56330000D03*
X69304999Y55060000D03*
X69304999Y53790000D03*
X69304999Y52520000D03*
X78604999Y52520000D03*
X78604999Y53790000D03*
X78604999Y55060000D03*
X78604999Y56330000D03*
X78604999Y57600000D03*
X78604999Y58870000D03*
X78604999Y60140000D03*
X78604999Y61410000D03*
X78604999Y62680000D03*
X78604999Y63950000D03*
X78604999Y65220000D03*
X78604999Y66490000D03*
X78604999Y67760000D03*
X78604999Y69030000D03*
%TD*%
D11*
%TO.C,R21*%
X128704999Y101025000D03*
X130704999Y101025000D03*
%TD*%
D26*
%TO.C,JP1*%
X7825000Y121725000D03*
D27*
X9125000Y121725000D03*
D28*
X10425000Y121725000D03*
%TD*%
D13*
%TO.C,R108*%
X78225000Y38755000D03*
X81325000Y38755000D03*
%TD*%
D14*
%TO.C,D126*%
X129025000Y49975000D03*
X132325000Y49975000D03*
%TD*%
D13*
%TO.C,R102*%
X117445000Y68855001D03*
X120545000Y68855001D03*
%TD*%
D19*
%TO.C,U6*%
X92025000Y50170000D03*
X92025000Y48900000D03*
X92025000Y47630000D03*
X92025000Y46360000D03*
X92025000Y45090000D03*
X92025000Y43820000D03*
X92025000Y42550000D03*
X92025000Y41280000D03*
X98525000Y41280000D03*
X98525000Y42550000D03*
X98525000Y43820000D03*
X98525000Y45090000D03*
X98525000Y46360000D03*
X98525000Y47630000D03*
X98525000Y48900000D03*
X98525000Y50170000D03*
%TD*%
D13*
%TO.C,R61*%
X23965000Y68855001D03*
X27065000Y68855001D03*
%TD*%
D11*
%TO.C,R24*%
X141155000Y101025000D03*
X143155000Y101025000D03*
%TD*%
%TO.C,R41*%
X8164999Y69025000D03*
X10164999Y69025000D03*
%TD*%
D21*
%TO.C,J18*%
X182880000Y149470000D03*
D22*
X177800000Y149470000D03*
X172720000Y149470000D03*
%TD*%
D21*
%TO.C,J12*%
X44880000Y149470000D03*
D22*
X39800000Y149470000D03*
X34720000Y149470000D03*
%TD*%
D13*
%TO.C,R104*%
X73075000Y50005000D03*
X76175000Y50005000D03*
%TD*%
D35*
%TO.C,D1*%
X24975000Y109625000D03*
X31775000Y109625000D03*
%TD*%
D11*
%TO.C,R121*%
X113245000Y69025000D03*
X115245000Y69025000D03*
%TD*%
D16*
%TO.C,K1*%
X16800000Y144000000D03*
D17*
X10800000Y142000000D03*
X10800000Y129800000D03*
X22800000Y129800000D03*
X22800000Y142000000D03*
%TD*%
D12*
%TO.C,D108*%
X83500000Y38925000D03*
X85550000Y38925000D03*
%TD*%
D11*
%TO.C,R151*%
X152875000Y64975000D03*
X154875000Y64975000D03*
%TD*%
%TO.C,R134*%
X143625000Y27675000D03*
X145625000Y27675000D03*
%TD*%
D15*
%TO.C,Q8*%
X20957500Y57375000D03*
X20957500Y55475000D03*
X22832500Y56425000D03*
%TD*%
D11*
%TO.C,R12*%
X85394999Y69025000D03*
X87394999Y69025000D03*
%TD*%
D12*
%TO.C,D114*%
X134300000Y27675000D03*
X136350000Y27675000D03*
%TD*%
D11*
%TO.C,R129*%
X120675000Y38925000D03*
X122675000Y38925000D03*
%TD*%
D20*
%TO.C,C6*%
X79392499Y103575000D03*
X82517499Y103575000D03*
%TD*%
D12*
%TO.C,D111*%
X68850000Y27675000D03*
X70900000Y27675000D03*
%TD*%
D11*
%TO.C,R156*%
X178115000Y57275000D03*
X180115000Y57275000D03*
%TD*%
D21*
%TO.C,J14*%
X90880000Y149470000D03*
D22*
X85800000Y149470000D03*
X80720000Y149470000D03*
%TD*%
D15*
%TO.C,D68*%
X161367500Y49775000D03*
X161367500Y47875000D03*
X163242500Y48825000D03*
%TD*%
D11*
%TO.C,R58*%
X29264999Y57175000D03*
X31264999Y57175000D03*
%TD*%
%TO.C,R127*%
X74025000Y38925000D03*
X76025000Y38925000D03*
%TD*%
%TO.C,R125*%
X115525000Y50175000D03*
X117525000Y50175000D03*
%TD*%
D32*
%TO.C,J34*%
X159000000Y8530000D03*
D33*
X162500000Y8530000D03*
X166000000Y8530000D03*
X169500000Y8530000D03*
X173000000Y8530000D03*
X176500000Y8530000D03*
%TD*%
D26*
%TO.C,JP3*%
X53825000Y121725000D03*
D27*
X55125000Y121725000D03*
D28*
X56425000Y121725000D03*
%TD*%
D19*
%TO.C,U8*%
X101325000Y27670000D03*
X101325000Y26400000D03*
X101325000Y25130000D03*
X101325000Y23860000D03*
X101325000Y22590000D03*
X101325000Y21320000D03*
X101325000Y20050000D03*
X101325000Y18780000D03*
X107825000Y18780000D03*
X107825000Y20050000D03*
X107825000Y21320000D03*
X107825000Y22590000D03*
X107825000Y23860000D03*
X107825000Y25130000D03*
X107825000Y26400000D03*
X107825000Y27670000D03*
%TD*%
D11*
%TO.C,R153*%
X157024999Y61125000D03*
X159024999Y61125000D03*
%TD*%
D10*
%TO.C,C14*%
X152867500Y84295001D03*
X154942500Y84295001D03*
%TD*%
D25*
%TO.C,U1*%
X100304999Y101030000D03*
X100304999Y99760000D03*
X100304999Y98490000D03*
X100304999Y97220000D03*
X100304999Y95950000D03*
X100304999Y94680000D03*
X100304999Y93410000D03*
X100304999Y92140000D03*
X100304999Y90870000D03*
X100304999Y89600000D03*
X100304999Y88330000D03*
X100304999Y87060000D03*
X100304999Y85790000D03*
X100304999Y84520000D03*
X109604999Y84520000D03*
X109604999Y85790000D03*
X109604999Y87060000D03*
X109604999Y88330000D03*
X109604999Y89600000D03*
X109604999Y90870000D03*
X109604999Y92140000D03*
X109604999Y93410000D03*
X109604999Y94680000D03*
X109604999Y95950000D03*
X109604999Y97220000D03*
X109604999Y98490000D03*
X109604999Y99760000D03*
X109604999Y101030000D03*
%TD*%
D18*
%TO.C,D35*%
X8675000Y60325000D03*
X12675000Y60325000D03*
%TD*%
D11*
%TO.C,R53*%
X8025000Y65075000D03*
X10025000Y65075000D03*
%TD*%
D14*
%TO.C,D4*%
X71725000Y111825000D03*
X75025000Y111825000D03*
%TD*%
D15*
%TO.C,Q1*%
X4007500Y69225000D03*
X4007500Y67325000D03*
X5882500Y68275000D03*
%TD*%
D14*
%TO.C,D133*%
X119525000Y27475000D03*
X122825000Y27475000D03*
%TD*%
D12*
%TO.C,D25*%
X110050000Y122025000D03*
X112100000Y122025000D03*
%TD*%
D13*
%TO.C,R66*%
X45065000Y60955000D03*
X48165000Y60955000D03*
%TD*%
D12*
%TO.C,D26*%
X133050000Y122025000D03*
X135100000Y122025000D03*
%TD*%
D19*
%TO.C,U5*%
X89745000Y69020000D03*
X89745000Y67750000D03*
X89745000Y66480000D03*
X89745000Y65210000D03*
X89745000Y63940000D03*
X89745000Y62670000D03*
X89745000Y61400000D03*
X89745000Y60130000D03*
X96245000Y60130000D03*
X96245000Y61400000D03*
X96245000Y62670000D03*
X96245000Y63940000D03*
X96245000Y65210000D03*
X96245000Y66480000D03*
X96245000Y67750000D03*
X96245000Y69020000D03*
%TD*%
D10*
%TO.C,C17*%
X165497500Y84295001D03*
X167572500Y84295001D03*
%TD*%
D32*
%TO.C,J31*%
X84000000Y8530000D03*
D33*
X87500000Y8530000D03*
X91000000Y8530000D03*
X94500000Y8530000D03*
X98000000Y8530000D03*
X101500000Y8530000D03*
%TD*%
D26*
%TO.C,JP2*%
X30825000Y121725000D03*
D27*
X32125000Y121725000D03*
D28*
X33425000Y121725000D03*
%TD*%
D15*
%TO.C,Q9*%
X82307500Y112225000D03*
X82307500Y110325000D03*
X84182500Y111275000D03*
%TD*%
D10*
%TO.C,C28*%
X157017500Y49545000D03*
X159092500Y49545000D03*
%TD*%
%TO.C,C16*%
X161287500Y84295001D03*
X163362500Y84295001D03*
%TD*%
D11*
%TO.C,R146*%
X173965000Y57275000D03*
X175965000Y57275000D03*
%TD*%
D18*
%TO.C,D34*%
X42365000Y64275000D03*
X46365000Y64275000D03*
%TD*%
D11*
%TO.C,R126*%
X134325000Y50175000D03*
X136325000Y50175000D03*
%TD*%
D18*
%TO.C,D37*%
X4525000Y56375000D03*
X8525000Y56375000D03*
%TD*%
D10*
%TO.C,C26*%
X152867500Y53395000D03*
X154942500Y53395000D03*
%TD*%
D11*
%TO.C,R16*%
X173235000Y101025000D03*
X175235000Y101025000D03*
%TD*%
D14*
%TO.C,D128*%
X87525000Y38725000D03*
X90825000Y38725000D03*
%TD*%
D15*
%TO.C,Q2*%
X33547500Y69225000D03*
X33547500Y67325000D03*
X35422500Y68275000D03*
%TD*%
D13*
%TO.C,R113*%
X110225000Y27505000D03*
X113325000Y27505000D03*
%TD*%
D10*
%TO.C,C2*%
X33267500Y104845000D03*
X35342500Y104845000D03*
%TD*%
D13*
%TO.C,R114*%
X129025000Y27505000D03*
X132125000Y27505000D03*
%TD*%
D12*
%TO.C,D3*%
X26550000Y95625000D03*
X28600000Y95625000D03*
%TD*%
%TO.C,D107*%
X143800000Y50175000D03*
X145850000Y50175000D03*
%TD*%
D11*
%TO.C,R46*%
X29264999Y61125000D03*
X31264999Y61125000D03*
%TD*%
%TO.C,R10*%
X112325000Y82175000D03*
X114325000Y82175000D03*
%TD*%
D13*
%TO.C,R36*%
X127775000Y121855000D03*
X130875000Y121855000D03*
%TD*%
D31*
%TO.C,H3*%
X191500000Y3500000D03*
%TD*%
D13*
%TO.C,R107*%
X138525000Y50005000D03*
X141625000Y50005000D03*
%TD*%
D10*
%TO.C,C10*%
X165567500Y68995000D03*
X167642500Y68995000D03*
%TD*%
D11*
%TO.C,R152*%
X169675000Y64975000D03*
X171675000Y64975000D03*
%TD*%
D10*
%TO.C,C5*%
X76157500Y108145000D03*
X78232500Y108145000D03*
%TD*%
D13*
%TO.C,R63*%
X19675000Y64905000D03*
X22775000Y64905000D03*
%TD*%
D11*
%TO.C,R122*%
X132045000Y69025000D03*
X134045000Y69025000D03*
%TD*%
%TO.C,R48*%
X25115000Y57175000D03*
X27115000Y57175000D03*
%TD*%
D18*
%TO.C,D12*%
X157274999Y94375000D03*
X161274999Y94375000D03*
%TD*%
D11*
%TO.C,R142*%
X165524999Y64975000D03*
X167524999Y64975000D03*
%TD*%
D34*
%TO.C,U11*%
X153250000Y101180000D03*
X153250000Y99910000D03*
X153250000Y98640000D03*
X153250000Y97370000D03*
X158200000Y97370000D03*
X158200000Y98640000D03*
X158200000Y99910000D03*
X158200000Y101180000D03*
%TD*%
D12*
%TO.C,D109*%
X111350000Y38925000D03*
X113400000Y38925000D03*
%TD*%
D14*
%TO.C,D122*%
X126745000Y68825000D03*
X130045000Y68825000D03*
%TD*%
D12*
%TO.C,D113*%
X115500000Y27675000D03*
X117550000Y27675000D03*
%TD*%
D15*
%TO.C,D61*%
X161367500Y65175000D03*
X161367500Y63275000D03*
X163242500Y64225000D03*
%TD*%
D12*
%TO.C,D115*%
X74200000Y16425000D03*
X76250000Y16425000D03*
%TD*%
D11*
%TO.C,R155*%
X161315000Y57275000D03*
X163315000Y57275000D03*
%TD*%
D36*
%TO.C,F2*%
X14837500Y94625000D03*
X19112500Y94625000D03*
%TD*%
D11*
%TO.C,R147*%
X161375000Y53425000D03*
X163375000Y53425000D03*
%TD*%
D10*
%TO.C,C11*%
X169777500Y68995000D03*
X171852500Y68995000D03*
%TD*%
D15*
%TO.C,Q4*%
X29257500Y65275000D03*
X29257500Y63375000D03*
X31132500Y64325000D03*
%TD*%
D37*
%TO.C,J1*%
X10530000Y110000000D03*
D38*
X10530000Y104920000D03*
%TD*%
D12*
%TO.C,D24*%
X87050000Y122025000D03*
X89100000Y122025000D03*
%TD*%
%TO.C,D42*%
X58780000Y69025000D03*
X60830000Y69025000D03*
%TD*%
D13*
%TO.C,R1*%
X21275000Y95455000D03*
X24375000Y95455000D03*
%TD*%
D11*
%TO.C,R44*%
X33415000Y65075000D03*
X35415000Y65075000D03*
%TD*%
%TO.C,R131*%
X78175000Y27675000D03*
X80175000Y27675000D03*
%TD*%
D15*
%TO.C,D63*%
X165517500Y61325000D03*
X165517500Y59425000D03*
X167392500Y60375000D03*
%TD*%
D11*
%TO.C,R42*%
X37705000Y69025000D03*
X39705000Y69025000D03*
%TD*%
D13*
%TO.C,R105*%
X100925000Y50005000D03*
X104025000Y50005000D03*
%TD*%
D11*
%TO.C,R55*%
X3875000Y61125000D03*
X5875000Y61125000D03*
%TD*%
D10*
%TO.C,C13*%
X179367500Y95145000D03*
X181442500Y95145000D03*
%TD*%
D13*
%TO.C,R34*%
X81775000Y121855000D03*
X84875000Y121855000D03*
%TD*%
%TO.C,R31*%
X12775000Y121855000D03*
X15875000Y121855000D03*
%TD*%
D11*
%TO.C,R123*%
X68875000Y50175000D03*
X70875000Y50175000D03*
%TD*%
D13*
%TO.C,R106*%
X119725000Y50005000D03*
X122825000Y50005000D03*
%TD*%
D18*
%TO.C,D8*%
X72525000Y103425000D03*
X76525000Y103425000D03*
%TD*%
D21*
%TO.C,J13*%
X67880000Y149470000D03*
D22*
X62800000Y149470000D03*
X57720000Y149470000D03*
%TD*%
D14*
%TO.C,D134*%
X138325000Y27475000D03*
X141625000Y27475000D03*
%TD*%
D12*
%TO.C,D22*%
X41050000Y122025000D03*
X43100000Y122025000D03*
%TD*%
%TO.C,D104*%
X78350000Y50175000D03*
X80400000Y50175000D03*
%TD*%
D11*
%TO.C,R28*%
X108175000Y82175000D03*
X110175000Y82175000D03*
%TD*%
%TO.C,R13*%
X173995000Y69025000D03*
X175995000Y69025000D03*
%TD*%
D21*
%TO.C,J11*%
X21880000Y149470000D03*
D22*
X16800000Y149470000D03*
X11720000Y149470000D03*
%TD*%
D11*
%TO.C,R23*%
X137005000Y101025000D03*
X139005000Y101025000D03*
%TD*%
D14*
%TO.C,D130*%
X134175000Y38725000D03*
X137475000Y38725000D03*
%TD*%
D11*
%TO.C,R154*%
X173825000Y61125000D03*
X175825000Y61125000D03*
%TD*%
D26*
%TO.C,JP7*%
X145825000Y121725000D03*
D27*
X147125000Y121725000D03*
D28*
X148425000Y121725000D03*
%TD*%
D14*
%TO.C,D136*%
X97025000Y16225000D03*
X100325000Y16225000D03*
%TD*%
D16*
%TO.C,K5*%
X108800000Y144000000D03*
D17*
X102800000Y142000000D03*
X102800000Y129800000D03*
X114800000Y129800000D03*
X114800000Y142000000D03*
%TD*%
D14*
%TO.C,D124*%
X82375000Y49975000D03*
X85675000Y49975000D03*
%TD*%
D12*
%TO.C,D102*%
X122720000Y69025000D03*
X124770000Y69025000D03*
%TD*%
D39*
%TO.C,J2*%
X8530000Y94000000D03*
D24*
X8530000Y90500000D03*
%TD*%
D12*
%TO.C,D101*%
X103920000Y69025000D03*
X105970000Y69025000D03*
%TD*%
D10*
%TO.C,C21*%
X157017500Y64945000D03*
X159092500Y64945000D03*
%TD*%
%TO.C,C8*%
X112177500Y100995000D03*
X114252500Y100995000D03*
%TD*%
D18*
%TO.C,D13*%
X164725000Y94375000D03*
X168725000Y94375000D03*
%TD*%
D12*
%TO.C,D46*%
X50340000Y61125000D03*
X52390000Y61125000D03*
%TD*%
D11*
%TO.C,R11*%
X116475000Y82175000D03*
X118475000Y82175000D03*
%TD*%
%TO.C,R43*%
X3875000Y65075000D03*
X5875000Y65075000D03*
%TD*%
D29*
%TO.C,U9*%
X152825000Y69175000D03*
X152825000Y68675000D03*
X152825000Y68175000D03*
X152825000Y67675000D03*
X152825000Y67175000D03*
X157125000Y67175000D03*
X157125000Y67675000D03*
X157125000Y68175000D03*
X157125000Y68675000D03*
X157125000Y69175000D03*
%TD*%
D32*
%TO.C,J23*%
X47000000Y8530000D03*
D33*
X50500000Y8530000D03*
X54000000Y8530000D03*
X57500000Y8530000D03*
%TD*%
D12*
%TO.C,D41*%
X29240000Y69025000D03*
X31290000Y69025000D03*
%TD*%
D10*
%TO.C,C27*%
X169667500Y53395000D03*
X171742500Y53395000D03*
%TD*%
D14*
%TO.C,D125*%
X110225000Y49975000D03*
X113525000Y49975000D03*
%TD*%
D31*
%TO.C,H4*%
X3500000Y3500000D03*
%TD*%
D11*
%TO.C,R143*%
X152875000Y61125000D03*
X154875000Y61125000D03*
%TD*%
D21*
%TO.C,J15*%
X113880000Y149470000D03*
D22*
X108800000Y149470000D03*
X103720000Y149470000D03*
%TD*%
D18*
%TO.C,D38*%
X34065000Y56375000D03*
X38065000Y56375000D03*
%TD*%
D11*
%TO.C,R54*%
X37565000Y65075000D03*
X39565000Y65075000D03*
%TD*%
D32*
%TO.C,J22*%
X29000000Y8530000D03*
D33*
X32500000Y8530000D03*
X36000000Y8530000D03*
X39500000Y8530000D03*
%TD*%
D26*
%TO.C,JP4*%
X76825000Y121725000D03*
D27*
X78125000Y121725000D03*
D28*
X79425000Y121725000D03*
%TD*%
D10*
%TO.C,C25*%
X165457500Y57245000D03*
X167532500Y57245000D03*
%TD*%
D13*
%TO.C,R62*%
X53505000Y68855001D03*
X56605000Y68855001D03*
%TD*%
D12*
%TO.C,D11*%
X120600000Y82175000D03*
X122650000Y82175000D03*
%TD*%
D13*
%TO.C,R6*%
X71925000Y88855001D03*
X75025000Y88855001D03*
%TD*%
%TO.C,R67*%
X11375000Y57005000D03*
X14475000Y57005000D03*
%TD*%
D11*
%TO.C,R2*%
X86465000Y112025000D03*
X88465000Y112025000D03*
%TD*%
D40*
%TO.C,JP9*%
X153025000Y94875000D03*
D41*
X154325000Y94875000D03*
%TD*%
D13*
%TO.C,R5*%
X76075000Y100105001D03*
X79175000Y100105001D03*
%TD*%
D10*
%TO.C,C22*%
X173817500Y64945000D03*
X175892500Y64945000D03*
%TD*%
D11*
%TO.C,R26*%
X99875000Y82175000D03*
X101875000Y82175000D03*
%TD*%
%TO.C,R157*%
X165524999Y53425000D03*
X167524999Y53425000D03*
%TD*%
D15*
%TO.C,D65*%
X169807500Y57475000D03*
X169807500Y55575000D03*
X171682500Y56525000D03*
%TD*%
D12*
%TO.C,D116*%
X93000000Y16425000D03*
X95050000Y16425000D03*
%TD*%
D11*
%TO.C,R47*%
X58805000Y61125000D03*
X60805000Y61125000D03*
%TD*%
D12*
%TO.C,D28*%
X179050000Y122025000D03*
X181100000Y122025000D03*
%TD*%
D13*
%TO.C,R103*%
X136245000Y68855001D03*
X139345000Y68855001D03*
%TD*%
D42*
%TO.C,J3*%
X130000000Y108000000D03*
D43*
X130000000Y110540000D03*
X132540000Y108000000D03*
X132540000Y110540000D03*
X135080000Y108000000D03*
X135080000Y110540000D03*
X137620000Y108000000D03*
X137620000Y110540000D03*
X140160000Y108000000D03*
X140160000Y110540000D03*
X142700000Y108000000D03*
X142700000Y110540000D03*
X145240000Y108000000D03*
X145240000Y110540000D03*
X147780000Y108000000D03*
X147780000Y110540000D03*
X150320000Y108000000D03*
X150320000Y110540000D03*
X152860000Y108000000D03*
X152860000Y110540000D03*
X155400000Y108000000D03*
X155400000Y110540000D03*
X157940000Y108000000D03*
X157940000Y110540000D03*
X160480000Y108000000D03*
X160480000Y110540000D03*
X163020000Y108000000D03*
X163020000Y110540000D03*
X165560000Y108000000D03*
X165560000Y110540000D03*
X168100000Y108000000D03*
X168100000Y110540000D03*
X170640000Y108000000D03*
X170640000Y110540000D03*
X173180000Y108000000D03*
X173180000Y110540000D03*
X175720000Y108000000D03*
X175720000Y110540000D03*
X178260000Y108000000D03*
X178260000Y110540000D03*
%TD*%
D12*
%TO.C,D106*%
X125000000Y50175000D03*
X127050000Y50175000D03*
%TD*%
D11*
%TO.C,R148*%
X178175000Y53425000D03*
X180175000Y53425000D03*
%TD*%
D32*
%TO.C,J32*%
X109000000Y8530000D03*
D33*
X112500000Y8530000D03*
X116000000Y8530000D03*
X119500000Y8530000D03*
X123000000Y8530000D03*
X126500000Y8530000D03*
%TD*%
D32*
%TO.C,J21*%
X11000000Y8530000D03*
D33*
X14500000Y8530000D03*
X18000000Y8530000D03*
X21500000Y8530000D03*
%TD*%
D11*
%TO.C,R144*%
X169675000Y61125000D03*
X171675000Y61125000D03*
%TD*%
D14*
%TO.C,D5*%
X76875000Y111825000D03*
X80175000Y111825000D03*
%TD*%
D12*
%TO.C,D48*%
X46190000Y57175000D03*
X48240000Y57175000D03*
%TD*%
D13*
%TO.C,R115*%
X68925000Y16255000D03*
X72025000Y16255000D03*
%TD*%
D31*
%TO.C,H1*%
X3500000Y156500000D03*
%TD*%
D44*
%TO.C,F1*%
X15985000Y110725000D03*
X21065000Y110715000D03*
%TD*%
D12*
%TO.C,D43*%
X24950000Y65075000D03*
X27000000Y65075000D03*
%TD*%
D10*
%TO.C,C23*%
X161167500Y61095000D03*
X163242500Y61095000D03*
%TD*%
D11*
%TO.C,R56*%
X33415000Y61125000D03*
X35415000Y61125000D03*
%TD*%
%TO.C,R8*%
X82575000Y89025000D03*
X84575000Y89025000D03*
%TD*%
D13*
%TO.C,R111*%
X143675000Y38755000D03*
X146775000Y38755000D03*
%TD*%
D23*
%TO.C,J5*%
X186470000Y75000000D03*
D24*
X186470000Y78500000D03*
X186470000Y82000000D03*
%TD*%
D12*
%TO.C,D44*%
X54490000Y65075000D03*
X56540000Y65075000D03*
%TD*%
D18*
%TO.C,D31*%
X17115000Y68225000D03*
X21115000Y68225000D03*
%TD*%
D16*
%TO.C,K2*%
X39800000Y144000000D03*
D17*
X33800000Y142000000D03*
X33800000Y129800000D03*
X45800000Y129800000D03*
X45800000Y142000000D03*
%TD*%
D21*
%TO.C,J17*%
X159880000Y149470000D03*
D22*
X154800000Y149470000D03*
X149720000Y149470000D03*
%TD*%
D32*
%TO.C,J24*%
X65000000Y8530000D03*
D33*
X68500000Y8530000D03*
X72000000Y8530000D03*
X75500000Y8530000D03*
%TD*%
D12*
%TO.C,D23*%
X64050000Y122025000D03*
X66100000Y122025000D03*
%TD*%
D11*
%TO.C,R3*%
X80375000Y108175000D03*
X82375000Y108175000D03*
%TD*%
D10*
%TO.C,C3*%
X30717500Y95595000D03*
X32792500Y95595000D03*
%TD*%
%TO.C,C12*%
X160717500Y100995000D03*
X162792500Y100995000D03*
%TD*%
D18*
%TO.C,D7*%
X85175000Y107375000D03*
X89175000Y107375000D03*
%TD*%
D13*
%TO.C,R109*%
X106075000Y38755000D03*
X109175000Y38755000D03*
%TD*%
D11*
%TO.C,R132*%
X96975000Y27675000D03*
X98975000Y27675000D03*
%TD*%
D13*
%TO.C,R110*%
X124875000Y38755000D03*
X127975000Y38755000D03*
%TD*%
%TO.C,R65*%
X15525000Y60955000D03*
X18625000Y60955000D03*
%TD*%
M02*
