%TF.GenerationSoftware,KiCad,Pcbnew,7.0.11+dfsg-1build4*%
%TF.CreationDate,2026-09-28T02:57:54+00:00*%
%TF.ProjectId,RPi5VacuumIO,52506935-5661-4637-9575-6d494f2e6b69,rev?*%
%TF.SameCoordinates,Original*%
%TF.FileFunction,Soldermask,Bot*%
%TF.FilePolarity,Negative*%
%FSLAX46Y46*%
G04 Gerber Fmt 4.6, Leading zero omitted, Abs format (unit mm)*
G04 Created by KiCad (PCBNEW 7.0.11+dfsg-1build4) date 2026-09-28 02:57:54*
%MOMM*%
%LPD*%
G01*
G04 APERTURE LIST*
G04 Aperture macros list*
%AMRoundRect*
0 Rectangle with rounded corners*
0 $1 Rounding radius*
0 $2 $3 $4 $5 $6 $7 $8 $9 X,Y pos of 4 corners*
0 Add a 4 corners polygon primitive as box body*
4,1,4,$2,$3,$4,$5,$6,$7,$8,$9,$2,$3,0*
0 Add four circle primitives for the rounded corners*
1,1,$1+$1,$2,$3*
1,1,$1+$1,$4,$5*
1,1,$1+$1,$6,$7*
1,1,$1+$1,$8,$9*
0 Add four rect primitives between the rounded corners*
20,1,$1+$1,$2,$3,$4,$5,0*
20,1,$1+$1,$4,$5,$6,$7,0*
20,1,$1+$1,$6,$7,$8,$9,0*
20,1,$1+$1,$8,$9,$2,$3,0*%
G04 Aperture macros list end*
%ADD10R,2.500000X2.500000*%
%ADD11O,2.500000X2.500000*%
%ADD12RoundRect,0.249999X0.790001X1.550001X-0.790001X1.550001X-0.790001X-1.550001X0.790001X-1.550001X0*%
%ADD13O,2.080000X3.600000*%
%ADD14RoundRect,0.250000X1.550000X-0.650000X1.550000X0.650000X-1.550000X0.650000X-1.550000X-0.650000X0*%
%ADD15O,3.600000X1.800000*%
%ADD16C,3.200000*%
%ADD17RoundRect,0.250000X-0.650000X-1.550000X0.650000X-1.550000X0.650000X1.550000X-0.650000X1.550000X0*%
%ADD18O,1.800000X3.600000*%
%ADD19RoundRect,0.249999X-1.550001X0.790001X-1.550001X-0.790001X1.550001X-0.790001X1.550001X0.790001X0*%
%ADD20O,3.600000X2.080000*%
%ADD21RoundRect,0.250000X-1.550000X0.650000X-1.550000X-0.650000X1.550000X-0.650000X1.550000X0.650000X0*%
%ADD22RoundRect,0.250000X0.600000X-0.600000X0.600000X0.600000X-0.600000X0.600000X-0.600000X-0.600000X0*%
%ADD23C,1.700000*%
%ADD24C,2.000000*%
G04 APERTURE END LIST*
D10*
%TO.C,K7*%
X154800000Y144000000D03*
D11*
X148800000Y142000000D03*
X148800000Y129800000D03*
X160800000Y129800000D03*
X160800000Y142000000D03*
%TD*%
D12*
%TO.C,J16*%
X136880000Y149470000D03*
D13*
X131800000Y149470000D03*
X126720000Y149470000D03*
%TD*%
D14*
%TO.C,J42*%
X186470000Y10500000D03*
D15*
X186470000Y14000000D03*
X186470000Y17500000D03*
X186470000Y21000000D03*
X186470000Y24500000D03*
X186470000Y28000000D03*
X186470000Y31500000D03*
X186470000Y35000000D03*
%TD*%
D14*
%TO.C,J41*%
X186470000Y42000000D03*
D15*
X186470000Y45500000D03*
X186470000Y49000000D03*
X186470000Y52500000D03*
X186470000Y56000000D03*
X186470000Y59500000D03*
X186470000Y63000000D03*
X186470000Y66500000D03*
%TD*%
D16*
%TO.C,H2*%
X191500000Y156500000D03*
%TD*%
D10*
%TO.C,K3*%
X62800000Y144000000D03*
D11*
X56800000Y142000000D03*
X56800000Y129800000D03*
X68800000Y129800000D03*
X68800000Y142000000D03*
%TD*%
D10*
%TO.C,K9*%
X50000000Y103000000D03*
D11*
X52000000Y97000000D03*
X64200000Y97000000D03*
X64200000Y109000000D03*
X52000000Y109000000D03*
%TD*%
D17*
%TO.C,J33*%
X134000000Y8530000D03*
D18*
X137500000Y8530000D03*
X141000000Y8530000D03*
X144500000Y8530000D03*
X148000000Y8530000D03*
X151500000Y8530000D03*
%TD*%
D14*
%TO.C,J4*%
X186470000Y90000000D03*
D15*
X186470000Y93500000D03*
X186470000Y97000000D03*
%TD*%
D10*
%TO.C,K4*%
X85800000Y144000000D03*
D11*
X79800000Y142000000D03*
X79800000Y129800000D03*
X91800000Y129800000D03*
X91800000Y142000000D03*
%TD*%
D10*
%TO.C,K10*%
X50000000Y84000000D03*
D11*
X52000000Y78000000D03*
X64200000Y78000000D03*
X64200000Y90000000D03*
X52000000Y90000000D03*
%TD*%
D10*
%TO.C,K6*%
X131800000Y144000000D03*
D11*
X125800000Y142000000D03*
X125800000Y129800000D03*
X137800000Y129800000D03*
X137800000Y142000000D03*
%TD*%
D10*
%TO.C,K8*%
X177800000Y144000000D03*
D11*
X171800000Y142000000D03*
X171800000Y129800000D03*
X183800000Y129800000D03*
X183800000Y142000000D03*
%TD*%
D12*
%TO.C,J18*%
X182880000Y149470000D03*
D13*
X177800000Y149470000D03*
X172720000Y149470000D03*
%TD*%
D12*
%TO.C,J12*%
X44880000Y149470000D03*
D13*
X39800000Y149470000D03*
X34720000Y149470000D03*
%TD*%
D10*
%TO.C,K1*%
X16800000Y144000000D03*
D11*
X10800000Y142000000D03*
X10800000Y129800000D03*
X22800000Y129800000D03*
X22800000Y142000000D03*
%TD*%
D12*
%TO.C,J14*%
X90880000Y149470000D03*
D13*
X85800000Y149470000D03*
X80720000Y149470000D03*
%TD*%
D17*
%TO.C,J34*%
X159000000Y8530000D03*
D18*
X162500000Y8530000D03*
X166000000Y8530000D03*
X169500000Y8530000D03*
X173000000Y8530000D03*
X176500000Y8530000D03*
%TD*%
D17*
%TO.C,J31*%
X84000000Y8530000D03*
D18*
X87500000Y8530000D03*
X91000000Y8530000D03*
X94500000Y8530000D03*
X98000000Y8530000D03*
X101500000Y8530000D03*
%TD*%
D16*
%TO.C,H3*%
X191500000Y3500000D03*
%TD*%
D19*
%TO.C,J1*%
X10530000Y110000000D03*
D20*
X10530000Y104920000D03*
%TD*%
D12*
%TO.C,J13*%
X67880000Y149470000D03*
D13*
X62800000Y149470000D03*
X57720000Y149470000D03*
%TD*%
D12*
%TO.C,J11*%
X21880000Y149470000D03*
D13*
X16800000Y149470000D03*
X11720000Y149470000D03*
%TD*%
D10*
%TO.C,K5*%
X108800000Y144000000D03*
D11*
X102800000Y142000000D03*
X102800000Y129800000D03*
X114800000Y129800000D03*
X114800000Y142000000D03*
%TD*%
D21*
%TO.C,J2*%
X8530000Y94000000D03*
D15*
X8530000Y90500000D03*
%TD*%
D17*
%TO.C,J23*%
X47000000Y8530000D03*
D18*
X50500000Y8530000D03*
X54000000Y8530000D03*
X57500000Y8530000D03*
%TD*%
D16*
%TO.C,H4*%
X3500000Y3500000D03*
%TD*%
D12*
%TO.C,J15*%
X113880000Y149470000D03*
D13*
X108800000Y149470000D03*
X103720000Y149470000D03*
%TD*%
D17*
%TO.C,J22*%
X29000000Y8530000D03*
D18*
X32500000Y8530000D03*
X36000000Y8530000D03*
X39500000Y8530000D03*
%TD*%
D22*
%TO.C,J3*%
X130000000Y108000000D03*
D23*
X130000000Y110540000D03*
X132540000Y108000000D03*
X132540000Y110540000D03*
X135080000Y108000000D03*
X135080000Y110540000D03*
X137620000Y108000000D03*
X137620000Y110540000D03*
X140160000Y108000000D03*
X140160000Y110540000D03*
X142700000Y108000000D03*
X142700000Y110540000D03*
X145240000Y108000000D03*
X145240000Y110540000D03*
X147780000Y108000000D03*
X147780000Y110540000D03*
X150320000Y108000000D03*
X150320000Y110540000D03*
X152860000Y108000000D03*
X152860000Y110540000D03*
X155400000Y108000000D03*
X155400000Y110540000D03*
X157940000Y108000000D03*
X157940000Y110540000D03*
X160480000Y108000000D03*
X160480000Y110540000D03*
X163020000Y108000000D03*
X163020000Y110540000D03*
X165560000Y108000000D03*
X165560000Y110540000D03*
X168100000Y108000000D03*
X168100000Y110540000D03*
X170640000Y108000000D03*
X170640000Y110540000D03*
X173180000Y108000000D03*
X173180000Y110540000D03*
X175720000Y108000000D03*
X175720000Y110540000D03*
X178260000Y108000000D03*
X178260000Y110540000D03*
%TD*%
D17*
%TO.C,J32*%
X109000000Y8530000D03*
D18*
X112500000Y8530000D03*
X116000000Y8530000D03*
X119500000Y8530000D03*
X123000000Y8530000D03*
X126500000Y8530000D03*
%TD*%
D17*
%TO.C,J21*%
X11000000Y8530000D03*
D18*
X14500000Y8530000D03*
X18000000Y8530000D03*
X21500000Y8530000D03*
%TD*%
D16*
%TO.C,H1*%
X3500000Y156500000D03*
%TD*%
D24*
%TO.C,F1*%
X15985000Y110725000D03*
X21065000Y110715000D03*
%TD*%
D14*
%TO.C,J5*%
X186470000Y75000000D03*
D15*
X186470000Y78500000D03*
X186470000Y82000000D03*
%TD*%
D10*
%TO.C,K2*%
X39800000Y144000000D03*
D11*
X33800000Y142000000D03*
X33800000Y129800000D03*
X45800000Y129800000D03*
X45800000Y142000000D03*
%TD*%
D12*
%TO.C,J17*%
X159880000Y149470000D03*
D13*
X154800000Y149470000D03*
X149720000Y149470000D03*
%TD*%
D17*
%TO.C,J24*%
X65000000Y8530000D03*
D18*
X68500000Y8530000D03*
X72000000Y8530000D03*
X75500000Y8530000D03*
%TD*%
M02*
