M48
; DRILL file {KiCad 7.0.11+dfsg-1build4} date Mon Sep 28 02:57:55 2026
; FORMAT={-:-/ absolute / metric / decimal}
; #@! TF.CreationDate,2026-09-28T02:57:55+00:00
; #@! TF.GenerationSoftware,Kicad,Pcbnew,7.0.11+dfsg-1build4
; #@! TF.FileFunction,Plated,1,2,PTH
FMAT,2
METRIC
; #@! TA.AperFunction,Plated,PTH,ViaDrill
T1C0.300
; #@! TA.AperFunction,Plated,PTH,ViaDrill
T2C0.400
; #@! TA.AperFunction,Plated,PTH,ComponentDrill
T3C1.000
; #@! TA.AperFunction,Plated,PTH,ComponentDrill
T4C1.200
; #@! TA.AperFunction,Plated,PTH,ComponentDrill
T5C1.300
; #@! TA.AperFunction,Plated,PTH,ComponentDrill
T6C1.400
%
G90
G05
T1
X12.692Y70.185
X17.0Y122.059
X20.329Y85.637
X24.501Y96.845
X30.322Y59.545
X30.322Y52.275
X31.001Y66.642
X33.384Y69.984
X36.113Y55.177
X38.838Y51.495
X40.0Y122.059
X40.78Y69.025
X40.962Y67.535
X42.971Y67.092
X43.335Y67.841
X51.291Y72.77
X53.576Y70.981
X54.616Y105.218
X55.495Y70.65
X56.415Y94.566
X57.877Y64.595
X59.152Y74.532
X59.614Y53.876
X61.092Y76.484
X62.031Y66.048
X63.0Y122.057
X65.472Y83.038
X65.976Y85.637
X67.213Y112.004
X67.822Y66.49
X68.004Y64.598
X68.983Y51.649
X70.147Y83.703
X70.28Y25.263
X70.453Y71.012
X70.834Y60.355
X71.255Y65.799
X71.807Y65.108
X71.882Y62.68
X72.642Y57.6
X75.223Y98.254
X76.245Y70.043
X76.357Y18.145
X76.609Y70.883
X78.547Y69.797
X78.699Y45.356
X79.485Y38.092
X80.084Y67.76
X80.262Y42.818
X81.124Y125.103
X82.04Y44.562
X82.098Y69.915
X83.44Y26.52
X83.59Y48.872
X84.297Y31.797
X84.31Y66.189
X84.784Y58.777
X85.156Y65.22
X85.837Y63.95
X86.301Y65.256
X86.899Y66.763
X87.99Y62.503
X88.192Y70.59
X88.584Y58.969
X88.602Y61.919
X89.0Y105.025
X89.079Y11.901
X89.723Y70.775
X89.791Y80.929
X90.07Y43.757
X90.722Y58.371
X91.202Y110.81
X92.088Y113.223
X92.502Y24.207
X93.064Y60.717
X94.048Y42.185
X94.332Y98.49
X94.668Y68.321
X94.856Y102.46
X94.987Y69.084
X95.156Y67.195
X95.788Y15.12
X96.173Y50.6
X96.224Y101.03
X97.032Y96.46
X98.023Y60.717
X98.645Y67.499
X98.793Y89.243
X99.8Y50.313
X99.852Y47.361
X99.992Y10.682
X100.027Y41.763
X100.059Y21.554
X100.403Y46.148
X100.583Y105.371
X100.672Y35.745
X100.753Y43.82
X100.814Y40.417
X100.856Y45.028
X101.144Y36.38
X101.366Y83.331
X101.688Y31.646
X101.948Y37.673
X101.948Y34.463
X102.218Y30.581
X102.297Y18.102
X102.325Y13.736
X102.407Y32.175
X102.475Y49.805
X102.77Y41.321
X102.968Y82.65
X103.1Y24.065
X103.251Y21.607
X105.673Y123.616
X106.627Y127.448
X107.109Y81.989
X108.09Y85.79
X110.81Y80.377
X110.872Y99.132
X111.111Y100.14
X112.5Y47.814
X112.582Y102.359
X112.598Y125.827
X113.345Y126.379
X113.957Y92.51
X115.318Y95.685
X115.322Y94.685
X116.725Y67.523
X116.725Y12.367
X117.664Y43.269
X118.303Y93.415
X118.32Y97.227
X118.646Y74.532
X118.846Y40.394
X119.365Y101.236
X121.718Y84.575
X122.408Y85.211
X123.0Y46.51
X123.571Y41.321
X123.741Y98.495
X123.742Y67.49
X123.742Y52.266
X124.025Y51.497
X124.157Y95.663
X124.432Y99.724
X125.934Y28.583
X126.207Y39.849
X127.989Y94.647
X128.11Y88.33
X129.062Y104.819
X130.039Y93.415
X132.018Y121.137
X137.245Y35.745
X137.907Y101.978
X138.4Y38.896
X142.55Y38.975
X148.572Y30.14
X149.21Y26.316
X149.56Y120.597
X150.488Y68.675
X151.511Y101.829
X151.797Y99.854
X154.085Y67.675
X154.434Y96.713
X154.875Y67.311
X154.875Y62.284
X155.633Y69.53
X155.667Y67.675
X155.667Y57.303
X156.516Y111.948
X156.516Y101.249
X157.261Y63.741
X158.16Y69.175
X159.237Y59.108
X160.24Y57.05
X160.305Y67.716
X160.397Y54.89
X160.902Y69.199
X161.064Y66.852
X161.261Y58.624
X161.733Y76.228
X161.733Y69.219
X161.976Y55.268
X162.269Y68.651
X162.452Y67.175
X162.475Y54.325
X163.233Y65.638
X163.835Y98.64
X163.857Y101.398
X163.996Y49.579
X164.483Y67.502
X166.83Y104.503
X169.37Y89.599
X169.942Y92.019
X172.75Y61.035
X173.346Y63.756
X173.637Y90.596
X174.07Y56.114
X174.622Y50.415
X178.0Y122.057
X178.718Y67.864
X179.336Y70.046
T2
X19.115Y71.242
X19.115Y67.803
X22.208Y59.758
X26.556Y59.412
X27.784Y63.289
X31.982Y67.359
X32.294Y120.32
X34.065Y54.785
X34.065Y51.495
X34.837Y66.651
X36.24Y59.829
X39.5Y62.793
X40.44Y63.346
X44.653Y62.861
X44.95Y122.431
X46.469Y60.991
X51.164Y59.798
X51.197Y69.794
X52.247Y54.839
X53.322Y91.735
X53.692Y67.299
X55.368Y55.535
X56.322Y66.441
X60.093Y121.855
X60.719Y65.355
X76.825Y120.318
X83.694Y123.158
X86.129Y104.468
X102.066Y123.196
X116.725Y120.299
X124.588Y91.522
X140.376Y120.253
X148.52Y120.269
X150.339Y118.165
T3
X15.985Y110.725
X21.065Y110.715
X130.0Y110.54
X130.0Y108.0
X132.54Y110.54
X132.54Y108.0
X135.08Y110.54
X135.08Y108.0
X137.62Y110.54
X137.62Y108.0
X140.16Y110.54
X140.16Y108.0
X142.7Y110.54
X142.7Y108.0
X145.24Y110.54
X145.24Y108.0
X147.78Y110.54
X147.78Y108.0
X150.32Y110.54
X150.32Y108.0
X152.86Y110.54
X152.86Y108.0
X155.4Y110.54
X155.4Y108.0
X157.94Y110.54
X157.94Y108.0
X160.48Y110.54
X160.48Y108.0
X163.02Y110.54
X163.02Y108.0
X165.56Y110.54
X165.56Y108.0
X168.1Y110.54
X168.1Y108.0
X170.64Y110.54
X170.64Y108.0
X173.18Y110.54
X173.18Y108.0
X175.72Y110.54
X175.72Y108.0
X178.26Y110.54
X178.26Y108.0
T4
X8.53Y94.0
X8.53Y90.5
X11.0Y8.53
X14.5Y8.53
X18.0Y8.53
X21.5Y8.53
X29.0Y8.53
X32.5Y8.53
X36.0Y8.53
X39.5Y8.53
X47.0Y8.53
X50.5Y8.53
X54.0Y8.53
X57.5Y8.53
X65.0Y8.53
X68.5Y8.53
X72.0Y8.53
X75.5Y8.53
X84.0Y8.53
X87.5Y8.53
X91.0Y8.53
X94.5Y8.53
X98.0Y8.53
X101.5Y8.53
X109.0Y8.53
X112.5Y8.53
X116.0Y8.53
X119.5Y8.53
X123.0Y8.53
X126.5Y8.53
X134.0Y8.53
X137.5Y8.53
X141.0Y8.53
X144.5Y8.53
X148.0Y8.53
X151.5Y8.53
X159.0Y8.53
X162.5Y8.53
X166.0Y8.53
X169.5Y8.53
X173.0Y8.53
X176.5Y8.53
X186.47Y97.0
X186.47Y93.5
X186.47Y90.0
X186.47Y82.0
X186.47Y78.5
X186.47Y75.0
X186.47Y66.5
X186.47Y63.0
X186.47Y59.5
X186.47Y56.0
X186.47Y52.5
X186.47Y49.0
X186.47Y45.5
X186.47Y42.0
X186.47Y35.0
X186.47Y31.5
X186.47Y28.0
X186.47Y24.5
X186.47Y21.0
X186.47Y17.5
X186.47Y14.0
X186.47Y10.5
T5
X10.8Y142.0
X10.8Y129.8
X16.8Y144.0
X22.8Y142.0
X22.8Y129.8
X33.8Y142.0
X33.8Y129.8
X39.8Y144.0
X45.8Y142.0
X45.8Y129.8
X50.0Y103.0
X50.0Y84.0
X52.0Y109.0
X52.0Y97.0
X52.0Y90.0
X52.0Y78.0
X56.8Y142.0
X56.8Y129.8
X62.8Y144.0
X64.2Y109.0
X64.2Y97.0
X64.2Y90.0
X64.2Y78.0
X68.8Y142.0
X68.8Y129.8
X79.8Y142.0
X79.8Y129.8
X85.8Y144.0
X91.8Y142.0
X91.8Y129.8
X102.8Y142.0
X102.8Y129.8
X108.8Y144.0
X114.8Y142.0
X114.8Y129.8
X125.8Y142.0
X125.8Y129.8
X131.8Y144.0
X137.8Y142.0
X137.8Y129.8
X148.8Y142.0
X148.8Y129.8
X154.8Y144.0
X160.8Y142.0
X160.8Y129.8
X171.8Y142.0
X171.8Y129.8
X177.8Y144.0
X183.8Y142.0
X183.8Y129.8
T6
X10.53Y110.0
X10.53Y104.92
X11.72Y149.47
X16.8Y149.47
X21.88Y149.47
X34.72Y149.47
X39.8Y149.47
X44.88Y149.47
X57.72Y149.47
X62.8Y149.47
X67.88Y149.47
X80.72Y149.47
X85.8Y149.47
X90.88Y149.47
X103.72Y149.47
X108.8Y149.47
X113.88Y149.47
X126.72Y149.47
X131.8Y149.47
X136.88Y149.47
X149.72Y149.47
X154.8Y149.47
X159.88Y149.47
X172.72Y149.47
X177.8Y149.47
X182.88Y149.47
M30
